<svg xmlns="http://www.w3.org/2000/svg" width="60" height="29.224" viewBox="0 0 60 29.224"><defs><style>.a{fill:#88a84c;}.b{fill:#c44645;}.c{fill:#ffcb82;}.d{fill:#614f49;}.e{fill:#a7cb64;}.f{fill:#403430;}.g{fill:#3e312c;}.h{fill:#fff;}.i{fill:#6b892b;}.j{fill:#5b514e;}.k{fill:#1d1715;}.l{fill:#dad1d1;}.m{fill:#1d1d1b;opacity:0.1;}.n{opacity:0.2;}.o{fill:#ededed;}.p{fill:#c6c6c6;}.q{fill:#dadada;}</style></defs><g transform="translate(-1.77 -154.74)"><rect class="a" width="4.055" height="10.969" rx="2.027" transform="translate(1.77 164.504)"/><path class="b" d="M29.092,287.172h-.93a.522.522,0,0,1-.521-.522v-3.778a.522.522,0,0,1,.521-.522h.93Z" transform="translate(-23.268 -114.773)"/><path class="c" d="M563.93,287.037c0,1.191.7,2.157,1.563,2.157s1.562-.966,1.562-2.157-.7-2.157-1.563-2.157S563.93,285.846,563.93,287.037Z" transform="translate(-505.61 -117.049)"/><rect class="d" width="0.691" height="4.821" transform="translate(60.117 167.577)"/><path class="e" d="M34,166.068v11.669H89.226l-.122-9.9a1.268,1.268,0,0,0-.02-.235,1.535,1.535,0,0,0-1.4-1.281L74.008,165.3l-.21-.013-.073-.413-1.438-7.735a2.832,2.832,0,0,0-.174-.585,2.917,2.917,0,0,0-2.692-1.8H40.047a4.008,4.008,0,0,0-3.341,1.8,3.939,3.939,0,0,0-.531,1.188L34.2,165.3Z" transform="translate(-28.988 -0.018)"/><path class="a" d="M293.091,180.36h10.361a.572.572,0,0,1,.562.468l1.53,8.286a.522.522,0,0,1,.01.1V198.3a.572.572,0,0,1-.572.572H293.091a.571.571,0,0,1-.571-.572V180.932a.571.571,0,0,1,.571-.572Z" transform="translate(-261.502 -23.043)"/><path class="f" d="M297.88,193.449v-7.7a.032.032,0,0,1,.033-.033h10.361a.032.032,0,0,1,.032.026l1.426,7.7Z" transform="translate(-266.323 -27.863)"/><rect class="a" width="55.235" height="1.41" transform="translate(5.007 176.304)"/><path class="g" d="M425.539,326.063c0-.06-.009-.119-.009-.179a6.2,6.2,0,1,1,12.407,0c0,.06-.009.119-.01.179Z" transform="translate(-381.133 -148.348)"/><path class="g" d="M73.368,326.072c0-.06-.008-.119-.008-.179a6.2,6.2,0,1,1,12.405,0c0,.06-.008.119-.009.179Z" transform="translate(-64.389 -148.357)"/><rect class="h" width="2.496" height="0.888" rx="0.444" transform="translate(32.032 166.606)"/><rect class="i" width="3.648" height="2.735" rx="1.368" transform="translate(8.842 166.969)"/><path class="a" d="M431.78,259.56v.023a2.27,2.27,0,0,0,2.27,2.271h12.8a1.533,1.533,0,0,0-1.394-1.28Z" transform="translate(-386.754 -94.276)"/><path class="a" d="M60.9,156.538H96.306a2.917,2.917,0,0,0-2.692-1.8H64.241a4.008,4.008,0,0,0-3.344,1.8Z" transform="translate(-53.179 0)"/><path class="a" d="M149.511,189.081l2.087-8.2a.689.689,0,0,1,.668-.519h10.143a.689.689,0,0,1,.69.689v17.136a.69.69,0,0,1-.69.689h-6.917a.7.7,0,0,1-.675-.555,6.471,6.471,0,0,0-4.739-4.4.694.694,0,0,1-.588-.681v-3.984A.646.646,0,0,1,149.511,189.081Z" transform="translate(-132.86 -23.043)"/><path class="f" d="M156.37,193.45l1.938-7.617a.151.151,0,0,1,.146-.113H168.6a.15.15,0,0,1,.15.15v7.58Z" transform="translate(-139.048 -27.864)"/><rect class="h" width="2.496" height="0.888" rx="0.444" transform="translate(17.389 166.606)"/><path class="j" d="M311.385,188.1l5.506,7.251h-2.819L308.52,188.1Z" transform="translate(-275.893 -30.004)"/><path class="j" d="M340.741,188.1l5.47,7.251h-.718L340.01,188.1Z" transform="translate(-304.215 -30.004)"/><path class="j" d="M184.715,188.1l5.507,7.251H187.4L181.85,188.1Z" transform="translate(-161.965 -30.004)"/><path class="j" d="M214.062,188.1l5.47,7.251h-.718L213.33,188.1Z" transform="translate(-190.278 -30.004)"/><path class="i" d="M94.66,185.69a.27.27,0,0,0,.27.27h3.235a.271.271,0,0,0,.271-.27h0a.271.271,0,0,0-.271-.27H94.93A.27.27,0,0,0,94.66,185.69Z" transform="translate(-83.546 -27.594)"/><path class="i" d="M92.43,194.79a.27.27,0,0,0,.27.27h3.235a.27.27,0,0,0,.275-.27h0a.27.27,0,0,0-.27-.27H92.7A.27.27,0,0,0,92.43,194.79Z" transform="translate(-81.54 -35.778)"/><path class="i" d="M90.2,203.908a.27.27,0,0,0,.27.272H93.7a.27.27,0,0,0,.27-.27h0a.27.27,0,0,0-.27-.27H90.47a.27.27,0,0,0-.27.27Z" transform="translate(-79.534 -43.981)"/><path class="i" d="M88,212.99a.27.27,0,0,0,.27.27H91.5a.27.27,0,0,0,.27-.27h0a.27.27,0,0,0-.27-.27H88.267A.27.27,0,0,0,88,212.99Z" transform="translate(-77.556 -52.148)"/><path class="i" d="M85.73,222.09a.271.271,0,0,0,.271.27h3.235a.27.27,0,0,0,.27-.27h0a.27.27,0,0,0-.27-.27H86A.271.271,0,0,0,85.73,222.09Z" transform="translate(-75.514 -60.332)"/><path class="i" d="M83.5,231.19a.27.27,0,0,0,.271.27h3.235a.27.27,0,0,0,.267-.27h0a.27.27,0,0,0-.27-.27H83.771a.27.27,0,0,0-.271.27Z" transform="translate(-73.508 -68.517)"/><path class="i" d="M81.27,240.29a.27.27,0,0,0,.275.27h3.236a.27.27,0,0,0,.27-.27h0a.27.27,0,0,0-.27-.27H81.545a.27.27,0,0,0-.27.27Z" transform="translate(-71.503 -76.701)"/><path class="k" d="M458,353.94a2.936,2.936,0,1,0,.859-2.079A2.937,2.937,0,0,0,458,353.94Z" transform="translate(-410.336 -176.517)"/><path class="l" d="M472.31,366.848a1.5,1.5,0,1,0,1.5-1.5A1.5,1.5,0,0,0,472.31,366.848Zm.923-.573a.214.214,0,1,1,0-.3A.214.214,0,0,1,473.234,366.274Zm.7-.348a.124.124,0,1,1-.036-.088.125.125,0,0,1,.036.088Zm.751.346a.214.214,0,1,1,0-.3A.214.214,0,0,1,474.682,366.272Zm.045.7a.126.126,0,1,1,.118-.059A.126.126,0,0,1,474.727,366.971Zm-.347.448a.214.214,0,1,1,0,.3A.214.214,0,0,1,474.38,367.418Zm-.693.348a.124.124,0,1,1,.036.088A.125.125,0,0,1,473.687,367.766Zm-.446-.919a.563.563,0,1,1,.165.4.569.569,0,0,1-.165-.4Zm-.3.573a.089.089,0,1,1-.007,0Zm-.17-.573a.125.125,0,1,1,.125.125.126.126,0,0,1-.125-.125Z" transform="translate(-423.207 -189.424)"/><path class="k" d="M105.82,353.94a2.936,2.936,0,1,0,.858-2.079A2.937,2.937,0,0,0,105.82,353.94Z" transform="translate(-93.583 -176.518)"/><path class="l" d="M559.9,353.527h2.607a1.249,1.249,0,0,0,1.248-1.249v-.025A1.249,1.249,0,0,0,562.507,351H559.9Z" transform="translate(-501.986 -176.517)"/><path class="l" d="M16.029,353.527h2.606V351H16.029a1.249,1.249,0,0,0-1.249,1.249v.025a1.249,1.249,0,0,0,1.249,1.252Z" transform="translate(-11.701 -176.517)"/><path class="m" d="M1.88,425.278c0,.584,13.09,1.058,29.237,1.058s29.236-.474,29.236-1.058S47.26,424.22,31.117,424.22,1.88,424.694,1.88,425.278Z" transform="translate(-0.099 -242.372)"/><path class="d" d="M418.607,254.624c.224.585.727.167.5-.322l-.735-1.482-.244.74Z" transform="translate(-374.477 -88.214)"/><path class="a" d="M412.28,240.732a.738.738,0,0,0,.733-.654l.253-2.223a.829.829,0,0,0-.651-.995Z" transform="translate(-369.215 -73.859)"/><path class="n" d="M60.211,321.936l.011.905h.016v1.408H5.012v-1.408h0V322c-.022,0-.043.007-.066.007H2.652a.883.883,0,0,1-.882-.883V317.67Z" transform="translate(0 -146.54)"/><path class="l" d="M452.77,349.249a3.463,3.463,0,1,0,3.459-3.468A3.464,3.464,0,0,0,452.77,349.249Zm1.26-1.273a.387.387,0,1,1-.169-.474A.359.359,0,0,1,454.03,347.975Zm2.2-1.112a2.381,2.381,0,1,1-2.378,2.383A2.381,2.381,0,0,1,456.23,346.863Zm-1.271.181a.388.388,0,1,1,.092-.495A.359.359,0,0,1,454.96,347.045Zm1.6-.725a.331.331,0,1,1-.328-.381A.358.358,0,0,1,456.557,346.319Zm1.419.554a.331.331,0,1,1-.092-.495A.357.357,0,0,1,457.977,346.873Zm.953,1.189a.331.331,0,1,1,.166-.475A.359.359,0,0,1,458.929,348.063Zm.229,1.509a.332.332,0,1,1,.383-.327.36.36,0,0,1-.383.325Zm-.722.945a.387.387,0,1,1,.167.475.357.357,0,0,1-.167-.477Zm-.93.932a.388.388,0,1,1-.092.495.358.358,0,0,1,.092-.5Zm-1.594.722a.332.332,0,1,1,.328.382A.358.358,0,0,1,455.912,352.17Zm-1.418-.554a.332.332,0,1,1,.092.495.358.358,0,0,1-.1-.495Zm-.956-1.186a.332.332,0,1,1-.169.476A.359.359,0,0,1,453.538,350.429Zm-.613-1.178a.387.387,0,1,1,.383.327.36.36,0,0,1-.383-.331Z" transform="translate(-405.632 -171.823)"/><path class="o" d="M463.53,358.933a2.381,2.381,0,1,0,2.378-2.383A2.381,2.381,0,0,0,463.53,358.933Zm.883,0a1.5,1.5,0,1,1,.44,1.058A1.5,1.5,0,0,1,464.413,358.933Z" transform="translate(-415.31 -181.509)"/><path class="p" d="M472.31,366.848a1.5,1.5,0,1,0,1.5-1.5A1.5,1.5,0,0,0,472.31,366.848Zm.923-.573a.214.214,0,1,1,0-.3A.214.214,0,0,1,473.234,366.274Zm.7-.348a.124.124,0,1,1-.036-.088.125.125,0,0,1,.036.088Zm.751.346a.214.214,0,1,1,0-.3A.214.214,0,0,1,474.682,366.272Zm.045.7a.126.126,0,1,1,.118-.059A.126.126,0,0,1,474.727,366.971Zm-.347.448a.214.214,0,1,1,0,.3A.214.214,0,0,1,474.38,367.418Zm-.693.348a.124.124,0,1,1,.036.088A.125.125,0,0,1,473.687,367.766Zm-.446-.919a.563.563,0,1,1,.165.4.569.569,0,0,1-.165-.4Zm-.3.573a.089.089,0,1,1-.007,0Zm-.17-.573a.125.125,0,1,1,.125.125.126.126,0,0,1-.125-.125Z" transform="translate(-423.207 -189.424)"/><path class="q" d="M448.58,345.5a3.885,3.885,0,1,0,3.88-3.888A3.885,3.885,0,0,0,448.58,345.5Zm.421,0a3.463,3.463,0,1,1,3.466,3.459A3.463,3.463,0,0,1,449,345.5Z" transform="translate(-401.864 -168.072)"/><path class="k" d="M432.68,331.2a5.484,5.484,0,1,0,5.479-5.488A5.484,5.484,0,0,0,432.68,331.2Zm2.107,0a3.377,3.377,0,1,1,3.379,3.373,3.377,3.377,0,0,1-3.379-3.373Z" transform="translate(-387.563 -153.772)"/><path class="k" d="M80.49,331.2a5.484,5.484,0,1,0,5.483-5.488A5.484,5.484,0,0,0,80.49,331.2Zm2.112,0a1.551,1.551,0,1,1-.005,0Z" transform="translate(-70.801 -153.772)"/><path class="h" d="M96.4,345.5a3.885,3.885,0,1,0,3.883-3.888A3.885,3.885,0,0,0,96.4,345.5Zm.42,0a3.464,3.464,0,1,1,3.467,3.459A3.465,3.465,0,0,1,96.82,345.5Z" transform="translate(-85.111 -168.072)"/><path class="h" d="M111.35,358.933a2.381,2.381,0,1,0,2.379-2.383A2.381,2.381,0,0,0,111.35,358.933Zm.884,0a1.5,1.5,0,1,1,1.495,1.495A1.5,1.5,0,0,1,112.234,358.933Z" transform="translate(-98.557 -181.509)"/><path class="l" d="M120.14,366.848a1.5,1.5,0,1,0,1.495-1.5A1.5,1.5,0,0,0,120.14,366.848Zm.922-.573a.214.214,0,1,1,.071-.214A.214.214,0,0,1,121.062,366.275Zm.7-.348a.124.124,0,1,1-.036-.089A.125.125,0,0,1,121.761,365.926Zm.75.346a.214.214,0,1,1,0-.3.214.214,0,0,1,0,.3Zm.044.7a.125.125,0,1,1,.089-.036A.126.126,0,0,1,122.555,366.971Zm-.346.448a.214.214,0,1,1,0,.3A.214.214,0,0,1,122.209,367.418Zm-.7.348a.124.124,0,0,1,.124-.126.126.126,0,1,1,0,.25.124.124,0,0,1-.124-.125Zm-.446-.919a.568.568,0,1,1,.569.567A.568.568,0,0,1,121.067,366.847Zm-.3.573a.213.213,0,1,1,.3.3.209.209,0,0,1-.3,0,.212.212,0,0,1,0-.3Zm-.17-.573a.125.125,0,1,1,.125.125A.126.126,0,0,1,120.6,366.847Z" transform="translate(-106.463 -189.424)"/><path class="l" d="M100.58,349.248a3.462,3.462,0,1,0,1.012-2.452A3.464,3.464,0,0,0,100.58,349.248Zm1.26-1.273a.387.387,0,1,1-.169-.474A.358.358,0,0,1,101.84,347.975Zm2.2-1.112a2.381,2.381,0,1,1-2.378,2.383A2.381,2.381,0,0,1,104.042,346.863Zm-1.272.181a.387.387,0,1,1,.093-.495.358.358,0,0,1-.094.495Zm1.6-.725a.331.331,0,1,1-.327-.381.357.357,0,0,1,.326.381Zm1.419.554a.331.331,0,1,1-.093-.495.358.358,0,0,1,.092.495Zm.953,1.189a.331.331,0,1,1,.166-.475.358.358,0,0,1-.167.475Zm.228,1.509a.332.332,0,1,1,.383-.327.357.357,0,0,1-.384.325Zm-.722.945a.387.387,0,1,1,.168.475.359.359,0,0,1-.169-.477Zm-.929.931a.388.388,0,1,1-.092.495.359.359,0,0,1,.091-.5Zm-1.6.724a.331.331,0,1,1,.328.382.357.357,0,0,1-.329-.384Zm-1.42-.554a.332.332,0,1,1,.094.495.358.358,0,0,1-.095-.5Zm-.953-1.188a.332.332,0,1,1-.167.476A.36.36,0,0,1,101.347,350.429Zm-.612-1.178a.388.388,0,1,1,.383.327.358.358,0,0,1-.383-.331Z" transform="translate(-88.87 -171.823)"/></g></svg>