<svg id="Layer_1" data-name="Layer 1" xmlns="http://www.w3.org/2000/svg" viewBox="0 0 600 600"><title>14</title><path d="M48.38,311.41l1,.09c1,.09,1.86-1.45,2.08-3.52l1.31-12.38c.24-2.29-.45-4.32-1.51-4.39l-.69,0c-.93-.07-1.81,1.37-2.07,3.36l-1.59,12.22C46.58,309.13,47.28,311.31,48.38,311.41Z" style="fill:#e94e1b"/><path d="M549.8,315.26l3.54-.3a4.94,4.94,0,0,0,4.29-4.58l1.63-17a4.72,4.72,0,0,0-3.32-5.15l-2.26-.57Z" style="fill:#f9b659"/><polygon points="548.34 316.06 553.48 315.71 556.6 287.02 550.2 286.84 548.34 316.06" style="fill:#122237"/><path d="M40.72,363.84c0,3.43,114.74,6.21,256.3,6.21s256.29-2.78,256.29-6.21-114.75-6.2-256.29-6.2S40.72,360.42,40.72,363.84Z" style="fill:#1d1d1b;opacity:0.1"/><path d="M549.05,333l5.71.14a2.89,2.89,0,0,0,2.93-2.47l1.38-9.34a2.89,2.89,0,0,0-2.86-3.32h-7.66l-1.73,12.37A2.3,2.3,0,0,0,549.05,333Z" style="fill:#dad1d1"/><path d="M66.54,334.9,121,338.68l2.87.2,6.83.48H505.57l31.59-4.05a15.06,15.06,0,0,0,13-13l3.51-33.77c1.1-8.55-5.33-10.11-13.94-10.55l-142.24-7.11A26.1,26.1,0,0,1,383,265.47L341.2,233.29a16,16,0,0,0-9.81-3.34H208.47a45.83,45.83,0,0,0-31.94,13l-18.12,17.7a16.17,16.17,0,0,1-8.07,4.29l-91,18.85a10.33,10.33,0,0,0-8.16,9l-2.31,20.94A19.15,19.15,0,0,0,66.54,334.9Z" style="fill:#a7cb64"/><path d="M406.29,275.44l133.25,6.67c3,.16,11.12.45,10,7.24L546,321.76c2.25-37.1-2.17-34.92-17.79-36.14Z" style="fill:#f6f6f6;opacity:0.2"/><path d="M53,314.15l2.31-20.94a6.16,6.16,0,0,1,4.87-5.36l90.34-19.73a5.86,5.86,0,0,1,1.7.65C64.25,289.4,60.15,287.85,53,314.15Z" style="fill:#f6f6f6;opacity:0.2"/><path d="M331.39,234.12a11.92,11.92,0,0,1,7.26,2.47l41.79,32.18a29.69,29.69,0,0,0,5.72,3.47L391.71,295l-5.55,40.23H275.07l4.17-41.74-4.17-59.33Z" style="fill:#88a84c"/><path d="M279.54,238.29h51.85a7.71,7.71,0,0,1,4.72,1.6l41.79,32.18c.3.24.63.45.94.67H282Z" style="fill:#403430"/><path d="M196.41,240.47a14.92,14.92,0,0,1,12-6.35h62.51l4.16,59.33-4.16,41.74H205.28a44,44,0,0,0-31.16-38l-.25-20a15.71,15.71,0,0,1,2.93-9.34Z" style="fill:#88a84c"/><path d="M199.8,242.89a10.72,10.72,0,0,1,8.68-4.6H267l2.42,34.55-90.52-.1Z" style="fill:#403430"/><rect x="284.79" y="278.76" width="18.52" height="5.9" style="fill:#fff"/><rect x="178.93" y="278.76" width="18.51" height="5.9" style="fill:#dad1d1"/><path d="M49,313.63l-.25,2.68H60.06a10.43,10.43,0,0,1,10.43,10.43v.11l-24.62-1.1c-2.78-.08-5.36-2.32-5.14-5.1.05-.61.09-1.19.14-1.74a5.8,5.8,0,0,1,5.79-5.28Z" style="fill:#dad1d1"/><path d="M538.6,330.38h14.84a2.75,2.75,0,0,0,2.69-2.17l.89-4.07a2.76,2.76,0,0,0-2.69-3.35H539.48a2.77,2.77,0,0,0-2.69,2.17l-.88,4.07A2.76,2.76,0,0,0,538.6,330.38Z" style="fill:#dad1d1"/><polygon points="362.11 274.37 370.98 278.35 371.54 273.87 364 266.88 362.11 274.37" style="fill:#a7cb64"/><path d="M359.67,261.11l.73.09a5.53,5.53,0,0,1,4.69,4.15l1.15,4.66a7.1,7.1,0,0,1-7.76,8.75l-1-.12Z" style="fill:#a7cb64"/><path d="M422.43,339.36h74.7l-2.08-11.75a23.55,23.55,0,0,0-23.19-19.46H449.3a25.48,25.48,0,0,0-25.08,21.05Z" style="fill:#403430"/><path d="M121,338.68l2.87.2,2.79.19,4,.29h64.89l-2.08-11.75a23.57,23.57,0,0,0-23.2-19.46H147.72a25.49,25.49,0,0,0-25.1,21.05Z" style="fill:#403430"/><polygon points="314.79 239.79 339.1 271.79 319.88 271.79 295.38 239.79 314.79 239.79" style="fill:#5b514e"/><polygon points="323.5 239.79 347.65 271.79 341.44 271.79 317.24 239.79 323.5 239.79" style="fill:#5b514e"/><polygon points="230.6 239.79 254.9 271.79 235.69 271.79 211.19 239.79 230.6 239.79" style="fill:#5b514e"/><polygon points="239.31 239.79 263.46 271.79 257.25 271.79 233.04 239.79 239.31 239.79" style="fill:#5b514e"/><path d="M40.87,318.91c0,.55-.09,1.13-.14,1.74-.22,2.78,2.36,5,5.14,5.1l5.82.26a19.09,19.09,0,0,0,14.85,8.89L121,338.68l2.87.2,6.83.48H505.57l31.59-4.05a15,15,0,0,0,9.33-4.93h.33a2.3,2.3,0,0,0,2.23,2.62l5.71.14a2.89,2.89,0,0,0,2.93-2.47l1.38-9.34a2.6,2.6,0,0,0,0-.88L48,298.13l-1.12,8.62c-.31,2.38.39,4.56,1.49,4.66l.7.07-.24,2.15H46.66A5.8,5.8,0,0,0,40.87,318.91Zm7.85-2.6,0-.21c0,.07,0,.14,0,.21Z" style="opacity:0.2"/><path d="M439.27,333.32a20.51,20.51,0,1,0,20.51-20.5A20.5,20.5,0,0,0,439.27,333.32Z" style="fill:#dad1d1"/><path d="M427.63,333.36a31.22,31.22,0,0,0,.57,6,32.15,32.15,0,1,0,54.55-28.54,23.42,23.42,0,0,0-10.89-2.67H449.3a25.38,25.38,0,0,0-13.77,4.05A32,32,0,0,0,427.63,333.36Zm32.17,19.76a19.8,19.8,0,0,1-18.87-13.76,19.4,19.4,0,0,1-.94-6,19.79,19.79,0,1,1,19.81,19.78Z" style="fill:#1d1715"/><path d="M444.82,333.32a15,15,0,1,0,15-14.95A15,15,0,0,0,444.82,333.32Z" style="fill:#fff"/><path d="M450.76,333.32a9,9,0,1,0,9-9A9,9,0,0,0,450.76,333.32Z" style="fill:#dad1d1"/><path d="M467.59,317.05a18.22,18.22,0,0,1,7.6,6.87l-15.41,9.27Z" style="fill:#fff;opacity:0.5"/><path d="M459.78,333.19l-7.9,16.36a18.17,18.17,0,0,1-7.62-7Z" style="fill:#fff;opacity:0.5"/><path d="M137.74,333.32a20.51,20.51,0,1,0,20.51-20.5A20.51,20.51,0,0,0,137.74,333.32Z" style="fill:#dad1d1"/><path d="M126.1,333.36a31.66,31.66,0,0,0,.52,5.71,32.15,32.15,0,1,0,54.67-28.18,23.36,23.36,0,0,0-11-2.74H147.72a25.44,25.44,0,0,0-13.63,4A32,32,0,0,0,126.1,333.36Zm32.17,19.76a19.75,19.75,0,1,1,18.84-13.76A19.8,19.8,0,0,1,158.27,353.12Z" style="fill:#1d1715"/><path d="M143.3,333.32a14.95,14.95,0,1,0,14.95-14.95A14.95,14.95,0,0,0,143.3,333.32Z" style="fill:#fff"/><path d="M149.23,333.32a9,9,0,1,0,9-9A9,9,0,0,0,149.23,333.32Z" style="fill:#dad1d1"/><path d="M166.06,317.05a18.16,18.16,0,0,1,7.6,6.87l-15.4,9.27Z" style="fill:#fff;opacity:0.5"/><path d="M158.26,333.19l-7.91,16.36a18.17,18.17,0,0,1-7.62-7Z" style="fill:#fff;opacity:0.5"/></svg>