<svg id="Layer_1" data-name="Layer 1" xmlns="http://www.w3.org/2000/svg" viewBox="0 0 600 600"><title>0</title><rect x="1.77" y="251.8" width="40.31" height="109.04" rx="8.77" style="fill:#88a84c"/><path d="M42.07,330.29H32.82a5.19,5.19,0,0,1-5.18-5.19V287.54a5.19,5.19,0,0,1,5.18-5.19h9.25Z" style="fill:#c44645"/><path d="M563.93,306.32c0,11.84,7,21.44,15.54,21.44S595,318.16,595,306.32s-7-21.44-15.54-21.44S563.93,294.48,563.93,306.32Z" style="fill:#ffcb82"/><rect x="581.8" y="282.35" width="6.87" height="47.93" style="fill:#614f49"/><path d="M34,267.17v116H583l-1.21-98.43a12.59,12.59,0,0,0-.2-2.34,15.26,15.26,0,0,0-13.87-12.73l-136-10.09-2.09-.13-.73-4.11-14.3-76.89a28.16,28.16,0,0,0-1.73-5.82,29,29,0,0,0-26.76-17.87h-292A39.84,39.84,0,0,0,60.9,172.61a39.17,39.17,0,0,0-5.28,11.81L36,259.49Z" style="fill:#a7cb64"/><path d="M298.2,180.36h103a5.69,5.69,0,0,1,5.59,4.65L422,267.38a5.14,5.14,0,0,1,.1,1v90.31a5.69,5.69,0,0,1-5.69,5.69H298.2a5.68,5.68,0,0,1-5.68-5.69V186.05A5.68,5.68,0,0,1,298.2,180.36Z" style="fill:#88a84c"/><path d="M297.88,262.56V186.05a.32.32,0,0,1,.33-.33h103a.32.32,0,0,1,.32.26l14.18,76.58Z" style="fill:#403430"/><rect x="33.95" y="369.11" width="549.09" height="14.02" style="fill:#88a84c"/><path d="M425.62,383.13c0-.6-.09-1.18-.09-1.78a61.67,61.67,0,0,1,123.33,0c0,.6-.08,1.18-.09,1.78Z" style="fill:#3e312c"/><path d="M73.44,383.13c0-.6-.08-1.18-.08-1.78a61.66,61.66,0,1,1,123.32,0c0,.6-.08,1.18-.09,1.78Z" style="fill:#3e312c"/><rect x="302.6" y="272.7" width="24.81" height="8.83" rx="4.3" style="fill:#fff"/><rect x="72.07" y="276.31" width="36.26" height="27.19" rx="9.58" style="fill:#6b892b"/><path d="M431.78,259.56v.23a22.57,22.57,0,0,0,22.57,22.58H581.6a15.24,15.24,0,0,0-13.86-12.72Z" style="fill:#88a84c"/><path d="M60.9,172.61h352a29,29,0,0,0-26.76-17.87h-292A39.84,39.84,0,0,0,60.9,172.61Z" style="fill:#88a84c"/><path d="M149.7,267.06l20.75-81.54a6.85,6.85,0,0,1,6.64-5.16H277.92a6.85,6.85,0,0,1,6.86,6.85V357.56a6.86,6.86,0,0,1-6.86,6.85H209.16a6.91,6.91,0,0,1-6.71-5.52c-4.31-19.55-26.39-40.3-47.11-43.76a6.9,6.9,0,0,1-5.85-6.77V268.75A6.42,6.42,0,0,1,149.7,267.06Z" style="fill:#88a84c"/><path d="M156.37,262.56l19.27-75.72a1.5,1.5,0,0,1,1.45-1.12H277.92a1.49,1.49,0,0,1,1.49,1.49v75.35Z" style="fill:#403430"/><rect x="157.04" y="272.7" width="24.81" height="8.83" rx="4.3" style="fill:#fff"/><polygon points="337 188.1 391.74 260.18 363.72 260.18 308.52 188.1 337 188.1" style="fill:#5b514e"/><polygon points="347.28 188.1 401.66 260.18 394.52 260.18 340.01 188.1 347.28 188.1" style="fill:#5b514e"/><polygon points="210.33 188.1 265.07 260.18 237.05 260.18 181.85 188.1 210.33 188.1" style="fill:#5b514e"/><polygon points="220.61 188.1 274.99 260.18 267.85 260.18 213.33 188.1 220.61 188.1" style="fill:#5b514e"/><path d="M94.66,188.1a2.68,2.68,0,0,0,2.68,2.68H129.5a2.69,2.69,0,0,0,2.69-2.68h0a2.69,2.69,0,0,0-2.69-2.68H97.34a2.68,2.68,0,0,0-2.68,2.68Z" style="fill:#6b892b"/><path d="M92.43,197.2a2.68,2.68,0,0,0,2.68,2.68h32.16A2.68,2.68,0,0,0,130,197.2h0a2.68,2.68,0,0,0-2.68-2.68H95.11a2.68,2.68,0,0,0-2.68,2.68Z" style="fill:#6b892b"/><path d="M90.2,206.3A2.68,2.68,0,0,0,92.88,209H125a2.68,2.68,0,0,0,2.68-2.68h0a2.68,2.68,0,0,0-2.68-2.68H92.88a2.68,2.68,0,0,0-2.68,2.68Z" style="fill:#6b892b"/><path d="M88,215.4a2.68,2.68,0,0,0,2.68,2.68h32.16a2.68,2.68,0,0,0,2.68-2.68h0a2.68,2.68,0,0,0-2.68-2.68H90.65A2.68,2.68,0,0,0,88,215.4Z" style="fill:#6b892b"/><path d="M85.73,224.5a2.69,2.69,0,0,0,2.69,2.68h32.16a2.68,2.68,0,0,0,2.68-2.68h0a2.68,2.68,0,0,0-2.68-2.68H88.42a2.69,2.69,0,0,0-2.69,2.68Z" style="fill:#6b892b"/><path d="M83.5,233.6a2.68,2.68,0,0,0,2.69,2.68h32.16A2.68,2.68,0,0,0,121,233.6h0a2.68,2.68,0,0,0-2.68-2.68H86.19a2.68,2.68,0,0,0-2.69,2.68Z" style="fill:#6b892b"/><path d="M81.27,242.7A2.68,2.68,0,0,0,84,245.38h32.17a2.68,2.68,0,0,0,2.68-2.68h0a2.68,2.68,0,0,0-2.68-2.68H84a2.68,2.68,0,0,0-2.68,2.68Z" style="fill:#6b892b"/><path d="M458,380.23A29.2,29.2,0,1,0,487.19,351,29.19,29.19,0,0,0,458,380.23Z" style="fill:#1d1715"/><path d="M472.31,380.24a14.88,14.88,0,1,0,14.87-14.89A14.88,14.88,0,0,0,472.31,380.24Zm9.18-5.7a2.13,2.13,0,1,1,0-3A2.13,2.13,0,0,1,481.49,374.54Zm6.93-3.46a1.24,1.24,0,1,1-1.23-1.24A1.23,1.23,0,0,1,488.42,371.08Zm7.47,3.44a2.13,2.13,0,1,1,0-3A2.13,2.13,0,0,1,495.89,374.52Zm.45,6.94a1.25,1.25,0,0,1,0-2.49,1.25,1.25,0,1,1,0,2.49Zm-3.45,4.45a2.13,2.13,0,1,1,0,3A2.14,2.14,0,0,1,492.89,385.91ZM486,389.37a1.24,1.24,0,1,1,1.23,1.24A1.23,1.23,0,0,1,486,389.37Zm-4.43-9.14a5.66,5.66,0,1,1,5.66,5.64A5.65,5.65,0,0,1,481.54,380.23Zm-3,5.7a2.12,2.12,0,1,1,0,3A2.11,2.11,0,0,1,478.5,385.93Zm-1.69-5.7a1.25,1.25,0,0,1,1.24-1.24,1.24,1.24,0,1,1-1.24,1.24Z" style="fill:#dad1d1"/><path d="M105.82,380.23A29.2,29.2,0,1,0,135,351,29.19,29.19,0,0,0,105.82,380.23Z" style="fill:#1d1715"/><path d="M559.9,376.12h25.92a12.42,12.42,0,0,0,12.41-12.42v-.25A12.42,12.42,0,0,0,585.82,351H559.9Z" style="fill:#dad1d1"/><path d="M27.2,376.12H53.11V351H27.2a12.42,12.42,0,0,0-12.42,12.42v.25A12.42,12.42,0,0,0,27.2,376.12Z" style="fill:#dad1d1"/><path d="M1.88,434.74c0,5.81,130.13,10.52,290.64,10.52s290.63-4.71,290.63-10.52S453,424.22,292.52,424.22,1.88,428.93,1.88,434.74Z" style="fill:#1d1d1b;opacity:0.1"/><path d="M422.87,270.75c2.23,5.81,7.23,1.66,5-3.2l-7.31-14.73-2.43,7.36Z" style="fill:#614f49"/><path d="M412.28,275.35a7.34,7.34,0,0,0,7.29-6.5l2.51-22.1c.87-8.81-6.47-9.89-6.47-9.89Z" style="fill:#88a84c"/><path d="M582.73,360.08l.11,9H583v14h0v0H34v0h0v-14h0v-8.34c-.22,0-.43.07-.66.07H10.54a8.78,8.78,0,0,1-8.77-8.78V317.67Z" style="opacity:0.2"/><path d="M452.77,380.26a34.43,34.43,0,1,0,34.39-34.48A34.42,34.42,0,0,0,452.77,380.26ZM465.3,367.6a3.85,3.85,0,1,1-1.68-4.71A3.57,3.57,0,0,1,465.3,367.6Zm21.87-11.05a23.67,23.67,0,1,1-23.64,23.69A23.67,23.67,0,0,1,487.17,356.55Zm-12.63,1.8a3.86,3.86,0,1,1,.91-4.92A3.57,3.57,0,0,1,474.54,358.35Zm15.88-7.21a3.29,3.29,0,1,1-3.26-3.79A3.56,3.56,0,0,1,490.42,351.14Zm14.11,5.51a3.29,3.29,0,1,1-.91-4.92A3.55,3.55,0,0,1,504.53,356.65ZM514,368.47a3.29,3.29,0,1,1,1.65-4.72A3.57,3.57,0,0,1,514,368.47Zm2.28,15a3.3,3.3,0,1,1,3.81-3.25A3.58,3.58,0,0,1,516.28,383.45Zm-7.18,9.39a3.85,3.85,0,1,1,1.66,4.72A3.55,3.55,0,0,1,509.1,392.84Zm-9.25,9.26a3.86,3.86,0,1,1-.91,4.92A3.56,3.56,0,0,1,499.85,402.1ZM484,409.3a3.3,3.3,0,1,1,3.26,3.8A3.56,3.56,0,0,1,484,409.3Zm-14.1-5.51a3.3,3.3,0,1,1,.92,4.92A3.56,3.56,0,0,1,469.86,403.79ZM460.4,392a3.3,3.3,0,1,1-1.68,4.73A3.57,3.57,0,0,1,460.4,392Zm-6.09-11.71a3.85,3.85,0,1,1,3.81,3.25A3.58,3.58,0,0,1,454.31,380.25Z" style="fill:#dad1d1"/><path d="M463.53,380.24a23.67,23.67,0,1,0,23.64-23.69A23.67,23.67,0,0,0,463.53,380.24Zm8.78,0a14.88,14.88,0,1,1,14.9,14.86A14.87,14.87,0,0,1,472.31,380.24Z" style="fill:#ededed"/><path d="M472.31,380.24a14.88,14.88,0,1,0,14.87-14.89A14.88,14.88,0,0,0,472.31,380.24Zm9.18-5.7a2.13,2.13,0,1,1,0-3A2.13,2.13,0,0,1,481.49,374.54Zm6.93-3.46a1.24,1.24,0,1,1-1.23-1.24A1.23,1.23,0,0,1,488.42,371.08Zm7.47,3.44a2.13,2.13,0,1,1,0-3A2.13,2.13,0,0,1,495.89,374.52Zm.45,6.94a1.25,1.25,0,0,1,0-2.49,1.25,1.25,0,1,1,0,2.49Zm-3.45,4.45a2.13,2.13,0,1,1,0,3A2.14,2.14,0,0,1,492.89,385.91ZM486,389.37a1.24,1.24,0,1,1,1.23,1.24A1.23,1.23,0,0,1,486,389.37Zm-4.43-9.14a5.66,5.66,0,1,1,5.66,5.64A5.65,5.65,0,0,1,481.54,380.23Zm-3,5.7a2.12,2.12,0,1,1,0,3A2.11,2.11,0,0,1,478.5,385.93Zm-1.69-5.7a1.25,1.25,0,0,1,1.24-1.24,1.24,1.24,0,1,1-1.24,1.24Z" style="fill:#c6c6c6"/><path d="M448.58,380.26a38.62,38.62,0,1,0,38.57-38.65A38.61,38.61,0,0,0,448.58,380.26Zm4.19,0a34.43,34.43,0,1,1,34.46,34.39A34.43,34.43,0,0,1,452.77,380.26Z" style="fill:#dadada"/><path d="M432.68,380.27a54.52,54.52,0,1,0,54.47-54.56A54.51,54.51,0,0,0,432.68,380.27Zm20.95,0a33.57,33.57,0,1,1,33.59,33.53A33.57,33.57,0,0,1,453.63,380.26Z" style="fill:#1d1715"/><path d="M80.49,380.27A54.52,54.52,0,1,0,135,325.71,54.53,54.53,0,0,0,80.49,380.27Zm21,0a33.57,33.57,0,1,1,33.61,33.53A33.58,33.58,0,0,1,101.44,380.26Z" style="fill:#1d1715"/><path d="M96.4,380.26A38.62,38.62,0,1,0,135,341.61,38.61,38.61,0,0,0,96.4,380.26Zm4.18,0a34.44,34.44,0,1,1,34.47,34.39A34.45,34.45,0,0,1,100.58,380.26Z" style="fill:#fff"/><path d="M111.35,380.24A23.67,23.67,0,1,0,135,356.55,23.67,23.67,0,0,0,111.35,380.24Zm8.79,0A14.88,14.88,0,1,1,135,395.1,14.86,14.86,0,0,1,120.14,380.24Z" style="fill:#fff"/><path d="M120.14,380.24A14.88,14.88,0,1,0,135,365.35,14.88,14.88,0,0,0,120.14,380.24Zm9.17-5.7a2.13,2.13,0,0,1-3-3,2.13,2.13,0,1,1,3,3Zm6.94-3.46a1.24,1.24,0,1,1-1.24-1.24A1.23,1.23,0,0,1,136.25,371.08Zm7.46,3.44a2.13,2.13,0,1,1,0-3A2.13,2.13,0,0,1,143.71,374.52Zm.44,6.94a1.25,1.25,0,1,1,1.25-1.25A1.24,1.24,0,0,1,144.15,381.46Zm-3.44,4.45a2.13,2.13,0,1,1,0,3A2.13,2.13,0,0,1,140.71,385.91Zm-6.92,3.46a1.23,1.23,0,0,1,1.23-1.25,1.25,1.25,0,1,1,0,2.49A1.23,1.23,0,0,1,133.79,389.37Zm-4.43-9.14a5.65,5.65,0,1,1,5.66,5.64A5.65,5.65,0,0,1,129.36,380.23Zm-3,5.7a2.12,2.12,0,1,1,3,3,2.08,2.08,0,0,1-3,0A2.11,2.11,0,0,1,126.32,385.93Zm-1.69-5.7a1.25,1.25,0,0,1,1.24-1.24,1.24,1.24,0,1,1-1.24,1.24Z" style="fill:#dad1d1"/><path d="M100.58,380.26A34.44,34.44,0,1,0,135,345.78,34.42,34.42,0,0,0,100.58,380.26Zm12.53-12.66a3.85,3.85,0,1,1-1.68-4.71A3.56,3.56,0,0,1,113.11,367.6ZM135,356.55a23.67,23.67,0,1,1-23.64,23.69A23.67,23.67,0,0,1,135,356.55Zm-12.64,1.8a3.85,3.85,0,1,1,.92-4.92A3.56,3.56,0,0,1,122.35,358.35Zm15.89-7.21a3.29,3.29,0,1,1-3.25-3.79A3.55,3.55,0,0,1,138.24,351.14Zm14.11,5.51a3.29,3.29,0,1,1-.92-4.92A3.56,3.56,0,0,1,152.35,356.65Zm9.47,11.82a3.29,3.29,0,1,1,1.65-4.72A3.56,3.56,0,0,1,161.82,368.47Zm2.27,15a3.3,3.3,0,1,1,3.81-3.25A3.55,3.55,0,0,1,164.09,383.45Zm-7.18,9.39a3.85,3.85,0,1,1,1.67,4.72A3.57,3.57,0,0,1,156.91,392.84Zm-9.24,9.26a3.86,3.86,0,1,1-.91,4.92A3.57,3.57,0,0,1,147.67,402.1Zm-15.88,7.2a3.29,3.29,0,1,1,3.26,3.8A3.55,3.55,0,0,1,131.79,409.3Zm-14.12-5.51a3.3,3.3,0,1,1,.93,4.92A3.56,3.56,0,0,1,117.67,403.79ZM108.21,392a3.3,3.3,0,1,1-1.66,4.73A3.58,3.58,0,0,1,108.21,392Zm-6.08-11.71a3.86,3.86,0,1,1,3.81,3.25A3.56,3.56,0,0,1,102.13,380.25Z" style="fill:#dad1d1"/></svg>