<svg xmlns="http://www.w3.org/2000/svg" xmlns:xlink="http://www.w3.org/1999/xlink" viewBox="0 0 600 600"><defs><clipPath id="clip-path"><path d="M423,375.14c0,42.67,110.85,42.65,110.85,0l-1.28-13.57-.82-8.72A35.91,35.91,0,0,0,496,320.32H460.46a35.92,35.92,0,0,0-35.81,33.17l-.63,8.08Z" style="fill:none"/></clipPath><clipPath id="clip-path-2"><path d="M94.8,375.14c0,42.67,110.84,42.65,110.84,0l-1.28-13.57-.82-8.72a35.91,35.91,0,0,0-35.77-32.53H132.28a35.92,35.92,0,0,0-35.81,33.17l-.63,8.08Z" style="fill:none"/></clipPath></defs><title>3</title><g style="isolation:isolate"><g id="Layer_1" data-name="Layer 1"><path d="M41.67,405c0,4.85,120.56,8.78,269.27,8.78s269.28-3.93,269.28-8.78-120.56-8.78-269.28-8.78S41.67,400.18,41.67,405Z" style="fill:#1d1d1b;opacity:0.1"/><path d="M40.19,332.07l-13.57-2.7a9,9,0,0,1-7-10.55l13.86-69.53a8.94,8.94,0,0,1,10.53-7L57.56,245a9,9,0,0,1,7,10.56L50.74,325A9,9,0,0,1,40.19,332.07Z" style="fill:#88a84c"/><path d="M40.89,329.14,39.74,343a28.18,28.18,0,0,0,14.48,18.6,28.77,28.77,0,0,0,3,1.33l29.24,12.24h462l12.14-1.57a16.93,16.93,0,0,0,14.1-12,12.19,12.19,0,0,0,.38-1.5l.35-1.76.33-1.52,3.25-16,1.3-6.41a19.06,19.06,0,0,0,.3-2.22,15.42,15.42,0,0,0-.15-3.4,15.63,15.63,0,0,0-.67-2.92c-.09-.27-.18-.53-.29-.8h0L567.88,295.4a.35.35,0,0,1,0-.07h0a24.32,24.32,0,0,0-1.85-3.72,22.1,22.1,0,0,0-1.51-2.21,24.44,24.44,0,0,0-3.31-3.51,2.39,2.39,0,0,1-.22-.16,24.69,24.69,0,0,0-2.07-1.59c-.19-.15-.43-.25-.63-.38-.61-.37-1.22-.77-1.86-1.11-.45-.22-.92-.39-1.41-.6s-.81-.39-1.26-.56a20.42,20.42,0,0,0-2.82-.85L426.53,249.82a26.55,26.55,0,0,1-6.41-3.62l-53.67-46c-7.63-7-12.84-8.19-25.14-10.12-68.16-5.26-151.26-5-219.88,0a40,40,0,0,0-34.16,19.18S52.17,267.72,52,268.35l-.78,3.41L41,316.58l-.15.67a25.23,25.23,0,0,0-.62,4.64A26.09,26.09,0,0,0,40.89,329.14Z" style="fill:#a7cb64"/><path d="M277.45,349.05V199.83a5.5,5.5,0,0,1,5.67-5.5c20.11.64,39.44,1.65,57.33,3,12,1.88,15.16,2.83,21,8.22l.24.21,45,38.56a24.29,24.29,0,0,1,8.48,18.44v86.26a8.45,8.45,0,0,1-8.45,8.45H285.91A8.45,8.45,0,0,1,277.45,349.05Z" style="fill:#88a84c"/><path d="M283.34,202.88V253.2a3.69,3.69,0,0,0,3.61,3.69l117.74,2.62a3.1,3.1,0,0,0,2.92-4.35,18.13,18.13,0,0,0-4.76-6.35l-45.12-38.68-.24-.22c-4.58-4.22-6.44-4.92-17.71-6.7C323,201.92,305,201,286,200.31A2.58,2.58,0,0,0,283.34,202.88Z" style="fill:#403430"/><path d="M552.55,302.62l6.87,16.73c1.26,3.12,5,5.67,9.45,6.53a15.4,15.4,0,0,0,3.16.32l6.19,0a3.52,3.52,0,0,0,1.52-.33c-.09-.27-.18-.53-.29-.8h0L567.88,295.4a.35.35,0,0,1,0-.07h0a24.32,24.32,0,0,0-1.85-3.72,22.1,22.1,0,0,0-1.51-2.21h-1.6c-4.25,0-7.78,1.63-9.69,4.49A9.22,9.22,0,0,0,552.55,302.62Z" style="fill:#3e312c"/><path d="M554.59,301.79l.13.3,6.74,16.42c1,2.51,4.23,4.52,7.82,5.2A13.38,13.38,0,0,0,572,324l6.19,0c2.24,0,2.34-4.34-.64-12.57-2.38-6.57-4.34-10.14-6.9-16.15a6,6,0,0,0-5.54-3.65h-2.26C556,291.61,552.4,296.45,554.59,301.79Z" style="fill:#f9b659"/><path d="M54.22,361.57a28.77,28.77,0,0,0,3,1.33l29.24,12.24h462l12.14-1.57a16.93,16.93,0,0,0,14.1-12Z" style="fill:#88a84c"/><path d="M536.69,375.14h11.72l12.14-1.57a16.93,16.93,0,0,0,14.1-12,12.19,12.19,0,0,0,.38-1.5l.35-1.76.33-1.52,3.25-16,1.3-6.41a19.06,19.06,0,0,0,.3-2.22H567a23.85,23.85,0,0,0-22.92,17.26Z" style="fill:#dad1d1"/><path d="M39.22,340.08c.52,8.44.52,11.28,5.89,16.24,6.38,5.87,41.35,18.82,41.35,18.82L82.4,342a26.68,26.68,0,0,0-25.85-20.07H40.25C40.12,324.32,39.22,340.08,39.22,340.08Z" style="fill:#dad1d1"/><path d="M563.33,347.52c-.6,3.39.59,6.14,2.67,6.14s4.26-2.75,4.87-6.14-.58-6.13-2.67-6.13S563.94,344.14,563.33,347.52Z" style="fill:#88a84c"/><path d="M52.67,338.21c.52,4.83-.77,8.72-2.87,8.67s-4.23-4-4.75-8.83.77-8.72,2.88-8.67S52.16,333.38,52.67,338.21Z" style="fill:#88a84c"/><path d="M41,316.58h1.85a5.75,5.75,0,0,0,5.6-4.39l8.07-33.34a5.74,5.74,0,0,0-5.29-7.09Z" style="fill:#3e312c"/><path d="M39.22,298.49l9.81,2-2.71,11.2a3.55,3.55,0,0,1-3.45,2.71H40.63a4.13,4.13,0,0,1-4-5.1Z" style="fill:#f9b659"/><path d="M44.41,277.11a4.13,4.13,0,0,1,4-3.16H51a3.55,3.55,0,0,1,3.45,4.38L49,300.46l-9.81-2Z" style="fill:#c44645"/><path d="M408.9,256.1c.45,8.34-7.8,8.31-14,8.64a8.26,8.26,0,0,1-2.33-.2l7.3-29.71C404.9,237.4,408.5,248.82,408.9,256.1Z" style="fill:#88a84c"/><path d="M288.19,203.34l39.44,51.51,35,.78-38.4-50.56C312.76,204.35,300.69,203.77,288.19,203.34Z" style="fill:#5b514e"/><path d="M328.87,205.37,367,255.74l11.31.25-37.45-49.64-1.38-.22C336,205.87,332.46,205.62,328.87,205.37Z" style="fill:#5b514e"/><path d="M423,375.14H533.82l-1.28-13.57-.82-8.72A35.91,35.91,0,0,0,496,320.32H460.46a35.92,35.92,0,0,0-35.81,33.17l-.63,8.08Z" style="fill:#3e312c"/><path d="M185,193.86c19.49-.92,29.4-.32,47.8-.32,10.93,0,21.8.11,32.51.33a6.46,6.46,0,0,1,6.32,6.47V351.46a6,6,0,0,1-6,6H217.86a5.54,5.54,0,0,1-5.51-5l0-.46a44.73,44.73,0,0,0-44.54-40.52h-7.15a16.14,16.14,0,0,1-16.14-16.14V263.41S164.3,194.83,185,193.86Z" style="fill:#88a84c"/><path d="M121.6,253.3l-43-1a3.46,3.46,0,0,1-2.91-5.21c6.48-11,13.81-23.88,20.31-33.92,7.93-12.25,14.62-15.45,48.55-15.44a3.47,3.47,0,0,1,3.15,4.92c-6.2,13.43-16.53,33.82-22.86,48.56A3.45,3.45,0,0,1,121.6,253.3Z" style="fill:#403430"/><path d="M158,254l104.42,2.33a3.21,3.21,0,0,0,3.28-3.21V203.5c0-2.82-.68-3.73-3.44-3.76-7-.07-11.19-.24-18.2-.28-3.78,0-7.56,0-11.31,0-5.53,0-10.29-.06-14.77-.11-4,0-7.69-.09-11.54-.09-7.25,0-13.79.16-21.22.5a7.46,7.46,0,0,0-3.76,1.47c-8.15,5.59-18.55,26.25-26.41,48.53A3.21,3.21,0,0,0,158,254Z" style="fill:#403430"/><path d="M94.8,375.14H205.64l-1.29-13.57-.82-8.72a35.91,35.91,0,0,0-35.76-32.53H132.28a35.93,35.93,0,0,0-35.82,33.17l-.62,8.08Z" style="fill:#3e312c"/><path d="M286.63,272.28l20.25.55a1.59,1.59,0,0,0,1.64-1.59V267.3a1.6,1.6,0,0,0-1.56-1.6l-20.24-.56a1.6,1.6,0,0,0-1.64,1.6v3.94A1.61,1.61,0,0,0,286.63,272.28Z" style="fill:#fff"/><path d="M159,269.22l20.25.56a1.59,1.59,0,0,0,1.64-1.6v-3.93a1.59,1.59,0,0,0-1.55-1.6l-20.25-.56a1.6,1.6,0,0,0-1.64,1.6v3.93A1.59,1.59,0,0,0,159,269.22Z" style="fill:#fff"/><path d="M21.59,308.76l555.74,40-1.62,8-.33,1.52-.35,1.76a12.19,12.19,0,0,1-.38,1.5,16.93,16.93,0,0,1-14.1,12l-12.14,1.57H86.46s-35-12.95-41.35-18.82c-5.37-5-5.37-7.8-5.89-16.24,0,0,.22-3.89.47-8.11l-13.07-2.6a9,9,0,0,1-7-10.55Z" style="opacity:0.15"/><g style="clip-path:url(#clip-path)"><path d="M435.74,361.24c0,.84.08,1.68.16,2.51l-2.27.21s-.82.64-1.68,1.39l-.16.13a3.23,3.23,0,0,1-.29.25q.27,2.1.72,4.14c0,.24.1.49.15.72l.38-.4v0l.89-.9,3-.63c.18.83.37,1.64.58,2.45l-1.85.5-.34.1-.51.57c-.25.28-.58.66-.9,1.07a.84.84,0,0,0-.15.18c-.08.09-.14.18-.22.26a44.34,44.34,0,0,0,1.71,4.65l.31-.49.68-1,2.85-1.14c.31.78.66,1.55,1,2.3l-2,1s-.57.88-1.14,1.87l-.15.23-.14.28a47.65,47.65,0,0,0,2.48,4.28c.08-.2.16-.37.23-.55s.09-.21.12-.3c.24-.48.39-.81.39-.81l2.61-1.62c.44.71.89,1.42,1.38,2.1l-1.81,1.29s-.41,1-.8,2.05l-.08.23c0,.1-.07.21-.12.33,1,1.3,2.06,2.56,3.18,3.76.05-.2.1-.39.14-.57.18-.7.32-1.2.32-1.2l2.26-2c.57.62,1.15,1.24,1.74,1.82l-1.58,1.6s-.22,1.05-.41,2.17c0,.08,0,.14,0,.21s0,.24-.05.37a46,46,0,0,0,3.78,3.15c0-.2,0-.4,0-.58.05-.73.11-1.25.11-1.25l1.87-2.38c.65.52,1.34,1,2,1.49l-1.29,1.86s0,1,0,2.19v.21a2.41,2.41,0,0,1,0,.38,46.55,46.55,0,0,0,4.29,2.45c0-.2-.05-.4-.06-.56-.09-.75-.14-1.27-.14-1.27l1.44-2.69c.74.4,1.49.77,2.25,1.12l-.94,2.08s0,.3.1.75l.25,1.38c0,.08,0,.16,0,.24s0,.23.07.33a44.23,44.23,0,0,0,4.64,1.68c-.05-.2-.11-.38-.16-.57l-.36-1.16,1-2.93c.8.27,1.6.5,2.41.72l-.55,2.18s.31,1,.69,2.07c0,.09.06.16.09.26a1.25,1.25,0,0,1,.11.29,46.89,46.89,0,0,0,4.88.83c-.1-.18-.19-.35-.26-.5-.32-.65-.54-1.13-.54-1.13l.43-3c.83.11,1.67.21,2.5.27l-.18,2.24s.5.92,1.08,1.92c0,.07.07.13.1.19s.14.22.19.31c.39,0,.76.05,1.16.06,1.26,0,2.52,0,3.77-.08-.12-.15-.23-.31-.34-.46l-.73-1-.09-3c.83,0,1.67-.08,2.51-.17l.2,2.27s.65.83,1.39,1.68l.13.17.26.28a45.52,45.52,0,0,0,4.85-.87l-.41-.39c-.54-.51-.91-.89-.91-.89l-.62-3c.82-.18,1.63-.37,2.44-.58l.61,2.19.56.52c.28.25.67.58,1.07.89l.18.16.27.22a48.62,48.62,0,0,0,4.65-1.71l-.49-.32-1-.68-1.15-2.84c.79-.32,1.55-.66,2.31-1l.95,2s.89.57,1.88,1.14a1.64,1.64,0,0,0,.22.14l.29.14a47.39,47.39,0,0,0,4.27-2.47,4.85,4.85,0,0,0-.54-.23,1.94,1.94,0,0,0-.3-.13c-.48-.24-.81-.38-.81-.38l-1.63-2.62c.71-.43,1.43-.89,2.11-1.37l1.29,1.81s1,.4,2,.8a2,2,0,0,1,.22.08,1.73,1.73,0,0,1,.32.11c.82-.62,1.61-1.27,2.39-1.95.47-.38.93-.8,1.38-1.23h-.07l-.5-.12-1.19-.32-2-2.27c.62-.57,1.24-1.14,1.82-1.74l1.6,1.58s1.05.22,2.17.42l.21,0,.36.06a47.94,47.94,0,0,0,3.15-3.79l-.58,0-1.24-.1-2.39-1.87c.52-.66,1-1.35,1.5-2l1.85,1.29s1,0,2.19,0h.22a2.35,2.35,0,0,1,.38,0,46.22,46.22,0,0,0,2.45-4.29l-.57.08-1.27.12-2.68-1.44c.4-.73.76-1.48,1.12-2.25l2.07.95.75-.1,1.39-.26.23,0,.34-.06a45.9,45.9,0,0,0,1.68-4.65l-.57.17-1.16.35-2.93-1c.26-.8.5-1.61.72-2.42l2.17.56s1-.31,2.07-.7l.26-.08a1.48,1.48,0,0,1,.29-.12,49,49,0,0,0,.84-4.87l-.51.26-1.12.53-3-.42c.12-.84.21-1.67.28-2.51l2.23.18s.93-.5,1.93-1.08l.18-.1.32-.19c0-.38,0-.76,0-1.15,0-1.26,0-2.53-.07-3.78-.16.12-.31.24-.46.34l-1,.74-3,.09c0-.84-.08-1.68-.16-2.52l2.27-.2s.82-.65,1.68-1.39l.17-.13.27-.25a45.69,45.69,0,0,0-.86-4.86c-.14.15-.27.28-.39.42l-.89.9-3,.63c-.18-.83-.37-1.64-.58-2.45l2.19-.6.51-.57c.25-.28.58-.66.9-1.07l.16-.18.21-.27a47.92,47.92,0,0,0-1.71-4.65l-.31.5-.68,1-2.84,1.14c-.32-.78-.66-1.55-1-2.31l2-.95s.57-.88,1.15-1.87c0-.08.09-.15.14-.23l.14-.28a45.37,45.37,0,0,0-2.48-4.28c-.08.2-.16.36-.22.55a1.94,1.94,0,0,0-.13.3c-.24.48-.39.81-.39.81l-2.61,1.62c-.44-.71-.89-1.42-1.38-2.1l1.82-1.29s.4-1,.79-2.05c0-.08,0-.16.08-.23a2.56,2.56,0,0,1,.12-.32,47.65,47.65,0,0,0-3.18-3.77c0,.06,0,.14,0,.19v0a1.65,1.65,0,0,0-.08.34c-.19.7-.32,1.2-.32,1.2l-2.28,2c-.56-.62-1.14-1.24-1.73-1.82l1.57-1.61s.23-1,.42-2.16c0-.08,0-.14,0-.21l.06-.37a47.94,47.94,0,0,0-3.79-3.15c0,.2,0,.4,0,.58-.05.73-.11,1.24-.11,1.24l-1.87,2.39c-.65-.52-1.34-1-2-1.49l1.29-1.86s0-1.05,0-2.19v-.21a2.41,2.41,0,0,1,0-.38,46.55,46.55,0,0,0-4.29-2.45c0,.2.05.4.06.56.09.75.14,1.27.14,1.27l-1.44,2.69c-.73-.4-1.49-.77-2.25-1.12l.95-2.08s0-.31-.11-.75-.16-.88-.25-1.39a1.57,1.57,0,0,1,0-.23,1.94,1.94,0,0,0-.07-.33,44.23,44.23,0,0,0-4.64-1.68c.05.19.11.38.16.56.22.68.36,1.17.36,1.17l-1,2.92c-.8-.26-1.6-.49-2.41-.71l.55-2.18s-.31-1-.69-2.07c0-.09-.06-.16-.09-.26a2,2,0,0,1-.11-.29,46,46,0,0,0-4.88-.83c.1.18.19.35.26.5.32.65.54,1.13.54,1.13l-.43,3c-.83-.11-1.66-.21-2.5-.28l.18-2.23s-.5-.92-1.08-1.93a1.62,1.62,0,0,1-.1-.18c-.06-.11-.13-.22-.19-.31-.38,0-.76-.05-1.16-.06-1.26,0-2.52,0-3.77.08l.34.46.73,1,.09,3c-.83,0-1.67.08-2.51.17l-.2-2.27s-.65-.83-1.39-1.68l-.13-.17-.26-.28a46,46,0,0,0-4.85.87l.41.39c.54.51.91.89.91.89l.62,3c-.82.18-1.63.37-2.44.58l-.6-2.19-.57-.52c-.28-.25-.67-.58-1.07-.89l-.18-.16-.27-.22a48.62,48.62,0,0,0-4.65,1.71l.49.32,1,.68,1.15,2.84c-.78.31-1.56.66-2.31,1l-.95-2s-.89-.57-1.88-1.14l-.22-.14-.28-.15a48.69,48.69,0,0,0-4.28,2.48l.54.23a1.94,1.94,0,0,0,.3.13c.48.24.81.38.81.38l1.63,2.62c-.71.43-1.42.89-2.1,1.37l-1.3-1.81s-1-.4-2.05-.8a2,2,0,0,1-.22-.08,2,2,0,0,1-.32-.11,44,44,0,0,0-3.38,2.83,4,4,0,0,0-.38.35c.2.05.38.1.56.13l1.19.32,2.05,2.27c-.63.57-1.25,1.14-1.83,1.74l-1.6-1.58s-1-.22-2.16-.42l-.22,0-.36-.05a47.94,47.94,0,0,0-3.15,3.79l.57,0,1.25.11,2.39,1.87c-.52.66-1,1.35-1.5,2l-1.85-1.29s-1,0-2.19,0h-.6a44,44,0,0,0-2.44,4.29l.56-.06,1.27-.14,2.69,1.44c-.41.73-.77,1.48-1.13,2.25l-2.07-.95-.75.1-1.39.26-.23,0-.34.06a45.9,45.9,0,0,0-1.68,4.65l.57-.17,1.16-.35,2.93.95c-.26.8-.5,1.6-.71,2.42l-2.18-.56s-1,.31-2.07.7l-.26.08a2.52,2.52,0,0,1-.29.12,46.28,46.28,0,0,0-.84,4.87l.51-.26c.65-.32,1.12-.53,1.12-.53l3,.42c-.11.83-.2,1.67-.27,2.5l-2.23-.17s-.93.49-1.93,1.08l-.19.1-.3.19c0,.38,0,.76-.06,1.15,0,1.26,0,2.53.07,3.78.16-.12.31-.24.47-.34l1-.74Z" style="fill:#1d1715"/><path d="M513.38,335.1c.49.68.94,1.39,1.38,2.1l2.61-1.62s.15-.33.39-.81a1.94,1.94,0,0,1,.13-.3c-.61-.93-1.24-1.83-1.9-2.71-.39,1.08-.79,2.05-.79,2.05Z" style="fill:#403430"/><path d="M441,358.88a37.5,37.5,0,1,1,36.56,38.42A37.54,37.54,0,0,1,441,358.88Z" style="fill:#403430"/><path d="M436.83,358.77a41.66,41.66,0,1,1,40.61,42.68A41.69,41.69,0,0,1,436.83,358.77Zm.48,0a41.18,41.18,0,1,0,42.18-40.14A41.22,41.22,0,0,0,437.31,358.78Z" style="fill:#403430"/><path d="M507,391.62l2,2.27,1.19.32c.81-.76,1.61-1.53,2.36-2.33-1.12-.2-2.17-.42-2.17-.42l-1.6-1.58C508.27,390.48,507.65,391.05,507,391.62Z" style="fill:#403430"/><path d="M512.13,386.18l2.39,1.87,1.24.1c.67-.88,1.31-1.76,1.91-2.69-1.14,0-2.19,0-2.19,0l-1.85-1.29C513.14,384.83,512.65,385.52,512.13,386.18Z" style="fill:#403430"/><path d="M494.43,399.48c.78-.31,1.55-.65,2.31-1l1,2s.88.56,1.87,1.14c-1,.5-2,.95-3,1.37l-1-.68Z" style="fill:#403430"/><path d="M502.7,398.71l-1.63-2.61c.72-.44,1.42-.9,2.11-1.39l1.29,1.83s1,.39,2,.78c-.88.66-1.78,1.3-2.71,1.9l-.3-.13Z" style="fill:#403430"/><path d="M516.2,379.93l2.68,1.44,1.27-.12c.49-1,1-2,1.38-3l-1.39.26-.75.1-2.07-.95C517,378.45,516.6,379.2,516.2,379.93Z" style="fill:#403430"/><path d="M521,355.85c.08.84.14,1.68.16,2.52l3-.09,1-.74c-.06-1.1-.13-2.19-.27-3.28-.86.74-1.68,1.39-1.68,1.39Z" style="fill:#403430"/><path d="M487.3,401.64c.82-.17,1.64-.36,2.45-.59l.6,2.2.56.52,1.08.9c-1,.31-2.09.59-3.16.84-.53-.51-.9-.89-.9-.89Z" style="fill:#403430"/><path d="M519.12,373.09l2.93,1,1.16-.35c.33-1,.63-2.08.87-3.16-1.07.39-2.07.7-2.07.7l-2.17-.56C519.62,371.48,519.38,372.29,519.12,373.09Z" style="fill:#403430"/><path d="M519.73,348.52c.21.81.4,1.62.58,2.45l3-.63.89-.9c-.25-1.07-.53-2.11-.85-3.16-.32.41-.65.79-.9,1.07l-.51.57Z" style="fill:#403430"/><path d="M517.13,341.53c.37.76.71,1.53,1,2.31L521,342.7l.68-1c-.43-1-.88-2-1.37-3-.58,1-1.15,1.87-1.15,1.87Z" style="fill:#403430"/><path d="M520.8,365.83l3,.42,1.12-.53c.14-1.08.22-2.19.28-3.3-1,.58-1.93,1.08-1.93,1.08l-2.23-.18C521,364.16,520.92,365,520.8,365.83Z" style="fill:#403430"/><path d="M439.57,384l2.61-1.62c.44.71.9,1.42,1.38,2.1l-1.82,1.29s-.4,1-.79,2.05c-.66-.88-1.29-1.77-1.89-2.7l.13-.31C439.42,384.36,439.57,384,439.57,384Z" style="fill:#403430"/><path d="M438.79,375.77c.32.78.66,1.54,1,2.3l-2,1s-.57.88-1.15,1.87c-.49-1-.94-2-1.36-3,.38-.6.67-1,.67-1Z" style="fill:#403430"/><path d="M479.9,402.54c.85,0,1.68-.08,2.52-.16l.2,2.25s.65.83,1.39,1.7c-1.08.13-2.18.21-3.28.26-.43-.59-.73-1-.73-1Z" style="fill:#403430"/><path d="M446.66,388.36q.84.94,1.74,1.83l-1.59,1.6s-.22,1-.41,2.16c-.81-.76-1.58-1.54-2.33-2.35.18-.7.32-1.2.32-1.2Z" style="fill:#403430"/><path d="M432.71,361.33l3-.09c0,.84.08,1.68.16,2.51l-2.26.21s-.83.65-1.69,1.39c-.13-1.09-.22-2.18-.27-3.29Z" style="fill:#403430"/><path d="M436.63,368.64c.18.82.37,1.64.59,2.44l-2.19.61-.52.56c-.26.29-.58.68-.9,1.08-.31-1-.6-2.09-.84-3.16l.88-.91Z" style="fill:#403430"/><path d="M465.19,400.46c.8.25,1.61.49,2.42.7l-.57,2.18s.31,1,.7,2.08c-1.07-.25-2.12-.55-3.16-.87-.2-.68-.34-1.18-.34-1.18Z" style="fill:#403430"/><path d="M472.46,402.14c.82.11,1.66.21,2.5.28l-.19,2.22s.5.94,1.08,1.93c-1.11-.06-2.21-.15-3.3-.28-.31-.64-.52-1.12-.52-1.12Z" style="fill:#403430"/><path d="M458.34,397.53c.74.4,1.49.77,2.25,1.13l-.95,2.07s0,.3.11.75l.25,1.38c-1-.43-2-.88-3-1.38-.09-.74-.14-1.26-.14-1.26Z" style="fill:#403430"/><path d="M452.09,393.47c.66.51,1.35,1,2,1.48l-1.3,1.87s0,1.05,0,2.19c-.92-.61-1.81-1.25-2.69-1.91.05-.73.1-1.25.1-1.25Z" style="fill:#403430"/><path d="M450.42,322.28c1.09.4,2.05.8,2.05.8l1.3,1.81c.68-.48,1.39-.94,2.1-1.37l-1.63-2.62s-.33-.14-.81-.38a1.94,1.94,0,0,1-.3-.13C452.2,321,451.3,321.62,450.42,322.28Z" style="fill:#403430"/><path d="M482.17,315l-.18,2.23c.84.07,1.67.17,2.5.28l.43-3s-.22-.48-.54-1.13c-1.07-.13-2.18-.22-3.29-.28C481.67,314,482.17,315,482.17,315Z" style="fill:#403430"/><path d="M496.35,321c.76.35,1.52.72,2.25,1.12l1.44-2.69s-.05-.52-.14-1.27c-1-.49-1.95-.94-3-1.38.09.51.19,1,.25,1.39s.11.75.11.75Z" style="fill:#403430"/><path d="M489.89,316.26l-.55,2.18c.81.22,1.61.45,2.41.71l1-2.92s-.14-.49-.36-1.17c-1-.33-2.08-.63-3.15-.87C489.58,315.27,489.89,316.26,489.89,316.26Z" style="fill:#403430"/><path d="M465,315c.4.31.79.64,1.07.89l.57.52.6,2.19c.81-.21,1.62-.4,2.44-.58l-.62-3s-.37-.38-.91-.89C467,314.34,466,314.62,465,315Z" style="fill:#403430"/><path d="M444.81,333.43c-.52.66-1,1.34-1.49,2l-1.87-1.3s-1,0-2.18,0c.6-.93,1.24-1.82,1.9-2.69l1.25.1Z" style="fill:#403430"/><path d="M437.82,346.53c-.26.79-.5,1.6-.71,2.41l-2.18-.56s-1,.31-2.08.7c.25-1.07.55-2.12.87-3.16l1.18-.35Z" style="fill:#403430"/><path d="M472.93,313.29c.74.85,1.39,1.68,1.39,1.68l.2,2.27c.84-.09,1.68-.14,2.51-.17l-.09-3-.73-1C475.11,313.07,474,313.15,472.93,313.29Z" style="fill:#403430"/><path d="M457.37,318c1,.57,1.88,1.14,1.88,1.14l.95,2c.75-.36,1.53-.71,2.31-1l-1.15-2.84-1-.68C459.35,317,458.34,317.47,457.37,318Z" style="fill:#403430"/><path d="M440.75,339.68c-.4.73-.78,1.49-1.13,2.25l-2.07-.95-.75.1-1.39.25c.43-1,.89-2,1.39-3l1.26-.13Z" style="fill:#403430"/><path d="M436.14,353.79c-.12.83-.21,1.66-.28,2.5l-2.23-.18s-.93.5-1.93,1.07c.07-1.11.15-2.21.29-3.29.64-.32,1.11-.53,1.11-.53Z" style="fill:#403430"/><path d="M502.81,324.65c.69.48,1.38,1,2,1.49l1.87-2.39s.06-.51.11-1.24c-.88-.66-1.76-1.31-2.69-1.91,0,1.14,0,2.19,0,2.19Z" style="fill:#403430"/><path d="M449.91,328c-.62.56-1.23,1.14-1.82,1.74l-1.6-1.58s-1-.22-2.17-.42c.76-.8,1.54-1.58,2.35-2.33l1.2.32Z" style="fill:#403430"/><path d="M508.55,329.43c.59.58,1.17,1.2,1.73,1.82l2.28-2s.13-.5.32-1.2c-.76-.81-1.53-1.6-2.34-2.35-.19,1.12-.42,2.16-.42,2.16Z" style="fill:#403430"/><path d="M508.55,329.43c.59.58,1.17,1.2,1.73,1.82l2.28-2s.13-.5.32-1.2c-.76-.81-1.53-1.6-2.34-2.35-.19,1.12-.42,2.16-.42,2.16Z" style="fill:#1d1d1b;opacity:0.1"/><g style="opacity:0.15;mix-blend-mode:multiply"><path d="M432.75,370.19l-.38.4c-.06-.23-.1-.48-.15-.71Z" style="fill:#222220"/></g><path d="M443.15,359.8a35.32,35.32,0,1,0,35.32-35.32A35.32,35.32,0,0,0,443.15,359.8Z" style="fill:#fdfdfd"/><circle cx="478.47" cy="359.8" r="29.14" style="fill:#403430"/><polygon points="476.9 364.53 480.04 354.86 449.8 346.9 447.76 353.19 476.9 364.53" style="fill:#dad1d1"/><polygon points="482.58 362.68 474.36 356.71 457.44 383 462.8 386.89 482.58 362.68" style="fill:#dad1d1"/><polygon points="482.58 356.71 474.36 362.68 494.14 386.89 499.49 383 482.58 356.71" style="fill:#dad1d1"/><polygon points="476.9 354.86 480.04 364.53 509.18 353.19 507.13 346.9 476.9 354.86" style="fill:#dad1d1"/><polygon points="473.39 359.7 483.55 359.7 481.78 328.48 475.16 328.48 473.39 359.7" style="fill:#dad1d1"/><path d="M467.81,359.8a10.66,10.66,0,1,0,10.66-10.66A10.67,10.67,0,0,0,467.81,359.8Z" style="fill:#fdfdfd"/></g><g style="clip-path:url(#clip-path-2)"><path d="M107.56,361.24c0,.84.08,1.68.16,2.51l-2.27.21s-.82.64-1.68,1.39l-.16.13c-.1.09-.19.18-.28.25.17,1.4.41,2.78.71,4.14,0,.24.1.49.15.72l.38-.4v0l.89-.9,3-.63c.17.83.37,1.64.58,2.45l-1.86.5-.34.1-.51.57c-.25.28-.58.66-.89,1.07a.67.67,0,0,0-.16.18l-.22.26a44.34,44.34,0,0,0,1.71,4.65l.32-.49.67-1,2.85-1.14c.31.78.66,1.55,1,2.3l-2,1s-.57.88-1.14,1.87l-.15.23a2.44,2.44,0,0,1-.14.28,45.37,45.37,0,0,0,2.48,4.28c.08-.2.16-.37.22-.55s.1-.21.14-.3c.24-.48.38-.81.38-.81l2.61-1.62c.44.71.89,1.42,1.38,2.1l-1.81,1.29s-.41,1-.8,2.05l-.08.23a1.92,1.92,0,0,1-.12.33c1,1.3,2.06,2.56,3.18,3.76,0-.2.1-.39.14-.57.18-.7.32-1.2.32-1.2l2.27-2c.56.62,1.14,1.24,1.73,1.82l-1.57,1.6s-.23,1.05-.42,2.17c0,.08,0,.14,0,.21s0,.24-.05.37a46,46,0,0,0,3.78,3.15c0-.2,0-.4,0-.58,0-.73.11-1.25.11-1.25l1.87-2.38c.65.52,1.34,1,2,1.49l-1.29,1.86s0,1,0,2.19v.21a2.41,2.41,0,0,1,0,.38,46.55,46.55,0,0,0,4.29,2.45c0-.2,0-.4-.06-.56-.09-.75-.13-1.27-.13-1.27l1.43-2.69c.74.4,1.49.77,2.26,1.12l-.95,2.08s0,.3.1.75l.25,1.38a2,2,0,0,1,0,.24c0,.1,0,.23.07.33a43.59,43.59,0,0,0,4.65,1.68c-.06-.2-.12-.38-.17-.57l-.36-1.16,1-2.93c.8.27,1.6.5,2.42.72l-.56,2.18s.31,1,.69,2.07c0,.09.06.16.09.26a1.25,1.25,0,0,1,.11.29,46.89,46.89,0,0,0,4.88.83c-.1-.18-.19-.35-.26-.5-.32-.65-.53-1.13-.53-1.13l.42-3c.83.11,1.67.21,2.5.27l-.18,2.24s.5.92,1.08,1.92c0,.07.08.13.11.19s.13.22.18.31c.38,0,.77.05,1.16.06,1.26,0,2.52,0,3.77-.08-.11-.15-.23-.31-.33-.46l-.74-1-.09-3c.84,0,1.67-.08,2.51-.17l.2,2.27s.65.83,1.39,1.68l.14.17.25.28a46.63,46.63,0,0,0,4.86-.87l-.42-.39c-.54-.51-.9-.89-.9-.89l-.63-3c.82-.18,1.63-.37,2.45-.58l.59,2.19.57.52c.28.25.67.58,1.07.89l.18.16.27.22a47.64,47.64,0,0,0,4.65-1.71l-.49-.32c-.6-.39-1-.68-1-.68l-1.15-2.84q1.19-.48,2.31-1l1,2s.88.57,1.87,1.14l.22.14.29.14a46,46,0,0,0,4.27-2.47,4.85,4.85,0,0,0-.54-.23,1.94,1.94,0,0,0-.3-.13c-.48-.24-.81-.38-.81-.38l-1.63-2.62c.71-.43,1.42-.89,2.11-1.37l1.29,1.81s1,.4,2.05.8c.07,0,.15,0,.23.08a1.92,1.92,0,0,1,.31.11c.82-.62,1.62-1.27,2.39-1.95.47-.38.94-.8,1.39-1.23h-.08c-.16-.05-.35-.09-.5-.12l-1.19-.32-2-2.27c.62-.57,1.24-1.14,1.82-1.74l1.6,1.58s1,.22,2.17.42l.21,0,.36.06a47.94,47.94,0,0,0,3.15-3.79l-.57,0-1.25-.1L184,386.18c.51-.66,1-1.35,1.49-2l1.85,1.29s1,0,2.19,0h.22a2.35,2.35,0,0,1,.38,0,44,44,0,0,0,2.44-4.29l-.56.08-1.27.12L188,379.93c.4-.73.76-1.48,1.12-2.25l2.08.95.74-.1,1.39-.26.23,0,.34-.06a45.9,45.9,0,0,0,1.68-4.65l-.57.17-1.16.35-2.93-1c.26-.8.5-1.61.71-2.42l2.18.56s1-.31,2.07-.7l.26-.08a1.78,1.78,0,0,1,.29-.12,46.28,46.28,0,0,0,.84-4.87l-.51.26-1.12.53-3-.42c.11-.84.21-1.67.27-2.51l2.23.18s.93-.5,1.93-1.08l.19-.1.31-.19c0-.38.05-.76.06-1.15,0-1.26,0-2.53-.08-3.78a5.09,5.09,0,0,1-.47.34l-1,.74-3,.09c0-.84-.08-1.68-.16-2.52l2.27-.2s.82-.65,1.68-1.39c.06,0,.1-.09.17-.13a2.18,2.18,0,0,1,.28-.25,45.7,45.7,0,0,0-.87-4.86c-.14.15-.27.28-.39.42l-.89.9-3,.63c-.18-.83-.37-1.64-.58-2.45l2.19-.6.52-.57c.25-.28.58-.66.89-1.07l.16-.18.22-.27c-.5-1.59-1.07-3.12-1.72-4.65-.1.18-.22.35-.31.5l-.68,1L190,343.84c-.32-.78-.66-1.55-1-2.31l2-.95s.57-.88,1.14-1.87c0-.08.09-.15.14-.23l.14-.28a45.37,45.37,0,0,0-2.48-4.28c-.08.2-.16.36-.22.55a1.94,1.94,0,0,0-.13.3c-.24.48-.39.81-.39.81l-2.61,1.62c-.44-.71-.89-1.42-1.38-2.1l1.81-1.29s.41-1,.8-2.05c0-.08.05-.16.08-.23s.07-.21.12-.32a47.65,47.65,0,0,0-3.18-3.77c0,.06,0,.14-.05.19v0c0,.12-.07.24-.09.34l-.31,1.2-2.27,2c-.57-.62-1.15-1.24-1.74-1.82l1.58-1.61s.22-1,.42-2.16a1.33,1.33,0,0,1,0-.21l.06-.37a47.94,47.94,0,0,0-3.79-3.15c0,.2,0,.4,0,.58,0,.73-.11,1.24-.11,1.24l-1.87,2.39c-.65-.52-1.34-1-2-1.49l1.29-1.86s.05-1.05,0-2.19v-.21a2.35,2.35,0,0,1,0-.38,46.55,46.55,0,0,0-4.29-2.45c0,.2.05.4.06.56.09.75.14,1.27.14,1.27l-1.44,2.69c-.74-.4-1.48-.77-2.25-1.12l1-2.08s0-.31-.11-.75-.16-.88-.25-1.39c0-.07,0-.15,0-.23a1.94,1.94,0,0,0-.07-.33A43.42,43.42,0,0,0,164,314.5c.05.19.11.38.17.56.21.68.35,1.17.35,1.17l-1,2.92c-.8-.26-1.6-.49-2.41-.71l.55-2.18s-.31-1-.69-2.07c0-.09-.06-.16-.09-.26a2,2,0,0,1-.11-.29,46.45,46.45,0,0,0-4.88-.83c.1.18.19.35.26.5.32.65.54,1.13.54,1.13l-.42,3c-.84-.11-1.67-.21-2.51-.28L154,315s-.5-.92-1.08-1.93l-.1-.18c-.06-.11-.14-.22-.19-.31-.38,0-.76-.05-1.16-.06-1.26,0-2.52,0-3.77.08.12.15.24.31.34.46l.73,1,.09,3c-.83,0-1.67.08-2.51.17l-.2-2.27s-.65-.83-1.39-1.68l-.13-.17-.26-.28a46,46,0,0,0-4.85.87l.41.39c.54.51.91.89.91.89l.63,3c-.83.18-1.64.37-2.45.58l-.6-2.19-.57-.52c-.28-.25-.67-.58-1.07-.89l-.18-.16-.27-.22a48.62,48.62,0,0,0-4.65,1.71l.49.32,1,.68,1.15,2.84c-.78.31-1.55.66-2.31,1l-1-2s-.88-.57-1.87-1.14l-.23-.14-.28-.15c-1.48.76-2.9,1.59-4.28,2.48l.54.23a1.94,1.94,0,0,0,.3.13c.48.24.81.38.81.38l1.63,2.62c-.71.43-1.42.89-2.11,1.37l-1.29-1.81s-1-.4-2.05-.8a2,2,0,0,1-.22-.08,2,2,0,0,1-.32-.11c-1.18.9-2.31,1.83-3.39,2.83a4,4,0,0,0-.37.35c.2.05.38.1.56.13l1.19.32,2,2.27c-.63.57-1.25,1.14-1.83,1.74l-1.6-1.58s-1-.22-2.17-.42l-.21,0-.36-.05a47.94,47.94,0,0,0-3.15,3.79l.58,0,1.24.11,2.39,1.87c-.52.66-1,1.35-1.5,2l-1.85-1.29s-1,0-2.19,0h-.59a42.08,42.08,0,0,0-2.45,4.29l.56-.06,1.27-.14,2.68,1.44c-.39.73-.76,1.48-1.12,2.25l-2.07-.95-.75.1-1.39.26-.23,0-.34.06a45.9,45.9,0,0,0-1.68,4.65l.57-.17,1.17-.35,2.92.95c-.26.8-.49,1.6-.71,2.42l-2.18-.56s-1,.31-2.07.7l-.26.08a2,2,0,0,1-.29.12,49,49,0,0,0-.84,4.87l.51-.26c.65-.32,1.12-.53,1.12-.53l3,.42c-.12.83-.21,1.67-.28,2.5l-2.23-.17s-.93.49-1.93,1.08l-.18.1-.31.19c0,.38,0,.76-.06,1.15,0,1.26,0,2.53.07,3.78.16-.12.31-.24.47-.34l1-.74Z" style="fill:#1d1715"/><path d="M185.2,335.1c.49.68.94,1.39,1.38,2.1l2.61-1.62s.15-.33.39-.81a1.94,1.94,0,0,1,.13-.3c-.6-.93-1.24-1.83-1.9-2.71-.39,1.08-.8,2.05-.8,2.05Z" style="fill:#403430"/><path d="M112.8,358.88a37.51,37.51,0,1,1,36.56,38.42A37.54,37.54,0,0,1,112.8,358.88Z" style="fill:#403430"/><path d="M108.65,358.77a41.66,41.66,0,1,1,40.61,42.68A41.69,41.69,0,0,1,108.65,358.77Zm.47,0a41.18,41.18,0,1,0,42.19-40.14A41.23,41.23,0,0,0,109.12,358.78Z" style="fill:#403430"/><path d="M178.85,391.62l2,2.27,1.19.32c.81-.76,1.61-1.53,2.36-2.33-1.12-.2-2.17-.42-2.17-.42l-1.6-1.58C180.09,390.48,179.47,391.05,178.85,391.62Z" style="fill:#403430"/><path d="M184,386.18l2.38,1.87,1.25.1c.66-.88,1.3-1.76,1.9-2.69-1.14,0-2.19,0-2.19,0l-1.85-1.29C185,384.83,184.47,385.52,184,386.18Z" style="fill:#403430"/><path d="M166.25,399.48c.78-.31,1.55-.65,2.31-1l1,2s.88.56,1.87,1.14c-1,.5-2,.95-3,1.37l-1-.68Z" style="fill:#403430"/><path d="M174.52,398.71l-1.63-2.61c.72-.44,1.42-.9,2.11-1.39l1.29,1.83s1,.39,2.05.78c-.88.66-1.78,1.3-2.7,1.9l-.31-.13Z" style="fill:#403430"/><path d="M188,379.93l2.68,1.44,1.27-.12c.5-1,.95-2,1.38-3l-1.39.26-.74.1-2.08-.95C188.78,378.45,188.42,379.2,188,379.93Z" style="fill:#403430"/><path d="M192.86,355.85c.08.84.14,1.68.16,2.52l3-.09,1-.74c0-1.1-.12-2.19-.26-3.28-.86.74-1.68,1.39-1.68,1.39Z" style="fill:#403430"/><path d="M159.12,401.64c.83-.17,1.64-.36,2.45-.59l.6,2.2.57.52c.29.26.67.57,1.07.9-1,.31-2.09.59-3.16.84-.53-.51-.9-.89-.9-.89Z" style="fill:#403430"/><path d="M190.94,373.09l2.93,1,1.16-.35c.33-1,.63-2.08.87-3.16-1.07.39-2.07.7-2.07.7l-2.18-.56C191.44,371.48,191.2,372.29,190.94,373.09Z" style="fill:#403430"/><path d="M191.55,348.52c.21.81.4,1.62.58,2.45l3-.63.89-.9c-.25-1.07-.53-2.11-.85-3.16-.31.41-.64.79-.89,1.07l-.52.57Z" style="fill:#403430"/><path d="M189,341.53c.37.76.71,1.53,1,2.31l2.84-1.14.68-1c-.43-1-.88-2-1.37-3-.57,1-1.14,1.87-1.14,1.87Z" style="fill:#403430"/><path d="M192.63,365.83l3,.42,1.12-.53c.13-1.08.22-2.19.28-3.3-1,.58-1.93,1.08-1.93,1.08l-2.23-.18C192.84,364.16,192.74,365,192.63,365.83Z" style="fill:#403430"/><path d="M111.39,384l2.6-1.62c.45.71.91,1.42,1.39,2.1l-1.82,1.29s-.39,1-.79,2.05c-.66-.88-1.29-1.77-1.89-2.7l.13-.31C111.24,384.36,111.39,384,111.39,384Z" style="fill:#403430"/><path d="M110.61,375.77c.32.78.66,1.54,1,2.3l-2,1s-.56.88-1.14,1.87c-.49-1-.94-2-1.36-3l.67-1Z" style="fill:#403430"/><path d="M151.72,402.54c.85,0,1.68-.08,2.52-.16l.2,2.25s.65.83,1.4,1.7c-1.09.13-2.18.21-3.29.26-.43-.59-.73-1-.73-1Z" style="fill:#403430"/><path d="M118.48,388.36q.84.94,1.74,1.83l-1.59,1.6s-.22,1-.41,2.16c-.8-.76-1.58-1.54-2.33-2.35.18-.7.32-1.2.32-1.2Z" style="fill:#403430"/><path d="M104.53,361.33l3-.09c0,.84.08,1.68.16,2.51l-2.26.21s-.82.65-1.69,1.39c-.13-1.09-.21-2.18-.27-3.29C104.09,361.63,104.53,361.33,104.53,361.33Z" style="fill:#403430"/><path d="M108.45,368.64c.18.82.37,1.64.59,2.44l-2.19.61-.52.56c-.26.29-.57.68-.9,1.08-.31-1-.6-2.09-.84-3.16l.88-.91Z" style="fill:#403430"/><path d="M137,400.46c.8.25,1.61.49,2.42.7l-.57,2.18s.32,1,.7,2.08c-1.07-.25-2.12-.55-3.15-.87-.21-.68-.35-1.18-.35-1.18Z" style="fill:#403430"/><path d="M144.27,402.14c.83.11,1.67.21,2.51.28l-.18,2.22s.49.94,1.07,1.93c-1.11-.06-2.21-.15-3.29-.28-.32-.64-.53-1.12-.53-1.12Z" style="fill:#403430"/><path d="M130.16,397.53c.74.4,1.49.77,2.26,1.13l-1,2.07s0,.3.11.75l.25,1.38c-1-.43-2-.88-3-1.38-.08-.74-.12-1.26-.12-1.26Z" style="fill:#403430"/><path d="M123.91,393.47c.67.51,1.35,1,2,1.48l-1.3,1.87s0,1.05,0,2.19c-.92-.61-1.81-1.25-2.68-1.91,0-.73.1-1.25.1-1.25Z" style="fill:#403430"/><path d="M122.24,322.28c1.09.4,2.05.8,2.05.8l1.29,1.81c.69-.48,1.4-.94,2.11-1.37l-1.63-2.62s-.33-.14-.81-.38a1.94,1.94,0,0,1-.3-.13C124,321,123.13,321.62,122.24,322.28Z" style="fill:#403430"/><path d="M154,315l-.18,2.23c.84.07,1.67.17,2.51.28l.42-3s-.22-.48-.54-1.13c-1.07-.13-2.18-.22-3.29-.28C153.49,314,154,315,154,315Z" style="fill:#403430"/><path d="M168.17,321c.77.35,1.51.72,2.25,1.12l1.44-2.69s-.05-.52-.14-1.27c-1-.49-1.95-.94-3-1.38.09.51.19,1,.25,1.39s.11.75.11.75Z" style="fill:#403430"/><path d="M161.71,316.26l-.55,2.18c.81.22,1.61.45,2.41.71l1-2.92s-.14-.49-.35-1.17c-1.05-.33-2.09-.63-3.16-.87C161.4,315.27,161.71,316.26,161.71,316.26Z" style="fill:#403430"/><path d="M136.77,315c.4.31.79.64,1.07.89l.57.52.6,2.19c.81-.21,1.62-.4,2.45-.58l-.63-3s-.37-.38-.91-.89C138.85,314.34,137.81,314.62,136.77,315Z" style="fill:#403430"/><path d="M116.63,333.43c-.52.66-1,1.34-1.49,2l-1.86-1.3s-1,0-2.19,0c.6-.93,1.24-1.82,1.9-2.69l1.26.1Z" style="fill:#403430"/><path d="M109.64,346.53c-.26.79-.49,1.6-.71,2.41l-2.17-.56s-1,.31-2.08.7c.25-1.07.54-2.12.86-3.16l1.18-.35Z" style="fill:#403430"/><path d="M144.75,313.29c.74.85,1.39,1.68,1.39,1.68l.2,2.27c.84-.09,1.68-.14,2.51-.17l-.09-3-.73-1C146.93,313.07,145.83,313.15,144.75,313.29Z" style="fill:#403430"/><path d="M129.2,318c1,.57,1.87,1.14,1.87,1.14l1,2c.76-.36,1.53-.71,2.31-1l-1.15-2.84-1-.68C131.16,317,130.17,317.47,129.2,318Z" style="fill:#403430"/><path d="M112.56,339.68c-.39.73-.77,1.49-1.12,2.25l-2.07-.95-.75.1-1.39.25c.44-1,.89-2,1.39-3l1.26-.13Z" style="fill:#403430"/><path d="M108,353.79c-.12.83-.21,1.66-.28,2.5l-2.23-.18s-.93.5-1.92,1.07c.06-1.11.14-2.21.28-3.29.64-.32,1.12-.53,1.12-.53Z" style="fill:#403430"/><path d="M174.63,324.65c.69.48,1.38,1,2,1.49l1.87-2.39s.06-.51.11-1.24c-.88-.66-1.76-1.31-2.69-1.91,0,1.14,0,2.19,0,2.19Z" style="fill:#403430"/><path d="M121.73,328c-.62.56-1.23,1.14-1.82,1.74l-1.6-1.58s-1-.22-2.17-.42c.76-.8,1.54-1.58,2.36-2.33l1.2.32Z" style="fill:#403430"/><path d="M180.37,329.43c.59.58,1.17,1.2,1.74,1.82l2.27-2,.31-1.2c-.75-.81-1.52-1.6-2.32-2.35-.2,1.12-.42,2.16-.42,2.16Z" style="fill:#403430"/><path d="M180.37,329.43c.59.58,1.17,1.2,1.74,1.82l2.27-2,.31-1.2c-.75-.81-1.52-1.6-2.32-2.35-.2,1.12-.42,2.16-.42,2.16Z" style="fill:#1d1d1b;opacity:0.1"/><g style="opacity:0.15;mix-blend-mode:multiply"><path d="M104.57,370.19l-.38.4c-.06-.23-.1-.48-.15-.71Z" style="fill:#222220"/></g><path d="M115,359.8a35.32,35.32,0,1,0,35.32-35.32A35.32,35.32,0,0,0,115,359.8Z" style="fill:#fdfdfd"/><circle cx="150.29" cy="359.8" r="29.14" style="fill:#403430"/><polygon points="148.72 364.53 151.86 354.86 121.63 346.9 119.58 353.19 148.72 364.53" style="fill:#dad1d1"/><polygon points="154.41 362.68 146.18 356.71 129.27 383 134.62 386.89 154.41 362.68" style="fill:#dad1d1"/><polygon points="154.41 356.71 146.18 362.68 165.96 386.89 171.32 383 154.41 356.71" style="fill:#dad1d1"/><polygon points="148.72 354.86 151.86 364.53 181 353.19 178.96 346.9 148.72 354.86" style="fill:#dad1d1"/><polygon points="145.21 359.7 155.38 359.7 153.6 328.48 146.99 328.48 145.21 359.7" style="fill:#dad1d1"/><path d="M139.63,359.8a10.67,10.67,0,1,0,10.66-10.66A10.67,10.67,0,0,0,139.63,359.8Z" style="fill:#fdfdfd"/></g><path d="M150.22,314.44H129.66A42,42,0,0,0,88,353C88.79,329.38,99.32,302.61,150.22,314.44Z" style="fill:#88a84c"/><path d="M481.24,314.44H460.68A42,42,0,0,0,419,353C419.81,329.38,430.34,302.61,481.24,314.44Z" style="fill:#88a84c"/><path d="M178,209l33.15,43.29,35.05.78-38.64-50.86h-1.1c-7,0-13.53.14-21.09.49a4.51,4.51,0,0,0-2.21,1A24.51,24.51,0,0,0,178,209Z" style="fill:#5b514e"/><path d="M211.93,202.19l38.54,50.95,11.32.25L223.26,202.3h0c-1.16,0-2.28,0-3.39,0l-2.68,0Z" style="fill:#5b514e"/><path d="M90.09,228.38,106.66,250l15,.35a.53.53,0,0,0,.47-.31c2.06-4.81,4.52-10.13,7.13-15.66l-21.94-28.88c-3.84,2.16-6.21,5.19-8.85,9.26S93,223.57,90.09,228.38Z" style="fill:#5b514e"/><path d="M110.57,204l20.36,26.92c1.43-3,2.88-6,4.34-9.06l-15.16-20.07A42.39,42.39,0,0,0,110.57,204Z" style="fill:#5b514e"/></g></g></svg>