<svg id="Layer_1" data-name="Layer 1" xmlns="http://www.w3.org/2000/svg" viewBox="0 0 584.85 158"><title>14-01-01</title><path d="M16.22,312.87l1.13.1c1.13.1,2.1-1.64,2.35-4l1.47-14c.27-2.58-.5-4.87-1.7-5h-.78c-1.05-.08-2,1.54-2.33,3.79l-1.79,13.78C14.19,310.3,15,312.75,16.22,312.87Z" transform="translate(-7.58 -221)" style="fill:#e94e1b"/><path d="M581.7,317.21l4-.34a5.56,5.56,0,0,0,4.84-5.16l1.84-19.18a5.32,5.32,0,0,0-3.74-5.8l-2.55-.65Z" transform="translate(-7.58 -221)" style="fill:#f9b659"/><polygon points="572.48 97.11 578.27 96.72 581.79 64.36 574.57 64.16 572.48 97.11" style="fill:#122237"/><path d="M7.58,372c0,3.86,129.4,7,289.05,7s289-3.14,289-7-129.41-7-289-7S7.58,368.14,7.58,372Z" transform="translate(-7.58 -221)" style="fill:#1d1d1b;opacity:0.10000000149011612;isolation:isolate"/><path d="M580.86,337.22l6.44.15a3.26,3.26,0,0,0,3.3-2.78l1.56-10.53a3.27,3.27,0,0,0-2.74-3.71,4,4,0,0,0-.49,0h-8.64l-1.95,13.95a2.59,2.59,0,0,0,2.2,2.93h.32Z" transform="translate(-7.58 -221)" style="fill:#dad1d1"/><path d="M36.7,339.36l61.42,4.26,3.24.23,7.7.54H531.82l35.63-4.57a17,17,0,0,0,14.66-14.66l4-38.08c1.24-9.65-6-11.41-15.72-11.9l-160.42-8a29.53,29.53,0,0,1-16.34-6.1l-47.14-36.29a18,18,0,0,0-11.1-3.79H196.77a51.63,51.63,0,0,0-36,14.66l-20.44,20a18.12,18.12,0,0,1-9.1,4.84L28.58,281.72a11.65,11.65,0,0,0-9.2,10.15l-2.6,23.61a21.59,21.59,0,0,0,19.13,23.81Z" transform="translate(-7.58 -221)" style="fill:#a7cb64"/><path d="M419.86,272.3l150.27,7.52c3.38.18,12.54.51,11.28,8.17l-4,36.55c2.53-41.84-2.45-39.38-20.07-40.76Z" transform="translate(-7.58 -221)" style="fill:#88a84c"/><path d="M21.43,316,24,292.34a6.94,6.94,0,0,1,5.49-6l101.88-22.25a6.68,6.68,0,0,1,1.92.73C34.12,288.05,29.5,286.3,21.43,316Z" transform="translate(-7.58 -221)" style="fill:#88a84c"/><path d="M335.39,225.7a13.42,13.42,0,0,1,8.19,2.79l47.13,36.29a33.11,33.11,0,0,0,6.45,3.91l6.26,25.67-6.26,45.37H271.87l4.71-47.07-4.71-66.91Z" transform="translate(-7.58 -221)" style="fill:#88a84c"/><path d="M276.92,230.41h58.47a8.67,8.67,0,0,1,5.32,1.8l47.13,36.29c.34.27.71.51,1.06.76H279.69Z" transform="translate(-7.58 -221)" style="fill:#403430"/><path d="M183.16,232.86a16.86,16.86,0,0,1,13.54-7.16h70.49l4.7,66.91-4.7,47.08h-74A49.63,49.63,0,0,0,158,296.83l-.28-22.55a17.68,17.68,0,0,1,3.3-10.54Z" transform="translate(-7.58 -221)" style="fill:#88a84c"/><path d="M187,235.59a12.07,12.07,0,0,1,9.79-5.18h66l2.73,39-102.08-.11Z" transform="translate(-7.58 -221)" style="fill:#403430"/><rect x="275.26" y="55.05" width="20.89" height="6.65" style="fill:#dad1d1"/><rect x="155.87" y="55.05" width="20.87" height="6.65" style="fill:#dad1d1"/><path d="M16.92,315.37l-.28,3H29.4a11.77,11.77,0,0,1,11.76,11.77v.12L13.39,329c-3.13-.09-6-2.62-5.79-5.75.05-.69.1-1.34.15-2a6.55,6.55,0,0,1,6.53-6Z" transform="translate(-7.58 -221)" style="fill:#dad1d1"/><path d="M569.07,334.26h16.74a3.09,3.09,0,0,0,3-2.45l1-4.59a3.1,3.1,0,0,0-2.36-3.7h0a3,3,0,0,0-.66-.07H570.06a3.12,3.12,0,0,0-3,2.44l-1,4.59a3.11,3.11,0,0,0,2.36,3.71h0A2.73,2.73,0,0,0,569.07,334.26Z" transform="translate(-7.58 -221)" style="fill:#dad1d1"/><polygon points="362.45 50.1 372.46 54.58 373.09 49.53 364.59 41.65 362.45 50.1" style="fill:#dad1d1"/><path d="M367.28,256.14l.83.1a6.23,6.23,0,0,1,5.28,4.68l1.3,5.26a8,8,0,0,1-5.84,9.69h0a7.87,7.87,0,0,1-2.9.18l-1.13-.14Z" transform="translate(-7.58 -221)" style="fill:#a7cb64"/><path d="M438.06,344.39H522.3L520,331.14a26.57,26.57,0,0,0-26.15-21.95H468.36a28.74,28.74,0,0,0-28.28,23.74Z" transform="translate(-7.58 -221)" style="fill:#403430"/><path d="M98.12,343.62l3.24.23,3.14.21,4.51.33H182.2l-2.35-13.25a26.59,26.59,0,0,0-26.16-21.95H128.25A28.76,28.76,0,0,0,100,332.93Z" transform="translate(-7.58 -221)" style="fill:#403430"/><polygon points="309.09 11.1 336.5 47.19 314.83 47.19 287.2 11.1 309.09 11.1" style="fill:#5b514e"/><polygon points="318.91 11.1 346.15 47.19 339.14 47.19 311.85 11.1 318.91 11.1" style="fill:#5b514e"/><polygon points="214.14 11.1 241.55 47.19 219.88 47.19 192.25 11.1 214.14 11.1" style="fill:#5b514e"/><polygon points="223.97 11.1 251.2 47.19 244.2 47.19 216.89 11.1 223.97 11.1" style="fill:#5b514e"/><path d="M7.75,321.33c0,.62-.1,1.27-.15,2-.25,3.13,2.66,5.64,5.79,5.75l6.57.29a21.53,21.53,0,0,0,16.74,10l61.42,4.26,3.24.23,7.7.54H531.82l35.63-4.57A16.86,16.86,0,0,0,578,334.26h.37a2.59,2.59,0,0,0,2.2,2.93h.32l6.44.15a3.26,3.26,0,0,0,3.3-2.78L592.19,324a3.35,3.35,0,0,0,0-1L15.79,297.89l-1.26,9.72c-.35,2.69.44,5.14,1.68,5.26L17,313l-.27,2.42H14.28A6.55,6.55,0,0,0,7.75,321.33Zm8.86-2.94Z" transform="translate(-7.58 -221)" style="opacity:0.20000000298023224;isolation:isolate"/><path d="M457.05,337.58a23.13,23.13,0,1,0,23.14-23.12h0a23.12,23.12,0,0,0-23.13,23.11h0Z" transform="translate(-7.58 -221)" style="fill:#dad1d1"/><path d="M443.92,337.62a35.78,35.78,0,0,0,.65,6.77,36.26,36.26,0,1,0,61.52-32.19,26.62,26.62,0,0,0-12.28-3H468.36a28.61,28.61,0,0,0-15.53,4.57A36.17,36.17,0,0,0,443.92,337.62Zm36.28,22.29a22.31,22.31,0,1,1,22.3-22.32h0A22.35,22.35,0,0,1,480.2,359.91Z" transform="translate(-7.58 -221)" style="fill:#1d1715"/><path d="M463.31,337.58a16.92,16.92,0,1,0,17-16.86h0a16.93,16.93,0,0,0-17,16.84Z" transform="translate(-7.58 -221)" style="fill:#fff"/><path d="M470,337.58a10.15,10.15,0,1,0,10.15-10.15h0A10.14,10.14,0,0,0,470,337.58Z" transform="translate(-7.58 -221)" style="fill:#dad1d1"/><path d="M489,319.23a20.56,20.56,0,0,1,8.57,7.75l-17.38,10.45Z" transform="translate(-7.58 -221)" style="fill:#fff;opacity:0.5;isolation:isolate"/><path d="M480.18,337.43l-8.91,18.45a20.45,20.45,0,0,1-8.59-7.89Z" transform="translate(-7.58 -221)" style="fill:#fff;opacity:0.5;isolation:isolate"/><path d="M117,337.58a23.13,23.13,0,1,0,23.14-23.12h0A23.14,23.14,0,0,0,117,337.58Z" transform="translate(-7.58 -221)" style="fill:#dad1d1"/><path d="M103.87,337.62a35.63,35.63,0,0,0,.59,6.44,36.26,36.26,0,1,0,61.65-31.78,26.43,26.43,0,0,0-12.4-3.09H128.25a28.67,28.67,0,0,0-15.37,4.51A36.14,36.14,0,0,0,103.87,337.62Zm36.28,22.29a22.28,22.28,0,1,1,21.25-15.52A22.29,22.29,0,0,1,140.15,359.91Z" transform="translate(-7.58 -221)" style="fill:#1d1715"/><path d="M123.27,337.58a16.86,16.86,0,1,0,16.86-16.86,16.86,16.86,0,0,0-16.86,16.86Z" transform="translate(-7.58 -221)" style="fill:#fff"/><path d="M130,337.58a10.15,10.15,0,1,0,10.15-10.15h0A10.14,10.14,0,0,0,130,337.58Z" transform="translate(-7.58 -221)" style="fill:#dad1d1"/><path d="M148.94,319.23a20.43,20.43,0,0,1,8.57,7.75l-17.37,10.45Z" transform="translate(-7.58 -221)" style="fill:#fff;opacity:0.5;isolation:isolate"/><path d="M140.14,337.43l-8.92,18.45a20.45,20.45,0,0,1-8.59-7.89Z" transform="translate(-7.58 -221)" style="fill:#fff;opacity:0.5;isolation:isolate"/></svg>