<svg id="Layer_1" data-name="Layer 1" xmlns="http://www.w3.org/2000/svg" viewBox="0 0 481.49 152"><title>11-01-01</title><ellipse cx="242.92" cy="146.28" rx="236.47" ry="5.72" style="fill:#1d1d1b;opacity:0.10000000149011612;isolation:isolate"/><path d="M67.44,311l1,.1c1,.09,2-1.55,2.21-3.76l1.41-13.22c.26-2.45-.49-4.61-1.61-4.69l-.75-.05c-1-.07-1.93,1.47-2.2,3.6l-1.7,13C65.52,308.57,66.26,310.9,67.44,311Z" transform="translate(-59.26 -224)" style="fill:#e94e1b"/><path d="M530.12,314.24l3.71-.32c2.34-.2,3.84-2.3,3.52-4.92l-2.23-18.29a6.66,6.66,0,0,0-4.75-5.55l-2.55-.61Z" transform="translate(-59.26 -224)" style="fill:#f9b659"/><polygon points="469.49 91.11 474.89 90.73 471.53 59.86 464.66 59.66 469.49 91.11" style="fill:#88a84c"/><path d="M530,336.9l6.1.15a3.08,3.08,0,0,0,3.13-2.64l1.48-10a3.09,3.09,0,0,0-2.6-3.51h-8.65l-1.84,13.21a2.46,2.46,0,0,0,2.07,2.79A1.61,1.61,0,0,0,530,336.9Z" transform="translate(-59.26 -224)" style="fill:#dad1d1"/><path d="M86.84,338.94l29.8,3.31,6.51.72,3.08.21,7.29.51h350l2.89-.36,18.89-2.42,12-1.53a16.13,16.13,0,0,0,13.9-13.93L527.59,287a15.41,15.41,0,0,0-1.66-4.56c-3.8-6.74-11.83-6.77-19.58-7.16l-94.94-7.61a26.77,26.77,0,0,1-6.16-1L404,266.3a27.79,27.79,0,0,1-8.15-4.33L351.27,227.6A17.19,17.19,0,0,0,340.8,224H183.51a63.3,63.3,0,0,0-19.5,3.08c-4.26,1.38-8.37,2.86-12.33,4.41-1.21.47-2.39.94-3.55,1.42s-2.29.94-3.41,1.42a205.12,205.12,0,0,0-54.57,34c-.55.46-1.08.94-1.6,1.4L87,271.17c-10.88,10.09-16.41,18-16.61,19.91l-2.46,25.21A20.46,20.46,0,0,0,86,338.87Z" transform="translate(-59.26 -224)" style="fill:#a7cb64"/><path d="M340.8,228.45a12.71,12.71,0,0,1,7.75,2.64l44.63,34.37a31.73,31.73,0,0,0,6.11,3.71l5.93,24.26-5.93,45.81H280.65l4.45-47.42-4.45-63.37Z" transform="translate(-59.26 -224)" style="fill:#88a84c"/><path d="M285.42,232.9H340.8a8.23,8.23,0,0,1,5,1.72L390.46,269c.33.25.67.47,1,.71H288Z" transform="translate(-59.26 -224)" style="fill:#403430"/><path d="M283.89,231.48H340.8a9.71,9.71,0,0,1,5.91,2l44.62,34.37c.18.14.37.27.56.4l4,2.86H286.68ZM345,235.74a6.84,6.84,0,0,0-4.17-1.42H286.94l2.39,34h97.88Z" transform="translate(-59.26 -224)" style="fill:#fff"/><path d="M196.64,235.23a15.93,15.93,0,0,1,12.8-6.78H276.2l4.45,63.37-4.45,47.42H206.1c-1.86-19.17-15-37.91-33.27-43.4l-.27-21.34a16.81,16.81,0,0,1,3.13-10Z" transform="translate(-59.26 -224)" style="fill:#88a84c"/><path d="M200.25,237.82a11.49,11.49,0,0,1,9.27-4.92h62.53l2.59,36.91L178,269.7Z" transform="translate(-59.26 -224)" style="fill:#403430"/><path d="M175.24,271.12,199.1,237a13,13,0,0,1,10.42-5.51h63.86l2.79,39.75Zm34.28-36.8a10.11,10.11,0,0,0-8.1,4.32l-20.73,29.64,92.43.11-2.39-34.07Z" transform="translate(-59.26 -224)" style="fill:#fff"/><path d="M88.55,269.75l38.48.06h0a16.19,16.19,0,0,0,10.66-4l29.75-26.21a3.8,3.8,0,0,0-2.51-6.66h-16.8c-1.15.47-2.29.94-3.41,1.42a205.12,205.12,0,0,0-54.57,34C89.6,268.81,89.07,269.29,88.55,269.75Z" transform="translate(-59.26 -224)" style="fill:#403430"/><path d="M87,271.17l40,.06h0a17.62,17.62,0,0,0,11.6-4.37l29.77-26.21a5.24,5.24,0,0,0-3.47-9.16H151.68c-1.21.47-2.39.94-3.55,1.42s-2.29.94-3.41,1.42h20.22a2.38,2.38,0,0,1,1.57,4.18l-29.75,26.2a14.68,14.68,0,0,1-9.72,3.68H90.16c-.55.46-1.08.94-1.6,1.4Z" transform="translate(-59.26 -224)" style="fill:#fff"/><rect x="231.77" y="52.13" width="19.78" height="6.3" style="fill:#fff"/><rect x="118.7" y="52.13" width="19.78" height="6.3" style="fill:#fff"/><path d="M68.07,316.21l-.27,2.86H79.91a11.15,11.15,0,0,1,11.15,11.15v.12l-26.3-1.18c-3-.09-5.72-2.48-5.49-5.44a16.64,16.64,0,0,1,.16-1.87,6.17,6.17,0,0,1,6.17-5.64Z" transform="translate(-59.26 -224)" style="fill:#dad1d1"/><path d="M518.84,334.1h15.85a2.94,2.94,0,0,0,2.87-2.32l1-4.35a2.94,2.94,0,0,0-2.24-3.5,2.73,2.73,0,0,0-.64-.07h-15.9a2.94,2.94,0,0,0-2.87,2.32l-.95,4.35a3,3,0,0,0,2.37,3.52h0A2.94,2.94,0,0,0,518.84,334.1Z" transform="translate(-59.26 -224)" style="fill:#dad1d1"/><polygon points="314.34 47.44 323.82 51.7 324.41 46.91 316.36 39.44 314.34 47.44" style="fill:#88a84c"/><path d="M371,257.28l.79.09a5.91,5.91,0,0,1,5,4.44l1.23,5a7.58,7.58,0,0,1-5.53,9.18,7.49,7.49,0,0,1-2.75.17l-1.05-.12Z" transform="translate(-59.26 -224)" style="fill:#88a84c"/><path d="M426.05,343.69h57.52l2.89-.36,18.89-2.42-1.79-10.13A25.12,25.12,0,0,0,478.8,310H454.7a27.19,27.19,0,0,0-26.78,22.48Z" transform="translate(-59.26 -224)" style="fill:#403430"/><polygon points="263.8 11.84 289.76 43.37 269.24 43.37 243.07 11.84 263.8 11.84" style="fill:#5b514e"/><polygon points="273.11 11.84 298.9 43.37 292.27 43.37 266.41 11.84 273.11 11.84" style="fill:#5b514e"/><polygon points="173.89 11.84 199.85 43.37 179.33 43.37 153.15 11.84 173.89 11.84" style="fill:#5b514e"/><polygon points="183.19 11.84 208.98 43.37 202.35 43.37 176.5 11.84 183.19 11.84" style="fill:#5b514e"/><path d="M116.64,342.25l6.51.72,3.08.21,7.29.51h61.79l-1.76-12.91A25.07,25.07,0,0,0,168.79,310H144.7a27.22,27.22,0,0,0-26.79,22.48Z" transform="translate(-59.26 -224)" style="fill:#403430"/><path d="M59.43,321.85c-.06.59-.11,1.21-.16,1.87-.23,3,2.52,5.35,5.49,5.44l6.22.28a20.4,20.4,0,0,0,15.86,9.5l36.31,4,3.08.21,7.29.51h350l33.74-4.31a16.08,16.08,0,0,0,10-5.28h.36a2.46,2.46,0,0,0,2.09,2.78H530l6.1.15a3.08,3.08,0,0,0,3.13-2.64l1.48-10a3.09,3.09,0,0,0-2.6-3.51h-7.33l-.21-2.29L67.36,294.46,65.85,306c-.33,2.54.41,4.87,1.59,5l1,.09-.5,5.12H65.6A6.17,6.17,0,0,0,59.43,321.85Zm8.37-2.78Z" transform="translate(-59.26 -224)" style="fill:#1d1d1b;opacity:0.10000000149011612;isolation:isolate"/><path d="M444,336.88A21.91,21.91,0,1,0,465.94,315h0A21.89,21.89,0,0,0,444,336.86Z" transform="translate(-59.26 -224)" style="fill:#dad1d1"/><path d="M431.56,336.91a32.94,32.94,0,0,0,.61,6.42,34.34,34.34,0,1,0,58.26-30.49A25.09,25.09,0,0,0,478.79,310H454.7a27.17,27.17,0,0,0-14.7,4.32A34.25,34.25,0,0,0,431.56,336.91ZM465.92,358a21.15,21.15,0,0,1-20.16-14.69,20.67,20.67,0,0,1-1-6.43A21.14,21.14,0,1,1,465.92,358Z" transform="translate(-59.26 -224)" style="fill:#1d1715"/><path d="M449.92,336.88a16,16,0,1,0,16-16A16,16,0,0,0,449.92,336.88Z" transform="translate(-59.26 -224)" style="fill:#fff"/><circle cx="406.63" cy="112.88" r="9.63" style="fill:#dad1d1"/><path d="M474.24,319.5a19.43,19.43,0,0,1,8.11,7.34l-16.45,9.9Z" transform="translate(-59.26 -224)" style="fill:#fff;opacity:0.5;isolation:isolate"/><path d="M465.9,336.74l-8.45,17.46a19.31,19.31,0,0,1-8.13-7.48Z" transform="translate(-59.26 -224)" style="fill:#fff;opacity:0.5;isolation:isolate"/><path d="M134,336.88A21.91,21.91,0,1,0,155.94,315h-.05A21.91,21.91,0,0,0,134,336.88Z" transform="translate(-59.26 -224)" style="fill:#dad1d1"/><path d="M121.55,336.91a33.81,33.81,0,0,0,.61,6.42,34.34,34.34,0,1,0,58.26-30.49A25,25,0,0,0,168.79,310H144.7a27.17,27.17,0,0,0-14.7,4.32A34.17,34.17,0,0,0,121.55,336.91ZM155.91,358A21.16,21.16,0,1,1,176,343.33,21.16,21.16,0,0,1,155.91,358Z" transform="translate(-59.26 -224)" style="fill:#1d1715"/><path d="M139.92,336.88a16,16,0,1,0,16-16A16,16,0,0,0,139.92,336.88Z" transform="translate(-59.26 -224)" style="fill:#fff"/><circle cx="96.63" cy="112.88" r="9.63" style="fill:#dad1d1"/><path d="M164.23,319.5a19.3,19.3,0,0,1,8.11,7.34l-16.45,9.9Z" transform="translate(-59.26 -224)" style="fill:#fff;opacity:0.5;isolation:isolate"/><path d="M155.89,336.74l-8.44,17.46a19.4,19.4,0,0,1-8.14-7.48Z" transform="translate(-59.26 -224)" style="fill:#fff;opacity:0.5;isolation:isolate"/><path d="M405.25,266.64l.55,2.33a11.27,11.27,0,0,0,11,8.68L526,282.43c-3.8-6.74-11.83-6.77-19.58-7.16l-94.94-7.61A26.33,26.33,0,0,1,405.25,266.64Z" transform="translate(-59.26 -224)" style="fill:#88a84c"/></svg>