<svg id="Layer_1" data-name="Layer 1" xmlns="http://www.w3.org/2000/svg" viewBox="0 0 511.48 229.59"><title>21</title><path d="M106,64.28H295.53v5H272.39V90.16h-2.75V69.27H238V90.15h-2.75V69.27H203.55V90.15H200.8V69.27H169.13V90.15h-2.75V69.27H134.71V90.15h-3.4V69.27H99.65V90.15H96.89V69.27H65.23V90.15H62.48V69.27H40.6a9.79,9.79,0,0,0-9.79,9.79h0V90.14H28.05v-12A13.89,13.89,0,0,1,41.93,64.27Z" transform="translate(0 0)" style="fill:#dad1d1"/><path d="M10.84,99.36v88.56h472.1l12.24-3.86a11.24,11.24,0,0,0,6.61-5.76,11,11,0,0,0,1-4.72l-.06-12.5V135.36a92.71,92.71,0,0,0-2.62-18.31,19.43,19.43,0,0,0-16.53-14.72L413,90.46a7.51,7.51,0,0,1-2.85-1.13,7,7,0,0,1-1.43-1.22,6.8,6.8,0,0,1-.91-1.22,7.53,7.53,0,0,1-1-2.91c-1.37-11.47-5.5-45.88-5.5-45.88-1-7.35-1.6-14.17-3.15-20-.09-.41-.21-.82-.32-1.23s-.24-.81-.39-1.22C394.35,6.14,387.88,0,371.48,0L315.26.08a19.72,19.72,0,0,0-19.73,19.71v69H21.47A10.61,10.61,0,0,0,10.84,99.36Z" transform="translate(0 0)" style="fill:#88a84c"/><path d="M21.71,111.44H218a58.85,58.85,0,0,1,58.86,58.84h0v5.16H21.71Z" transform="translate(0 0)" style="fill:#a7cb64"/><path d="M502.58,176a10.93,10.93,0,0,1-7.4,8.07l-12.24,3.86H10.85V176Z" transform="translate(0 0)" style="fill:#88a84c"/><path d="M11.44,102.18c-6.08-.48-6,33.72-.07,33.78A328.12,328.12,0,0,0,11.44,102.18Z" transform="translate(0 0)" style="fill:#ff4515"/><path d="M391.71,181.09v6.83h87.42v-6.83a43.71,43.71,0,0,0-87.42,0Z" transform="translate(0 0)" style="fill:#a7cb64"/><path d="M395.81,185.46v2.46h79.27v-2.33a23.16,23.16,0,0,0-.08-2.36,39.45,39.45,0,0,0-39.4-37.09h-.47A39.34,39.34,0,0,0,395.81,185.46Z" transform="translate(0 0)" style="fill:#403430"/><path d="M504.27,105.73c6.18-.37,6.2,26.61.12,26.65A199.16,199.16,0,0,1,504.27,105.73Z" transform="translate(0 0)" style="fill:#ffe697"/><path d="M485.86,173a7,7,0,0,0,7,7h11.6a7,7,0,0,0,7-7h0a7,7,0,0,0-7-7h-11.6A7,7,0,0,0,485.86,173Z" transform="translate(0 0)" style="fill:#ededed"/><path d="M486.71,143.41a2.6,2.6,0,0,0,2.58,2.58h13.42v-5.17h-13.4a2.59,2.59,0,0,0-2.62,2.56h0Z" transform="translate(0 0)" style="fill:#a7cb64"/><path d="M486.71,151a2.58,2.58,0,0,0,2.58,2.56h13.52v-5.14H489.33a2.58,2.58,0,0,0-2.62,2.54h0Z" transform="translate(0 0)" style="fill:#a7cb64"/><path d="M486.71,158.48a2.6,2.6,0,0,0,2.58,2.58h13.5v-5.14H489.33a2.58,2.58,0,0,0-2.62,2.54h0Z" transform="translate(0 0)" style="fill:#a7cb64"/><path d="M90.27,185.46v2.46h79.27v-2.33a23.16,23.16,0,0,0-.08-2.36,39.45,39.45,0,0,0-39.4-37.09h-.47A39.34,39.34,0,0,0,90.27,185.46Z" transform="translate(0 0)" style="fill:#403430"/><path d="M489.65,102.27c5.14,0,9,.45,11.57,1.44l-.19,1.65c-.59,5.25-.52,22.17.13,27.41l.2,1.66c-2.62,1-6.47,1.63-11.56,1.65-18.08.08-71.8-7.73-71.85-17.06S471.57,102.36,489.65,102.27Z" transform="translate(0 0)" style="fill:#a7cb64"/><path d="M501,105.36l.19-1.65a7.36,7.36,0,0,1,3.17,2c2.53,3.09.86,8.11.89,13.36s1.82,10.14-.78,13.25a7.71,7.71,0,0,1-3.14,2.07l-.2-1.66C500.51,127.53,500.44,110.61,501,105.36Z" transform="translate(0 0)" style="fill:#88a84c"/><path d="M21.71,175.45c0,3.86-2.65,7-5.93,7H5.93c-3.28,0-5.93-3.13-5.93-7H0c0-3.86,2.65-7,5.93-7h9.84c3.28,0,5.93,3.12,5.93,7Z" transform="translate(0 0)" style="fill:#ededed"/><path d="M357.71,172.19h19a8.91,8.91,0,0,0,8.9-8.91V24.82a12.29,12.29,0,0,0-12.29-12.29H321.5a12.29,12.29,0,0,0-12.29,12.29h0V163.28a8.91,8.91,0,0,0,8.91,8.91h39.59Z" transform="translate(0 0)" style="fill:#a7cb64"/><path d="M391.71,22.32V81.08a7,7,0,0,0,7,7h10a7.31,7.31,0,0,1-.91-1.22,7.53,7.53,0,0,1-1-2.91c-1.37-11.47-5.5-45.88-5.5-45.88-1-7.35-1.6-14.17-3.15-20-.09-.41-.21-.82-.32-1.23h-.7a5.4,5.4,0,0,0-5.42,5.38h0Z" transform="translate(0 0)" style="fill:#5b514e"/><path d="M390.51,22.32V81.08a8.25,8.25,0,0,0,8.25,8.25h11.37a7,7,0,0,1-1.43-1.22,7.31,7.31,0,0,1-.91-1.22h-9A5.81,5.81,0,0,1,393,81.08V22.32a4.18,4.18,0,0,1,4.18-4.18h1c-.09-.41-.21-.82-.32-1.23s-.24-.81-.39-1.22h-.31A6.64,6.64,0,0,0,390.51,22.32Z" transform="translate(0 0)" style="fill:#614f49"/><rect x="314.09" y="16.91" width="66.59" height="71.2" rx="6.84" style="fill:#403430"/><path d="M312.87,81.28V23.75a8.07,8.07,0,0,1,8-8.06h52.92a8.07,8.07,0,0,1,8,8.06V81.28a8.07,8.07,0,0,1-8,8H320.92A8.07,8.07,0,0,1,312.87,81.28Zm8-63.14a5.62,5.62,0,0,0-5.61,5.61V81.28a5.62,5.62,0,0,0,5.61,5.61h52.92a5.61,5.61,0,0,0,5.61-5.61V23.75a5.61,5.61,0,0,0-5.61-5.61Z" transform="translate(0 0)" style="fill:#614f49"/><path d="M317.84,99.26c0,1.67,4.57,3,10.2,3s10.21-1.34,10.21-3-4.57-3-10.21-3S317.84,97.6,317.84,99.26Z" transform="translate(0 0)" style="fill:#fff"/><path d="M5.08,142.52C1,142.29,1,158.82,5,158.82A115.16,115.16,0,0,0,5.08,142.52Z" transform="translate(0 0)" style="fill:#ffe697"/><path d="M317.34,23.75v3.37l26.05,57.7h23l-29-64.69H320.92a3.59,3.59,0,0,0-3.58,3.6h0Z" transform="translate(0 0)" style="fill:#5b514e"/><path d="M340.38,20.17l28.86,64.65h4.6a3.57,3.57,0,0,0,2.41-1L347.9,20.08Z" transform="translate(0 0)" style="fill:#5b514e"/><path d="M371.44,81.37a2.23,2.23,0,0,0,2.22,2.23h7.19a2.26,2.26,0,0,0,2.26-2.26h0V53.16a3.38,3.38,0,0,0-3.4-3.34h-5.16A3.13,3.13,0,0,0,371.42,53h0Z" transform="translate(0 0)" style="fill:#88a84c"/><path d="M392.23,96.25a2,2,0,0,0,.92-.23,2,2,0,0,0,.88-2.69h0l-13.45-26a2,2,0,0,0-2.68-.89h0a2,2,0,0,0-.89,2.68h0l13.45,26A2,2,0,0,0,392.23,96.25Z" transform="translate(0 0)" style="fill:#dad1d1"/><path d="M5.93,168.47h4.91v-8.65a20.26,20.26,0,0,1-5.79-1.3v.36c-4,0-4-16.57.07-16.34V143a18.16,18.16,0,0,1,5.72-1.3v-3l492,24.88v2.51h1.64a7,7,0,0,1,0,14h-3.67a11.27,11.27,0,0,1-5.59,4.08L483,188H10.84v-5.48H5.93c-3.28,0-5.93-3.13-5.93-7S2.65,168.47,5.93,168.47Z" transform="translate(0 0)" style="fill:#88a84c"/><path d="M449.79,186.58a14.35,14.35,0,1,1-14.36-14.34h0a14.34,14.34,0,0,1,14.36,14.32h0Z" transform="translate(0 0)" style="fill:#fff"/><path d="M399.45,186.58a36,36,0,1,0,36-36h0A36,36,0,0,0,399.45,186.58Zm11.55,0A24.45,24.45,0,1,1,435.46,211h0A24.44,24.44,0,0,1,411,186.59h0Z" transform="translate(0 0)" style="fill:#1d1715"/><path d="M435.45,161.29a25.29,25.29,0,1,0,25.26,25.32h0a25.29,25.29,0,0,0-25.26-25.32Zm7.73,36.92a14,14,0,0,1-21.45-8.86,14.81,14.81,0,0,1-.28-2.74,15.18,15.18,0,0,1,.31-2.93,13.94,13.94,0,0,1,2-4.79,14.11,14.11,0,0,1,4-4,14.38,14.38,0,0,1,4.78-2,14.62,14.62,0,0,1,5.67,0,14.38,14.38,0,0,1,4.78,2,14.11,14.11,0,0,1,4,4,13.49,13.49,0,0,1,2,4.79,13.1,13.1,0,0,1,.33,2.93,15.71,15.71,0,0,1-.27,2.74,14.28,14.28,0,0,1-6,8.89Zm1.5-25a16.07,16.07,0,0,0-6.4-2.63v-6.86a22.73,22.73,0,0,1,11.24,4.65Zm-12.07-2.63a16.07,16.07,0,0,0-6.4,2.63l-4.84-4.84a22.73,22.73,0,0,1,11.24-4.65Zm-10.42,6.63a16,16,0,0,0-2.7,6.41h-6.87a23,23,0,0,1,4.72-11.26Zm-2.73,12.08a16,16,0,0,0,2.65,6.53l-4.84,4.85a22.68,22.68,0,0,1-4.66-11.34Zm6.64,10.53a16,16,0,0,0,6.51,2.71v6.87a22.81,22.81,0,0,1-11.35-4.73Zm12.18,2.71a16,16,0,0,0,6.51-2.71l4.85,4.85a22.9,22.9,0,0,1-11.36,4.73Zm10.5-6.73a16,16,0,0,0,2.65-6.49h6.87a22.89,22.89,0,0,1-4.68,11.34Zm2.62-12.16a16,16,0,0,0-2.7-6.41l4.85-4.85a23,23,0,0,1,4.72,11.26Z" transform="translate(0 0)" style="fill:#dad1d1"/><path d="M144.25,186.58a14.34,14.34,0,1,1-14.34-14.34h0A14.34,14.34,0,0,1,144.25,186.58Z" transform="translate(0 0)" style="fill:#fff"/><path d="M93.92,186.58a36,36,0,1,0,36-36h0A36,36,0,0,0,93.92,186.58Zm11.54,0A24.45,24.45,0,1,1,129.92,211h0a24.44,24.44,0,0,1-24.45-24.43Z" transform="translate(0 0)" style="fill:#1d1715"/><path d="M129.91,161.29a25.29,25.29,0,1,0,25.29,25.29h0A25.29,25.29,0,0,0,129.91,161.29Zm7.73,36.92a14,14,0,0,1-4.9,2,14.21,14.21,0,0,1-10.55-2,13.86,13.86,0,0,1-6.27-11.6,13.7,13.7,0,0,1,.32-2.93,13.94,13.94,0,0,1,2-4.79,14.11,14.11,0,0,1,4-4,14.38,14.38,0,0,1,4.78-2,14.57,14.57,0,0,1,5.66,0,14.38,14.38,0,0,1,4.78,2,14.13,14.13,0,0,1,6.32,11.72,14.79,14.79,0,0,1-.26,2.74,14.09,14.09,0,0,1-2,4.86A14,14,0,0,1,137.64,198.21Zm1.51-25a16.12,16.12,0,0,0-6.41-2.63v-6.86A22.8,22.8,0,0,1,144,168.37Zm-12.07-2.63a16.12,16.12,0,0,0-6.41,2.63l-4.84-4.84a22.8,22.8,0,0,1,11.25-4.65Zm-10.43,6.63a16,16,0,0,0-2.7,6.41h-6.87a23,23,0,0,1,4.72-11.26Zm-2.73,12.08a16.35,16.35,0,0,0,2.65,6.49l-4.86,4.88a22.68,22.68,0,0,1-4.66-11.34Zm6.65,10.53a15.8,15.8,0,0,0,6.51,2.71v6.87a22.74,22.74,0,0,1-11.37-4.72Zm12.14,2.72a15.8,15.8,0,0,0,6.51-2.71l4.86,4.85a23,23,0,0,1-11.37,4.73Zm10.5-6.72a16,16,0,0,0,2.65-6.49h6.85A22.71,22.71,0,0,1,148,200.67Zm2.62-12.16a16.16,16.16,0,0,0-2.69-6.41L148,172.4a22.93,22.93,0,0,1,4.73,11.25Z" transform="translate(0 0)" style="fill:#dad1d1"/><ellipse cx="256.84" cy="222.57" rx="245.61" ry="7.02" style="fill:#1d1d1b;opacity:0.10000000149011612;isolation:isolate"/></svg>