<svg id="Layer_1" data-name="Layer 1" xmlns="http://www.w3.org/2000/svg" viewBox="0 0 505.9 221.27"><title>9-01-01</title><rect x="2.52" y="140.25" width="6.67" height="26.75" style="fill:#c44645"/><path d="M52.57,246.83V362.4a19.07,19.07,0,0,0,12.88,18.09,18.11,18.11,0,0,0,6.31,1.1h341.6a7.28,7.28,0,0,0,7.3-7.26h0V245.62a8.62,8.62,0,0,1,8.62-8.62h51.59a20.49,20.49,0,0,0,20.47-20.47V199.69A10.32,10.32,0,0,0,491,189.38H110a57.38,57.38,0,0,0-57.46,57.3v.15Z" transform="translate(-47.05 -189.38)" style="fill:#a7cb64"/><path d="M54.15,233.4H492.46a20.47,20.47,0,0,0,8.88-16.87V199.69A10.32,10.32,0,0,0,491,189.38H110A57.45,57.45,0,0,0,54.15,233.4Z" transform="translate(-47.05 -189.38)" style="fill:#88a84c"/><path d="M52.57,319v42.3A19.09,19.09,0,0,0,63.4,378.54a18.8,18.8,0,0,0,8.36,1.95h341.6a7.23,7.23,0,0,0,4.55-1.58V319Z" transform="translate(-47.05 -189.38)" style="fill:#a7cb64"/><path d="M52.57,294.27V319H208.9a60.08,60.08,0,0,0-48.61-24.69Z" transform="translate(-47.05 -189.38)" style="fill:#88a84c"/><path d="M479.62,227a10.8,10.8,0,0,0,10.78-10.78v-15a1.72,1.72,0,0,0-1.72-1.71H435.35a4.61,4.61,0,0,0-4.6,4.6v18.32a4.61,4.61,0,0,0,4.6,4.6Z" transform="translate(-47.05 -189.38)" style="fill:#403430"/><path d="M435.35,200.34h53.33a.8.8,0,0,1,.8.8h0v15a9.88,9.88,0,0,1-9.86,9.86H435.35a3.68,3.68,0,0,1-3.68-3.68V204a3.7,3.7,0,0,1,3.68-3.68Zm0-1.83a5.51,5.51,0,0,0-5.51,5.51h0v18.33a5.51,5.51,0,0,0,5.51,5.51h44.27a11.69,11.69,0,0,0,11.69-11.69h0v-15a2.65,2.65,0,0,0-2.63-2.64Z" transform="translate(-47.05 -189.38)" style="fill:#fff"/><path d="M420.67,245.36V376a5.62,5.62,0,0,0,5.62,5.61h3l38.2-.17,58.26-.26,2-.63,11.75-3.71a8.29,8.29,0,0,0,5-4.35,8.48,8.48,0,0,0,.8-3.6V339.8a22.46,22.46,0,0,0-6.16-15.48l-2-2.06-14-14.85a11.44,11.44,0,0,1-1.47-1.93,2.15,2.15,0,0,1-.33-.46l-.54-1.68-.35-1-15-46.46-.34-1.11-.54-1.64a.93.93,0,0,0-.16-.37C497.6,237,487.78,237,458.42,237l-29.58.13A8.24,8.24,0,0,0,420.67,245.36Z" transform="translate(-47.05 -189.38)" style="fill:#88a84c"/><path d="M464.27,371.08a33.63,33.63,0,0,0,.35,4.81,32.76,32.76,0,0,0,1.29,5.52h1.58l58.26-.25,2-.62,1.78-.56a31.83,31.83,0,0,0,1.17-8,6.17,6.17,0,0,0,0-.86,33.22,33.22,0,0,0-66.43,0Z" transform="translate(-47.05 -189.38)" style="fill:#a7cb64"/><path d="M446.53,369.88a7.06,7.06,0,0,1-6.1-3.32,11.41,11.41,0,0,1-1.61-5.86V261.57A11.64,11.64,0,0,1,450.44,250H481.6a11.63,11.63,0,0,1,11.62,11.62v62.32a12.71,12.71,0,0,1-8.54,11.89,37.64,37.64,0,0,0-24.39,30.34,4.28,4.28,0,0,1-4.23,3.76Z" transform="translate(-47.05 -189.38)" style="fill:#a7cb64"/><path d="M500.73,303.34a5.46,5.46,0,0,1-5.45-5.45A5.46,5.46,0,0,0,500.73,303.34Z" transform="translate(-47.05 -189.38)" style="fill:#f39200"/><path d="M497.73,257.84v40.05a5.47,5.47,0,0,0,5.46,5.45h17.5l-.35-1-15-46.46-.34-1.11h-4.12A3.14,3.14,0,0,0,497.73,257.84Z" transform="translate(-47.05 -189.38)" style="fill:#5b514e"/><path d="M495.28,257.45v40.79a7.32,7.32,0,0,0,7.45,7.11l18.83.13a2.15,2.15,0,0,1-.33-.46l-.54-1.68-.35-1-17.61-.06a4.13,4.13,0,0,1-4.18-4V257.45a1.67,1.67,0,0,1,1.69-1.62h5.07l-.34-1.11-.54-1.64c-.05-.13-.1-.25-.16-.37h-4a4.86,4.86,0,0,0-5,4.72h0Z" transform="translate(-47.05 -189.38)" style="fill:#fff"/><path d="M420.66,375.92h46.87L530.7,372l13.8-.86v1.36a8.44,8.44,0,0,1-5,4.39l-10,3.15-1.78.56-2,.62-58.26.25h-1.58l-39.62.17a5.6,5.6,0,0,1-5.63-5.57h0Z" transform="translate(-47.05 -189.38)" style="fill:#a7cb64"/><path d="M467.49,374.4v7l58.26-.25,2-.62v-6a30,30,0,0,0-30-30h-.37a29.87,29.87,0,0,0-29.89,29.85h0Z" transform="translate(-47.05 -189.38)" style="fill:#3e312c"/><path d="M533.52,368.42a5.31,5.31,0,0,0,5.31,5.31h8.81a5.31,5.31,0,0,0,5.31-5.31h0a5.31,5.31,0,0,0-5.31-5.31h-8.81A5.31,5.31,0,0,0,533.52,368.42Z" transform="translate(-47.05 -189.38)" style="fill:#dad1d1"/><path d="M450.45,254.73h31.14a6.84,6.84,0,0,1,6.84,6.84h0v34.92a6.84,6.84,0,0,1-6.84,6.84H450.45a6.84,6.84,0,0,1-6.84-6.84V261.57A6.85,6.85,0,0,1,450.45,254.73Z" transform="translate(-47.05 -189.38)" style="fill:#403430"/><path d="M442.07,296.49V261.57a8.4,8.4,0,0,1,8.38-8.38h31.14a8.4,8.4,0,0,1,8.38,8.38v34.92a8.39,8.39,0,0,1-8.38,8.38H450.45A8.39,8.39,0,0,1,442.07,296.49Zm8.38-40.23a5.31,5.31,0,0,0-5.31,5.31v34.92a5.31,5.31,0,0,0,5.31,5.31h31.14a5.31,5.31,0,0,0,5.31-5.31V261.57a5.31,5.31,0,0,0-5.31-5.31Z" transform="translate(-47.05 -189.38)" style="fill:#fff"/><ellipse cx="407.73" cy="124.86" rx="8.71" ry="1.48" style="fill:#fff"/><path d="M533,345.94a2,2,0,0,0,2,2h10.21V344H535A2,2,0,0,0,533,345.94Z" transform="translate(-47.05 -189.38)" style="fill:#a7cb64"/><path d="M533,351.67a2,2,0,0,0,2,1.95h10.24v-3.91H535A2,2,0,0,0,533,351.67Z" transform="translate(-47.05 -189.38)" style="fill:#a7cb64"/><path d="M533,357.39a2,2,0,0,0,2,2h10.26v-3.91H535A2,2,0,0,0,533,357.39Z" transform="translate(-47.05 -189.38)" style="fill:#a7cb64"/><path d="M537,322.26v15.17a4.2,4.2,0,0,0,4.2,4.2h3.91V339.8A22.53,22.53,0,0,0,539,324.32Z" transform="translate(-47.05 -189.38)" style="fill:#dad1d1"/><path d="M394.39,287.16a6.77,6.77,0,0,0,6.76-6.77v-29a6.76,6.76,0,0,0-6.76-6.76H344.12a6.76,6.76,0,0,0-6.76,6.76h0v29a6.77,6.77,0,0,0,6.76,6.77Z" transform="translate(-47.05 -189.38)" style="fill:#403430"/><path d="M344.12,245.49h50.27a5.85,5.85,0,0,1,5.84,5.85v29a5.85,5.85,0,0,1-5.84,5.85H344.12a5.86,5.86,0,0,1-5.85-5.85v-29a5.86,5.86,0,0,1,5.85-5.85Zm0-1.83a7.68,7.68,0,0,0-7.68,7.68v29a7.68,7.68,0,0,0,7.68,7.68h50.27a7.68,7.68,0,0,0,7.68-7.68v-29a7.68,7.68,0,0,0-7.68-7.68Z" transform="translate(-47.05 -189.38)" style="fill:#fff"/><rect x="32.92" y="55.2" width="63.8" height="42.58" rx="6.76" style="fill:#403430"/><path d="M86.73,245.49H137a5.85,5.85,0,0,1,5.85,5.85h0v29a5.85,5.85,0,0,1-5.85,5.85H86.73a5.85,5.85,0,0,1-5.84-5.85v-29a5.85,5.85,0,0,1,5.84-5.85Zm0-1.83a7.68,7.68,0,0,0-7.68,7.68v29A7.68,7.68,0,0,0,86.73,288H137a7.68,7.68,0,0,0,7.68-7.68v-29a7.68,7.68,0,0,0-7.68-7.68Z" transform="translate(-47.05 -189.38)" style="fill:#fff"/><rect x="207.61" y="46.52" width="64.79" height="133.94" rx="10.58" style="fill:#88a84c"/><path d="M252.83,359.26V246.49a12.43,12.43,0,0,1,12.42-12.42h43.62a12.43,12.43,0,0,1,12.42,12.42V359.26a12.43,12.43,0,0,1-12.42,12.42H265.25A12.43,12.43,0,0,1,252.83,359.26Zm12.42-121.52a8.75,8.75,0,0,0-8.75,8.75h0V359.26a8.77,8.77,0,0,0,8.75,8.76h43.62a8.77,8.77,0,0,0,8.75-8.76V246.49a8.75,8.75,0,0,0-8.75-8.75Z" transform="translate(-47.05 -189.38)" style="fill:#fff"/><rect x="223.49" y="60.78" width="33.05" height="49.7" rx="5.11" style="fill:#403430"/><path d="M275.65,251.08h22.82a4.21,4.21,0,0,1,4.19,4.19v39.48a4.2,4.2,0,0,1-4.19,4.2H275.65a4.2,4.2,0,0,1-4.19-4.2V255.27A4.21,4.21,0,0,1,275.65,251.08Zm0-1.84a6,6,0,0,0-6,6h0v39.48a6,6,0,0,0,6,6h22.82a6,6,0,0,0,6-6V255.27a6,6,0,0,0-6-6Z" transform="translate(-47.05 -189.38)" style="fill:#fff"/><path d="M110,193.05H491a6.64,6.64,0,0,1,6.64,6.64h0v16.84a16.82,16.82,0,0,1-16.8,16.8H429.29A12.3,12.3,0,0,0,417,245.62V374.29a3.62,3.62,0,0,1-3.61,3.63H71.76A15.53,15.53,0,0,1,56.24,362.4V246.83A53.84,53.84,0,0,1,110,193.05Zm0-3.67a57.45,57.45,0,0,0-57.46,57.44h0V362.4a19.19,19.19,0,0,0,19.19,19.19h341.6a7.28,7.28,0,0,0,7.3-7.26h0V245.62a8.62,8.62,0,0,1,8.62-8.62h51.59a20.49,20.49,0,0,0,20.47-20.47V199.69A10.33,10.33,0,0,0,491,189.38Z" transform="translate(-47.05 -189.38)" style="fill:#a7cb64"/><path d="M143.44,221.37a1.72,1.72,0,0,0,1.72,1.72h0a1.72,1.72,0,0,0,1.72-1.72h0V204.63a1.72,1.72,0,0,0-1.72-1.72h0a1.72,1.72,0,0,0-1.72,1.72h0Z" transform="translate(-47.05 -189.38)" style="fill:#a7cb64"/><path d="M136.1,221.37a1.72,1.72,0,0,0,1.72,1.72h0a1.72,1.72,0,0,0,1.72-1.72h0V204.63a1.72,1.72,0,0,0-1.72-1.72h0a1.72,1.72,0,0,0-1.72,1.72h0Z" transform="translate(-47.05 -189.38)" style="fill:#a7cb64"/><path d="M128.77,221.37a1.72,1.72,0,0,0,1.72,1.72h0a1.72,1.72,0,0,0,1.71-1.72V204.63a1.72,1.72,0,0,0-1.71-1.72h0a1.72,1.72,0,0,0-1.72,1.72h0Z" transform="translate(-47.05 -189.38)" style="fill:#a7cb64"/><path d="M121.43,221.37a1.72,1.72,0,0,0,1.72,1.72h0a1.72,1.72,0,0,0,1.72-1.72h0V204.63a1.72,1.72,0,0,0-1.72-1.72h0a1.72,1.72,0,0,0-1.72,1.72h0Z" transform="translate(-47.05 -189.38)" style="fill:#a7cb64"/><path d="M114.09,221.37a1.72,1.72,0,0,0,1.72,1.72h0a1.72,1.72,0,0,0,1.72-1.72h0V204.63a1.72,1.72,0,0,0-1.72-1.72h0a1.72,1.72,0,0,0-1.72,1.72h0Z" transform="translate(-47.05 -189.38)" style="fill:#a7cb64"/><path d="M106.75,221.37a1.72,1.72,0,0,0,1.72,1.72h0a1.72,1.72,0,0,0,1.72-1.72h0V204.63a1.72,1.72,0,0,0-1.72-1.72h0a1.72,1.72,0,0,0-1.72,1.72h0Z" transform="translate(-47.05 -189.38)" style="fill:#a7cb64"/><path d="M169.2,374.4v7.19h60.21V374.5a30,30,0,0,0-30-30H199A29.91,29.91,0,0,0,169.2,374.4Z" transform="translate(-47.05 -189.38)" style="fill:#3e312c"/><polygon points="297.25 57.83 320.03 95.14 338.7 95.14 316.11 57.83 297.25 57.83" style="fill:#5b514e"/><polygon points="318.48 57.83 340.98 95.14 347.01 95.14 324.56 57.83 318.48 57.83" style="fill:#5b514e"/><path d="M446.24,261.57V269l19.29,31.6h16.91a4.24,4.24,0,0,0,2.63-1.73l-25-41.28h-11A4.22,4.22,0,0,0,446.24,261.57Z" transform="translate(-47.05 -189.38)" style="fill:#5b514e"/><polygon points="415.65 68.21 438.76 106.54 438.76 95.47 422.36 68.21 415.65 68.21" style="fill:#5b514e"/><polygon points="391.62 12.68 405.2 34.93 425.83 34.93 412.35 12.68 391.62 12.68" style="fill:#5b514e"/><path d="M462,202.06l13.41,22.25h4.21a7.94,7.94,0,0,0,2.27-.33l-13.21-21.92Z" transform="translate(-47.05 -189.38)" style="fill:#5b514e"/><path d="M273.17,255.27v23.52l11.28,18.43h14a2.48,2.48,0,0,0,2.48-2.47v-1.11l-24.8-40.84h-.48A2.48,2.48,0,0,0,273.17,255.27Z" transform="translate(-47.05 -189.38)" style="fill:#5b514e"/><polygon points="231.44 63.42 253.9 100.47 253.9 90.49 237.52 63.42 231.44 63.42" style="fill:#5b514e"/><path d="M85.44,247.42l22.67,37.1h18.65l-22.59-37.31H86.73A4.05,4.05,0,0,0,85.44,247.42Z" transform="translate(-47.05 -189.38)" style="fill:#5b514e"/><polygon points="59.49 57.83 81.99 95.14 88.02 95.14 65.57 57.83 59.49 57.83" style="fill:#5b514e"/><path d="M484,302.71a1.69,1.69,0,0,0,1.69,1.69h5.47a1.73,1.73,0,0,0,1.71-1.71V281.28a2.57,2.57,0,0,0-2.57-2.57h-3.92a2.4,2.4,0,0,0-2.38,2.38Z" transform="translate(-47.05 -189.38)" style="fill:#88a84c"/><path d="M499.8,314a1.57,1.57,0,0,0,.7-.17,1.54,1.54,0,0,0,.66-2.07L490.94,292a1.54,1.54,0,0,0-2.73,1.41l10.22,19.77A1.57,1.57,0,0,0,499.8,314Z" transform="translate(-47.05 -189.38)" style="fill:#dad1d1"/><path d="M47.05,404.65c0,3.3,111.68,6,249.43,6s249.42-2.67,249.42-6-111.67-6-249.42-6S47.05,401.35,47.05,404.65Z" transform="translate(-47.05 -189.38)" style="fill:#1d1d1b;opacity:0.10000000149011612;isolation:isolate"/><path d="M545.19,355v.49h0v3.91h0v3.75h2.41a5.31,5.31,0,1,1,0,10.62h-4a8.23,8.23,0,0,1-4.23,3.08l-10,3.15h0l-1.78.56-2,.62-40.54.17-17.73.08-38.2.17h-3A5.62,5.62,0,0,1,420.5,376v-1.68a7.28,7.28,0,0,1-7.26,7.3H71.76a11,11,0,0,1-1.81-.09l-.66-.09a4.85,4.85,0,0,1-1-.16c-.31-.07-.7-.14-1.05-.23l-.39-.1a18.72,18.72,0,0,1-5.17-2.24l-.25-.14-.84-.58c-.21-.15-.42-.3-.62-.46l-.6-.48c-.32-.28-.63-.57-.94-.86l-.25-.23c-.41-.42-.8-.85-1.17-1.3l-.1-.12c-.33-.4-.65-.83-1-1.27l-.18-.26c-.27-.42-.53-.84-.77-1.28,0-.08-.09-.16-.13-.24a17.71,17.71,0,0,1-1.38-3.27,1.58,1.58,0,0,0-.09-.31c-.14-.45-.25-.91-.36-1.37a3.06,3.06,0,0,0-.1-.51c-.08-.43-.14-.86-.19-1.29a1.26,1.26,0,0,0-.07-.51c0-.59-.09-1.19-.09-1.8v-6h-3v-25Z" transform="translate(-47.05 -189.38)" style="opacity:0.10000000149011612;isolation:isolate"/><path d="M508,375.59a10.9,10.9,0,1,1-10.91-10.89h0A10.9,10.9,0,0,1,508,375.59Z" transform="translate(-47.05 -189.38)" style="fill:#f6f6f6"/><path d="M469.72,375.59a27.35,27.35,0,1,0,27.36-27.34h0a27.34,27.34,0,0,0-27.36,27.32Zm8.77,0a18.58,18.58,0,1,1,18.59,18.57h0a18.56,18.56,0,0,1-18.57-18.55v0Z" transform="translate(-47.05 -189.38)" style="fill:#1d1715"/><path d="M497.06,356.38a19.22,19.22,0,1,0,19.22,19.22h0A19.23,19.23,0,0,0,497.06,356.38Zm5.88,28.05a10.56,10.56,0,0,1-14.65-2.92l-.09-.14a10.29,10.29,0,0,1-1.51-3.69,10.51,10.51,0,0,1-.21-2.09,11.78,11.78,0,0,1,.23-2.22,10.48,10.48,0,0,1,4.6-6.65,10.89,10.89,0,0,1,3.63-1.49,10.74,10.74,0,0,1,4.3,0,10.63,10.63,0,0,1,6.69,4.52,10.93,10.93,0,0,1,1.78,5.87,12.23,12.23,0,0,1-.2,2.09,10.87,10.87,0,0,1-4.54,6.75Zm1.14-19a12.34,12.34,0,0,0-4.87-2v-5.21a17.1,17.1,0,0,1,8.55,3.53Zm-9.17-2a12.29,12.29,0,0,0-4.86,2l-3.68-3.68a17.29,17.29,0,0,1,8.54-3.53Zm-7.92,5a12.26,12.26,0,0,0-2.05,4.88h-5.22a17.4,17.4,0,0,1,3.59-8.56Zm-2.07,9.19a12.2,12.2,0,0,0,2,4.92l-3.68,3.69a17.23,17.23,0,0,1-3.54-8.61Zm5.05,8a12.05,12.05,0,0,0,4.94,2.06v5.22a17.39,17.39,0,0,1-8.62-3.59Zm9.24,2.06a12,12,0,0,0,5-2.06l3.69,3.69a17.49,17.49,0,0,1-8.64,3.59Zm8-5.12a12.2,12.2,0,0,0,2-4.92h5.22a17.35,17.35,0,0,1-3.56,8.61Zm2-9.23a12.38,12.38,0,0,0-2-4.88l3.68-3.68a17.26,17.26,0,0,1,3.58,8.56Z" transform="translate(-47.05 -189.38)" style="fill:#dad1d1"/><path d="M210.21,375.59A10.9,10.9,0,1,1,199.3,364.7h0a10.91,10.91,0,0,1,10.89,10.89Z" transform="translate(-47.05 -189.38)" style="fill:#f6f6f6"/><path d="M172,375.59a27.35,27.35,0,1,0,27.36-27.34h0A27.36,27.36,0,0,0,172,375.59Zm8.78,0a13.53,13.53,0,1,1,0,.05Z" transform="translate(-47.05 -189.38)" style="fill:#1d1715"/><path d="M199.32,356.38a19.22,19.22,0,1,0,19.22,19.22h0a19.21,19.21,0,0,0-19.21-19.21Zm5.87,28.05a10.6,10.6,0,0,1-14.69-2.94,10.72,10.72,0,0,1-1.57-3.81,10.51,10.51,0,0,1-.21-2.09,10.34,10.34,0,0,1,.24-2.22,10.61,10.61,0,0,1,16.16-6.67,10.93,10.93,0,0,1,3.06,3,10.78,10.78,0,0,1,1.53,3.65,11,11,0,0,1,.25,2.22,12.24,12.24,0,0,1-.21,2.09,10.51,10.51,0,0,1-1.53,3.69A10.71,10.71,0,0,1,205.19,384.43Zm1.14-19a12.09,12.09,0,0,0-4.86-2v-5.21a17.29,17.29,0,0,1,8.54,3.53Zm-9.16-2a12.34,12.34,0,0,0-4.87,2l-3.68-3.68a17.1,17.1,0,0,1,8.55-3.53Zm-7.93,5a12.62,12.62,0,0,0-2.05,4.88H182a17.26,17.26,0,0,1,3.58-8.56Zm-2.07,9.19a12.06,12.06,0,0,0,2,4.92l-3.68,3.69a17.23,17.23,0,0,1-3.54-8.61Zm5.05,8a12.15,12.15,0,0,0,4.95,2.06v5.22a17.46,17.46,0,0,1-8.63-3.59Zm9.25,2.06a12.05,12.05,0,0,0,4.94-2.06l3.69,3.69a17.46,17.46,0,0,1-8.63,3.59Zm8-5.12a11.92,11.92,0,0,0,2-4.92h5.22a17.24,17.24,0,0,1-3.55,8.61Zm2-9.23a12.26,12.26,0,0,0-2.05-4.88l3.68-3.68a17.4,17.4,0,0,1,3.59,8.56Z" transform="translate(-47.05 -189.38)" style="fill:#dad1d1"/></svg>