<svg id="Layer_1" data-name="Layer 1" xmlns="http://www.w3.org/2000/svg" xmlns:xlink="http://www.w3.org/1999/xlink" viewBox="0 0 583.91 236.77"><defs><clipPath id="clip-path" transform="translate(-8.09 -181.61)"><path d="M428,378.18c0,44.4,115.33,44.38,115.33,0L542,364.06l-.85-9.07A37.37,37.37,0,0,0,504,321.14H467a37.37,37.37,0,0,0-37.26,34.51l-.65,8.41Z" style="fill:none"/></clipPath><clipPath id="clip-path-2" transform="translate(-8.09 -181.61)"><path d="M86.49,378.18c0,44.4,115.33,44.38,115.33,0l-1.33-14.12-.86-9.07a37.35,37.35,0,0,0-37.21-33.85H125.49a37.37,37.37,0,0,0-37.26,34.51l-.65,8.41Z" style="fill:none"/></clipPath></defs><title>3-01-0111</title><path d="M31.21,409.25c0,5.05,125.44,9.13,280.17,9.13s280.18-4.08,280.18-9.13-125.44-9.14-280.18-9.14S31.21,404.23,31.21,409.25Z" transform="translate(-8.09 -181.61)" style="fill:#1d1d1b;opacity:0.10000000149011612;isolation:isolate"/><path d="M29.67,333.37l-14.12-2.81a9.38,9.38,0,0,1-7.28-11l14.42-72.34a9.31,9.31,0,0,1,11-7.3h0l14.1,2.82a9.38,9.38,0,0,1,7.28,11L40.65,326A9.37,9.37,0,0,1,29.67,333.37Z" transform="translate(-8.09 -181.61)" style="fill:#88a84c"/><path d="M30.4,330.32l-1.19,14.42a29.28,29.28,0,0,0,18.18,20.74l30.43,12.73H558.51l12.63-1.63a17.61,17.61,0,0,0,14.68-12.49,13.68,13.68,0,0,0,.39-1.56l.36-1.83.35-1.58,3.38-16.65,1.35-6.67a17.81,17.81,0,0,0,.31-2.31,16.13,16.13,0,0,0-.15-3.54,16.33,16.33,0,0,0-.7-3c-.09-.28-.19-.55-.3-.84h0l-12.09-30.87v-.07h0a24.5,24.5,0,0,0-1.93-3.87,21.2,21.2,0,0,0-1.57-2.3,24.75,24.75,0,0,0-3.44-3.65l-.23-.17a26.09,26.09,0,0,0-2.15-1.65c-.2-.16-.45-.26-.66-.4-.63-.38-1.27-.8-1.93-1.15-.47-.23-1-.41-1.47-.63s-.84-.4-1.31-.58a21.59,21.59,0,0,0-2.94-.88l-129.44-32.1A27.56,27.56,0,0,1,425,244l-55.84-47.86c-7.94-7.28-13.36-8.52-26.16-10.53-70.92-5.47-157.38-5.2-228.78,0a41.59,41.59,0,0,0-35.54,20S42.14,266.41,42,267.07l-.81,3.55L30.52,317.25l-.16.7a26.2,26.2,0,0,0-.64,4.83A27,27,0,0,0,30.4,330.32Z" transform="translate(-8.09 -181.61)" style="fill:#a7cb64"/><path d="M276.54,351V195.78a5.71,5.71,0,0,1,5.69-5.73h.21c20.92.67,41,1.72,59.65,3.12,12.48,2,15.77,3,21.85,8.56l.24.22L411,242.07a25.27,25.27,0,0,1,8.82,19.18V351a8.8,8.8,0,0,1-8.79,8.8H285.34a8.8,8.8,0,0,1-8.8-8.78Z" transform="translate(-8.09 -181.61)" style="fill:#88a84c"/><path d="M282.66,199v52.36a3.84,3.84,0,0,0,3.76,3.84l122.5,2.72a3.23,3.23,0,0,0,3.32-3.14h0a3.1,3.1,0,0,0-.28-1.38,18.83,18.83,0,0,0-4.95-6.61l-46.95-40.25-.25-.23c-4.76-4.39-6.7-5.12-18.42-7-17.46-1.34-36.19-2.3-56-3a2.67,2.67,0,0,0-2.76,2.58v0A.16.16,0,0,0,282.66,199Z" transform="translate(-8.09 -181.61)" style="fill:#403430"/><path d="M562.77,302.73l7.15,17.4c1.31,3.25,5.2,5.9,9.83,6.8a16.54,16.54,0,0,0,3.29.33h6.44a3.57,3.57,0,0,0,1.58-.34c-.09-.28-.19-.55-.3-.84h0l-12-30.87v-.07h0a24.5,24.5,0,0,0-1.93-3.87,21.2,21.2,0,0,0-1.57-2.3H573.6c-4.42,0-8.1,1.7-10.08,4.67A9.58,9.58,0,0,0,562.77,302.73Z" transform="translate(-8.09 -181.61)" style="fill:#3e312c"/><path d="M564.89,301.86l.14.31,7,17.09c1,2.61,4.4,4.7,8.14,5.41a13.47,13.47,0,0,0,2.83.3h6.44c2.33,0,2.43-4.51-.67-13.08-2.48-6.83-4.51-10.55-7.18-16.8a6.23,6.23,0,0,0-5.76-3.8h-2.35C566.36,291.27,562.61,296.31,564.89,301.86Z" transform="translate(-8.09 -181.61)" style="fill:#f9b659"/><path d="M44.27,364.06a32.21,32.21,0,0,0,3.12,1.39l30.43,12.73H558.51l12.63-1.63a17.61,17.61,0,0,0,14.68-12.49Z" transform="translate(-8.09 -181.61)" style="fill:#dad1d1"/><path d="M546.27,378.18h12.19l12.63-1.63a17.63,17.63,0,0,0,14.67-12.49,11.89,11.89,0,0,0,.4-1.56l.36-1.83.35-1.58,3.38-16.65,1.35-6.67a19.73,19.73,0,0,0,.31-2.31H577.8a24.81,24.81,0,0,0-23.84,18Z" transform="translate(-8.09 -181.61)" style="fill:#dad1d1"/><path d="M28.66,341.7c.55,8.78.55,11.74,6.13,16.9,6.64,6.11,43,19.58,43,19.58l-4.2-34.48A27.75,27.75,0,0,0,46.7,322.82h-17C29.6,325.3,28.66,341.7,28.66,341.7Z" transform="translate(-8.09 -181.61)" style="fill:#dad1d1"/><path d="M574,349.44c-.63,3.53.61,6.39,2.77,6.39s4.44-2.86,5.07-6.39-.6-6.38-2.78-6.38S574.62,345.93,574,349.44Z" transform="translate(-8.09 -181.61)" style="fill:#f9b659"/><path d="M42.66,339.76c.54,5-.8,9.07-3,9s-4.4-4.16-4.94-9.19.8-9.07,3-9S42.13,334.73,42.66,339.76Z" transform="translate(-8.09 -181.61)" style="fill:#f9b659"/><path d="M30.52,317.25h1.92a6,6,0,0,0,5.83-4.57L46.66,278a6,6,0,0,0-5.5-7.37Z" transform="translate(-8.09 -181.61)" style="fill:#3e312c"/><path d="M28.66,298.43l10.21,2.08-2.82,11.65A3.68,3.68,0,0,1,32.46,315H30.13a4.3,4.3,0,0,1-4.28-4.31,4.21,4.21,0,0,1,.12-1Z" transform="translate(-8.09 -181.61)" style="fill:#f9b659"/><path d="M34.06,276.18a4.3,4.3,0,0,1,4.17-3.28h2.69a3.69,3.69,0,0,1,3.69,3.69h0a3.55,3.55,0,0,1-.1.86l-5.67,23L28.63,298.4Z" transform="translate(-8.09 -181.61)" style="fill:#c44645"/><path d="M413.31,254.32c.46,8.68-8.12,8.65-14.57,9a8.28,8.28,0,0,1-2.43-.21l7.6-30.91C409.14,234.87,412.89,246.75,413.31,254.32Z" transform="translate(-8.09 -181.61)" style="fill:#88a84c"/><path d="M287.71,199.43l41,53.59,36.41.81-40-52.6C313.27,200.48,300.72,199.88,287.71,199.43Z" transform="translate(-8.09 -181.61)" style="fill:#5b514e"/><path d="M330,201.54,369.71,254l11.77.26-39-51.65-1.43-.23C337.46,202.06,333.77,201.8,330,201.54Z" transform="translate(-8.09 -181.61)" style="fill:#5b514e"/><path d="M428,378.18H543.3L542,364.06l-.9-9.06a37.38,37.38,0,0,0-37.17-33.85H467a37.37,37.37,0,0,0-37.26,34.51l-.65,8.41Z" transform="translate(-8.09 -181.61)" style="fill:#3e312c"/><path d="M180.34,189.56c20.28-.95,30.59-.33,49.74-.33,11.37,0,22.68.12,33.82.34a6.73,6.73,0,0,1,6.58,6.74V353.54a6.25,6.25,0,0,1-6.24,6.25H214.53a5.78,5.78,0,0,1-5.73-5.21v-.48a46.54,46.54,0,0,0-46.34-42.16H155a16.78,16.78,0,0,1-16.79-16.77V261.93S158.81,190.57,180.34,189.56Z" transform="translate(-8.09 -181.61)" style="fill:#88a84c"/><path d="M114.38,251.41l-44.74-1a3.6,3.6,0,0,1-3-5.42C73.35,233.5,81,220.1,87.74,209.66,96,196.91,103,193.58,138.26,193.59a3.61,3.61,0,0,1,3.6,3.62,3.53,3.53,0,0,1-.33,1.5c-6.45,14-17.19,35.19-23.78,50.53A3.59,3.59,0,0,1,114.38,251.41Z" transform="translate(-8.09 -181.61)" style="fill:#403430"/><path d="M152.25,252.14l108.65,2.42a3.34,3.34,0,0,0,3.41-3.26V199.59c0-2.93-.71-3.88-3.58-3.91-7.28-.07-11.64-.25-18.94-.29H230c-5.76,0-10.71-.06-15.37-.11-4.16,0-8-.1-12-.1-7.54,0-14.35.17-22.08.52a7.75,7.75,0,0,0-3.91,1.53c-8.48,5.82-19.3,27.31-27.48,50.5a3.35,3.35,0,0,0,2.12,4.24,3.39,3.39,0,0,0,.95.17Z" transform="translate(-8.09 -181.61)" style="fill:#403430"/><path d="M86.49,378.18H201.82l-1.34-14.12-.86-9.07a37.37,37.37,0,0,0-37.2-33.85H125.49a37.38,37.38,0,0,0-37.27,34.51l-.64,8.41Z" transform="translate(-8.09 -181.61)" style="fill:#3e312c"/><path d="M286.09,271.16l21.07.57a1.65,1.65,0,0,0,1.7-1.6h0V266a1.65,1.65,0,0,0-1.62-1.67l-21.06-.58a1.67,1.67,0,0,0-1.71,1.62v4.14A1.69,1.69,0,0,0,286.09,271.16Z" transform="translate(-8.09 -181.61)" style="fill:#fff"/><path d="M153.29,268l21.07.59a1.66,1.66,0,0,0,1.71-1.6V262.8a1.65,1.65,0,0,0-1.62-1.66l-21.06-.58a1.66,1.66,0,0,0-1.71,1.61h0v4.13a1.65,1.65,0,0,0,1.61,1.69Z" transform="translate(-8.09 -181.61)" style="fill:#fff"/><path d="M10.32,309.11l578.23,41.62-1.68,8.33-.35,1.58-.36,1.83a11.89,11.89,0,0,1-.4,1.56,17.64,17.64,0,0,1-14.67,12.49l-12.63,1.63H77.82s-36.42-13.47-43-19.58c-5.58-5.2-5.58-8.12-6.13-16.9,0,0,.23-4.05.49-8.44l-13.6-2.7a9.38,9.38,0,0,1-7.28-11Z" transform="translate(-8.09 -181.61)" style="opacity:0.15000000596046448;isolation:isolate"/><g style="clip-path:url(#clip-path)"><path d="M441.23,363.72a25.41,25.41,0,0,0,.17,2.61l-2.36.22s-.86.66-1.75,1.44l-.17.14a2.55,2.55,0,0,1-.3.26c.19,1.46.44,2.89.75,4.31a3.13,3.13,0,0,0,.16.75l.39-.42h0l.93-.94,3.12-.65c.19.86.38,1.7.6,2.55l-1.92.52-.36.1-.53.6c-.26.29-.6.68-.93,1.11a.74.74,0,0,0-.16.19l-.23.27a46.61,46.61,0,0,0,1.78,4.83l.32-.51.71-1,3-1.18c.32.81.68,1.61,1,2.39l-2.09,1s-.59.92-1.18,1.95l-.16.24-.14.29a48.08,48.08,0,0,0,2.58,4.45c.08-.21.16-.38.24-.57a3.28,3.28,0,0,0,.12-.31c.25-.5.41-.85.41-.85l2.71-1.68c.46.74.93,1.48,1.44,2.18l-1.88,1.35s-.43,1-.84,2.13l-.08.24a1.06,1.06,0,0,1-.12.34,46.76,46.76,0,0,0,3.3,3.91c.06-.2.11-.4.15-.59.19-.73.33-1.25.33-1.25l2.35-2.08c.6.65,1.2,1.29,1.81,1.89l-1.64,1.67s-.23,1.09-.43,2.26v.22a1.21,1.21,0,0,1,0,.38,47.41,47.41,0,0,0,3.93,3.28v-.61c.06-.76.12-1.3.12-1.3l1.94-2.47c.68.54,1.4,1,2.09,1.55L459,400.86v2.5a2.67,2.67,0,0,1,0,.4q2.17,1.38,4.47,2.54a5.73,5.73,0,0,0-.07-.58c-.09-.78-.14-1.32-.14-1.32l1.5-2.8c.77.42,1.55.8,2.34,1.17l-1,2.16a4.17,4.17,0,0,0,.1.78l.26,1.44v.25a.57.57,0,0,0,.08.34,44.23,44.23,0,0,0,4.83,1.75c-.06-.21-.12-.4-.17-.59l-.38-1.21,1-3.05c.84.28,1.67.52,2.51.75l-.57,2.27s.32,1,.72,2.15a1.43,1.43,0,0,0,.09.27,1.88,1.88,0,0,1,.12.3,48.37,48.37,0,0,0,5.07.87l-.27-.52c-.33-.68-.56-1.18-.56-1.18l.45-3.12c.86.11,1.74.22,2.6.28l-.19,2.33s.52,1,1.13,2c0,.07.07.13.1.2s.15.23.2.32c.4,0,.79.05,1.2.06,1.32,0,2.63,0,3.93-.08-.13-.16-.24-.32-.36-.48l-.76-1-.09-3.12q1.31,0,2.61-.18l.21,2.36s.68.87,1.45,1.75l.13.18.27.29a45.26,45.26,0,0,0,5.05-.91l-.43-.4c-.56-.53-.94-.93-.94-.93l-.65-3.12c.85-.19,1.7-.38,2.54-.6l.63,2.28.59.54c.29.26.69.6,1.11.92l.19.17.28.23c1.64-.51,3.25-1.11,4.84-1.78l-.51-.33-1-.71-1.2-3c.82-.33,1.61-.68,2.4-1l1,2.08s.93.6,2,1.19l.23.15.3.14q2.28-1.17,4.44-2.57a5.55,5.55,0,0,0-.56-.24,1.69,1.69,0,0,0-.31-.13c-.5-.25-.85-.4-.85-.4l-1.69-2.72c.74-.45,1.49-.93,2.19-1.43l1.35,1.88,2.08.84.23.08a2.13,2.13,0,0,1,.33.11c.85-.64,1.67-1.32,2.48-2a15.87,15.87,0,0,0,1.44-1.28h-.07l-.52-.12-1.24-.33-2.08-2.37c.64-.59,1.29-1.18,1.89-1.81l1.67,1.65s1.09.23,2.25.44h.22l.38.06a45.63,45.63,0,0,0,3.28-4h-.61l-1.29-.1-2.49-1.95c.55-.68,1-1.4,1.57-2.08l1.92,1.35h2.9a48.12,48.12,0,0,0,2.55-4.47l-.59.09-1.32.12-2.79-1.5c.42-.76.79-1.54,1.16-2.34l2.16,1,.78-.1,1.45-.27h.23l.36-.07a49,49,0,0,0,1.75-4.84l-.6.18-1.2.37-3.05-1q.4-1.26.75-2.52l2.25.58s1.05-.32,2.16-.73l.27-.08a1.94,1.94,0,0,1,.3-.13,48.19,48.19,0,0,0,.87-5.06l-.53.27-1.16.55-3.12-.44c.12-.87.22-1.74.29-2.61l2.32.19s1-.52,2-1.13l.18-.1.34-.2v-1.2c0-1.31,0-2.63-.08-3.93l-.47.36-1,.77-3.13.09c0-.87-.08-1.75-.16-2.62l2.36-.21s.85-.68,1.75-1.45l.17-.13.29-.26a48.29,48.29,0,0,0-.9-5.06c-.15.16-.28.29-.41.44l-.92.93-3.12.66c-.19-.86-.39-1.71-.61-2.55l2.28-.62.53-.6c.26-.29.61-.68.94-1.11l.17-.19.21-.28a49.14,49.14,0,0,0-1.77-4.84l-.33.52-.7,1-3,1.19c-.33-.81-.69-1.61-1-2.4l2.08-1s.59-.92,1.2-2c0-.08.09-.15.14-.24l.15-.29a48.08,48.08,0,0,0-2.58-4.45c-.09.19-.16.38-.23.57s-.1.21-.14.31c-.25.5-.4.85-.4.85l-2.72,1.68c-.46-.74-.92-1.48-1.43-2.18l1.89-1.35s.42-1,.82-2.13a.27.27,0,0,1,.09-.24,2.19,2.19,0,0,1,.12-.33,49.34,49.34,0,0,0-3.31-3.92v.19h0a1.55,1.55,0,0,0-.08.36c-.2.73-.33,1.25-.33,1.25L519,332.62c-.58-.65-1.18-1.29-1.8-1.9l1.64-1.67s.24-1,.43-2.25v-.22l.07-.38a50.14,50.14,0,0,0-4-3.28v.6a7,7,0,0,1-.11,1.29l-2,2.49c-.67-.54-1.39-1-2.08-1.55l1.34-1.93v-2.5a2.67,2.67,0,0,1,0-.4,48,48,0,0,0-4.46-2.55,1.85,1.85,0,0,0,.06.59c.1.78.15,1.32.15,1.32l-1.5,2.8c-.76-.42-1.55-.8-2.34-1.17l1-2.16a3.42,3.42,0,0,0-.12-.78c-.11-.46-.16-.92-.26-1.45v-.24a1.86,1.86,0,0,0-.07-.34,46.42,46.42,0,0,0-4.83-1.75c.05.2.12.4.17.58.23.71.37,1.22.37,1.22l-1,3c-.83-.27-1.66-.51-2.5-.74l.57-2.27s-.32-1-.72-2.15a1.43,1.43,0,0,0-.09-.27,1.88,1.88,0,0,1-.12-.3,48.56,48.56,0,0,0-5.08-.87c.11.19.2.37.27.52.34.68.57,1.18.57,1.18l-.45,3.12c-.86-.12-1.73-.22-2.6-.29l.19-2.32s-.52-1-1.13-2a1.14,1.14,0,0,1-.1-.19c-.06-.11-.14-.23-.2-.32-.4,0-.79,0-1.21-.06-1.31,0-2.62,0-3.92.08l.35.48.76,1,.1,3.12a22.89,22.89,0,0,0-2.61.18l-.21-2.36s-.68-.87-1.45-1.75l-.13-.18-.27-.29a48.1,48.1,0,0,0-5.05.9l.43.41c.56.53.94.93.94.93l.65,3.12c-.86.19-1.7.38-2.54.6l-.63-2.28-.59-.54c-.29-.26-.7-.6-1.11-.92l-.19-.17-.28-.23a49.21,49.21,0,0,0-4.84,1.78l.51.33,1,.71,1.2,2.95c-.81.33-1.62.69-2.4,1.05l-1-2.09s-.93-.59-2-1.18l-.23-.15-.29-.15a48.08,48.08,0,0,0-4.45,2.58l.56.24a1.69,1.69,0,0,0,.31.13c.5.25.84.4.84.4l1.7,2.72c-.74.45-1.48.93-2.19,1.43L458.63,324l-2.13-.84-.23-.08L456,323a44.91,44.91,0,0,0-3.52,2.94,3.33,3.33,0,0,0-.39.36,3.77,3.77,0,0,0,.58.14l1.24.33,2.13,2.36c-.66.6-1.3,1.19-1.9,1.81l-1.67-1.64s-1-.23-2.25-.44H450l-.37-.05q-1.74,1.89-3.28,3.94h.6l1.3.12,2.48,1.94c-.54.69-1,1.41-1.56,2.09l-1.92-1.35h-2.91a44.63,44.63,0,0,0-2.53,4.47l.58-.07,1.32-.14,2.8,1.5c-.43.76-.8,1.54-1.18,2.34l-2.15-1-.78.1L441,343h-.24l-.35.07a49,49,0,0,0-1.75,4.84l.59-.18,1.21-.37,3,1c-.27.83-.52,1.67-.74,2.52l-2.27-.58s-1,.32-2.15.73l-.27.08a1.88,1.88,0,0,1-.3.12,48.4,48.4,0,0,0-.88,5.07l.53-.27c.68-.33,1.17-.55,1.17-.55l3.12.44c-.11.86-.21,1.73-.28,2.6l-2.32-.18s-1,.51-2,1.12l-.2.11-.31.2a7.84,7.84,0,0,1-.06,1.19c0,1.31,0,2.63.07,3.94.17-.13.32-.25.49-.36l1-.77Z" transform="translate(-8.09 -181.61)" style="fill:#1d1715"/><path d="M522,336.52c.51.71,1,1.45,1.44,2.19l2.72-1.69s.15-.34.4-.84a1.83,1.83,0,0,1,.14-.32c-.64-1-1.29-1.9-2-2.81-.41,1.12-.82,2.13-.82,2.13Z" transform="translate(-8.09 -181.61)" style="fill:#403430"/><path d="M446.7,361.26a39,39,0,1,1,38,40,39,39,0,0,1-38-40Z" transform="translate(-8.09 -181.61)" style="fill:#403430"/><path d="M442.37,361.15a43.34,43.34,0,1,1,42.25,44.41h0A43.38,43.38,0,0,1,442.37,361.15Zm.5,0a42.84,42.84,0,1,0,43.9-41.77h0a42.9,42.9,0,0,0-43.88,41.78Z" transform="translate(-8.09 -181.61)" style="fill:#403430"/><path d="M515.38,395.33l2.08,2.36,1.23.33c.85-.79,1.68-1.59,2.46-2.42-1.17-.21-2.26-.44-2.26-.44l-1.66-1.64A19.76,19.76,0,0,1,515.38,395.33Z" transform="translate(-8.09 -181.61)" style="fill:#403430"/><path d="M520.71,389.67l2.49,1.94,1.29.11c.7-.92,1.36-1.83,2-2.8H524.2l-1.93-1.34C521.76,388.26,521.25,389,520.71,389.67Z" transform="translate(-8.09 -181.61)" style="fill:#403430"/><path d="M502.3,403.51l2.4-1,1,2.08s.92.58,1.95,1.18c-1,.52-2.08,1-3.12,1.43l-1-.71Z" transform="translate(-8.09 -181.61)" style="fill:#403430"/><path d="M510.9,402.7l-1.69-2.7c.74-.46,1.47-.94,2.19-1.45l1.34,1.91,2.08.81c-.91.67-1.85,1.33-2.82,2l-.31-.14Z" transform="translate(-8.09 -181.61)" style="fill:#403430"/><path d="M525,383.16l2.79,1.5,1.32-.12c.51-1,1-2.08,1.43-3.12l-1.44.27-.78.1-2.16-1A23.6,23.6,0,0,1,525,383.16Z" transform="translate(-8.09 -181.61)" style="fill:#403430"/><path d="M529.94,358.11c.09.87.15,1.75.17,2.62l3.12-.09,1-.77c-.06-1.15-.13-2.28-.28-3.41-.9.77-1.75,1.44-1.75,1.44Z" transform="translate(-8.09 -181.61)" style="fill:#403430"/><path d="M494.88,405.75c.85-.17,1.7-.37,2.55-.61l.62,2.29.58.54,1.13.94c-1,.32-2.18.61-3.29.87-.55-.53-.94-.93-.94-.93Z" transform="translate(-8.09 -181.61)" style="fill:#403430"/><path d="M528,376.05l3,1,1.21-.37a32.52,32.52,0,0,0,.91-3.28c-1.12.4-2.16.72-2.16.72l-2.25-.58C528.51,374.37,528.26,375.22,528,376.05Z" transform="translate(-8.09 -181.61)" style="fill:#403430"/><path d="M528.62,350.48c.22.85.42,1.69.6,2.55l3.13-.65.92-.94c-.26-1.11-.55-2.19-.88-3.29-.34.43-.68.82-.94,1.12l-.53.59Z" transform="translate(-8.09 -181.61)" style="fill:#403430"/><path d="M525.92,343.21a20.65,20.65,0,0,1,1,2.4l3-1.18.71-1c-.45-1-.92-2.08-1.43-3.12-.6,1-1.19,1.94-1.19,1.94Z" transform="translate(-8.09 -181.61)" style="fill:#403430"/><path d="M529.73,368.49l3.13.44,1.16-.55c.15-1.12.23-2.28.29-3.43-1,.6-2,1.12-2,1.12l-2.32-.19A25.34,25.34,0,0,1,529.73,368.49Z" transform="translate(-8.09 -181.61)" style="fill:#403430"/><path d="M445.22,387.4l2.71-1.69c.46.74.94,1.48,1.44,2.19l-1.9,1.34s-.41,1-.82,2.13c-.68-.91-1.34-1.84-2-2.81l.13-.32A8.15,8.15,0,0,0,445.22,387.4Z" transform="translate(-8.09 -181.61)" style="fill:#403430"/><path d="M444.41,378.84c.33.81.68,1.6,1,2.39l-2.09,1s-.59.92-1.19,2c-.51-1.05-1-2.09-1.42-3.13.4-.62.7-1,.7-1Z" transform="translate(-8.09 -181.61)" style="fill:#403430"/><path d="M487.18,406.69a25.42,25.42,0,0,0,2.62-.17l.21,2.34s.68.87,1.45,1.77c-1.13.14-2.27.22-3.42.27l-.76-1Z" transform="translate(-8.09 -181.61)" style="fill:#403430"/><path d="M452.59,391.94c.59.65,1.19,1.28,1.81,1.9l-1.65,1.66s-.23,1-.43,2.25c-.84-.79-1.64-1.6-2.42-2.44.19-.73.33-1.25.33-1.25Z" transform="translate(-8.09 -181.61)" style="fill:#403430"/><path d="M438.08,363.81l3.12-.09a25.41,25.41,0,0,0,.17,2.61l-2.35.22s-.87.67-1.76,1.44c-.14-1.13-.23-2.26-.28-3.42Z" transform="translate(-8.09 -181.61)" style="fill:#403430"/><path d="M442.16,371.42c.18.85.38,1.7.61,2.54l-2.28.63-.54.58c-.27.31-.6.71-.93,1.13-.33-1-.63-2.18-.88-3.29l.92-.95Z" transform="translate(-8.09 -181.61)" style="fill:#403430"/><path d="M471.87,404.53c.84.26,1.68.51,2.52.72l-.59,2.27s.32,1,.73,2.17c-1.12-.26-2.21-.58-3.29-.91-.21-.71-.35-1.23-.35-1.23Z" transform="translate(-8.09 -181.61)" style="fill:#403430"/><path d="M479.44,406.27c.85.12,1.72.22,2.6.29l-.2,2.31s.52,1,1.12,2c-1.15-.06-2.29-.15-3.43-.29-.32-.66-.54-1.16-.54-1.16Z" transform="translate(-8.09 -181.61)" style="fill:#403430"/><path d="M464.75,401.48q1.15.61,2.34,1.17l-1,2.16a4.19,4.19,0,0,0,.11.78l.26,1.43c-1-.44-2.08-.91-3.12-1.43-.09-.77-.14-1.31-.14-1.31Z" transform="translate(-8.09 -181.61)" style="fill:#403430"/><path d="M458.24,397.25c.69.53,1.41,1,2.08,1.54L459,400.74V403c-1-.64-1.88-1.3-2.8-2,.05-.76.11-1.3.11-1.3Z" transform="translate(-8.09 -181.61)" style="fill:#403430"/><path d="M456.51,323.18c1.13.42,2.13.83,2.13.83L460,325.9c.71-.5,1.45-1,2.19-1.43l-1.7-2.72s-.34-.15-.84-.4a1.73,1.73,0,0,1-.31-.14C458.36,321.85,457.42,322.49,456.51,323.18Z" transform="translate(-8.09 -181.61)" style="fill:#403430"/><path d="M489.54,315.61l-.19,2.32c.88.07,1.74.17,2.6.29l.45-3.12s-.23-.5-.56-1.18c-1.11-.13-2.27-.23-3.42-.29C489,314.57,489.54,315.61,489.54,315.61Z" transform="translate(-8.09 -181.61)" style="fill:#403430"/><path d="M504.29,321.85c.8.36,1.59.75,2.35,1.16l1.49-2.79s-.05-.54-.14-1.33a32,32,0,0,0-3.12-1.43c.09.53.19,1,.26,1.45s.11.78.11.78Z" transform="translate(-8.09 -181.61)" style="fill:#403430"/><path d="M497.57,316.92l-.57,2.27c.84.22,1.68.46,2.51.73l1-3s-.15-.51-.38-1.22a33.06,33.06,0,0,0-3.27-.91Z" transform="translate(-8.09 -181.61)" style="fill:#403430"/><path d="M471.68,315.61c.41.32.82.66,1.11.92l.59.54.63,2.28c.84-.22,1.68-.41,2.54-.6l-.65-3.12s-.38-.4-.95-.93A17.63,17.63,0,0,0,471.68,315.61Z" transform="translate(-8.09 -181.61)" style="fill:#403430"/><path d="M450.67,334.78c-.54.69-1,1.4-1.55,2.08l-1.95-1.35H444.9a33.64,33.64,0,0,1,2-2.8l1.3.11Z" transform="translate(-8.09 -181.61)" style="fill:#403430"/><path d="M443.4,348.41c-.27.82-.52,1.67-.74,2.51l-2.27-.58s-1,.32-2.17.73c.26-1.12.58-2.21.91-3.29l1.23-.37Z" transform="translate(-8.09 -181.61)" style="fill:#403430"/><path d="M479.93,313.83c.77.88,1.44,1.75,1.44,1.75l.21,2.36c.88-.1,1.75-.15,2.61-.18l-.09-3.12-.76-1A25.89,25.89,0,0,0,479.93,313.83Z" transform="translate(-8.09 -181.61)" style="fill:#403430"/><path d="M463.74,318.73c1,.59,1.95,1.18,1.95,1.18l1,2.09c.78-.38,1.59-.74,2.4-1.05l-1.2-2.95-1-.71A26.29,26.29,0,0,0,463.74,318.73Z" transform="translate(-8.09 -181.61)" style="fill:#403430"/><path d="M446.44,341.29c-.41.76-.81,1.55-1.17,2.34l-2.16-1-.78.1-1.44.26c.45-1,.92-2.08,1.44-3.12l1.32-.13Z" transform="translate(-8.09 -181.61)" style="fill:#403430"/><path d="M441.65,356c-.13.86-.22,1.72-.29,2.6l-2.32-.19s-1,.52-2,1.11c.07-1.15.15-2.3.3-3.42l1.15-.55Z" transform="translate(-8.09 -181.61)" style="fill:#403430"/><path d="M511,325.65c.71.5,1.43,1,2.08,1.55l1.94-2.49s.06-.53.12-1.29c-.92-.69-1.83-1.36-2.8-2v2.28Z" transform="translate(-8.09 -181.61)" style="fill:#403430"/><path d="M456,329.13c-.65.59-1.28,1.19-1.9,1.81l-1.66-1.64s-1-.23-2.26-.44c.79-.83,1.6-1.64,2.44-2.42l1.25.33Z" transform="translate(-8.09 -181.61)" style="fill:#403430"/><path d="M517,330.62c.61.6,1.22,1.25,1.8,1.89l2.37-2.08s.14-.52.33-1.25c-.79-.84-1.59-1.66-2.43-2.44-.2,1.17-.44,2.25-.44,2.25Z" transform="translate(-8.09 -181.61)" style="fill:#403430"/><path d="M517,330.62c.61.6,1.22,1.25,1.8,1.89l2.37-2.08s.14-.52.33-1.25c-.79-.84-1.59-1.66-2.43-2.44-.2,1.17-.44,2.25-.44,2.25Z" transform="translate(-8.09 -181.61)" style="fill:#1d1d1b;opacity:0.10000000149011612;isolation:isolate"/><path d="M438.12,373l-.39.42c-.07-.24-.11-.5-.16-.74Z" transform="translate(-8.09 -181.61)" style="fill:#222220"/><path d="M448.94,362.22a36.75,36.75,0,1,0,36.75-36.75,36.75,36.75,0,0,0-36.75,36.75Z" transform="translate(-8.09 -181.61)" style="fill:#fdfdfd"/><circle cx="477.6" cy="180.61" r="30.32" style="fill:#403430"/><polygon points="475.97 185.53 479.23 175.47 447.77 167.19 445.65 173.73 475.97 185.53" style="fill:#dad1d1"/><polygon points="481.88 183.61 473.33 177.39 455.72 204.75 461.3 208.8 481.88 183.61" style="fill:#dad1d1"/><polygon points="481.88 177.39 473.33 183.61 493.91 208.8 499.47 204.75 481.88 177.39" style="fill:#dad1d1"/><polygon points="475.97 175.47 479.23 185.53 509.55 173.73 507.42 167.19 475.97 175.47" style="fill:#dad1d1"/><polygon points="472.31 180.51 482.89 180.51 481.04 148.02 474.16 148.02 472.31 180.51" style="fill:#dad1d1"/><path d="M474.6,362.22a11.09,11.09,0,1,0,11.09-11.09h0A11.1,11.1,0,0,0,474.6,362.22Z" transform="translate(-8.09 -181.61)" style="fill:#fdfdfd"/></g><g style="clip-path:url(#clip-path-2)"><path d="M99.77,363.72a25.41,25.41,0,0,0,.17,2.61l-2.37.22s-.85.66-1.74,1.44l-.17.14c-.1.09-.2.19-.29.26.18,1.46.43,2.89.74,4.31a3.83,3.83,0,0,0,.15.75l.4-.42h0l.92-.94,3.13-.65c.17.86.38,1.7.6,2.55l-1.94.52-.35.1-.53.6c-.26.29-.6.68-.93,1.11a.58.58,0,0,0-.16.19l-.23.27A46.08,46.08,0,0,0,99,381.61l.33-.51.7-1,3-1.18c.33.81.69,1.61,1,2.39l-2.08,1s-.59.92-1.18,1.95l-.16.24c0,.1-.09.19-.14.29a42.88,42.88,0,0,0,2.58,4.45c.08-.21.16-.38.22-.57a1.77,1.77,0,0,1,.15-.31c.25-.5.4-.85.4-.85l2.71-1.68c.46.74.93,1.48,1.44,2.18l-2,1.35s-.42,1-.83,2.13l-.08.24a1.4,1.4,0,0,1-.13.34,46.88,46.88,0,0,0,3.31,3.91,3,3,0,0,1,.15-.59c.18-.73.33-1.25.33-1.25l2.36-2.08c.58.65,1.19,1.29,1.8,1.89l-1.63,1.67s-.24,1.09-.44,2.26v.22a1.2,1.2,0,0,1,0,.38,47.41,47.41,0,0,0,3.93,3.28v-.61a7.07,7.07,0,0,1,.12-1.3l1.94-2.47c.68.54,1.4,1,2.08,1.55l-1.34,1.93v2.5a2.67,2.67,0,0,1,0,.4A50.59,50.59,0,0,0,122,406.3a1.62,1.62,0,0,0-.07-.58c-.09-.78-.13-1.32-.13-1.32l1.49-2.8c.77.42,1.55.8,2.35,1.17l-1,2.16a4.17,4.17,0,0,0,.1.78l.26,1.44a1,1,0,0,1,0,.25.57.57,0,0,0,.08.34,46.42,46.42,0,0,0,4.83,1.75c-.06-.21-.12-.4-.17-.59l-.38-1.21,1-3.05c.83.28,1.67.52,2.52.75l-.58,2.27s.32,1,.72,2.15a1.43,1.43,0,0,0,.09.27,1.08,1.08,0,0,1,.11.3,48.56,48.56,0,0,0,5.08.87c-.1-.19-.2-.37-.27-.52-.33-.68-.55-1.18-.55-1.18l.44-3.12c.86.11,1.73.22,2.6.28L140.4,409s.52,1,1.12,2c0,.07.09.13.12.2a3,3,0,0,0,.19.32c.39,0,.8.05,1.2.06,1.31,0,2.62,0,3.93-.08l-.35-.48-.77-1-.09-3.12q1.31,0,2.61-.18l.21,2.36s.67.87,1.44,1.75l.15.18.26.29a48.32,48.32,0,0,0,5.06-.91L155,410c-.56-.53-.94-.93-.94-.93l-.65-3.12c.85-.19,1.69-.38,2.55-.6l.61,2.28.59.54c.3.26.7.6,1.12.92l.18.17.29.23a49,49,0,0,0,4.83-1.78l-.51-.33c-.62-.41-1-.71-1-.71l-1.19-3c.82-.33,1.62-.68,2.4-1l1,2.08s.92.6,2,1.19l.23.15.3.14a47.83,47.83,0,0,0,4.44-2.57,5.55,5.55,0,0,0-.56-.24,1.69,1.69,0,0,0-.31-.13c-.5-.25-.85-.4-.85-.4l-1.69-2.72c.74-.45,1.47-.93,2.19-1.43l1.34,1.88,2.14.84a.31.31,0,0,1,.24.08l.32.11c.85-.64,1.69-1.32,2.49-2a15.87,15.87,0,0,0,1.44-1.28h-.08c-.17-.05-.36-.09-.52-.12l-1.24-.33-2.08-2.37c.65-.59,1.29-1.18,1.89-1.81l1.67,1.65s1,.23,2.26.44h.21l.38.06a45.63,45.63,0,0,0,3.28-4h-.6l-1.3-.1-2.56-2.13c.53-.69,1-1.41,1.55-2.08l1.93,1.34h2.9a45.71,45.71,0,0,0,2.54-4.46l-.58.08-1.32.12-2.85-1.51c.41-.75.79-1.54,1.16-2.34l2.16,1,.77-.1,1.45-.27h.24l.35-.07a46.42,46.42,0,0,0,1.75-4.83l-.59.17-1.21.37-3.05-1c.27-.83.52-1.68.74-2.52l2.27.58s1-.32,2.15-.73l.27-.08a1.66,1.66,0,0,1,.31-.12,48.37,48.37,0,0,0,.87-5.07l-.53.27-1.17.55-3.12-.44c.12-.87.22-1.73.28-2.61l2.32.19s1-.52,2-1.12l.2-.11.32-.2c0-.39.05-.79.07-1.19,0-1.31,0-2.64-.09-3.94a4.41,4.41,0,0,1-.49.36l-1,.77-3.12.09a25.42,25.42,0,0,0-.17-2.62l2.37-.21s.85-.67,1.74-1.44c.07,0,.11-.1.18-.14l.29-.26a48.29,48.29,0,0,0-.9-5.06c-.15.16-.28.29-.41.44l-.92.94-3.13.65c-.18-.86-.38-1.7-.6-2.55l2.28-.62.54-.59c.26-.3.6-.69.93-1.12l.16-.18.23-.29c-.52-1.65-1.11-3.24-1.79-4.83-.1.18-.23.36-.32.52l-.71,1-3,1.21c-.34-.81-.69-1.61-1-2.4l2.08-1s.59-.91,1.18-1.94c0-.09.1-.16.15-.24l.14-.29a48.24,48.24,0,0,0-2.58-4.46c-.08.21-.16.38-.22.57a1.83,1.83,0,0,0-.14.32c-.25.5-.41.84-.41.84l-2.76,1.7c-.46-.74-.93-1.48-1.44-2.19l1.89-1.34s.42-1,.83-2.13a.68.68,0,0,1,.08-.24,3.42,3.42,0,0,1,.13-.34q-1.56-2-3.31-3.92a.29.29,0,0,1-.05.2h0a1.4,1.4,0,0,1-.1.35l-.32,1.25-2.36,2.08c-.6-.64-1.2-1.29-1.81-1.89l1.64-1.68s.23-1,.44-2.25a.74.74,0,0,1,0-.21l.06-.39q-1.89-1.74-3.94-3.28v.61a7,7,0,0,1-.12,1.29l-1.94,2.48c-.68-.54-1.4-1-2.08-1.55l1.34-1.93s.05-1.09,0-2.28v-.22a2.54,2.54,0,0,1,0-.39,46.86,46.86,0,0,0-4.47-2.55c0,.21.06.41.07.58.09.78.14,1.32.14,1.32l-1.5,2.8c-.77-.42-1.54-.8-2.34-1.17l1-2.16a4.19,4.19,0,0,0-.11-.78c-.12-.46-.17-.92-.26-1.45v-.24a.6.6,0,0,0-.07-.34,45.65,45.65,0,0,0-5-1.66l.18.58c.22.71.37,1.22.37,1.22l-1,3c-.83-.27-1.66-.51-2.5-.73l.57-2.27s-.32-1-.72-2.16c0-.09-.06-.16-.09-.27a1.57,1.57,0,0,1-.12-.3,48.34,48.34,0,0,0-5.07-.86l.27.52c.33.67.56,1.17.56,1.17l-.44,3.13q-1.31-.18-2.61-.3l.25-2.24s-.52-1-1.12-2l-.11-.19c-.06-.11-.14-.23-.2-.32a8.18,8.18,0,0,1-1.2-.06c-1.31,0-2.62,0-3.93.08q.19.24.36.48l.76,1,.09,3.12a22.89,22.89,0,0,0-2.61.18l-.21-2.36s-.67-.87-1.44-1.75l-.14-.18-.27-.29a47.18,47.18,0,0,0-5,.9l.43.41,1,.93.65,3.12c-.86.18-1.7.38-2.55.6L132,317l-.59-.54c-.3-.26-.7-.6-1.12-.92l-.18-.17-.29-.23a49,49,0,0,0-4.83,1.78l.51.33,1,.71,1.19,2.95c-.81.33-1.61.69-2.4,1l-1-2.08s-.92-.59-2-1.18l-.24-.15-.29-.15c-1.54.79-3,1.65-4.45,2.58l.56.24.31.13c.5.25.85.4.85.4l1.69,2.72c-.74.45-1.48.93-2.19,1.43L117.11,324l-2.11-.8-.23-.08-.33-.12c-1.23.94-2.4,1.91-3.53,2.95a4.27,4.27,0,0,0-.38.36,3.77,3.77,0,0,0,.58.14l1.24.33,2.08,2.36c-.66.6-1.3,1.19-1.9,1.81l-1.67-1.64s-1-.23-2.26-.44h-.22l-.37-.05q-1.74,1.89-3.28,3.94h.61l1.29.12,2.48,1.94c-.54.69-1,1.41-1.56,2.09l-1.92-1.35h-2.9a44.71,44.71,0,0,0-2.54,4.47l.58-.07,1.32-.14,2.79,1.5c-.41.76-.79,1.54-1.17,2.34l-2.15-1-.78.1-1.45.27h-.24l-.35.07A49,49,0,0,0,97,347.94l.59-.17,1.22-.37,3,1c-.27.83-.51,1.67-.74,2.52l-2.27-.58s-1,.32-2.15.73l-.27.08a1.88,1.88,0,0,1-.3.12c-.38,1.68-.67,3.37-.88,5.07l.53-.27c.68-.33,1.17-.55,1.17-.55l3.1.48c-.12.86-.22,1.73-.29,2.6l-2.32-.18s-1,.51-2,1.12l-.19.11-.32.2a7.84,7.84,0,0,1-.06,1.19c0,1.31,0,2.63.07,3.94.17-.13.32-.25.49-.36l1-.77Z" transform="translate(-8.09 -181.61)" style="fill:#1d1715"/><path d="M180.55,336.52c.51.71,1,1.45,1.44,2.19L184.7,337s.16-.34.41-.84a3.05,3.05,0,0,1,.13-.32,31.62,31.62,0,0,0-2-2.81c-.41,1.12-.83,2.13-.83,2.13Z" transform="translate(-8.09 -181.61)" style="fill:#403430"/><path d="M105.22,361.26a39,39,0,1,1,38.06,40h0A39.07,39.07,0,0,1,105.22,361.26Z" transform="translate(-8.09 -181.61)" style="fill:#403430"/><path d="M100.9,361.15a43.35,43.35,0,1,1,42.26,44.41h0A43.4,43.4,0,0,1,100.9,361.15Zm.49,0a42.85,42.85,0,1,0,43.91-41.77h0a42.91,42.91,0,0,0-43.9,41.78Z" transform="translate(-8.09 -181.61)" style="fill:#403430"/><path d="M174,395.33l2.08,2.36,1.23.33c.85-.79,1.68-1.59,2.46-2.42-1.17-.21-2.26-.44-2.26-.44l-1.66-1.64C175.24,394.14,174.59,394.73,174,395.33Z" transform="translate(-8.09 -181.61)" style="fill:#403430"/><path d="M179.3,389.67l2.48,1.94,1.3.11c.69-.92,1.35-1.83,2-2.8H182.8l-1.93-1.34C180.34,388.26,179.79,389,179.3,389.67Z" transform="translate(-8.09 -181.61)" style="fill:#403430"/><path d="M160.84,403.51l2.4-1,1,2.08s.91.58,1.94,1.18c-1,.52-2.08,1-3.12,1.43l-1-.71Z" transform="translate(-8.09 -181.61)" style="fill:#403430"/><path d="M169.44,402.7l-1.7-2.71c.75-.46,1.48-.94,2.2-1.45l1.34,1.91,2.13.81c-.91.69-1.85,1.35-2.8,2l-.33-.14Z" transform="translate(-8.09 -181.61)" style="fill:#403430"/><path d="M183.47,383.16l2.78,1.5,1.33-.12c.52-1,1-2.08,1.43-3.12l-1.45.27-.77.1-2.16-1A23.6,23.6,0,0,1,183.47,383.16Z" transform="translate(-8.09 -181.61)" style="fill:#403430"/><path d="M188.52,358.11c.09.87.15,1.75.17,2.62l3.12-.09,1-.77a24.36,24.36,0,0,0-.27-3.41c-.89.77-1.75,1.44-1.75,1.44Z" transform="translate(-8.09 -181.61)" style="fill:#403430"/><path d="M153.42,405.75c.86-.17,1.7-.37,2.55-.61l.62,2.29.59.54c.3.27.7.59,1.12.94-1,.32-2.18.61-3.29.87-.55-.53-.94-.93-.94-.93Z" transform="translate(-8.09 -181.61)" style="fill:#403430"/><path d="M186.52,376.05l3,1,1.21-.37a32.52,32.52,0,0,0,.91-3.28c-1.12.4-2.16.72-2.16.72l-2.27-.58C187,374.37,186.79,375.22,186.52,376.05Z" transform="translate(-8.09 -181.61)" style="fill:#403430"/><path d="M187.16,350.48c.22.85.42,1.69.6,2.55l3.12-.65.93-.94c-.26-1.11-.55-2.19-.88-3.29-.33.43-.67.82-.93,1.12l-.54.59Z" transform="translate(-8.09 -181.61)" style="fill:#403430"/><path d="M184.51,343.21a20.65,20.65,0,0,1,1,2.4l3-1.18.71-1c-.45-1-.92-2.08-1.43-3.12-.59,1-1.18,1.94-1.18,1.94Z" transform="translate(-8.09 -181.61)" style="fill:#403430"/><path d="M188.28,368.49l3.12.44,1.17-.55c.13-1.12.23-2.28.29-3.43-1,.6-2,1.12-2,1.12l-2.32-.19A25.34,25.34,0,0,1,188.28,368.49Z" transform="translate(-8.09 -181.61)" style="fill:#403430"/><path d="M103.75,387.4l2.71-1.69c.47.74,1,1.48,1.45,2.19l-1.9,1.34-.82,2.13c-.69-.91-1.34-1.84-2-2.81l.14-.32A7.65,7.65,0,0,0,103.75,387.4Z" transform="translate(-8.09 -181.61)" style="fill:#403430"/><path d="M102.94,378.84c.34.81.69,1.6,1,2.39l-2.08,1s-.58.92-1.18,2c-.51-1.05-1-2.09-1.42-3.13l.7-1Z" transform="translate(-8.09 -181.61)" style="fill:#403430"/><path d="M145.72,406.69a25.42,25.42,0,0,0,2.62-.17l.21,2.34s.67.87,1.45,1.77c-1.13.14-2.26.22-3.42.27l-.76-1Z" transform="translate(-8.09 -181.61)" style="fill:#403430"/><path d="M111.13,391.94c.58.65,1.19,1.28,1.81,1.9l-1.65,1.66s-.23,1-.43,2.25c-.83-.79-1.64-1.6-2.42-2.44.18-.73.33-1.25.33-1.25Z" transform="translate(-8.09 -181.61)" style="fill:#403430"/><path d="M96.62,363.81l3.12-.09a25.41,25.41,0,0,0,.17,2.61l-2.36.22s-.85.67-1.75,1.44c-.14-1.13-.22-2.26-.29-3.42Z" transform="translate(-8.09 -181.61)" style="fill:#403430"/><path d="M100.7,371.42c.18.85.38,1.7.61,2.54l-2.28.63-.54.58c-.27.31-.59.71-.94,1.13-.32-1-.62-2.18-.87-3.29l.92-.95Z" transform="translate(-8.09 -181.61)" style="fill:#403430"/><path d="M130.4,404.53c.83.26,1.68.51,2.52.72l-.59,2.27.72,2.17c-1.11-.26-2.2-.58-3.27-.91-.22-.71-.37-1.23-.37-1.23Z" transform="translate(-8.09 -181.61)" style="fill:#403430"/><path d="M138,406.27c.86.12,1.73.22,2.61.29l-.19,2.31s.51,1,1.11,2c-1.15-.06-2.3-.15-3.42-.29-.33-.66-.55-1.16-.55-1.16Z" transform="translate(-8.09 -181.61)" style="fill:#403430"/><path d="M123.28,401.48c.77.41,1.55.8,2.36,1.17l-1,2.16a4.19,4.19,0,0,0,.11.78L125,407c-1-.44-2.08-.91-3.12-1.43-.08-.77-.13-1.31-.13-1.31Z" transform="translate(-8.09 -181.61)" style="fill:#403430"/><path d="M116.78,397.25c.7.53,1.41,1,2.08,1.54l-1.35,1.95V403c-1-.64-1.88-1.3-2.79-2a7.06,7.06,0,0,1,.11-1.3Z" transform="translate(-8.09 -181.61)" style="fill:#403430"/><path d="M115,323.18c1.14.42,2.14.83,2.14.83l1.34,1.89c.72-.5,1.46-1,2.19-1.43L119,321.75s-.34-.15-.84-.4a1.83,1.83,0,0,1-.32-.14C116.88,321.85,116,322.49,115,323.18Z" transform="translate(-8.09 -181.61)" style="fill:#403430"/><path d="M148.09,315.61l-.19,2.32c.88.07,1.74.17,2.61.29l.44-3.12s-.23-.5-.56-1.18c-1.11-.13-2.27-.23-3.42-.29C147.56,314.57,148.09,315.61,148.09,315.61Z" transform="translate(-8.09 -181.61)" style="fill:#403430"/><path d="M162.83,321.85c.8.36,1.57.75,2.34,1.16l1.5-2.79a8.44,8.44,0,0,0-.14-1.33,32,32,0,0,0-3.12-1.43c.09.53.19,1,.26,1.45s.11.78.11.78Z" transform="translate(-8.09 -181.61)" style="fill:#403430"/><path d="M156.11,316.92l-.57,2.27c.84.22,1.67.46,2.51.73l1-3s-.15-.51-.37-1.22c-1.09-.34-2.17-.66-3.28-.91Z" transform="translate(-8.09 -181.61)" style="fill:#403430"/><path d="M130.16,315.61c.42.32.82.66,1.12.92l.59.54.62,2.28c.85-.22,1.69-.41,2.55-.6l-.65-3.12s-.39-.4-.95-.93A21.83,21.83,0,0,0,130.16,315.61Z" transform="translate(-8.09 -181.61)" style="fill:#403430"/><path d="M109.21,334.78c-.54.69-1,1.4-1.55,2.08l-1.94-1.35h-2.28a33.64,33.64,0,0,1,2-2.8l1.31.11Z" transform="translate(-8.09 -181.61)" style="fill:#403430"/><path d="M101.93,348.41c-.27.82-.51,1.67-.73,2.51l-2.26-.58s-1,.32-2.17.73c.26-1.12.57-2.21.9-3.29l1.23-.37Z" transform="translate(-8.09 -181.61)" style="fill:#403430"/><path d="M138.47,313.83c.77.88,1.44,1.75,1.44,1.75l.21,2.36c.87-.1,1.75-.15,2.61-.18l-.09-3.12-.76-1A25.89,25.89,0,0,0,138.47,313.83Z" transform="translate(-8.09 -181.61)" style="fill:#403430"/><path d="M122.29,318.73c1,.59,1.94,1.18,1.94,1.18l1,2.09c.79-.38,1.59-.74,2.41-1.05l-1.2-2.95-1-.71A22.4,22.4,0,0,0,122.29,318.73Z" transform="translate(-8.09 -181.61)" style="fill:#403430"/><path d="M105,341.29c-.4.76-.8,1.55-1.16,2.34l-2.16-1-.78.1-1.44.26c.45-1,.92-2.08,1.44-3.12l1.31-.13Z" transform="translate(-8.09 -181.61)" style="fill:#403430"/><path d="M100.23,356c-.13.86-.22,1.72-.29,2.6l-2.32-.19s-1,.52-2,1.11c.06-1.15.14-2.3.29-3.42.67-.33,1.17-.55,1.17-.55Z" transform="translate(-8.09 -181.61)" style="fill:#403430"/><path d="M169.55,325.65c.72.5,1.44,1,2.09,1.55l1.94-2.49s.06-.53.12-1.29c-.92-.69-1.84-1.36-2.8-2v2.28Z" transform="translate(-8.09 -181.61)" style="fill:#403430"/><path d="M114.51,329.13c-.64.59-1.28,1.19-1.89,1.81L111,329.3s-1-.23-2.26-.44c.79-.83,1.6-1.64,2.45-2.42l1.25.33Z" transform="translate(-8.09 -181.61)" style="fill:#403430"/><path d="M175.53,330.62c.61.6,1.21,1.25,1.81,1.89l2.36-2.08.32-1.25c-.78-.84-1.58-1.66-2.41-2.44-.21,1.17-.44,2.25-.44,2.25Z" transform="translate(-8.09 -181.61)" style="fill:#403430"/><path d="M175.53,330.62c.61.6,1.21,1.25,1.81,1.89l2.36-2.08.32-1.25c-.78-.84-1.58-1.66-2.41-2.44-.21,1.17-.44,2.25-.44,2.25Z" transform="translate(-8.09 -181.61)" style="fill:#1d1d1b;opacity:0.10000000149011612;isolation:isolate"/><path d="M96.66,373l-.4.42c-.06-.24-.1-.5-.15-.74Z" transform="translate(-8.09 -181.61)" style="fill:#222220"/><path d="M107.51,362.22a36.75,36.75,0,1,0,36.75-36.75,36.75,36.75,0,0,0-36.75,36.75Z" transform="translate(-8.09 -181.61)" style="fill:#fdfdfd"/><circle cx="144.23" cy="362.22" r="30.32" transform="translate(-235.39 298.8) rotate(-85.93)" style="fill:#403430"/><polygon points="134.51 185.53 137.77 175.47 106.32 167.19 104.19 173.73 134.51 185.53" style="fill:#dad1d1"/><polygon points="140.43 183.61 131.86 177.39 114.27 204.75 119.83 208.8 140.43 183.61" style="fill:#dad1d1"/><polygon points="140.43 177.39 131.86 183.61 152.44 208.8 158.02 204.75 140.43 177.39" style="fill:#dad1d1"/><polygon points="134.51 175.47 137.77 185.53 168.09 173.73 165.97 167.19 134.51 175.47" style="fill:#dad1d1"/><polygon points="130.85 180.51 141.44 180.51 139.58 148.02 132.71 148.02 130.85 180.51" style="fill:#dad1d1"/><path d="M133.14,362.22a11.1,11.1,0,1,0,11.11-11.09h0a11.1,11.1,0,0,0-11.11,11.09Z" transform="translate(-8.09 -181.61)" style="fill:#fdfdfd"/></g><path d="M144.16,315h-21.4a43.7,43.7,0,0,0-43.34,40.12C80.24,330.57,91.2,302.72,144.16,315Z" transform="translate(-8.09 -181.61)" style="fill:#88a84c"/><path d="M488.57,315H467.18a43.72,43.72,0,0,0-43.37,40.12C424.66,330.57,435.61,302.72,488.57,315Z" transform="translate(-8.09 -181.61)" style="fill:#88a84c"/><path d="M173.06,205.32l34.49,45,36.47.81-40.2-52.92h-1.15c-7.28,0-14.08.15-21.94.51a4.67,4.67,0,0,0-2.3,1A25.48,25.48,0,0,0,173.06,205.32Z" transform="translate(-8.09 -181.61)" style="fill:#5b514e"/><path d="M208.36,198.23l40.1,53,11.78.26-40.09-53.15h-6.31Z" transform="translate(-8.09 -181.61)" style="fill:#5b514e"/><path d="M81.59,225.48,98.83,248l15.61.36a.55.55,0,0,0,.49-.32c2.14-5,4.7-10.54,7.42-16.3l-22.83-30c-4,2.24-6.46,5.4-9.21,9.63S84.62,220.48,81.59,225.48Z" transform="translate(-8.09 -181.61)" style="fill:#5b514e"/><path d="M102.9,200.11l21.19,28c1.48-3.12,3-6.24,4.51-9.42l-15.77-20.88A44.49,44.49,0,0,0,102.9,200.11Z" transform="translate(-8.09 -181.61)" style="fill:#5b514e"/></svg>