<svg id="Layer_1" data-name="Layer 1" xmlns="http://www.w3.org/2000/svg" viewBox="0 0 536.23 161.24"><title>4-01-01</title><rect x="338.33" y="254.84" width="5.77" height="14.54" transform="translate(-66.42 252.37) rotate(-66.69)" style="fill:#614f49"/><path d="M326.3,274.66h.05a2.64,2.64,0,0,0,3.41-1.49h0l10.11-25.93a2.64,2.64,0,0,0-1.49-3.41h-.06a2.64,2.64,0,0,0-3.41,1.49h0L324.8,271.25a2.64,2.64,0,0,0,1.49,3.41Z" transform="translate(-31.9 -219.39)" style="fill:#614f49"/><path d="M214.91,309.78h27.61l-17.81-65.07a15,15,0,0,0-14.46-11h-5.87a7.86,7.86,0,0,0-7.86,7.86h0a8,8,0,0,0,.28,2.07Z" transform="translate(-31.9 -219.39)" style="fill:#614f49"/><path d="M31.9,371.92c0,4.81,120,8.71,268,8.71s268-3.9,268-8.71-120-8.72-268-8.72S31.9,367.1,31.9,371.92Z" transform="translate(-31.9 -219.39)" style="fill:#1d1d1b;opacity:0.10000000149011612;isolation:isolate"/><path d="M39.05,269.1l.28,2.63.19,1.81,1.78,17.13.19,1.82,1.16,10.75v.42l.24,2.2.21,2,.65,6.11a25.19,25.19,0,0,0,1.08,5,24,24,0,0,0,15.31,15.26l24.44,8,2.07.69.65.22H552.7a12.72,12.72,0,0,0,12.16-9l3.14-10c3.33-60.84-55.35-56.81-163.49-63.05-45.76-31-60.64-40.94-73.59-41.66a29.87,29.87,0,0,0-5.35.2L367,262.55l-167.6-9.22-4.18-19.65-45.35,12.77-4.69.32-6.61.47-4.07.3-6.63.46-4.07.28-6.63.47-4.06.28-6.62.46-4.08.3-6.62.45-4.07.29L85.1,251l-14.24,1C42.69,253.33,38.51,263.72,39.05,269.1Z" transform="translate(-31.9 -219.39)" style="fill:#a7cb64"/><path d="M533.37,276.93c14.59,5.34,23.54,11.45,27.94,27.67a4,4,0,0,1-4.15,5c-.64,0-.19,0-6.34-.21a11.59,11.59,0,0,1-11-9.2c-1.34-6.12-4.84-12.93-9.31-19.69a2.41,2.41,0,0,1,2.86-3.57Z" transform="translate(-31.9 -219.39)" style="fill:#f9b659"/><path d="M365.52,324.81A8.45,8.45,0,0,1,357,333.1H249.18a46.24,46.24,0,0,1-45.89-40.61l-3.93-39.16,167.58,9.22Z" transform="translate(-31.9 -219.39)" style="fill:#88a84c"/><path d="M421.73,330.65v12.56h91.16V330.65a45.62,45.62,0,0,0-38.62-45.08,50.44,50.44,0,0,0-6.95-.51,45.58,45.58,0,0,0-45.59,45.57h0Z" transform="translate(-31.9 -219.39)" style="fill:#614f49"/><path d="M89.94,330.65v12.56H181.1V330.65a45.62,45.62,0,0,0-38.62-45.08,50.44,50.44,0,0,0-6.95-.51,45.58,45.58,0,0,0-45.59,45.57h0Z" transform="translate(-31.9 -219.39)" style="fill:#614f49"/><path d="M209,266.47a4.48,4.48,0,0,0,4.32,4.65h0l16.91.61a4.51,4.51,0,0,0,4.65-4.33h0a4.48,4.48,0,0,0-4.32-4.65h0l-16.91-.61a4.48,4.48,0,0,0-4.65,4.32Z" transform="translate(-31.9 -219.39)" style="fill:#fff"/><path d="M545.29,324.11H568l-3.08,10.09a12.71,12.71,0,0,1-12.16,9H531.19l3.48-11.27A11.09,11.09,0,0,1,545.29,324.11Z" transform="translate(-31.9 -219.39)" style="fill:#dad1d1"/><path d="M557.24,335.94l.91-4.55h-8.54c-1.13,0-2.1,1.09-2.44,2.71l-.38,1.85Z" transform="translate(-31.9 -219.39)" style="fill:#fff"/><path d="M44.87,319a24,24,0,0,0,15.31,15.26l24.44,8,2.07.69-2.23-10.14c-1.79-8-10.18-13.84-20-13.84Z" transform="translate(-31.9 -219.39)" style="fill:#dad1d1"/><path d="M39.33,271.73l.19,1.81,1.78,17.13.19,1.82,1.16,10.75v.42l.24,2.2.21,2h1.54a8.25,8.25,0,0,0,8.23-8.25,7.86,7.86,0,0,0-.15-1.53l-1.84-19.73a8.32,8.32,0,0,0-8.07-6.62Z" transform="translate(-31.9 -219.39)" style="fill:#fff"/><path d="M39.52,273.54l1.78,17.13.19,1.82,1.16,10.75v.42l.24,2.2h1.94a6.41,6.41,0,0,0,6.3-7.64l-2-19.5a6.41,6.41,0,0,0-6.29-5.18Z" transform="translate(-31.9 -219.39)" style="fill:#c44645"/><path d="M371,263.4c.93,6-5,6.53-9.42,7.22a6,6,0,0,1-1.69,0l3.1-21.86C366.77,250.27,370.19,258.2,371,263.4Z" transform="translate(-31.9 -219.39)" style="fill:#614f49"/><path d="M343.48,222.72c11.71,5,28.62,16.43,61,38.35H381.75l-44.56-36.66a1,1,0,0,1,.6-1.69Z" transform="translate(-31.9 -219.39)" style="fill:#403430"/><path d="M138.54,247.24l.59,7.41a3.31,3.31,0,1,0,6.62-.26h0v-.26l-.59-7.36Z" transform="translate(-31.9 -219.39)" style="fill:#88a84c"/><path d="M127.84,248l.6,7.5a3.32,3.32,0,0,0,6.63-.26V255l-.58-7.44Z" transform="translate(-31.9 -219.39)" style="fill:#88a84c"/><path d="M117.14,248.75l.62,7.6a3.32,3.32,0,0,0,6.62-.26v-.27l-.59-7.54Z" transform="translate(-31.9 -219.39)" style="fill:#88a84c"/><path d="M106.46,249.49l.61,7.71a3.32,3.32,0,0,0,6.62-.27v-.26l-.6-7.64Z" transform="translate(-31.9 -219.39)" style="fill:#88a84c"/><path d="M95.76,250.24l.62,7.81a3.32,3.32,0,0,0,6.63-.27v-.26l-.61-7.73Z" transform="translate(-31.9 -219.39)" style="fill:#88a84c"/><path d="M85.07,251l.63,7.89a3.32,3.32,0,0,0,6.62-.26v-.26l-.62-7.84Z" transform="translate(-31.9 -219.39)" style="fill:#88a84c"/><path d="M568.09,319.54c0,1.48,0,3-.12,4.57h0l-3.08,10.09a12.71,12.71,0,0,1-12.16,9H87.34l-.65-.22-2.07-.69-24.44-8A24,24,0,0,1,44.87,319a25.19,25.19,0,0,1-1.08-5l-.65-6.11-.21-2-.24-2.2v-.42l-1.16-10.75L41.34,291Z" transform="translate(-31.9 -219.39)" style="opacity:0.20000000298023224;isolation:isolate"/><path d="M483.46,331.38a16.15,16.15,0,1,1-16.15-16.15h0a16.14,16.14,0,0,1,16.15,16.13h0Z" transform="translate(-31.9 -219.39)" style="fill:#f6f6f6"/><path d="M426.78,331.39a40.53,40.53,0,1,0,40.53-40.54A40.54,40.54,0,0,0,426.78,331.39Zm13,0a27.53,27.53,0,1,1,27.54,27.52h0A27.54,27.54,0,0,1,439.78,331.39Z" transform="translate(-31.9 -219.39)" style="fill:#1d1715"/><path d="M467.31,302.91a28.48,28.48,0,1,0,28.48,28.48,28.48,28.48,0,0,0-28.48-28.48Zm8.7,41.58a16.08,16.08,0,0,1-5.51,2.29,15.58,15.58,0,0,1-6.38,0,15.76,15.76,0,0,1-5.5-2.29,16.08,16.08,0,0,1-4.5-4.54,15.43,15.43,0,0,1-2.23-5.48,15.24,15.24,0,0,1,0-6.38,15.74,15.74,0,0,1,28.49-5.4,15.22,15.22,0,0,1,2.26,5.4,14.65,14.65,0,0,1,.37,3.3,15.61,15.61,0,0,1-7,13.08Zm1.7-28.12a18.13,18.13,0,0,0-7.21-3v-7.73a25.59,25.59,0,0,1,12.66,5.25Zm-13.59-3a18.27,18.27,0,0,0-7.21,3l-5.46-5.45a25.57,25.57,0,0,1,12.67-5.25Zm-11.74,7.47a18.26,18.26,0,0,0-3,7.22H441.6a26,26,0,0,1,5.32-12.69Zm-3.07,13.6a18.06,18.06,0,0,0,3,7.31l-5.45,5.46a25.47,25.47,0,0,1-5.25-12.77Zm7.48,11.84a18,18,0,0,0,7.33,3.05v7.73a25.48,25.48,0,0,1-12.78-5.32Zm13.71,3.05a18,18,0,0,0,7.33-3.05l5.47,5.46a25.76,25.76,0,0,1-12.8,5.32Zm11.82-7.58a18,18,0,0,0,3-7.31H493a25.72,25.72,0,0,1-5.27,12.77Zm3-13.69a18.32,18.32,0,0,0-3-7.22l5.45-5.47A25.8,25.8,0,0,1,493,328.09Z" transform="translate(-31.9 -219.39)" style="fill:#dad1d1"/><path d="M151.21,331.38a16.15,16.15,0,1,1-16.15-16.15h0a16.14,16.14,0,0,1,16.15,16.13h0Z" transform="translate(-31.9 -219.39)" style="fill:#f6f6f6"/><path d="M94.53,331.39a40.54,40.54,0,1,0,40.54-40.54h0a40.54,40.54,0,0,0-40.54,40.54Zm13,0a27.53,27.53,0,1,1,27.54,27.52h0a27.54,27.54,0,0,1-27.51-27.52Z" transform="translate(-31.9 -219.39)" style="fill:#1d1715"/><path d="M135.06,302.91a28.48,28.48,0,1,0,28.49,28.48,28.48,28.48,0,0,0-28.49-28.48Zm8.71,41.58a16,16,0,0,1-5.52,2.29,15.74,15.74,0,0,1-11.87-2.29,16.08,16.08,0,0,1-4.5-4.54,15.43,15.43,0,0,1-2.23-5.48,15.24,15.24,0,0,1,0-6.38,15.74,15.74,0,0,1,28.49-5.4,15.22,15.22,0,0,1,2.26,5.4,14.65,14.65,0,0,1,.37,3.3,17.76,17.76,0,0,1-.3,3.08,16.15,16.15,0,0,1-6.73,10Zm1.7-28.12a18.11,18.11,0,0,0-7.22-3v-7.73a25.57,25.57,0,0,1,12.67,5.25Zm-13.59-3a18.26,18.26,0,0,0-7.22,3l-5.45-5.45a25.57,25.57,0,0,1,12.67-5.25Zm-11.75,7.47a18.11,18.11,0,0,0-3,7.22h-7.74a25.88,25.88,0,0,1,5.32-12.69Zm-3.06,13.6a18.06,18.06,0,0,0,3,7.31l-5.45,5.46a25.47,25.47,0,0,1-5.25-12.77Zm7.48,11.84a18,18,0,0,0,7.33,3.05v7.73a25.48,25.48,0,0,1-12.78-5.32Zm13.7,3.05a18,18,0,0,0,7.33-3.05l5.47,5.46a25.76,25.76,0,0,1-12.8,5.32Zm11.83-7.58a18.21,18.21,0,0,0,3-7.31h7.73a25.72,25.72,0,0,1-5.27,12.77ZM153,328.09a18.11,18.11,0,0,0-3-7.22l5.45-5.47a25.88,25.88,0,0,1,5.32,12.69Z" transform="translate(-31.9 -219.39)" style="fill:#dad1d1"/></svg>