<svg id="Layer_1" data-name="Layer 1" xmlns="http://www.w3.org/2000/svg" viewBox="0 0 520.98 277.54"><title>10-01-01</title><path d="M118.69,338.76H92.89A36.71,36.71,0,0,0,69.72,347l76.57,3.29A38.88,38.88,0,0,0,118.69,338.76Z" transform="translate(-39.5 -161.23)" style="fill:#88a84c"/><path d="M539.94,431.23c0,4.16-110.85,7.54-247.59,7.54s-247.58-3.38-247.58-7.54,110.84-7.53,247.58-7.53S539.94,427.07,539.94,431.23Z" transform="translate(-39.5 -161.23)" style="fill:#1d1d1b;opacity:0.10000000149011612;isolation:isolate"/><path d="M359.73,304.09h-4a9.48,9.48,0,0,0-9.46,9.46V351.7h13.48Z" transform="translate(-39.5 -161.23)" style="fill:#a7cb64"/><path d="M374.09,354.27v45.21H58.24a18.28,18.28,0,0,1-6.74-1.26,18.7,18.7,0,0,1-12-17.46V359.67c0-6.22,5.07-5.4,11.28-5.4Z" transform="translate(-39.5 -161.23)" style="fill:#a7cb64"/><path d="M534.81,380.32a19.12,19.12,0,0,1-19.08,19.14H378.84a18.59,18.59,0,0,1-4.75-.61,19.06,19.06,0,0,1-14.35-18.49v-195c0-10.55,8.55-7.52,19.1-7.52H496.41a19.09,19.09,0,0,1,18.74,15.44l15.52,79.48a217,217,0,0,1,4.06,41.39l.06,57Z" transform="translate(-39.5 -161.23)" style="fill:#a7cb64"/><path d="M452.81,399.46h-74a18.59,18.59,0,0,1-4.75-.61v.63H359.74V348.64h59.67q1.26,0,2.52.12c.84.09,1.66.19,2.48.32s1.62.34,2.42.53c.39.1.77.23,1.17.33.78.25,1.53.53,2.29.82a27.6,27.6,0,0,1,5.27,2.77.58.58,0,0,0,.15.11l.88.63,1,.73a21.15,21.15,0,0,1,1.83,1.58c.33.31.67.65,1,1l.69.73a29.1,29.1,0,0,1,6.72,12.92c.13.51.21,1,.3,1.52L451,389.29Z" transform="translate(-39.5 -161.23)" style="fill:#1d1715"/><path d="M162.13,399.48H147.82L146.14,390l-2.91-16.56c-.09-.44-.17-.88-.26-1.32a24.79,24.79,0,0,0-15.92-17.88,25.83,25.83,0,0,0-8.36-1.41H92.89a22.81,22.81,0,0,0-22.37,18.81L67.3,390l-1.68,9.47H58.24a18.28,18.28,0,0,1-6.74-1.26l1.72-9.68,3.41-19.33a36.84,36.84,0,0,1,36.26-30.45h25.8a39,39,0,0,1,31.09,15.51A38.55,38.55,0,0,1,157,370.43v.21a5.86,5.86,0,0,0,.1.58l2.9,16.31h0l.19,1Z" transform="translate(-39.5 -161.23)" style="fill:#88a84c"/><path d="M268.75,399.48H254.44L252.77,390l-2.93-16.56c-.1-.5-.16-.92-.25-1.32a24.81,24.81,0,0,0-15.92-17.88,25.83,25.83,0,0,0-8.36-1.41h-25.8a23,23,0,0,0-7.88,1.41,22.66,22.66,0,0,0-14.48,17.37L173.92,390l-1.68,9.47H157.89l2-10.94.17-1h0l3.23-18.32a36.86,36.86,0,0,1,36.27-30.45h25.8a39,39,0,0,1,31.09,15.51,38.47,38.47,0,0,1,7.23,16.16l3.19,18.13Z" transform="translate(-39.5 -161.23)" style="fill:#88a84c"/><path d="M92.9,348.66h25.79a29.14,29.14,0,0,1,28.68,24.07l4.72,26.76H61.15l.33-.8,4.9-27.78A26.93,26.93,0,0,1,92.9,348.66Z" transform="translate(-39.5 -161.23)" style="fill:#1d1715"/><path d="M156.06,389.28,153,371.75a4.51,4.51,0,0,0-.09-.53A34.82,34.82,0,0,0,118.69,343H92.9a32.61,32.61,0,0,0-32.14,27l-.23,1.28-3.16,18.06-1.83,10.19h5.8l.13-.78,1.68-9.41,3.19-18.06V371A26.94,26.94,0,0,1,92.9,348.66h25.79a29.11,29.11,0,0,1,28.37,22.56c.12.51.21,1,.3,1.52l2.91,16.54,1.82,10.19h5.78Z" transform="translate(-39.5 -161.23)" style="fill:#a7cb64"/><path d="M199.52,348.66h25.79A29.13,29.13,0,0,1,254,372.73l4.72,26.76h-91l.33-.8,4.9-27.78A26.93,26.93,0,0,1,199.52,348.66Z" transform="translate(-39.5 -161.23)" style="fill:#1d1715"/><path d="M262.68,389.28l-3.08-17.53a4.51,4.51,0,0,0-.09-.53A34.81,34.81,0,0,0,225.31,343H199.52a32.61,32.61,0,0,0-32.14,27l-.23,1.28-3.15,18-1.83,10.19H168l.14-.78,1.67-9.41L173,371.22v-.3a26.93,26.93,0,0,1,26.51-22.26H225.3a29.11,29.11,0,0,1,28.37,22.56c.12.51.21,1,.3,1.52l2.91,16.54,1.82,10.19h5.78Z" transform="translate(-39.5 -161.23)" style="fill:#a7cb64"/><path d="M512.2,186.3h20.57A25.1,25.1,0,0,1,551,194.08c4.76,5,5.83,11.47,5.52,17.94l-1.06,31.41h-3.32l-1.19-32c-.63-7.75-8.06-14.87-15.83-14.87l-19,1.6Z" transform="translate(-39.5 -161.23)" style="fill:#88a84c"/><path d="M560.47,238.31a7.22,7.22,0,0,1-6.85,7.57h-.1a1.69,1.69,0,0,1-1.78-1.6h0L550.47,212a1.71,1.71,0,0,1,1.62-1.8h.48a6.84,6.84,0,0,1,7.16,6.48Z" transform="translate(-39.5 -161.23)" style="fill:#a7cb64"/><path d="M494.85,161.23H378.56a18.83,18.83,0,0,0-18.83,18.83v6.24h154.6v-5.58A19.49,19.49,0,0,0,494.85,161.23Z" transform="translate(-39.5 -161.23)" style="fill:#88a84c"/><path d="M534.67,307.07H516.11a5.83,5.83,0,0,1-5.83-5.83v-95a5.83,5.83,0,0,1,5.83-5.83h.43C523.27,220.87,534.67,273.27,534.67,307.07Z" transform="translate(-39.5 -161.23)" style="fill:#403430"/><path d="M534.67,307.07H516.11a5.83,5.83,0,0,1-5.83-5.83v-95a5.83,5.83,0,0,1,5.83-5.83h.43l-.46-2.29a8.14,8.14,0,0,0-8.1,8.12v95a8.14,8.14,0,0,0,8.13,8.13h18.72V308Z" transform="translate(-39.5 -161.23)" style="fill:#403430"/><path d="M534.83,321.72c2.35,6.69,1.64,12.64,0,18.36h-6.72a8.26,8.26,0,0,1-8.24-8.25v-1.9a8.23,8.23,0,0,1,8.24-8.21Z" transform="translate(-39.5 -161.23)" style="fill:#f9b659"/><path d="M528.11,320.57a9.4,9.4,0,0,0-9.39,9.36v1.9a9.43,9.43,0,0,0,9.39,9.4h6.72v-2.3h-6.72a7.11,7.11,0,0,1-7.1-7.1v-1.9a7.1,7.1,0,0,1,7.1-7.07h6.72v-2.29Z" transform="translate(-39.5 -161.23)" style="fill:#5e4a4c"/><path d="M534.83,354.28a10.39,10.39,0,0,1,0,9.75H527.3a4.81,4.81,0,0,1-4.81-4.81h0v-.11a4.81,4.81,0,0,1,4.8-4.82h7.54Z" transform="translate(-39.5 -161.23)" style="fill:#dad1d1"/><path d="M453.6,371.22A34.76,34.76,0,0,0,419.4,343H359.73v5.69H419.4a29.17,29.17,0,0,1,28.4,22.56c.11.51.2,1,.29,1.52L451,389.28l1.79,10.19H521.4c10,0,20.22-3.68,20.22-10.19V377.07a5.85,5.85,0,0,0-5.85-5.85Z" transform="translate(-39.5 -161.23)" style="fill:#88a84c"/><path d="M452.66,350.11a14.09,14.09,0,0,0,11.67,6.16h23.56a10.85,10.85,0,0,0,10.85-10.85h0V213.09A12.79,12.79,0,0,0,486,200.28H429.63a12.82,12.82,0,0,0-12.82,12.8h0V319.34A16.69,16.69,0,0,0,430,335.64C437.48,337.28,446.59,341.15,452.66,350.11Z" transform="translate(-39.5 -161.23)" style="fill:#88a84c"/><path d="M529.53,272l-11.76,32.78h-1.66a3.56,3.56,0,0,1-3.54-3.54V260.6l9.69-29.24C525.7,246.91,529.53,272,529.53,272Z" transform="translate(-39.5 -161.23)" style="fill:#5b514e"/><path d="M521.06,226.12,512.57,252V231.33l5.58-17.1C519.11,217.86,520.1,221.86,521.06,226.12Z" transform="translate(-39.5 -161.23)" style="fill:#5b514e"/><path d="M485.34,280.67l-51.52-9.33A15.59,15.59,0,0,1,421,256V213.09a8.62,8.62,0,0,1,8.62-8.61h56.3a8.6,8.6,0,0,1,8.61,8.59V273a7.82,7.82,0,0,1-7.85,7.79,7.5,7.5,0,0,1-1.34-.12Z" transform="translate(-39.5 -161.23)" style="fill:#403430"/><path d="M486.75,281.84a8.58,8.58,0,0,1-1.6-.14l-51.52-9.32A16.63,16.63,0,0,1,420,256V213.09a9.69,9.69,0,0,1,9.67-9.66H486a9.68,9.68,0,0,1,9.66,9.66V273a8.85,8.85,0,0,1-8.86,8.84Zm-57.12-76.31a7.57,7.57,0,0,0-7.57,7.56V256A14.52,14.52,0,0,0,434,270.31l51.52,9.32a6.73,6.73,0,0,0,7.88-5.34v0a7,7,0,0,0,.12-1.29V213.09a7.58,7.58,0,0,0-7.56-7.56Z" transform="translate(-39.5 -161.23)" style="fill:#614f49"/><rect x="233.75" y="178.85" width="86.48" height="41.92" rx="8.66" style="fill:#88a84c"/><rect x="320.24" y="25.07" width="36.41" height="156.67" style="fill:#88a84c"/><path d="M440.27,280.77a2.51,2.51,0,0,1-2.49,2.49h-9.2a2.51,2.51,0,0,1-2.49-2.49h0a2.5,2.5,0,0,1,2.49-2.5h9.2A2.5,2.5,0,0,1,440.27,280.77Z" transform="translate(-39.5 -161.23)" style="fill:#fff"/><path d="M487.88,206.87l-22.86,68L438.15,270l21-63.4h26.76A6.56,6.56,0,0,1,487.88,206.87Z" transform="translate(-39.5 -161.23)" style="fill:#5b514e"/><path d="M456.13,206.58,435.44,269.5l-1.24-.23a13.29,13.29,0,0,1-5.23-2.15l19.79-60.54Z" transform="translate(-39.5 -161.23)" style="fill:#5b514e"/><path d="M385.85,196.07a2.28,2.28,0,0,1-2.27,2.28H368.32a2.28,2.28,0,0,1-2.28-2.28h0a2.29,2.29,0,0,1,2.28-2.28h15.26A2.28,2.28,0,0,1,385.85,196.07Z" transform="translate(-39.5 -161.23)" style="fill:#a7cb64"/><path d="M385.85,204.48a2.27,2.27,0,0,1-2.27,2.27H368.32a2.27,2.27,0,0,1-2.28-2.26h0a2.28,2.28,0,0,1,2.28-2.28h15.26A2.29,2.29,0,0,1,385.85,204.48Z" transform="translate(-39.5 -161.23)" style="fill:#a7cb64"/><path d="M385.85,212.88a2.28,2.28,0,0,1-2.27,2.28H368.32a2.28,2.28,0,0,1-2.28-2.28h0a2.28,2.28,0,0,1,2.28-2.27h15.26A2.27,2.27,0,0,1,385.85,212.88Z" transform="translate(-39.5 -161.23)" style="fill:#a7cb64"/><path d="M385.85,221.29a2.27,2.27,0,0,1-2.27,2.27H368.32a2.28,2.28,0,0,1-2.32-2.22v0h0a2.27,2.27,0,0,1,2.27-2.27h15.27a2.28,2.28,0,0,1,2.31,2.23Z" transform="translate(-39.5 -161.23)" style="fill:#a7cb64"/><path d="M385.85,229.7a2.27,2.27,0,0,1-2.27,2.27H368.32a2.28,2.28,0,0,1-2.32-2.24h0a2.28,2.28,0,0,1,2.28-2.28h15.26a2.28,2.28,0,0,1,2.27,2.28Z" transform="translate(-39.5 -161.23)" style="fill:#a7cb64"/><path d="M385.85,238.1a2.28,2.28,0,0,1-2.27,2.28H368.32a2.28,2.28,0,0,1-2.32-2.24h0a2.27,2.27,0,0,1,2.27-2.27h15.27a2.27,2.27,0,0,1,2.27,2.27Z" transform="translate(-39.5 -161.23)" style="fill:#a7cb64"/><path d="M385.85,246.51a2.27,2.27,0,0,1-2.27,2.27H368.32a2.28,2.28,0,0,1-2.28-2.27h0a2.28,2.28,0,0,1,2.28-2.28h15.26A2.28,2.28,0,0,1,385.85,246.51Z" transform="translate(-39.5 -161.23)" style="fill:#a7cb64"/><path d="M535.78,371.22h-1V367l-363-15.6a35.68,35.68,0,0,0-2.3,2.9h-19.7a37.87,37.87,0,0,0-3.49-4L69.72,347a37,37,0,0,0-6.85,7.29H50.8c-6.21,0-11.28-.82-11.28,5.4v21.09a18.7,18.7,0,0,0,12,17.46,18,18,0,0,0,4.08,1v.2H374.09v-.63a18.59,18.59,0,0,0,4.75.61H521.41c10,0,20.22-3.68,20.22-10.19V377.07A5.85,5.85,0,0,0,535.78,371.22Z" transform="translate(-39.5 -161.23)" style="opacity:0.10000000149011612;isolation:isolate"/><path d="M384.66,391.63A18.38,18.38,0,1,0,403,373.25h0A18.37,18.37,0,0,0,384.66,391.63Z" transform="translate(-39.5 -161.23)" style="fill:#362a2b"/><path d="M363.43,391.66A39.61,39.61,0,1,0,403,352a39.6,39.6,0,0,0-39.57,39.66Zm15.23,0A24.38,24.38,0,1,1,403.08,416h0a24.37,24.37,0,0,1-24.4-24.34h0Z" transform="translate(-39.5 -161.23)" style="fill:#1d1715"/><path d="M378.73,391.65A24.31,24.31,0,1,0,403,367.32h0a24.3,24.3,0,0,0-24.27,24.33Zm2.64,0a21.64,21.64,0,1,1,0,.06v-.07Z" transform="translate(-39.5 -161.23)" style="fill:#dadada"/><path d="M388.14,391.64A14.9,14.9,0,1,0,403,376.73h0A14.91,14.91,0,0,0,388.14,391.64Zm5.53,0a9.37,9.37,0,1,1,9.38,9.36A9.38,9.38,0,0,1,393.67,391.64Z" transform="translate(-39.5 -161.23)" style="fill:#ededed"/><path d="M393.67,391.64a9.37,9.37,0,1,0,9.36-9.38A9.38,9.38,0,0,0,393.67,391.64Zm5.78-3.59a1.34,1.34,0,0,1-1.89-1.89,1.32,1.32,0,0,1,1.87,0h0a1.34,1.34,0,0,1,0,1.89Zm4.36-2.18a.78.78,0,1,1-.79-.77h0a.76.76,0,0,1,.78.74v0Zm4.71,2.17a1.34,1.34,0,1,1,0-1.9h0a1.35,1.35,0,0,1,0,1.85Zm.28,4.37a.78.78,0,0,1-.78-.78.76.76,0,0,1,.74-.78h0a.78.78,0,0,1,0,1.56h0Zm-2.17,2.8a1.34,1.34,0,1,1,0,1.9,1.33,1.33,0,0,1,0-1.88h0Zm-4.36,2.17a.76.76,0,0,1,.74-.78h0a.78.78,0,0,1,0,1.56h0a.76.76,0,0,1-.77-.75v0Zm-2.79-5.75a3.56,3.56,0,1,1,3.56,3.56h0a3.55,3.55,0,0,1-3.56-3.54h0Zm-1.92,3.59a1.34,1.34,0,1,1,0,1.9h0a1.64,1.64,0,0,1,0-1.89Zm-1.06-3.58a.78.78,0,1,1,.79.77h0a.76.76,0,0,1-.78-.74v0Z" transform="translate(-39.5 -161.23)" style="fill:#c6c6c6"/><path d="M381.37,391.64A21.67,21.67,0,1,0,403.07,370H403A21.68,21.68,0,0,0,381.37,391.64Zm7.88-8a2.42,2.42,0,1,1-1.36-3.14h0l.3.14a2.23,2.23,0,0,1,1.11,2.95l0,.05v.08ZM403,376.73a14.9,14.9,0,1,1-14.88,14.92h0A14.92,14.92,0,0,1,403,376.73Zm-7.94,1.13a2.43,2.43,0,1,1,.35-3.42,2.27,2.27,0,0,1,.22.32,2.25,2.25,0,0,1-.55,3.1Zm10-4.53a2.08,2.08,0,1,1-2.05-2.4,2.23,2.23,0,0,1,2.06,2.39h0Zm8.88,3.46a2.07,2.07,0,1,1-.58-3.09,2.25,2.25,0,0,1,.64,3.09Zm6,7.45a2.08,2.08,0,1,1,1-3,2.25,2.25,0,0,1-1,3Zm1.43,9.42a2.07,2.07,0,1,1,2.4-2.05,2.22,2.22,0,0,1-2.38,2.05h0Zm-4.51,5.91a2.42,2.42,0,1,1,1.31,3.16,2,2,0,0,1-.57-.33A2.43,2.43,0,0,1,416.86,399.57ZM411,405.4a2.42,2.42,0,1,1-.37,3.4h0a1.61,1.61,0,0,1-.21-.3A2.24,2.24,0,0,1,411,405.4Zm-10,4.54a2.07,2.07,0,1,1,2.05,2.38A2.23,2.23,0,0,1,401,409.94Zm-8.88-3.48a2.08,2.08,0,1,1,.57,3.1,2.25,2.25,0,0,1-.56-3.1Zm-6-7.44a2.07,2.07,0,1,1-1.05,3,2.25,2.25,0,0,1,1.06-3h0Zm-3.83-7.38a2.42,2.42,0,1,1,2.78,2h-.38a2.24,2.24,0,0,1-2.35-2.05Z" transform="translate(-39.5 -161.23)" style="fill:#c6c6c6"/><path d="M88.34,391.63a18.38,18.38,0,1,0,18.38-18.38,18.38,18.38,0,0,0-18.38,18.38Z" transform="translate(-39.5 -161.23)" style="fill:#362a2b"/><path d="M67.11,391.66A39.61,39.61,0,1,0,106.68,352a39.6,39.6,0,0,0-39.57,39.66Zm15.22,0A24.38,24.38,0,1,1,106.75,416h0a24.39,24.39,0,0,1-24.41-24.35h0Z" transform="translate(-39.5 -161.23)" style="fill:#1d1715"/><path d="M82.41,391.65a24.31,24.31,0,1,0,24.29-24.33h0a24.3,24.3,0,0,0-24.28,24.32h0Zm2.63,0a16.89,16.89,0,1,1,0,.11v-.12Z" transform="translate(-39.5 -161.23)" style="fill:#dadada"/><path d="M91.82,391.64a14.9,14.9,0,1,0,14.89-14.91h0A14.93,14.93,0,0,0,91.82,391.64Zm5.53,0a9.37,9.37,0,1,1,9.38,9.36h0A9.38,9.38,0,0,1,97.35,391.64Z" transform="translate(-39.5 -161.23)" style="fill:#ededed"/><path d="M97.35,391.64a9.37,9.37,0,1,0,9.36-9.38A9.38,9.38,0,0,0,97.35,391.64Zm5.78-3.59a1.34,1.34,0,1,1,0-1.91,1.34,1.34,0,0,1,0,1.91Zm4.36-2.18a.78.78,0,1,1-1.56,0h0a.78.78,0,0,1,1.56,0Zm4.7,2.17a1.34,1.34,0,1,1,0-1.9h0c.33.47.13,1.24,0,1.85Zm.28,4.37a.78.78,0,0,1,0-1.56.76.76,0,0,1,.78.74v0h0a.79.79,0,0,1-.78.78Zm-2.17,2.8a1.34,1.34,0,1,1,0,1.9c-1,0-1.79,0-1.79-.95a1.79,1.79,0,0,1,1.79-1.79h0v.84Zm-4.36,2.17a.78.78,0,1,1,.78.78h0A.78.78,0,0,1,105.94,397.38Zm-2.78-5.75a3.56,3.56,0,1,1,3.56,3.56h0a3.55,3.55,0,0,1-3.56-3.54h0Zm-1.92,3.59a1.34,1.34,0,0,1,1.91,1.88h0a1.34,1.34,0,0,1-1.9-1.89Zm-1.06-3.58a.78.78,0,1,1,.79.77h0a.76.76,0,0,1-.78-.74v0Z" transform="translate(-39.5 -161.23)" style="fill:#c6c6c6"/><path d="M85,391.64A21.68,21.68,0,1,0,106.72,370h0A21.69,21.69,0,0,0,85,391.64Zm7.89-8a2.42,2.42,0,1,1-1.36-3.14h0l.3.14a2.24,2.24,0,0,1,1.14,3v.11Zm13.77-6.95a14.9,14.9,0,1,1-14.88,14.92h0a14.9,14.9,0,0,1,14.92-14.87Zm-8,1.13A2.43,2.43,0,1,1,99,374.4a2.53,2.53,0,0,1-.26,3.46Zm10-4.53a2.08,2.08,0,1,1-2-2.4,2.25,2.25,0,0,1,2.09,2.38v.06Zm8.88,3.46a2.07,2.07,0,1,1-.58-3.09,2.25,2.25,0,0,1,.68,3.11h0Zm6,7.45a2.08,2.08,0,1,1,1-3,2.25,2.25,0,0,1-1,3Zm1.44,9.42a2.07,2.07,0,1,1,2.39-2.05,2.24,2.24,0,0,1-2.37,2.09Zm-4.52,5.91a2.42,2.42,0,1,1,1.36,3.14,2.3,2.3,0,0,1-.61-.35,2.42,2.42,0,0,1-.75-2.79Zm-5.82,5.83a2.43,2.43,0,1,1-.35,3.42,2.38,2.38,0,0,1,.33-3.34l.06,0Zm-10,4.54a2.07,2.07,0,1,1,2,2.38,2.24,2.24,0,0,1-2-2.34Zm-8.88-3.48a2.07,2.07,0,1,1,.58,3.1,2.24,2.24,0,0,1-.54-3.06Zm-6-7.44a2.07,2.07,0,1,1-1,3,2.24,2.24,0,0,1,1.08-3h-.08ZM86,391.64a2.42,2.42,0,1,1,2.78,2h-.39A2.23,2.23,0,0,1,86,391.64Z" transform="translate(-39.5 -161.23)" style="fill:#c6c6c6"/><path d="M195,391.63a18.38,18.38,0,1,0,18.38-18.38A18.38,18.38,0,0,0,195,391.63Z" transform="translate(-39.5 -161.23)" style="fill:#362a2b"/><path d="M173.73,391.66A39.61,39.61,0,1,0,213.3,352a39.6,39.6,0,0,0-39.57,39.66v0Zm15.22,0A24.39,24.39,0,1,1,213.39,416h0A24.39,24.39,0,0,1,189,391.65Z" transform="translate(-39.5 -161.23)" style="fill:#1d1715"/><path d="M189,391.65a24.31,24.31,0,1,0,24.29-24.33h0A24.3,24.3,0,0,0,189,391.63h0Zm2.63,0a21.68,21.68,0,1,1,21.7,21.67,21.68,21.68,0,0,1-21.7-21.67Z" transform="translate(-39.5 -161.23)" style="fill:#dadada"/><path d="M198.44,391.64a14.9,14.9,0,1,0,14.89-14.91,14.9,14.9,0,0,0-14.89,14.91Zm5.53,0a9.37,9.37,0,1,1,9.38,9.36A9.38,9.38,0,0,1,204,391.64Z" transform="translate(-39.5 -161.23)" style="fill:#ededed"/><path d="M204,391.64a9.37,9.37,0,1,0,9.36-9.38A9.38,9.38,0,0,0,204,391.64Zm5.78-3.59a1.34,1.34,0,1,1,0-1.91,1.34,1.34,0,0,1,0,1.91Zm4.36-2.18a.78.78,0,1,1-1.56,0h0a.78.78,0,0,1,1.56,0Zm4.7,2.17a1.34,1.34,0,0,1-1.89,0,1.32,1.32,0,0,1,0-1.87h0a1.34,1.34,0,0,1,1.89,1.89Zm.28,4.37a.78.78,0,1,1,0-1.56h0a.76.76,0,0,1,.78.74v0h0a.79.79,0,0,1-.8.78h0Zm-2.17,2.8a1.34,1.34,0,1,1,0,1.9,1.35,1.35,0,0,1,0-1.9Zm-4.36,2.17a.78.78,0,1,1,.78.78h0a.78.78,0,0,1-.81-.75h0Zm-2.78-5.75a3.56,3.56,0,1,1,3.56,3.56h0a3.55,3.55,0,0,1-3.59-3.51h0v-.05Zm-1.92,3.59a1.34,1.34,0,1,1,0,1.9h0a1.34,1.34,0,0,1,0-1.89Zm-1.06-3.58a.78.78,0,1,1,.79.77h0a.77.77,0,0,1-.81-.73h0Z" transform="translate(-39.5 -161.23)" style="fill:#c6c6c6"/><path d="M191.66,391.64A21.68,21.68,0,1,0,213.38,370h-.06A21.69,21.69,0,0,0,191.66,391.64Zm7.89-8a2.42,2.42,0,1,1-1.36-3.14h0l.3.14a2.24,2.24,0,0,1,1.08,3h0v.06Zm13.78-6.95a14.9,14.9,0,1,1-14.89,14.91,14.9,14.9,0,0,1,14.89-14.91Zm-8,1.13a2.43,2.43,0,1,1,.35-3.42,2.5,2.5,0,0,1-.29,3.45h0Zm10-4.53a2.08,2.08,0,1,1-2.05-2.4,2.25,2.25,0,0,1,2.09,2.38v.06Zm8.88,3.46a2.07,2.07,0,1,1-.58-3.09,2.24,2.24,0,0,1,.63,3.12h0Zm6,7.45a2.08,2.08,0,1,1,1-3,2.27,2.27,0,0,1-1,3Zm1.43,9.42a2.07,2.07,0,1,1,2.4-2.05,2.22,2.22,0,0,1-2.34,2.09h0Zm-4.52,5.91a2.42,2.42,0,1,1,1.36,3.14,2.3,2.3,0,0,1-.61-.35,2.42,2.42,0,0,1-.75-2.79Zm-5.82,5.83a2.43,2.43,0,1,1-.35,3.42,2.27,2.27,0,0,1-.22-.32,2.25,2.25,0,0,1,.57-3.06Zm-10,4.54a2.07,2.07,0,1,1,2,2.38,2.24,2.24,0,0,1-2-2.34Zm-8.88-3.48a2.07,2.07,0,1,1,.58,3.1,2.25,2.25,0,0,1-.58-3.06ZM196.47,399a2.07,2.07,0,1,1-1.05,3,2.23,2.23,0,0,1,1-3Zm-3.83-7.38a2.42,2.42,0,1,1,2.78,2H195A2.24,2.24,0,0,1,192.64,391.62Z" transform="translate(-39.5 -161.23)" style="fill:#c6c6c6"/></svg>