<svg id="Layer_1" data-name="Layer 1" xmlns="http://www.w3.org/2000/svg" viewBox="0 0 596.46 290.52"><title>0-01</title><rect y="97.06" width="40.31" height="109.04" rx="8.77" style="fill:#88a84c"/><path d="M-1063.74,69.22H-1073a5.21,5.21,0,0,1-5.18-5.19V26.47a5.2,5.2,0,0,1,5.18-5.19h9.25Z" transform="translate(1104.04 106.33)" style="fill:#c44645"/><path d="M-541.88,45.25c0,11.84,7,21.44,15.54,21.44s15.53-9.6,15.53-21.44-7-21.44-15.54-21.44S-541.88,33.41-541.88,45.25Z" transform="translate(1104.04 106.33)" style="fill:#ffcb82"/><rect x="189.27" y="134.2" width="6.87" height="47.93" style="fill:#614f49"/><path d="M-1071.81,6.1v116h549L-524,23.67a12.19,12.19,0,0,0-.2-2.34A15.25,15.25,0,0,0-538.09,8.6l-136-10.09-2.09-.13-.73-4.11-14.3-76.89a28.66,28.66,0,0,0-1.73-5.82,29,29,0,0,0-26.76-17.87h-292a39.82,39.82,0,0,0-33.21,17.85,39.23,39.23,0,0,0-5.28,11.81l-19.62,75.07Z" transform="translate(1104.04 106.33)" style="fill:#a7cb64"/><path d="M-807.61-80.71h103A5.68,5.68,0,0,1-699-76.06l15.21,82.37a4.71,4.71,0,0,1,.1,1V97.62a5.69,5.69,0,0,1-5.69,5.69H-807.61a5.69,5.69,0,0,1-5.68-5.68h0V-75a5.68,5.68,0,0,1,5.67-5.69h0Z" transform="translate(1104.04 106.33)" style="fill:#88a84c"/><path d="M-807.93,1.49V-75a.32.32,0,0,1,.31-.33h103a.3.3,0,0,1,.32.26l14.18,76.58Z" transform="translate(1104.04 106.33)" style="fill:#403430"/><rect x="32.18" y="214.37" width="549.09" height="14.02" style="fill:#88a84c"/><path d="M-680.19,122.06c0-.6-.09-1.18-.09-1.78A61.67,61.67,0,0,1-617.83,59.4a61.66,61.66,0,0,1,60.88,60.88c0,.6-.08,1.18-.09,1.78Z" transform="translate(1104.04 106.33)" style="fill:#3e312c"/><path d="M-1032.37,122.06c0-.6-.08-1.18-.08-1.78a61.67,61.67,0,0,1,61.64-61.69,61.66,61.66,0,0,1,61.68,61.64v0h0c0,.6-.08,1.18-.09,1.78Z" transform="translate(1104.04 106.33)" style="fill:#3e312c"/><rect x="300.83" y="117.96" width="24.81" height="8.83" rx="4.3" style="fill:#fff"/><rect x="70.3" y="121.57" width="36.26" height="27.19" rx="9.58" style="fill:#6b892b"/><path d="M-674-1.51v.23A22.57,22.57,0,0,0-651.49,21.3h127.28A15.21,15.21,0,0,0-538.07,8.58Z" transform="translate(1104.04 106.33)" style="fill:#88a84c"/><path d="M-1044.91-88.46h352a29,29,0,0,0-26.76-17.87h-292A39.83,39.83,0,0,0-1044.91-88.46Z" transform="translate(1104.04 106.33)" style="fill:#88a84c"/><path d="M-956.11,6l20.75-81.54a6.84,6.84,0,0,1,6.64-5.16h100.83A6.83,6.83,0,0,1-821-73.87h0V96.49a6.87,6.87,0,0,1-6.86,6.85h-68.76a7,7,0,0,1-6.71-5.52c-4.31-19.55-26.39-40.3-47.11-43.76a6.9,6.9,0,0,1-5.85-6.77V7.68A6.8,6.8,0,0,1-956.11,6Z" transform="translate(1104.04 106.33)" style="fill:#88a84c"/><path d="M-949.44,1.49l19.27-75.72a1.51,1.51,0,0,1,1.45-1.12h100.83a1.48,1.48,0,0,1,1.49,1.49V1.49Z" transform="translate(1104.04 106.33)" style="fill:#403430"/><rect x="155.27" y="117.96" width="24.81" height="8.83" rx="4.3" style="fill:#fff"/><polygon points="335.23 33.36 389.97 105.44 361.95 105.44 306.75 33.36 335.23 33.36" style="fill:#5b514e"/><polygon points="345.51 33.36 399.89 105.44 392.75 105.44 338.24 33.36 345.51 33.36" style="fill:#5b514e"/><polygon points="208.56 33.36 263.3 105.44 235.28 105.44 180.08 33.36 208.56 33.36" style="fill:#5b514e"/><polygon points="218.84 33.36 273.22 105.44 266.08 105.44 211.56 33.36 218.84 33.36" style="fill:#5b514e"/><path d="M-1011.15-73a2.68,2.68,0,0,0,2.68,2.68h32.16A2.71,2.71,0,0,0-973.62-73h0a2.7,2.7,0,0,0-2.69-2.68h-32.16A2.67,2.67,0,0,0-1011.15-73Z" transform="translate(1104.04 106.33)" style="fill:#6b892b"/><path d="M-1013.38-63.87a2.68,2.68,0,0,0,2.68,2.68h32.16a2.68,2.68,0,0,0,2.73-2.63h0v0h0a2.67,2.67,0,0,0-2.68-2.68h-32.21a2.67,2.67,0,0,0-2.68,2.68Z" transform="translate(1104.04 106.33)" style="fill:#6b892b"/><path d="M-1015.61-54.77a2.69,2.69,0,0,0,2.66,2.7h32.14a2.68,2.68,0,0,0,2.68-2.68h0a2.67,2.67,0,0,0-2.68-2.68h-32.12a2.67,2.67,0,0,0-2.68,2.68Z" transform="translate(1104.04 106.33)" style="fill:#6b892b"/><path d="M-1017.81-45.67a2.68,2.68,0,0,0,2.68,2.68H-983a2.68,2.68,0,0,0,2.68-2.68h0A2.67,2.67,0,0,0-983-48.35h-32.19A2.67,2.67,0,0,0-1017.81-45.67Z" transform="translate(1104.04 106.33)" style="fill:#6b892b"/><path d="M-1020.08-36.57a2.71,2.71,0,0,0,2.69,2.68h32.16a2.68,2.68,0,0,0,2.68-2.68h0a2.67,2.67,0,0,0-2.68-2.68h-32.16A2.7,2.7,0,0,0-1020.08-36.57Z" transform="translate(1104.04 106.33)" style="fill:#6b892b"/><path d="M-1022.31-27.47a2.68,2.68,0,0,0,2.68,2.68h32.17a2.69,2.69,0,0,0,2.65-2.68h0a2.67,2.67,0,0,0-2.68-2.68h-32.13a2.67,2.67,0,0,0-2.69,2.67h0Z" transform="translate(1104.04 106.33)" style="fill:#6b892b"/><path d="M-1024.54-18.37a2.68,2.68,0,0,0,2.68,2.68h32.27a2.68,2.68,0,0,0,2.68-2.68h0A2.67,2.67,0,0,0-989.59-21h-32.22a2.67,2.67,0,0,0-2.68,2.68Z" transform="translate(1104.04 106.33)" style="fill:#6b892b"/><path d="M-647.81,119.16a29.22,29.22,0,0,0,29.23,29.17,29.2,29.2,0,0,0,29.17-29.23,29.19,29.19,0,0,0-29.21-29.17,29.2,29.2,0,0,0-29.19,29.21Z" transform="translate(1104.04 106.33)" style="fill:#1d1715"/><path d="M-633.5,119.17A14.88,14.88,0,0,0-618.61,134a14.87,14.87,0,0,0,14.87-14.89,14.87,14.87,0,0,0-14.89-14.86,14.88,14.88,0,0,0-14.87,14.88Zm9.18-5.7a2.13,2.13,0,0,1-3,0,2.13,2.13,0,0,1,0-3,2.12,2.12,0,0,1,3,0v0h0A2.14,2.14,0,0,1-624.32,113.47Zm6.93-3.46a1.24,1.24,0,0,1-1.24,1.24,1.25,1.25,0,0,1-1.24-1.24,1.24,1.24,0,0,1,1.24-1.24h0A1.23,1.23,0,0,1-617.4,110h0Zm7.47,3.44a2.13,2.13,0,0,1-3,0,2.13,2.13,0,0,1,0-3,2.12,2.12,0,0,1,3,0v0h0A2.19,2.19,0,0,1-609.92,113.45Zm.45,6.94A1.26,1.26,0,0,1-610.6,119a1.25,1.25,0,0,1,1.35-1.14,1.26,1.26,0,0,1,1.14,1.36,1.27,1.27,0,0,1-1.14,1.14A.81.81,0,0,1-609.47,120.39Zm-3.45,4.45a2.13,2.13,0,0,1,3,0,2.14,2.14,0,0,1,0,3,2.13,2.13,0,0,1-3,0h0A2.3,2.3,0,0,1-612.92,124.84Zm-6.89,3.46a1.24,1.24,0,0,1,1.24-1.24,1.23,1.23,0,0,1,1.24,1.23,1.24,1.24,0,0,1-1.24,1.25h0a1.24,1.24,0,0,1-1.23-1.23h0Zm-4.43-9.14a5.66,5.66,0,0,1,5.64-5.68,5.65,5.65,0,0,1,5.68,5.64,5.67,5.67,0,0,1-5.64,5.68h0a5.66,5.66,0,0,1-5.69-5.61h0Zm-3,5.7a1.52,1.52,0,0,1,1.49,1.57,1.53,1.53,0,0,1-1.58,1.48,1.52,1.52,0,0,1-1.48-1.57,1.52,1.52,0,0,1,1.48-1.48h.09Zm-1.69-5.7a1.25,1.25,0,0,1,1.24-1.24,1.23,1.23,0,0,1,1.24,1.24,1.24,1.24,0,0,1-1.24,1.24,1.25,1.25,0,0,1-1.24-1.24Z" transform="translate(1104.04 106.33)" style="fill:#dad1d1"/><path d="M-1000,119.16a29.22,29.22,0,0,0,29.23,29.17,29.2,29.2,0,0,0,29.17-29.23,29.18,29.18,0,0,0-29.22-29.17A29.2,29.2,0,0,0-1000,119.15Z" transform="translate(1104.04 106.33)" style="fill:#1d1715"/><path d="M-1103.93,173.67c0,5.81,130.13,10.52,290.64,10.52s290.63-4.71,290.63-10.52-130.15-10.52-290.63-10.52S-1103.93,167.86-1103.93,173.67Z" transform="translate(1104.04 106.33)" style="fill:#1d1d1b;opacity:0.10000000149011612;isolation:isolate"/><path d="M-682.94,9.68c2.23,5.81,7.23,1.66,5-3.2l-7.31-14.73-2.43,7.36Z" transform="translate(1104.04 106.33)" style="fill:#dad1d1"/><path d="M-693.53,14.28a7.34,7.34,0,0,0,7.29-6.5l2.51-22.1c.87-8.81-6.47-9.89-6.47-9.89Z" transform="translate(1104.04 106.33)" style="fill:#88a84c"/><path d="M-523.08,99l.11,9h.16v14h-549V108h0V99.67c-.22,0-.43.07-.66.07h-22.8A8.79,8.79,0,0,1-1104,91V56.6Z" transform="translate(1104.04 106.33)" style="opacity:0.20000000298023224;isolation:isolate"/><path d="M-653,119.19a34.43,34.43,0,0,0,34.48,34.37,34.42,34.42,0,0,0,34.38-34.48,34.41,34.41,0,0,0-34.47-34.37A34.42,34.42,0,0,0-653,119.15v0Zm12.53-12.66a3.85,3.85,0,0,1-5,2.19,3.86,3.86,0,0,1-2.19-5,3.83,3.83,0,0,1,4.94-2.2,2.77,2.77,0,0,1,.55.26A3.56,3.56,0,0,1-640.51,106.53Zm21.87-11a23.65,23.65,0,0,1,23.7,23.64,23.67,23.67,0,0,1-23.64,23.7,23.68,23.68,0,0,1-23.7-23.64h0a23.66,23.66,0,0,1,23.64-23.69Zm-12.63,1.8a3.87,3.87,0,0,1-5.43-.56,3.87,3.87,0,0,1,.56-5.43,3.86,3.86,0,0,1,5.43.55h0A3.85,3.85,0,0,1-631.27,97.28Zm15.88-7.21a3.29,3.29,0,0,1-3.75,2.75,3.29,3.29,0,0,1-2.75-3.75,3.28,3.28,0,0,1,3.24-2.79A3.54,3.54,0,0,1-615.39,90.07Zm14.11,5.51a3.29,3.29,0,0,1-4.62.48,3.29,3.29,0,0,1-.49-4.63,3.28,3.28,0,0,1,4.2-.77A3.54,3.54,0,0,1-601.28,95.58Zm9.47,11.82a3.3,3.3,0,0,1-4.26-1.88,3.29,3.29,0,0,1,1.88-4.26,3.28,3.28,0,0,1,4,1.42A3.57,3.57,0,0,1-591.81,107.4Zm2.28,15a3.31,3.31,0,0,1-2.75-3.78,3.3,3.3,0,0,1,3.77-2.75,3.31,3.31,0,0,1,2.79,3.28,3.58,3.58,0,0,1-3.81,3.23Zm-7.18,9.39a3.85,3.85,0,0,1,5-2.18,3.85,3.85,0,0,1,2.18,5,3.85,3.85,0,0,1-5,2.19,5.36,5.36,0,0,1-.54-.26,3.56,3.56,0,0,1-1.66-4.74Zm-9.25,9.26a3.86,3.86,0,0,1,5.43.55,3.86,3.86,0,0,1-.56,5.44,3.87,3.87,0,0,1-5.43-.56h0A3.89,3.89,0,0,1-606,141Zm-15.85,7.18a3.31,3.31,0,0,1,3.76-2.77,3.31,3.31,0,0,1,2.77,3.76,3.31,3.31,0,0,1-3.27,2.81A3.57,3.57,0,0,1-621.81,148.23Zm-14.1-5.51a3.29,3.29,0,0,1,4.64-.51,3.29,3.29,0,0,1,.51,4.63,3.3,3.3,0,0,1-4.23.8,3.57,3.57,0,0,1-1-4.92Zm-9.5-11.79a3.29,3.29,0,0,1,4.26,1.9,3.29,3.29,0,0,1-1.9,4.26,3.31,3.31,0,0,1-4-1.43A3.57,3.57,0,0,1-645.41,130.93Zm-6.09-11.71a3.83,3.83,0,0,1,3.21-4.37,3.82,3.82,0,0,1,4.36,3.21,3.82,3.82,0,0,1-3.2,4.36,5.29,5.29,0,0,1-.56,0,3.58,3.58,0,0,1-3.81-3.29Z" transform="translate(1104.04 106.33)" style="fill:#dad1d1"/><path d="M-642.28,119.17a23.67,23.67,0,0,0,23.69,23.65,23.67,23.67,0,0,0,23.65-23.69,23.65,23.65,0,0,0-23.69-23.65h0a23.67,23.67,0,0,0-23.65,23.69Zm8.78,0a14.88,14.88,0,0,1,14.86-14.9,14.87,14.87,0,0,1,14.9,14.86A14.89,14.89,0,0,1-618.6,134a14.88,14.88,0,0,1-14.9-14.86Z" transform="translate(1104.04 106.33)" style="fill:#ededed"/><path d="M-633.5,119.17A14.88,14.88,0,0,0-618.61,134a14.87,14.87,0,0,0,14.87-14.89,14.87,14.87,0,0,0-14.89-14.86,14.88,14.88,0,0,0-14.87,14.88Zm9.18-5.7a2.13,2.13,0,0,1-3,0,2.13,2.13,0,0,1,0-3,2.12,2.12,0,0,1,3,0v0h0A2.14,2.14,0,0,1-624.32,113.47Zm6.93-3.46a1.24,1.24,0,0,1-1.24,1.24,1.25,1.25,0,0,1-1.24-1.24,1.24,1.24,0,0,1,1.24-1.24h0A1.23,1.23,0,0,1-617.4,110h0Zm7.47,3.44a2.13,2.13,0,0,1-3,0,2.13,2.13,0,0,1,0-3,2.12,2.12,0,0,1,3,0v0h0A2.19,2.19,0,0,1-609.92,113.45Zm.45,6.94A1.26,1.26,0,0,1-610.6,119a1.25,1.25,0,0,1,1.35-1.14,1.26,1.26,0,0,1,1.14,1.36,1.27,1.27,0,0,1-1.14,1.14A.81.81,0,0,1-609.47,120.39Zm-3.45,4.45a2.13,2.13,0,0,1,3,0,2.14,2.14,0,0,1,0,3,2.13,2.13,0,0,1-3,0h0A2.3,2.3,0,0,1-612.92,124.84Zm-6.89,3.46a1.24,1.24,0,0,1,1.24-1.24,1.23,1.23,0,0,1,1.24,1.23,1.24,1.24,0,0,1-1.24,1.25h0a1.24,1.24,0,0,1-1.23-1.23h0Zm-4.43-9.14a5.66,5.66,0,0,1,5.64-5.68,5.65,5.65,0,0,1,5.68,5.64,5.67,5.67,0,0,1-5.64,5.68h0a5.66,5.66,0,0,1-5.69-5.61h0Zm-3,5.7a1.52,1.52,0,0,1,1.49,1.57,1.53,1.53,0,0,1-1.58,1.48,1.52,1.52,0,0,1-1.48-1.57,1.52,1.52,0,0,1,1.48-1.48h.09Zm-1.69-5.7a1.25,1.25,0,0,1,1.24-1.24,1.23,1.23,0,0,1,1.24,1.24,1.24,1.24,0,0,1-1.24,1.24,1.25,1.25,0,0,1-1.24-1.24Z" transform="translate(1104.04 106.33)" style="fill:#c6c6c6"/><path d="M-657.23,119.19a38.63,38.63,0,0,0,38.65,38.59A38.63,38.63,0,0,0-580,119.13a38.61,38.61,0,0,0-38.65-38.59h0a38.61,38.61,0,0,0-38.57,38.65h0Zm4.19,0a34.43,34.43,0,0,1,34.39-34.47,34.42,34.42,0,0,1,34.47,34.39,34.44,34.44,0,0,1-34.39,34.47h0A34.44,34.44,0,0,1-653,119.19Z" transform="translate(1104.04 106.33)" style="fill:#dadada"/><path d="M-673.13,119.2a54.52,54.52,0,0,0,54.56,54.48,54.53,54.53,0,0,0,54.48-54.56,54.51,54.51,0,0,0-54.56-54.48h0a54.5,54.5,0,0,0-54.47,54.52v0Zm21,0a33.56,33.56,0,0,1,33.53-33.61A33.56,33.56,0,0,1-585,119.12a33.58,33.58,0,0,1-33.53,33.61h0a33.58,33.58,0,0,1-33.59-33.54Z" transform="translate(1104.04 106.33)" style="fill:#1d1715"/><path d="M-1025.32,119.2a54.52,54.52,0,0,0,54.56,54.48,54.53,54.53,0,0,0,54.48-54.56,54.51,54.51,0,0,0-54.53-54.48,54.51,54.51,0,0,0-54.51,54.53Zm21,0a33.56,33.56,0,0,1,33.53-33.61,33.56,33.56,0,0,1,33.61,33.53,33.58,33.58,0,0,1-33.53,33.61,33.57,33.57,0,0,1-33.61-33.53Z" transform="translate(1104.04 106.33)" style="fill:#1d1715"/><path d="M-1009.41,119.19a38.63,38.63,0,0,0,38.65,38.59,38.63,38.63,0,0,0,38.59-38.66,38.6,38.6,0,0,0-38.64-38.58,38.62,38.62,0,0,0-38.6,38.64Zm4.18,0A34.43,34.43,0,0,1-970.84,84.7a34.43,34.43,0,0,1,34.49,34.39,34.44,34.44,0,0,1-34.39,34.49h0A34.46,34.46,0,0,1-1005.23,119.19Z" transform="translate(1104.04 106.33)" style="fill:#fff"/><path d="M-994.46,119.17a23.67,23.67,0,0,0,23.69,23.65,23.67,23.67,0,0,0,23.65-23.69,23.65,23.65,0,0,0-23.69-23.65,23.66,23.66,0,0,0-23.65,23.68Zm8.79,0a14.88,14.88,0,0,1,14.86-14.9,14.87,14.87,0,0,1,14.9,14.86A14.89,14.89,0,0,1-970.77,134h0a14.87,14.87,0,0,1-14.86-14.86Z" transform="translate(1104.04 106.33)" style="fill:#fff"/><path d="M-985.67,119.17A14.89,14.89,0,0,0-970.78,134a14.88,14.88,0,0,0,14.87-14.89,14.87,14.87,0,0,0-14.89-14.87h0A14.88,14.88,0,0,0-985.67,119.17Zm9.17-5.7a2.13,2.13,0,0,1-3-.28,2.14,2.14,0,0,1,.27-3,2.14,2.14,0,0,1,3,.27,2.14,2.14,0,0,1,0,2.74,2.29,2.29,0,0,1-.27.27Zm6.94-3.46a1.24,1.24,0,0,1-1.24,1.24A1.25,1.25,0,0,1-972,110a1.24,1.24,0,0,1,1.24-1.24h0a1.22,1.22,0,0,1,1.24,1.21h0Zm7.46,3.44a2.13,2.13,0,0,1-3,0,2.13,2.13,0,0,1,0-3,2.12,2.12,0,0,1,3,0v0h0A2.14,2.14,0,0,1-962.1,113.45Zm.44,6.94a1.25,1.25,0,0,1-1.25-1.25,1.24,1.24,0,0,1,1.25-1.25,1.24,1.24,0,0,1,1.25,1.25A1.25,1.25,0,0,1-961.66,120.39Zm-3.44,4.45a2.13,2.13,0,0,1,3,0,2.14,2.14,0,0,1,0,3,2.13,2.13,0,0,1-3,0h0A2.14,2.14,0,0,1-965.1,124.84ZM-972,128.3a1.23,1.23,0,0,1,1.21-1.25h0a1.25,1.25,0,0,1,1.38,1.11,1.25,1.25,0,0,1-1.12,1.37h-.26a1.24,1.24,0,0,1-1.23-1.23h0Zm-4.43-9.14a5.64,5.64,0,0,1,5.64-5.66,5.64,5.64,0,0,1,5.66,5.64,5.65,5.65,0,0,1-5.64,5.66,5.66,5.66,0,0,1-5.66-5.64Zm-3,5.7a2.12,2.12,0,0,1,3,0,2.12,2.12,0,0,1,0,3h0a2.09,2.09,0,0,1-2.94.06l-.06-.06a2.12,2.12,0,0,1-.07-3h.07Zm-1.69-5.7a1.25,1.25,0,0,1,1.24-1.24,1.23,1.23,0,0,1,1.24,1.24,1.24,1.24,0,0,1-1.24,1.24,1.25,1.25,0,0,1-1.24-1.24Z" transform="translate(1104.04 106.33)" style="fill:#dad1d1"/><path d="M-1005.23,119.19a34.46,34.46,0,0,0,34.48,34.42,34.45,34.45,0,0,0,34.42-34.48,34.44,34.44,0,0,0-34.48-34.42,34.45,34.45,0,0,0-34.42,34.42Zm12.53-12.66a3.85,3.85,0,0,1-5,2.19,3.86,3.86,0,0,1-2.19-5,3.83,3.83,0,0,1,4.94-2.2,2.77,2.77,0,0,1,.55.26A3.56,3.56,0,0,1-992.7,106.53Zm21.89-11a23.65,23.65,0,0,1,23.7,23.64,23.65,23.65,0,0,1-23.64,23.69,23.66,23.66,0,0,1-23.7-23.63h0a23.67,23.67,0,0,1,23.64-23.7Zm-12.64,1.8a3.85,3.85,0,0,1-5.41-.58,3.85,3.85,0,0,1,.58-5.42,3.86,3.86,0,0,1,5.41.58h0a3.21,3.21,0,0,1,.34.48,3.57,3.57,0,0,1-.93,4.93Zm15.89-7.21a3.29,3.29,0,0,1-3.75,2.75,3.3,3.3,0,0,1-2.75-3.76,3.28,3.28,0,0,1,3.25-2.78,3.54,3.54,0,0,1,3.24,3.79Zm14.11,5.51a3.29,3.29,0,0,1-4.62.49,3.29,3.29,0,0,1-.5-4.63,3.28,3.28,0,0,1,4.2-.78,3.55,3.55,0,0,1,.91,4.92ZM-944,107.4a3.3,3.3,0,0,1-4.26-1.88,3.29,3.29,0,0,1,1.88-4.26,3.28,3.28,0,0,1,4,1.42A3.57,3.57,0,0,1-944,107.4Zm2.27,15a3.31,3.31,0,0,1-2.75-3.78,3.3,3.3,0,0,1,3.77-2.75,3.31,3.31,0,0,1,2.79,3.28,3.55,3.55,0,0,1-3.82,3.23Zm-7.18,9.39a3.86,3.86,0,0,1,5-2.19,3.85,3.85,0,0,1,2.18,5,3.85,3.85,0,0,1-5,2.2,5.36,5.36,0,0,1-.54-.26,3.59,3.59,0,0,1-1.68-4.74Zm-9.24,9.26a3.86,3.86,0,0,1,5.43.55,3.86,3.86,0,0,1-.56,5.44,3.87,3.87,0,0,1-5.43-.56h0a3.89,3.89,0,0,1,.55-5.45Zm-15.88,7.2a3.3,3.3,0,0,1,3.76-2.75,3.29,3.29,0,0,1,2.74,3.77,3.3,3.3,0,0,1-3.24,2.78,3.56,3.56,0,0,1-3.27-3.81h0Zm-14.12-5.51a3.3,3.3,0,0,1,4.64-.52,3.3,3.3,0,0,1,.52,4.64,3.31,3.31,0,0,1-4.23.8,3.56,3.56,0,0,1-.94-4.94Zm-9.47-11.81a3.29,3.29,0,0,1,4.27,1.88,3.3,3.3,0,0,1-1.88,4.27,3.31,3.31,0,0,1-4-1.42A3.57,3.57,0,0,1-997.6,130.93Zm-6.08-11.71a3.88,3.88,0,0,1,3.2-4.43A3.87,3.87,0,0,1-996,118a3.86,3.86,0,0,1-3.2,4.42h0a6,6,0,0,1-.61,0,3.57,3.57,0,0,1-3.81-3.29Z" transform="translate(1104.04 106.33)" style="fill:#dad1d1"/><path d="M-545.91,115.05H-520a12.42,12.42,0,0,0,12.41-12.42v-.25A12.41,12.41,0,0,0-520,89.93h-25.94Z" transform="translate(1104.04 106.33)" style="fill:#dad1d1"/><path d="M-1078.61,115.05h25.91V89.93h-25.91A12.42,12.42,0,0,0-1091,102.35h0v.25a12.43,12.43,0,0,0,12.39,12.45h0Z" transform="translate(1104.04 106.33)" style="fill:#dad1d1"/></svg>