<svg id="Layer_1" data-name="Layer 1" xmlns="http://www.w3.org/2000/svg" viewBox="0 0 578.01 128.23"><title>5-01</title><ellipse cx="290.42" cy="123.43" rx="287.58" ry="4.8" style="fill:#1d1d1b;opacity:0.10000000149011612;isolation:isolate"/><path d="M17.85,308.84l.89.08c.85.08,1.67-1.3,1.86-3.15l1.18-11c.21-2.06-.41-3.87-1.35-3.94H19.8c-.83-.06-1.61,1.24-1.85,3l-1.42,10.94C16.25,306.79,16.87,308.74,17.85,308.84Z" transform="translate(-11 -235.89)" style="fill:#e94e1b"/><path d="M580.09,311.54l3.12-.26a3.42,3.42,0,0,0,3-3.79,2,2,0,0,0-.06-.35l-1.87-15.33a5.51,5.51,0,0,0-4-4.64l-2.13-.52Z" transform="translate(-11 -235.89)" style="fill:#f9b659"/><polygon points="567.94 76.38 572.48 76.06 569.66 50.18 563.9 50.01 567.94 76.38" style="fill:#403430"/><path d="M580,330.55l5.11.12a2.6,2.6,0,0,0,2.63-2.21l1.24-8.37a2.58,2.58,0,0,0-2.16-2.94h-7.27l-1.55,11a2.06,2.06,0,0,0,1.73,2.34Z" transform="translate(-11 -235.89)" style="fill:#f2e8e8"/><path d="M34.13,332.25,77.64,335l5.46.61,2.59.18,6.1.43H541.07l2.42-.31,15.84-2,10-1.3A13.5,13.5,0,0,0,581,320.94l-3-32.25a13,13,0,0,0-1.39-3.82c-3.18-5.65-10-5.68-16.42-6l-79.6-6.37a23.1,23.1,0,0,1-5.16-.86l-1-.31a22.68,22.68,0,0,1-6.83-3.63l-37.41-28.81a14.37,14.37,0,0,0-8.78-3H148.71c-17.74,0-21.3,7.52-43.19,28.53a31.12,31.12,0,0,1-19.3,8.6c-55.72,4.05-64.4,1.29-65.89,19.11l-2.06,21.15A17.16,17.16,0,0,0,33.44,332.2Z" transform="translate(-11 -235.89)" style="fill:#88a84c"/><path d="M421.36,239.62a10.68,10.68,0,0,1,6.5,2.21l37.42,28.82a27.87,27.87,0,0,0,5.12,3.11l5,20.34-5,38.4H370.91l3.72-39.8-3.72-53.13Z" transform="translate(-11 -235.89)" style="fill:#a7cb64;fill-rule:evenodd"/><path d="M374.93,243.34h46.43a7,7,0,0,1,4.23,1.44L463,273.6c.27.21.56.4.85.6H377.1Z" transform="translate(-11 -235.89)" style="fill:#1d1715"/><path d="M373.65,242.16h47.71a8.12,8.12,0,0,1,5,1.68l37.41,28.82.47.33,3.32,2.4H376Zm51.21,3.56a5.75,5.75,0,0,0-3.5-1.18H376.2l2,28.46h82.1Z" transform="translate(-11 -235.89)" style="fill:#88a84c"/><path d="M144.71,245.3a13.35,13.35,0,0,1,10.74-5.68h56l3.73,53.13-3.73,39.8h-58.8c-1.56-16.08-12.6-31.79-27.89-36.4l-.24-17.88a14.06,14.06,0,0,1,2.64-8.36Z" transform="translate(-11 -235.89)" style="fill:#a7cb64;fill-rule:evenodd"/><path d="M147.75,247.47a9.66,9.66,0,0,1,7.74-4.13h52.42l2.21,31-81.05-.1Z" transform="translate(-11 -235.89)" style="fill:#1d1715"/><path d="M126.77,275.39l20-28.61a10.81,10.81,0,0,1,8.74-4.62H209l2.35,33.32Zm28.74-30.85a8.42,8.42,0,0,0-6.8,3.61L131.33,273l77.5.09-2-28.56Z" transform="translate(-11 -235.89)" style="fill:#88a84c"/><rect x="368.63" y="43.7" width="16.58" height="5.28" style="fill:#dad1d1"/><rect x="118.06" y="43.7" width="16.57" height="5.28" style="fill:#dad1d1"/><path d="M18.4,313.19l-.24,2.41H28.32a9.34,9.34,0,0,1,9.34,9.34h0v.1l-22-1c-2.5-.08-4.8-2.09-4.61-4.57,0-.55.09-1.11.13-1.57a5.2,5.2,0,0,1,5.18-4.73Z" transform="translate(-11 -235.89)" style="fill:#f2e8e8"/><path d="M570.64,328.19h13.27a2.46,2.46,0,0,0,2.41-1.95l.79-3.63a2.48,2.48,0,0,0-1.89-2.94h0a2.24,2.24,0,0,0-.52-.06H571.43a2.45,2.45,0,0,0-2.41,1.95l-.79,3.63a2.46,2.46,0,0,0,1.85,2.94A2.6,2.6,0,0,0,570.64,328.19Z" transform="translate(-11 -235.89)" style="fill:#f2e8e8"/><polygon points="437.86 39.77 445.82 43.34 446.3 39.32 439.56 33.07 437.86 39.77" style="fill:#dad1d1"/><path d="M446.68,263.78l.65.08a5,5,0,0,1,4.2,3.73l1,4.16a6.35,6.35,0,0,1-4.63,7.7h0a6.14,6.14,0,0,1-2.3.14l-.87-.11Z" transform="translate(-11 -235.89)" style="fill:#dad1d1"/><path d="M492.85,336.24h48.22l2.42-.31,15.84-2-1.5-8.48A21,21,0,0,0,537.07,308H516.86a22.8,22.8,0,0,0-22.45,18.8Z" transform="translate(-11 -235.89)" style="fill:#1d1715"/><polygon points="395.5 9.92 417.26 36.35 400.06 36.35 378.11 9.92 395.5 9.92" style="fill:#5b514e;opacity:0.20000000298023224;isolation:isolate"/><polygon points="403.29 9.92 424.91 36.35 419.36 36.35 397.68 9.92 403.29 9.92" style="fill:#5b514e;opacity:0.20000000298023224;isolation:isolate"/><polygon points="164.32 9.92 186.09 36.35 168.89 36.35 146.94 9.92 164.32 9.92" style="fill:#5b514e;opacity:0.20000000298023224;isolation:isolate"/><polygon points="172.13 9.92 193.75 36.35 188.19 36.35 166.51 9.92 172.13 9.92" style="fill:#5b514e;opacity:0.20000000298023224;isolation:isolate"/><path d="M77.64,335l5.46.61,2.59.18,6.1.43h51.82l-1.49-10.84A21,21,0,0,0,121.36,308H101.18A22.84,22.84,0,0,0,78.7,326.8Z" transform="translate(-11 -235.89)" style="fill:#1d1715"/><path d="M475.4,271.63l.47,2a9.42,9.42,0,0,0,9.18,7.27l91.53,4c-3.18-5.65-10-5.68-16.42-6l-79.6-6.37A23.15,23.15,0,0,1,475.4,271.63Z" transform="translate(-11 -235.89)" style="fill:#a7cb64"/><polygon points="205.44 7.45 207.6 38.32 357.91 38.32 355.73 7.45 205.44 7.45" style="fill:#1d1715"/><path d="M215.15,239.62l2.48,38H371.07l-.29-4.63h0l-2.14-30.42v-3Zm2.56,4.92H366.27L368.42,273H219.71Z" transform="translate(-11 -235.89)" style="fill:#a7cb64"/><polygon points="305.46 6.27 305.63 8.65 307.63 37.12 307.8 39.5 317 39.5 316.85 37.12 314.84 8.65 314.68 6.27 305.46 6.27" style="fill:#88a84c"/><polygon points="312.87 35.64 311.08 10.13 309.61 10.13 311.39 35.64 312.87 35.64" style="fill:#dad1d1"/><polygon points="247.07 6.27 247.25 8.65 249.24 37.12 249.4 39.5 258.61 39.5 258.46 37.12 256.44 8.65 256.29 6.27 247.07 6.27" style="fill:#88a84c"/><polygon points="254.48 35.64 252.69 10.13 251.21 10.13 253 35.64 254.48 35.64" style="fill:#dad1d1"/><polygon points="332.35 9.92 354.11 36.35 336.9 36.35 314.96 9.92 332.35 9.92" style="fill:#5b514e;opacity:0.20000000298023224;isolation:isolate"/><polygon points="340.14 9.92 361.77 36.35 356.2 36.35 334.54 9.92 340.14 9.92" style="fill:#5b514e;opacity:0.20000000298023224;isolation:isolate"/><polygon points="275.65 9.92 297.42 36.35 280.21 36.35 258.27 9.92 275.65 9.92" style="fill:#5b514e;opacity:0.20000000298023224;isolation:isolate"/><polygon points="283.45 9.92 305.08 36.35 299.51 36.35 277.85 9.92 283.45 9.92" style="fill:#5b514e;opacity:0.20000000298023224;isolation:isolate"/><polygon points="224.07 9.92 245.84 36.35 228.63 36.35 206.7 9.92 224.07 9.92" style="fill:#5b514e;opacity:0.20000000298023224;isolation:isolate"/><polygon points="231.87 9.92 253.49 36.35 247.94 36.35 226.26 9.92 231.87 9.92" style="fill:#5b514e;opacity:0.20000000298023224;isolation:isolate"/><path d="M11.14,317.92c0,.5-.09,1-.13,1.57-.19,2.48,2.11,4.49,4.61,4.57l5.21.23a17.09,17.09,0,0,0,13.26,8L77.61,335l5.46.61,2.58.18,6.11.43H541l2.42-.31,15.84-2,10-1.3a13.42,13.42,0,0,0,8.36-4.42h.3a2.05,2.05,0,0,0,1.73,2.33h.26l5.11.12a2.6,2.6,0,0,0,2.63-2.21l.92-6.16L17.33,298.5l-.8,6.15c-.28,2.14.34,4.09,1.32,4.18l.84.07-.4,4.29h-2A5.19,5.19,0,0,0,11.14,317.92Zm7-2.32Z" transform="translate(-11 -235.89)" style="fill:#1d1d1b;opacity:0.05000000074505806;isolation:isolate"/><path d="M507.84,330.52a18.36,18.36,0,1,0,18.4-18.36,18.36,18.36,0,0,0-18.4,18.36v0Z" transform="translate(-11 -235.89)" style="fill:#dad1d1"/><path d="M497.46,330.56a28.74,28.74,0,1,0,49.36-20.19,21.1,21.1,0,0,0-9.75-2.39h-20.2a22.81,22.81,0,0,0-12.35,3.63A28.75,28.75,0,0,0,497.46,330.56Zm28.81,17.68a17.67,17.67,0,1,1,.05,0Z" transform="translate(-11 -235.89)" style="fill:#1d1715"/><path d="M512.86,330.52a13.4,13.4,0,1,0,13.42-13.38h0a13.38,13.38,0,0,0-13.41,13.35Z" transform="translate(-11 -235.89)" style="fill:#fff"/><path d="M518.17,330.52a8.07,8.07,0,1,0,8.07-8.07h0A8.09,8.09,0,0,0,518.17,330.52Z" transform="translate(-11 -235.89)" style="fill:#dad1d1"/><path d="M533.26,316a16.29,16.29,0,0,1,6.8,6.15l-13.78,8.3Z" transform="translate(-11 -235.89)" style="fill:#fff;opacity:0.5;isolation:isolate"/><path d="M526.25,330.4l-7.08,14.65a16.22,16.22,0,0,1-6.82-6.28Z" transform="translate(-11 -235.89)" style="fill:#fff;opacity:0.5;isolation:isolate"/><path d="M92.17,330.52a18.36,18.36,0,1,0,18.38-18.36,18.36,18.36,0,0,0-18.38,18.36Z" transform="translate(-11 -235.89)" style="fill:#dad1d1"/><path d="M81.76,330.56a28.73,28.73,0,1,0,49.35-20.19,21.07,21.07,0,0,0-9.75-2.39h-20.2a22.68,22.68,0,0,0-12.31,3.63A28.76,28.76,0,0,0,81.76,330.56Zm28.75,17.68a13.6,13.6,0,1,0-.05,0h.05Z" transform="translate(-11 -235.89)" style="fill:#1d1715"/><path d="M97.16,330.52a13.39,13.39,0,1,0,13.4-13.38h0A13.39,13.39,0,0,0,97.16,330.52Z" transform="translate(-11 -235.89)" style="fill:#fff"/><circle cx="99.55" cy="94.63" r="8.07" style="fill:#dad1d1"/><path d="M117.59,316a16.25,16.25,0,0,1,6.81,6.15l-13.79,8.3Z" transform="translate(-11 -235.89)" style="fill:#fff;opacity:0.5;isolation:isolate"/><path d="M110.55,330.4l-7.07,14.65a16.3,16.3,0,0,1-6.83-6.28Z" transform="translate(-11 -235.89)" style="fill:#fff;opacity:0.5;isolation:isolate"/></svg>