<svg id="Layer_1" data-name="Layer 1" xmlns="http://www.w3.org/2000/svg" viewBox="0 0 572.84 164.62"><title>1-01</title><path d="M13.58,373c0,5.14,128.21,9.32,286.36,9.32S586.3,378.12,586.3,373s-128.2-9.32-286.36-9.32S13.58,367.83,13.58,373Z" transform="translate(-13.58 -217.7)" style="fill:#1d1d1b;opacity:0.10000000149011612;isolation:isolate"/><path d="M411.37,273.8l55.9,1.85,6.44-13.75-53.21,2.28a9.53,9.53,0,0,0-9.13,9.52Z" transform="translate(-13.58 -217.7)" style="fill:#88a84c"/><path d="M20.65,271.62l.58,5.28.19,1.94,2.22,21.1.19,1.94,1.25,11.5v.43l1.17,11a25.63,25.63,0,0,0,17.53,21.68l26.11,8.59,2.91,1H580.2l6.22-20.4c-7.81-31.32-46.36-55.57-98.66-62.48a230.78,230.78,0,0,0-28.9-2l-60.93-2.88L351.54,240a117,117,0,0,0-61.05-17.18H236.56a127.92,127.92,0,0,0-49.58,10l-47.36,19.93-109.57,7.7a10.19,10.19,0,0,0-9.42,10.9A2.45,2.45,0,0,0,20.65,271.62Z" transform="translate(-13.58 -217.7)" style="fill:#a7cb64"/><path d="M522.39,285c26.26,8.77,46,22.78,55.44,39.63-12.91-.59-25.82-4-38.73-9.14C530.78,310,520.54,296.52,522.39,285Z" transform="translate(-13.58 -217.7)" style="fill:#fdfdfd"/><path d="M234.72,228.61h55.79a111.15,111.15,0,0,1,58,16.33L395,273.37l-1.58,64.23a13,13,0,0,1-13,12.66H234a53.27,53.27,0,0,1-52.89-46.9l-4.37-43.53S202.67,228.56,234.72,228.61Z" transform="translate(-13.58 -217.7)" style="fill:#fdfdfd"/><path d="M430.14,332.89v23.2h97.42v-23.2a48.76,48.76,0,0,0-41.27-48.18,51.24,51.24,0,0,0-7.42-.54,48.7,48.7,0,0,0-48.73,48.67h0Z" transform="translate(-13.58 -217.7)" style="fill:#403430"/><path d="M180.76,260,185,301.88a49.42,49.42,0,0,0,49,43.41H380.4a9,9,0,0,0,9.09-8.86L391,274.57v-.16l-44.56-27.23a107,107,0,0,0-56-15.78H247.32v-.08c-2.84.08-6.88.08-12.63.08C208.23,231.4,185.77,254.48,180.76,260Z" transform="translate(-13.58 -217.7)" style="fill:#88a84c"/><path d="M75.6,332.89v23.2H173v-23.2a48.74,48.74,0,0,0-41.26-48.18,51.28,51.28,0,0,0-7.43-.54A48.7,48.7,0,0,0,75.6,332.86Z" transform="translate(-13.58 -217.7)" style="fill:#403430"/><path d="M381.46,271.92l-36-22a105.29,105.29,0,0,0-54.95-15.47H234.72c-24.79,0-46.08,21-51.9,27.34Z" transform="translate(-13.58 -217.7)" style="fill:#403430"/><path d="M186.49,276.23a4.8,4.8,0,0,0,4.59,5h0l18.07.64a4.8,4.8,0,0,0,5-4.59h0a4.8,4.8,0,0,0-4.59-5h0l-18.07-.64a4.79,4.79,0,0,0-5,4.57v0Z" transform="translate(-13.58 -217.7)" style="fill:#dad1d1"/><path d="M562.18,335.68h24.24l-6.22,20.41H547.11l3.72-12A11.88,11.88,0,0,1,562.18,335.68Z" transform="translate(-13.58 -217.7)" style="fill:#dad1d1"/><path d="M574.45,348.31l1.48-4.86H562.18a4.1,4.1,0,0,0-3.93,2.9l-.6,2Z" transform="translate(-13.58 -217.7)" style="fill:#fff"/><path d="M25.11,313.81l1.17,11a25.63,25.63,0,0,0,17.53,21.68l26.11,8.59L65,328.61a18.07,18.07,0,0,0-17.78-14.8Z" transform="translate(-13.58 -217.7)" style="fill:#dad1d1"/><path d="M173.6,301.49l-1.43-13.75a17.61,17.61,0,0,0-17.53-15.82H97.3C149.89,274.08,164.26,282.59,173.6,301.49Z" transform="translate(-13.58 -217.7)" style="fill:#88a84c"/><path d="M423.17,329.91c5.51-39.61,20.68-46.93,42.17-50.09H453C416.05,281.85,423.17,329.91,423.17,329.91Z" transform="translate(-13.58 -217.7)" style="fill:#88a84c"/><polygon points="50.18 40.73 74.17 40.24 62.02 5.07 46.62 5.07 50.18 40.73" style="fill:#88a84c"/><path d="M21.23,276.9l.19,1.94,2.22,21.1.19,1.94H32a8.78,8.78,0,0,0,8.78-8.78,8.51,8.51,0,0,0-.16-1.67L39.18,284a8.88,8.88,0,0,0-8.63-7.07Z" transform="translate(-13.58 -217.7)" style="fill:#fff"/><path d="M91.44,217.83l.1-.13H34.34a1.42,1.42,0,0,0-.29,2.8L64.57,227C74.53,229.13,93.11,227.61,91.44,217.83Z" transform="translate(-13.58 -217.7)" style="fill:#a7cb64"/><path d="M21.42,278.84l2.22,21.1H32a6.84,6.84,0,0,0,6.85-6.83,6.59,6.59,0,0,0-.13-1.33l-1.48-7.42a6.85,6.85,0,0,0-6.72-5.52Z" transform="translate(-13.58 -217.7)" style="fill:#c44645"/><path d="M382.77,272.4c.88,5.64-4.73,6.18-8.91,6.83a6.12,6.12,0,0,1-1.6,0l2.93-20.68C378.78,260,382,267.49,382.77,272.4Z" transform="translate(-13.58 -217.7)" style="fill:#a7cb64"/><path d="M439.21,335a22.59,22.59,0,0,0,.15,2.33l-2.11.19s-.76.6-1.55,1.29l-.16.12-.26.23c.17,1.31.39,2.58.67,3.85a3.85,3.85,0,0,0,.13.66l.36-.37h0l.82-.84,2.77-.58c.16.76.34,1.51.54,2.27l-1.72.46-.32.09-.47.53c-.24.26-.54.62-.83,1a.8.8,0,0,0-.15.17l-.2.25a41.2,41.2,0,0,0,1.59,4.31l.29-.46.62-.94L442,348.5a20.66,20.66,0,0,0,1,2.13l-1.88.89s-.53.82-1.06,1.74l-.13.21c-.05.09-.09.18-.14.26a44.14,44.14,0,0,0,2.31,4c.07-.19.15-.34.2-.51a.84.84,0,0,1,.13-.27c.22-.45.35-.76.35-.76l2.43-1.5c.4.66.82,1.31,1.27,1.95l-1.68,1.2s-.38.89-.73,1.9a1.8,1.8,0,0,0-.08.21.91.91,0,0,1-.11.3,37.89,37.89,0,0,0,3,3.49,3.13,3.13,0,0,1,.12-.53c.18-.65.3-1.11.3-1.11l2.11-1.89c.52.58,1.06,1.15,1.61,1.69l-1.47,1.49s-.2,1-.38,2v.2a.78.78,0,0,1-.05.34,44.66,44.66,0,0,0,3.52,2.92v-.53a6.41,6.41,0,0,1,.1-1.16l1.73-2.21c.61.48,1.25.93,1.89,1.38l-1.2,1.73v2.55a43.76,43.76,0,0,0,4,2.27,1.57,1.57,0,0,0-.06-.53c-.08-.69-.13-1.17-.13-1.17l1.34-2.49a21,21,0,0,0,2.09,1l-.89,1.92a3.27,3.27,0,0,0,.1.7c.1.41.15.82.24,1.29v.21a1.55,1.55,0,0,0,.06.31,41.85,41.85,0,0,0,4.31,1.56c-.05-.18-.11-.36-.16-.52-.2-.63-.32-1.09-.32-1.09l.88-2.71c.74.24,1.48.46,2.24.66l-.52,2s.29.93.65,1.92a2.25,2.25,0,0,0,.08.24,1.48,1.48,0,0,1,.1.27,43.76,43.76,0,0,0,4.53.78c-.1-.17-.17-.33-.24-.47l-.5-1,.39-2.82c.78.11,1.55.2,2.33.26l-.17,2.07s.46.86,1,1.79l.1.17c.05.1.12.2.17.29l1.07.05c1.18,0,2.35,0,3.51-.07-.11-.14-.22-.29-.31-.43l-.69-.95-.09-2.81a18.38,18.38,0,0,0,2.34-.15l.18,2.11s.61.76,1.29,1.55l.12.16a2,2,0,0,1,.24.26,42.84,42.84,0,0,0,4.5-.81l-.38-.36-.84-.83-.58-2.76c.77-.17,1.52-.35,2.27-.54l.56,2,.52.48c.27.24.63.54,1,.83.05.06.11.1.16.15l.25.2a43.71,43.71,0,0,0,4.32-1.58l-.46-.3-1-.63-1.06-2.64c.73-.29,1.44-.61,2.14-.94l.89,1.88s.82.53,1.74,1.06l.2.13.27.13a41.8,41.8,0,0,0,4-2.3c-.18-.07-.33-.15-.5-.21l-.28-.12-.75-.35-1.51-2.42c.66-.41,1.32-.83,2-1.28l1.2,1.68s.9.37,1.9.74l.21.07a1.82,1.82,0,0,1,.3.11c.76-.58,1.49-1.18,2.22-1.81.43-.36.86-.74,1.28-1.14h-.07l-.47-.11-1.1-.29-1.9-2.11c.58-.52,1.16-1.06,1.7-1.61L508.6,363s1,.21,2,.39h.2l.34.06A43.18,43.18,0,0,0,514,360h-.54a7.33,7.33,0,0,1-1.15-.09l-2.22-1.74c.48-.6.94-1.24,1.39-1.88l1.72,1.2h2.55a43.85,43.85,0,0,0,2.28-4l-.53.07-1.17.11-2.5-1.33a21,21,0,0,0,1-2.09l1.93.88.69-.09,1.29-.24H519l.31-.06a41.92,41.92,0,0,0,1.57-4.31l-.53.16-1.08.33-2.71-.89c.24-.74.45-1.48.65-2.24l2,.51s.92-.28,1.92-.64l.24-.08.27-.11a43.12,43.12,0,0,0,.78-4.52l-.47.24-1,.5-2.81-.4c.1-.77.19-1.54.26-2.32l2.06.17s.87-.46,1.79-1a.56.56,0,0,0,.17-.09,1.75,1.75,0,0,0,.29-.18V334.8c0-1.17,0-2.34-.07-3.5a3.25,3.25,0,0,1-.42.31l-1,.69-2.81.08a22.6,22.6,0,0,0-.16-2.33l2.11-.19s.76-.6,1.56-1.28l.16-.13.25-.23a40.54,40.54,0,0,0-.8-4.51l-.37.39-.82.84-2.76.58c-.17-.77-.35-1.52-.54-2.27l2-.56.48-.52c.23-.27.53-.62.82-1a.75.75,0,0,0,.15-.16c.08-.09.13-.17.21-.25q-.69-2.2-1.59-4.32l-.29.46-.63.94-2.64,1.07a19.75,19.75,0,0,0-1-2.14l1.88-.89s.53-.82,1.07-1.74l.13-.2c0-.1.09-.19.13-.27a44,44,0,0,0-2.3-4c-.08.19-.15.34-.21.51a1.39,1.39,0,0,0-.12.28c-.23.44-.36.75-.36.75l-2.42,1.51c-.41-.66-.82-1.32-1.28-2l1.69-1.2s.37-.9.73-1.9a.58.58,0,0,1,.07-.21l.11-.3a43.57,43.57,0,0,0-3-3.5.54.54,0,0,1,0,.18h0c0,.11-.06.21-.08.32-.17.65-.3,1.11-.3,1.11l-2.11,1.9c-.51-.58-1.05-1.16-1.61-1.69L508,304s.21-1,.39-2v-.2a.78.78,0,0,1,.05-.34,42.43,42.43,0,0,0-3.51-2.92v.54a6.3,6.3,0,0,1-.1,1.15l-1.73,2.22c-.61-.48-1.24-.94-1.89-1.39l1.21-1.72v-2.55a43.85,43.85,0,0,0-4-2.28,1.87,1.87,0,0,0,.05.53c.08.69.13,1.17.13,1.17l-1.33,2.5a18.33,18.33,0,0,0-2.1-1l.89-1.93-.1-.69c-.06-.36-.15-.83-.23-1.29v-.22c0-.1,0-.21-.07-.31a40.85,40.85,0,0,0-4.3-1.56c.05.19.1.36.16.53.19.62.32,1.08.32,1.08L491,296c-.74-.24-1.48-.46-2.24-.66l.52-2s-.29-.92-.64-1.92c0-.08-.06-.15-.09-.24s-.07-.17-.1-.27a40.8,40.8,0,0,0-4.53-.77c.1.16.18.32.25.46.29.61.49,1,.49,1l-.39,2.81c-.77-.1-1.55-.19-2.32-.25l.16-2.07s-.46-.86-1-1.79l-.1-.18a2.61,2.61,0,0,0-.17-.28c-.35,0-.7-.05-1.07-.06-1.17,0-2.34,0-3.5.07.11.15.22.29.31.43l.68.95.09,2.81a22.6,22.6,0,0,0-2.33.16l-.19-2.11s-.6-.76-1.29-1.56l-.12-.15-.24-.26a42.81,42.81,0,0,0-4.5.8l.39.36c.49.48.83.83.83.83l.58,2.76c-.76.17-1.51.35-2.26.54l-.56-2-.53-.48c-.26-.23-.62-.54-1-.83L466,292c-.08-.08-.17-.13-.25-.21a42.05,42.05,0,0,0-4.31,1.59l.45.29,1,.63,1.07,2.64c-.73.29-1.45.61-2.15.95L461,296s-.82-.53-1.74-1.07l-.21-.13-.26-.13a44,44,0,0,0-4,2.3l.5.21a1.39,1.39,0,0,0,.28.12l.75.36,1.51,2.42c-.66.41-1.31.83-1.95,1.28l-1.2-1.68s-.89-.38-1.9-.74l-.21-.08-.29-.1a35.83,35.83,0,0,0-3.14,2.63c-.12.1-.24.2-.35.31a3,3,0,0,1,.52.13l1.11.3,1.89,2.1c-.57.52-1.16,1.06-1.69,1.61l-1.49-1.46s-1-.21-2-.39h-.2l-.34-.05a42.55,42.55,0,0,0-2.93,3.51h.54a6.41,6.41,0,0,1,1.16.1l2.22,1.73c-.49.61-.94,1.25-1.39,1.88L444.47,310h-2.55a43.76,43.76,0,0,0-2.27,4l.52-.06,1.18-.12,2.49,1.33c-.36.68-.71,1.38-1,2.09l-1.93-.88-.69.1-1.3.23h-.21l-.31.06a41.85,41.85,0,0,0-1.56,4.31,1.57,1.57,0,0,0,.52-.16l1.09-.32,2.71.88c-.25.75-.46,1.49-.66,2.25l-2-.52s-.92.29-1.92.64l-.24.08-.28.11c-.33,1.49-.59,3-.77,4.52l.47-.24,1-.5,2.81.4c-.1.77-.19,1.55-.24,2.32l-2.08-.16s-.85.46-1.79,1l-.17.09-.28.18c0,.35-.05.7-.06,1.07,0,1.17,0,2.34.07,3.5a4.25,4.25,0,0,1,.43-.31c.54-.4.95-.68.95-.68Z" transform="translate(-13.58 -217.7)" style="fill:#1d1715"/><path d="M511.24,310.79c.46.63.87,1.29,1.28,1.95l2.42-1.51s.13-.31.36-.75a1.39,1.39,0,0,1,.12-.28c-.56-.86-1.15-1.69-1.76-2.51-.36,1-.73,1.9-.73,1.9Z" transform="translate(-13.58 -217.7)" style="fill:#403430"/><path d="M444.07,332.85A34.8,34.8,0,1,1,478,368.49h0A34.84,34.84,0,0,1,444.07,332.85Z" transform="translate(-13.58 -217.7)" style="fill:#403430"/><path d="M440.22,332.75a38.65,38.65,0,1,1,37.69,39.59h0A38.66,38.66,0,0,1,440.22,332.75Zm.44,0a38.2,38.2,0,1,0,39.14-37.24,38.21,38.21,0,0,0-39.14,37.24Z" transform="translate(-13.58 -217.7)" style="fill:#403430"/><path d="M505.34,363.22l1.9,2.11,1.1.29c.76-.7,1.5-1.41,2.19-2.16-1-.18-2-.39-2-.39L507,361.61C506.47,362.17,505.92,362.71,505.34,363.22Z" transform="translate(-13.58 -217.7)" style="fill:#403430"/><path d="M510.08,358.17l2.22,1.74a11.13,11.13,0,0,1,1.15.09c.62-.81,1.22-1.63,1.77-2.49h-2l-1.72-1.2C511,356.93,510.56,357.57,510.08,358.17Z" transform="translate(-13.58 -217.7)" style="fill:#403430"/><path d="M493.66,370.52c.72-.29,1.44-.61,2.14-.94l.89,1.88s.82.52,1.74,1.06c-.9.46-1.83.87-2.76,1.27l-.95-.63Z" transform="translate(-13.58 -217.7)" style="fill:#403430"/><path d="M501.33,369.79l-1.51-2.41q1-.61,1.95-1.29l1.2,1.69s.9.37,1.9.74c-.81.61-1.65,1.2-2.5,1.75l-.29-.12Z" transform="translate(-13.58 -217.7)" style="fill:#403430"/><path d="M513.85,352.38l2.5,1.33,1.17-.11c.46-.9.88-1.83,1.28-2.76l-1.29.24-.69.09-1.93-.88C514.56,351,514.22,351.7,513.85,352.38Z" transform="translate(-13.58 -217.7)" style="fill:#403430"/><path d="M518.34,330c.08.78.13,1.56.16,2.33l2.81-.08,1-.69a23.19,23.19,0,0,0-.25-3c-.8.68-1.56,1.28-1.56,1.28Z" transform="translate(-13.58 -217.7)" style="fill:#403430"/><path d="M487,372.52c.77-.16,1.52-.34,2.28-.55l.55,2,.53.48c.27.24.63.54,1,.84-1,.29-1.94.55-2.93.77l-.85-.81Z" transform="translate(-13.58 -217.7)" style="fill:#403430"/><path d="M516.57,346l2.71.89,1.08-.33c.31-1,.58-1.93.81-2.93-1,.36-1.92.64-1.92.64l-2-.51C517,344.55,516.81,345.29,516.57,346Z" transform="translate(-13.58 -217.7)" style="fill:#403430"/><path d="M517.13,323.24c.19.75.37,1.5.54,2.27l2.76-.58.82-.84c-.23-1-.48-2-.79-2.93-.29.38-.59.73-.82,1l-.48.52Z" transform="translate(-13.58 -217.7)" style="fill:#403430"/><path d="M514.72,316.76c.33.7.66,1.41.95,2.14l2.64-1.07.63-.94c-.4-.93-.82-1.85-1.27-2.76-.54.92-1.07,1.74-1.07,1.74Z" transform="translate(-13.58 -217.7)" style="fill:#403430"/><path d="M518.13,339.29l2.81.4,1-.5c.11-1,.2-2,.25-3.06-.92.55-1.79,1-1.79,1l-2.06-.17A22.66,22.66,0,0,1,518.13,339.29Z" transform="translate(-13.58 -217.7)" style="fill:#403430"/><path d="M442.77,356.18l2.41-1.5c.41.66.83,1.31,1.29,1.95l-1.69,1.19s-.37.91-.73,1.91c-.61-.82-1.21-1.65-1.76-2.51a.7.7,0,0,1,.12-.28C442.62,356.48,442.77,356.18,442.77,356.18Z" transform="translate(-13.58 -217.7)" style="fill:#403430"/><path d="M442,348.52c.29.72.61,1.43.94,2.13l-1.89.9s-.51.81-1,1.73c-.46-.9-.87-1.82-1.27-2.76l.62-.94Z" transform="translate(-13.58 -217.7)" style="fill:#403430"/><path d="M480.18,373.35c.78,0,1.56-.08,2.33-.15l.19,2.1s.61.77,1.3,1.57c-1,.11-2,.19-3.05.24l-.68-.95Z" transform="translate(-13.58 -217.7)" style="fill:#403430"/><path d="M449.34,360.2c.52.58,1.06,1.15,1.61,1.7l-1.47,1.48s-.2,1-.38,2c-.75-.7-1.47-1.43-2.16-2.18.16-.65.29-1.11.29-1.11Z" transform="translate(-13.58 -217.7)" style="fill:#403430"/><path d="M436.4,335.13l2.81-.1a23,23,0,0,0,.15,2.34l-2.1.19s-.77.6-1.57,1.29c-.12-1-.19-2-.24-3.05Z" transform="translate(-13.58 -217.7)" style="fill:#403430"/><path d="M440,341.9c.16.77.34,1.52.54,2.27l-2,.56-.48.52c-.24.27-.53.63-.84,1-.29-1-.55-1.94-.77-2.93l.81-.84Z" transform="translate(-13.58 -217.7)" style="fill:#403430"/><path d="M466.53,371.42c.74.24,1.49.46,2.25.65l-.53,2s.29.92.65,1.93c-1-.24-2-.51-2.93-.81l-.32-1.09Z" transform="translate(-13.58 -217.7)" style="fill:#403430"/><path d="M473.27,373c.77.11,1.54.2,2.32.26l-.16,2.07s.45.86,1,1.79c-1-.06-2.05-.14-3.05-.27-.3-.6-.49-1-.49-1Z" transform="translate(-13.58 -217.7)" style="fill:#403430"/><path d="M460.18,368.71c.68.37,1.38.7,2.09,1l-.89,1.92s.05.28.1.7.15.81.24,1.28c-.94-.4-1.86-.82-2.75-1.28-.08-.68-.12-1.17-.12-1.17Z" transform="translate(-13.58 -217.7)" style="fill:#403430"/><path d="M454.38,364.94c.62.48,1.25.93,1.89,1.38l-1.2,1.73v2c-.85-.56-1.69-1.15-2.5-1.76.05-.68.1-1.16.1-1.16Z" transform="translate(-13.58 -217.7)" style="fill:#403430"/><path d="M452.83,298.9c1,.36,1.9.74,1.9.74l1.2,1.68c.64-.45,1.29-.87,1.95-1.28l-1.51-2.42-.75-.36a1.39,1.39,0,0,1-.28-.12C454.48,297.7,453.65,298.28,452.83,298.9Z" transform="translate(-13.58 -217.7)" style="fill:#403430"/><path d="M482.28,292.11l-.16,2.07c.77.06,1.55.15,2.32.25l.39-2.81s-.2-.44-.49-1.05c-1-.12-2-.2-3.06-.25C481.82,291.25,482.28,292.11,482.28,292.11Z" transform="translate(-13.58 -217.7)" style="fill:#403430"/><path d="M495.43,297.67c.72.32,1.41.67,2.1,1l1.33-2.5s-.05-.48-.13-1.17c-.89-.46-1.81-.88-2.74-1.28.08.46.17.93.23,1.29l.1.69Z" transform="translate(-13.58 -217.7)" style="fill:#403430"/><path d="M489.45,293.31l-.52,2c.76.2,1.5.42,2.24.66l.89-2.71s-.13-.46-.32-1.08c-1-.31-1.94-.58-2.93-.81C489.16,292.39,489.45,293.31,489.45,293.31Z" transform="translate(-13.58 -217.7)" style="fill:#403430"/><path d="M466.31,292.09c.37.29.73.6,1,.83l.53.48.56,2c.75-.19,1.5-.37,2.26-.54l-.58-2.76s-.34-.35-.83-.83C468.24,291.53,467.27,291.79,466.31,292.09Z" transform="translate(-13.58 -217.7)" style="fill:#403430"/><path d="M447.63,309.24c-.49.61-.94,1.24-1.39,1.88l-1.73-1.2h-2c.56-.85,1.16-1.68,1.77-2.49l1.16.09Z" transform="translate(-13.58 -217.7)" style="fill:#403430"/><path d="M441.14,321.39c-.24.74-.46,1.49-.65,2.24l-2-.53s-.92.29-1.93.65c.24-1,.51-2,.81-2.93l1.09-.31Z" transform="translate(-13.58 -217.7)" style="fill:#403430"/><path d="M473.71,290.55c.69.8,1.29,1.56,1.29,1.56l.19,2.11c.78-.08,1.55-.13,2.33-.16l-.09-2.81-.68-.95C475.73,290.35,474.72,290.42,473.71,290.55Z" transform="translate(-13.58 -217.7)" style="fill:#403430"/><path d="M459.28,294.89c.92.54,1.74,1.07,1.74,1.07l.88,1.88c.7-.34,1.42-.66,2.15-.95L463,294.25l-1-.63C461.11,294,460.18,294.44,459.28,294.89Z" transform="translate(-13.58 -217.7)" style="fill:#403430"/><path d="M443.85,315c-.37.68-.7,1.38-1,2.09l-1.92-.88-.7.1-1.29.23c.4-.93.83-1.86,1.29-2.75.68-.08,1.17-.12,1.17-.12Z" transform="translate(-13.58 -217.7)" style="fill:#403430"/><path d="M439.58,328.13c-.11.76-.2,1.54-.26,2.32l-2.07-.17s-.86.46-1.79,1c.06-1,.14-2,.27-3l1-.49Z" transform="translate(-13.58 -217.7)" style="fill:#403430"/><path d="M501.43,301.09c.65.45,1.28.91,1.89,1.39l1.73-2.22s.06-.48.1-1.15c-.81-.61-1.63-1.22-2.49-1.77v2Z" transform="translate(-13.58 -217.7)" style="fill:#403430"/><path d="M452.36,304.19c-.58.52-1.15,1.06-1.69,1.62l-1.49-1.48-2-.38c.69-.75,1.43-1.46,2.17-2.16l1.12.3Z" transform="translate(-13.58 -217.7)" style="fill:#403430"/><path d="M506.75,305.53c.56.53,1.1,1.11,1.61,1.69l2.11-1.9s.13-.46.3-1.11c-.71-.75-1.42-1.49-2.16-2.18-.18,1-.39,2-.39,2Z" transform="translate(-13.58 -217.7)" style="fill:#403430"/><path d="M506.75,305.53c.56.53,1.1,1.11,1.61,1.69l2.11-1.9s.13-.46.3-1.11c-.71-.75-1.42-1.49-2.16-2.18-.18,1-.39,2-.39,2Z" transform="translate(-13.58 -217.7)" style="fill:#1d1d1b;opacity:0.10000000149011612;isolation:isolate"/><path d="M436.44,343.34l-.36.38c-.05-.22-.09-.45-.13-.67C436.1,343.15,436.27,343.25,436.44,343.34Z" transform="translate(-13.58 -217.7)" style="fill:#222220"/><path d="M446.08,333.71a32.77,32.77,0,1,0,32.78-32.77,32.77,32.77,0,0,0-32.78,32.77Z" transform="translate(-13.58 -217.7)" style="fill:#fdfdfd"/><path d="M451.82,333.71a27,27,0,1,0,27-27,27,27,0,0,0-27,27Z" transform="translate(-13.58 -217.7)" style="fill:#403430"/><polygon points="463.82 120.39 466.73 111.42 438.68 104.04 436.78 109.88 463.82 120.39" style="fill:#dad1d1"/><polygon points="469.09 118.68 461.46 113.13 445.77 137.53 450.73 141.14 469.09 118.68" style="fill:#dad1d1"/><polygon points="469.09 113.13 461.46 118.68 479.81 141.14 484.78 137.53 469.09 113.13" style="fill:#dad1d1"/><polygon points="463.82 111.42 466.73 120.39 493.76 109.88 491.87 104.04 463.82 111.42" style="fill:#dad1d1"/><polygon points="460.55 115.91 469.99 115.91 468.34 86.94 462.21 86.94 460.55 115.91" style="fill:#dad1d1"/><path d="M469,333.71a9.89,9.89,0,1,0,9.9-9.9,9.89,9.89,0,0,0-9.9,9.9Z" transform="translate(-13.58 -217.7)" style="fill:#fdfdfd"/><path d="M84.67,335a22.59,22.59,0,0,0,.15,2.33l-2.11.19s-.76.6-1.55,1.29L81,339l-.26.23a38.73,38.73,0,0,0,.67,3.85,3,3,0,0,0,.14.66l.34-.37h0l.82-.84,2.77-.58c.16.76.34,1.51.54,2.27l-1.72.46-.31.09-.49.53c-.23.26-.53.62-.82,1l-.15.17-.2.25A44.14,44.14,0,0,0,83.94,351c.09-.16.2-.32.29-.46.36-.55.63-.94.63-.94l2.64-1.06c.29.72.61,1.44.94,2.13l-1.88.89s-.53.82-1.06,1.74l-.13.21-.13.26a41.8,41.8,0,0,0,2.3,4c.07-.19.14-.34.2-.51a1.59,1.59,0,0,0,.12-.27c.23-.45.36-.76.36-.76l2.43-1.5c.41.66.82,1.31,1.28,1.95l-1.69,1.2s-.37.89-.74,1.9a.27.27,0,0,1-.07.21.91.91,0,0,1-.11.3,45.23,45.23,0,0,0,3,3.49,2.42,2.42,0,0,1,.13-.53l.29-1.11,2.11-1.89c.52.58,1.06,1.15,1.61,1.69L95,363.38s-.21,1-.39,2v.54A42.75,42.75,0,0,0,98,368.84v-.53a6.41,6.41,0,0,1,.1-1.16l1.74-2.21c.6.48,1.24.93,1.88,1.38l-1.2,1.73v2.19a2.16,2.16,0,0,1,0,.36,41.52,41.52,0,0,0,4,2.27,1.57,1.57,0,0,0-.06-.53c-.08-.69-.13-1.17-.13-1.17l1.34-2.49c.68.37,1.37.7,2.08,1l-.87,1.92a4.06,4.06,0,0,0,.09.7c.09.41.16.82.24,1.29v.21a.48.48,0,0,0,.07.31,41.85,41.85,0,0,0,4.31,1.56c-.06-.18-.11-.36-.16-.52-.2-.63-.33-1.09-.33-1.09l.89-2.71c.74.24,1.48.46,2.24.66l-.51,2s.29.93.64,1.92a.3.3,0,0,0,.08.24,1.48,1.48,0,0,1,.1.27,43.76,43.76,0,0,0,4.53.78,4.16,4.16,0,0,1-.24-.47l-.5-1,.4-2.82c.77.11,1.54.2,2.32.26l-.17,2.07s.46.86,1,1.79a.56.56,0,0,1,.09.17l.18.29,1.08.05c1.16,0,2.34,0,3.5-.07l-.32-.43-.68-.95-.09-2.81a18.38,18.38,0,0,0,2.34-.15l.19,2.11s.6.76,1.28,1.55a1,1,0,0,0,.13.16c.08.09.16.17.23.26a43,43,0,0,0,4.51-.81l-.39-.36c-.5-.48-.84-.83-.84-.83l-.58-2.76c.76-.17,1.52-.35,2.27-.54l.56,2,.52.48c.26.24.62.54,1,.83a.8.8,0,0,0,.17.15c.07.07.16.13.24.2a43.71,43.71,0,0,0,4.32-1.58l-.46-.3-.95-.63-1.06-2.64c.73-.29,1.44-.61,2.14-.94l.89,1.88s.81.53,1.73,1.06l.22.13.26.13a41.8,41.8,0,0,0,4-2.3c-.18-.07-.33-.15-.5-.21l-.28-.12-.75-.35-1.51-2.42c.66-.41,1.32-.83,2-1.28l1.2,1.68s.9.37,1.9.74l.21.07a1.45,1.45,0,0,1,.29.11c.77-.58,1.5-1.18,2.22-1.81q.66-.54,1.29-1.14h-.07l-.47-.11-1.1-.29-1.89-2.11c.57-.52,1.15-1.06,1.68-1.61L154,363s1,.21,2,.39h.2l.33.06a44.66,44.66,0,0,0,2.92-3.52h-.53a7.33,7.33,0,0,1-1.15-.09l-2.22-1.74c.48-.6.94-1.24,1.39-1.88l1.72,1.2h2.55a41.52,41.52,0,0,0,2.27-4l-.52.07-1.17.11-2.5-1.33a18.19,18.19,0,0,0,1-2.09l1.93.88.69-.09,1.29-.24h.22l.31-.06a41.85,41.85,0,0,0,1.56-4.31l-.53.16-1.08.33L162,346c.25-.74.47-1.48.67-2.24l2,.51s.93-.28,1.92-.64l.25-.08.27-.11a43.12,43.12,0,0,0,.78-4.52l-.48.24-1,.5-2.81-.4c.1-.77.19-1.54.25-2.32l2.07.17s.86-.46,1.79-1l.18-.09.28-.18c0-.35.05-.7.05-1.07,0-1.17,0-2.34-.07-3.5l-.42.31-1,.69-2.8.08a22.6,22.6,0,0,0-.16-2.33l2.11-.19s.76-.6,1.56-1.28l.16-.13.25-.23a40.54,40.54,0,0,0-.8-4.51l-.37.39-.82.84-2.77.58c-.16-.77-.34-1.52-.53-2.27l2-.56.48-.52c.23-.27.54-.62.83-1L166,321c.08-.09.13-.17.21-.25q-.69-2.21-1.59-4.32c-.1.17-.21.32-.3.46-.36.55-.63.94-.63.94l-2.63,1.07c-.3-.73-.61-1.44-.95-2.14l1.88-.89s.54-.82,1.06-1.74a1.37,1.37,0,0,0,.13-.2l.14-.27a44,44,0,0,0-2.3-4c-.08.19-.15.34-.21.51a1.39,1.39,0,0,0-.12.28c-.22.44-.35.75-.35.75L158,312.74c-.41-.66-.83-1.32-1.28-1.95l1.68-1.2s.38-.9.74-1.9a.24.24,0,0,1,.08-.21c.08-.06.06-.2.1-.3a44.62,44.62,0,0,0-2.94-3.5.28.28,0,0,1,0,.18h0c0,.11-.06.21-.08.32-.17.65-.3,1.11-.3,1.11l-2.1,1.9c-.53-.58-1.06-1.16-1.61-1.69l1.41-1.5s.21-1,.39-2v-.2a1,1,0,0,1,0-.34,44.51,44.51,0,0,0-3.51-2.92v.54a6.9,6.9,0,0,1-.09,1.15l-1.74,2.22c-.61-.48-1.25-.94-1.89-1.39l1.2-1.72v-2.2a2,2,0,0,1,0-.35,43.85,43.85,0,0,0-4-2.28V295c.09.69.13,1.17.13,1.17l-1.33,2.5a18.19,18.19,0,0,0-2.09-1l.87-1.93a4.08,4.08,0,0,0-.09-.69c-.09-.41-.15-.83-.24-1.29v-.22a.48.48,0,0,0-.07-.31,40.85,40.85,0,0,0-4.3-1.56c.05.19.1.36.15.53.2.62.33,1.08.33,1.08l-.89,2.71c-.74-.24-1.48-.46-2.24-.66l.52-2s-.29-.92-.65-1.92a.34.34,0,0,0-.07-.24.81.81,0,0,1-.11-.27,43.08,43.08,0,0,0-4.52-.77c.09.16.17.32.24.46.29.61.49,1.05.49,1.05l-.39,2.81c-.77-.1-1.55-.19-2.32-.25l.16-2.07s-.46-.86-1-1.79l-.09-.18c-.06-.09-.13-.19-.18-.28-.35,0-.7-.05-1.07-.06-1.17,0-2.34,0-3.5.07.11.15.22.29.31.43l.68.95.09,2.81a22.6,22.6,0,0,0-2.33.16l-.19-2.11s-.6-.76-1.28-1.56l-.13-.15c-.08-.09-.17-.18-.23-.26a40.54,40.54,0,0,0-4.51.8l.38.36c.5.48.84.83.84.83L116,295c-.76.17-1.52.35-2.26.54l-.56-2-.53-.48c-.26-.23-.62-.54-1-.83l-.17-.14c-.08-.08-.17-.13-.25-.21-1.46.46-2.9,1-4.31,1.59l.46.29.94.63,1.06,2.64c-.73.29-1.44.61-2.14.95l-.88-1.88s-.82-.53-1.74-1.07l-.21-.13c-.1,0-.18-.09-.26-.13a41.8,41.8,0,0,0-4,2.3,5.49,5.49,0,0,0,.51.21l.27.12.76.36,1.5,2.42c-.65.41-1.32.83-2,1.28l-1.2-1.68s-.89-.38-1.9-.74l-.21-.08-.29-.1a35.83,35.83,0,0,0-3.14,2.63,2.59,2.59,0,0,0-.35.31,3,3,0,0,1,.52.13l1.11.3,1.89,2.1c-.57.52-1.15,1.06-1.69,1.61l-1.49-1.46s-1-.21-2-.39h-.2L92,304a42.55,42.55,0,0,0-2.93,3.51h.54a6.41,6.41,0,0,1,1.16.1L93,309.34c-.48.61-.93,1.25-1.38,1.88L90,309.93H87.45a43.76,43.76,0,0,0-2.27,4l.52-.06,1.18-.12L89.31,315a21,21,0,0,0-1,2.09l-1.92-.88-.7.1-1.29.23h-.21l-.31.06a39.81,39.81,0,0,0-1.6,4.4l.52-.16,1.08-.32,2.72.88c-.24.75-.46,1.49-.67,2.25l-2-.52s-.92.29-1.93.64l-.24.08-.27.11c-.33,1.49-.59,3-.77,4.52l.47-.24,1-.5,2.82.4c-.11.77-.2,1.55-.26,2.32l-2.07-.16s-.86.46-1.79,1c-.06,0-.11.07-.17.09l-.29.18v1.07c0,1.17,0,2.34.06,3.5.15-.11.29-.22.44-.31l1-.68Z" transform="translate(-13.58 -217.7)" style="fill:#1d1715"/><path d="M156.7,310.79c.45.63.87,1.29,1.28,1.95l2.43-1.51s.13-.31.35-.75a1.39,1.39,0,0,1,.12-.28c-.56-.86-1.15-1.69-1.76-2.51-.36,1-.74,1.9-.74,1.9Z" transform="translate(-13.58 -217.7)" style="fill:#403430"/><path d="M89.53,332.85a34.8,34.8,0,1,1,33.94,35.64h0A34.83,34.83,0,0,1,89.53,332.85Z" transform="translate(-13.58 -217.7)" style="fill:#403430"/><path d="M85.68,332.75a38.65,38.65,0,1,1,37.69,39.59h0A38.68,38.68,0,0,1,85.68,332.75Zm.44,0a38.21,38.21,0,1,0,39.16-37.24h0a38.25,38.25,0,0,0-39.14,37.25Z" transform="translate(-13.58 -217.7)" style="fill:#403430"/><path d="M150.81,363.22l1.89,2.11,1.1.29c.76-.7,1.49-1.41,2.19-2.16-1-.18-2-.39-2-.39l-1.49-1.46C152,362.16,151.38,362.7,150.81,363.22Z" transform="translate(-13.58 -217.7)" style="fill:#403430"/><path d="M155.54,358.17l2.22,1.74a11.13,11.13,0,0,1,1.15.09c.62-.81,1.21-1.63,1.77-2.49h-2l-1.72-1.2Z" transform="translate(-13.58 -217.7)" style="fill:#403430"/><path d="M139.12,370.52c.73-.29,1.44-.61,2.14-.94l.89,1.88s.82.52,1.74,1.06c-.9.46-1.83.87-2.77,1.27l-.94-.63Z" transform="translate(-13.58 -217.7)" style="fill:#403430"/><path d="M146.79,369.79l-1.51-2.41c.66-.41,1.32-.84,1.95-1.29l1.2,1.69s.9.37,1.9.74c-.82.61-1.65,1.2-2.51,1.75l-.28-.12Z" transform="translate(-13.58 -217.7)" style="fill:#403430"/><path d="M159.31,352.38l2.5,1.33,1.17-.11c.46-.9.87-1.83,1.28-2.76l-1.29.24-.69.09-1.93-.88C160,351,159.68,351.7,159.31,352.38Z" transform="translate(-13.58 -217.7)" style="fill:#403430"/><path d="M163.8,330c.08.78.14,1.56.16,2.33l2.8-.08,1-.69a23.34,23.34,0,0,0-.25-3c-.8.68-1.56,1.28-1.56,1.28Z" transform="translate(-13.58 -217.7)" style="fill:#403430"/><path d="M132.51,372.52c.76-.16,1.52-.34,2.27-.55l.55,2,.53.48c.27.24.63.54,1,.84-1,.29-1.94.55-2.93.77-.5-.47-.84-.81-.84-.81Z" transform="translate(-13.58 -217.7)" style="fill:#403430"/><path d="M162,346l2.72.89,1.08-.33c.31-1,.58-1.93.8-2.93-1,.36-1.92.64-1.92.64l-2-.51A19.28,19.28,0,0,1,162,346Z" transform="translate(-13.58 -217.7)" style="fill:#403430"/><path d="M162.59,323.24c.19.75.37,1.5.53,2.27l2.77-.58.82-.84c-.22-1-.48-2-.78-2.93-.29.38-.6.73-.83,1l-.48.52Z" transform="translate(-13.58 -217.7)" style="fill:#403430"/><path d="M160.18,316.76c.34.7.65,1.41.95,2.14l2.63-1.07s.27-.39.63-.94c-.39-.93-.81-1.85-1.27-2.76-.52.92-1.06,1.74-1.06,1.74Z" transform="translate(-13.58 -217.7)" style="fill:#403430"/><path d="M163.59,339.29l2.81.4s.45-.2,1-.5c.12-1,.21-2,.26-3.06-.93.55-1.79,1-1.79,1L163.8,337A21.89,21.89,0,0,1,163.59,339.29Z" transform="translate(-13.58 -217.7)" style="fill:#403430"/><path d="M88.22,356.18l2.42-1.5c.42.66.84,1.31,1.29,1.95l-1.69,1.19s-.37.91-.73,1.91c-.62-.82-1.21-1.65-1.76-2.51a.7.7,0,0,1,.12-.28Z" transform="translate(-13.58 -217.7)" style="fill:#403430"/><path d="M87.5,348.52c.29.72.61,1.43.94,2.13l-1.88.9s-.53.81-1.06,1.73c-.46-.9-.88-1.82-1.27-2.76.36-.55.63-.94.63-.94Z" transform="translate(-13.58 -217.7)" style="fill:#403430"/><path d="M125.64,373.35c.78,0,1.56-.08,2.33-.15l.2,2.1s.6.77,1.28,1.57q-1.5.17-3,.24l-.68-.95Z" transform="translate(-13.58 -217.7)" style="fill:#403430"/><path d="M94.8,360.2c.52.58,1.06,1.15,1.61,1.7l-1.47,1.48s-.2,1-.38,2c-.75-.7-1.47-1.43-2.16-2.18.16-.65.29-1.11.29-1.11Z" transform="translate(-13.58 -217.7)" style="fill:#403430"/><path d="M81.86,335.13l2.81-.1c0,.79.08,1.56.14,2.34l-2.09.19s-.77.6-1.57,1.29c-.12-1-.2-2-.25-3.05Z" transform="translate(-13.58 -217.7)" style="fill:#403430"/><path d="M85.5,341.9c.16.77.34,1.52.54,2.27l-2,.56-.48.52c-.24.27-.53.63-.84,1-.29-1-.55-1.94-.78-2.93l.82-.84Z" transform="translate(-13.58 -217.7)" style="fill:#403430"/><path d="M112,371.42c.74.24,1.49.46,2.25.65l-.53,2s.29.92.65,1.93c-1-.24-2-.51-2.93-.81-.2-.64-.32-1.09-.32-1.09Z" transform="translate(-13.58 -217.7)" style="fill:#403430"/><path d="M118.73,373c.77.11,1.54.2,2.32.26l-.17,2.07s.46.86,1,1.79c-1-.06-2-.14-3.06-.27l-.49-1Z" transform="translate(-13.58 -217.7)" style="fill:#403430"/><path d="M105.64,368.71a21,21,0,0,0,2.09,1l-.88,1.92a4.06,4.06,0,0,0,.09.7c.09.42.15.81.23,1.28-.93-.4-1.85-.82-2.74-1.28-.08-.68-.13-1.17-.13-1.17Z" transform="translate(-13.58 -217.7)" style="fill:#403430"/><path d="M99.85,364.94c.6.48,1.23.93,1.88,1.38l-1.21,1.73v2c-.86-.56-1.69-1.15-2.5-1.76a7.46,7.46,0,0,1,.09-1.16Z" transform="translate(-13.58 -217.7)" style="fill:#403430"/><path d="M98.29,298.9c1,.36,1.9.74,1.9.74l1.2,1.68c.63-.45,1.3-.87,2-1.28l-1.5-2.42-.76-.36a1.59,1.59,0,0,1-.27-.12A29.92,29.92,0,0,0,98.29,298.9Z" transform="translate(-13.58 -217.7)" style="fill:#403430"/><path d="M127.74,292.11l-.16,2.07c.77.06,1.55.15,2.32.25l.39-2.81s-.2-.44-.49-1.05c-1-.12-2-.2-3.06-.25C127.28,291.25,127.74,292.11,127.74,292.11Z" transform="translate(-13.58 -217.7)" style="fill:#403430"/><path d="M140.9,297.67c.71.32,1.41.67,2.09,1l1.33-2.5a6.65,6.65,0,0,0-.13-1.17c-.89-.46-1.81-.88-2.75-1.28.09.46.18.93.24,1.29s.09.69.09.69Z" transform="translate(-13.58 -217.7)" style="fill:#403430"/><path d="M134.91,293.31l-.52,2c.76.2,1.5.42,2.24.66l.89-2.71s-.13-.46-.33-1.08c-1-.31-1.93-.58-2.93-.81C134.62,292.39,134.91,293.31,134.91,293.31Z" transform="translate(-13.58 -217.7)" style="fill:#403430"/><path d="M111.77,292.09c.37.29.73.6,1,.83l.53.48.56,2c.74-.19,1.5-.37,2.26-.54l-.58-2.76s-.34-.35-.84-.83C113.7,291.53,112.73,291.79,111.77,292.09Z" transform="translate(-13.58 -217.7)" style="fill:#403430"/><path d="M93.08,309.24c-.48.61-.93,1.24-1.38,1.88l-1.7-1.2H88q.84-1.28,1.77-2.49l1.16.09Z" transform="translate(-13.58 -217.7)" style="fill:#403430"/><path d="M86.6,321.39c-.24.74-.46,1.49-.66,2.24l-2-.53s-.92.29-1.93.65c.23-1,.51-2,.81-2.93.63-.19,1.09-.31,1.09-.31Z" transform="translate(-13.58 -217.7)" style="fill:#403430"/><path d="M119.18,290.55c.68.8,1.28,1.56,1.28,1.56l.19,2.11c.78-.08,1.55-.13,2.33-.16l-.09-2.81-.68-.95C121.19,290.35,120.18,290.42,119.18,290.55Z" transform="translate(-13.58 -217.7)" style="fill:#403430"/><path d="M104.74,294.89c.92.54,1.74,1.07,1.74,1.07l.88,1.88c.7-.34,1.41-.66,2.14-.95l-1.06-2.64-.94-.63C106.57,294,105.64,294.44,104.74,294.89Z" transform="translate(-13.58 -217.7)" style="fill:#403430"/><path d="M89.31,315c-.37.68-.7,1.38-1,2.09l-1.92-.88-.7.1-1.29.23c.41-.93.83-1.86,1.29-2.75.68-.08,1.17-.12,1.17-.12Z" transform="translate(-13.58 -217.7)" style="fill:#403430"/><path d="M85,328.13c-.11.76-.2,1.54-.26,2.32l-2.07-.17s-.86.46-1.79,1c.06-1,.14-2,.27-3,.59-.3,1-.49,1-.49Z" transform="translate(-13.58 -217.7)" style="fill:#403430"/><path d="M146.89,301.09c.64.45,1.28.91,1.89,1.39l1.74-2.22a11.13,11.13,0,0,1,.09-1.15c-.81-.61-1.64-1.22-2.49-1.77v2Z" transform="translate(-13.58 -217.7)" style="fill:#403430"/><path d="M97.81,304.19c-.57.52-1.14,1.06-1.68,1.62l-1.49-1.48-2-.38c.71-.75,1.43-1.46,2.18-2.16l1.12.3Z" transform="translate(-13.58 -217.7)" style="fill:#403430"/><path d="M152.22,305.53c.55.53,1.08,1.11,1.61,1.69l2.1-1.9s.13-.46.3-1.11c-.7-.75-1.42-1.49-2.16-2.18-.18,1-.39,2-.39,2Z" transform="translate(-13.58 -217.7)" style="fill:#403430"/><path d="M152.22,305.53c.55.53,1.08,1.11,1.61,1.69l2.1-1.9s.13-.46.3-1.11c-.7-.75-1.42-1.49-2.16-2.18-.18,1-.39,2-.39,2Z" transform="translate(-13.58 -217.7)" style="fill:#1d1d1b;opacity:0.10000000149011612;isolation:isolate"/><path d="M81.89,343.34l-.35.38c-.05-.22-.09-.45-.14-.67Z" transform="translate(-13.58 -217.7)" style="fill:#222220"/><path d="M91.54,333.71a32.77,32.77,0,1,0,32.77-32.77h0A32.77,32.77,0,0,0,91.54,333.71Z" transform="translate(-13.58 -217.7)" style="fill:#fdfdfd"/><path d="M97.28,333.71a27,27,0,1,0,27-27,27,27,0,0,0-27,27Z" transform="translate(-13.58 -217.7)" style="fill:#403430"/><polygon points="109.27 120.39 112.19 111.42 84.14 104.04 82.24 109.88 109.27 120.39" style="fill:#dad1d1"/><polygon points="114.54 118.68 106.92 113.13 91.23 137.53 96.2 141.14 114.54 118.68" style="fill:#dad1d1"/><polygon points="114.54 113.13 106.92 118.68 125.27 141.14 130.24 137.53 114.54 113.13" style="fill:#dad1d1"/><polygon points="109.27 111.42 112.19 120.39 139.22 109.88 137.32 104.04 109.27 111.42" style="fill:#dad1d1"/><polygon points="106.02 115.91 115.45 115.91 113.8 86.94 107.66 86.94 106.02 115.91" style="fill:#dad1d1"/><path d="M114.42,333.71a9.9,9.9,0,1,0,9.9-9.9h0a9.89,9.89,0,0,0-9.89,9.89h0Z" transform="translate(-13.58 -217.7)" style="fill:#fdfdfd"/><polygon points="237.49 18.76 258.82 46.61 287.61 48.11 265.35 18.76 237.49 18.76" style="fill:#5b514e"/><path d="M25.08,313.38v.43l1.17,11a25.63,25.63,0,0,0,17.53,21.68l26.11,8.59,2.91,1H580.2l6.22-20.4Z" transform="translate(-13.58 -217.7)" style="fill:#1d1d1b;opacity:0.10000000149011612;isolation:isolate"/><polygon points="268.88 18.76 291.18 48.28 300.47 48.76 277.88 18.76 268.88 18.76" style="fill:#5b514e"/></svg>