<svg id="Layer_1" data-name="Layer 1" xmlns="http://www.w3.org/2000/svg" xmlns:xlink="http://www.w3.org/1999/xlink" viewBox="0 0 589.4 294.69"><defs><clipPath id="clip-path" transform="translate(-5.32 -152.63)"><path d="M93.79,328.8H122c25.41,0,47.22,20,51.89,47.57L178,400.72c-26.3,51.89-121.13,49.48-140.19,0l4.06-24.35C46.58,348.79,68.39,328.8,93.79,328.8Z" style="fill:none"/></clipPath><clipPath id="clip-path-2" transform="translate(-5.32 -152.63)"><path d="M459,328.8h28.19c25.4,0,47.21,20,51.89,47.57l4.12,24.35c-26.31,51.89-121.14,49.48-140.19,0l4.09-24.35C411.84,348.79,433.64,328.8,459,328.8Z" style="fill:none"/></clipPath></defs><title>2-01</title><path d="M53.15,290.73c-1,11.18-3.29,30.14.65,30.14s14.7-20,14.7-31.08-5.73-10.54-9.68-10.47S54.07,280.31,53.15,290.73Z" transform="translate(-5.32 -152.63)" style="fill:#e75c5b"/><path d="M542.68,357.69h5c2.22,0,4.65-2.08,5.35-4.66l1.45-5.22c.75-2.67-.64-4.63-3-4.34l-5.3.65c-2.1.27-4.21,2.44-4.79,4.83l-1.15,4.64C539.64,355.85,540.73,357.69,542.68,357.69Z" transform="translate(-5.32 -152.63)" style="fill:#fff"/><path d="M593.11,367.86a52.53,52.53,0,0,1-1.66,6.05c-.18.51-.37,1-.55,1.45-.48,1.31-1,2.54-1.56,3.72a4,4,0,0,0-.25.6c-.43.83-.87,1.63-1.31,2.41s-.94,1.53-1.41,2.28l-.18.29c-.13.19-.28.38-.41.59a35.9,35.9,0,0,1-2.27,3.08h0l-.21.27a5.18,5.18,0,0,1-.47.58,39.3,39.3,0,0,1-3,3.19l-.18.15a15.38,15.38,0,0,1-1.59,1.41c-.59.41-1,.87-1.59,1.27a26.24,26.24,0,0,1-3.34,2.28,12.35,12.35,0,0,1-1.63.91,14.7,14.7,0,0,1-1.38.68h0a17.81,17.81,0,0,1-3,1.14,15.31,15.31,0,0,1-2.42.51,5.6,5.6,0,0,1-1,.06c-25.08,0-81.55,0-148.8.12-69.71,0-151,.07-220.8.07-84.34,0-151.74-.07-161.26-.19a5.45,5.45,0,0,1-1.14-.06,5,5,0,0,1-1.49-.22c-6-1.33-10.36-7.5-13.21-16.73-.39-1.28-.8-2.69-1.14-4.09-.47-1.83-.88-3.81-1.27-5.77a189.07,189.07,0,0,1-3-31.23c0-2.14-.09-4.32-.12-6.5Z" transform="translate(-5.32 -152.63)" style="fill:#1d1d1b;opacity:0.10000000149011612;isolation:isolate"/><path d="M11.44,342.68a188.07,188.07,0,0,0,3.06,31.23c.39,2,.8,3.94,1.26,5.77.39,1.4.8,2.81,1.14,4.09,3,9.23,7.27,15.4,13.32,16.66a5,5,0,0,0,1.48.22,6.24,6.24,0,0,0,1.14.07c9.53.11,76.87.18,161.26.18,65.87,0,142-.07,209-.07h11.8c52.71-.07,98.84-.11,128.36-.11h20.43a6.73,6.73,0,0,0,1-.07,15.29,15.29,0,0,0,2.42-.5,20.12,20.12,0,0,0,3-1.14h0c.45-.19.91-.44,1.38-.69a12.35,12.35,0,0,0,1.63-.91,21.41,21.41,0,0,0,2.72-1.81c.21-.15.39-.29.62-.43A15.49,15.49,0,0,0,578,393.9c.45-.43,1.14-.95,1.6-1.41.08-.07.14-.15.18-.15,1.05-1,2.05-2.08,3-3.19.17-.19.32-.38.47-.58a3.15,3.15,0,0,0,.22-.29c.46-.58.94-1.14,1.37-1.78a13.43,13.43,0,0,0,.94-1.3c.19-.29.41-.58.58-.87a24.88,24.88,0,0,0,1.41-2.28c.41-.79.88-1.59,1.31-2.42a6.21,6.21,0,0,1,.26-.59,8,8,0,0,0,.46-1.14c.4-.83.77-1.7,1.14-2.61.18-.47.37-.94.55-1.45,2.78-8.11,3.91-18.24,2.81-31.23a186.28,186.28,0,0,0-5.1-29.56c-3.42-14.21-16.41-32.36-21.22-37.18C507.53,215,371.37,173.73,341.24,168.11c-3.42-.65-8.23-1.38-14.18-2.2-50.91-7-184.71-19.07-224-6.48a101,101,0,0,0-17.79,7.82l-3.83-6.84c-.1-.23-.25-.3-.4-.48l7.64-1-1.42-1.55a11.41,11.41,0,0,0-7.89-3.73l-17.94-1c-4.17-.18-8.11,1-8.11,3v4.56c0,2,3.81,3.16,7.82,2.61l2-.25L64,182.42c0,.07.11.07.11.07C39.68,204.28,22.15,236,17,266A412,412,0,0,0,11.44,342.68Z" transform="translate(-5.32 -152.63)" style="fill:#a7cb64"/><path d="M579.79,334.05a2.78,2.78,0,0,0,5.28-1.29c-.15-10.4-3.3-26.05-9.38-37.16a18.11,18.11,0,0,0-15.82-9.4,31.76,31.76,0,0,0-8.11,1.09,5.18,5.18,0,0,0-1.58,9.24C562.15,304.88,572.22,318.93,579.79,334.05Z" transform="translate(-5.32 -152.63)" style="fill:#fff"/><path d="M509.07,245.3a3.42,3.42,0,0,1-1.88,6.21h-100a11.22,11.22,0,0,1-9.48-5.22L364.16,193a4,4,0,0,1,.13-4.4,3.94,3.94,0,0,1,4.14-1.53C408.54,197,466,216.53,509.07,245.3Z" transform="translate(-5.32 -152.63)" style="fill:#403430"/><path d="M361.66,194.6l33.59,53.26a14.12,14.12,0,0,0,12,6.59h100a6.34,6.34,0,0,0,3.52-11.63c-52.33-34.92-121.57-53.69-141.53-58.63a7,7,0,0,0-7.24,2.69A6.85,6.85,0,0,0,361.66,194.6Zm145.51,56.89v-2.94h-100a8.17,8.17,0,0,1-7-3.81l-1-1.74-32.54-51.57a.93.93,0,0,1,0-1.08.86.86,0,0,1,.78-.43c20.06,4.88,88.5,23.44,140,57.82Z" transform="translate(-5.32 -152.63)" style="fill:#403430"/><path d="M43.74,252a7.59,7.59,0,0,1-7.6-7.58h0a7.43,7.43,0,0,1,.48-2.68c12-31.92,38.08-60.08,65.41-70.67,10.26-4,57-3,83.4-2.65a7.25,7.25,0,0,1,7.15,7.29l-.45,68.39a7.5,7.5,0,0,1-7.48,7.44Z" transform="translate(-5.32 -152.63)" style="fill:#403430"/><path d="M35.07,250.39A10.49,10.49,0,0,0,43.73,255h0l140.9-.43a10.55,10.55,0,0,0,10.44-10.41l.43-68.38a10.25,10.25,0,0,0-10.07-10.26l-6.67-.07c-8.95-.15-19.37-.29-29.7-.29-27.18,0-42.5,1-48.12,3.22C73,179.09,46.08,208.15,33.81,240.68A10.51,10.51,0,0,0,35.07,250.39Zm4.32-7.63c10.71-28.42,33.05-54,57.06-65.95q3.26-1.67,6.66-3c4.79-1.84,20.26-2.79,46-2.79,10.26,0,20.69.15,29.64.26l6.66.07a4.28,4.28,0,0,1,4.21,4.31l-.44,68.39a4.56,4.56,0,0,1-4.56,4.49l-82.33.29L43.7,249a4.64,4.64,0,0,1-4.64-4.64,4.53,4.53,0,0,1,.3-1.63Z" transform="translate(-5.32 -152.63)" style="fill:#403430"/><path d="M240,387.39H365a17.69,17.69,0,0,0,17.68-17.68h0v-121h-174V356.1a31.27,31.27,0,0,0,31.25,31.27Z" transform="translate(-5.32 -152.63)" style="fill:#88a84c"/><path d="M331.49,178.79a11.37,11.37,0,0,1,8,5.22l38.75,61.7a3.77,3.77,0,0,1-1.19,5.2h0a3.73,3.73,0,0,1-2,.58H217.81a6.21,6.21,0,0,1-6.23-6.21h0V175.58a7.14,7.14,0,0,1,7.13-7.14h.38C263.21,170.73,310.94,175.68,331.49,178.79Z" transform="translate(-5.32 -152.63)" style="fill:#403430"/><path d="M208.62,175.58V245.3a9.23,9.23,0,0,0,9.17,9.12H375.08A6.78,6.78,0,0,0,381,251a6.13,6.13,0,0,0,.75-2.28,6.84,6.84,0,0,0-1-4.56L342,182.45a14.15,14.15,0,0,0-10-6.55L326,175c-21.74-2.94-64.67-7.32-106.63-9.5h-.08a10.33,10.33,0,0,0-7.38,2.76A10.18,10.18,0,0,0,208.62,175.58Zm167.14,72.53a.81.81,0,0,1-.73.4H217.74a3.25,3.25,0,0,1-3.22-3.21V175.58a4.15,4.15,0,0,1,4.13-4.17h.06c4.35.22,8.71.47,13,.73,41.87,2.61,82.28,7,99.3,9.56a8.66,8.66,0,0,1,5.91,3.87l38.75,61.71A.83.83,0,0,1,375.76,248.11Z" transform="translate(-5.32 -152.63)" style="fill:#403430"/><path d="M11.44,342.68a188.07,188.07,0,0,0,3.06,31.23c.39,2,.8,3.94,1.26,5.77.39,1.4.8,2.81,1.14,4.09,3.08,9.23,7.51,15.4,13.68,16.66a5.59,5.59,0,0,0,1.08.22,6.24,6.24,0,0,0,1.14.07c9.53.11,76.88.18,161.27.18,65.87,0,142-.07,209-.07H414.9c52.71-.07,98.84-.11,128.36-.11h20.43a6.73,6.73,0,0,0,1-.07,15.29,15.29,0,0,0,2.42-.5,31.9,31.9,0,0,0,3-1.14h0c.45-.19.91-.44,1.38-.69s.83-.43,1.23-.69l.4-.22a29.18,29.18,0,0,0,2.72-1.81c.21-.15.39-.29.62-.43A15.49,15.49,0,0,0,578,393.9c.45-.43,1.14-.95,1.6-1.41.08-.07.14-.15.18-.15,1.05-1,2.05-2.08,3-3.19.17-.19.32-.38.47-.58a3.15,3.15,0,0,0,.22-.29c.46-.58.94-1.14,1.37-1.78a13.43,13.43,0,0,0,.94-1.3c.19-.29.41-.58.58-.87a24.88,24.88,0,0,0,1.41-2.28c.41-.79.88-1.59,1.31-2.42a6.21,6.21,0,0,1,.26-.59,8,8,0,0,0,.46-1.14c.15-.4.3-.77.48-1.14s.4-1,.62-1.45a12.89,12.89,0,0,0,.54-1.45c2.78-8.11,3.91-18.23,2.82-31.23h-12.7a20.32,20.32,0,0,0-19.93,16.45l-.29,1.6a16.3,16.3,0,0,1-16,13.18H57.46a17.26,17.26,0,0,1-16.74-13v-.15a23.94,23.94,0,0,0-23.19-18.08Z" transform="translate(-5.32 -152.63)" style="fill:#dad1d1"/><path d="M214.84,270c0,2.55,7,4.64,15.7,4.64s15.7-2.09,15.7-4.64-7-4.64-15.7-4.64S214.84,267.48,214.84,270Z" transform="translate(-5.32 -152.63)" style="fill:#fff"/><g style="opacity:0.5"><path d="M227.32,174.35l46.73,71.7h51.29l-43.58-67.51h0C265.06,176.91,246.27,175.47,227.32,174.35Z" transform="translate(-5.32 -152.63)" style="fill:#5b514e"/><path d="M288.69,179.19,331.55,246h16.56L306.6,181C301.14,180.5,295.1,179.85,288.69,179.19Z" transform="translate(-5.32 -152.63)" style="fill:#5b514e"/></g><path d="M383.66,196.74l32.11,49.31h51.28l-16.6-25.76A561.71,561.71,0,0,0,383.66,196.74Z" transform="translate(-5.32 -152.63)" style="fill:#5b514e"/><path d="M459.35,224.23l14,21.85h16.56l-6.2-9.71h0C475.68,232,467.54,227.93,459.35,224.23Z" transform="translate(-5.32 -152.63)" style="fill:#5b514e"/><path d="M71.12,198.44l31.19,48,51.16-.2-45.72-70.92a18.82,18.82,0,0,0-3.77.9C92.49,180.58,81.16,188.43,71.12,198.44Z" transform="translate(-5.32 -152.63)" style="fill:#5b514e"/><path d="M113.81,174.53l45.93,71.62h16.53L130,173.77C123,173.91,117.72,174.2,113.81,174.53Z" transform="translate(-5.32 -152.63)" style="fill:#5b514e"/><path d="M401.21,231.43a2.57,2.57,0,0,1,3-2.12h0a2.81,2.81,0,0,1,.68.21c8.34,4.11,12.59,18,10.63,29.28-2,11.54-9.8,16.43-19,15.81a2.54,2.54,0,0,1-2.26-2.78v-.2Z" transform="translate(-5.32 -152.63)" style="fill:#88a84c"/><path d="M403.05,400.72v.11h11.84c52.71-.07,98.84-.11,128.36-.11l-4.12-24.35c-.14-.83-.29-1.63-.47-2.46-5.51-26.31-26.79-45.11-51.42-45.11H459.05c-24.64,0-45.91,18.8-51.41,45.11-.18.83-.33,1.63-.47,2.46Z" transform="translate(-5.32 -152.63)" style="fill:#a5a0a0"/><path d="M37.78,400.72v.11H49.64c52.71-.07,98.84-.11,128.36-.11l-4.13-24.35c-.15-.83-.28-1.63-.47-2.46-5.5-26.31-26.77-45.11-51.4-45.11H93.8c-24.64,0-45.9,18.8-51.41,45.11-.18.83-.32,1.63-.47,2.46Z" transform="translate(-5.32 -152.63)" style="fill:#a5a0a0"/><g style="clip-path:url(#clip-path)"><path d="M69.41,378.4a38.48,38.48,0,1,0,38.48-38.5,38.48,38.48,0,0,0-38.48,38.5Z" transform="translate(-5.32 -152.63)" style="fill:#dad1d1"/><path d="M47.56,378.44a60.42,60.42,0,1,0,0-.05h0Zm23.19,0a37.15,37.15,0,1,1,37.18,37.12h0a37.13,37.13,0,0,1-37.17-37.09v0Z" transform="translate(-5.32 -152.63)" style="fill:#1d1715"/><path d="M79.83,378.4a28.06,28.06,0,1,0,28.06-28.07A28.06,28.06,0,0,0,79.83,378.4Z" transform="translate(-5.32 -152.63)" style="fill:#fff"/><path d="M91,378.4a16.91,16.91,0,1,0,16.91-16.93A16.91,16.91,0,0,0,91,378.4Z" transform="translate(-5.32 -152.63)" style="fill:#dad1d1"/><path d="M122.54,347.88a34.17,34.17,0,0,1,14.27,12.89L107.9,378.16Z" transform="translate(-5.32 -152.63)" style="fill:#fff;opacity:0.5;isolation:isolate"/><path d="M107.9,378.15,93.08,408.83a34.3,34.3,0,0,1-14.3-13.15Z" transform="translate(-5.32 -152.63)" style="fill:#fff;opacity:0.5;isolation:isolate"/></g><path d="M5.32,438.48c0,4.87,130,8.84,290.37,8.84s290.39-4,290.39-8.84-130-8.84-290.38-8.84S5.32,433.6,5.32,438.48Z" transform="translate(-5.32 -152.63)" style="fill:#1d1d1b;opacity:0.10000000149011612;isolation:isolate"/><g style="clip-path:url(#clip-path-2)"><path d="M434.66,378.4a38.48,38.48,0,1,0,38.48-38.5,38.48,38.48,0,0,0-38.48,38.5Z" transform="translate(-5.32 -152.63)" style="fill:#dad1d1"/><path d="M412.84,378.44a60.4,60.4,0,1,0,0-.08v.08Zm23.18,0a37.15,37.15,0,1,1,37.18,37.12A37.15,37.15,0,0,1,436,378.44v0h0Z" transform="translate(-5.32 -152.63)" style="fill:#1d1715"/><path d="M445.08,378.4a28.06,28.06,0,1,0,28.06-28.07,28.06,28.06,0,0,0-28.06,28.07Z" transform="translate(-5.32 -152.63)" style="fill:#fff"/><path d="M456.23,378.4a16.92,16.92,0,1,0,16.91-16.93,16.93,16.93,0,0,0-16.91,16.93Z" transform="translate(-5.32 -152.63)" style="fill:#dad1d1"/><path d="M487.79,347.88a34,34,0,0,1,14.26,12.89l-28.9,17.39Z" transform="translate(-5.32 -152.63)" style="fill:#fff;opacity:0.5;isolation:isolate"/><path d="M473.15,378.15l-14.81,30.68A34,34,0,0,1,444,395.68Z" transform="translate(-5.32 -152.63)" style="fill:#fff;opacity:0.5;isolation:isolate"/></g></svg>