<svg id="Layer_1" data-name="Layer 1" xmlns="http://www.w3.org/2000/svg" viewBox="0 0 540 226.01"><title>6-01-01</title><path d="M570,405.43c0,4.54-120.91,7.92-270,7.55S30,408.64,30,404.1s120.91-7.92,270-7.55S570,400.89,570,405.43Z" transform="translate(-30 -187)" style="fill:#1d1d1b;opacity:0.10000000149011612;isolation:isolate"/><path d="M269.2,241.74h7.55l.09-37.19A17.53,17.53,0,0,0,259.36,187h-6.1l1.51,7.55h4.57a10,10,0,0,1,10,10Z" transform="translate(-30 -187)" style="fill:#dad1d1"/><path d="M49.12,340.53v18.76A16.69,16.69,0,0,0,65.67,376l234,.57.1-40.2L59.2,335.78C53.62,335.73,49.13,335,49.12,340.53Z" transform="translate(-30 -187)" style="fill:#88a84c"/><path d="M49.12,340.53v18.76a16.28,16.28,0,0,0,.91,5.45l237.8.59.07-29-228.68-.56C53.62,335.73,49.13,335,49.12,340.53Z" transform="translate(-30 -187)" style="fill:#88a84c"/><path d="M286.28,300.87h-5.45A12.8,12.8,0,0,0,268,313.62l-.13,51.66h18.25Z" transform="translate(-30 -187)" style="fill:#88a84c"/><path d="M158,376.19H145.28l-1.47-8.41L141.28,353c-.08-.4-.15-.79-.22-1.18a22,22,0,0,0-14.12-15.93,22.92,22.92,0,0,0-7.43-1.27l-22.94-.06a20.37,20.37,0,0,0-7,1.24,20.14,20.14,0,0,0-12.9,15.41l-2.92,16.32L72.22,376H65.67a16.43,16.43,0,0,1-6-1.13l1.55-8.61L64.3,349a32.74,32.74,0,0,1,32.3-27l22.94.06a35,35,0,0,1,34,28.32v.18a4.51,4.51,0,0,1,.09.53l2.51,14.5h0l.16.89Z" transform="translate(-30 -187)" style="fill:#a7cb64"/><path d="M252.82,376.42H240.1L238.62,368l-2.56-14.72c-.09-.45-.14-.83-.22-1.18a22.06,22.06,0,0,0-14.11-15.93,23,23,0,0,0-7.44-1.27H191.36a20.17,20.17,0,0,0-19.92,16.64l-2.91,16.32-1.53,8.4H154.25l1.76-9.73.15-.87h0l2.91-16.28a32.75,32.75,0,0,1,32.31-27l22.93.06a34.64,34.64,0,0,1,27.61,13.85,34.11,34.11,0,0,1,6.39,14.38l2.8,16.12Z" transform="translate(-30 -187)" style="fill:#a7cb64"/><path d="M96.59,330.86l22.93.06A25.9,25.9,0,0,1,145,352.38l4.13,23.79L68.25,376l.3-.71L73,350.58A24,24,0,0,1,96.59,330.86Z" transform="translate(-30 -187)" style="fill:#1d1715"/><path d="M152.65,367.11l-2.7-15.6c0-.16-.06-.32-.07-.47a31,31,0,0,0-30.35-25.19L96.6,325.8A29,29,0,0,0,68,349.7l-.21,1.14-2.86,16.05L63.27,376h5.15l.13-.69L70.06,367l2.87-16.06v-.26A23.93,23.93,0,0,1,96.55,330.9l22.93.05A25.87,25.87,0,0,1,144.69,351c.1.45.18.9.26,1.35l2.56,14.72,1.59,9.06h5.14Z" transform="translate(-30 -187)" style="fill:#88a84c"/><path d="M191.38,331.09l22.93.06a25.89,25.89,0,0,1,25.44,21.46l4.14,23.79L163,376.2l.3-.7,4.41-24.68A24,24,0,0,1,191.38,331.09Z" transform="translate(-30 -187)" style="fill:#1d1715"/><path d="M247.44,367.34l-2.7-15.59a2.43,2.43,0,0,0-.08-.47,30.94,30.94,0,0,0-30.34-25.19L191.39,326a29,29,0,0,0-28.63,23.9l-.2,1.15L159.7,367.1l-1.64,9h5.15l.12-.69,1.51-8.36L167.72,351v-.27A23.93,23.93,0,0,1,191.34,331l22.93.06a25.88,25.88,0,0,1,25.17,20.12c.1.44.18.89.26,1.34l2.56,14.72,1.59,9.06H249Z" transform="translate(-30 -187)" style="fill:#88a84c"/><path d="M280.37,228.41c-.05,19.62,0,69.37-.14,139.08a9,9,0,0,0,8.94,9l247.59.61c7.91-3.69,14.54-5.39,14.56-13.07,0-6.89-.05-12.55,0-17.3v-2.87c-.06-19-.06-21.58,0-31.2v-.74a19.23,19.23,0,0,0-.11-2.15,15.5,15.5,0,0,0-1.51-5.34c-2.2-4.52-6.92-8.21-15.77-9.36C509.92,292,438,284,438,284a4.85,4.85,0,0,1-1.13-.31,5.74,5.74,0,0,1-1.47-.72,6.88,6.88,0,0,1-1.3-1.11,6,6,0,0,1-.83-1.12,19.71,19.71,0,0,1-.92-2.68c-4-9.86-10.41-44.55-7.76-50.79.15-.34-.2-.73-.3-1.11s-.22-.74-.35-1.12c-2.83-8.7-8.74-14.34-23.77-14.37l-101.84-.18A18,18,0,0,0,280.37,228.41Z" transform="translate(-30 -187)" style="fill:#a7cb64"/><path d="M267.87,365.31s7.95,11.13,12.89,11.14l247.8.61c13.18,0,14.54-4.19,14.31-10.87Z" transform="translate(-30 -187)" style="fill:#88a84c"/><path d="M387.28,359.41h17.36a8.13,8.13,0,0,0,8.16-8.1v0h0l.29-118A11.24,11.24,0,0,0,401.9,222h0l-47.32-.11a11.23,11.23,0,0,0-11.27,11.19h0l-.29,118a8.13,8.13,0,0,0,8.1,8.16H368.5Z" transform="translate(-30 -187)" style="fill:#88a84c"/><path d="M418.74,231l-.11,44.29a6.43,6.43,0,0,0,6.41,6.45h9.09a7.55,7.55,0,0,1-.83-1.12c-.47-.8-6.36-40.27-8.67-53.45-.07-.38-.19-.74-.3-1.12h-.64A5,5,0,0,0,418.74,231Z" transform="translate(-30 -187)" style="fill:#403430"/><path d="M417.62,231l-.1,44.29a7.53,7.53,0,0,0,7.5,7.56h10.42a7,7,0,0,1-1.31-1.12,7.55,7.55,0,0,1-.83-1.12h-8.25a5.31,5.31,0,0,1-5.3-5.32h0l.11-44.3a3.83,3.83,0,0,1,3.81-3.81h1c-.09-.37-.19-.74-.3-1.12s-.22-.74-.35-1.11h-.29a6.08,6.08,0,0,0-6.11,6.05Z" transform="translate(-30 -187)" style="fill:#1d1715"/><path d="M353.88,281.6l48.38.12a6.25,6.25,0,0,0,6.27-6.23h0l.1-43.16a6.25,6.25,0,0,0-6.23-6.27h0l-48.4-.12a6.25,6.25,0,0,0-6.27,6.23h0l-.1,43.16a6.24,6.24,0,0,0,6.22,6.26h0Z" transform="translate(-30 -187)" style="fill:#403430"/><path d="M346.53,275.33l.11-43.16a7.39,7.39,0,0,1,7.38-7.35l48.38.12a7.38,7.38,0,0,1,7.35,7.39l-.11,43.16a7.37,7.37,0,0,1-7.37,7.35h0l-48.38-.12A7.38,7.38,0,0,1,346.53,275.33ZM354,227.06a5.13,5.13,0,0,0-5.15,5.11h0l-.11,43.16a5.14,5.14,0,0,0,5.12,5.15l48.38.12a5.14,5.14,0,0,0,5.15-5.13h0l.11-43.16a5.16,5.16,0,0,0-5.13-5.14Z" transform="translate(-30 -187)" style="fill:#a7cb64"/><path d="M351,291.79c0,1.52,4.17,2.76,9.33,2.78s9.33-1.21,9.34-2.74-4.17-2.76-9.33-2.77S351,290.27,351,291.79Z" transform="translate(-30 -187)" style="fill:#fff"/><path d="M350.73,232.18l2.1,5,21.6,41.48h21.06L369.13,229H354A3.27,3.27,0,0,0,350.73,232.18Z" transform="translate(-30 -187)" style="fill:#5b514e"/><path d="M371.8,229l26.26,49.77h4.21a3.34,3.34,0,0,0,2.21-.86L378.68,229Z" transform="translate(-30 -187)" style="fill:#5b514e"/><path d="M294.28,265.48l36.94.09a6.27,6.27,0,0,0,6.27-6.24l.06-27.18a6.25,6.25,0,0,0-6.23-6.27h0l-36.94-.09a6.25,6.25,0,0,0-6.27,6.23h0L288,259.21a6.27,6.27,0,0,0,6.27,6.27Z" transform="translate(-30 -187)" style="fill:#403430"/><path d="M286.93,259.21,287,232a7.37,7.37,0,0,1,7.37-7.35h0l36.94.09a7.37,7.37,0,0,1,7.35,7.37h0l-.06,27.18a7.38,7.38,0,0,1-7.39,7.35l-36.94-.09A7.37,7.37,0,0,1,286.93,259.21Zm7.44-32.3a5.13,5.13,0,0,0-5.14,5.12h0l-.07,27.18a5.14,5.14,0,0,0,5.12,5.15l37,.09a5.13,5.13,0,0,0,5.14-5.12h0l.07-27.18a5.14,5.14,0,0,0-5.12-5.15Z" transform="translate(-30 -187)" style="fill:#1d1715"/><path d="M290.94,232v7.36l12,23.27,21,.06-18.07-34.08H294.38A3.43,3.43,0,0,0,290.94,232Z" transform="translate(-30 -187)" style="fill:#5b514e"/><path d="M308.53,228.65l18,34.08h4.74a3.4,3.4,0,0,0,1.83-.54l-17.7-33.52Z" transform="translate(-30 -187)" style="fill:#5b514e"/><path d="M400.08,275.55a2,2,0,0,0,2,2h6.57a2.07,2.07,0,0,0,2.07-2.06l.07-25.76a3.09,3.09,0,0,0-3.08-3.1H403a2.87,2.87,0,0,0-2.87,2.85Z" transform="translate(-30 -187)" style="fill:#88a84c"/><path d="M419.06,289.2a1.89,1.89,0,0,0,.84-.2,1.85,1.85,0,0,0,.8-2.49l-12.24-23.82a1.85,1.85,0,0,0-3.34,1.6h0l.05.09,12.25,23.82A1.81,1.81,0,0,0,419.06,289.2Z" transform="translate(-30 -187)" style="fill:#dad1d1"/><path d="M556,350.89l-26.73-.06a5,5,0,0,0-5,5l-.06,21.2,31.07.07a5.73,5.73,0,0,0,5.74-5.71V355.92a5,5,0,0,0-5-5Z" transform="translate(-30 -187)" style="fill:#dad1d1"/><path d="M541.93,314.86l-.06,26.73a5.18,5.18,0,0,0,5.16,5.2h3.14a7,7,0,0,0,1.12-.09v-2.87a4.57,4.57,0,0,0,3.49-4.42V317.09a4.54,4.54,0,0,0-3.59-4.46v-.74a19.23,19.23,0,0,0-.11-2.15,6.07,6.07,0,0,0-.85-.06H547.1A5.2,5.2,0,0,0,541.93,314.86Z" transform="translate(-30 -187)" style="fill:#88a84c"/><path d="M544.76,314.87l-.06,26.73A2.35,2.35,0,0,0,547,344h3.14a4.45,4.45,0,0,0,1.09-.13,4.57,4.57,0,0,0,3.49-4.42V317.09a4.54,4.54,0,0,0-3.59-4.46,4.21,4.21,0,0,0-1-.12H547A2.35,2.35,0,0,0,544.76,314.87Z" transform="translate(-30 -187)" style="fill:#f9b659"/><path d="M436.91,283.64V285a10.61,10.61,0,0,0,9.69,10.59l103,8.82c-2.2-4.52-6.92-8.21-15.77-9.36C509.92,292,438,284,438,284A5.16,5.16,0,0,1,436.91,283.64Z" transform="translate(-30 -187)" style="fill:#88a84c"/><path d="M422.17,376.8H436l1.53-8.39.44-2.51,2.47-13.82a20.22,20.22,0,0,1,19.93-16.65l22.92.06a22.07,22.07,0,0,1,21.55,17.2c.08.4.15.79.23,1.19l2.1,12.19.45,2.53,1.47,8.38h12.73l-1.69-9.7-.17-.89h0l-.06-.3-2.45-14.19a4.51,4.51,0,0,0-.09-.53v-.19a34,34,0,0,0-6.4-14.37A34.59,34.59,0,0,0,483.28,323H460.36a32.73,32.73,0,0,0-32.31,27l-2.87,16-.21,1.19Z" transform="translate(-30 -187)" style="fill:#88a84c"/><path d="M460.33,331.74l22.93.05a25.9,25.9,0,0,1,25.45,21.47l4.14,23.79-80.86-.2.31-.71,4.41-24.68A24,24,0,0,1,460.33,331.74Z" transform="translate(-30 -187)" style="fill:#1d1715"/><path d="M516.4,368l-2.7-15.6a3.55,3.55,0,0,0-.08-.47,31,31,0,0,0-30.34-25.19l-22.94-.05a29,29,0,0,0-28.62,23.9l-.21,1.14-2.85,16-1.66,9.1h5.16l.12-.69,1.51-8.36,2.88-16.06v-.26a24,24,0,0,1,23.61-19.74l22.94.06a25.88,25.88,0,0,1,25.17,20.12c.1.45.18.9.26,1.35l2.6,14.75,1.59,9.06H518Z" transform="translate(-30 -187)" style="fill:#a7cb64"/><path d="M267.37,303.71h10.7a4.47,4.47,0,0,0,4.48-4.46h0l.15-59.59a4.47,4.47,0,0,0-4.46-4.48h-10.7a4.46,4.46,0,0,0-4.48,4.44h0l-.15,59.59a4.46,4.46,0,0,0,4.44,4.48h0Z" transform="translate(-30 -187)" style="fill:#dad1d1"/><path d="M561,357.42v14a5.73,5.73,0,0,1-5.74,5.71h-42.4l-80.86-.2h-5l-127.38-.31h0l-234-.57H63.27v-.18a15.24,15.24,0,0,1-2.41-.53c-.41-.13-.82-.26-1.21-.42h0a16.64,16.64,0,0,1-10.6-15.53V340.63a5.58,5.58,0,0,1,.57-2.69Z" transform="translate(-30 -187)" style="fill:#1d1d1b;opacity:0.20000000298023224;isolation:isolate"/><path d="M92.44,369.05a16.34,16.34,0,1,0,16.38-16.3A16.35,16.35,0,0,0,92.44,369.05Z" transform="translate(-30 -187)" style="fill:#362a2b"/><path d="M73.57,369a35.21,35.21,0,1,0,35.27-35.15A35.2,35.2,0,0,0,73.57,369Zm13.53,0a21.69,21.69,0,1,1,0,.05Z" transform="translate(-30 -187)" style="fill:#1d1715"/><path d="M87.17,369.05a21.61,21.61,0,1,0,21.65-21.57h0A21.59,21.59,0,0,0,87.17,369Zm2.34,0a19.27,19.27,0,1,1,19.24,19.31,19.27,19.27,0,0,1-19.24-19.31Z" transform="translate(-30 -187)" style="fill:#dadada"/><path d="M95.54,369.07a13.24,13.24,0,1,0,13.26-13.23,13.24,13.24,0,0,0-13.26,13.23Zm4.91,0a8.33,8.33,0,1,1,8.32,8.35,8.33,8.33,0,0,1-8.32-8.35Z" transform="translate(-30 -187)" style="fill:#ededed"/><path d="M100.45,369.07a8.33,8.33,0,1,0,8.35-8.31h0A8.34,8.34,0,0,0,100.45,369.07Zm5.15-3.17a1.19,1.19,0,1,1,0-1.69h0A1.21,1.21,0,0,1,105.6,365.9Zm3.88-1.93a.69.69,0,0,1-.69.69h0a.69.69,0,1,1,.69-.69Zm4.17,1.94a1.21,1.21,0,0,1-1.69,0,1.2,1.2,0,0,1,0-1.68,1.21,1.21,0,0,1,1.69,0A1.2,1.2,0,0,1,113.65,365.91Zm.25,3.88a.7.7,0,1,1,.69-.71h0a.7.7,0,0,1-.69.71Zm-1.9,2.49a1.2,1.2,0,0,1,1.68,0A1.2,1.2,0,0,1,112,374h0a1.19,1.19,0,0,1,0-1.68h0Zm-3.88,1.92a.69.69,0,0,1,.69-.69h0a.7.7,0,1,1-.69.71Zm-2.46-5.12a3.16,3.16,0,1,1,3.15,3.17,3.15,3.15,0,0,1-3.15-3.17v0ZM104,372.27a1.18,1.18,0,0,1,1.67,0h0a1.2,1.2,0,0,1,0,1.68,1.2,1.2,0,1,1-1.72-1.68Zm-.94-3.19a.67.67,0,0,1,.65-.69h0a.69.69,0,1,1-.69.69Z" transform="translate(-30 -187)" style="fill:#c6c6c6"/><path d="M89.51,369.05a19.27,19.27,0,1,0,19.31-19.23h0A19.28,19.28,0,0,0,89.51,369.05Zm7-7.06a2.15,2.15,0,1,1-1.23-2.78h0l.3.14a2,2,0,0,1,1,2.64h-.07Zm12.26-6.15a13.25,13.25,0,1,1-13.26,13.24h0a13.25,13.25,0,0,1,13.27-13.23h0Zm-7.07,1a2.15,2.15,0,1,1,.32-3l0,0a1.51,1.51,0,0,1,.18.26,2,2,0,0,1-.49,2.75Zm8.9-4a1.84,1.84,0,1,1-1.82-2.14,2,2,0,0,1,1.85,2.12Zm7.89,3.1a1.85,1.85,0,1,1-.51-2.75,2,2,0,0,1,.54,2.73Zm5.27,6.63a1.84,1.84,0,1,1,.94-2.64,2,2,0,0,1-.91,2.62ZM125,371a1.84,1.84,0,1,1,2.13-1.82A2,2,0,0,1,125,371Zm-4,5.24a2.15,2.15,0,1,1,1.21,2.79l-.29-.14a2,2,0,0,1-.94-2.67h0Zm-5.19,5.18a2.16,2.16,0,1,1-.28,3l0,0a1.87,1.87,0,0,1-.2-.29,2,2,0,0,1,.51-2.77Zm-8.9,4a1.84,1.84,0,1,1,3.63-.57v0a1.63,1.63,0,0,1,0,.54,1.84,1.84,0,0,1-3.64.54,1.67,1.67,0,0,1,0-.59ZM99,382.31a1.84,1.84,0,1,1,.5,2.76,2,2,0,0,1-.5-2.77Zm-5.28-6.63a1.84,1.84,0,1,1-.94,2.64,2,2,0,0,1,.94-2.65Zm-3.39-6.57a2.16,2.16,0,1,1,2.47,1.8h-.34a2,2,0,0,1-2.13-1.84Z" transform="translate(-30 -187)" style="fill:#c6c6c6"/><path d="M187.23,369.28A16.34,16.34,0,1,0,203.63,353h0a16.33,16.33,0,0,0-16.38,16.28h0Z" transform="translate(-30 -187)" style="fill:#362a2b"/><path d="M168.36,369.26a35.21,35.21,0,1,0,35.27-35.15h0a35.2,35.2,0,0,0-35.27,35.15Zm13.53,0A21.68,21.68,0,1,1,203.53,391a21.68,21.68,0,0,1-21.64-21.74v0Z" transform="translate(-30 -187)" style="fill:#1d1715"/><path d="M182,369.28a21.61,21.61,0,1,0,21.65-21.57h0A21.62,21.62,0,0,0,182,369.28Zm2.34,0a14.12,14.12,0,1,1,0,.07Z" transform="translate(-30 -187)" style="fill:#dadada"/><path d="M190.32,369.3a13.25,13.25,0,1,0,13.28-13.22h0A13.25,13.25,0,0,0,190.32,369.3Zm4.92,0a8.33,8.33,0,1,1,8.32,8.34h0a8.33,8.33,0,0,1-8.31-8.33Z" transform="translate(-30 -187)" style="fill:#ededed"/><path d="M195.24,369.31a8.33,8.33,0,1,0,8.35-8.31h0a8.32,8.32,0,0,0-8.34,8.3h0Zm5.14-3.18a1.19,1.19,0,0,1-1.68,0,1.2,1.2,0,0,1,0-1.69,1.19,1.19,0,0,1,1.68,0h0A1.2,1.2,0,0,1,200.38,366.13Zm3.89-1.92a.69.69,0,0,1-.69.69h0a.71.71,0,0,1-.69-.7.7.7,0,0,1,1.39,0Zm4.17,1.93a1.19,1.19,0,1,1,0-1.69h0A1.2,1.2,0,0,1,208.44,366.14Zm.24,3.89a.71.71,0,0,1-.69-.7.7.7,0,0,1,1.39,0,.72.72,0,0,1-.7.67Zm-1.93,2.49a1.19,1.19,0,0,1,1.69,1.68,1.19,1.19,0,0,1-1.69,0h0a1.07,1.07,0,0,1-.39-1.46l0-.08a.31.31,0,0,1,.34-.14Zm-3.88,1.91a.69.69,0,0,1,.69-.69h0a.72.72,0,0,1,.7.7.71.71,0,0,1-.7.69.67.67,0,0,1-.69-.65v0h0Zm-2.46-5.11a3.16,3.16,0,1,1,3.16,3.16h0a3.15,3.15,0,0,1-3.16-3.16Zm-1.72,3.18a1.19,1.19,0,1,1,1.69,1.68h0a1.19,1.19,0,0,1-1.68,0h0A1.2,1.2,0,0,1,198.69,372.5Zm-.93-3.19a.69.69,0,0,1,.69-.69h0a.69.69,0,1,1-.69.69Z" transform="translate(-30 -187)" style="fill:#c6c6c6"/><path d="M184.3,369.28a19.27,19.27,0,1,0,19.31-19.23h0a19.26,19.26,0,0,0-19.31,19.21Zm7-7a2.16,2.16,0,1,1-1.24-2.79h0a1.77,1.77,0,0,1,.31.15,2,2,0,0,1,1,2.59Zm12.26-6.15a13.25,13.25,0,1,1-13.27,13.23h0a13.24,13.24,0,0,1,13.21-13.27h.09Zm-7.08,1a2.15,2.15,0,1,1,.31-3l0,0a1.31,1.31,0,0,1,.19.27,2,2,0,0,1-.49,2.68Zm8.9-4a1.84,1.84,0,1,1-1.81-2.14,2,2,0,0,1,1.84,2.07Zm7.89,3.09a1.84,1.84,0,1,1-.5-2.75,2,2,0,0,1,.53,2.68Zm5.28,6.64a1.85,1.85,0,1,1-2.36-2.85,1.81,1.81,0,0,1,.54-.31,1.85,1.85,0,0,1,2.36,2.85h0a1.81,1.81,0,0,1-.54.31Zm1.26,8.37a1.84,1.84,0,1,1,2.13-1.81,2,2,0,0,1-2.1,1.74Zm-4,5.25a2.15,2.15,0,1,1,1.18,2.8,2.07,2.07,0,0,1-.52-.3,2.17,2.17,0,0,1-.66-2.5Zm-5.19,5.17a2.15,2.15,0,1,1-.32,3l0,0a1.51,1.51,0,0,1-.18-.26,2,2,0,0,1,.46-2.79h.06Zm-8.9,4a1.84,1.84,0,1,1,1.82,2.13,2,2,0,0,1-1.82-2.16h0Zm-7.89-3.1a1.84,1.84,0,1,1,.51,2.75,2,2,0,0,1-.53-2.78h0Zm-5.27-6.63a1.84,1.84,0,1,1-.94,2.64,2,2,0,0,1,.9-2.68h0Zm-3.39-6.57a2.16,2.16,0,1,1,2.47,1.8h0a1.93,1.93,0,0,1-.34,0,2,2,0,0,1-2.12-1.87h0Z" transform="translate(-30 -187)" style="fill:#c6c6c6"/><path d="M456.19,369.92a16.34,16.34,0,1,0,16.39-16.29h0a16.33,16.33,0,0,0-16.38,16.28h0Z" transform="translate(-30 -187)" style="fill:#362a2b"/><path d="M437.31,369.91a35.21,35.21,0,1,0,35.27-35.15,35.2,35.2,0,0,0-35.27,35.15Zm13.54,0a21.68,21.68,0,1,1,21.65,21.71h0a21.68,21.68,0,0,1-21.64-21.69Z" transform="translate(-30 -187)" style="fill:#1d1715"/><path d="M450.92,369.93a21.61,21.61,0,1,0,21.65-21.57h0a21.6,21.6,0,0,0-21.64,21.56h0Zm2.34,0a19.29,19.29,0,1,1,0,.05Z" transform="translate(-30 -187)" style="fill:#dadada"/><path d="M459.28,370a13.25,13.25,0,1,0,13.27-13.23A13.25,13.25,0,0,0,459.28,370Zm4.92,0a8.33,8.33,0,1,1,8.32,8.34h0A8.32,8.32,0,0,1,464.2,370Z" transform="translate(-30 -187)" style="fill:#ededed"/><path d="M464.2,370a8.33,8.33,0,1,0,8.35-8.31h0a8.32,8.32,0,0,0-8.34,8.3h0Zm5.14-3.17a1.19,1.19,0,0,1-1.68-1.69,1.19,1.19,0,1,1,1.68,1.69Zm3.89-1.93a.71.71,0,0,1-.7.69.69.69,0,1,1,.7-.69Zm4.17,1.94a1.19,1.19,0,1,1,0-1.69,1.21,1.21,0,0,1,0,1.63Zm.24,3.88a.7.7,0,0,1-.17-1.39h.17a.7.7,0,0,1,0,1.39Zm-1.93,2.49a1.19,1.19,0,1,1,1.69,1.68h0a1.19,1.19,0,0,1-1.68,0h0a1.21,1.21,0,0,1,0-1.69h0Zm-3.89,1.92a.7.7,0,1,1,.71.69h0a.69.69,0,0,1-.69-.69h0ZM469.36,370a3.16,3.16,0,1,1,3.16,3.17,3.15,3.15,0,0,1-3.16-3.17Zm-1.71,3.18a1.19,1.19,0,1,1,0,1.69,1.2,1.2,0,0,1,0-1.7h0Zm-.93-3.18a.69.69,0,0,1,.68-.7h0a.71.71,0,0,1,.69.7.69.69,0,0,1-.69.69h0a.67.67,0,0,1-.69-.65v0Z" transform="translate(-30 -187)" style="fill:#c6c6c6"/><path d="M453.26,369.93a19.27,19.27,0,1,0,19.31-19.23h0A19.28,19.28,0,0,0,453.26,369.93Zm7-7.06a2.16,2.16,0,1,1-1.24-2.79h0a1.77,1.77,0,0,1,.31.15,2,2,0,0,1,1,2.64Zm12.26-6.15A13.25,13.25,0,1,1,459.28,370a13.25,13.25,0,0,1,13.24-13.28Zm-7.08,1a2.15,2.15,0,1,1,.34-3l0,0,.2.3a2,2,0,0,1-.53,2.71Zm8.9-4a1.84,1.84,0,1,1-1.82-2.14,2,2,0,0,1,1.85,2.12Zm7.89,3.1a1.84,1.84,0,1,1-.51-2.76,2,2,0,0,1,.54,2.74Zm5.28,6.63a1.84,1.84,0,1,1,.93-2.64,2,2,0,0,1-.9,2.62Zm1.25,8.38A1.84,1.84,0,1,1,490.9,370a2,2,0,0,1-2.11,1.8Zm-4,5.24a2.16,2.16,0,1,1,1.23,2.8l-.3-.15a2,2,0,0,1-.93-2.67Zm-5.18,5.17a2.16,2.16,0,1,1-.3,3l0,0a2.75,2.75,0,0,1-.19-.28,2,2,0,0,1,.52-2.78Zm-8.91,4a1.85,1.85,0,1,1,3.65-.61h0a2.08,2.08,0,0,1,0,.61,1.85,1.85,0,0,1-3.65.61,2.08,2.08,0,0,1,0-.61Zm-7.88-3.11a1.84,1.84,0,1,1,.51,2.76A2,2,0,0,1,462.79,383.13Zm-5.28-6.63a1.85,1.85,0,1,1-.94,2.64A2,2,0,0,1,457.51,376.5Zm-3.39-6.57a2.16,2.16,0,1,1,2.47,1.8h-.34a2,2,0,0,1-2.13-1.83Z" transform="translate(-30 -187)" style="fill:#c6c6c6"/><path d="M282.58,286.52v12.76a4.47,4.47,0,0,1-4.48,4.46H267.4a4.46,4.46,0,0,1-4.46-4.46h0l.08-33.81Z" transform="translate(-30 -187)" style="fill:#1d1d1b;opacity:0.20000000298023224;isolation:isolate"/></svg>