<svg id="Layer_1" data-name="Layer 1" xmlns="http://www.w3.org/2000/svg" viewBox="0 0 527.37 228.98"><title>20</title><path d="M49.47,353.42H56V309.74H47.39a9.53,9.53,0,0,0-9.5,8.82l-1.53,20.75a13.13,13.13,0,0,0,12.13,14.07C48.82,353.41,49.14,353.42,49.47,353.42Z" transform="translate(-36.32 -185.51)" style="fill:#c44645"/><path d="M441.53,185.51a48.59,48.59,0,0,1,39.72,20.61l.05.08,66.12,94.33,11.07,15.78a18.31,18.31,0,0,1,3.28,10.42v40.42a18.16,18.16,0,0,1-18.16,18.18H96.31A53.7,53.7,0,0,1,48.18,355.6c-.73-1.46-1.39-3-2-4.51a53.31,53.31,0,0,1-3.7-19.61l7.74-119.16c.87-23.9,5.72-26.82,26.8-26.81Z" transform="translate(-36.32 -185.51)" style="fill:#a7cb64"/><path d="M104.9,351.09H440.8a37.22,37.22,0,0,0-6.49,21v13.23H97a54.48,54.48,0,0,1-50.85-34.24Z" transform="translate(-36.32 -185.51)" style="fill:#88a84c"/><rect x="256.75" y="14.23" width="82.35" height="174.02" rx="5.89" style="fill:#88a84c"/><rect x="262.78" y="20.03" width="71.08" height="65.76" rx="3.38" style="fill:#403430"/><path d="M386,367.87a5.89,5.89,0,0,0,5.88,5.89h13.56a12.41,12.41,0,0,0,12.08-10.2A51.91,51.91,0,0,1,457.93,323a13.4,13.4,0,0,0,10.45-13.24V207.43a7.68,7.68,0,0,0-7.67-7.69h-67a7.68,7.68,0,0,0-7.68,7.68h0Z" transform="translate(-36.32 -185.51)" style="fill:#88a84c;fill-rule:evenodd"/><path d="M395.84,205.54h63.1a4.17,4.17,0,0,1,4.16,4.15v66a4.16,4.16,0,0,1-4.18,4.16l-.51,0-63.09-8a4.14,4.14,0,0,1-3.63-4.12v-58a4.15,4.15,0,0,1,4.15-4.15Z" transform="translate(-36.32 -185.51)" style="fill:#403430"/><path d="M477.16,211.66l51.43,73.4a1.88,1.88,0,0,1-.45,2.61,1.94,1.94,0,0,1-1.32.32l-51.42-6.54a1.87,1.87,0,0,1-1.64-1.86V212.73a1.87,1.87,0,0,1,3.4-1.07Z" transform="translate(-36.32 -185.51)" style="fill:#88a84c"/><polygon points="440.76 31.87 440.76 92.78 468.95 96.37 487.63 98.74 440.76 31.87" style="fill:#403430"/><path d="M495.4,298.25a2.2,2.2,0,0,0,1-.27,2.1,2.1,0,0,0,.81-2.87l-12.45-22.25a2.11,2.11,0,0,0-3.75,1.93.83.83,0,0,0,.07.13l12.45,22.25A2.11,2.11,0,0,0,495.4,298.25Z" transform="translate(-36.32 -185.51)" style="fill:#dad1d1"/><path d="M482.39,253.38c4,.94,6.54,9.27,5.6,19.17s-5,17.62-9.11,17.78Z" transform="translate(-36.32 -185.51)" style="fill:#88a84c;fill-rule:evenodd"/><path d="M506.85,371.59a40.51,40.51,0,0,1-2.4,13.74H543.6a18.18,18.18,0,0,0,18.17-18.18V326.73a17.6,17.6,0,0,0-.34-3.47H556a55.93,55.93,0,0,0-8.57.66,58.61,58.61,0,0,0-28.8,12.81l-17.29,14.36A40.65,40.65,0,0,1,506.85,371.59Z" transform="translate(-36.32 -185.51)" style="fill:#88a84c"/><path d="M549.32,305v29.25a8.78,8.78,0,0,0,8.77,8.78h2.6a3,3,0,0,0,3-3v-13.3a16.82,16.82,0,0,0-.36-3.47,17.82,17.82,0,0,0-2.92-6.95l-8.5-12.1a1.42,1.42,0,0,0-2.59.79Z" transform="translate(-36.32 -185.51)" style="fill:#f9b659"/><rect x="511.1" y="162.53" width="14.36" height="2.59" style="fill:#1d1715"/><rect x="511.1" y="167.47" width="14.36" height="2.62" style="fill:#1d1715"/><rect x="511.1" y="172.45" width="14.36" height="2.59" style="fill:#1d1715"/><rect x="511.1" y="177.43" width="14.36" height="2.59" style="fill:#1d1715"/><path d="M440.8,351.09a37.25,37.25,0,0,1,30.77-16.25h.75a37.28,37.28,0,0,1,37.26,37.26v13.23H434.31V372.1A37.15,37.15,0,0,1,440.8,351.09Z" transform="translate(-36.32 -185.51)" style="fill:#1d1715"/><path d="M122.89,351.09a37.2,37.2,0,0,1,30.76-16.25h.75a37.26,37.26,0,0,1,37.26,37.26h0v13.23H116.39V372.1A37,37,0,0,1,122.89,351.09Z" transform="translate(-36.32 -185.51)" style="fill:#1d1715"/><path d="M62.11,276.46H274.58a6.18,6.18,0,0,0,6.18-6.18V205.93a6.2,6.2,0,0,0-6.18-6.19H66.88a6.2,6.2,0,0,0-6.18,6.19l-4.78,64.35A6.2,6.2,0,0,0,62.11,276.46Z" transform="translate(-36.32 -185.51)" style="fill:#88a84c"/><rect x="140.23" y="20.03" width="97.78" height="65.76" rx="3.78" style="fill:#403430"/><path d="M160.13,210.27v56.3a4.73,4.73,0,0,1-4.73,4.73H67.08a4.73,4.73,0,0,1-4.73-4.73h0l4.55-56.3a4.75,4.75,0,0,1,4.74-4.73H155.4a4.73,4.73,0,0,1,4.73,4.73Z" transform="translate(-36.32 -185.51)" style="fill:#403430"/><path d="M393.35,282.62c0,1.55,4.16,2.8,9.3,2.8s9.31-1.25,9.31-2.8-4.16-2.8-9.31-2.8S393.35,281.08,393.35,282.62Z" transform="translate(-36.32 -185.51)" style="fill:#dad1d1"/><path d="M43.83,310.43l.78-11.9,517.16,49.73v18.89a18.16,18.16,0,0,1-16.94,18.11c-.41,0-.82.07-1.23.07H96.31A53.7,53.7,0,0,1,48.18,355.6c-.1-.18-.17-.38-.26-.58-.3-.6-.56-1.22-.83-1.83a13.11,13.11,0,0,1-10.73-13.88l1.53-20.75A9.53,9.53,0,0,1,43.83,310.43Z" transform="translate(-36.32 -185.51)" style="opacity:0.05000000074505806;isolation:isolate"/><path d="M485.05,373.76a13.12,13.12,0,1,1-13.12-13.12h0a13.11,13.11,0,0,1,13.12,13.1Z" transform="translate(-36.32 -185.51)" style="fill:#fff;fill-rule:evenodd"/><path d="M439,373.76a32.89,32.89,0,1,0,0-.09Zm10.55,0a27.14,27.14,0,1,1,0,.06v-.06Z" transform="translate(-36.32 -185.51)" style="fill:#1d1715"/><path d="M471.93,350.62a23.14,23.14,0,1,0,23.15,23.14,23.14,23.14,0,0,0-23.15-23.14ZM479,384.41a12.8,12.8,0,0,1-4.48,1.86,12.79,12.79,0,0,1-9.65-1.86,13.09,13.09,0,0,1-3.65-3.69,12.39,12.39,0,0,1-1.82-4.45,12.39,12.39,0,0,1,0-5.19,12.56,12.56,0,0,1,1.85-4.38,12.79,12.79,0,0,1,23.43,7.06,15.13,15.13,0,0,1-.24,2.51,13.08,13.08,0,0,1-5.47,8.14Zm1.38-22.85a14.79,14.79,0,0,0-5.86-2.41v-6.27a20.82,20.82,0,0,1,10.29,4.26Zm-11-2.41a14.77,14.77,0,0,0-5.87,2.41l-4.42-4.42a20.73,20.73,0,0,1,10.29-4.26Zm-9.55,6.06a15,15,0,0,0-2.46,5.87h-6.28a21,21,0,0,1,4.32-10.3Zm-2.49,11.06a14.58,14.58,0,0,0,2.43,5.93l-4.43,4.44a20.69,20.69,0,0,1-4.26-10.37Zm6.08,9.61a14.64,14.64,0,0,0,6,2.49v6.28A20.88,20.88,0,0,1,459,390.32Zm11.14,2.49a14.64,14.64,0,0,0,6-2.49l4.45,4.44a21,21,0,0,1-10.4,4.33Zm9.61-6.17a14.7,14.7,0,0,0,2.42-5.93h6.29a21,21,0,0,1-4.29,10.37Zm2.4-11.12a15.18,15.18,0,0,0-2.47-5.87l4.43-4.43a21.09,21.09,0,0,1,4.32,10.3Z" transform="translate(-36.32 -185.51)" style="fill:#dad1d1"/><path d="M167.14,373.76A13.12,13.12,0,1,1,154,360.64a13.11,13.11,0,0,1,13.14,13.12Z" transform="translate(-36.32 -185.51)" style="fill:#fff;fill-rule:evenodd"/><path d="M121.1,373.76A32.91,32.91,0,1,0,154,340.83a32.9,32.9,0,0,0-32.9,32.93Zm10.54,0A22.37,22.37,0,1,1,154,396.12h0A22.37,22.37,0,0,1,131.64,373.76Z" transform="translate(-36.32 -185.51)" style="fill:#1d1715"/><path d="M154,350.62a23.14,23.14,0,1,0,23.14,23.14A23.14,23.14,0,0,0,154,350.62Zm7.07,33.79a12.8,12.8,0,0,1-4.48,1.86,12.79,12.79,0,0,1-9.65-1.86,13.09,13.09,0,0,1-3.65-3.69,12.39,12.39,0,0,1-1.82-4.45,12.39,12.39,0,0,1,0-5.19,12.56,12.56,0,0,1,1.85-4.38,12.8,12.8,0,0,1,3.68-3.65,13.15,13.15,0,0,1,4.38-1.81,12.64,12.64,0,0,1,9.55,1.82,12.76,12.76,0,0,1,3.68,3.64,12.28,12.28,0,0,1,1.84,4.38,12.1,12.1,0,0,1,.3,2.68,12.69,12.69,0,0,1-5.71,10.65Zm1.38-22.85a14.79,14.79,0,0,0-5.86-2.41v-6.27a20.73,20.73,0,0,1,10.29,4.26Zm-11-2.41a14.79,14.79,0,0,0-5.86,2.41l-4.43-4.42a20.73,20.73,0,0,1,10.29-4.26Zm-9.54,6.06a14.88,14.88,0,0,0-2.47,5.87h-6.28a21,21,0,0,1,4.32-10.3Zm-2.5,11.06a14.58,14.58,0,0,0,2.43,5.93l-4.43,4.44a20.71,20.71,0,0,1-4.27-10.37Zm6.08,9.61a14.64,14.64,0,0,0,6,2.49v6.28A20.85,20.85,0,0,1,141,390.32Zm11.14,2.49a14.71,14.71,0,0,0,6-2.49l4.45,4.44a21,21,0,0,1-10.4,4.33Zm9.61-6.17a14.7,14.7,0,0,0,2.42-5.93h6.28a20.89,20.89,0,0,1-4.27,10.37Zm2.39-11.12a15,15,0,0,0-2.46-5.87l4.43-4.43a21,21,0,0,1,4.32,10.3Z" transform="translate(-36.32 -185.51)" style="fill:#dad1d1"/><polygon points="36.03 23.35 73.56 82.45 103.7 82.45 66.51 23.35 36.03 23.35" style="fill:#5b514e"/><polygon points="70.35 23.35 107.39 82.45 117.13 82.45 80.18 23.35 70.35 23.35" style="fill:#5b514e"/><polygon points="147.01 23.35 184.52 82.45 214.69 82.45 177.49 23.35 147.01 23.35" style="fill:#5b514e"/><polygon points="181.31 23.35 218.37 82.45 228.11 82.45 191.16 23.35 181.31 23.35" style="fill:#5b514e"/><polygon points="266.15 23.35 266.15 37.32 294.79 82.45 324.96 82.45 287.76 23.38 287.74 23.38 266.15 23.35" style="fill:#5b514e"/><polygon points="291.59 23.38 328.64 82.45 330.49 82.45 330.49 69.84 301.46 23.38 291.59 23.38" style="fill:#5b514e"/><path d="M395,209.69v6.64l36,56.61h0l27.85,3.56a.85.85,0,0,0,.82-.83v-5.13l-39-61.68H395.84A.84.84,0,0,0,395,209.69Z" transform="translate(-36.32 -185.51)" style="fill:#5b514e"/><polygon points="388.25 23.35 423.44 79.14 423.44 63.64 398.1 23.35 388.25 23.35" style="fill:#5b514e"/><polygon points="440.76 31.87 440.76 51.83 468.95 96.37 487.63 98.74 440.76 31.87" style="fill:#5b514e"/><path d="M46.37,406.69c0,4.3,114.66,7.8,256.1,7.8s256.1-3.5,256.1-7.8-114.66-7.79-256.1-7.79S46.37,402.39,46.37,406.69Z" transform="translate(-36.32 -185.51)" style="fill:#1d1d1b;opacity:0.10000000149011612;isolation:isolate"/></svg>