<svg xmlns="http://www.w3.org/2000/svg" xmlns:xlink="http://www.w3.org/1999/xlink" viewBox="0 0 1161.3 341.9"><defs><clipPath id="clip-path" transform="translate(-19.35 -429.05)"><path d="M866.5,688.39c22.38,91.7,187.68,90.45,202.42,0l-2.43-25a60.33,60.33,0,0,0-3-13.81,62.15,62.15,0,0,0-58.82-42.2h-74a62.24,62.24,0,0,0-58.86,42.2,63,63,0,0,0-2.93,13.81Z" style="fill:none"/></clipPath><clipPath id="clip-path-2" transform="translate(-19.35 -429.05)"><path d="M200.74,688.39c22.38,91.7,187.67,90.45,202.41,0l-2.43-25a59.81,59.81,0,0,0-3-13.81,62.14,62.14,0,0,0-58.81-42.2H265a61.86,61.86,0,0,0-61.79,56Z" style="fill:none"/></clipPath></defs><title>17</title><g style="isolation:isolate"><g id="Layer_1" data-name="Layer 1"><path d="M53.08,610.58h-9a14.1,14.1,0,0,1-14-12.74l-2.72-28a14.11,14.11,0,0,1,14-15.46h11.7Z" transform="translate(-19.35 -429.05)" style="fill:#e75c5b"/><path d="M1139.09,586.19c-2.55,16.34,2.05,30.62,10.25,31.9s17-10.92,19.5-27.26-2-30.62-10.26-31.9S1141.64,569.85,1139.09,586.19Z" transform="translate(-19.35 -429.05)" style="fill:#f9b659"/><path d="M34.82,554.14l14.11,84.52L88,670.32a82.4,82.4,0,0,0,51.85,18.36h947.33a42,42,0,0,0,31.47-14.19l29.81-33.75,12-77.24a19.75,19.75,0,0,0-16.92-22.58C960,516.58,930.22,515.05,802.51,517l-87.17-76.88A44.39,44.39,0,0,0,686,429.05H531.37c-140,0-175.07,38.76-213.44,81.5-17.92-1.27-173.38,1-265.1,17.93A22.34,22.34,0,0,0,34.82,554.14Z" transform="translate(-19.35 -429.05)" style="fill:#a7cb64"/><path d="M54.25,617.41,43.73,556a17.17,17.17,0,0,1,13.86-19.82c79.82-14.24,205-17.54,245.21-17.49h0c-93.6,9.29-184,18.66-232.19,29.1a16.16,16.16,0,0,0-12.7,14.71Z" transform="translate(-19.35 -429.05)" style="fill:#fff;opacity:0.72"/><path d="M531.37,440.56H683.9a37.53,37.53,0,0,1,25.24,9.76l76.11,69.09-308.57-.56-83.4-6c-.15-.26,41.59-72.26,137.7-72.26Z" transform="translate(-19.35 -429.05)" style="fill:#403430"/><path d="M785.25,519.41c24.4,21,65.22,87,21.75,157.76H515c-20.91,0-36.86-19-32.82-39.53a252.58,252.58,0,0,0-5.45-118.79Z" transform="translate(-19.35 -429.05)" style="fill:#88a84c"/><rect x="498.73" y="8.6" width="10.49" height="81.2" style="fill:#a7cb64"/><path d="M500.53,554.42a8,8,0,0,0,8,8h30.14a8,8,0,0,0,8-8h0a8,8,0,0,0-8-8H508.57a8,8,0,0,0-8,8Z" transform="translate(-19.35 -429.05)" style="fill:#fff"/><path d="M106,666.91H34.88a9.73,9.73,0,0,1-9-5.94l-5.79-13.75a9.73,9.73,0,0,1,9-13.5h71.15a9.72,9.72,0,0,1,9,5.95l5.8,13.74A9.72,9.72,0,0,1,106,666.91Z" transform="translate(-19.35 -429.05)" style="fill:#dad1d1"/><path d="M1133.24,566.54a10.52,10.52,0,0,0-9.07-9.1C929,532.34,825.62,531.79,488.72,528.9l310.82-3.29,11.7-.65c44.35-2.46,159.3-2.88,327.1,22.9a15.79,15.79,0,0,1,13.22,18l-10.72,69.26-21.38,10.45,10.61-58.5C1020.55,568,984.25,558,826.14,552.5,968,546.39,998.25,549.85,1133.24,566.54Z" transform="translate(-19.35 -429.05)" style="fill:#fff;opacity:0.75"/><path d="M35.38,753.77c0,9.49,252.71,17.18,564.45,17.18s564.45-7.69,564.45-17.18S911.56,736.6,599.83,736.6,35.38,744.29,35.38,753.77Z" transform="translate(-19.35 -429.05)" style="fill:#1d1d1b;opacity:0.1"/><path d="M772.74,496.33l1.85.26a14.07,14.07,0,0,1,11.72,10.82l2.7,11.9a18.06,18.06,0,0,1-20.19,21.87l-2.48-.35Z" transform="translate(-19.35 -429.05)" style="fill:#88a84c"/><g style="opacity:0.15"><polygon points="586.73 15.7 660.13 86.13 602.12 86.13 528.1 15.7 586.73 15.7" style="fill:#fff"/><polygon points="613.03 15.7 685.95 86.13 667.21 86.13 594.11 15.7 613.03 15.7" style="fill:#fff"/></g><path d="M1094,666.91h71.16a9.7,9.7,0,0,0,8.95-5.94l5.8-13.75a9.73,9.73,0,0,0-9-13.5h-71.14a9.74,9.74,0,0,0-9,5.95L1085,653.41A9.72,9.72,0,0,0,1094,666.91Z" transform="translate(-19.35 -429.05)" style="fill:#dad1d1"/><path d="M29.08,633.72h19l-3.87-23.14H44.1a14.1,14.1,0,0,1-14-12.74l-.91-9.43,1148.22,64.77-3.29,7.79a9.7,9.7,0,0,1-8.95,5.94h-39.78l-6.69,7.58a42,42,0,0,1-31.47,14.19H139.86A82.4,82.4,0,0,1,88,670.32l-4.2-3.41H34.88a9.73,9.73,0,0,1-9-5.94l-5.79-13.75A9.73,9.73,0,0,1,29.08,633.72Z" transform="translate(-19.35 -429.05)" style="opacity:0.1"/><path d="M866.5,688.39h202.42l-2.43-25a60.33,60.33,0,0,0-3-13.81,62.15,62.15,0,0,0-58.82-42.2h-74a62.24,62.24,0,0,0-58.86,42.2,63,63,0,0,0-2.93,13.81Z" transform="translate(-19.35 -429.05)" style="fill:#1d1715"/><g style="clip-path:url(#clip-path)"><path d="M892.82,669.46c0,1.49.14,3,.29,4.46l-4,.36s-1.46,1.15-3,2.46l-.3.24c-.17.15-.34.31-.5.44.32,2.49.74,4.93,1.27,7.34.08.44.17.87.27,1.27l.66-.7,0,0c.91-.95,1.58-1.61,1.58-1.61l5.29-1.11c.31,1.47.65,2.91,1,4.35l-3.28.89-.6.17-.91,1c-.45.5-1,1.19-1.59,1.9-.11.11-.19.22-.28.32s-.25.32-.38.48a78.71,78.71,0,0,0,3,8.25c.19-.32.39-.62.56-.88l1.2-1.8,5-2c.56,1.39,1.18,2.75,1.81,4.09l-3.6,1.69s-1,1.57-2,3.32l-.26.41c-.08.18-.16.34-.25.5a82.23,82.23,0,0,0,4.4,7.58c.14-.34.28-.64.4-1,.08-.16.17-.38.23-.54.42-.85.68-1.43.68-1.43l4.63-2.89c.78,1.27,1.59,2.53,2.45,3.73l-3.22,2.3s-.72,1.71-1.41,3.63c-.06.13-.09.27-.14.41s-.12.37-.21.59c1.78,2.3,3.64,4.53,5.64,6.66.09-.35.17-.7.24-1,.33-1.23.56-2.11.56-2.11l4-3.63c1,1.11,2,2.21,3.08,3.23l-2.8,2.84s-.39,1.86-.74,3.85c0,.13,0,.24-.06.37s-.07.43-.1.65a82.45,82.45,0,0,0,6.71,5.59c0-.36.05-.7.05-1,.09-1.29.2-2.2.2-2.2l3.31-4.24c1.16.92,2.38,1.79,3.6,2.65l-2.29,3.29s-.08,1.86,0,3.88v.38a5,5,0,0,1,0,.67,79.48,79.48,0,0,0,7.61,4.35c0-.36-.08-.7-.11-1-.15-1.33-.23-2.25-.23-2.25l2.54-4.76q2,1,4,2l-1.68,3.69s.07.53.19,1.32.28,1.57.44,2.47c0,.13.06.27.08.41a4.41,4.41,0,0,0,.12.59,77.51,77.51,0,0,0,8.23,3c-.1-.35-.2-.68-.3-1-.37-1.2-.62-2.07-.62-2.07l1.7-5.19c1.41.47,2.83.88,4.28,1.27l-1,3.86s.55,1.76,1.24,3.67c0,.16.09.3.14.46a3,3,0,0,1,.21.52,82.63,82.63,0,0,0,8.65,1.48c-.18-.33-.34-.63-.47-.9-.56-1.15-1-2-1-2l.75-5.38c1.49.2,3,.37,4.45.49l-.32,4s.88,1.63,1.92,3.41c0,.11.13.22.17.33s.24.38.34.55c.67,0,1.35.09,2,.11,2.24,0,4.48,0,6.69-.13-.21-.28-.42-.56-.6-.83l-1.3-1.81-.17-5.38c1.49,0,3-.14,4.46-.29l.36,4s1.15,1.46,2.46,3l.24.31c.15.16.31.33.44.49a81.28,81.28,0,0,0,8.62-1.54L987,748c-.94-.91-1.61-1.58-1.61-1.58l-1.1-5.29c1.46-.31,2.9-.65,4.34-1l1.06,3.88,1,.92c.5.44,1.19,1,1.91,1.58a2.79,2.79,0,0,0,.32.28c.15.14.31.25.47.39a83.49,83.49,0,0,0,8.25-3c-.32-.2-.61-.4-.88-.56l-1.8-1.21-2-5c1.39-.56,2.76-1.17,4.09-1.81l1.69,3.6s1.57,1,3.33,2l.4.26a4.66,4.66,0,0,1,.5.25,83.58,83.58,0,0,0,7.58-4.4c-.34-.14-.64-.28-1-.4-.16-.08-.37-.17-.53-.23-.85-.42-1.44-.68-1.44-.68l-2.88-4.63c1.26-.78,2.52-1.59,3.73-2.44l2.29,3.21s1.71.72,3.64,1.41c.13.06.26.09.4.14a4.85,4.85,0,0,1,.56.21q2.18-1.65,4.24-3.46c.82-.68,1.65-1.41,2.45-2.17,0,0-.08,0-.13,0-.29-.09-.62-.15-.89-.22l-2.12-.56-3.62-4c1.11-1,2.21-2,3.24-3.08l2.84,2.8s1.85.39,3.84.74l.38.06.64.1a84.2,84.2,0,0,0,5.59-6.71c-.36,0-.7,0-1,0-1.3-.09-2.21-.2-2.21-.2l-4.24-3.31c.92-1.16,1.79-2.38,2.65-3.6l3.29,2.29s1.86.08,3.89,0h.38a5,5,0,0,1,.67,0,81.58,81.58,0,0,0,4.34-7.61c-.35,0-.7.08-1,.13l-2.25.22-4.76-2.55c.7-1.3,1.36-2.64,2-4l3.68,1.68,1.32-.18,2.47-.45.41-.07.59-.13a77.51,77.51,0,0,0,3-8.23l-1,.3-2.06.62-5.2-1.7c.47-1.41.88-2.83,1.27-4.28l3.86,1s1.76-.55,3.67-1.23l.47-.15a2.6,2.6,0,0,1,.51-.21,82.44,82.44,0,0,0,1.48-8.64c-.33.18-.63.33-.9.46-1.14.56-2,1-2,1l-5.38-.75c.2-1.49.37-3,.49-4.45l4,.32s1.63-.88,3.42-1.91l.33-.18c.19-.1.38-.24.54-.34,0-.67.09-1.35.11-2,0-2.24,0-4.47-.13-6.69-.28.21-.55.42-.83.6-1,.76-1.81,1.3-1.81,1.3l-5.37.17c-.05-1.49-.15-3-.3-4.46l4-.36s1.46-1.15,3-2.46l.3-.24c.16-.15.33-.31.5-.44a81.3,81.3,0,0,0-1.55-8.62l-.69.74c-.91,1-1.57,1.61-1.57,1.61l-5.3,1.11c-.31-1.47-.65-2.91-1-4.35l3.89-1.06.91-1c.44-.5,1-1.19,1.58-1.9a2.13,2.13,0,0,0,.28-.33c.14-.15.26-.31.39-.47a86.38,86.38,0,0,0-3-8.25l-.56.88c-.7,1.06-1.21,1.8-1.21,1.8l-5,2c-.55-1.39-1.17-2.75-1.81-4.09l3.6-1.7s1-1.56,2-3.32l.26-.4c.08-.18.17-.34.25-.5a83.58,83.58,0,0,0-4.4-7.58c-.14.34-.28.64-.39,1a2.83,2.83,0,0,0-.23.54c-.43.84-.68,1.43-.68,1.43l-4.64,2.88c-.78-1.26-1.58-2.52-2.44-3.73l3.21-2.29s.72-1.71,1.41-3.64a3.73,3.73,0,0,0,.14-.4c.07-.18.12-.37.21-.56a85.83,85.83,0,0,0-5.63-6.69c0,.11-.06.24-.1.35v0c0,.22-.11.43-.14.62l-.57,2.12-4,3.62c-1-1.11-2-2.21-3.07-3.23l2.79-2.85s.4-1.85.74-3.84c0-.13,0-.24.06-.37s.07-.43.1-.65a84.55,84.55,0,0,0-6.71-5.59c0,.36,0,.7,0,1-.09,1.3-.19,2.21-.19,2.21l-3.31,4.24c-1.17-.92-2.39-1.79-3.61-2.65l2.29-3.29s.08-1.86.05-3.88V597c0-.22,0-.43,0-.68a83.9,83.9,0,0,0-7.61-4.34c0,.35.09.71.11,1,.16,1.33.24,2.25.24,2.25L1004.3,600q-2-1.05-4-2l1.68-3.68s-.07-.54-.18-1.32-.29-1.58-.45-2.47c0-.14-.05-.27-.07-.41s-.08-.4-.13-.59a77.51,77.51,0,0,0-8.23-3c.1.35.2.68.3,1,.38,1.2.62,2.07.62,2.07l-1.69,5.19c-1.42-.47-2.84-.88-4.28-1.27l1-3.86s-.55-1.76-1.23-3.67l-.15-.46a3,3,0,0,1-.21-.52,82.44,82.44,0,0,0-8.64-1.48c.18.33.34.63.46.9.57,1.15.95,2,.95,2l-.75,5.38c-1.48-.2-3-.37-4.44-.49l.31-4s-.88-1.63-1.91-3.41c0-.11-.13-.23-.18-.33s-.23-.38-.34-.55c-.67,0-1.34-.09-2.05-.11q-3.36-.07-6.69.14c.21.27.42.54.6.82.76,1,1.31,1.81,1.31,1.81l.16,5.37c-1.49,0-3,.15-4.46.3l-.35-4s-1.16-1.46-2.47-3l-.24-.29c-.15-.17-.31-.34-.44-.5a78.22,78.22,0,0,0-8.61,1.54l.73.69c.95.91,1.61,1.58,1.61,1.58l1.11,5.29c-1.47.31-2.9.65-4.34,1l-1.07-3.89-1-.91c-.5-.44-1.19-1-1.9-1.58a4,4,0,0,0-.32-.28c-.16-.14-.32-.25-.47-.39a84.62,84.62,0,0,0-8.26,3l.88.56,1.81,1.21,2,5c-1.39.56-2.75,1.17-4.09,1.81l-1.69-3.6s-1.57-1-3.32-2l-.4-.26a4.85,4.85,0,0,1-.51-.25,83.58,83.58,0,0,0-7.58,4.4c.35.14.64.28,1,.39a4.25,4.25,0,0,0,.54.24c.85.42,1.44.68,1.44.68l2.88,4.63c-1.27.78-2.53,1.59-3.73,2.44l-2.3-3.21s-1.71-.72-3.63-1.41c-.13-.06-.27-.09-.4-.14a5.37,5.37,0,0,1-.56-.21c-2.09,1.59-4.1,3.25-6,5-.22.19-.44.37-.66.6.35.1.67.18,1,.24l2.12.57,3.62,4c-1.1,1-2.21,2-3.23,3.07l-2.84-2.79s-1.86-.4-3.85-.74c-.13,0-.24,0-.37-.07l-.65-.09a82.45,82.45,0,0,0-5.59,6.71c.36,0,.7,0,1,0,1.29.09,2.21.19,2.21.19l4.23,3.32c-.92,1.16-1.78,2.38-2.65,3.6L903,621.46s-1.86-.08-3.88-.05h-.38a5,5,0,0,1-.67,0,81.67,81.67,0,0,0-4.35,7.61c.36,0,.71-.09,1-.11,1.33-.16,2.25-.24,2.25-.24l4.76,2.54c-.7,1.31-1.35,2.64-2,4L896,633.53l-1.33.18-2.47.45-.4.08a4.25,4.25,0,0,0-.6.12,77.51,77.51,0,0,0-3,8.23l1-.3c1.2-.37,2.07-.62,2.07-.62l5.19,1.69c-.47,1.42-.88,2.84-1.27,4.29l-3.86-1s-1.76.55-3.67,1.23l-.46.15a3,3,0,0,1-.52.21,84.86,84.86,0,0,0-1.48,8.65c.33-.18.63-.34.9-.47,1.15-.56,2-.95,2-.95l5.38.76c-.2,1.47-.37,3-.49,4.44l-3.95-.32s-1.64.88-3.42,1.91l-.33.18c-.19.1-.38.23-.55.34,0,.67-.09,1.35-.1,2.05-.06,2.23,0,4.47.13,6.69.27-.21.55-.42.82-.6l1.81-1.3Z" transform="translate(-19.35 -429.05)" style="fill:#1d1715"/><path d="M1030.51,623.1c.86,1.21,1.66,2.47,2.44,3.73l4.64-2.88s.25-.59.68-1.43a2.83,2.83,0,0,1,.23-.54q-1.61-2.46-3.37-4.81c-.69,1.93-1.41,3.64-1.41,3.64Z" transform="translate(-19.35 -429.05)" style="fill:#3e312c"/><path d="M902.11,665.27A66.51,66.51,0,1,1,967,733.41,66.59,66.59,0,0,1,902.11,665.27Z" transform="translate(-19.35 -429.05)" style="fill:#3e312c"/><path d="M894.74,665.09a73.88,73.88,0,1,1,72,75.68A74,74,0,0,1,894.74,665.09Zm.86,0a73,73,0,1,0,74.81-71.19A73.09,73.09,0,0,0,895.6,665.11Z" transform="translate(-19.35 -429.05)" style="fill:#3e312c"/><path d="M1019.23,723.33l3.62,4,2.12.56c1.44-1.33,2.85-2.7,4.18-4.13-2-.35-3.84-.74-3.84-.74l-2.84-2.8C1021.44,721.31,1020.34,722.34,1019.23,723.33Z" transform="translate(-19.35 -429.05)" style="fill:#3e312c"/><path d="M1028.29,713.68l4.24,3.31s.91.11,2.21.2c1.17-1.56,2.31-3.13,3.38-4.77-2,0-3.89,0-3.89,0l-3.29-2.29C1030.08,711.3,1029.21,712.52,1028.29,713.68Z" transform="translate(-19.35 -429.05)" style="fill:#3e312c"/><path d="M996.9,737.28c1.39-.56,2.74-1.16,4.09-1.8l1.71,3.6s1.56,1,3.32,2c-1.73.87-3.49,1.67-5.29,2.42-1.05-.69-1.79-1.2-1.79-1.2Z" transform="translate(-19.35 -429.05)" style="fill:#3e312c"/><path d="M1011.56,735.9l-2.88-4.62c1.27-.79,2.51-1.6,3.73-2.46l2.29,3.23s1.73.7,3.64,1.4c-1.57,1.17-3.16,2.29-4.8,3.35-.17-.07-.38-.15-.54-.23Z" transform="translate(-19.35 -429.05)" style="fill:#3e312c"/><path d="M1035.5,702.61l4.76,2.55,2.25-.22c.88-1.72,1.67-3.49,2.45-5.27l-2.47.45-1.32.18-3.68-1.68C1036.86,700,1036.2,701.31,1035.5,702.61Z" transform="translate(-19.35 -429.05)" style="fill:#3e312c"/><path d="M1044.08,659.91c.15,1.48.25,3,.3,4.46l5.37-.17s.77-.54,1.81-1.3c-.08-1.95-.23-3.89-.47-5.81-1.52,1.31-3,2.46-3,2.46Z" transform="translate(-19.35 -429.05)" style="fill:#3e312c"/><path d="M984.26,741.11c1.46-.31,2.91-.65,4.34-1l1.06,3.89,1,.92c.52.45,1.2,1,1.91,1.59-1.85.56-3.71,1.06-5.6,1.49-.94-.9-1.61-1.57-1.61-1.57Z" transform="translate(-19.35 -429.05)" style="fill:#3e312c"/><path d="M1040.68,690.46l5.2,1.7,2.06-.62c.58-1.85,1.11-3.7,1.54-5.6-1.91.68-3.67,1.23-3.67,1.23l-3.86-1C1041.56,687.63,1041.15,689.05,1040.68,690.46Z" transform="translate(-19.35 -429.05)" style="fill:#3e312c"/><path d="M1041.76,646.9c.37,1.44.71,2.88,1,4.35l5.3-1.11s.66-.66,1.57-1.61c-.44-1.9-.93-3.75-1.51-5.59-.55.71-1.14,1.4-1.58,1.9l-.91,1Z" transform="translate(-19.35 -429.05)" style="fill:#3e312c"/><path d="M1037.16,634.52c.64,1.34,1.26,2.7,1.81,4.09l5-2s.51-.74,1.21-1.8c-.77-1.77-1.56-3.54-2.44-5.27-1,1.76-2,3.32-2,3.32Z" transform="translate(-19.35 -429.05)" style="fill:#3e312c"/><path d="M1043.67,677.6l5.38.75s.85-.39,2-1c.24-1.91.39-3.88.5-5.84-1.79,1-3.42,1.91-3.42,1.91l-4-.32C1044,674.63,1043.87,676.11,1043.67,677.6Z" transform="translate(-19.35 -429.05)" style="fill:#3e312c"/><path d="M899.61,709.88l4.62-2.89c.79,1.27,1.6,2.52,2.46,3.73l-3.23,2.3s-.7,1.72-1.4,3.63c-1.16-1.56-2.29-3.15-3.35-4.79.07-.17.15-.39.23-.54C899.35,710.45,899.61,709.88,899.61,709.88Z" transform="translate(-19.35 -429.05)" style="fill:#3e312c"/><path d="M898.23,695.22c.56,1.38,1.17,2.74,1.8,4.09l-3.6,1.71s-1,1.56-2,3.32c-.87-1.73-1.67-3.5-2.42-5.29.69-1,1.2-1.79,1.2-1.79Z" transform="translate(-19.35 -429.05)" style="fill:#3e312c"/><path d="M971.14,742.69c1.49,0,3-.14,4.46-.28l.36,4s1.16,1.46,2.47,3c-1.92.22-3.87.38-5.83.47-.76-1.06-1.29-1.82-1.29-1.82Z" transform="translate(-19.35 -429.05)" style="fill:#3e312c"/><path d="M912.18,717.56q1.49,1.66,3.08,3.24l-2.81,2.83s-.38,1.83-.73,3.84c-1.43-1.34-2.8-2.74-4.13-4.17.32-1.24.57-2.13.57-2.13Z" transform="translate(-19.35 -429.05)" style="fill:#3e312c"/><path d="M887.44,669.63l5.38-.18c0,1.5.14,3,.28,4.47l-4,.36s-1.46,1.15-3,2.47c-.23-1.93-.38-3.87-.47-5.83C886.68,670.16,887.44,669.63,887.44,669.63Z" transform="translate(-19.35 -429.05)" style="fill:#3e312c"/><path d="M894.4,682.57c.31,1.47.65,2.92,1,4.35L891.56,688l-.92,1c-.46.52-1,1.21-1.6,1.91-.56-1.84-1.06-3.7-1.48-5.6.89-.94,1.56-1.6,1.56-1.6Z" transform="translate(-19.35 -429.05)" style="fill:#3e312c"/><path d="M945.05,739c1.42.47,2.85.88,4.29,1.26l-1,3.86s.56,1.77,1.24,3.69c-1.9-.45-3.76-1-5.6-1.55-.36-1.21-.61-2.08-.61-2.08Z" transform="translate(-19.35 -429.05)" style="fill:#3e312c"/><path d="M957.93,742c1.47.21,3,.38,4.44.5l-.32,3.95s.87,1.65,1.89,3.42c-2-.11-3.91-.27-5.83-.51-.56-1.13-.94-2-.94-2Z" transform="translate(-19.35 -429.05)" style="fill:#3e312c"/><path d="M932.9,733.82c1.32.7,2.64,1.37,4,2l-1.69,3.68s.07.53.18,1.33l.44,2.45c-1.78-.76-3.53-1.57-5.24-2.46-.15-1.29-.23-2.23-.23-2.23Z" transform="translate(-19.35 -429.05)" style="fill:#3e312c"/><path d="M921.82,726.61c1.18.92,2.38,1.79,3.6,2.64l-2.29,3.31s0,1.86,0,3.87c-1.63-1.07-3.21-2.2-4.76-3.38.09-1.29.17-2.21.17-2.21Z" transform="translate(-19.35 -429.05)" style="fill:#3e312c"/><path d="M918.86,600.38c1.92.69,3.63,1.41,3.63,1.41l2.3,3.21c1.2-.85,2.46-1.66,3.73-2.44l-2.88-4.63s-.59-.26-1.44-.68a4.25,4.25,0,0,1-.54-.24C922,598.09,920.42,599.2,918.86,600.38Z" transform="translate(-19.35 -429.05)" style="fill:#3e312c"/><path d="M975.15,587.39l-.31,4c1.48.12,3,.29,4.44.49l.75-5.38s-.38-.84-.95-2c-1.91-.23-3.87-.39-5.84-.49C974.27,585.76,975.15,587.39,975.15,587.39Z" transform="translate(-19.35 -429.05)" style="fill:#3e312c"/><path d="M1000.3,598q2,.94,4,2l2.54-4.76s-.08-.92-.24-2.25c-1.7-.87-3.47-1.67-5.25-2.45.16.89.33,1.79.45,2.47s.18,1.32.18,1.32Z" transform="translate(-19.35 -429.05)" style="fill:#3e312c"/><path d="M988.85,589.7l-1,3.86c1.44.39,2.86.8,4.28,1.27l1.69-5.19s-.24-.87-.62-2.07c-1.85-.58-3.69-1.11-5.6-1.54C988.3,587.94,988.85,589.7,988.85,589.7Z" transform="translate(-19.35 -429.05)" style="fill:#3e312c"/><path d="M944.62,587.37c.71.56,1.4,1.14,1.9,1.58l1,.91,1.07,3.89c1.44-.37,2.87-.71,4.34-1l-1.11-5.29s-.66-.67-1.61-1.58C948.31,586.3,946.47,586.79,944.62,587.37Z" transform="translate(-19.35 -429.05)" style="fill:#3e312c"/><path d="M908.91,620.14c-.93,1.17-1.8,2.38-2.65,3.6l-3.31-2.3s-1.86-.05-3.87,0c1.07-1.63,2.2-3.21,3.38-4.76l2.21.17Z" transform="translate(-19.35 -429.05)" style="fill:#3e312c"/><path d="M896.51,643.37c-.46,1.41-.88,2.84-1.25,4.29l-3.87-1s-1.77.56-3.69,1.24c.45-1.9,1-3.76,1.55-5.6l2.08-.61Z" transform="translate(-19.35 -429.05)" style="fill:#3e312c"/><path d="M958.77,584.42c1.31,1.52,2.47,3,2.47,3l.35,4c1.49-.15,3-.25,4.46-.3l-.16-5.37s-.55-.77-1.31-1.81C962.64,584,960.69,584.18,958.77,584.42Z" transform="translate(-19.35 -429.05)" style="fill:#3e312c"/><path d="M931.19,592.73c1.75,1,3.32,2,3.32,2l1.69,3.6c1.34-.64,2.7-1.25,4.09-1.81l-2-5-1.81-1.21C934.68,591.06,932.91,591.85,931.19,592.73Z" transform="translate(-19.35 -429.05)" style="fill:#3e312c"/><path d="M901.69,631.22c-.7,1.31-1.37,2.64-2,4L896,633.53l-1.34.18c-.67.13-1.55.29-2.45.44.77-1.78,1.57-3.54,2.46-5.25,1.3-.15,2.23-.23,2.23-.23Z" transform="translate(-19.35 -429.05)" style="fill:#3e312c"/><path d="M893.53,656.24c-.21,1.47-.38,3-.5,4.45l-3.95-.33s-1.66.88-3.41,1.9c.1-2,.26-3.91.5-5.83,1.13-.56,2-.94,2-.94Z" transform="translate(-19.35 -429.05)" style="fill:#3e312c"/><path d="M1011.76,604.57c1.22.86,2.44,1.73,3.61,2.65l3.31-4.24s.1-.91.19-2.21c-1.56-1.17-3.12-2.31-4.77-3.37,0,2-.05,3.88-.05,3.88Z" transform="translate(-19.35 -429.05)" style="fill:#3e312c"/><path d="M918,610.5q-1.66,1.49-3.23,3.08l-2.84-2.81s-1.83-.39-3.84-.73c1.34-1.43,2.74-2.8,4.17-4.13,1.24.32,2.13.57,2.13.57Z" transform="translate(-19.35 -429.05)" style="fill:#3e312c"/><path d="M1021.94,613.05c1,1,2.08,2.12,3.07,3.23l4-3.62.57-2.12c-1.34-1.44-2.71-2.85-4.14-4.18-.34,2-.74,3.84-.74,3.84Z" transform="translate(-19.35 -429.05)" style="fill:#3e312c"/><path d="M1021.94,613.05c1,1,2.08,2.12,3.07,3.23l4-3.62.57-2.12c-1.34-1.44-2.71-2.85-4.14-4.18-.34,2-.74,3.84-.74,3.84Z" transform="translate(-19.35 -429.05)" style="fill:#3e312c"/><g style="opacity:0.15;mix-blend-mode:multiply"><path d="M887.51,685.33l-.67.72c-.1-.42-.17-.86-.26-1.28Z" transform="translate(-19.35 -429.05)" style="fill:#222220"/></g><path d="M906,666.91a62.64,62.64,0,1,0,62.64-62.64A62.63,62.63,0,0,0,906,666.91Z" transform="translate(-19.35 -429.05)" style="fill:#dad1d1"/><path d="M916.92,666.91a51.68,51.68,0,1,0,51.68-51.67A51.68,51.68,0,0,0,916.92,666.91Z" transform="translate(-19.35 -429.05)" style="fill:#3e312c"/><path d="M976.6,680.88l-16-27.7c-11,13.1-25.2,22.15-39.62,29.63a4.62,4.62,0,0,0-1.9,6.42l5.54,9.59a4.6,4.6,0,0,0,6.5,1.56C944.8,691.64,959.74,683.89,976.6,680.88Z" transform="translate(-19.35 -429.05)" style="fill:#dad1d1"/><path d="M976.6,653.18l-16,27.7c16.86,3,31.79,10.76,45.47,19.5a4.6,4.6,0,0,0,6.5-1.56l5.55-9.59a4.63,4.63,0,0,0-1.9-6.42C1001.8,675.33,987.62,666.28,976.6,653.18Z" transform="translate(-19.35 -429.05)" style="fill:#dad1d1"/><path d="M952.61,667h32c-5.83-16.09-6.58-32.9-5.85-49.12a4.61,4.61,0,0,0-4.6-4.86H963.06a4.63,4.63,0,0,0-4.61,4.86C959.19,634.13,958.43,650.94,952.61,667Z" transform="translate(-19.35 -429.05)" style="fill:#dad1d1"/><path d="M949.33,667.1a19.27,19.27,0,1,0,19.27-19.27A19.26,19.26,0,0,0,949.33,667.1Z" transform="translate(-19.35 -429.05)" style="fill:#fdfdfd"/></g><path d="M864.5,688.38h4.07l.08-1.92,2.22-23a59.85,59.85,0,0,1,59.86-54.25h74a59.86,59.86,0,0,1,59.86,54.25l2.22,23,.16,1.92h4l-2.54-25.25a63.68,63.68,0,0,0-63.69-57.71h-74A63.69,63.69,0,0,0,867,663.13Z" transform="translate(-19.35 -429.05)" style="fill:#fff"/><path d="M200.74,688.39H403.15l-2.43-25a59.81,59.81,0,0,0-3-13.81,62.14,62.14,0,0,0-58.81-42.2H265a61.86,61.86,0,0,0-61.79,56Z" transform="translate(-19.35 -429.05)" style="fill:#1d1715"/><g style="clip-path:url(#clip-path-2)"><path d="M227.05,669.46c0,1.49.14,3,.29,4.46l-4,.36s-1.45,1.15-3,2.46l-.3.24c-.17.15-.33.31-.5.44.32,2.49.74,4.93,1.28,7.34a11.87,11.87,0,0,0,.26,1.27c.23-.23.44-.47.67-.7l0,0c.92-.95,1.58-1.61,1.58-1.61l5.29-1.11c.31,1.47.66,2.91,1,4.35l-3.28.89-.6.17-.92,1c-.44.5-1,1.19-1.58,1.9-.11.11-.19.22-.28.32s-.25.32-.39.48a83.54,83.54,0,0,0,3,8.25c.19-.32.39-.62.56-.88l1.2-1.8,5-2c.56,1.39,1.17,2.75,1.82,4.09L230.66,701s-1,1.57-2,3.32l-.25.41c-.09.18-.17.34-.26.5a84.58,84.58,0,0,0,4.4,7.58c.15-.34.29-.64.4-1a4.16,4.16,0,0,0,.23-.54c.43-.85.68-1.43.68-1.43l4.64-2.89c.77,1.27,1.58,2.53,2.44,3.73l-3.21,2.3s-.72,1.71-1.42,3.63c0,.13-.09.27-.14.41s-.12.37-.21.59c1.78,2.3,3.64,4.53,5.64,6.66.09-.35.18-.7.24-1,.33-1.23.56-2.11.56-2.11l4-3.63c1,1.11,2,2.21,3.08,3.23l-2.79,2.84s-.41,1.86-.75,3.85c0,.13,0,.24-.06.37s-.07.43-.1.65a86,86,0,0,0,6.71,5.59c0-.36.05-.7.06-1,.09-1.29.18-2.2.18-2.2l3.32-4.24c1.16.92,2.38,1.79,3.6,2.65l-2.29,3.29s-.07,1.86,0,3.88v.38a5,5,0,0,1,0,.67,77.11,77.11,0,0,0,7.61,4.35c-.05-.36-.1-.7-.11-1-.16-1.33-.25-2.25-.25-2.25l2.55-4.76c1.31.7,2.64,1.36,4,2l-1.68,3.69s.06.53.18,1.32.28,1.57.45,2.47c0,.13.05.27.07.41a4.41,4.41,0,0,0,.12.59,76.89,76.89,0,0,0,8.24,3c-.1-.35-.2-.68-.3-1-.38-1.2-.63-2.07-.63-2.07l1.69-5.19c1.42.47,2.84.88,4.29,1.27l-1,3.86s.54,1.76,1.22,3.67c.05.16.11.3.16.46a4,4,0,0,1,.2.52,82.19,82.19,0,0,0,8.65,1.48c-.18-.33-.34-.63-.46-.9-.57-1.15-1-2-1-2l.76-5.38c1.48.2,3,.37,4.44.49l-.32,4s.88,1.63,1.91,3.41c.06.11.13.22.18.33s.24.38.34.55c.68,0,1.35.09,2.05.11,2.24,0,4.48,0,6.7-.13-.21-.28-.43-.56-.61-.83l-1.3-1.81-.16-5.38c1.48,0,3-.14,4.45-.29l.36,4s1.15,1.46,2.47,3c.07.11.15.2.23.31s.32.33.45.49a81.55,81.55,0,0,0,8.61-1.54l-.74-.69c-.94-.91-1.6-1.58-1.6-1.58l-1.11-5.29c1.46-.31,2.9-.65,4.34-1L323.9,744l1,.92c.5.44,1.19,1,1.9,1.58a3.92,3.92,0,0,0,.31.28l.48.39a83.49,83.49,0,0,0,8.25-3c-.32-.2-.61-.4-.88-.56l-1.8-1.21-2-5c1.39-.56,2.75-1.17,4.09-1.81l1.69,3.6s1.57,1,3.32,2l.4.26.51.25a85,85,0,0,0,7.58-4.4c-.35-.14-.65-.28-1-.4-.16-.08-.37-.17-.53-.23-.86-.42-1.44-.68-1.44-.68l-2.88-4.63c1.26-.78,2.52-1.59,3.73-2.44l2.29,3.21s1.71.72,3.63,1.41c.14.06.28.09.41.14a4.85,4.85,0,0,1,.56.21c1.46-1.1,2.86-2.25,4.24-3.46.82-.68,1.65-1.41,2.45-2.17-.05,0-.07,0-.13,0-.3-.09-.62-.15-.88-.22l-2.12-.56-3.63-4c1.11-1,2.21-2,3.24-3.08l2.84,2.8s1.85.39,3.84.74l.38.06.64.1a84.2,84.2,0,0,0,5.59-6.71c-.35,0-.7,0-1,0-1.28-.09-2.2-.2-2.2-.2l-4.23-3.31c.91-1.16,1.78-2.38,2.65-3.6l3.28,2.29s1.86.08,3.89,0h.37a5.14,5.14,0,0,1,.68,0,81.58,81.58,0,0,0,4.34-7.61c-.35,0-.7.08-1,.13l-2.24.22-4.77-2.55c.71-1.3,1.36-2.64,2-4l3.68,1.68,1.33-.18,2.46-.45.41-.07c.19,0,.41-.08.6-.13a82.19,82.19,0,0,0,3-8.23l-1,.3c-1.19.37-2.07.62-2.07.62l-5.19-1.7c.47-1.41.88-2.83,1.27-4.28l3.86,1s1.77-.55,3.67-1.23l.46-.15a2.79,2.79,0,0,1,.53-.21c.63-2.84,1.13-5.71,1.48-8.64-.33.18-.64.33-.91.46-1.14.56-2,1-2,1l-5.38-.75c.2-1.49.37-3,.49-4.45l4,.32s1.64-.88,3.42-1.91c.11,0,.21-.13.33-.18s.38-.24.54-.34c.05-.67.09-1.35.11-2,.05-2.24,0-4.47-.13-6.69-.28.21-.56.42-.83.6-1,.76-1.81,1.3-1.81,1.3l-5.37.17c0-1.49-.14-3-.3-4.46l4-.36s1.45-1.15,3-2.46c.12-.08.2-.16.31-.24s.33-.31.49-.44a83.89,83.89,0,0,0-1.53-8.62l-.7.74c-.91,1-1.58,1.61-1.58,1.61L377,651.25c-.32-1.47-.66-2.91-1-4.35l3.88-1.06s.37-.39.92-1,1-1.19,1.59-1.9a2.06,2.06,0,0,0,.27-.33c.14-.15.25-.31.39-.47a83.75,83.75,0,0,0-3-8.25l-.56.88-1.2,1.8-5,2c-.57-1.39-1.18-2.75-1.82-4.09l3.6-1.7s1-1.56,2-3.32c.08-.13.17-.26.25-.4s.17-.34.26-.5a86,86,0,0,0-4.4-7.58c-.15.34-.29.64-.41,1a3.6,3.6,0,0,0-.22.54c-.43.84-.69,1.43-.69,1.43l-4.62,2.88c-.78-1.26-1.59-2.52-2.45-3.73l3.21-2.29s.72-1.71,1.42-3.64c.05-.12.08-.26.14-.4a4.74,4.74,0,0,1,.2-.56,83.68,83.68,0,0,0-5.63-6.69l-.09.35v0a6.13,6.13,0,0,0-.15.62c-.33,1.23-.56,2.12-.56,2.12l-4,3.62c-1-1.11-2-2.21-3.07-3.23L359,610.2s.4-1.85.75-3.84c0-.13,0-.24.06-.37s.06-.43.1-.65a86.55,86.55,0,0,0-6.72-5.59c0,.36,0,.7,0,1-.08,1.3-.19,2.21-.19,2.21l-3.31,4.24c-1.17-.92-2.39-1.79-3.6-2.65l2.29-3.29s.07-1.86,0-3.88V597c0-.22,0-.43,0-.68a83.9,83.9,0,0,0-7.61-4.34c0,.35.09.71.11,1,.16,1.33.24,2.25.24,2.25L338.53,600q-2-1.05-4-2l1.68-3.68s-.07-.54-.18-1.32-.29-1.58-.46-2.47c0-.14,0-.27-.06-.41s-.08-.4-.12-.59a77.68,77.68,0,0,0-8.24-3c.1.35.2.68.3,1,.37,1.2.62,2.07.62,2.07l-1.69,5.19c-1.42-.47-2.84-.88-4.28-1.27l1-3.86s-.55-1.76-1.23-3.67l-.15-.46a4,4,0,0,1-.2-.52,83.08,83.08,0,0,0-8.65-1.48c.18.33.33.63.46.9.57,1.15.95,2,.95,2l-.75,5.38c-1.48-.2-3-.37-4.44-.49l.32-4s-.88-1.63-1.92-3.41c-.05-.11-.13-.23-.18-.33s-.23-.38-.34-.55c-.67,0-1.34-.09-2-.11-2.24,0-4.48,0-6.7.14.22.27.42.54.61.82l1.3,1.81.16,5.37c-1.48,0-3,.15-4.46.3l-.36-4s-1.14-1.46-2.46-3c-.08-.1-.16-.19-.23-.29s-.32-.34-.45-.5a79.68,79.68,0,0,0-8.62,1.54l.74.69c.95.91,1.61,1.58,1.61,1.58l1.11,5.29c-1.47.31-2.9.65-4.34,1l-1.07-3.89-1-.91c-.51-.44-1.2-1-1.91-1.58a4,4,0,0,0-.32-.28c-.15-.14-.32-.25-.47-.39a83.49,83.49,0,0,0-8.25,3l.88.56,1.8,1.21,2,5c-1.39.56-2.75,1.17-4.09,1.81l-1.69-3.6s-1.57-1-3.32-2l-.4-.26a3.88,3.88,0,0,1-.5-.25,82.4,82.4,0,0,0-7.59,4.4c.35.14.65.28,1,.39a3.7,3.7,0,0,0,.54.24c.85.42,1.44.68,1.44.68l2.87,4.63c-1.25.78-2.51,1.59-3.72,2.44l-2.3-3.21s-1.71-.72-3.63-1.41c-.14-.06-.27-.09-.4-.14s-.37-.12-.56-.21c-2.09,1.59-4.1,3.25-6,5-.22.19-.44.37-.66.6.35.1.67.18,1,.24l2.12.57,3.62,4c-1.1,1-2.2,2-3.23,3.07l-2.85-2.79s-1.85-.4-3.84-.74c-.13,0-.23,0-.37-.07l-.64-.09a82.45,82.45,0,0,0-5.59,6.71c.35,0,.7,0,1,0,1.3.09,2.21.19,2.21.19l4.23,3.32c-.92,1.16-1.78,2.38-2.65,3.6l-3.29-2.29s-1.86-.08-3.88-.05h-.38a5.14,5.14,0,0,1-.68,0,83.81,83.81,0,0,0-4.33,7.61c.34,0,.7-.09,1-.11,1.33-.16,2.25-.24,2.25-.24l4.77,2.54c-.71,1.31-1.36,2.64-2,4l-3.68-1.68-1.33.18-2.46.45-.41.08a4.55,4.55,0,0,0-.6.12,79.78,79.78,0,0,0-3,8.23l1-.3c1.19-.37,2.06-.62,2.06-.62l5.19,1.69c-.46,1.42-.88,2.84-1.26,4.29l-3.86-1s-1.77.55-3.68,1.23l-.46.15a2.6,2.6,0,0,1-.51.21,82.19,82.19,0,0,0-1.48,8.65c.32-.18.62-.34.89-.47,1.15-.56,2-.95,2-.95l5.38.76c-.21,1.47-.38,3-.49,4.44l-4-.32s-1.64.88-3.42,1.91l-.33.18c-.19.1-.38.23-.55.34,0,.67-.08,1.35-.1,2.05-.06,2.23,0,4.47.13,6.69.28-.21.55-.42.82-.6l1.82-1.3Z" transform="translate(-19.35 -429.05)" style="fill:#1d1715"/><path d="M364.74,623.1c.86,1.21,1.67,2.47,2.45,3.73l4.62-2.88s.26-.59.69-1.43a3.6,3.6,0,0,1,.22-.54q-1.59-2.46-3.35-4.81c-.7,1.93-1.42,3.64-1.42,3.64Z" transform="translate(-19.35 -429.05)" style="fill:#3e312c"/><path d="M236.34,665.27a66.51,66.51,0,1,1,64.84,68.14A66.6,66.6,0,0,1,236.34,665.27Z" transform="translate(-19.35 -429.05)" style="fill:#3e312c"/><path d="M229,665.09a73.87,73.87,0,1,1,72,75.68A74,74,0,0,1,229,665.09Zm.85,0a73,73,0,1,0,74.8-71.19A73.09,73.09,0,0,0,229.83,665.11Z" transform="translate(-19.35 -429.05)" style="fill:#3e312c"/><path d="M353.46,723.33l3.63,4,2.12.56c1.43-1.33,2.84-2.7,4.17-4.13-2-.35-3.84-.74-3.84-.74l-2.84-2.8C355.67,721.31,354.57,722.34,353.46,723.33Z" transform="translate(-19.35 -429.05)" style="fill:#3e312c"/><path d="M362.53,713.68l4.23,3.31s.92.11,2.2.2c1.17-1.56,2.32-3.13,3.39-4.77-2,0-3.89,0-3.89,0l-3.28-2.29C364.31,711.3,363.44,712.52,362.53,713.68Z" transform="translate(-19.35 -429.05)" style="fill:#3e312c"/><path d="M331.13,737.28c1.39-.56,2.75-1.16,4.09-1.8l1.71,3.6s1.56,1,3.32,2c-1.73.87-3.49,1.67-5.28,2.42-1.06-.69-1.8-1.2-1.8-1.2Z" transform="translate(-19.35 -429.05)" style="fill:#3e312c"/><path d="M345.79,735.9l-2.88-4.62c1.26-.79,2.52-1.6,3.73-2.46l2.29,3.23s1.73.7,3.63,1.4c-1.56,1.17-3.14,2.29-4.79,3.35-.17-.07-.38-.15-.54-.23Z" transform="translate(-19.35 -429.05)" style="fill:#3e312c"/><path d="M369.73,702.61l4.77,2.55,2.24-.22c.88-1.72,1.68-3.49,2.45-5.27l-2.46.45-1.33.18-3.68-1.68C371.09,700,370.44,701.31,369.73,702.61Z" transform="translate(-19.35 -429.05)" style="fill:#3e312c"/><path d="M378.31,659.91c.16,1.48.26,3,.3,4.46l5.37-.17s.77-.54,1.81-1.3c-.08-1.95-.22-3.89-.48-5.81-1.51,1.31-3,2.46-3,2.46Z" transform="translate(-19.35 -429.05)" style="fill:#3e312c"/><path d="M318.49,741.11c1.46-.31,2.91-.65,4.34-1L323.9,744l1,.92c.52.45,1.2,1,1.91,1.59q-2.76.84-5.6,1.49c-.94-.9-1.61-1.57-1.61-1.57Z" transform="translate(-19.35 -429.05)" style="fill:#3e312c"/><path d="M374.91,690.46l5.19,1.7s.88-.25,2.07-.62c.59-1.85,1.12-3.7,1.54-5.6-1.9.68-3.67,1.23-3.67,1.23l-3.86-1C375.79,687.63,375.38,689.05,374.91,690.46Z" transform="translate(-19.35 -429.05)" style="fill:#3e312c"/><path d="M376,646.9c.37,1.44.71,2.88,1,4.35l5.28-1.11s.67-.66,1.58-1.61c-.44-1.9-.93-3.75-1.5-5.59-.56.71-1.14,1.4-1.59,1.9s-.92,1-.92,1Z" transform="translate(-19.35 -429.05)" style="fill:#3e312c"/><path d="M371.39,634.52c.64,1.34,1.25,2.7,1.82,4.09l5-2,1.2-1.8c-.76-1.77-1.56-3.54-2.43-5.27-1,1.76-2,3.32-2,3.32Z" transform="translate(-19.35 -429.05)" style="fill:#3e312c"/><path d="M377.9,677.6l5.38.75s.85-.39,2-1c.24-1.91.39-3.88.5-5.84-1.78,1-3.42,1.91-3.42,1.91l-4-.32C378.27,674.63,378.1,676.11,377.9,677.6Z" transform="translate(-19.35 -429.05)" style="fill:#3e312c"/><path d="M233.85,709.88l4.61-2.89c.8,1.27,1.61,2.52,2.47,3.73l-3.24,2.3s-.7,1.72-1.4,3.63c-1.16-1.56-2.29-3.15-3.35-4.79.08-.17.16-.39.23-.54C233.57,710.45,233.85,709.88,233.85,709.88Z" transform="translate(-19.35 -429.05)" style="fill:#3e312c"/><path d="M232.46,695.22c.56,1.38,1.17,2.74,1.81,4.09L230.66,701s-1,1.56-2,3.32c-.88-1.73-1.68-3.5-2.43-5.29.69-1,1.2-1.79,1.2-1.79Z" transform="translate(-19.35 -429.05)" style="fill:#3e312c"/><path d="M305.36,742.69c1.5,0,3-.14,4.47-.28l.36,4s1.15,1.46,2.47,3c-1.92.22-3.87.38-5.83.47l-1.29-1.82Z" transform="translate(-19.35 -429.05)" style="fill:#3e312c"/><path d="M246.41,717.56q1.5,1.66,3.09,3.24l-2.82,2.83s-.39,1.83-.73,3.84c-1.42-1.34-2.8-2.74-4.12-4.17.31-1.24.56-2.13.56-2.13Z" transform="translate(-19.35 -429.05)" style="fill:#3e312c"/><path d="M221.68,669.63l5.36-.18c.05,1.5.16,3,.29,4.47l-4,.36s-1.47,1.15-3,2.47c-.23-1.93-.38-3.87-.47-5.83C220.91,670.16,221.68,669.63,221.68,669.63Z" transform="translate(-19.35 -429.05)" style="fill:#3e312c"/><path d="M228.64,682.57c.31,1.47.65,2.92,1,4.35L225.79,688l-.92,1c-.46.52-1,1.21-1.59,1.91-.56-1.84-1.07-3.7-1.49-5.6.89-.94,1.56-1.6,1.56-1.6Z" transform="translate(-19.35 -429.05)" style="fill:#3e312c"/><path d="M279.29,739c1.4.47,2.83.88,4.28,1.26l-1,3.86s.56,1.77,1.24,3.69q-2.83-.67-5.6-1.55c-.36-1.21-.6-2.08-.6-2.08Z" transform="translate(-19.35 -429.05)" style="fill:#3e312c"/><path d="M292.16,742c1.47.21,2.94.38,4.44.5l-.33,3.95s.89,1.65,1.91,3.42c-2-.11-3.92-.27-5.84-.51-.56-1.13-.94-2-.94-2Z" transform="translate(-19.35 -429.05)" style="fill:#3e312c"/><path d="M267.13,733.82c1.31.7,2.65,1.37,4,2l-1.69,3.68s.08.53.18,1.33.29,1.55.45,2.45c-1.78-.76-3.54-1.57-5.26-2.46-.14-1.29-.23-2.23-.23-2.23Z" transform="translate(-19.35 -429.05)" style="fill:#3e312c"/><path d="M256.05,726.61c1.17.92,2.38,1.79,3.61,2.64l-2.3,3.31s-.06,1.86,0,3.87c-1.63-1.07-3.21-2.2-4.76-3.38.09-1.29.18-2.21.18-2.21Z" transform="translate(-19.35 -429.05)" style="fill:#3e312c"/><path d="M253.09,600.38c1.92.69,3.63,1.41,3.63,1.41L259,605c1.21-.85,2.47-1.66,3.72-2.44l-2.87-4.63s-.59-.26-1.44-.68a3.7,3.7,0,0,1-.54-.24C256.25,598.09,254.66,599.2,253.09,600.38Z" transform="translate(-19.35 -429.05)" style="fill:#3e312c"/><path d="M309.39,587.39l-.32,4c1.48.12,3,.29,4.44.49l.75-5.38s-.38-.84-.95-2c-1.9-.23-3.87-.39-5.84-.49C308.51,585.76,309.39,587.39,309.39,587.39Z" transform="translate(-19.35 -429.05)" style="fill:#3e312c"/><path d="M334.53,598q2,.94,4,2l2.54-4.76s-.08-.92-.24-2.25c-1.7-.87-3.46-1.67-5.26-2.45.17.89.34,1.79.46,2.47s.18,1.32.18,1.32Z" transform="translate(-19.35 -429.05)" style="fill:#3e312c"/><path d="M323.08,589.7l-1,3.86c1.44.39,2.86.8,4.28,1.27l1.69-5.19s-.25-.87-.62-2.07c-1.84-.58-3.7-1.11-5.6-1.54C322.53,587.94,323.08,589.7,323.08,589.7Z" transform="translate(-19.35 -429.05)" style="fill:#3e312c"/><path d="M278.85,587.37c.71.56,1.4,1.14,1.91,1.58l1,.91,1.07,3.89c1.44-.37,2.87-.71,4.34-1l-1.11-5.29s-.66-.67-1.61-1.58C282.55,586.3,280.7,586.79,278.85,587.37Z" transform="translate(-19.35 -429.05)" style="fill:#3e312c"/><path d="M243.13,620.14c-.91,1.17-1.79,2.38-2.64,3.6l-3.3-2.3s-1.86-.05-3.88,0c1.07-1.63,2.2-3.21,3.38-4.76l2.22.17Z" transform="translate(-19.35 -429.05)" style="fill:#3e312c"/><path d="M230.74,643.37c-.46,1.41-.88,2.84-1.25,4.29l-3.86-1s-1.78.56-3.69,1.24c.44-1.9,1-3.76,1.53-5.6l2.09-.61Z" transform="translate(-19.35 -429.05)" style="fill:#3e312c"/><path d="M293,584.42c1.32,1.52,2.46,3,2.46,3l.36,4c1.49-.15,3-.25,4.46-.3l-.16-5.37-1.3-1.81C296.87,584,294.92,584.18,293,584.42Z" transform="translate(-19.35 -429.05)" style="fill:#3e312c"/><path d="M265.42,592.73c1.75,1,3.32,2,3.32,2l1.69,3.6c1.34-.64,2.7-1.25,4.09-1.81l-2-5-1.8-1.21C268.91,591.06,267.14,591.85,265.42,592.73Z" transform="translate(-19.35 -429.05)" style="fill:#3e312c"/><path d="M235.93,631.22q-1.06,2-2,4l-3.67-1.69-1.33.18c-.68.13-1.56.29-2.46.44.77-1.78,1.58-3.54,2.46-5.25,1.3-.15,2.23-.23,2.23-.23Z" transform="translate(-19.35 -429.05)" style="fill:#3e312c"/><path d="M227.76,656.24c-.21,1.47-.38,3-.5,4.45l-3.95-.33s-1.65.88-3.42,1.9c.12-2,.26-3.91.51-5.83,1.14-.56,2-.94,2-.94Z" transform="translate(-19.35 -429.05)" style="fill:#3e312c"/><path d="M346,604.57c1.21.86,2.43,1.73,3.6,2.65l3.31-4.24s.11-.91.19-2.21c-1.56-1.17-3.13-2.31-4.77-3.37,0,2,0,3.88,0,3.88Z" transform="translate(-19.35 -429.05)" style="fill:#3e312c"/><path d="M252.18,610.5q-1.65,1.49-3.23,3.08l-2.84-2.81s-1.83-.39-3.84-.73c1.35-1.43,2.74-2.8,4.17-4.13,1.25.32,2.13.57,2.13.57Z" transform="translate(-19.35 -429.05)" style="fill:#3e312c"/><path d="M356.17,613.05c1.05,1,2.07,2.12,3.07,3.23l4-3.62s.23-.89.56-2.12c-1.34-1.44-2.71-2.85-4.13-4.18-.35,2-.75,3.84-.75,3.84Z" transform="translate(-19.35 -429.05)" style="fill:#3e312c"/><path d="M356.17,613.05c1.05,1,2.07,2.12,3.07,3.23l4-3.62s.23-.89.56-2.12c-1.34-1.44-2.71-2.85-4.13-4.18-.35,2-.75,3.84-.75,3.84Z" transform="translate(-19.35 -429.05)" style="fill:#3e312c"/><g style="opacity:0.15;mix-blend-mode:multiply"><path d="M221.75,685.33l-.68.72c-.1-.42-.17-.86-.26-1.28C221.12,685,221.43,685.15,221.75,685.33Z" transform="translate(-19.35 -429.05)" style="fill:#222220"/></g><path d="M240.19,666.91a62.64,62.64,0,1,0,62.64-62.64A62.63,62.63,0,0,0,240.19,666.91Z" transform="translate(-19.35 -429.05)" style="fill:#dad1d1"/><path d="M251.16,666.91a51.67,51.67,0,1,0,51.67-51.67A51.67,51.67,0,0,0,251.16,666.91Z" transform="translate(-19.35 -429.05)" style="fill:#3e312c"/><path d="M310.82,680.88l-16-27.7c-11,13.1-25.2,22.15-39.62,29.63a4.62,4.62,0,0,0-1.9,6.42l5.54,9.59a4.61,4.61,0,0,0,6.51,1.56C279,691.64,294,683.89,310.82,680.88Z" transform="translate(-19.35 -429.05)" style="fill:#dad1d1"/><path d="M310.82,653.18l-16,27.7c16.85,3,31.79,10.76,45.47,19.5a4.61,4.61,0,0,0,6.51-1.56l5.54-9.59a4.62,4.62,0,0,0-1.9-6.42C336,675.33,321.85,666.28,310.82,653.18Z" transform="translate(-19.35 -429.05)" style="fill:#dad1d1"/><path d="M286.84,667h32c-5.82-16.09-6.58-32.9-5.85-49.12a4.61,4.61,0,0,0-4.6-4.86H297.28a4.6,4.6,0,0,0-4.59,4.86C293.42,634.13,292.66,650.94,286.84,667Z" transform="translate(-19.35 -429.05)" style="fill:#dad1d1"/><path d="M283.56,667.1a19.27,19.27,0,1,0,19.27-19.27A19.27,19.27,0,0,0,283.56,667.1Z" transform="translate(-19.35 -429.05)" style="fill:#fdfdfd"/></g><path d="M198.73,688.38h4.07l.07-1.92,2.23-23A59.85,59.85,0,0,1,265,609.26h74a59.86,59.86,0,0,1,59.86,54.25l2.22,23,.16,1.92h4l-2.53-25.25a63.7,63.7,0,0,0-63.7-57.71H265a63.69,63.69,0,0,0-63.7,57.71Z" transform="translate(-19.35 -429.05)" style="fill:#fff"/></g></g></svg>