<svg id="Layer_1" data-name="Layer 1" xmlns="http://www.w3.org/2000/svg" viewBox="0 0 579.72 302.92"><defs><style>.cls-1{fill:#88a84c;}.cls-2{fill:#a7cb64;}.cls-3{fill:#e75c5b;}.cls-4{fill:#dad1d1;}.cls-5{fill:#3e312c;}.cls-6{fill:#403430;}.cls-7{fill:#f9b659;}.cls-8{fill:#c44645;}.cls-9{opacity:0.5;}.cls-10{fill:#5b514e;}.cls-11{fill:#1d1d1b;opacity:0.1;}.cls-11,.cls-17{isolation:isolate;}.cls-12{fill:#fff;}.cls-13{fill:#1d1715;}.cls-14{fill:#dadada;}.cls-15{fill:#ededed;}.cls-16{fill:#c6c6c6;}.cls-17{opacity:0.05;}</style></defs><title>7-01-01</title><path class="cls-1" d="M58.37,148.56H394.12a13.76,13.76,0,0,1,13.76,13.75v16.62H23.36A35.39,35.39,0,0,1,58.37,148.56Z" transform="translate(-10.15 -148.56)"/><path class="cls-2" d="M23,184V409.2H137l7.25-23.82A18.46,18.46,0,0,1,162,372.63h35.2A18.36,18.36,0,0,1,215,385.38l7.33,23.82H397.66A10.23,10.23,0,0,0,407.89,399V178.9H23.35A34.78,34.78,0,0,0,23,184Z" transform="translate(-10.15 -148.56)"/><path class="cls-3" d="M20.34,358c-9.19.43-9.22-30.25-.17-30.29C21.08,333.41,21.18,352.34,20.34,358Z" transform="translate(-10.15 -148.56)"/><path class="cls-4" d="M18.55,327.49l1.8-.49,4.22-1.17c-.26.07-.5.77-.69,1.85-1,5.87-.92,24.53.17,30.4.2,1.08.43,1.77.71,1.84l-4.24-1.13-1.8-.49A124.56,124.56,0,0,1,18.55,327.49Z" transform="translate(-10.15 -148.56)"/><polygon class="cls-5" points="443.68 255.59 456.22 260.39 548.01 258.09 550.64 255.59 558.08 250.01 558.08 203.75 443.68 203.75 443.68 255.59"/><polygon class="cls-5" points="112.73 255.59 126.88 260.63 212.16 260.63 219.69 255.59 227.12 250.01 227.12 203.75 112.73 203.75 112.73 255.59"/><path class="cls-6" d="M505.3,227.23v59.5a11.15,11.15,0,0,0,11.14,11.16h27.69c-.19-.8-.38-1.58-.58-2.39a425.37,425.37,0,0,0-24.16-70.73l-1.07-2.4h-8.14A4.88,4.88,0,0,0,505.3,227.23Z" transform="translate(-10.15 -148.56)"/><rect class="cls-5" x="397.73" y="63.77" width="8.15" height="186.24"/><path class="cls-2" d="M416,212.33V400a9.18,9.18,0,0,0,9.18,9.18h0l41.12-.18,8.22-28.18c2.41-9,9.42-13.18,17.56-13.18H533a18.3,18.3,0,0,1,17.56,13.18l7.54,25.88,13.77-4.36a12.11,12.11,0,0,0,8.46-11.59l-.06-13.82V354.59l0-24.26A15.71,15.71,0,0,0,576,319.67L544.14,297.9H516.46a11.16,11.16,0,0,1-11.15-11.16v-59.5a4.87,4.87,0,0,1,4.87-4.87h8.14s4.22-23.31-64.18-23.31l-25,.12A13.15,13.15,0,0,0,416,212.33Z" transform="translate(-10.15 -148.56)"/><path class="cls-7" d="M582.73,329.74c7.35-.4,7.37,28.8.14,28.84C582.13,353.17,582.05,335.15,582.73,329.74Z" transform="translate(-10.15 -148.56)"/><path class="cls-8" d="M579,329.74h4.21c-.16,0-.32.54-.43,1.42-.67,4.88-.6,21.13.11,26,.14.88.28,1.42.46,1.42h-4.22A139.7,139.7,0,0,1,579,329.74Z" transform="translate(-10.15 -148.56)"/><path class="cls-1" d="M436.78,395.12h16a12.36,12.36,0,0,0,12-9.14c4.79-18.13,10.53-24,24.3-25.32A12.31,12.31,0,0,0,500,348.28V231.61c0-9.27-6.07-15.35-13.57-15.35h-47.5a13.58,13.58,0,0,0-13.58,13.58V383.59A11.53,11.53,0,0,0,436.78,395.12Z" transform="translate(-10.15 -148.56)"/><path class="cls-6" d="M440,221.1h45.26c5.49,0,9.94,4.92,9.94,11v56.09c0,6.07-4.45,11-9.94,11H440c-5.5,0-9.95-4.92-9.95-11v-56.1C430,226,434.45,221.1,440,221.1Z" transform="translate(-10.15 -148.56)"/><path class="cls-1" d="M23,293.11V409.2H137l7.25-23.82A18.46,18.46,0,0,1,162,372.63h35.2A18.36,18.36,0,0,1,215,385.38l7.33,23.82H356.6V396.08a103.07,103.07,0,0,0-103-103Z" transform="translate(-10.15 -148.56)"/><path class="cls-2" d="M320,396.08v13.11H222.31L215,385.39a18.38,18.38,0,0,0-17.74-12.75H162.07a18.44,18.44,0,0,0-17.79,12.75L137,409.19H23V329.74H253.63A66.34,66.34,0,0,1,320,396.05Z" transform="translate(-10.15 -148.56)"/><path class="cls-4" d="M566.8,395.12h19.81a1.26,1.26,0,0,0,1.18-.84,35.94,35.94,0,0,0,0-24,1.27,1.27,0,0,0-1.18-.84h-13.8a12.18,12.18,0,0,0-12.18,12.18h0v7.29a6.17,6.17,0,0,0,6.14,6.2Z" transform="translate(-10.15 -148.56)"/><path class="cls-4" d="M33.2,395.12H13.39a1.24,1.24,0,0,1-1.17-.84,35.82,35.82,0,0,1,0-24,1.27,1.27,0,0,1,1.18-.84H27.19a12.18,12.18,0,0,1,12.18,12.18h0v7.29a6.17,6.17,0,0,1-6.14,6.2Z" transform="translate(-10.15 -148.56)"/><path class="cls-4" d="M530.77,323.86a3,3,0,0,0,3-3,3,3,0,0,0-.49-1.66l-18.6-28.65a3,3,0,1,0-5.07,3.26l18.61,28.65A3,3,0,0,0,530.77,323.86Z" transform="translate(-10.15 -148.56)"/><path class="cls-1" d="M508.07,315.12h.1c5.46,0,9.89-3.71,9.89-8.28v-35c0-4.57-4.43-8.28-9.89-8.28h-.1Z" transform="translate(-10.15 -148.56)"/><g class="cls-9"><path class="cls-10" d="M433.66,232.09V243l32.19,52.49H485.2c3.46,0,6.3-3.27,6.3-7.33v-7.32l-34.1-56.08H439.94C436.5,224.77,433.66,228,433.66,232.09Z" transform="translate(-10.15 -148.56)"/><polygon class="cls-10" points="451.65 76.21 481.35 125.25 481.35 106.74 462.91 76.21 451.65 76.21"/></g><path class="cls-6" d="M507.3,232.09V243l32.2,52.49h4a425.37,425.37,0,0,0-24.16-70.73h-5.81C507.64,224.77,507.3,224.77,507.3,232.09Z" transform="translate(-10.15 -148.56)"/><path class="cls-11" d="M24.44,443c0,4.68,124.77,8.48,278.68,8.48S581.8,447.68,581.8,443s-124.8-8.48-278.68-8.48S24.44,438.32,24.44,443Z" transform="translate(-10.15 -148.56)"/><rect class="cls-12" x="427.66" y="157.96" width="18.32" height="7.51"/><path class="cls-2" d="M390.64,170.57a1.81,1.81,0,0,0,1.81,1.81h0a1.81,1.81,0,0,0,1.8-1.8h0v-14a1.79,1.79,0,0,0-1.78-1.8h0a1.81,1.81,0,0,0-1.81,1.79h0Z" transform="translate(-10.15 -148.56)"/><path class="cls-2" d="M382.51,170.57a1.81,1.81,0,0,0,1.81,1.81h0a1.81,1.81,0,0,0,1.8-1.8h0v-14a1.79,1.79,0,0,0-1.78-1.8h0a1.81,1.81,0,0,0-1.81,1.79h0Z" transform="translate(-10.15 -148.56)"/><path class="cls-2" d="M374.38,170.57a1.81,1.81,0,0,0,1.79,1.81h0a1.81,1.81,0,0,0,1.81-1.81v-14a1.81,1.81,0,0,0-1.8-1.8h0a1.79,1.79,0,0,0-1.8,1.78v14Z" transform="translate(-10.15 -148.56)"/><path class="cls-2" d="M366.25,170.57a1.81,1.81,0,0,0,1.79,1.81h0a1.81,1.81,0,0,0,1.81-1.81v-14a1.81,1.81,0,0,0-1.8-1.8h0a1.79,1.79,0,0,0-1.8,1.78v14Z" transform="translate(-10.15 -148.56)"/><path class="cls-2" d="M358.11,170.57a1.81,1.81,0,0,0,1.81,1.81h0a1.82,1.82,0,0,0,1.81-1.81v-14a1.81,1.81,0,0,0-1.81-1.8h0a1.81,1.81,0,0,0-1.81,1.79h0Z" transform="translate(-10.15 -148.56)"/><path class="cls-2" d="M350,170.57a1.81,1.81,0,0,0,1.8,1.81h0a1.81,1.81,0,0,0,1.81-1.81v-14a1.81,1.81,0,0,0-1.8-1.8h0a1.81,1.81,0,0,0-1.8,1.8Z" transform="translate(-10.15 -148.56)"/><path class="cls-2" d="M341.84,170.57a1.81,1.81,0,0,0,1.81,1.81h0a1.81,1.81,0,0,0,1.81-1.81v-14a1.81,1.81,0,0,0-1.8-1.8h0a1.81,1.81,0,0,0-1.81,1.79h0Z" transform="translate(-10.15 -148.56)"/><path class="cls-13" d="M160.8,407a19.28,19.28,0,1,0,19.28-19.28h0A19.29,19.29,0,0,0,160.8,407Z" transform="translate(-10.15 -148.56)"/><path class="cls-13" d="M144.07,407a36,36,0,1,0,46.82-34.37H169.26A36,36,0,0,0,144.07,407Zm13.84,0a22.17,22.17,0,1,1,22.2,22.14h0A22.16,22.16,0,0,1,157.91,407Z" transform="translate(-10.15 -148.56)"/><path class="cls-14" d="M154.58,407a25.5,25.5,0,1,0,25.48-25.52h0A25.5,25.5,0,0,0,154.58,407Zm2.76,0a22.74,22.74,0,1,1,22.77,22.71h0A22.74,22.74,0,0,1,157.34,407Z" transform="translate(-10.15 -148.56)"/><path class="cls-15" d="M164.45,407a15.63,15.63,0,1,0,15.62-15.64h0A15.62,15.62,0,0,0,164.45,407Zm5.8,0a9.83,9.83,0,1,1,9.84,9.82,9.83,9.83,0,0,1-9.84-9.82Z" transform="translate(-10.15 -148.56)"/><path class="cls-4" d="M170.25,407a9.83,9.83,0,1,0,9.83-9.83h0A9.85,9.85,0,0,0,170.25,407Zm6.06-3.76a1.4,1.4,0,0,1-2,0l0,0a1.41,1.41,0,1,1,2,0Zm4.58-2.29a.82.82,0,1,1-.82-.82.82.82,0,0,1,.82.82v0Zm4.93,2.27a1.4,1.4,0,1,1,0-2,1.44,1.44,0,0,1,0,2Zm.29,4.59a.82.82,0,0,1-.81-.83h0a.81.81,0,0,1,.81-.81.83.83,0,0,1,0,1.65h0Zm-2.28,2.94a1.41,1.41,0,1,1,0,2,1.42,1.42,0,0,1,0-2ZM179.26,413a.82.82,0,1,1,.82.82.82.82,0,0,1-.82-.82Zm-2.91-6a3.73,3.73,0,1,1,3.73,3.73h0a3.73,3.73,0,0,1-3.72-3.72Zm-2,3.77a1.4,1.4,0,1,1,0,2,1.4,1.4,0,0,1,0-2l0,0ZM173.22,407a.82.82,0,0,1,1.64,0h0a.84.84,0,0,1-.83.82A.82.82,0,0,1,173.22,407Z" transform="translate(-10.15 -148.56)"/><path class="cls-16" d="M170.25,407a9.83,9.83,0,1,0,9.83-9.83h0A9.85,9.85,0,0,0,170.25,407Zm6.06-3.76a1.4,1.4,0,0,1-2,0l0,0a1.41,1.41,0,1,1,2,0Zm4.58-2.29a.82.82,0,1,1-.82-.82.82.82,0,0,1,.82.82v0Zm4.93,2.27a1.4,1.4,0,1,1,0-2,1.44,1.44,0,0,1,0,2Zm.29,4.59a.82.82,0,0,1-.81-.83h0a.81.81,0,0,1,.81-.81.83.83,0,0,1,0,1.65h0Zm-2.28,2.94a1.41,1.41,0,1,1,0,2,1.42,1.42,0,0,1,0-2ZM179.26,413a.82.82,0,1,1,.82.82.82.82,0,0,1-.82-.82Zm-2.91-6a3.73,3.73,0,1,1,3.73,3.73h0a3.73,3.73,0,0,1-3.72-3.72Zm-2,3.77a1.4,1.4,0,1,1,0,2,1.4,1.4,0,0,1,0-2l0,0ZM173.22,407a.82.82,0,0,1,1.64,0h0a.84.84,0,0,1-.83.82A.82.82,0,0,1,173.22,407Z" transform="translate(-10.15 -148.56)"/><path class="cls-4" d="M157.34,407a22.74,22.74,0,1,0,22.72-22.76h0A22.72,22.72,0,0,0,157.34,407Zm8.28-8.35a2.55,2.55,0,1,1-1.47-3.29,2.92,2.92,0,0,1,.36.17,2.36,2.36,0,0,1,1.11,3.14Zm14.44-7.3A15.63,15.63,0,1,1,164.45,407a15.63,15.63,0,0,1,15.61-15.65Zm-8.34,1.19a2.55,2.55,0,1,1,.37-3.59,3.29,3.29,0,0,1,.23.33,2.36,2.36,0,0,1-.6,3.28Zm10.49-4.76a2.18,2.18,0,1,1-2.16-2.51,2.35,2.35,0,0,1,2.16,2.53h0Zm9.31,3.64a2.18,2.18,0,1,1-.6-3.26,2.36,2.36,0,0,1,.61,3.27h0Zm6.26,7.8a2.18,2.18,0,1,1,1.09-3.12,2.36,2.36,0,0,1-1.09,3.14Zm1.51,9.89A2.18,2.18,0,1,1,201.8,407a2.38,2.38,0,0,1-2.51,2.13Zm-4.75,6.2A2.54,2.54,0,1,1,196,418.6l-.35-.17a2.36,2.36,0,0,1-1.1-3.1Zm-6.11,6.12a2.55,2.55,0,1,1-.36,3.59,2.71,2.71,0,0,1-.24-.35,2.34,2.34,0,0,1,.6-3.22Zm-10.49,4.75a2.18,2.18,0,1,1,2.15,2.51,2.35,2.35,0,0,1-2.15-2.49Zm-9.31-3.63a2.17,2.17,0,1,1,.61,3.24,2.35,2.35,0,0,1-.61-3.22Zm-6.25-7.82a2.18,2.18,0,1,1-1.11,3.13,2.36,2.36,0,0,1,1.11-3.11Zm-4-7.73a2.55,2.55,0,1,1,2.92,2.12,2.69,2.69,0,0,1-.4,0,2.35,2.35,0,0,1-2.54-2.14h0Z" transform="translate(-10.15 -148.56)"/><path class="cls-13" d="M493.79,407a19.28,19.28,0,1,0,19.28-19.28h0A19.29,19.29,0,0,0,493.79,407Z" transform="translate(-10.15 -148.56)"/><path class="cls-13" d="M477.06,407a36,36,0,1,0,36-36h0A36,36,0,0,0,477.06,407Zm13.84,0a22.17,22.17,0,1,1,22.2,22.14h0A22.16,22.16,0,0,1,490.9,407Z" transform="translate(-10.15 -148.56)"/><path class="cls-14" d="M487.57,407a25.5,25.5,0,1,0,25.5-25.5H513A25.5,25.5,0,0,0,487.57,407Zm2.76,0a22.74,22.74,0,1,1,22.77,22.71h0A22.74,22.74,0,0,1,490.33,407Z" transform="translate(-10.15 -148.56)"/><path class="cls-15" d="M497.44,407a15.63,15.63,0,1,0,15.62-15.64h0A15.62,15.62,0,0,0,497.44,407Zm5.8,0a9.83,9.83,0,1,1,9.84,9.82,9.83,9.83,0,0,1-9.84-9.82Z" transform="translate(-10.15 -148.56)"/><path class="cls-4" d="M503.24,407a9.83,9.83,0,1,0,9.83-9.83h0A9.83,9.83,0,0,0,503.24,407Zm6.07-3.76a1.41,1.41,0,1,1,0-2,1.45,1.45,0,0,1,0,2Zm4.57-2.29a.82.82,0,1,1-.81-.82.82.82,0,0,1,.81.82v0Zm4.93,2.27a1.4,1.4,0,1,1,0-2,1.38,1.38,0,0,1,0,2s0,0,0,0Zm.29,4.59a.82.82,0,0,1-.81-.83h0a.81.81,0,0,1,.81-.81.83.83,0,0,1,0,1.65h0Zm-2.27,2.94a1.41,1.41,0,1,1,0,2A1.42,1.42,0,0,1,516.83,410.75ZM512.25,413a.82.82,0,1,1,.82.82.82.82,0,0,1-.82-.82Zm-2.92-6a3.74,3.74,0,1,1,3.75,3.73h0a3.73,3.73,0,0,1-3.74-3.72Zm-2,3.77a1.4,1.4,0,1,1,0,2,1.39,1.39,0,0,1-.06-1.95l.05-.05ZM506.21,407a.82.82,0,1,1,.82.82.82.82,0,0,1-.82-.82Z" transform="translate(-10.15 -148.56)"/><path class="cls-16" d="M503.24,407a9.83,9.83,0,1,0,9.83-9.83h0A9.83,9.83,0,0,0,503.24,407Zm6.07-3.76a1.41,1.41,0,1,1,0-2,1.45,1.45,0,0,1,0,2Zm4.57-2.29a.82.82,0,1,1-.81-.82.82.82,0,0,1,.81.82v0Zm4.93,2.27a1.4,1.4,0,1,1,0-2,1.38,1.38,0,0,1,0,2s0,0,0,0Zm.29,4.59a.82.82,0,0,1-.81-.83h0a.81.81,0,0,1,.81-.81.83.83,0,0,1,0,1.65h0Zm-2.27,2.94a1.41,1.41,0,1,1,0,2A1.42,1.42,0,0,1,516.83,410.75ZM512.25,413a.82.82,0,1,1,.82.82.82.82,0,0,1-.82-.82Zm-2.92-6a3.74,3.74,0,1,1,3.75,3.73h0a3.73,3.73,0,0,1-3.74-3.72Zm-2,3.77a1.4,1.4,0,1,1,0,2,1.39,1.39,0,0,1-.06-1.95l.05-.05ZM506.21,407a.82.82,0,1,1,.82.82.82.82,0,0,1-.82-.82Z" transform="translate(-10.15 -148.56)"/><path class="cls-4" d="M490.33,407a22.74,22.74,0,1,0,22.72-22.76A22.74,22.74,0,0,0,490.33,407Zm8.28-8.35a2.55,2.55,0,1,1-1.47-3.29,2.92,2.92,0,0,1,.36.17,2.36,2.36,0,0,1,1.11,3.14Zm14.44-7.3A15.63,15.63,0,1,1,497.44,407a15.63,15.63,0,0,1,15.61-15.65Zm-8.34,1.19a2.55,2.55,0,1,1,.37-3.59,3.29,3.29,0,0,1,.23.33,2.36,2.36,0,0,1-.6,3.28Zm10.49-4.76a2.18,2.18,0,1,1-2.15-2.51,2.36,2.36,0,0,1,2.15,2.53Zm9.31,3.64a2.18,2.18,0,1,1-.6-3.26,2.36,2.36,0,0,1,.61,3.27h0Zm6.26,7.8a2.18,2.18,0,1,1,1.09-3.12,2.36,2.36,0,0,1-1.09,3.14Zm1.5,9.89a2.18,2.18,0,1,1,2.52-2.14,2.36,2.36,0,0,1-2.52,2.16Zm-4.74,6.2a2.35,2.35,0,0,1,3.24-.61,2.18,2.18,0,1,1-1.52,4.09,2.57,2.57,0,0,1-.62-.36,2.35,2.35,0,0,1-1.1-3.1Zm-6.11,6.12a2.55,2.55,0,1,1-.36,3.59,2.71,2.71,0,0,1-.24-.35,2.34,2.34,0,0,1,.6-3.22Zm-10.49,4.75a2.18,2.18,0,1,1,2.15,2.51,2.35,2.35,0,0,1-2.15-2.49Zm-9.31-3.63a2.18,2.18,0,1,1,.6,3.24,2.34,2.34,0,0,1-.6-3.22Zm-6.25-7.82a2.18,2.18,0,1,1-1.11,3.13,2.36,2.36,0,0,1,1.11-3.11Zm-4-7.73a2.55,2.55,0,1,1,2.92,2.12,2.69,2.69,0,0,1-.4,0,2.35,2.35,0,0,1-2.54-2.14h0Z" transform="translate(-10.15 -148.56)"/><path class="cls-17" d="M13.38,369.46H23v-10l-2.44-.65-1.8-.49a1.94,1.94,0,0,0-.06-.58c-6.88-2.88-7-25.75-.37-29.45l571.38,50.46a37,37,0,0,1-1.88,15.55,1.26,1.26,0,0,1-1.18.84h-7.06c-.1.27-.2.53-.32.79a12.23,12.23,0,0,1-7.3,6.38l-13.77,4.36L466.37,409l-41.12.18a9.18,9.18,0,0,1-9.25-9.11v-1.44h-8.14V399a10.23,10.23,0,0,1-10.22,10.24H23V395.12H13.39a1.24,1.24,0,0,1-1.17-.84,35.82,35.82,0,0,1,0-24A1.27,1.27,0,0,1,13.38,369.46Z" transform="translate(-10.15 -148.56)"/></svg>