<svg id="Layer_1" data-name="Layer 1" xmlns="http://www.w3.org/2000/svg" xmlns:xlink="http://www.w3.org/1999/xlink" viewBox="0 0 1152.01 450.53"><defs><linearGradient id="linear-gradient" x1="1089.37" y1="1019.81" x2="1098.43" y2="1019.81" gradientTransform="matrix(-1, 0, 0, 1, 1143.62, -685.59)" gradientUnits="userSpaceOnUse"><stop offset="0" stop-color="#231f20"/><stop offset="0.41" stop-color="#252122"/><stop offset="0.56" stop-color="#2b2729"/><stop offset="0.67" stop-color="#353334"/><stop offset="0.74" stop-color="#414042"/><stop offset="0.77" stop-color="#4d4d4f"/><stop offset="0.8" stop-color="#555658"/><stop offset="0.85" stop-color="#58595b"/><stop offset="0.92" stop-color="#414042"/></linearGradient><linearGradient id="linear-gradient-2" x1="1098.43" y1="1002.36" x2="1114.6" y2="1002.36" xlink:href="#linear-gradient"/><radialGradient id="radial-gradient" cx="3649.4" cy="1057.31" r="67.6" gradientTransform="matrix(-1, 0, 0, 1, 3994.48, -310.85)" xlink:href="#linear-gradient"/><linearGradient id="linear-gradient-3" x1="3614.5" y1="1038.61" x2="3638.1" y2="1038.61" gradientTransform="matrix(-1, 0, 0, 1, 3994.48, -310.85)" gradientUnits="userSpaceOnUse"><stop offset="0.03" stop-color="#6d6e71"/><stop offset="0.25" stop-color="#bcbec0"/><stop offset="0.52" stop-color="#d1d3d4"/><stop offset="0.69" stop-color="#bcbec0"/><stop offset="0.98" stop-color="#58595b"/></linearGradient><linearGradient id="linear-gradient-4" x1="3625.2" y1="1083.71" x2="3645.3" y2="1083.71" xlink:href="#linear-gradient-3"/><linearGradient id="linear-gradient-5" x1="3660.7" y1="1038.81" x2="3684.3" y2="1038.81" xlink:href="#linear-gradient-3"/><linearGradient id="linear-gradient-6" x1="3610.6" y1="1066.16" x2="3633" y2="1066.16" xlink:href="#linear-gradient-3"/><linearGradient id="linear-gradient-7" x1="3665.66" y1="1066.21" x2="3688.09" y2="1066.21" xlink:href="#linear-gradient-3"/><linearGradient id="linear-gradient-8" x1="3640.87" y1="1029.57" x2="3658.07" y2="1029.57" xlink:href="#linear-gradient-3"/><linearGradient id="linear-gradient-9" x1="3653.37" y1="1083.71" x2="3673.48" y2="1083.71" xlink:href="#linear-gradient-3"/><radialGradient id="radial-gradient-2" cx="3826.1" cy="1057.31" r="67.6" gradientTransform="matrix(-1, 0, 0, 1, 3994.48, -310.85)" xlink:href="#linear-gradient"/><linearGradient id="linear-gradient-10" x1="3791.3" y1="1038.61" x2="3814.9" y2="1038.61" xlink:href="#linear-gradient-3"/><linearGradient id="linear-gradient-11" x1="3801.96" y1="1083.71" x2="3822.06" y2="1083.71" xlink:href="#linear-gradient-3"/><linearGradient id="linear-gradient-12" x1="3837.44" y1="1038.81" x2="3861.07" y2="1038.81" xlink:href="#linear-gradient-3"/><linearGradient id="linear-gradient-13" x1="3787.4" y1="1066.16" x2="3809.8" y2="1066.16" xlink:href="#linear-gradient-3"/><linearGradient id="linear-gradient-14" x1="3842.43" y1="1066.21" x2="3864.86" y2="1066.21" xlink:href="#linear-gradient-3"/><linearGradient id="linear-gradient-15" x1="3817.63" y1="1029.57" x2="3834.83" y2="1029.57" xlink:href="#linear-gradient-3"/><linearGradient id="linear-gradient-16" x1="3830.13" y1="1083.71" x2="3850.24" y2="1083.71" xlink:href="#linear-gradient-3"/><radialGradient id="radial-gradient-3" cx="3025.5" cy="1057.31" r="67.6" gradientTransform="matrix(-1, 0, 0, 1, 3994.48, -310.85)" xlink:href="#linear-gradient"/><linearGradient id="linear-gradient-17" x1="2990.64" y1="1038.61" x2="3014.24" y2="1038.61" xlink:href="#linear-gradient-3"/><linearGradient id="linear-gradient-18" x1="3001.32" y1="1083.71" x2="3021.42" y2="1083.71" xlink:href="#linear-gradient-3"/><linearGradient id="linear-gradient-19" x1="3036.8" y1="1038.81" x2="3060.43" y2="1038.81" xlink:href="#linear-gradient-3"/><linearGradient id="linear-gradient-20" x1="2986.74" y1="1066.16" x2="3009.17" y2="1066.16" xlink:href="#linear-gradient-3"/><linearGradient id="linear-gradient-21" x1="3041.8" y1="1066.21" x2="3064.23" y2="1066.21" xlink:href="#linear-gradient-3"/><linearGradient id="linear-gradient-22" x1="3017" y1="1029.57" x2="3034.2" y2="1029.57" xlink:href="#linear-gradient-3"/><linearGradient id="linear-gradient-23" x1="3029.5" y1="1083.71" x2="3049.61" y2="1083.71" xlink:href="#linear-gradient-3"/></defs><title>Flat bes Truck</title><path d="M1163.38,638.66a12.14,12.14,0,0,1,11.9,11.6l.7,13.1a12.21,12.21,0,0,1-10.5,12.9Z" transform="translate(-23.99 -374.74)" style="fill:#ec1c24"/><path d="M1161.58,607.46c7.6-.2,13.7,2.7,14,6.6l.4,7.9c.2,4-5.6,7.5-13.1,8.2Z" transform="translate(-23.99 -374.74)" style="fill:#ec1c24"/><rect x="1158.88" y="590.45" width="5" height="85.9" transform="translate(-57.94 -308.08) rotate(-3.24)" style="fill:#020200"/><path d="M862.38,419.16h223.1v-21.6a18.52,18.52,0,0,0-18.5-18.5H871.58a9.18,9.18,0,0,0-9.2,9.16v30.94Z" transform="translate(-23.99 -374.74)" style="fill:#a7cb64"/><polygon points="5.69 301.53 5.69 212.23 11.49 212.23 11.49 200.83 27.59 200.83 27.59 316.63 11.49 316.63 11.49 301.53 5.69 301.53" style="fill:#3b3a3a;stroke:#231f20;stroke-miterlimit:10;stroke-width:0.5910000205039978px"/><path d="M53,692.76v-25.6h37.1v21.5a10.38,10.38,0,0,1-2.8,7.1L71.48,713H24.38v-20.2Z" transform="translate(-23.99 -374.74)" style="fill:#3b3a3a;stroke:#231f20;stroke-miterlimit:10;stroke-width:0.7742000222206116px"/><rect x="21.5" y="250.43" width="11.8" height="54.6" style="fill:#3b3a3a;stroke:#231f20;stroke-miterlimit:10;stroke-width:0.7742000222206116px"/><rect x="31.58" y="245.21" width="11.8" height="59.7" style="fill:#3b3a3a;stroke:#231f20;stroke-miterlimit:10;stroke-width:0.7742000222206116px"/><polygon points="846.19 375.53 846.19 201.23 1135.29 201.23 1117.19 375.53 846.19 375.53"/><rect x="54.23" y="263.38" width="1086.9" height="85.5" style="fill:#86a250"/><rect x="29.06" y="224.15" width="754" height="58.2" style="fill:#86a250"/><rect x="423.19" y="256.56" width="345" height="11.2" style="fill:#a7cb64"/><rect x="423.19" y="232.49" width="345" height="11.2" style="fill:#a7cb64"/><rect x="45.16" y="256.56" width="345" height="11.2" style="fill:#a7cb64"/><rect x="45.16" y="232.49" width="345" height="11.2" style="fill:#a7cb64"/><path d="M450.48,733.86l.9-1.3h14.4l.8,1.3h70.7v-3.7h16.1v3.7h55.2l.7-1.3h11.3l.7,1.3h243.2a51.11,51.11,0,0,0-.1-18.7l-2.4-12H349.18l1.2,30.8h100.1Z" transform="translate(-23.99 -374.74)" style="fill:#a7cb64"/><rect x="45.19" y="290.93" width="9.1" height="86.6" style="fill:url(#linear-gradient)"/><rect x="205.71" y="333.49" width="50.9" height="9.9" style="fill:#a7cb64"/><rect x="241.99" y="329.08" width="9.8" height="8.7" style="fill:#86a250"/><rect x="227.44" y="331.88" width="9.8" height="8.7" style="fill:#86a250"/><rect x="212.95" y="329.13" width="9.8" height="8.7" style="fill:#86a250"/><rect x="218.53" y="348.05" width="28.3" height="3.3" style="fill:#a7cb64"/><rect x="238.67" y="346.49" width="5.5" height="2.9" style="fill:#86a250"/><rect x="230.52" y="347.49" width="5.5" height="2.9" style="fill:#86a250"/><rect x="222.52" y="346.54" width="5.5" height="2.9" style="fill:#86a250"/><rect x="218.55" y="354.17" width="28.3" height="7.4" style="fill:#a7cb64"/><rect x="238.63" y="350.86" width="5.5" height="6.5" style="fill:#86a250"/><rect x="230.53" y="353.01" width="5.5" height="6.5" style="fill:#86a250"/><rect x="222.49" y="350.9" width="5.5" height="6.5" style="fill:#86a250"/><polygon points="28.99 339.13 45.19 339.13 45.19 294.43 28.99 294.43 28.99 339.13" style="fill:url(#linear-gradient-2)"/><path d="M423.88,746.46a78.75,78.75,0,1,1-78.8-78.7h0a78.74,78.74,0,0,1,78.8,78.68Z" transform="translate(-23.99 -374.74)" style="fill:#3d3b3d"/><path d="M423.88,746.46a78.75,78.75,0,1,1-78.8-78.7h0a78.74,78.74,0,0,1,78.8,78.68Z" transform="translate(-23.99 -374.74)"/><path d="M412.68,746.46a67.6,67.6,0,1,1-67.6-67.6h0A67.64,67.64,0,0,1,412.68,746.46Z" transform="translate(-23.99 -374.74)" style="fill:url(#radial-gradient)"/><path d="M403.08,746.46a58,58,0,1,1-58-58h0A58,58,0,0,1,403.08,746.46Z" transform="translate(-23.99 -374.74)" style="fill:#231f20"/><path d="M403.08,746.46a58,58,0,1,1-58-58h0A58,58,0,0,1,403.08,746.46Z" transform="translate(-23.99 -374.74)" style="fill:#3b3a3a"/><path d="M386.08,746.46a41,41,0,1,1-41-41,41,41,0,0,1,41,41Z" transform="translate(-23.99 -374.74)" style="fill:#fff;stroke:#3d3b3d;stroke-miterlimit:10;stroke-width:0.428600013256073px"/><path d="M373.58,747a28.4,28.4,0,1,1-28.4-28.4,28.4,28.4,0,0,1,28.4,28.4Z" transform="translate(-23.99 -374.74)" style="fill:#f6f6f6"/><path d="M356.38,732.76l12.8-16.2A39.15,39.15,0,0,1,380,730l-18.6,9A18.79,18.79,0,0,0,356.38,732.76Z" transform="translate(-23.99 -374.74)" style="fill:url(#linear-gradient-3)"/><path d="M369.28,777.16a39.18,39.18,0,0,1-15.5,7.5l-4.6-20.1a17.79,17.79,0,0,0,7.2-3.5Z" transform="translate(-23.99 -374.74)" style="fill:url(#linear-gradient-4)"/><path d="M328.78,739.16l-18.6-8.9a39.08,39.08,0,0,1,10.7-13.5l12.9,16.1A18.13,18.13,0,0,0,328.78,739.16Z" transform="translate(-23.99 -374.74)" style="fill:url(#linear-gradient-5)"/><path d="M363.28,747v-.1h20.6v.1a39,39,0,0,1-3.8,16.8l-18.6-9A19,19,0,0,0,363.28,747Z" transform="translate(-23.99 -374.74)" style="fill:url(#linear-gradient-6)"/><path d="M327,747a17.14,17.14,0,0,0,1.8,7.8l-18.6,9a37.63,37.63,0,0,1-3.9-16.8Z" transform="translate(-23.99 -374.74)" style="fill:url(#linear-gradient-7)"/><path d="M336.38,709.16a40.07,40.07,0,0,1,17.2-.1l-4.5,20.2a18.45,18.45,0,0,0-8.1,0Z" transform="translate(-23.99 -374.74)" style="fill:url(#linear-gradient-8)"/><path d="M341.08,764.56l-4.6,20.1a40,40,0,0,1-15.6-7.4l12.9-16.2A18.93,18.93,0,0,0,341.08,764.56Z" transform="translate(-23.99 -374.74)" style="fill:url(#linear-gradient-9)"/><path d="M247.08,746.46a78.75,78.75,0,1,1-78.8-78.7,78.74,78.74,0,0,1,78.8,78.7Z" transform="translate(-23.99 -374.74)" style="fill:#3d3b3d"/><path d="M247.08,746.46a78.75,78.75,0,1,1-78.8-78.7,78.74,78.74,0,0,1,78.8,78.7Z" transform="translate(-23.99 -374.74)"/><path d="M236,746.46a67.6,67.6,0,1,1-67.6-67.6h0A67.64,67.64,0,0,1,236,746.46Z" transform="translate(-23.99 -374.74)" style="fill:url(#radial-gradient-2)"/><path d="M226.38,746.46a58,58,0,1,1-58-58h0A58,58,0,0,1,226.38,746.46Z" transform="translate(-23.99 -374.74)" style="fill:#231f20"/><path d="M226.38,746.46a58,58,0,1,1-58-58h0A58,58,0,0,1,226.38,746.46Z" transform="translate(-23.99 -374.74)" style="fill:#3b3a3a"/><path d="M209.28,746.46a41,41,0,1,1-41-41,41,41,0,0,1,41,41Z" transform="translate(-23.99 -374.74)" style="fill:#fff;stroke:#3d3b3d;stroke-miterlimit:10;stroke-width:0.428600013256073px"/><path d="M196.78,747a28.4,28.4,0,1,1-28.4-28.4,28.4,28.4,0,0,1,28.4,28.4Z" transform="translate(-23.99 -374.74)" style="fill:#f6f6f6"/><path d="M179.58,732.76l12.8-16.2a39.15,39.15,0,0,1,10.8,13.4l-18.6,9A17.61,17.61,0,0,0,179.58,732.76Z" transform="translate(-23.99 -374.74)" style="fill:url(#linear-gradient-10)"/><path d="M192.48,777.16a39.18,39.18,0,0,1-15.5,7.5l-4.6-20.1a17.79,17.79,0,0,0,7.2-3.5Z" transform="translate(-23.99 -374.74)" style="fill:url(#linear-gradient-11)"/><path d="M152,739.16l-18.6-8.9a39.08,39.08,0,0,1,10.7-13.5l13,16.1A17.44,17.44,0,0,0,152,739.16Z" transform="translate(-23.99 -374.74)" style="fill:url(#linear-gradient-12)"/><path d="M186.48,747v-.1h20.6v.1a39,39,0,0,1-3.8,16.8l-18.6-9A17.53,17.53,0,0,0,186.48,747Z" transform="translate(-23.99 -374.74)" style="fill:url(#linear-gradient-13)"/><path d="M150.28,747a17.14,17.14,0,0,0,1.8,7.8l-18.6,9a37.63,37.63,0,0,1-3.9-16.8Z" transform="translate(-23.99 -374.74)" style="fill:url(#linear-gradient-14)"/><path d="M159.68,709.16a40.07,40.07,0,0,1,17.2-.1l-4.5,20.2a18.45,18.45,0,0,0-8.1,0Z" transform="translate(-23.99 -374.74)" style="fill:url(#linear-gradient-15)"/><path d="M164.38,764.56l-4.6,20.1a40,40,0,0,1-15.6-7.4l12.9-16.2A17.56,17.56,0,0,0,164.38,764.56Z" transform="translate(-23.99 -374.74)" style="fill:url(#linear-gradient-16)"/><rect x="613.71" y="354.55" width="228.7" height="9.8" style="fill:#a7cb64"/><rect x="613.71" y="362.94" width="250.2" height="9.8" style="fill:#a7cb64"/><path d="M686.48,662.16a2.9,2.9,0,1,1-2.9,2.9,2.9,2.9,0,0,1,2.9-2.9Z" transform="translate(-23.99 -374.74)"/><path d="M686.48,662.16a2.9,2.9,0,1,1-2.9,2.9,2.9,2.9,0,0,1,2.9-2.9Z" transform="translate(-23.99 -374.74)"/><path d="M686.48,663.06a2.05,2.05,0,1,1-2.1,2,2,2,0,0,1,2-2Z" transform="translate(-23.99 -374.74)"/><path d="M686.38,667.16a2.1,2.1,0,1,1,2.1-2.1h0a2,2,0,0,1-2,2.1Zm0-.1a2.05,2.05,0,1,0-2-2.1,2,2,0,0,0,1.9,2.1Z" transform="translate(-23.99 -374.74)"/><path d="M686.48,663.46a1.6,1.6,0,1,1-1.6,1.6h0a1.58,1.58,0,0,1,1.56-1.6Z" transform="translate(-23.99 -374.74)"/><path d="M686.48,666.76a1.7,1.7,0,1,1,1.7-1.7,1.68,1.68,0,0,1-1.68,1.7Zm0-.2a1.5,1.5,0,1,0-1.5-1.5,1.46,1.46,0,0,0,1.44,1.5Z" transform="translate(-23.99 -374.74)"/><path d="M715.78,662.46a2.9,2.9,0,1,1-2.9,2.9,2.85,2.85,0,0,1,2.78-2.9Z" transform="translate(-23.99 -374.74)"/><path d="M715.78,662.46a2.9,2.9,0,1,1-2.9,2.9,2.85,2.85,0,0,1,2.78-2.9Z" transform="translate(-23.99 -374.74)"/><path d="M715.78,663.36a2.05,2.05,0,1,1-2.1,2,2,2,0,0,1,2-2Z" transform="translate(-23.99 -374.74)"/><path d="M715.68,667.46a2.1,2.1,0,1,1,2.1-2.1h0a2,2,0,0,1-2,2.1Zm0,0a2.05,2.05,0,1,0-2-2.1A2.08,2.08,0,0,0,715.68,667.46Z" transform="translate(-23.99 -374.74)"/><path d="M715.78,663.76a1.6,1.6,0,1,1-1.6,1.6h0a1.58,1.58,0,0,1,1.56-1.6Z" transform="translate(-23.99 -374.74)"/><path d="M715.78,667.06a1.7,1.7,0,1,1,1.7-1.7,1.68,1.68,0,0,1-1.68,1.7Zm0-.2a1.5,1.5,0,1,0-1.5-1.5,1.46,1.46,0,0,0,1.44,1.5Z" transform="translate(-23.99 -374.74)"/><path d="M686.48,686.26a2.9,2.9,0,1,1-2.9,2.9,2.9,2.9,0,0,1,2.9-2.9Z" transform="translate(-23.99 -374.74)"/><path d="M686.48,686.26a2.9,2.9,0,1,1-2.9,2.9,2.9,2.9,0,0,1,2.9-2.9Z" transform="translate(-23.99 -374.74)"/><path d="M686.48,687.16a2.05,2.05,0,1,1-2.1,2,2,2,0,0,1,2-2Z" transform="translate(-23.99 -374.74)"/><path d="M686.38,691.26a2.1,2.1,0,1,1,2.1-2.1h0a2,2,0,0,1-2,2.1Zm0,0a2.05,2.05,0,1,0-2-2.1A2.16,2.16,0,0,0,686.38,691.26Z" transform="translate(-23.99 -374.74)"/><path d="M686.48,687.56a1.6,1.6,0,1,1-1.6,1.6h0a1.58,1.58,0,0,1,1.56-1.6Z" transform="translate(-23.99 -374.74)"/><path d="M686.48,690.86a1.7,1.7,0,1,1,1.7-1.7,1.68,1.68,0,0,1-1.68,1.7Zm0-.2a1.5,1.5,0,1,0-1.5-1.5,1.46,1.46,0,0,0,1.44,1.5Z" transform="translate(-23.99 -374.74)"/><path d="M715.78,686.56a2.9,2.9,0,1,1-2.9,2.9,2.85,2.85,0,0,1,2.78-2.9Z" transform="translate(-23.99 -374.74)"/><path d="M715.78,686.56a2.9,2.9,0,1,1-2.9,2.9,2.85,2.85,0,0,1,2.78-2.9Z" transform="translate(-23.99 -374.74)"/><path d="M715.78,687.46a2.05,2.05,0,1,1-2.1,2,2,2,0,0,1,2-2Z" transform="translate(-23.99 -374.74)"/><path d="M715.68,691.56a2.1,2.1,0,1,1,2.1-2.1h0a2,2,0,0,1-2,2.1Zm0,0a2.05,2.05,0,1,0-2-2.1A2.08,2.08,0,0,0,715.68,691.56Z" transform="translate(-23.99 -374.74)"/><path d="M715.78,688a1.6,1.6,0,1,1-1.6,1.6h0a1.48,1.48,0,0,1,1.33-1.6Z" transform="translate(-23.99 -374.74)"/><path d="M715.78,691.16a1.7,1.7,0,1,1,1.7-1.7,1.63,1.63,0,0,1-1.56,1.7Zm0-.2a1.5,1.5,0,1,0-1.5-1.5,1.46,1.46,0,0,0,1.44,1.5Z" transform="translate(-23.99 -374.74)"/><path d="M563.08,662.16a2.9,2.9,0,1,1-2.9,2.9,2.9,2.9,0,0,1,2.9-2.9Z" transform="translate(-23.99 -374.74)"/><path d="M563.08,662.16a2.9,2.9,0,1,1-2.9,2.9,2.9,2.9,0,0,1,2.9-2.9Z" transform="translate(-23.99 -374.74)"/><path d="M563.08,663.06a2.05,2.05,0,1,1-2.1,2A2.1,2.1,0,0,1,563.08,663.06Z" transform="translate(-23.99 -374.74)"/><path d="M563.08,667.16a2.1,2.1,0,1,1,2.1-2.1h0A2.11,2.11,0,0,1,563.08,667.16Zm0-.1a2.05,2.05,0,1,0-2-2.1,2,2,0,0,0,1.9,2.1Z" transform="translate(-23.99 -374.74)"/><path d="M563.08,663.46a1.6,1.6,0,1,1-1.6,1.6h0A1.65,1.65,0,0,1,563.08,663.46Z" transform="translate(-23.99 -374.74)"/><path d="M563.08,666.76a1.7,1.7,0,1,1,1.7-1.7,1.68,1.68,0,0,1-1.68,1.7Zm0-.2a1.5,1.5,0,1,0-1.5-1.5A1.54,1.54,0,0,0,563.08,666.56Z" transform="translate(-23.99 -374.74)"/><path d="M592.38,662.46a2.9,2.9,0,1,1-2.9,2.9,2.9,2.9,0,0,1,2.9-2.9Z" transform="translate(-23.99 -374.74)"/><path d="M592.38,662.46a2.9,2.9,0,1,1-2.9,2.9,2.9,2.9,0,0,1,2.9-2.9Z" transform="translate(-23.99 -374.74)"/><path d="M592.38,663.36a2.05,2.05,0,1,1-2.1,2A2.1,2.1,0,0,1,592.38,663.36Z" transform="translate(-23.99 -374.74)"/><path d="M592.38,667.46a2.1,2.1,0,1,1,2.1-2.1h0A2.11,2.11,0,0,1,592.38,667.46Zm0,0a2.05,2.05,0,1,0-2-2.1,2,2,0,0,0,1.9,2.1Z" transform="translate(-23.99 -374.74)"/><path d="M592.38,663.76a1.6,1.6,0,1,1-1.6,1.6h0A1.65,1.65,0,0,1,592.38,663.76Z" transform="translate(-23.99 -374.74)"/><path d="M592.38,667.06a1.7,1.7,0,1,1,1.7-1.7,1.68,1.68,0,0,1-1.68,1.7Zm0-.2a1.5,1.5,0,1,0-1.5-1.5A1.54,1.54,0,0,0,592.38,666.86Z" transform="translate(-23.99 -374.74)"/><path d="M563.08,686.26a2.9,2.9,0,1,1-2.9,2.9,2.9,2.9,0,0,1,2.9-2.9Z" transform="translate(-23.99 -374.74)"/><path d="M563.08,686.26a2.9,2.9,0,1,1-2.9,2.9,2.9,2.9,0,0,1,2.9-2.9Z" transform="translate(-23.99 -374.74)"/><path d="M563.08,687.16a2.05,2.05,0,1,1-2.1,2A2.17,2.17,0,0,1,563.08,687.16Z" transform="translate(-23.99 -374.74)"/><path d="M563.08,691.26a2.1,2.1,0,1,1,2.1-2.1h0A2.11,2.11,0,0,1,563.08,691.26Zm0,0a2.05,2.05,0,1,0-2-2.1A2.08,2.08,0,0,0,563.08,691.26Z" transform="translate(-23.99 -374.74)"/><path d="M563.08,687.56a1.6,1.6,0,1,1-1.6,1.6h0A1.65,1.65,0,0,1,563.08,687.56Z" transform="translate(-23.99 -374.74)"/><path d="M563.08,690.86a1.7,1.7,0,1,1,1.7-1.7,1.68,1.68,0,0,1-1.68,1.7Zm0-.2a1.5,1.5,0,1,0-1.5-1.5A1.54,1.54,0,0,0,563.08,690.66Z" transform="translate(-23.99 -374.74)"/><path d="M592.38,686.56a2.9,2.9,0,1,1-2.9,2.9,2.9,2.9,0,0,1,2.9-2.9Z" transform="translate(-23.99 -374.74)"/><path d="M592.38,686.56a2.9,2.9,0,1,1-2.9,2.9,2.9,2.9,0,0,1,2.9-2.9Z" transform="translate(-23.99 -374.74)"/><path d="M592.38,687.46a2.05,2.05,0,1,1-2.1,2A2.1,2.1,0,0,1,592.38,687.46Z" transform="translate(-23.99 -374.74)"/><path d="M592.38,691.56a2.1,2.1,0,1,1,2.1-2.1h0A2.11,2.11,0,0,1,592.38,691.56Zm0,0a2.05,2.05,0,1,0-2-2.1,2,2,0,0,0,1.9,2.1Z" transform="translate(-23.99 -374.74)"/><path d="M592.38,688a1.6,1.6,0,1,1-1.6,1.6h0a1.53,1.53,0,0,1,1.44-1.6Z" transform="translate(-23.99 -374.74)"/><path d="M592.38,691.16a1.7,1.7,0,1,1,1.7-1.7,1.63,1.63,0,0,1-1.56,1.7Zm0-.2a1.5,1.5,0,1,0-1.5-1.5A1.54,1.54,0,0,0,592.38,691Z" transform="translate(-23.99 -374.74)"/><path d="M439.78,662.16a2.9,2.9,0,1,1-2.9,2.9,2.85,2.85,0,0,1,2.78-2.9Z" transform="translate(-23.99 -374.74)"/><path d="M439.78,662.16a2.9,2.9,0,1,1-2.9,2.9,2.85,2.85,0,0,1,2.78-2.9Z" transform="translate(-23.99 -374.74)"/><path d="M439.78,663.06a2.05,2.05,0,1,1-2.1,2,2,2,0,0,1,2-2Z" transform="translate(-23.99 -374.74)"/><path d="M439.68,667.16a2.1,2.1,0,1,1,2.1-2.1h0a2,2,0,0,1-2,2.1Zm0-.1a2.05,2.05,0,1,0-2-2.1,2,2,0,0,0,1.9,2.1Z" transform="translate(-23.99 -374.74)"/><path d="M439.78,663.46a1.6,1.6,0,1,1-1.6,1.6h0a1.58,1.58,0,0,1,1.56-1.6Z" transform="translate(-23.99 -374.74)"/><path d="M439.68,666.76a1.7,1.7,0,1,1,1.7-1.7,1.58,1.58,0,0,1-1.45,1.7Zm.1-.2a1.5,1.5,0,1,0-1.5-1.5,1.46,1.46,0,0,0,1.44,1.5Z" transform="translate(-23.99 -374.74)"/><path d="M469.08,662.46a2.9,2.9,0,1,1-2.9,2.9,2.85,2.85,0,0,1,2.78-2.9Z" transform="translate(-23.99 -374.74)"/><path d="M469.08,662.46a2.9,2.9,0,1,1-2.9,2.9,2.85,2.85,0,0,1,2.78-2.9Z" transform="translate(-23.99 -374.74)"/><path d="M469.08,663.36a2.05,2.05,0,1,1-2.1,2,2,2,0,0,1,2-2Z" transform="translate(-23.99 -374.74)"/><path d="M469,667.46a2.1,2.1,0,1,1,2.1-2.1h0a2,2,0,0,1-2,2.1Zm0,0a2.05,2.05,0,1,0-2-2.1A2.08,2.08,0,0,0,469,667.46Z" transform="translate(-23.99 -374.74)"/><path d="M469.08,663.76a1.6,1.6,0,1,1-1.6,1.6h0a1.58,1.58,0,0,1,1.56-1.6Z" transform="translate(-23.99 -374.74)"/><path d="M469,667.06a1.7,1.7,0,1,1,1.7-1.7,1.58,1.58,0,0,1-1.45,1.7A1,1,0,0,1,469,667.06Zm0-.2a1.5,1.5,0,1,0-1.5-1.5A1.6,1.6,0,0,0,469,666.86Z" transform="translate(-23.99 -374.74)"/><path d="M439.78,686.26a2.9,2.9,0,1,1-2.9,2.9,2.85,2.85,0,0,1,2.78-2.9Z" transform="translate(-23.99 -374.74)"/><path d="M439.78,686.26a2.9,2.9,0,1,1-2.9,2.9,2.85,2.85,0,0,1,2.78-2.9Z" transform="translate(-23.99 -374.74)"/><path d="M439.78,687.16a2.05,2.05,0,1,1-2.1,2,2,2,0,0,1,2-2Z" transform="translate(-23.99 -374.74)"/><path d="M439.68,691.26a2.1,2.1,0,1,1,2.1-2.1h0a2,2,0,0,1-2,2.1Zm0,0a2.05,2.05,0,1,0-2-2.1A2.16,2.16,0,0,0,439.68,691.26Z" transform="translate(-23.99 -374.74)"/><path d="M439.78,687.56a1.6,1.6,0,1,1-1.6,1.6h0a1.58,1.58,0,0,1,1.56-1.6Z" transform="translate(-23.99 -374.74)"/><path d="M439.68,690.86a1.7,1.7,0,1,1,1.7-1.7,1.58,1.58,0,0,1-1.45,1.7Zm.1-.2a1.5,1.5,0,1,0-1.5-1.5,1.46,1.46,0,0,0,1.44,1.5Z" transform="translate(-23.99 -374.74)"/><path d="M469.08,686.56a2.9,2.9,0,1,1-2.9,2.9,2.85,2.85,0,0,1,2.78-2.9Z" transform="translate(-23.99 -374.74)"/><path d="M469.08,686.56a2.9,2.9,0,1,1-2.9,2.9,2.85,2.85,0,0,1,2.78-2.9Z" transform="translate(-23.99 -374.74)"/><path d="M469.08,687.46a2.05,2.05,0,1,1-2.1,2,2,2,0,0,1,2-2Z" transform="translate(-23.99 -374.74)"/><path d="M469,691.56a2.1,2.1,0,1,1,2.1-2.1h0a2,2,0,0,1-2,2.1Zm0,0a2.05,2.05,0,1,0-2-2.1A2.08,2.08,0,0,0,469,691.56Z" transform="translate(-23.99 -374.74)"/><path d="M469.08,688a1.6,1.6,0,1,1-1.6,1.6h0a1.48,1.48,0,0,1,1.33-1.6Z" transform="translate(-23.99 -374.74)"/><path d="M469,691.16a1.7,1.7,0,1,1,1.7-1.7,1.53,1.53,0,0,1-1.34,1.7A1.09,1.09,0,0,1,469,691.16Zm0-.2a1.5,1.5,0,1,0-1.5-1.5A1.6,1.6,0,0,0,469,691Z" transform="translate(-23.99 -374.74)"/><path d="M245.38,686.26a2.9,2.9,0,1,1-2.9,2.9,2.9,2.9,0,0,1,2.9-2.9Z" transform="translate(-23.99 -374.74)"/><path d="M245.38,686.26a2.9,2.9,0,1,1-2.9,2.9,2.9,2.9,0,0,1,2.9-2.9Z" transform="translate(-23.99 -374.74)"/><path d="M245.38,687.16a2.05,2.05,0,1,1-2.1,2A2.17,2.17,0,0,1,245.38,687.16Z" transform="translate(-23.99 -374.74)"/><path d="M245.38,691.26a2.1,2.1,0,1,1,2.1-2.1h0A2.11,2.11,0,0,1,245.38,691.26Zm0,0a2.05,2.05,0,1,0-2-2.1A2.16,2.16,0,0,0,245.38,691.26Z" transform="translate(-23.99 -374.74)"/><path d="M245.48,687.56a1.6,1.6,0,1,1-1.6,1.6h0a1.58,1.58,0,0,1,1.56-1.6Z" transform="translate(-23.99 -374.74)"/><path d="M245.38,690.86a1.7,1.7,0,1,1,1.7-1.7,1.63,1.63,0,0,1-1.56,1.7Zm0-.2a1.5,1.5,0,1,0-1.5-1.5A1.6,1.6,0,0,0,245.38,690.66Z" transform="translate(-23.99 -374.74)"/><path d="M274.68,686.56a2.9,2.9,0,1,1-2.9,2.9,2.9,2.9,0,0,1,2.9-2.9Z" transform="translate(-23.99 -374.74)"/><path d="M274.68,686.56a2.9,2.9,0,1,1-2.9,2.9,2.9,2.9,0,0,1,2.9-2.9Z" transform="translate(-23.99 -374.74)"/><path d="M274.68,687.46a2.05,2.05,0,1,1-2.1,2A2.17,2.17,0,0,1,274.68,687.46Z" transform="translate(-23.99 -374.74)"/><path d="M274.68,691.56a2.1,2.1,0,1,1,2.1-2.1h0A2.11,2.11,0,0,1,274.68,691.56Zm0,0a2.05,2.05,0,1,0-2-2.1A2.08,2.08,0,0,0,274.68,691.56Z" transform="translate(-23.99 -374.74)"/><path d="M274.78,688a1.6,1.6,0,1,1-1.6,1.6h0a1.48,1.48,0,0,1,1.33-1.6Z" transform="translate(-23.99 -374.74)"/><path d="M274.68,691.16a1.7,1.7,0,1,1,1.7-1.7,1.58,1.58,0,0,1-1.45,1.7Zm0-.2a1.5,1.5,0,1,0-1.5-1.5A1.54,1.54,0,0,0,274.68,691Z" transform="translate(-23.99 -374.74)"/><path d="M442.78,722.36a5.39,5.39,0,0,0,3.9-1.6,6.35,6.35,0,0,0,.4-8.7l-48.8-57.7H109.18l-27.8,49.8a6.56,6.56,0,0,0,2,8.5,5.61,5.61,0,0,0,7.72-1.78l.18-.32,24.4-43.7h277.5l45.3,53.6A5.53,5.53,0,0,0,442.78,722.36Z" transform="translate(-23.99 -374.74)" style="fill:#a7cb64"/><path d="M873.28,695.16a5.9,5.9,0,0,0,0-11.8c-26.7,0-34.4-9.7-34.8-14.8V409.66c0-28.9-38.3-34.6-39.9-34.9a5.86,5.86,0,0,0-1.6,11.6c.4.1,30.1,4.6,30.1,23.2v259C827.28,669.76,827.78,695.16,873.28,695.16Z" transform="translate(-23.99 -374.74)" style="fill:#231f20"/><rect x="790.85" y="40.02" width="35" height="240.3" style="fill:#808285"/><rect x="817.11" y="40.02" width="8.8" height="240.3" style="fill:#6d6e71"/><rect x="790.85" y="215.82" width="35" height="12" style="fill:#231f20;stroke:#58595b;stroke-miterlimit:10;stroke-width:0.5758000016212463px"/><rect x="790.85" y="75.38" width="35" height="12" style="fill:#231f20;stroke:#58595b;stroke-miterlimit:10;stroke-width:0.5758000016212463px"/><path d="M1080.48,405.06l.3.1a14.62,14.62,0,0,1,9.5,7.1l72.9,118.9a17.06,17.06,0,0,1,2,8.6l-7.3,147.3a1.64,1.64,0,0,1-1.6,1.6h-77.5l-.8-.6a78.73,78.73,0,0,0-71.7-46.1,95.63,95.63,0,0,0-10.7.7H874.18a12.51,12.51,0,0,1-11.8-8.1V408a2.9,2.9,0,0,1,2.9-2.9h215.2Z" transform="translate(-23.99 -374.74)" style="fill:#86a250"/><path d="M1143.28,667.36l7.6-127.8a12.38,12.38,0,0,0-1.7-7l-64-107.3a12.29,12.29,0,0,0-10.5-6h-92.1a12.18,12.18,0,0,0-12.2,12.16V616a12.21,12.21,0,0,0,12.21,12.21H983c24.7-.7,79,2.8,98,43.7a12,12,0,0,0,11,6.9h39.1A12.09,12.09,0,0,0,1143.28,667.36Z" transform="translate(-23.99 -374.74)" style="fill:none;stroke:#231f20;stroke-miterlimit:10;stroke-width:0.7742000222206116px"/><path d="M984.38,529.86v-96.5h82.1a12.34,12.34,0,0,1,10.7,6.1l59.5,99.9h0a7.85,7.85,0,0,1-8.36,7.33,2,2,0,0,1-.34,0Z" transform="translate(-23.99 -374.74)" style="fill:#403430"/><line x1="1053.29" y1="64.63" x2="1053.29" y2="165.03" style="fill:none;stroke:#231f20;stroke-miterlimit:10;stroke-width:0.7742000222206116px"/><path d="M989.28,546.66h25.8a3.37,3.37,0,0,0,3.4-3.34v-.06h0a3.37,3.37,0,0,0-3.34-3.4H989.28a3.38,3.38,0,0,0-3.4,3.34v.06h0a3.31,3.31,0,0,0,3.22,3.4Z" transform="translate(-23.99 -374.74)" style="fill:#fff"/><path d="M1131.68,773.56h-79.6v-23.3a82.62,82.62,0,0,0-82.6-82.6h0a82.62,82.62,0,0,0-82.6,82.6v23.3h-10.5a14.08,14.08,0,0,1-14.1-14.06V661.76a6.08,6.08,0,0,1,6.06-6.1H990.28a76.61,76.61,0,0,1,10.7-.7,78.73,78.73,0,0,1,71.7,46.1l.8.6h83.3l-14.3,63.4h0A11.11,11.11,0,0,1,1131.68,773.56Z" transform="translate(-23.99 -374.74)" style="fill:#a7cb64"/><path d="M1131.58,719.26v4.4a4.12,4.12,0,0,0-1.8-2.9c-2.6,2-7.8,3.6-14.6,4.3l-32.5,3.5v-4.4l32.5-3.5c6.7-.7,12-2.3,14.6-4.3A3.78,3.78,0,0,1,1131.58,719.26Z" transform="translate(-23.99 -374.74)" style="fill:#86a250"/><path d="M1131.58,724.16v4.4c0,3.3-6.6,6.1-16.4,7.2l-32.5,3.5v-4.4l32.5-3.5C1125,730.36,1131.58,727.46,1131.58,724.16Z" transform="translate(-23.99 -374.74)" style="fill:#86a250"/><path d="M1131.58,733.06v4.4c0,3.3-6.6,6.1-16.4,7.2l-32.5,3.5v-4.4l32.5-3.5C1125,739.26,1131.58,736.36,1131.58,733.06Z" transform="translate(-23.99 -374.74)" style="fill:#86a250"/><path d="M922.58,628.46a1,1,0,0,0,.8,1h7.2a.92.92,0,0,0,.8-1v-8.7a1,1,0,0,0-.8-1h-7.2a.93.93,0,0,0-.8,1Z" transform="translate(-23.99 -374.74)" style="fill:#ed1c24"/><path d="M922.28,628.46v-8.7a1.23,1.23,0,0,1,1.1-1.3h7.2a1.23,1.23,0,0,1,1.1,1.3v8.7a1.22,1.22,0,0,1-1.1,1.3h-7.2a1.16,1.16,0,0,1-1.11-1.21S922.28,628.49,922.28,628.46Zm1-9.3a.57.57,0,0,0-.5.6v8.7a.56.56,0,0,0,.5.6h7.2a.56.56,0,0,0,.5-.6v-8.7a.57.57,0,0,0-.5-.6Z" transform="translate(-23.99 -374.74)" style="fill:#231f20"/><path d="M911.68,628.46a1,1,0,0,0,.8,1h7.2a.92.92,0,0,0,.8-1v-8.7a1,1,0,0,0-.8-1h-7.2a.93.93,0,0,0-.8,1Z" transform="translate(-23.99 -374.74)" style="fill:#aba9a7"/><path d="M911.38,628.46v-8.7a1.23,1.23,0,0,1,1.1-1.3h7.2a1.23,1.23,0,0,1,1.1,1.3v8.7a1.22,1.22,0,0,1-1.1,1.3h-7.2A1.22,1.22,0,0,1,911.38,628.46Zm1.1-9.3a.57.57,0,0,0-.5.6v8.7a.56.56,0,0,0,.5.6h7.2a.56.56,0,0,0,.5-.6v-8.7a.57.57,0,0,0-.5-.6Z" transform="translate(-23.99 -374.74)" style="fill:#231f20"/><path d="M1047.78,746.46a78.75,78.75,0,1,1-78.8-78.7,78.74,78.74,0,0,1,78.8,78.7Z" transform="translate(-23.99 -374.74)" style="fill:#3d3b3d"/><path d="M1047.78,746.46a78.75,78.75,0,1,1-78.8-78.7,78.74,78.74,0,0,1,78.8,78.7Z" transform="translate(-23.99 -374.74)"/><path d="M1036.58,746.46a67.6,67.6,0,1,1-67.6-67.6h0A67.64,67.64,0,0,1,1036.58,746.46Z" transform="translate(-23.99 -374.74)" style="fill:url(#radial-gradient-3)"/><path d="M1027,746.46a58,58,0,1,1-58-58h0A58,58,0,0,1,1027,746.46Z" transform="translate(-23.99 -374.74)" style="fill:#231f20"/><path d="M1027,746.46a58,58,0,1,1-58-58h0A58,58,0,0,1,1027,746.46Z" transform="translate(-23.99 -374.74)" style="fill:#3b3a3a"/><path d="M1010,746.46a41,41,0,1,1-41-41,41,41,0,0,1,41,41Z" transform="translate(-23.99 -374.74)" style="fill:#fff;stroke:#3d3b3d;stroke-miterlimit:10;stroke-width:0.428600013256073px"/><path d="M997.38,747a28.4,28.4,0,1,1-28.4-28.4,28.4,28.4,0,0,1,28.4,28.4Z" transform="translate(-23.99 -374.74)" style="fill:#f6f6f6"/><path d="M980.18,732.76l12.8-16.2a39.15,39.15,0,0,1,10.8,13.4l-18.6,9A16.58,16.58,0,0,0,980.18,732.76Z" transform="translate(-23.99 -374.74)" style="fill:url(#linear-gradient-17)"/><path d="M993.18,777.16a39.18,39.18,0,0,1-15.5,7.5l-4.6-20.1a17.79,17.79,0,0,0,7.2-3.5Z" transform="translate(-23.99 -374.74)" style="fill:url(#linear-gradient-18)"/><path d="M952.68,739.16l-18.6-8.9a39.08,39.08,0,0,1,10.7-13.5l12.9,16.1A17.24,17.24,0,0,0,952.68,739.16Z" transform="translate(-23.99 -374.74)" style="fill:url(#linear-gradient-19)"/><path d="M987.08,747v-.1h20.6v.1a39,39,0,0,1-3.8,16.8l-18.6-9A17.53,17.53,0,0,0,987.08,747Z" transform="translate(-23.99 -374.74)" style="fill:url(#linear-gradient-20)"/><path d="M950.88,747a17.14,17.14,0,0,0,1.8,7.8l-18.6,9a37.63,37.63,0,0,1-3.9-16.8Z" transform="translate(-23.99 -374.74)" style="fill:url(#linear-gradient-21)"/><path d="M960.28,709.16a40.07,40.07,0,0,1,17.2-.1l-4.5,20.2a18.45,18.45,0,0,0-8.1,0Z" transform="translate(-23.99 -374.74)" style="fill:url(#linear-gradient-22)"/><path d="M965,764.56l-4.6,20.1a40,40,0,0,1-15.6-7.4l12.9-16.2A18.93,18.93,0,0,0,965,764.56Z" transform="translate(-23.99 -374.74)" style="fill:url(#linear-gradient-23)"/><rect x="615.48" y="328.91" width="158.7" height="54.3" style="fill:#86a250"/><polygon points="636.19 306.43 758.49 306.43 758.49 312.33 774.19 312.33 774.19 328.93 615.49 328.93 615.49 312.33 636.19 312.33 636.19 306.43" style="fill:#a7cb64"/><rect x="776.89" y="336.53" width="55.2" height="46.7" style="fill:#86a250"/><rect x="798.49" y="373.83" width="11.9" height="1.2" style="fill:#86a250"/><path d="M828.88,738.86c0,.3.1.5.3.5h2.9c.2,0,.3-.2.3-.5V734c0-.3-.1-.5-.3-.5h-2.9c-.2,0-.3.2-.3.5Z" transform="translate(-23.99 -374.74)" style="fill:#ed1c24"/><path d="M828.78,738.86V734c0-.4.2-.8.4-.8h2.9c.2,0,.4.3.4.8v4.9c0,.4-.2.8-.4.8h-2.9C829,739.66,828.78,739.36,828.78,738.86Zm.4-5.3c-.1,0-.2.2-.2.3v4.9c0,.2.1.3.2.3h2.9c.1,0,.2-.2.2-.3v-4.9c0-.2-.1-.3-.2-.3Z" transform="translate(-23.99 -374.74)" style="fill:#231f20"/><path d="M824.48,738.86c0,.3.1.5.3.5h2.9c.2,0,.3-.2.3-.5V734c0-.3-.1-.5-.3-.5h-2.9c-.2,0-.3.2-.3.5Z" transform="translate(-23.99 -374.74)" style="fill:#aba9a7"/><path d="M824.38,738.86V734c0-.4.2-.8.4-.8h2.9c.2,0,.4.3.4.8v4.9c0,.4-.2.8-.4.8h-2.9C824.58,739.66,824.38,739.36,824.38,738.86Zm.4-5.3c-.1,0-.2.2-.2.3v4.9c0,.2.1.3.2.3h2.9c.1,0,.2-.2.2-.3v-4.9c0-.2-.1-.3-.2-.3Z" transform="translate(-23.99 -374.74)" style="fill:#231f20"/><path d="M886.38,422.56h9.2a20.3,20.3,0,0,0-6.1.9c4.2,1.2,7.5,3.7,9.1,6.9l7.4,15.4h-9.2l-7.4-15.4c-1.5-3.2-4.9-5.7-9.1-6.9A24.25,24.25,0,0,1,886.38,422.56Z" transform="translate(-23.99 -374.74)" style="fill:#a7cb64"/><path d="M896.78,422.56H906c6.9,0,13,3.1,15.2,7.8l7.4,15.4h-9.2l-7.4-15.4C909.68,425.76,903.58,422.56,896.78,422.56Z" transform="translate(-23.99 -374.74)" style="fill:#a7cb64"/><path d="M915.48,422.56h9.2c6.9,0,13,3.1,15.2,7.8l7.4,15.4h-9.2l-7.4-15.4C928.48,425.76,922.38,422.56,915.48,422.56Z" transform="translate(-23.99 -374.74)" style="fill:#a7cb64"/></svg>