<svg id="Layer_1" data-name="Layer 1" xmlns="http://www.w3.org/2000/svg" xmlns:xlink="http://www.w3.org/1999/xlink" viewBox="0 0 1130.9 565.5"><defs><linearGradient id="linear-gradient" x1="2038.52" y1="1602.02" x2="2038.52" y2="1619.83" gradientTransform="matrix(1.1, 0.29, 0.25, -0.95, -2493.7, 1577.87)" gradientUnits="userSpaceOnUse"><stop offset="0" stop-color="#fff"/><stop offset="1"/></linearGradient><linearGradient id="linear-gradient-2" x1="90.38" y1="4340.82" x2="90.38" y2="4365.38" gradientTransform="matrix(0, 1, 1, 0, -3606.3, 230.22)" xlink:href="#linear-gradient"/><radialGradient id="radial-gradient" cx="-440.32" cy="4357.57" r="3.27" gradientTransform="matrix(-0.77, 0.63, 0.63, 0.77, -2270.8, -2602.29)" xlink:href="#linear-gradient"/><radialGradient id="radial-gradient-2" cx="-457.2" cy="4362.97" r="3.27" gradientTransform="matrix(-0.77, 0.63, 0.63, 0.77, -2270.8, -2602.29)" xlink:href="#linear-gradient"/><radialGradient id="radial-gradient-3" cx="-442.94" cy="4375.2" r="3.27" gradientTransform="matrix(-0.77, 0.63, 0.63, 0.77, -2270.8, -2602.29)" xlink:href="#linear-gradient"/><radialGradient id="radial-gradient-4" cx="-290.42" cy="4213.57" r="3.26" gradientTransform="matrix(-0.77, 0.63, 0.63, 0.77, -2270.8, -2602.29)" xlink:href="#linear-gradient"/><radialGradient id="radial-gradient-5" cx="-268.4" cy="4240.41" r="3.27" gradientTransform="matrix(-0.77, 0.63, 0.63, 0.77, -2270.8, -2602.29)" xlink:href="#linear-gradient"/><radialGradient id="radial-gradient-6" cx="-246.37" cy="4267.24" r="3.27" gradientTransform="matrix(-0.77, 0.63, 0.63, 0.77, -2270.8, -2602.29)" xlink:href="#linear-gradient"/><radialGradient id="radial-gradient-7" cx="-417.45" cy="4317.83" r="3.27" gradientTransform="matrix(-0.77, 0.63, 0.63, 0.77, -2270.8, -2602.29)" xlink:href="#linear-gradient"/><radialGradient id="radial-gradient-8" cx="-395.43" cy="4344.67" r="3.26" gradientTransform="matrix(-0.77, 0.63, 0.63, 0.77, -2270.8, -2602.29)" xlink:href="#linear-gradient"/><radialGradient id="radial-gradient-9" cx="-373.4" cy="4371.5" r="3.27" gradientTransform="matrix(-0.77, 0.63, 0.63, 0.77, -2270.8, -2602.29)" xlink:href="#linear-gradient"/><radialGradient id="radial-gradient-10" cx="-24.56" cy="665.48" r="3.27" gradientTransform="matrix(-0.63, -0.77, -0.77, 0.63, 1254.76, 16.74)" xlink:href="#linear-gradient"/><radialGradient id="radial-gradient-11" cx="-2.53" cy="692.31" r="3.26" gradientTransform="matrix(-0.63, -0.77, -0.77, 0.63, 1254.76, 16.74)" xlink:href="#linear-gradient"/><radialGradient id="radial-gradient-12" cx="19.49" cy="719.15" r="3.27" gradientTransform="matrix(-0.63, -0.77, -0.77, 0.63, 1254.76, 16.74)" xlink:href="#linear-gradient"/><radialGradient id="radial-gradient-13" cx="-313.56" cy="3984.53" r="3.27" gradientTransform="matrix(-0.77, 0.63, 0.63, 0.77, -2270.8, -2602.29)" xlink:href="#linear-gradient"/><radialGradient id="radial-gradient-14" cx="-300.58" cy="4000.35" r="3.27" gradientTransform="matrix(-0.77, 0.63, 0.63, 0.77, -2270.8, -2602.29)" xlink:href="#linear-gradient"/><radialGradient id="radial-gradient-15" cx="-287.59" cy="4016.17" r="3.27" gradientTransform="matrix(-0.77, 0.63, 0.63, 0.77, -2270.8, -2602.29)" xlink:href="#linear-gradient"/><linearGradient id="linear-gradient-3" x1="-1298.66" y1="2461.75" x2="-1298.66" y2="2483.47" gradientTransform="matrix(-1, -0.06, -0.06, 1, -459.57, -1936.21)" xlink:href="#linear-gradient"/><radialGradient id="radial-gradient-16" cx="499.98" cy="480.65" r="70.25" gradientTransform="translate(844.73 1200) rotate(180)" gradientUnits="userSpaceOnUse"><stop offset="0" stop-color="#231f20"/><stop offset="0.41" stop-color="#252122"/><stop offset="0.56" stop-color="#2b2729"/><stop offset="0.67" stop-color="#353334"/><stop offset="0.74" stop-color="#414042"/><stop offset="0.77" stop-color="#4d4d4f"/><stop offset="0.8" stop-color="#555658"/><stop offset="0.85" stop-color="#58595b"/><stop offset="0.92" stop-color="#414042"/></radialGradient><radialGradient id="radial-gradient-17" cx="21.63" cy="480.7" r="36.55" xlink:href="#radial-gradient-16"/><radialGradient id="radial-gradient-18" cx="2925.95" cy="584.67" r="11.04" gradientTransform="matrix(1, 0, 0, -1, -2217.32, 950.2)" xlink:href="#linear-gradient"/><radialGradient id="radial-gradient-19" cx="-260.34" cy="4341.38" r="3.27" gradientTransform="matrix(-0.77, 0.63, 0.63, 0.77, -2270.8, -2602.29)" xlink:href="#linear-gradient"/><radialGradient id="radial-gradient-20" cx="-315.46" cy="4386.62" r="3.27" gradientTransform="matrix(-0.77, 0.63, 0.63, 0.77, -2270.8, -2602.29)" xlink:href="#linear-gradient"/></defs><title>Bulldozer</title><polygon points="598.3 38.7 569.4 47.2 555 47.2 547.1 44.9 547.1 38.7 598.3 38.7" style="fill:#101111"/><rect x="357" y="14.2" width="8.2" height="1.8" style="fill:#faaa28"/><rect x="357" y="16" width="8.2" height="4.2" style="fill:#faaa28"/><rect x="365.2" y="16" width="87.1" height="4.2" style="fill:#faaa28"/><path d="M154,643.4a6.65,6.65,0,0,1-.9-5.3l5.3-23.5H123.5l-15.6,12.7a7.21,7.21,0,0,0-2.6,6.1l5.3,55.5a7,7,0,0,0,3.9,5.6L178,725.7a7,7,0,0,0,9.7-4l4.7-13.9a7.06,7.06,0,0,0-.7-6Z" transform="translate(-34.4 -249.8)" style="fill:#88a84c"/><path d="M204.6,660.9l-94.5-25a1.88,1.88,0,0,1-1.3-2.2l2.6-9.7a1.88,1.88,0,0,1,2.2-1.3l94.5,25a1.88,1.88,0,0,1,1.3,2.2l-2.6,9.7A1.71,1.71,0,0,1,204.6,660.9Z" transform="translate(-34.4 -249.8)" style="fill:url(#linear-gradient)"/><path d="M316.9,693.2,188.7,659.3a2.52,2.52,0,0,1-1.8-3l3.5-13.1a2.52,2.52,0,0,1,3-1.8l128.2,33.9a2.52,2.52,0,0,1,1.8,3l-3.5,13.1A2.52,2.52,0,0,1,316.9,693.2Z" transform="translate(-34.4 -249.8)" style="fill:#1a1b20"/><path d="M200,665.6l-8.1-2.1a2.38,2.38,0,0,1-1.7-3l5.2-19.5a2.38,2.38,0,0,1,3-1.7l8.1,2.1a2.38,2.38,0,0,1,1.7,3L203,663.9A2.38,2.38,0,0,1,200,665.6Z" transform="translate(-34.4 -249.8)" style="fill:#1a1b20"/><path d="M363.7,663.8h0a13.77,13.77,0,0,1-16.2,10.7L107,625.5a13.77,13.77,0,0,1-10.7-16.2h0a13.77,13.77,0,0,1,16.2-10.7l240.5,49A13.77,13.77,0,0,1,363.7,663.8Z" transform="translate(-34.4 -249.8)" style="fill:#a7cb64"/><path d="M121.6,592.5,78.8,627.2a7.21,7.21,0,0,0-2.6,6.1l5.3,55.5a7,7,0,0,0,3.9,5.6l63.5,31.2a7,7,0,0,0,9.7-4l4.7-13.9a7.06,7.06,0,0,0-.7-6L125,643.4a6.65,6.65,0,0,1-.9-5.3l8.7-38.5a6.93,6.93,0,0,0-6.8-8.5h0A6.3,6.3,0,0,0,121.6,592.5Z" transform="translate(-34.4 -249.8)" style="fill:#a7cb64"/><path d="M114.7,602.6a11.39,11.39,0,1,1-9.5,13A11.4,11.4,0,0,1,114.7,602.6Z" transform="translate(-34.4 -249.8)" style="fill:#88a84c"/><path d="M81.1,691.5H73.2c-5.5,37.2.1,79,28.2,121.5l2-2.7C78.5,768.5,74.7,727.8,81.1,691.5Z" transform="translate(-34.4 -249.8)" style="fill:#88a84c"/><polygon points="31.2 531.8 9.1 498.8 9.1 504.1 24.2 526.6 65.4 565.5 66 564.7 31.2 531.8" style="fill:#88a84c"/><path d="M73.3,691.5H43.5v57.1l22.1,33,34.8,32.9,1.1-1.5C73.4,770.5,67.8,728.8,73.3,691.5Z" transform="translate(-34.4 -249.8)" style="fill:#88a84c"/><path d="M73.3,691.5H43.5v57.1l22.1,33,34.8,32.9,1.1-1.5C73.4,770.5,67.8,728.8,73.3,691.5Z" transform="translate(-34.4 -249.8)" style="fill:#88a84c"/><path d="M135.1,691.5h-7c-4.9,32.2.1,68.4,25.2,105.2l1.8-2.3C132.8,758.2,129.4,722.9,135.1,691.5Z" transform="translate(-34.4 -249.8)" style="fill:#88a84c"/><polygon points="86.8 519.7 67.1 491.1 67.1 495.7 80.6 515.2 117.4 548.9 117.9 548.2 86.8 519.7" style="fill:#88a84c"/><path d="M128.1,691.5H101.5v49.4l19.7,28.6L152.3,798l1-1.3C128.2,759.9,123.2,723.8,128.1,691.5Z" transform="translate(-34.4 -249.8)" style="fill:#88a84c"/><path d="M128.1,691.5H101.5v49.4l19.7,28.6L152.3,798l1-1.3C128.2,759.9,123.2,723.8,128.1,691.5Z" transform="translate(-34.4 -249.8)" style="fill:#88a84c"/><path d="M189,688.6h-7c-4.9,32.2.1,68.4,25.2,105.2l1.8-2.3C186.7,755.3,183.3,720,189,688.6Z" transform="translate(-34.4 -249.8)" style="fill:#88a84c"/><polygon points="140.7 516.8 121 488.3 121 492.8 134.5 512.3 171.3 546 171.8 545.3 140.7 516.8" style="fill:#88a84c"/><path d="M182,688.6H155.4V738l19.7,28.6,31.1,28.5,1-1.3C182.1,757,177.1,720.9,182,688.6Z" transform="translate(-34.4 -249.8)" style="fill:#88a84c"/><path d="M182,688.6H155.4V738l19.7,28.6,31.1,28.5,1-1.3C182.1,757,177.1,720.9,182,688.6Z" transform="translate(-34.4 -249.8)" style="fill:#88a84c"/><path d="M345.7,700.8h0a15.64,15.64,0,0,1-15.6,15.7l-280,.9a15.64,15.64,0,0,1-15.7-15.6h0A15.64,15.64,0,0,1,50,686.1l280-.9A15.71,15.71,0,0,1,345.7,700.8Z" transform="translate(-34.4 -249.8)" style="fill:#a7cb64"/><path d="M53.4,690.1a13,13,0,1,1-7.6,16.7A13,13,0,0,1,53.4,690.1Z" transform="translate(-34.4 -249.8)" style="fill:#a7cb64"/><path d="M741.8,354.4V286.8a1.79,1.79,0,0,1,1.8-1.8h15.6a1.79,1.79,0,0,1,1.8,1.8v67.6a1.79,1.79,0,0,1-1.8,1.8H743.6A1.79,1.79,0,0,1,741.8,354.4Z" transform="translate(-34.4 -249.8)" style="fill:url(#linear-gradient-2)"/><path d="M738.4,436.2V344.5a2.43,2.43,0,0,1,2.4-2.4h21.1a2.43,2.43,0,0,1,2.4,2.4v91.7a2.43,2.43,0,0,1-2.4,2.4H740.8A2.43,2.43,0,0,1,738.4,436.2Z" transform="translate(-34.4 -249.8)" style="fill:#1a1b20"/><path d="M733.8,349.7h0a4.69,4.69,0,0,1,4.7-4.7h25.9a4.69,4.69,0,0,1,4.7,4.7h0a4.69,4.69,0,0,1-4.7,4.7H738.5A4.83,4.83,0,0,1,733.8,349.7Z" transform="translate(-34.4 -249.8)" style="fill:#1a1b20"/><path d="M272.4,288.9l28.9,10.3,23.8,1.3-1.5-4.1v-3.1c0-2.4,5.6-4.4-6.2-4.4Z" transform="translate(-34.4 -249.8)" style="fill:#101111"/><path d="M755.7,436.6,633.8,417.5l1.8-11.3a11.84,11.84,0,0,1,13.5-9.8l98.6,15.4a11.84,11.84,0,0,1,9.8,13.5ZM636.8,415.3l116.6,18.2,1.4-8.7a9.07,9.07,0,0,0-7.6-10.4L648.6,399a9.07,9.07,0,0,0-10.4,7.6Z" transform="translate(-34.4 -249.8)" style="fill:#88a84c"/><polygon points="760.6 188.1 824.5 210 824.5 380.8 760.6 380.8 760.6 188.1" style="fill:#a7cb64"/><path d="M831.5,488.8a3.27,3.27,0,1,1,4.6.5A3.31,3.31,0,0,1,831.5,488.8Z" transform="translate(-34.4 -249.8)" style="fill:url(#radial-gradient)"/><path d="M848,482.3a3.27,3.27,0,1,1,4.6.5A3.31,3.31,0,0,1,848,482.3Z" transform="translate(-34.4 -249.8)" style="fill:url(#radial-gradient-2)"/><path d="M844.7,500.8a3.27,3.27,0,1,1,4.6.5A3.31,3.31,0,0,1,844.7,500.8Z" transform="translate(-34.4 -249.8)" style="fill:url(#radial-gradient-3)"/><path d="M825.4,516.1c-.4.2-1.4-.8-2.3-2.2l-14.9-23.7c-.9-1.4-1.3-2.8-1-3l6-3.8c.4-.2,1.4.8,2.3,2.2l14.9,23.7c.9,1.4,1.3,2.8,1,3Z" transform="translate(-34.4 -249.8)" style="fill:#ed1c24"/><path d="M822.8,514.1l-14.9-23.7c-1.2-2-1.9-3.9-1.3-4.2l6-3.8c.5-.3,1.9,1,3.2,3l14.9,23.7c1.2,2,1.9,3.9,1.3,4.2l-6,3.8C825.5,517.4,824.1,516.1,822.8,514.1Zm-7.5-28.4c-.6-.9-1.2-1.5-1.4-1.4l-6,3.8c-.2.1,0,1,.6,1.9l14.9,23.7c.6.9,1.2,1.5,1.4,1.4l6-3.8c.2-.1,0-1-.6-1.9Z" transform="translate(-34.4 -249.8)" style="fill:#231f20"/><path d="M848,552.1c-.4.2-1.4-.8-2.3-2.2l-14.9-23.7c-.9-1.4-1.3-2.8-1-3l6-3.8c.4-.2,1.4.8,2.3,2.2L853,545.3c.9,1.4,1.3,2.8,1,3Z" transform="translate(-34.4 -249.8)" style="fill:#aba9a7"/><path d="M845.5,550.1l-14.9-23.7c-1.2-2-1.9-3.9-1.3-4.2l6-3.8c.5-.3,1.9,1,3.2,3l14.9,23.7c1.2,2,1.9,3.9,1.3,4.2l-6,3.8C848.1,553.4,846.7,552.1,845.5,550.1Zm-7.6-28.4c-.6-.9-1.2-1.5-1.4-1.4l-6,3.8c-.2.1,0,1,.6,1.9L846,549.7c.6.9,1.2,1.5,1.4,1.4l6-3.8c.2-.1,0-1-.6-1.9Z" transform="translate(-34.4 -249.8)" style="fill:#231f20"/><path d="M234.8,573.9" transform="translate(-34.4 -249.8)" style="fill:#ffb932;stroke:#a97c50;stroke-miterlimit:10;stroke-width:0.19370000064373016px"/><path d="M623.5,632.8H278.9a12.25,12.25,0,0,1-12.2-12.2V564.1H623.5Z" transform="translate(-34.4 -249.8)" style="fill:#88a84c"/><polygon points="824.2 211.4 831.4 217.3 842.8 253.7 824.2 253.7 824.2 211.4" style="fill:#373735"/><polygon points="824.2 252.2 842.8 252.2 859.7 320.1 859.7 388.5 878.4 388.5 878.4 412.8 825.3 412.8 824.2 252.2" style="fill:#373736"/><path d="M618.7,411.3l44.5,1.8a8.75,8.75,0,0,1,1.6.2L795,437.9V632.8H615.7Z" transform="translate(-34.4 -249.8)" style="fill:#a7cb64"/><path d="M795,450.7V437.9L664.9,413.4a8.75,8.75,0,0,0-1.6-.2l-44.5-1.8-.5,39.3Z" transform="translate(-34.4 -249.8)" style="fill:#a7cb64"/><path d="M624.3,472.6a3.27,3.27,0,1,1,4.6.5A3.31,3.31,0,0,1,624.3,472.6Z" transform="translate(-34.4 -249.8)" style="fill:url(#radial-gradient-4)"/><path d="M624.3,507.3a3.27,3.27,0,1,1,4.6.5A3.31,3.31,0,0,1,624.3,507.3Z" transform="translate(-34.4 -249.8)" style="fill:url(#radial-gradient-5)"/><path d="M624.3,542.1a3.27,3.27,0,1,1,4.6.5A3.31,3.31,0,0,1,624.3,542.1Z" transform="translate(-34.4 -249.8)" style="fill:url(#radial-gradient-6)"/><path d="M788.6,472.6a3.27,3.27,0,1,1,4.6.5A3.31,3.31,0,0,1,788.6,472.6Z" transform="translate(-34.4 -249.8)" style="fill:url(#radial-gradient-7)"/><path d="M788.6,507.3a3.27,3.27,0,1,1,4.6.5A3.31,3.31,0,0,1,788.6,507.3Z" transform="translate(-34.4 -249.8)" style="fill:url(#radial-gradient-8)"/><path d="M788.6,542.1a3.27,3.27,0,1,1,4.6.5A3.31,3.31,0,0,1,788.6,542.1Z" transform="translate(-34.4 -249.8)" style="fill:url(#radial-gradient-9)"/><path d="M753.9,455.4a3.27,3.27,0,1,1-.5,4.6A3.31,3.31,0,0,1,753.9,455.4Z" transform="translate(-34.4 -249.8)" style="fill:url(#radial-gradient-10)"/><path d="M719.1,455.4a3.27,3.27,0,1,1-.5,4.6A3.31,3.31,0,0,1,719.1,455.4Z" transform="translate(-34.4 -249.8)" style="fill:url(#radial-gradient-11)"/><path d="M684.4,455.4a3.27,3.27,0,1,1-.5,4.6A3.31,3.31,0,0,1,684.4,455.4Z" transform="translate(-34.4 -249.8)" style="fill:url(#radial-gradient-12)"/><path d="M679.3,630.6V589.5a7.34,7.34,0,0,0-7.3-7.3H653a8.71,8.71,0,0,1-8.6-9.9l14.9-98.9a14.13,14.13,0,0,1,14.1-12.1H783.7V575.7a7.6,7.6,0,0,1-7.6,7.6h-5a8.45,8.45,0,0,0-8.4,8.4v39" transform="translate(-34.4 -249.8)" style="fill:#a7cb64"/><rect x="258.7" y="318.9" width="193.6" height="4.2" style="fill:#414042;stroke:#231f20;stroke-miterlimit:10;stroke-width:0.24289999902248383px"/><polygon points="258.7 219.6 258.7 222.3 452.3 222.3 452.3 214.8 259.8 214.8 258.7 219.6" style="fill:#414042;stroke:#231f20;stroke-miterlimit:10;stroke-width:0.24289999902248383px"/><polygon points="365.2 20.3 357 20.3 357 157.9 272.8 157.9 271.1 165.4 452.3 165.4 452.3 157.9 365.2 157.9 365.2 20.3" style="fill:#414042;stroke:#231f20;stroke-miterlimit:10;stroke-width:0.24289999902248383px"/><rect x="258.7" y="222.3" width="193.6" height="96.6" style="fill:#313032"/><polygon points="259.8 214.8 452.3 214.8 452.3 165.4 271.1 165.4 259.8 214.8" style="fill:#403430"/><polygon points="272.8 157.9 357 157.9 357 20.3 304.1 20.3 272.8 157.9" style="fill:#403430"/><rect x="365.2" y="20.3" width="87.1" height="137.6" style="fill:#403430"/><rect x="452.3" y="214.8" width="6" height="7.5" style="fill:#a7cb64"/><rect x="452.3" y="157.9" width="6" height="7.5" style="fill:#a7cb64"/><polygon points="258.7 219.6 258.7 215.4 258.9 214.8 253.6 214.8 256.3 203.1 252.7 218.9 252.7 222.3 258.7 222.3 258.7 219.6" style="fill:#faaa28"/><polygon points="271.8 157.9 266.6 157.9 299.3 14.2 264.9 165.4 270.1 165.4 271.8 157.9" style="fill:#a7cb64"/><polygon points="452.3 318.9 452.3 323.1 258.7 323.1 258.7 318.9 258.7 222.3 252.7 222.3 252.7 329.1 458.4 329.1 458.4 222.3 452.3 222.3 452.3 318.9" style="fill:#403430"/><path d="M299.3,415.2l-8.6,37.7Z" transform="translate(-34.4 -249.8)" style="fill:#faaa28"/><polygon points="258.9 214.8 270.1 165.4 264.9 165.4 256.3 203.1 253.6 214.8 258.9 214.8" style="fill:#a7cb64"/><rect x="452.3" y="165.4" width="6" height="49.4" style="fill:#a7cb64"/><polygon points="271.8 157.9 304.1 16 357 16 357 14.2 299.3 14.2 266.6 157.9 271.8 157.9" style="fill:#a7cb64"/><polygon points="365.2 16 452.3 16 452.3 20.3 452.3 157.9 458.4 157.9 458.4 14.2 365.2 14.2 365.2 16" style="fill:#a7cb64"/><polygon points="272.8 157.9 271.8 157.9 270.1 165.4 271.1 165.4 272.8 157.9" style="fill:#a7cb64"/><polygon points="258.9 214.8 258.7 215.4 258.7 219.6 259.8 214.8 258.9 214.8" style="fill:#faaa28"/><polygon points="271.1 165.4 270.1 165.4 258.9 214.8 259.8 214.8 271.1 165.4" style="fill:#a7cb64"/><polygon points="304.1 20.3 357 20.3 357 16 304.1 16 271.8 157.9 272.8 157.9 304.1 20.3" style="fill:#a7cb64"/><path d="M623.5,410.7l-38-141.2c-.1-.2-.2-.3-.4-.3l-86.3-11.1V258H329l-1.1,4.7L281.3,467.4l-.2.7V585H498.7V573.3H623.4V410.7Zm-130.7-3V578.9H287.1V468.7l3.6-15.8,8.6-37.7L333.7,264h159V407.7Z" transform="translate(-34.4 -249.8)" style="fill:#88a84c"/><path d="M505.7,567.8l-.2-301.3,53.3,6.2a32.52,32.52,0,0,1,27.6,23.8L616.6,409a23.72,23.72,0,0,1,.9,6.5V555.4A12.5,12.5,0,0,1,605,567.9H505.7Z" transform="translate(-34.4 -249.8)" style="fill:#403430"/><path d="M238.1,559.2l18.4-81.5,26.1-31.9,172.6,27.5a12.31,12.31,0,0,1,10.4,12.4l-1.4,94.9-214.4-6.2A12.48,12.48,0,0,1,238.1,559.2Z" transform="translate(-34.4 -249.8)" style="fill:#88a84c"/><path d="M252.7,549.5l14.4-63.9a10.17,10.17,0,0,1,2.2-4.4l14.4-17.6a10.69,10.69,0,0,1,10-3.8l150.7,24a10.7,10.7,0,0,1,9.1,10.8l-.9,62.6a10.78,10.78,0,0,1-11.1,10.6l-178.6-5.2A10.73,10.73,0,0,1,252.7,549.5Z" transform="translate(-34.4 -249.8)" style="fill:#a7cb64"/><path d="M328.1,491.6h15.6a.79.79,0,0,0,.8-.8V489a.79.79,0,0,0-.8-.8H328.1a.79.79,0,0,0-.8.8v1.9A.85.85,0,0,0,328.1,491.6Z" transform="translate(-34.4 -249.8)" style="fill:#88a84c"/><path d="M328.1,498.5h15.6a.79.79,0,0,0,.8-.8v-1.9a.79.79,0,0,0-.8-.8H328.1a.79.79,0,0,0-.8.8v1.9C327.4,498.1,327.7,498.5,328.1,498.5Z" transform="translate(-34.4 -249.8)" style="fill:#88a84c"/><path d="M328.1,505.4h15.6a.79.79,0,0,0,.8-.8v-1.9a.79.79,0,0,0-.8-.8H328.1a.79.79,0,0,0-.8.8v1.9C327.4,505,327.7,505.4,328.1,505.4Z" transform="translate(-34.4 -249.8)" style="fill:#88a84c"/><path d="M328.1,512.2h15.6a.79.79,0,0,0,.8-.8v-1.9a.79.79,0,0,0-.8-.8H328.1a.79.79,0,0,0-.8.8v1.9C327.4,511.9,327.7,512.2,328.1,512.2Z" transform="translate(-34.4 -249.8)" style="fill:#88a84c"/><path d="M328.1,519.1h15.6a.79.79,0,0,0,.8-.8v-1.9a.79.79,0,0,0-.8-.8H328.1a.79.79,0,0,0-.8.8v1.9C327.4,518.8,327.7,519.1,328.1,519.1Z" transform="translate(-34.4 -249.8)" style="fill:#88a84c"/><path d="M328.1,526h15.6a.79.79,0,0,0,.8-.8v-1.9a.79.79,0,0,0-.8-.8H328.1a.79.79,0,0,0-.8.8v1.9C327.4,525.6,327.7,526,328.1,526Z" transform="translate(-34.4 -249.8)" style="fill:#88a84c"/><path d="M328.1,532.9h15.6a.79.79,0,0,0,.8-.8v-1.9a.79.79,0,0,0-.8-.8H328.1a.79.79,0,0,0-.8.8v1.9C327.4,532.5,327.7,532.9,328.1,532.9Z" transform="translate(-34.4 -249.8)" style="fill:#88a84c"/><path d="M305.2,491.6h15.6a.79.79,0,0,0,.8-.8V489a.79.79,0,0,0-.8-.8H305.2a.79.79,0,0,0-.8.8v1.9A.71.71,0,0,0,305.2,491.6Z" transform="translate(-34.4 -249.8)" style="fill:#88a84c"/><path d="M305.2,498.5h15.6a.79.79,0,0,0,.8-.8v-1.9a.79.79,0,0,0-.8-.8H305.2a.79.79,0,0,0-.8.8v1.9A.79.79,0,0,0,305.2,498.5Z" transform="translate(-34.4 -249.8)" style="fill:#88a84c"/><path d="M305.2,505.4h15.6a.79.79,0,0,0,.8-.8v-1.9a.79.79,0,0,0-.8-.8H305.2a.79.79,0,0,0-.8.8v1.9A.79.79,0,0,0,305.2,505.4Z" transform="translate(-34.4 -249.8)" style="fill:#88a84c"/><path d="M305.2,512.2h15.6a.79.79,0,0,0,.8-.8v-1.9a.79.79,0,0,0-.8-.8H305.2a.79.79,0,0,0-.8.8v1.9A.74.74,0,0,0,305.2,512.2Z" transform="translate(-34.4 -249.8)" style="fill:#88a84c"/><path d="M305.2,519.1h15.6a.79.79,0,0,0,.8-.8v-1.9a.79.79,0,0,0-.8-.8H305.2a.79.79,0,0,0-.8.8v1.9A.74.74,0,0,0,305.2,519.1Z" transform="translate(-34.4 -249.8)" style="fill:#88a84c"/><path d="M305.2,526h15.6a.79.79,0,0,0,.8-.8v-1.9a.79.79,0,0,0-.8-.8H305.2a.79.79,0,0,0-.8.8v1.9A.79.79,0,0,0,305.2,526Z" transform="translate(-34.4 -249.8)" style="fill:#88a84c"/><path d="M305.2,532.9h15.6a.79.79,0,0,0,.8-.8v-1.9a.79.79,0,0,0-.8-.8H305.2a.79.79,0,0,0-.8.8v1.9A.79.79,0,0,0,305.2,532.9Z" transform="translate(-34.4 -249.8)" style="fill:#88a84c"/><path d="M282.2,491.6h15.6a.79.79,0,0,0,.8-.8V489a.79.79,0,0,0-.8-.8H282.2a.79.79,0,0,0-.8.8v1.9A.77.77,0,0,0,282.2,491.6Z" transform="translate(-34.4 -249.8)" style="fill:#88a84c"/><path d="M282.2,498.5h15.6a.79.79,0,0,0,.8-.8v-1.9a.79.79,0,0,0-.8-.8H282.2a.79.79,0,0,0-.8.8v1.9A.86.86,0,0,0,282.2,498.5Z" transform="translate(-34.4 -249.8)" style="fill:#88a84c"/><path d="M282.2,505.4h15.6a.79.79,0,0,0,.8-.8v-1.9a.79.79,0,0,0-.8-.8H282.2a.79.79,0,0,0-.8.8v1.9A.86.86,0,0,0,282.2,505.4Z" transform="translate(-34.4 -249.8)" style="fill:#88a84c"/><path d="M282.2,512.2h15.6a.79.79,0,0,0,.8-.8v-1.9a.79.79,0,0,0-.8-.8H282.2a.79.79,0,0,0-.8.8v1.9A.79.79,0,0,0,282.2,512.2Z" transform="translate(-34.4 -249.8)" style="fill:#88a84c"/><path d="M282.2,519.1h15.6a.79.79,0,0,0,.8-.8v-1.9a.79.79,0,0,0-.8-.8H282.2a.79.79,0,0,0-.8.8v1.9A.79.79,0,0,0,282.2,519.1Z" transform="translate(-34.4 -249.8)" style="fill:#88a84c"/><path d="M282.2,526h15.6a.79.79,0,0,0,.8-.8v-1.9a.79.79,0,0,0-.8-.8H282.2a.79.79,0,0,0-.8.8v1.9A.86.86,0,0,0,282.2,526Z" transform="translate(-34.4 -249.8)" style="fill:#88a84c"/><path d="M282.2,532.9h15.6a.79.79,0,0,0,.8-.8v-1.9a.79.79,0,0,0-.8-.8H282.2a.79.79,0,0,0-.8.8v1.9A.86.86,0,0,0,282.2,532.9Z" transform="translate(-34.4 -249.8)" style="fill:#88a84c"/><path d="M774.4,476v96.6H724.3a9.22,9.22,0,0,1-9.2-9.1v-.8l.8-4.9.9-5.8.9-5.8.9-5.8.9-5.8,1-5.9.8-5.2,3.8-23.2c.8-3.7,1.6-7.2,2.5-10.2a5.64,5.64,0,0,1,.4-1.2c2.8-8.1,7-13,16.6-13h29.8Z" transform="translate(-34.4 -249.8)" style="fill:#88a84c"/><path d="M751.9,494h15.2a1,1,0,0,0,1-1v-3.8a1,1,0,0,0-1-1H751.9a1,1,0,0,0-1,1V493A1.08,1.08,0,0,0,751.9,494Z" transform="translate(-34.4 -249.8)" style="fill:#88a84c"/><path d="M751.9,505.6h15.2a1,1,0,0,0,1-1v-3.8a1,1,0,0,0-1-1H751.9a1,1,0,0,0-1,1v3.8A1.08,1.08,0,0,0,751.9,505.6Z" transform="translate(-34.4 -249.8)" style="fill:#88a84c"/><path d="M751.9,517.1h15.2a1,1,0,0,0,1-1v-3.8a1,1,0,0,0-1-1H751.9a1,1,0,0,0-1,1v3.8A1,1,0,0,0,751.9,517.1Z" transform="translate(-34.4 -249.8)" style="fill:#88a84c"/><path d="M751.9,528.7h15.2a1,1,0,0,0,1-1v-3.8a1,1,0,0,0-1-1H751.9a1,1,0,0,0-1,1v3.8A1,1,0,0,0,751.9,528.7Z" transform="translate(-34.4 -249.8)" style="fill:#88a84c"/><path d="M751.9,540.3h15.2a1,1,0,0,0,1-1v-3.8a1,1,0,0,0-1-1H751.9a1,1,0,0,0-1,1v3.8A1,1,0,0,0,751.9,540.3Z" transform="translate(-34.4 -249.8)" style="fill:#88a84c"/><path d="M751.9,551.9h15.2a1,1,0,0,0,1-1v-3.8a1,1,0,0,0-1-1H751.9a1,1,0,0,0-1,1v3.8A1.08,1.08,0,0,0,751.9,551.9Z" transform="translate(-34.4 -249.8)" style="fill:#88a84c"/><path d="M751.9,563.5h15.2a1,1,0,0,0,1-1v-3.8a1,1,0,0,0-1-1H751.9a1,1,0,0,0-1,1v3.8A1.08,1.08,0,0,0,751.9,563.5Z" transform="translate(-34.4 -249.8)" style="fill:#88a84c"/><path d="M729,494h15.2a1,1,0,0,0,1-1v-3.8a1,1,0,0,0-1-1H729a1,1,0,0,0-1,1V493A1,1,0,0,0,729,494Z" transform="translate(-34.4 -249.8)" style="fill:#88a84c"/><path d="M729,505.6h15.2a1,1,0,0,0,1-1v-3.8a1,1,0,0,0-1-1H729a1,1,0,0,0-1,1v3.8A1,1,0,0,0,729,505.6Z" transform="translate(-34.4 -249.8)" style="fill:#88a84c"/><path d="M729,517.1h15.2a1,1,0,0,0,1-1v-3.8a1,1,0,0,0-1-1H729a1,1,0,0,0-1,1v3.8A.94.94,0,0,0,729,517.1Z" transform="translate(-34.4 -249.8)" style="fill:#88a84c"/><path d="M729,528.7h15.2a1,1,0,0,0,1-1v-3.8a1,1,0,0,0-1-1H729a1,1,0,0,0-1,1v3.8A.94.94,0,0,0,729,528.7Z" transform="translate(-34.4 -249.8)" style="fill:#88a84c"/><path d="M729,540.3h15.2a1,1,0,0,0,1-1v-3.8a1,1,0,0,0-1-1H729a1,1,0,0,0-1,1v3.8A.94.94,0,0,0,729,540.3Z" transform="translate(-34.4 -249.8)" style="fill:#88a84c"/><path d="M729,551.9h15.2a1,1,0,0,0,1-1v-3.8a1,1,0,0,0-1-1H729a1,1,0,0,0-1,1v3.8A1,1,0,0,0,729,551.9Z" transform="translate(-34.4 -249.8)" style="fill:#88a84c"/><path d="M729,563.5h15.2a1,1,0,0,0,1-1v-3.8a1,1,0,0,0-1-1H729a1,1,0,0,0-1,1v3.8A1,1,0,0,0,729,563.5Z" transform="translate(-34.4 -249.8)" style="fill:#88a84c"/><path d="M722.2,524.9v1.9a2,2,0,0,1-1.4,1.9l.8-5.2A1.82,1.82,0,0,1,722.2,524.9Z" transform="translate(-34.4 -249.8)" style="fill:#88a84c"/><path d="M722.2,536.4v2a1.9,1.9,0,0,1-1.9,1.9h-1.4l.9-5.8h.4A2,2,0,0,1,722.2,536.4Z" transform="translate(-34.4 -249.8)" style="fill:#88a84c"/><path d="M722.2,548v2a1.9,1.9,0,0,1-1.9,1.9H717l.9-5.8h2.3A2,2,0,0,1,722.2,548Z" transform="translate(-34.4 -249.8)" style="fill:#88a84c"/><path d="M722.2,559.6v2a1.9,1.9,0,0,1-1.9,1.9h-5.1v-.8l.8-4.9h4.2A1.84,1.84,0,0,1,722.2,559.6Z" transform="translate(-34.4 -249.8)" style="fill:#88a84c"/><path d="M496.8,280.9a3.27,3.27,0,1,1,4.6.5A3.31,3.31,0,0,1,496.8,280.9Z" transform="translate(-34.4 -249.8)" style="fill:url(#radial-gradient-13)"/><path d="M496.8,301.4a3.27,3.27,0,1,1,4.6.5A3.31,3.31,0,0,1,496.8,301.4Z" transform="translate(-34.4 -249.8)" style="fill:url(#radial-gradient-14)"/><path d="M496.8,321.8a3.27,3.27,0,1,1,4.6.5A3.31,3.31,0,0,1,496.8,321.8Z" transform="translate(-34.4 -249.8)" style="fill:url(#radial-gradient-15)"/><rect x="869.1" y="451.7" width="9.6" height="42.6" style="fill:#ffb932;stroke:#a97c50;stroke-miterlimit:10;stroke-width:0.2329999953508377px"/><path d="M1044.8,531.8V527H1036s-36.9,201.1,129.3,261.1v-3.7C1024.6,726.3,1040.6,562,1044.8,531.8Z" transform="translate(-34.4 -249.8)" style="fill:#88a84c"/><rect x="943.7" y="277.2" width="9.6" height="16.6" style="fill:#a7cb64"/><polygon points="936 293.8 926.4 293.8 943.7 309.1 953.3 309.1 936 293.8" style="fill:#a7cb64"/><polygon points="912 406.3 878.7 384.8 878.7 318.3 869.1 318.3 869.1 384.8 902.4 406.3 900.7 451.7 910.3 451.7 912 406.3" style="fill:#a7cb64"/><polygon points="966.4 494.3 956.8 494.3 1069.1 534.2 1130.8 541.5 1130.8 540.4 1078.7 534.2 966.4 494.3" style="fill:#a7cb64"/><rect x="895.4" y="309.1" width="9.6" height="9.3" style="fill:#a7cb64"/><path d="M1036,527H987.7v16.6H970.4l17.3,15.3H939.4v9.3H913.1v66.4l33.3,21.6-1.8,45.3H913v42.6h87.8L1113.1,784l52.1,6.2v-2.1C999,728.1,1036,527,1036,527Z" transform="translate(-34.4 -249.8)" style="fill:#a7cb64"/><path d="M1036,527H991.4v57.6h17.8v9.6H991.4v30.2h23.3v8.2H991.4v35.7h28.8v12.3H991.4v31.5h39.8v11H991.4v21h9.4L1113.1,784l52.1,6.2v-2.1C999,728.1,1036,527,1036,527Z" transform="translate(-34.4 -249.8)" style="fill:#88a84c"/><polygon points="1010.4 270.4 1009.8 267.4 984.2 243.6 963.8 249.5 943.7 277 1010.4 277 1010.4 270.4" style="fill:#88a84c"/><path d="M980.3,579.3a3.27,3.27,0,1,1,4.6.5A3.31,3.31,0,0,1,980.3,579.3Z" transform="translate(-34.4 -249.8)" style="fill:#a7cb64"/><path d="M980.3,622.9a3.27,3.27,0,1,1,4.6.5A3.31,3.31,0,0,1,980.3,622.9Z" transform="translate(-34.4 -249.8)" style="fill:#a7cb64"/><path d="M980.3,666.5a3.27,3.27,0,1,1,4.6.5A3.52,3.52,0,0,1,980.3,666.5Z" transform="translate(-34.4 -249.8)" style="fill:#a7cb64"/><path d="M980.3,710a3.27,3.27,0,1,1,4.6.5A3.31,3.31,0,0,1,980.3,710Z" transform="translate(-34.4 -249.8)" style="fill:#a7cb64"/><path d="M643,601l98.6,5.8a2,2,0,0,1,1.9,2.2l-.8,12.9a2,2,0,0,1-2.2,1.9L641.9,618a2,2,0,0,1-1.9-2.2l.8-12.9A2.1,2.1,0,0,1,643,601Z" transform="translate(-34.4 -249.8)" style="fill:url(#linear-gradient-3)"/><path d="M525.1,591l133.7,7.9a2.78,2.78,0,0,1,2.6,2.9l-1,17.5a2.78,2.78,0,0,1-2.9,2.6L523.7,614a2.78,2.78,0,0,1-2.6-2.9l1-17.5A2.81,2.81,0,0,1,525.1,591Z" transform="translate(-34.4 -249.8)" style="fill:#1a1b20"/><path d="M646.8,594.1l8,.5a2.78,2.78,0,0,1,2.6,2.9l-1.5,25.6a2.78,2.78,0,0,1-2.9,2.6l-8-.5a2.78,2.78,0,0,1-2.6-2.9l1.5-25.6A2.78,2.78,0,0,1,646.8,594.1Z" transform="translate(-34.4 -249.8)" style="fill:#1a1b20"/><path d="M326,586l-28.3,4.7c-5.4.9-9.5,5.9-10.4,12.1a17.94,17.94,0,0,0,3.7,14.1,11.71,11.71,0,0,0,8.5,4.4L505.2,632a9,9,0,0,0,3.6-.5l27-8.3a10.41,10.41,0,0,0,3.6-1.9l8.5-6.6a15,15,0,0,0,2.7-2.9l12.3-17.6a15.94,15.94,0,0,0,2.7-6.6,8.75,8.75,0,0,0,.2-1.6Z" transform="translate(-34.4 -249.8)" style="fill:#a7cb64"/><path d="M326,586l-28.3,4.7c-5.4.9-9.5,5.9-10.4,12.1a16.5,16.5,0,0,0,3.3,6.3,12.61,12.61,0,0,0,8.6,4.5l208.9,10.8a9.47,9.47,0,0,0,3.7-.5l27.5-8.4a14.43,14.43,0,0,0,3.7-1.9l8.6-6.7a15.44,15.44,0,0,0,2.8-2.9l11.4-16.3a8.75,8.75,0,0,0,.2-1.6H326Z" transform="translate(-34.4 -249.8)" style="fill:#a7cb64"/><path d="M815.2,813.9v-7h6v7Zm-23.3,0h-5.8v-7h5.8Zm-29.2,0h-5.8v-7h5.8Zm-29.1,0h-5.8v-7h5.8Zm-29.2,0h-5.8v-7h5.8Zm-29.2,0h-5.8v-7h5.8Zm-29.2,0h-5.8v-7H646Zm-29.1,0H611v-7h5.8v7Zm-29.2,0h-5.8v-7h5.8Zm-29.2,0h-5.8v-7h5.8Zm-29.2,0h-5.8v-7h5.8Zm-29.1,0h-5.8v-7h5.8Zm-29.2,0h-5.8v-7H471Zm-29.2,0H436v-7h5.8Zm-29.1,0h-5.8v-7h5.8Zm-29.2,0h-5.8v-7h5.8Zm-29.2,0h-5.8v-7h5.8Zm-29.5-.4c-2-.2-4-.5-6-.8l1.1-6.9a50.38,50.38,0,0,0,5.6.7Zm520.4-2.7-1.8-6.7c1.8-.5,3.6-1,5.4-1.6l2.2,6.6C849.1,809.7,847.2,810.3,845.2,810.8Zm-549.5-5.1a54.38,54.38,0,0,1-5.4-2.7l3.3-6.2c1.6.9,3.3,1.7,5,2.5Zm577.1-7.1-3.8-5.8c1.6-1,3.1-2.1,4.6-3.2l4.2,5.6C876.1,796.3,874.5,797.5,872.8,798.6Zm-602.3-9.5c-1.5-1.4-2.9-2.8-4.3-4.2l5-4.8c1.3,1.3,2.6,2.7,4,3.9Zm624.6-10.8-5.4-4.3c1.2-1.5,2.3-3,3.4-4.5l5.7,4C897.6,775.1,896.3,776.7,895.1,778.3ZM251.8,765.5c-1-1.8-1.9-3.6-2.8-5.4l6.3-3c.8,1.7,1.7,3.3,2.6,5ZM909.9,752l-6.5-2.4c.6-1.7,1.2-3.5,1.8-5.3l6.7,2C911.2,748.2,910.6,750.1,909.9,752ZM241.4,737.2q-.6-3-.9-6l6.9-.9a52.49,52.49,0,0,0,.9,5.5Zm674.2-14.8-7-.2v-5.6l7-.2v3A15,15,0,0,1,915.6,722.4ZM247.4,708l-6.9-.9c.3-2,.6-4,1-6l6.8,1.3C248,704.2,247.7,706.1,247.4,708Zm657.8-13.5a47.18,47.18,0,0,0-1.8-5.3l6.5-2.4c.7,1.9,1.3,3.8,1.9,5.8ZM255.4,681.2l-6.3-3c.9-1.8,1.8-3.6,2.8-5.4l6.1,3.4C257.1,677.8,256.2,679.5,255.4,681.2Zm637.7-11.9-3.3-4.5,5.5-4.3c1.2,1.6,2.5,3.2,3.6,4.9Zm-621.7-11-5-4.9c1.4-1.4,2.9-2.9,4.4-4.2l4.7,5.2C274.1,655.7,272.7,657,271.4,658.3Zm602.3-9.1c-1.5-1.1-3-2.2-4.6-3.2l3.8-5.8c1.7,1.1,3.3,2.3,5,3.5Zm-579.9-7.6-3.2-6.2c1.8-.9,3.6-1.8,5.4-2.6l2.8,6.4C297.2,639.9,295.5,640.7,293.8,641.6ZM849,636.2c-1.8-.6-3.6-1.1-5.4-1.6l1.8-6.7c1.9.5,3.9,1.1,5.8,1.7Zm-528.7-3.4-1.1-6.9c2-.3,4-.6,6-.8l.7,6.9C324,632.3,322.1,632.5,320.3,632.8Zm501.1-1.1h-5.8v-7h5.9Zm-29.1,0h-5.8v-7h5.8Zm-29.2,0h-5.8v-7h5.8Zm-29.2,0h-5.8v-7h5.8Zm-29.2,0h-5.8v-7h5.8Zm-29.1,0h-5.8v-7h5.8Zm-29.2,0h-5.8v-7h5.8Zm-29.2,0h-5.8v-7h5.8Zm-29.1,0h-5.8v-7h5.8Zm-29.2,0H553v-7h5.8v7Zm-29.2,0h-5.8v-7h5.8Zm-29.2,0h-5.8v-7h5.8Zm-29.1,0h-5.8v-7h5.8Zm-29.2,0h-5.8v-7h5.8Zm-29.2,0h-5.8v-7H413Zm-29.2,0H378v-7h5.8Zm-29.1,0h-5.8v-7h5.8Z" transform="translate(-34.4 -249.8)" style="fill:#414042"/><path d="M865,810.5H291.2a47.59,47.59,0,0,1-47.6-47.6V675.8a47.59,47.59,0,0,1,47.6-47.6H865a47.59,47.59,0,0,1,47.6,47.6v87.1A47.59,47.59,0,0,1,865,810.5Z" transform="translate(-34.4 -249.8)" style="fill:#231f20"/><path d="M334.7,793a73.7,73.7,0,1,1,0-147.4H821.4a73.7,73.7,0,1,1,0,147.4Z" transform="translate(-34.4 -249.8)" style="fill:#f6f6f6;opacity:0.30000001192092896;isolation:isolate"/><path d="M398,689.4H791.3a42.6,42.6,0,1,1,.7,60.5H398a30.41,30.41,0,0,1-30.3-30.3h0A30.39,30.39,0,0,1,398,689.4Z" transform="translate(-34.4 -249.8)" style="fill:#88a84c"/><path d="M426.6,719.3a81.9,81.9,0,1,1-81.9-81.9A81.86,81.86,0,0,1,426.6,719.3Z" transform="translate(-34.4 -249.8)" style="fill:#3d3b3d"/><path d="M426.6,719.3a81.9,81.9,0,1,1-81.9-81.9A81.86,81.86,0,0,1,426.6,719.3Z" transform="translate(-34.4 -249.8)"/><path d="M415,719.3a70.25,70.25,0,1,1-70.3-70.2A70.27,70.27,0,0,1,415,719.3Z" transform="translate(-34.4 -249.8)" style="fill:url(#radial-gradient-16)"/><path d="M405,719.3A60.3,60.3,0,1,1,344.7,659,60.3,60.3,0,0,1,405,719.3Z" transform="translate(-34.4 -249.8)" style="fill:#231f20"/><path d="M405,719.3A60.3,60.3,0,1,1,344.7,659,60.3,60.3,0,0,1,405,719.3Z" transform="translate(-34.4 -249.8)" style="fill:#3b3a3a"/><path d="M387.3,719.3a42.6,42.6,0,1,1-42.6-42.6A42.64,42.64,0,0,1,387.3,719.3Z" transform="translate(-34.4 -249.8)" style="fill:#414042;stroke:#3d3b3d;stroke-miterlimit:10;stroke-width:0.42160001397132874px"/><path d="M374.3,719.8a29.5,29.5,0,1,1-29.5-29.5A29.49,29.49,0,0,1,374.3,719.8Z" transform="translate(-34.4 -249.8)" style="fill:#f6f6f6"/><path d="M356.4,705.1l13.3-16.8a41.09,41.09,0,0,1,11.2,14l-19.3,9.4A16,16,0,0,0,356.4,705.1Z" transform="translate(-34.4 -249.8)" style="fill:#f6f6f6"/><path d="M369.9,751.3a39.6,39.6,0,0,1-16.1,7.8L349,738.2a19.32,19.32,0,0,0,7.5-3.6Z" transform="translate(-34.4 -249.8)" style="fill:#f6f6f6"/><path d="M327.8,711.7l-19.3-9.3a39.89,39.89,0,0,1,11.1-14L333,705.1A19.54,19.54,0,0,0,327.8,711.7Z" transform="translate(-34.4 -249.8)" style="fill:#f6f6f6"/><path d="M363.6,719.8v-.1H385v.1a39.36,39.36,0,0,1-4,17.5L361.7,728A18,18,0,0,0,363.6,719.8Z" transform="translate(-34.4 -249.8)" style="fill:#f6f6f6"/><path d="M326,719.9a18,18,0,0,0,1.9,8.2l-19.3,9.3a39,39,0,0,1-4-17.5Z" transform="translate(-34.4 -249.8)" style="fill:#f6f6f6"/><path d="M335.7,680.6a41.57,41.57,0,0,1,17.9-.1l-4.7,20.9a19.82,19.82,0,0,0-8.4,0Z" transform="translate(-34.4 -249.8)" style="fill:#f6f6f6"/><path d="M340.6,738.2l-4.7,20.9a41.12,41.12,0,0,1-16.2-7.7l13.4-16.8A19.32,19.32,0,0,0,340.6,738.2Z" transform="translate(-34.4 -249.8)" style="fill:#f6f6f6"/><path d="M865.6,719.3A42.6,42.6,0,1,1,823,676.7,42.64,42.64,0,0,1,865.6,719.3Z" transform="translate(-34.4 -249.8)" style="fill:#3d3b3d"/><path d="M865.6,719.3A42.6,42.6,0,1,1,823,676.7,42.64,42.64,0,0,1,865.6,719.3Z" transform="translate(-34.4 -249.8)"/><path d="M859.6,719.3a36.5,36.5,0,1,1-36.5-36.5A36.51,36.51,0,0,1,859.6,719.3Z" transform="translate(-34.4 -249.8)" style="fill:url(#radial-gradient-17)"/><path d="M854.4,719.3A31.35,31.35,0,1,1,823,688,31.3,31.3,0,0,1,854.4,719.3Z" transform="translate(-34.4 -249.8)" style="fill:#231f20"/><path d="M854.4,719.3A31.35,31.35,0,1,1,823,688,31.3,31.3,0,0,1,854.4,719.3Z" transform="translate(-34.4 -249.8)" style="fill:#3b3a3a"/><path d="M845.2,719.3a22.1,22.1,0,1,1-22.1-22.1A22.11,22.11,0,0,1,845.2,719.3Z" transform="translate(-34.4 -249.8)" style="fill:#414042;stroke:#3d3b3d;stroke-miterlimit:10;stroke-width:0.21930000185966492px"/><path d="M838.4,719.6A15.4,15.4,0,1,1,823,704.2,15.41,15.41,0,0,1,838.4,719.6Z" transform="translate(-34.4 -249.8)" style="fill:#f6f6f6"/><path d="M829.1,711.9l6.9-8.8a21.58,21.58,0,0,1,5.8,7.3l-10,4.9A8.88,8.88,0,0,0,829.1,711.9Z" transform="translate(-34.4 -249.8)" style="fill:#f6f6f6"/><path d="M836.1,735.9a20,20,0,0,1-8.4,4.1l-2.5-10.9a9.48,9.48,0,0,0,3.9-1.9Z" transform="translate(-34.4 -249.8)" style="fill:#f6f6f6"/><path d="M814.2,715.4l-10.1-4.8a21.58,21.58,0,0,1,5.8-7.3l7,8.7A9.07,9.07,0,0,0,814.2,715.4Z" transform="translate(-34.4 -249.8)" style="fill:#f6f6f6"/><path d="M832.8,719.6h0l11.2-.1v.1a20.58,20.58,0,0,1-2.1,9.1l-10.1-4.8A9.35,9.35,0,0,0,832.8,719.6Z" transform="translate(-34.4 -249.8)" style="fill:#f6f6f6"/><path d="M813.2,719.6a8.68,8.68,0,0,0,1,4.2l-10,4.9a20.27,20.27,0,0,1-2.1-9.1Z" transform="translate(-34.4 -249.8)" style="fill:#f6f6f6"/><path d="M818.3,699.2a20.86,20.86,0,0,1,9.3,0l-2.4,10.9a10.86,10.86,0,0,0-4.4,0Z" transform="translate(-34.4 -249.8)" style="fill:#f6f6f6"/><path d="M820.9,729.1,818.4,740a21.76,21.76,0,0,1-8.4-4l7-8.7A8.76,8.76,0,0,0,820.9,729.1Z" transform="translate(-34.4 -249.8)" style="fill:#f6f6f6"/><circle cx="708.6" cy="365.5" r="11" style="fill:url(#radial-gradient-18)"/><path d="M692.8,495.8H666.9a1.79,1.79,0,0,1-1.8-1.8V477.9a1.79,1.79,0,0,1,1.8-1.8h25.9a1.79,1.79,0,0,1,1.8,1.8V494A1.68,1.68,0,0,1,692.8,495.8Z" transform="translate(-34.4 -249.8)" style="fill:#e4ebd6"/><path d="M682.1,590.5a3.27,3.27,0,1,1,4.6.5A3.31,3.31,0,0,1,682.1,590.5Z" transform="translate(-34.4 -249.8)" style="fill:url(#radial-gradient-19)"/><path d="M753.4,590.5a3.27,3.27,0,1,1,4.6.5A3.31,3.31,0,0,1,753.4,590.5Z" transform="translate(-34.4 -249.8)" style="fill:url(#radial-gradient-20)"/><path d="M423.5,501.3a.81.81,0,0,1-.7.9h-6.6a.81.81,0,0,1-.7-.9v-8a.81.81,0,0,1,.7-.9h6.6a.81.81,0,0,1,.7.9Z" transform="translate(-34.4 -249.8)" style="fill:#ed1c24"/><path d="M422.8,502.5h-6.6c-.6,0-1-.5-1-1.2v-8c0-.7.4-1.2,1-1.2h6.6c.6,0,1,.5,1,1.2v8A1.13,1.13,0,0,1,422.8,502.5Zm-6.6-9.7c-.3,0-.5.2-.5.6v8a.56.56,0,0,0,.5.6h6.6c.3,0,.5-.2.5-.6v-8a.56.56,0,0,0-.5-.6Z" transform="translate(-34.4 -249.8)" style="fill:#231f20"/><path d="M433.5,501.3a.81.81,0,0,1-.7.9h-6.6a.81.81,0,0,1-.7-.9v-8a.81.81,0,0,1,.7-.9h6.6a.81.81,0,0,1,.7.9Z" transform="translate(-34.4 -249.8)" style="fill:#aba9a7"/><path d="M432.8,502.5h-6.6c-.6,0-1-.5-1-1.2v-8c0-.7.4-1.2,1-1.2h6.6c.6,0,1,.5,1,1.2v8A1.13,1.13,0,0,1,432.8,502.5Zm-6.6-9.7c-.3,0-.5.2-.5.6v8a.56.56,0,0,0,.5.6h6.6c.3,0,.5-.2.5-.6v-8a.56.56,0,0,0-.5-.6Z" transform="translate(-34.4 -249.8)" style="fill:#231f20"/><path d="M632.7,290.2v-6c0-12.5-12.2-22.6-27.1-22.6l-306-11.8a27.12,27.12,0,0,0-27.1,27.1v13.2H632.7Z" transform="translate(-34.4 -249.8)" style="fill:#a7cb64"/></svg>