<?xml version="1.0" encoding="utf-8"?>
<!-- Generator: Adobe Illustrator 23.0.1, SVG Export Plug-In . SVG Version: 6.00 Build 0)  -->
<svg version="1.1" id="Layer_1" xmlns="http://www.w3.org/2000/svg" xmlns:xlink="http://www.w3.org/1999/xlink" x="0px" y="0px"
	 viewBox="0 0 1200 1200" style="enable-background:new 0 0 1200 1200;" xml:space="preserve">
<style type="text/css">
	.st0{fill:#1B1B19;}
	.st1{fill:#212121;}
	.st2{fill:#333333;}
	.st3{fill:#B5B5B5;}
	.st4{fill:#141414;}
	.st5{fill:#403430;}
	.st6{fill:#A7CB64;}
	.st7{fill:#88A84C;}
	.st8{fill:#111111;}
	.st9{opacity:0.5;enable-background:new    ;}
	.st10{fill:#161616;}
	.st11{fill:#232323;}
	.st12{fill:#3A3A3A;}
	.st13{fill:#8E8E8E;}
	.st14{fill:#AFAFAF;}
	.st15{fill:#FFFFFF;}
	.st16{opacity:0.5;fill:#111111;enable-background:new    ;}
	.st17{fill:#BCBCBC;}
	.st18{fill:#DD2424;}
	.st19{fill:#F95353;}
	.st20{fill:#AF1C1C;}
	.st21{fill:#636363;}
	.st22{fill:#0A0A0A;}
	.st23{fill:#2B2B2B;}
	.st24{fill:#E5E5E5;}
</style>
<path class="st0" d="M1090.2,874.7H165c-3.1,0-5.7-2.5-5.7-5.7c0-3.1,2.5-5.7,5.7-5.7h925.2c3.1,0,5.7,2.5,5.7,5.7
	C1095.9,872.1,1093.4,874.7,1090.2,874.7z"/>
<polygon class="st1" points="178.6,613.3 151.5,613.3 151.5,502.2 161.8,502.2 "/>
<rect x="151.5" y="502.2" class="st2" width="3.8" height="108.3"/>
<path class="st3" d="M649.8,453.7L649.8,453.7c-1.3-0.4-2.1-1.8-1.7-3.1l11.6-37.8c0.4-1.3,1.8-2.1,3.1-1.7l0,0
	c1.3,0.4,2.1,1.8,1.7,3.1L652.9,452C652.5,453.4,651.1,454.1,649.8,453.7z"/>
<path class="st3" d="M660.1,414.2c-0.4-1.1,0.1-2.2,1.2-2.6c1.1-0.4,2.2,0.1,2.6,1.2c0.4,1.1-0.1,2.2-1.2,2.6
	C661.7,415.8,660.5,415.3,660.1,414.2z"/>
<path class="st4" d="M706.2,521.4l-40.3-5.6c-2.9-0.4-5.7,1.4-6.5,4.2l-12.6,41.1c0,0,44.6,6.9,45.3,7.3
	c0.7,0.4,21.1-27.3,21.1-27.3L706.2,521.4z"/>
<path class="st4" d="M617,570.9L617,570.9c-2.8-0.8-4.5-3.7-3.7-6.5L631,501c0.8-2.8,3.7-4.5,6.5-3.7l0,0c2.8,0.8,4.5,3.7,3.7,6.5
	l-17.7,63.4C622.7,570,619.8,571.6,617,570.9z"/>
<path class="st4" d="M627.9,539.3l47.8,13.3c2.5,0.7,5-0.8,5.7-3.2l0,0c0.7-2.5-0.8-5-3.2-5.7l-47.8-13.3c-2.5-0.7-5,0.8-5.7,3.2
	l0,0C624,536,625.5,538.6,627.9,539.3z"/>
<path class="st5" d="M230.2,565.4l-15.5-79.5c-1-5.2,3-10.1,8.3-10.1h16.6c8.8,0,17,5,21,12.8l40.3,78.8L230.2,565.4z"/>
<path class="st5" d="M250.7,488.7l40.1,78.5l10,0.3l-40.3-78.8c-4-7.9-12.1-12.8-21-12.8h-9.8C238.6,475.9,246.7,480.8,250.7,488.7z
	"/>
<path class="st5" d="M464.9,565.4l-15.5-79.5c-1-5.2,3-10.1,8.3-10.1h16.6c8.8,0,17,5,21,12.8l40.3,78.8L464.9,565.4z"/>
<path class="st5" d="M485.4,488.7l40.1,78.5l10,0.3l-40.3-78.8c-4-7.9-12.1-12.8-21-12.8h-9.8C473.3,475.9,481.4,480.8,485.4,488.7z
	"/>
<path class="st6" d="M669.8,410c-0.1,0-0.2,0-0.3,0l-216.3-10.6H243.4c-3.6,0-6.6-2.9-6.6-6.6c0-3.6,2.9-6.6,6.6-6.6h209.9
	c0.1,0,0.2,0,0.3,0l216.5,10.6c3.6,0.2,6.4,3.3,6.2,6.9C676.2,407.3,673.3,410,669.8,410z"/>
<path class="st6" d="M201.8,568.3c-0.9,0-1.7-0.1-2.6-0.3c-5.7-1.4-9.2-7.2-7.7-12.9L233,390.2c1.4-5.7,7.2-9.2,12.9-7.7
	c5.7,1.4,9.2,7.2,7.7,12.9L212,560.2C210.9,565.1,206.6,568.3,201.8,568.3z"/>
<path class="st6" d="M453.3,569.5c-5.9,0-10.7-4.8-10.7-10.7v-166c0-5.9,4.8-10.7,10.7-10.7c5.9,0,10.7,4.8,10.7,10.7v166.1
	C464,564.8,459.2,569.5,453.3,569.5z"/>
<path class="st6" d="M464,558.9V392.8c0-5.9-4.8-10.7-10.7-10.7v187.4C459.2,569.5,464,564.8,464,558.9z"/>
<path class="st6" d="M229.5,364.2c0,0-9.4-39.5-52.6-38.8c-3.2,0.1-4.2,4.4-1.4,5.8c16.7,8.5,26.8,26.3,26.4,38
	C212,375.5,229.5,364.2,229.5,364.2z"/>
<path class="st7" d="M757.7,399.6c5.3,0.6,6.9-6.9,1.9-8.6c-33.8-11.2-108.3-27.6-266.4-36.1c-174.9-9.4-275.2,8.9-321,21.3
	c-5.1,1.4-3.9,8.8,1.3,8.6c62.3-2.7,204.9-7.8,321.4-3.9C606.8,384.6,709.9,394.5,757.7,399.6z"/>
<path class="st6" d="M495.5,376.1c-117.9-4-262,1.1-326.5,3.9c-0.1,2.4,1.5,4.8,4.6,4.7c62.3-2.7,204.9-7.8,321.4-3.9
	c112,3.8,215,13.7,262.8,18.7c3.1,0.3,4.9-2.1,4.9-4.5C713.2,389.9,608.8,379.9,495.5,376.1z"/>
<path class="st6" d="M212.2,560.3l41.6-164.8c1.4-5.7-2-11.5-7.7-12.9L199.2,568c0.9,0.2,1.8,0.3,2.6,0.3
	C206.6,568.3,210.9,565.1,212.2,560.3z"/>
<path class="st6" d="M246,382.5c-5.7-1.4-11.5,2-12.9,7.7l-4.4,17.5l19.7,9l5.4-21.3C255.1,389.7,251.7,383.9,246,382.5z"/>
<path class="st6" d="M453.3,382.2c-5.9,0-10.7,4.8-10.7,10.7v26l21.3,4.5v-30.5C464,386.9,459.2,382.2,453.3,382.2z"/>
<path class="st8" d="M71.1,620.8V481.4c0-22.2,18-40.2,40.2-40.2l0,0c22.2,0,40.2,18,40.2,40.2v139.4c0,22.2-18,40.2-40.2,40.2l0,0
	C89.1,661,71.1,643,71.1,620.8z"/>
<g>
	<path d="M134.4,442.9c1.2,1.9,1.2,4.2,0,6l-4.5,7.2c-1.8,2.9-1.8,6.6,0,9.5l4.5,7.2c1.2,1.9,1.2,4.2,0,6l-4.5,7.2
		c-1.8,2.9-1.8,6.6,0,9.5l4.5,7.2c1.2,1.9,1.2,4.2,0,6l-4.5,7.2c-1.8,2.9-1.8,6.6,0,9.5l4.5,7.2c1.2,1.9,1.2,4.2,0,6l-4.5,7.3
		c-1.8,2.9-1.8,6.6,0,9.5l4.5,7.2c1.2,1.9,1.2,4.2,0,6l-4.5,7.2c-1.8,2.9-1.8,6.6,0,9.5l4.5,7.2c1.2,1.9,1.2,4.2,0,6l-4.5,7.2
		c-1.8,2.9-1.8,6.6,0,9.5l4.5,7.2c1.2,1.9,1.2,4.2,0,6l-4.5,7.3c-1.8,2.9-1.8,6.6,0,9.5l4.5,7.3c1.2,1.9,1.2,4.2,0,6.1l-0.8,1.3
		c1.5-0.3,3-0.7,4.4-1.3c1-2.6,0.7-5.5-0.8-7.9l-4.5-7.3c-1.2-1.9-1.2-4.2,0-6l4.5-7.3c1.8-2.9,1.8-6.6,0-9.5l-4.5-7.2
		c-1.2-1.9-1.2-4.2,0-6l4.5-7.2c1.8-2.9,1.8-6.6,0-9.5l-4.5-7.2c-1.2-1.9-1.2-4.2,0-6l4.5-7.2c1.8-2.9,1.8-6.6,0-9.5l-4.5-7.2
		c-1.2-1.9-1.2-4.2,0-6l4.5-7.3c1.8-2.9,1.8-6.6,0-9.5l-4.5-7.2c-1.2-1.9-1.2-4.2,0-6l4.5-7.2c1.8-2.9,1.8-6.6,0-9.5l-4.5-7.2
		c-1.2-1.9-1.2-4.2,0-6l4.5-7.2c1.8-2.9,1.8-6.6,0-9.5l-4.5-7.2c-1.2-1.9-1.2-4.2,0-6l4.5-7.2c1.5-2.4,1.7-5.3,0.8-7.9
		c-1.4-0.6-2.9-1-4.4-1.3L134.4,442.9z"/>
	<path d="M92.8,651.5l-4.5-7.3c-1.2-1.9-1.2-4.2,0-6l4.5-7.3c1.8-2.9,1.8-6.6,0-9.5l-4.5-7.2c-1.2-1.9-1.2-4.2,0-6l4.5-7.2
		c1.8-2.9,1.8-6.6,0-9.5l-4.5-7.2c-1.2-1.9-1.2-4.2,0-6l4.5-7.2c1.8-2.9,1.8-6.6,0-9.5l-4.5-7.2c-1.2-1.9-1.2-4.2,0-6l4.5-7.3
		c1.8-2.9,1.8-6.6,0-9.5l-4.5-7.2c-1.2-1.9-1.2-4.2,0-6l4.5-7.2c1.8-2.9,1.8-6.6,0-9.5l-4.5-7.2c-1.2-1.9-1.2-4.2,0-6l4.5-7.2
		c1.8-2.9,1.8-6.6,0-9.5l-4.5-7.2c-1.2-1.9-1.2-4.2,0-6l4.5-7.2c1.8-2.9,1.8-6.6,0-9.5c-1.2,0-2.5,0.1-3.6,0.3l0.8,1.4
		c1.2,1.9,1.2,4.2,0,6l-4.5,7.2c-1.8,2.9-1.8,6.6,0,9.5L90,473c1.2,1.9,1.2,4.2,0,6l-4.5,7.2c-1.8,2.9-1.8,6.6,0,9.5L90,503
		c1.2,1.9,1.2,4.2,0,6l-4.5,7.2c-1.8,2.9-1.8,6.6,0,9.5L90,533c1.2,1.9,1.2,4.2,0,6l-4.5,7.3c-1.8,2.9-1.8,6.6,0,9.5L90,563
		c1.2,1.9,1.2,4.2,0,6l-4.5,7.2c-1.8,2.9-1.8,6.6,0,9.5l4.5,7.2c1.2,1.9,1.2,4.2,0,6l-4.5,7.2c-1.8,2.9-1.8,6.6,0,9.5l4.5,7.2
		c1.2,1.9,1.2,4.2,0,6l-4.5,7.3c-1.8,2.9-1.8,6.6,0,9.5l4.5,7.3c1.2,1.9,1.2,4.2,0,6l-0.9,1.4c1.2,0.2,2.4,0.3,3.6,0.3l0,0
		C94.6,658,94.6,654.4,92.8,651.5z"/>
	<path d="M103.7,661h3.9l0,0c1.8-2.9,1.8-6.6,0-9.5l-4.5-7.3c-1.2-1.9-1.2-4.2,0-6l4.5-7.3c1.8-2.9,1.8-6.6,0-9.5l-4.5-7.2
		c-1.2-1.9-1.2-4.2,0-6l4.5-7.2c1.8-2.9,1.8-6.6,0-9.5l-4.5-7.2c-1.2-1.9-1.2-4.2,0-6l4.5-7.2c1.8-2.9,1.8-6.6,0-9.5l-4.5-7.2
		c-1.2-1.9-1.2-4.2,0-6l4.5-7.3c1.8-2.9,1.8-6.6,0-9.5l-4.5-7.2c-1.2-1.9-1.2-4.2,0-6l4.5-7.2c1.8-2.9,1.8-6.6,0-9.5l-4.5-7.2
		c-1.2-1.9-1.2-4.2,0-6l4.5-7.2c1.8-2.9,1.8-6.6,0-9.5l-4.5-7.2c-1.2-1.9-1.2-4.2,0-6l4.5-7.2c1.8-2.9,1.8-6.6,0-9.5h-3.9l1.1,1.7
		c1.2,1.9,1.2,4.2,0,6l-4.5,7.2c-1.8,2.9-1.8,6.6,0,9.5l4.5,7.2c1.2,1.9,1.2,4.2,0,6l-4.5,7.2c-1.8,2.9-1.8,6.6,0,9.5l4.5,7.2
		c1.2,1.9,1.2,4.2,0,6l-4.5,7.2c-1.8,2.9-1.8,6.6,0,9.5l4.5,7.2c1.2,1.9,1.2,4.2,0,6l-4.5,7.3c-1.8,2.9-1.8,6.6,0,9.5l4.5,7.2
		c1.2,1.9,1.2,4.2,0,6l-4.5,7.2c-1.8,2.9-1.8,6.6,0,9.5l4.5,7.2c1.2,1.9,1.2,4.2,0,6l-4.5,7.2c-1.8,2.9-1.8,6.6,0,9.5l4.5,7.2
		c1.2,1.9,1.2,4.2,0,6l-4.5,7.3c-1.8,2.9-1.8,6.6,0,9.5l4.5,7.3c1.2,1.9,1.2,4.2,0,6L103.7,661z"/>
	<path d="M118.5,661h3.9l0,0c1.8-2.9,1.8-6.6,0-9.5l-4.5-7.3c-1.2-1.9-1.2-4.2,0-6l4.5-7.3c1.8-2.9,1.8-6.6,0-9.5l-4.5-7.2
		c-1.2-1.9-1.2-4.2,0-6l4.5-7.2c1.8-2.9,1.8-6.6,0-9.5l-4.5-7.2c-1.2-1.9-1.2-4.2,0-6l4.5-7.2c1.8-2.9,1.8-6.6,0-9.5l-4.5-7.2
		c-1.2-1.9-1.2-4.2,0-6l4.5-7.3c1.8-2.9,1.8-6.6,0-9.5l-4.5-7.2c-1.2-1.9-1.2-4.2,0-6l4.5-7.2c1.8-2.9,1.8-6.6,0-9.5l-4.5-7.2
		c-1.2-1.9-1.2-4.2,0-6l4.5-7.2c1.8-2.9,1.8-6.6,0-9.5l-4.5-7.2c-1.2-1.9-1.2-4.2,0-6l4.5-7.2c1.8-2.9,1.8-6.6,0-9.5h-3.9l1.1,1.7
		c1.2,1.9,1.2,4.2,0,6l-4.5,7.2c-1.8,2.9-1.8,6.6,0,9.5l4.5,7.2c1.2,1.9,1.2,4.2,0,6l-4.5,7.2c-1.8,2.9-1.8,6.6,0,9.5l4.5,7.2
		c1.2,1.9,1.2,4.2,0,6l-4.5,7.2c-1.8,2.9-1.8,6.6,0,9.5l4.5,7.2c1.2,1.9,1.2,4.2,0,6l-4.5,7.3c-1.8,2.9-1.8,6.6,0,9.5l4.5,7.2
		c1.2,1.9,1.2,4.2,0,6l-4.5,7.2c-1.8,2.9-1.8,6.6,0,9.5l4.5,7.2c1.2,1.9,1.2,4.2,0,6l-4.5,7.2c-1.8,2.9-1.8,6.6,0,9.5l4.5,7.2
		c1.2,1.9,1.2,4.2,0,6l-4.5,7.3c-1.8,2.9-1.8,6.6,0,9.5l4.5,7.3c1.2,1.9,1.2,4.2,0,6L118.5,661z"/>
</g>
<path class="st9" d="M85.8,442.4c-8.5,3-14.6,11-14.6,20.5v176.3c0,9.5,6.1,17.6,14.6,20.5V442.4z"/>
<path class="st9" d="M136.9,659.8c8.5-3,14.6-11,14.6-20.5V463c0-9.5-6.1-17.6-14.6-20.5V659.8z"/>
<polygon class="st10" points="177.3,717.6 257.7,737.3 937.7,737.3 1090.2,712.1 1090.2,674.4 1071.7,641.6 1033.9,604.4 889,608.8 
	246.1,608.8 186.5,645.4 "/>
<path class="st8" d="M1073.4,760.5L1073.4,760.5c-0.1-0.5-0.1-1-0.1-1.6h0.1c2.7-0.1,4.8-2.4,4.7-5.1c-0.2-4.5-0.7-9.1-1.5-13.5
	c-0.5-2.7-3-4.5-5.7-4h-0.1c-0.1-0.5-0.2-1-0.3-1.5h0.1c2.6-0.8,4.1-3.5,3.4-6.1c-1.3-4.4-2.8-8.7-4.6-12.8c-1.1-2.5-4-3.7-6.5-2.6
	c0,0-0.1,0-0.1,0.1c-0.2-0.5-0.5-0.9-0.7-1.4c0,0,0.1,0,0.1-0.1c2.4-1.3,3.2-4.3,1.9-6.7c-2.2-3.9-4.7-7.8-7.4-11.4
	c-1.6-2.2-4.7-2.6-6.9-1l-0.1,0.1c-0.3-0.4-0.7-0.8-1-1.2l0.1-0.1c2-1.8,2.1-5,0.3-7c-3.1-3.3-6.4-6.5-9.9-9.4
	c-2.1-1.8-5.2-1.5-6.9,0.6c0,0,0,0.1-0.1,0.1c-0.4-0.3-0.9-0.6-1.3-0.9l0.1-0.1c1.5-2.3,0.9-5.3-1.3-6.8c-3.8-2.5-7.7-4.9-11.8-6.9
	c-2.4-1.2-5.4-0.3-6.6,2.2v0.1c-0.5-0.2-1-0.4-1.4-0.6c0,0,0-0.1,0.1-0.1c1-2.5-0.3-5.4-2.9-6.3c-4.2-1.6-8.6-2.9-13-4
	c-2.6-0.6-5.3,1-5.9,3.6v0.1c-0.5-0.1-1-0.2-1.5-0.3v-0.1c0.3-2.7-1.6-5.2-4.3-5.5c-2.3-0.3-4.7-0.5-7-0.7c-2.2-0.1-4.4-0.2-6.6-0.2
	c-2.7,0-4.9,2.2-4.9,4.9v0.1c-0.5,0-1,0.1-1.6,0.1v-0.1c-0.3-2.7-2.7-4.6-5.4-4.4c-4.5,0.5-9,1.2-13.4,2.3c-2.6,0.6-4.3,3.3-3.7,5.9
	v0.1c-0.5,0.1-1,0.3-1.5,0.4v-0.1c-0.9-2.6-3.7-3.9-6.3-3c-4.3,1.5-8.5,3.3-12.5,5.3c-2.4,1.2-3.4,4.2-2.2,6.6l0.1,0.1
	c-0.5,0.3-0.9,0.5-1.4,0.8c0,0,0-0.1-0.1-0.1c-1.5-2.3-4.5-2.9-6.8-1.5c-3.8,2.4-7.5,5.2-11,8.1c-2.1,1.7-2.4,4.8-0.6,6.9l0.1,0.1
	c-0.4,0.4-0.8,0.7-1.2,1.1l-0.1-0.1c-2-1.9-5.1-1.8-7,0.1c-3.1,3.3-6.1,6.8-8.8,10.4c-1.6,2.2-1.2,5.3,1,6.9c0,0,0.1,0,0.1,0.1
	c-0.3,0.4-0.6,0.9-0.9,1.3l-0.1-0.1c-2.3-1.4-5.4-0.6-6.7,1.7c-2.3,3.9-4.4,8-6.2,12.1c-1.1,2.5,0.1,5.4,2.6,6.5h0.1
	c-0.2,0.5-0.3,1-0.5,1.5c0,0-0.1,0-0.1-0.1c-2.6-0.8-5.4,0.6-6.2,3.2c-1.3,4.3-2.4,8.8-3.2,13.2c-0.5,2.7,1.3,5.2,4,5.7h0.1
	c-0.1,0.5-0.2,1-0.2,1.6h-0.1l0,0c-2.7-0.2-5,1.9-5.2,4.6v0.7c-0.3,4.3-0.3,8.7-0.1,12.9c0.1,2.5,2.1,4.5,4.6,4.6c0.2,0,0.4,0,0.6,0
	h0.1c0.1,0.5,0.1,1,0.2,1.6h-0.1c-2.7,0.4-4.5,3-4.1,5.7c0.7,4.5,1.8,8.9,3,13.3c0.6,2,2.4,3.4,4.4,3.5c0.6,0,1.1,0,1.7-0.2h0.1
	c0.2,0.5,0.4,1,0.5,1.5h-0.1c-2.5,1.1-3.7,3.9-2.6,6.4c1.8,4.2,3.8,8.3,6,12.2c0.9,1.5,2.4,2.4,4,2.5c0.9,0.1,1.9-0.1,2.8-0.6
	l0.1-0.1c0.3,0.4,0.6,0.9,0.8,1.3c0,0-0.1,0-0.1,0.1c-2.2,1.6-2.7,4.7-1.1,6.9c2.7,3.7,5.6,7.2,8.7,10.5c0.9,1,2.1,1.5,3.3,1.5
	c1.3,0.1,2.6-0.4,3.7-1.3l0.1-0.1c0.4,0.4,0.7,0.7,1.1,1.1l-0.1,0.1c-1.8,2.1-1.5,5.2,0.5,6.9c3.4,3,7.1,5.7,10.9,8.2
	c0.7,0.5,1.6,0.8,2.4,0.8c1.7,0.1,3.4-0.7,4.4-2.2c0,0,0-0.1,0.1-0.1c0.5,0.3,0.9,0.5,1.4,0.8l-0.1,0.1c-1.2,2.4-0.3,5.4,2.1,6.6
	c4,2.1,8.2,3.9,12.5,5.5c0.5,0.2,0.9,0.3,1.4,0.3c2.1,0.1,4.2-1.1,4.9-3.2v-0.1c0.5,0.2,1,0.3,1.5,0.5v0.1c-0.7,2.6,1,5.3,3.6,6
	c4.4,1.1,8.9,1.9,13.4,2.5c0.1,0,0.2,0,0.3,0c2.6,0.2,4.9-1.7,5.2-4.3V864c0.4,0,0.7,0.1,1.1,0.1c0.2,0,0.3,0,0.5,0v0.1
	c0,2.6,2,4.8,4.6,5c0.1,0,0.2,0,0.3,0c4.5,0.1,9.1-0.2,13.6-0.7c2.7-0.3,4.6-2.7,4.3-5.4V863c0.5-0.1,1-0.2,1.6-0.3v0.1
	c0.5,2.2,2.4,3.7,4.5,3.8c0.5,0,0.9,0,1.4-0.1c4.4-1,8.8-2.3,13.1-3.8c2.6-0.9,3.9-3.7,3-6.3c0,0,0-0.1-0.1-0.1
	c0.5-0.2,1-0.4,1.4-0.6c0,0,0,0.1,0.1,0.1c0.8,1.6,2.4,2.6,4.1,2.8c0.8,0.1,1.7-0.1,2.5-0.5c4.1-2,8-4.2,11.8-6.7
	c2.3-1.5,2.9-4.5,1.4-6.8l-0.1-0.1c0.4-0.3,0.8-0.6,1.3-0.9c0,0,0,0.1,0.1,0.1c0.9,1.1,2.2,1.7,3.5,1.8c1.2,0.1,2.4-0.3,3.4-1.1
	c3.5-2.9,6.9-6,10-9.3c1.9-2,1.8-5.1-0.2-7l-0.1-0.1c0.3-0.4,0.7-0.8,1-1.2l0.1,0.1c0.8,0.6,1.7,0.9,2.7,1c1.6,0.1,3.2-0.6,4.2-1.9
	c2.8-3.6,5.3-7.4,7.6-11.3c1.4-2.3,0.6-5.4-1.8-6.7c0,0-0.1,0-0.1-0.1c0.2-0.5,0.5-0.9,0.7-1.4c0,0,0.1,0,0.1,0.1
	c0.6,0.2,1.1,0.4,1.7,0.4c2,0.1,3.9-1,4.8-2.9c1.8-4.1,3.4-8.4,4.8-12.8c0.8-2.6-0.7-5.3-3.3-6.1h-0.1c0.1-0.5,0.3-1,0.4-1.5h0.1
	c0.2,0,0.4,0.1,0.6,0.1c2.4,0.2,4.7-1.5,5.1-4c0.8-4.4,1.4-9,1.7-13.5V766C1078.2,763,1076.2,760.6,1073.4,760.5z"/>
<circle class="st11" cx="968.4" cy="759.1" r="93.5"/>
<g>
	<path class="st12" d="M886,761.3c-0.2,0-0.3,0-0.5,0c-4.1-0.3-7.2-3.8-6.9-7.8c0.4-6.1,1.4-12.1,3-18c1.1-3.9,5.1-6.3,9.1-5.2
		c3.9,1.1,6.3,5.1,5.2,9.1c-1.3,4.9-2.2,9.9-2.5,15C893.1,758.3,889.8,761.3,886,761.3z"/>
</g>
<g>
	<path class="st12" d="M944.3,845.5c-0.7,0-1.4-0.1-2.1-0.3c-30.8-9.3-54.3-34.6-61.5-66c-0.9-4,1.6-7.9,5.5-8.8
		c4-0.9,7.9,1.6,8.8,5.5c6,26.2,25.7,47.3,51.4,55.1c3.9,1.2,6.1,5.3,4.9,9.2C950.4,843.4,947.5,845.5,944.3,845.5z"/>
</g>
<ellipse transform="matrix(0.7071 -0.7071 0.7071 0.7071 -253.224 907.0256)" class="st8" cx="968.3" cy="759.2" rx="65.6" ry="65.6"/>
<g>
	<path class="st7" d="M1007.4,755.8c-0.9-10.4-5.8-19.9-13.8-26.6s-18.2-10-28.6-9.1l-2.1-24.5c17-1.5,33.5,3.8,46.6,14.7
		c13,11,21,26.4,22.5,43.4L1007.4,755.8z"/>
</g>
<path class="st13" d="M993.9,760.9l-0.4-0.1l1.9-4l-2.5-3.6l0.4-0.2l36.9-16c-1.9-5.4-4.6-10.6-8-15.5s-7.4-9.2-11.8-12.8
	l-27.7,29.2l-0.3,0.3l-2.5-3.6l-4.4,0.4v-0.4l4.6-40c-5.6-1-11.4-1.3-17.4-0.8s-11.6,1.8-17,3.8l11.4,38.6l0.1,0.4l-4.4,0.4l-1.9,4
	l-0.3-0.2l-32.3-24c-3.7,4.3-6.9,9.2-9.4,14.7c-2.5,5.4-4.2,11-5.2,16.6l39.1,9.4l0.4,0.1l-1.9,4l2.5,3.6l-0.4,0.2l-36.9,16
	c1.9,5.4,4.6,10.6,8,15.5s7.4,9.2,11.8,12.8l27.7-29.2l0.3-0.3l2.5,3.6l4.4-0.4v0.4l-4.6,40c5.6,1,11.4,1.3,17.4,0.8
	s11.6-1.8,17-3.8l-11.4-38.6l-0.1-0.4l4.4-0.4l1.9-4l0.3,0.2l32.3,24c3.7-4.3,6.9-9.2,9.4-14.7c2.5-5.4,4.2-11,5.2-16.6L993.9,760.9
	z"/>
<polygon class="st8" points="958.9,779.4 946.1,761 955.6,740.8 977.8,738.9 990.6,757.2 981.1,777.4 "/>
<ellipse class="st14" cx="968.3" cy="759.1" rx="16.5" ry="16.5"/>
<g>
	<path class="st15" d="M962.2,772.6c-0.4,0-0.8-0.1-1.2-0.3c-4.4-2.4-7.2-6.9-7.7-11.9c-0.3-4,0.9-7.9,3.5-11s6.2-5,10.2-5.3
		c5-0.4,9.8,1.6,13,5.5c0.9,1.1,0.7,2.6-0.4,3.5c-1.1,0.9-2.6,0.7-3.5-0.4c-2.1-2.6-5.4-4-8.7-3.7c-2.7,0.2-5.1,1.5-6.9,3.6
		c-1.7,2.1-2.6,4.7-2.3,7.4c0.3,3.4,2.2,6.3,5.2,8c1.2,0.7,1.6,2.2,1,3.3C963.9,772.1,963.1,772.6,962.2,772.6z"/>
</g>
<path class="st16" d="M910.1,770.7c-3.1-36.1,23.6-67.9,59.7-71c16.4-1.4,31.9,3.3,44.2,12.3c-13.2-12.8-31.6-20-51.3-18.3
	c-36.1,3.1-62.8,34.9-59.7,71c1.7,19.7,12,36.6,26.8,47.4C918.8,801.6,911.5,787.1,910.1,770.7z"/>
<g>
	<path class="st17" d="M968.2,828c-16.2,0-31.7-5.6-44.2-16.2c-14.1-11.8-22.7-28.5-24.3-46.8c-3.3-37.8,24.9-71.3,62.7-74.6
		s71.3,24.9,74.6,62.7c1.6,18.3-4.1,36.2-15.9,50.3c-11.8,14.1-28.5,22.7-46.8,24.3C972.2,827.9,970.2,828,968.2,828z M968.4,696.8
		c-1.8,0-3.6,0.1-5.4,0.2c-34.2,3-59.7,33.2-56.7,67.5c1.4,16.6,9.2,31.6,22,42.3c12.7,10.7,28.9,15.8,45.5,14.4
		c16.6-1.4,31.6-9.2,42.3-22c10.7-12.7,15.8-28.9,14.4-45.5l0,0C1027.6,721.3,1000.4,696.8,968.4,696.8z"/>
</g>
<g>
	<path class="st15" d="M968.3,827.2c-0.7,0-1.5,0-2.2,0c-1.4,0-2.4-1.2-2.4-2.5s1.1-2.4,2.5-2.4h0.1c2.5,0.1,5,0,7.5-0.2
		c16.8-1.5,32-9.4,42.9-22.3c10.9-12.9,16-29.3,14.6-46.1c-0.2-1.9-0.4-3.8-0.7-5.6c-0.2-1.3,0.7-2.6,2-2.9c1.3-0.2,2.6,0.7,2.9,2
		c0.4,2,0.6,4,0.8,6.1c1.6,18.1-4,35.8-15.7,49.7s-28.1,22.4-46.2,24C972.2,827.1,970.2,827.2,968.3,827.2z"/>
</g>
<path class="st8" d="M416.8,760.5h-0.1c0-0.5,0-1,0-1.6h0.1c2.7-0.1,4.8-2.4,4.7-5.1c-0.2-4.5-0.7-9.1-1.5-13.5
	c-0.5-2.7-3-4.5-5.7-4h-0.1c-0.1-0.5-0.2-1-0.3-1.5h0.1c2.6-0.8,4.1-3.5,3.4-6.1c-1.3-4.4-2.8-8.7-4.6-12.8c-1.1-2.5-4-3.7-6.5-2.6
	c0,0-0.1,0-0.1,0.1c-0.2-0.5-0.5-0.9-0.7-1.4c0,0,0.1,0,0.1-0.1c2.4-1.3,3.2-4.3,1.9-6.7c-2.2-3.9-4.7-7.8-7.4-11.4
	c-1.6-2.2-4.7-2.6-6.9-1l-0.1,0.1c-0.3-0.4-0.7-0.8-1-1.2l0.1-0.1c2-1.8,2.1-5,0.3-7c-3.1-3.3-6.4-6.5-9.9-9.4
	c-2.1-1.8-5.2-1.5-6.9,0.6c0,0,0,0.1-0.1,0.1c-0.4-0.3-0.9-0.6-1.3-0.9l0.1-0.1c1.5-2.3,0.9-5.3-1.3-6.8c-3.8-2.5-7.7-4.9-11.8-6.9
	c-2.4-1.2-5.4-0.3-6.6,2.2v0.1c-0.5-0.2-1-0.4-1.4-0.6c0,0,0-0.1,0.1-0.1c1-2.5-0.3-5.4-2.9-6.3c-4.2-1.6-8.6-2.9-13-4
	c-2.6-0.6-5.3,1-5.9,3.6v0.1c-0.5-0.1-1-0.2-1.5-0.3v-0.1c0.3-2.7-1.6-5.2-4.3-5.5c-2.3-0.3-4.7-0.5-7-0.7c-2.2-0.1-4.4-0.2-6.6-0.2
	c-2.7,0-4.9,2.2-4.9,4.9v0.1c-0.5,0-1,0.1-1.6,0.1v-0.1c-0.3-2.7-2.7-4.6-5.4-4.4c-4.5,0.5-9,1.2-13.4,2.3c-2.6,0.6-4.3,3.3-3.7,5.9
	v0.1c-0.5,0.1-1,0.3-1.5,0.4v-0.1c-0.9-2.6-3.7-3.9-6.3-3c-4.3,1.5-8.5,3.3-12.5,5.3c-2.4,1.2-3.4,4.2-2.2,6.6l0.1,0.1
	c-0.5,0.3-0.9,0.5-1.4,0.8c0,0,0-0.1-0.1-0.1c-1.5-2.3-4.5-2.9-6.8-1.5c-3.8,2.4-7.5,5.2-11,8.1c-2.1,1.7-2.4,4.8-0.6,6.9l0.1,0.1
	c-0.4,0.4-0.8,0.7-1.2,1.1l-0.1-0.1c-2-1.9-5.1-1.8-7,0.1c-3.1,3.3-6.1,6.8-8.8,10.4c-1.6,2.2-1.2,5.3,1,6.9c0,0,0.1,0,0.1,0.1
	c-0.3,0.4-0.6,0.9-0.9,1.3l-0.1-0.1c-2.3-1.4-5.4-0.6-6.7,1.7c-2.3,3.9-4.4,8-6.2,12.1c-1.1,2.5,0.1,5.4,2.6,6.5h0.1
	c-0.2,0.5-0.3,1-0.5,1.5c0,0-0.1,0-0.1-0.1c-2.6-0.8-5.4,0.6-6.2,3.2c-1.3,4.3-2.4,8.8-3.2,13.2c-0.5,2.7,1.3,5.2,4,5.7h0.1
	c-0.1,0.5-0.2,1-0.2,1.6h-0.1l0,0c-2.7-0.2-5,1.9-5.2,4.6v0.7c-0.3,4.3-0.3,8.7-0.1,12.9c0.1,2.5,2.1,4.5,4.6,4.6c0.2,0,0.4,0,0.6,0
	h0.1c0.1,0.5,0.1,1,0.2,1.6h-0.1c-2.7,0.4-4.5,3-4.1,5.7c0.7,4.5,1.8,8.9,3,13.3c0.6,2,2.4,3.4,4.4,3.5c0.6,0,1.1,0,1.7-0.2h0.1
	c0.2,0.5,0.4,1,0.5,1.5h-0.1c-2.5,1.1-3.7,3.9-2.6,6.4c1.8,4.2,3.8,8.3,6,12.2c0.9,1.5,2.4,2.4,4,2.5c0.9,0.1,1.9-0.1,2.8-0.6
	l0.1-0.1c0.3,0.4,0.6,0.9,0.8,1.3c0,0-0.1,0-0.1,0.1c-2.2,1.6-2.7,4.7-1.1,6.9c2.7,3.7,5.6,7.2,8.7,10.5c0.9,1,2.1,1.5,3.3,1.5
	c1.3,0.1,2.6-0.4,3.7-1.3l0.1-0.1c0.4,0.4,0.7,0.7,1.1,1.1l-0.1,0.1c-1.8,2.1-1.5,5.2,0.5,6.9c3.4,3,7.1,5.7,10.9,8.2
	c0.7,0.5,1.6,0.8,2.4,0.8c1.7,0.1,3.4-0.7,4.4-2.2c0,0,0-0.1,0.1-0.1c0.5,0.3,0.9,0.5,1.4,0.8l-0.1,0.1c-1.2,2.4-0.3,5.4,2.1,6.6
	c4,2.1,8.2,3.9,12.5,5.5c0.5,0.2,0.9,0.3,1.4,0.3c2.1,0.1,4.2-1.1,4.9-3.2v-0.1c0.5,0.2,1,0.3,1.5,0.5v0.1c-0.7,2.6,1,5.3,3.6,6
	c4.4,1.1,8.9,1.9,13.4,2.5c0.1,0,0.2,0,0.3,0c2.6,0.2,4.9-1.7,5.2-4.3V864c0.4,0,0.7,0.1,1.1,0.1c0.2,0,0.3,0,0.5,0v0.1
	c0,2.6,2,4.8,4.6,5c0.1,0,0.2,0,0.3,0c4.5,0.1,9.1-0.2,13.6-0.7c2.7-0.3,4.6-2.7,4.3-5.4V863c0.5-0.1,1-0.2,1.6-0.3v0.1
	c0.5,2.2,2.4,3.7,4.5,3.8c0.5,0,0.9,0,1.4-0.1c4.4-1,8.8-2.3,13.1-3.8c2.6-0.9,3.9-3.7,3-6.3c0,0,0-0.1-0.1-0.1
	c0.5-0.2,1-0.4,1.4-0.6c0,0,0,0.1,0.1,0.1c0.8,1.6,2.4,2.6,4.1,2.8c0.8,0.1,1.7-0.1,2.5-0.5c4.1-2,8-4.2,11.8-6.7
	c2.3-1.5,2.9-4.5,1.4-6.8l-0.1-0.1c0.4-0.3,0.8-0.6,1.3-0.9c0,0,0,0.1,0.1,0.1c0.9,1.1,2.2,1.7,3.5,1.8c1.2,0.1,2.4-0.3,3.4-1.1
	c3.5-2.9,6.9-6,10-9.3c1.9-2,1.8-5.1-0.2-7l-0.1-0.1c0.3-0.4,0.7-0.8,1-1.2l0.1,0.1c0.8,0.6,1.7,0.9,2.7,1c1.6,0.1,3.2-0.6,4.2-1.9
	c2.8-3.6,5.3-7.4,7.6-11.3c1.4-2.3,0.6-5.4-1.8-6.7c0,0-0.1,0-0.1-0.1c0.2-0.5,0.5-0.9,0.7-1.4c0,0,0.1,0,0.1,0.1
	c0.6,0.2,1.1,0.4,1.7,0.4c2,0.1,3.9-1,4.8-2.9c1.8-4.1,3.4-8.4,4.8-12.8c0.8-2.6-0.7-5.3-3.3-6.1h-0.1c0.1-0.5,0.3-1,0.4-1.5h0.1
	c0.2,0,0.4,0.1,0.6,0.1c2.4,0.2,4.7-1.5,5.1-4c0.8-4.4,1.4-9,1.7-13.5V766C421.6,763,419.5,760.6,416.8,760.5z"/>
<ellipse class="st11" cx="311.7" cy="759.1" rx="93.5" ry="93.5"/>
<g>
	<path class="st12" d="M229.3,761.3c-0.2,0-0.3,0-0.5,0c-4.1-0.3-7.2-3.8-6.9-7.8c0.4-6.1,1.4-12.1,3-18c1.1-3.9,5.1-6.3,9.1-5.2
		c3.9,1.1,6.3,5.1,5.2,9.1c-1.3,4.9-2.2,9.9-2.5,15C236.4,758.3,233.2,761.3,229.3,761.3z"/>
</g>
<g>
	<path class="st12" d="M287.6,845.5c-0.7,0-1.4-0.1-2.1-0.3c-30.8-9.3-54.3-34.6-61.5-66c-0.9-4,1.6-7.9,5.5-8.8
		c4-0.9,7.9,1.6,8.8,5.5c6,26.2,25.7,47.3,51.4,55.1c3.9,1.2,6.1,5.3,4.9,9.2C293.7,843.4,290.8,845.5,287.6,845.5z"/>
</g>
<ellipse transform="matrix(0.7071 -0.7071 0.7071 0.7071 -445.4601 442.7227)" class="st8" cx="311.7" cy="759.1" rx="65.6" ry="65.6"/>
<g>
	<path class="st7" d="M350.8,755.8c-0.9-10.4-5.8-19.9-13.8-26.6c-8-6.7-18.2-10-28.6-9.1l-2.1-24.5c17-1.5,33.5,3.8,46.6,14.7
		c13,11,21,26.4,22.5,43.4L350.8,755.8z"/>
</g>
<path class="st13" d="M337.2,760.9l-0.4-0.1l1.9-4l-2.5-3.6l0.4-0.2l36.9-16c-1.9-5.4-4.6-10.6-8-15.5s-7.4-9.2-11.8-12.8L326,737.9
	l-0.3,0.3l-2.5-3.6l-4.4,0.4v-0.4l4.6-40c-5.6-1-11.4-1.3-17.4-0.8s-11.6,1.8-17,3.8l11.4,38.6l0.1,0.4l-4.4,0.4l-1.9,4l-0.3-0.2
	l-32.3-24c-3.7,4.3-6.9,9.2-9.4,14.7c-2.5,5.4-4.2,11-5.2,16.6l39.1,9.4l0.4,0.1l-1.9,4l2.5,3.6l-0.4,0.2l-36.9,16
	c1.9,5.4,4.6,10.6,8,15.5s7.4,9.2,11.8,12.8l27.7-29.2l0.3-0.3l2.5,3.6l4.4-0.4v0.4l-4.6,40c5.6,1,11.4,1.3,17.4,0.8
	s11.6-1.8,17-3.8l-11.4-38.6l-0.1-0.4l4.4-0.4l1.9-4l0.3,0.2l32.3,24c3.7-4.3,6.9-9.2,9.4-14.7c2.5-5.4,4.2-11,5.2-16.6L337.2,760.9
	z"/>
<polygon class="st8" points="302.2,779.4 289.4,761 298.9,740.8 321.2,738.9 334,757.2 324.5,777.4 "/>
<circle class="st14" cx="311.7" cy="759.1" r="16.5"/>
<g>
	<path class="st15" d="M305.6,772.6c-0.4,0-0.8-0.1-1.2-0.3c-4.4-2.4-7.2-6.9-7.7-11.9c-0.7-8.3,5.4-15.6,13.7-16.3
		c5-0.4,9.8,1.6,13,5.5c0.9,1.1,0.7,2.6-0.4,3.5s-2.6,0.7-3.5-0.4c-2.1-2.6-5.4-4-8.7-3.7c-5.6,0.5-9.7,5.4-9.2,10.9
		c0.3,3.4,2.2,6.3,5.2,8c1.2,0.7,1.6,2.2,1,3.3C307.3,772.1,306.5,772.6,305.6,772.6z"/>
</g>
<path class="st16" d="M253.4,770.7c-3.1-36.1,23.6-67.9,59.7-71c16.4-1.4,31.9,3.3,44.2,12.3c-13.2-12.8-31.6-20-51.3-18.3
	c-36.1,3.1-62.8,34.9-59.7,71c1.7,19.7,12,36.6,26.8,47.4C262.2,801.6,254.8,787.1,253.4,770.7z"/>
<g>
	<path class="st17" d="M311.6,828c-16.2,0-31.7-5.6-44.2-16.2c-14.1-11.8-22.7-28.5-24.3-46.8c-3.3-37.8,24.9-71.3,62.7-74.6
		s71.3,24.9,74.6,62.7c1.6,18.3-4.1,36.2-15.9,50.3s-28.5,22.7-46.8,24.3C315.6,827.9,313.6,828,311.6,828z M311.7,696.8
		c-1.8,0-3.6,0.1-5.4,0.2c-34.2,3-59.7,33.2-56.7,67.5c1.4,16.6,9.2,31.6,22,42.3c12.7,10.7,28.9,15.8,45.5,14.4
		c16.6-1.4,31.6-9.2,42.3-22c10.7-12.7,15.8-28.9,14.4-45.5l0,0C371,721.3,343.7,696.8,311.7,696.8z"/>
</g>
<g>
	<path class="st15" d="M311.6,827.2c-0.7,0-1.5,0-2.2,0c-1.4,0-2.4-1.2-2.4-2.5c0-1.4,1.2-2.4,2.5-2.4c2.5,0.1,5,0,7.5-0.2
		c16.8-1.5,32-9.4,42.9-22.3c10.9-12.9,16-29.3,14.6-46.1c-0.2-1.9-0.4-3.8-0.7-5.6c-0.2-1.3,0.7-2.6,2-2.9c1.3-0.2,2.6,0.7,2.9,2
		c0.4,2,0.6,4,0.8,6.1c1.6,18.1-4,35.8-15.7,49.7s-28.1,22.4-46.2,24C315.6,827.1,313.6,827.2,311.6,827.2z"/>
</g>
<polygon class="st9" points="184.3,715.4 458.6,737.3 384.4,604.4 207.3,604.4 "/>
<polygon class="st9" points="809.8,738.9 1097.3,711 1058.5,620.3 884.1,618.1 "/>
<path class="st18" d="M151.5,624.1L151.5,624.1v-58.6l0,0c-10.2,0-18.5,8.3-18.5,18.5v21.7C133.1,615.8,141.3,624.1,151.5,624.1z"/>
<path class="st19" d="M138.1,600.5L138.1,600.5c2.1,0,3.8-1.7,3.8-3.8v-22.6c0-2.1-1.7-3.8-3.8-3.8l0,0c-2.1,0-3.8,1.7-3.8,3.8v22.6
	C134.4,598.8,136,600.5,138.1,600.5z"/>
<rect x="142.8" y="565.4" class="st20" width="8.7" height="58.6"/>
<path class="st1" d="M151.5,629c-2.7,0-4.9-2.2-4.9-4.9v-58.6c0-2.7,2.2-4.9,4.9-4.9s4.9,2.2,4.9,4.9v58.6
	C156.4,626.8,154.2,629,151.5,629z"/>
<path class="st7" d="M1053.4,584c-7.3-18.5-23.9-31.7-43.5-34.7l-207.5-31.9c-6.4-1-12.8-1.5-19.2-1.5h-43.9l-64.6-119.2
	c-1.3-2.4-3.8-3.8-6.5-3.8l0,0c-5.4,0-9,5.7-6.6,10.6L715.3,512H709c-8.6,0-16.8,3.5-22.8,9.7l-21.3,22.1c-6,6.2-14.2,9.7-22.8,9.7
	H151.5v115.9l31.2,35.4l5.9,0.9l19.7-55.5c6.8-19.1,24.8-31.8,45.1-31.8h92.4c16.4,0,31.7,8.4,40.5,22.3l63.9,101.5h364.4L890.7,639
	c9.6-13,24.8-20.6,40.9-20.6h83.4c16.5,0,31.9,8,41.4,21.4l8.2,11.5v-38.6L1053.4,584z"/>
<rect x="720.8" y="650.6" class="st6" width="7.8" height="28.8"/>
<path class="st6" d="M688.6,656.9L688.6,656.9c0,1.6,1.3,2.8,2.8,2.8h19.8c2.5,0,4.5,2,4.5,4.5v1.6c0,2.5-2,4.5-4.5,4.5h-19.8
	c-1.6,0-2.8,1.3-2.8,2.8l0,0c0,1.4,1.1,2.7,2.5,2.8l29.7,3.4v-28.8l-29.7,3.4C689.7,654.2,688.6,655.4,688.6,656.9z"/>
<path class="st6" d="M688.6,653.4L688.6,653.4c0,1.6,1.3,2.8,2.8,2.8h19.8c2.5,0,4.5,2,4.5,4.5v1.6c0,2.5-2,4.5-4.5,4.5h-19.8
	c-1.6,0-2.8,1.3-2.8,2.8l0,0c0,1.4,1.1,2.7,2.5,2.8l29.7,3.4V647l-29.7,3.4C689.7,650.7,688.6,651.9,688.6,653.4z"/>
<rect x="720.8" y="647.1" class="st6" width="7.8" height="28.8"/>
<rect x="725.7" y="647.1" class="st6" width="2.9" height="28.8"/>
<rect x="720.8" y="577.1" class="st6" width="7.8" height="28.8"/>
<path class="st6" d="M688.6,583.3L688.6,583.3c0,1.6,1.3,2.8,2.8,2.8h19.8c2.5,0,4.5,2,4.5,4.5v1.6c0,2.5-2,4.5-4.5,4.5h-19.8
	c-1.6,0-2.8,1.3-2.8,2.8l0,0c0,1.4,1.1,2.7,2.5,2.8l29.7,3.4v-28.8l-29.7,3.4C689.7,580.7,688.6,581.9,688.6,583.3z"/>
<path class="st6" d="M688.6,579.8L688.6,579.8c0,1.6,1.3,2.8,2.8,2.8h19.8c2.5,0,4.5,2,4.5,4.5v1.6c0,2.5-2,4.5-4.5,4.5h-19.8
	c-1.6,0-2.8,1.3-2.8,2.8l0,0c0,1.4,1.1,2.7,2.5,2.8l29.7,3.4v-28.8l-29.7,3.4C689.7,577.2,688.6,578.4,688.6,579.8z"/>
<rect x="720.8" y="573.6" class="st6" width="7.8" height="28.8"/>
<rect x="725.7" y="573.6" class="st6" width="2.9" height="28.8"/>
<polygon class="st6" points="404,606.9 521.6,733.5 456.6,733.5 "/>
<path class="st6" d="M1044.2,568.6c-8.6-10.3-20.7-17.3-34.4-19.4l-207.5-31.9c-6.4-1-12.8-1.5-19.2-1.5h-43.9l12.6,29.3
	L1044.2,568.6z"/>
<polygon class="st6" points="151.5,553.6 178.6,670.8 151.5,670.8 "/>
<ellipse class="st6" cx="698.9" cy="551.2" rx="16.4" ry="16.4"/>
<path class="st6" d="M709.4,538.5c2.4,2.8,3.8,6.5,3.8,10.5c0,9.1-7.3,16.4-16.4,16.4c-4,0-7.7-1.4-10.5-3.8c3,3.6,7.5,5.9,12.6,5.9
	c9.1,0,16.4-7.3,16.4-16.4C715.3,546,713,541.5,709.4,538.5z"/>
<path class="st6" d="M673.1,549.1l19-19.7c6.8-7,14.6-12.9,23.3-17.4H709c-8.6,0-16.8,3.5-22.8,9.7l-21.3,22.1
	c-6,6.2-14.2,9.7-22.8,9.7H151.5v6.7h495.3C656.7,560.3,666.2,556.3,673.1,549.1z"/>
<ellipse class="st15" cx="519.1" cy="592.5" rx="17.8" ry="17.8"/>
<path class="st6" d="M501.3,592.5c0,3.3,0.9,6.4,2.5,9.1h30.7c1.6-2.7,2.5-5.7,2.5-9.1c0-1-0.1-2.1-0.3-3h-35.1
	C501.4,590.4,501.3,591.4,501.3,592.5z"/>
<path class="st15" d="M542.6,598.5h-51.9c-3.3,0-6-2.7-6-6l0,0c0-3.3,2.7-6,6-6h51.9c3.3,0,6,2.7,6,6l0,0
	C548.6,595.8,545.9,598.5,542.6,598.5z"/>
<path class="st7" d="M485,594.2c0.8,2.5,3,4.3,5.8,4.3h51.9c2.7,0,5-1.8,5.8-4.3H485z"/>
<rect x="890" y="416.6" transform="matrix(4.479588e-02 -0.999 0.999 4.479588e-02 274.769 1443.9574)" class="st6" width="4.9" height="323.4"/>
<path class="st6" d="M790.1,516.4L790.1,516.4c-1.2,0.5-1.5,2-0.6,2.9c8.7,7.9,13.7,19.1,13.7,30.9V574h4.9v-23.8
	c0-12.5-4.9-24.2-13.6-32.9C793.4,516.2,791.6,515.8,790.1,516.4z"/>
<path class="st6" d="M724.6,524.6l-5.2-10.2c-0.8-1.5-2.3-2.5-4-2.5l0,0l0,0c-1.1,1-1.4,2.7-0.7,4l5.6,10.9
	c5.4,10.6,8.3,22.4,8.3,34.4v111.3c0,20.5-16.6,37.1-37.1,37.1H540.1c-15.6,0-30.1-8.3-38-21.7L479,649c-4.8-8.2-7.4-17.5-7.4-27
	v-68.5h-4.9V622c0,10.4,2.8,20.6,8.1,29.5l23,38.9c8.8,14.9,24.9,24.1,42.3,24.1h151.3c23.2,0,42-18.8,42-42V561.3
	C733.4,548.5,730.3,536,724.6,524.6z"/>
<path class="st1" d="M1092.5,654.2c2.1-3.2,2.4-7.3,0.8-10.8l-5.8-12.8c-4-8.8-9.4-16.7-16.2-23.6c-14.5-14.7-33.4-23.1-53.1-23.8
	c-1,0-2-0.1-3-0.1h-83.4c-27.2,0-53.1,13.1-69.3,35l-83,112.4H484.3L416,621.9c-15.3-24.3-41.6-38.8-70.3-38.8h-92.4
	c-35.1,0-66.6,22.2-78.3,55.3L164.9,667h-35.1c-9.6,0-17.4,7.8-17.4,17.4v23.9c0,16.3,13.2,29.5,29.5,29.5h35.9
	c9.6,0,17.4-7.8,17.4-17.4v-26.3l15.3-43.2c0.4-1.1,0.8-2.2,1.3-3.3c4.8-10.7,13.4-19.1,24.3-23.5c1.1-0.4,2.2-0.8,3.3-1.2
	c2.2-0.7,4.5-1.3,6.8-1.6c2.3-0.4,4.7-0.6,7.1-0.6h92.4c1.9,0,3.9,0.1,5.8,0.4c8.5,1.1,16.5,4.6,23.2,10.1c3.7,3.1,6.9,6.7,9.4,10.8
	l57.1,90.7c-2.5,2-4,5-4,8.3c0,5.9,4.8,10.7,10.7,10.7h368.6c5.9,0,10.7-4.8,10.7-10.7c0-2.9-1.2-5.6-3.1-7.5l68.8-93.1
	c9.1-12.3,23.6-19.6,38.9-19.6h83.4c15.6,0,30.4,7.6,39.4,20.3l7.8,10.9c0.4,4.1,3.9,7.3,8.1,7.3h12.6
	C1086.8,659.3,1090.4,657.4,1092.5,654.2z"/>
<g>
	<path class="st21" d="M193.6,623.4c-0.7,0-1.4-0.2-2-0.7c-1.4-1.1-1.7-3.2-0.6-4.6c1.3-1.7,2.6-3.3,4-4.9c1.2-1.4,3.3-1.5,4.6-0.3
		c1.4,1.2,1.5,3.3,0.3,4.6c-1.3,1.4-2.5,2.9-3.7,4.5C195.6,623,194.6,623.4,193.6,623.4z"/>
</g>
<g>
	<path class="st21" d="M209.7,607.7c-1,0-2-0.5-2.6-1.3c-1.1-1.5-0.8-3.5,0.7-4.6c14.3-10.5,31.2-16,48.9-16h46.6
		c1.8,0,3.3,1.5,3.3,3.3s-1.5,3.3-3.3,3.3h-46.6c-16.3,0-31.8,5.1-45,14.7C211.1,607.5,210.4,607.7,209.7,607.7z"/>
</g>
<g>
	<path class="st21" d="M337.9,592.3h-10.7c-1.8,0-3.3-1.5-3.3-3.3s1.5-3.3,3.3-3.3h10.7c1.8,0,3.3,1.5,3.3,3.3
		S339.8,592.3,337.9,592.3z"/>
</g>
<g>
	<path class="st21" d="M846.8,658c-0.7,0-1.4-0.2-1.9-0.6c-1.5-1.1-1.8-3.1-0.7-4.6l2.2-3c1.1-1.5,3.1-1.8,4.6-0.7s1.8,3.1,0.7,4.6
		l-2.2,3C848.8,657.6,847.8,658,846.8,658z"/>
</g>
<g>
	<path class="st21" d="M857.5,643.5c-0.7,0-1.4-0.2-1.9-0.6c-1.5-1.1-1.8-3.1-0.7-4.6l13.2-17.8c15.7-21.3,40.9-34,67.4-34h12.9
		c1.8,0,3.3,1.5,3.3,3.3s-1.5,3.3-3.3,3.3h-12.9c-24.4,0-47.7,11.7-62.2,31.4l-13.2,17.8C859.5,643.1,858.5,643.5,857.5,643.5z"/>
</g>
<g>
	<path class="st21" d="M984.8,593H971c-1.8,0-3.3-1.5-3.3-3.3s1.5-3.3,3.3-3.3h13.8c1.8,0,3.3,1.5,3.3,3.3S986.6,593,984.8,593z"/>
</g>
<path d="M177.9,727.1H142c-16.3,0-29.5-13.2-29.5-29.5v10.7c0,16.3,13.2,29.5,29.5,29.5h35.9c9.6,0,17.4-7.8,17.4-17.4v-10.7
	C195.3,719.4,187.5,727.1,177.9,727.1z"/>
<path class="st4" d="M1093.3,643.4l-5.8-12.8c-4-8.8-9.4-16.7-16.2-23.6c-14.5-14.7-33.4-23.1-53.1-23.8c-1,0-2-0.1-3-0.1h-11.6
	c1,0,2,0,3,0.1c19.8,0.7,38.6,9.2,53.1,23.8c6.8,6.9,12.3,14.8,16.2,23.6l5.8,12.8c1.6,3.5,1.3,7.5-0.8,10.8
	c-2.1,3.2-5.6,5.2-9.5,5.2h11.6c3.9,0,7.4-1.9,9.5-5.2S1094.9,646.9,1093.3,643.4z"/>
<path class="st9" d="M361.9,584.6c21.6,6.8,41.4,31.2,41.4,31.2L472,722.5l-12.4,7.9h24.7L416,621.9
	C403.7,602.2,384.1,589,361.9,584.6z"/>
<path class="st9" d="M164.9,667h8.8c12.1,0,21.8,9.9,21.7,21.9l-0.1,5.2l11.4-32L164.9,667z"/>
<polygon class="st9" points="824,733.5 798.8,731.3 825.7,731.3 "/>
<path class="st1" d="M693.3,509.8L693.3,509.8c3.6,0,6.6,2.9,6.6,6.6v38.5c0,3.6-2.9,6.6-6.6,6.6l0,0c-3.6,0-6.6-2.9-6.6-6.6v-38.5
	C686.8,512.8,689.7,509.8,693.3,509.8z"/>
<path class="st6" d="M674.6,396.7c-1.3-2.4-3.8-3.8-6.5-3.8c-5.4,0-9,5.7-6.6,10.6l11,22.1l19.7,3.7L674.6,396.7z"/>
<path class="st22" d="M693.3,509.8c-3.6,0-6.6,2.9-6.6,6.6v24.8h3c3.8,0,7.3-1.3,10.1-3.4v-21.4
	C699.9,512.8,696.9,509.8,693.3,509.8z"/>
<path class="st1" d="M681.8,488.2h-15.1c-3.5,0-6.3,2.8-6.3,6.3v36.7c0,3.5,2.8,6.3,6.3,6.3h15.1c13.6,0,24.6-11,24.6-24.6l0,0
	C706.4,499.2,695.4,488.2,681.8,488.2z"/>
<path class="st23" d="M689.8,488.2h-10.5c9.2,0,16.7,7.5,16.7,16.7v15.9c0,9.2-7.5,16.7-16.7,16.7h10.5c9.2,0,16.7-7.5,16.7-16.7
	v-15.9C706.4,495.7,699,488.2,689.8,488.2z"/>
<path class="st24" d="M680.4,451.4L680.4,451.4c-1.2,0.6-2.7,0.1-3.3-1.2l-17.2-35.6c-0.6-1.2-0.1-2.7,1.2-3.3l0,0
	c1.2-0.6,2.7-0.1,3.3,1.2l17.2,35.6C682.1,449.3,681.6,450.8,680.4,451.4z"/>
<path class="st3" d="M661.2,415.3c-1-0.5-1.4-1.7-0.9-2.7s1.7-1.4,2.7-0.9s1.4,1.7,0.9,2.7S662.2,415.8,661.2,415.3z"/>
<path class="st1" d="M1117.9,664.3h-35.5c-3.5,0-6.6,1.6-8.7,4.3s-2.8,6.2-1.8,9.6l10.9,39.2c1.3,4.7,5.6,8,10.5,8h19.5
	c2.9,0,5.7-1.1,7.7-3.2l5.1-5.1c2.1-2.1,3.2-4.8,3.2-7.7v-34.1C1128.9,669.2,1123.9,664.3,1117.9,664.3z"/>
<path class="st4" d="M1119.4,664.4c0.2,0.8,0.3,1.7,0.3,2.6v34.1c0,2.9-1.1,5.7-3.2,7.7l-5.1,5.1c-2.1,2.1-4.8,3.2-7.7,3.2h-19.5
	c-0.5,0-1-0.1-1.5-0.1l0.1,0.3c1.3,4.7,5.6,8,10.5,8h19.5c2.9,0,5.7-1.1,7.7-3.2l5.1-5.1c2.1-2.1,3.2-4.8,3.2-7.7v-34.1
	C1128.9,669.7,1124.7,665.1,1119.4,664.4z"/>
<path class="st9" d="M437.3,742.7c0.8,5.1,5.2,9.1,10.5,9.1h368.6c5.3,0,9.7-3.9,10.5-9.1H437.3z"/>
<path class="st7" d="M395.5,563.6h-25c-1.8,0-3.3-1.5-3.3-3.3s1.5-3.3,3.3-3.3h25c1.8,0,3.3,1.5,3.3,3.3S397.3,563.6,395.5,563.6z"
	/>
<path class="st7" d="M341,563.6h-66c-1.8,0-3.3-1.5-3.3-3.3s1.5-3.3,3.3-3.3h66c1.8,0,3.3,1.5,3.3,3.3
	C344.2,562.1,342.8,563.6,341,563.6z"/>
<path class="st15" d="M526.4,592.5h-33.5c-1.4,0-2.5-1.1-2.5-2.5s1.1-2.5,2.5-2.5h33.5c1.4,0,2.5,1.1,2.5,2.5
	S527.8,592.5,526.4,592.5z"/>
<path class="st7" d="M206.8,515.3c-0.2,0-0.4,0-0.6-0.1c-1.3-0.3-2.1-1.7-1.8-3l14.2-57.7c0.3-1.3,1.7-2.1,3-1.8
	c1.3,0.3,2.1,1.7,1.8,3l-14.2,57.7C208.9,514.6,207.9,515.3,206.8,515.3z"/>
<path class="st7" d="M202.3,533.5c-0.2,0-0.4,0-0.6-0.1c-1.3-0.3-2.1-1.7-1.8-3l1.3-5.2c0.3-1.3,1.7-2.1,3-1.8s2.1,1.7,1.8,3
	l-1.3,5.2C204.4,532.7,203.4,533.5,202.3,533.5z"/>
<path class="st6" d="M447.6,546.2c-1.4,0-2.5-1.1-2.5-2.5V512c0-1.4,1.1-2.5,2.5-2.5s2.5,1.1,2.5,2.5v31.7
	C450,545.1,448.9,546.2,447.6,546.2z"/>
<path class="st21" d="M738.7,739.4h-44.1c-1.8,0-3.3-1.5-3.3-3.3s1.5-3.3,3.3-3.3h44.1c1.8,0,3.3,1.5,3.3,3.3
	S740.5,739.4,738.7,739.4z"/>
<path class="st21" d="M762.6,739.4h-8.3c-1.8,0-3.3-1.5-3.3-3.3s1.5-3.3,3.3-3.3h8.3c1.8,0,3.3,1.5,3.3,3.3S764.4,739.4,762.6,739.4
	z"/>
</svg>
