<svg id="Layer_1" data-name="Layer 1" xmlns="http://www.w3.org/2000/svg" xmlns:xlink="http://www.w3.org/1999/xlink" viewBox="0 0 1129.55 638.74"><defs><linearGradient id="linear-gradient" x1="-1470.02" y1="421.36" x2="-1470.02" y2="434.3" gradientTransform="matrix(0.08, -1.25, 1.17, 0.08, 732.65, -1235.7)" gradientUnits="userSpaceOnUse"><stop offset="0" stop-color="#fff"/><stop offset="1"/></linearGradient><linearGradient id="linear-gradient-2" x1="256.59" y1="890.63" x2="256.59" y2="908.63" gradientTransform="translate(1540.03 1113.87) rotate(163.74)" xlink:href="#linear-gradient"/><radialGradient id="radial-gradient" cx="-148.81" cy="97.05" r="6.89" gradientTransform="translate(944.81 775.67) rotate(-166.66)" xlink:href="#linear-gradient"/><radialGradient id="radial-gradient-2" cx="36.6" cy="692.08" r="8.4" gradientTransform="translate(1166.86 986.75) rotate(180)" xlink:href="#linear-gradient"/><radialGradient id="radial-gradient-3" cx="74.77" cy="619.16" r="8.41" gradientTransform="translate(1131.63 706.12) rotate(180)" xlink:href="#linear-gradient"/><radialGradient id="radial-gradient-4" cx="419.03" cy="583.58" r="8.41" gradientTransform="translate(1166.86 986.75) rotate(180)" xlink:href="#linear-gradient"/><radialGradient id="radial-gradient-5" cx="-1223.61" cy="84.36" r="11.21" gradientTransform="translate(881.25 -811.67) rotate(-91.72)" xlink:href="#linear-gradient"/><radialGradient id="radial-gradient-6" cx="2129.27" cy="2826.23" r="9.55" gradientTransform="matrix(0.77, 0.63, -0.63, 0.77, 1248.32, -2814.34)" xlink:href="#linear-gradient"/><linearGradient id="linear-gradient-3" x1="492.45" y1="2302.71" x2="492.45" y2="2317.55" gradientTransform="translate(2590.24 14.97) rotate(90)" xlink:href="#linear-gradient"/><radialGradient id="radial-gradient-7" cx="3870.3" cy="148.68" r="53.4" gradientTransform="translate(3993.73 986.75) rotate(180)" gradientUnits="userSpaceOnUse"><stop offset="0" stop-color="#231f20"/><stop offset="0.41" stop-color="#252122"/><stop offset="0.56" stop-color="#2b2729"/><stop offset="0.67" stop-color="#353334"/><stop offset="0.74" stop-color="#414042"/><stop offset="0.77" stop-color="#4d4d4f"/><stop offset="0.8" stop-color="#555658"/><stop offset="0.85" stop-color="#58595b"/><stop offset="0.92" stop-color="#414042"/></radialGradient></defs><title>Excavator</title><path d="M1119.53,547.37l7.1.5a2.29,2.29,0,0,1,2.21,2.37s0,.09,0,.13l-11.3,172.4a2.3,2.3,0,0,1-2.37,2.21H1115l-7.1-.5a2.3,2.3,0,0,1-2.21-2.37.57.57,0,0,1,0-.13l11.3-172.4a2.34,2.34,0,0,1,2.49-2.2Z" transform="translate(-35.23 -280.63)" style="fill:url(#linear-gradient)"/><path d="M1134.33,342.27l4.4.3a5.82,5.82,0,0,1,5.4,6.2l-15,228.7a5.82,5.82,0,0,1-6.2,5.4l-4.4-.3a5.82,5.82,0,0,1-5.4-6.2l15-228.7A5.82,5.82,0,0,1,1134.33,342.27Z" transform="translate(-35.23 -280.63)" style="fill:#1a1b20"/><path d="M1115.53,551.67l14.5,1a3.59,3.59,0,0,1,3.4,3.77v0l-1.1,16.1a3.59,3.59,0,0,1-3.77,3.4h0l-14.5-1a3.59,3.59,0,0,1-3.4-3.77v0l1.1-16.1a3.59,3.59,0,0,1,3.77-3.4Z" transform="translate(-35.23 -280.63)" style="fill:#1a1b20"/><path d="M947.43,349.87l-2.4-8.3a2.79,2.79,0,0,1,1.9-3.4l183.7-53.2a2.79,2.79,0,0,1,3.4,1.9l2.4,8.3a2.79,2.79,0,0,1-1.9,3.4l-183.8,53.2a2.65,2.65,0,0,1-3.28-1.82S947.44,349.9,947.43,349.87Z" transform="translate(-35.23 -280.63)" style="fill:url(#linear-gradient-2)"/><path d="M728.93,414.77l-3.2-11.2a3.64,3.64,0,0,1,2.4-4.57l.1,0,249.1-72.1a3.65,3.65,0,0,1,4.57,2.4l0,.1,3.2,11.2a3.66,3.66,0,0,1-2.4,4.57l-.1,0-249.1,72.1A3.81,3.81,0,0,1,728.93,414.77Z" transform="translate(-35.23 -280.63)" style="fill:#1a1b20"/><path d="M953.53,352.87l-4.9-16.9a4.1,4.1,0,0,1,2.77-5.09h0l16.9-4.9a4.1,4.1,0,0,1,5.09,2.77v0l4.9,16.9a4.1,4.1,0,0,1-2.77,5.09h0l-16.9,4.9A4.17,4.17,0,0,1,953.53,352.87Z" transform="translate(-35.23 -280.63)" style="fill:#1a1b20"/><path d="M1051.33,366.77l19.3-43.5a22.14,22.14,0,0,1,3.6-5.6l11.4-12.8a19.79,19.79,0,0,1,4.7-4l27.4-17.1a20.11,20.11,0,0,1,9.6-3.1,20.52,20.52,0,0,1,20.5,13.4l15.5,40.9a21.57,21.57,0,0,1,.4,14.4l-120.8,378.2a21.31,21.31,0,0,1-19.3,15,20,20,0,0,1-5.4-.5,20.5,20.5,0,0,1-12.4-8.6,22,22,0,0,1-3.4-15l47.3-345.8A24.09,24.09,0,0,1,1051.33,366.77Z" transform="translate(-35.23 -280.63)" style="fill:#88a84c"/><path d="M1062.53,363.37l19.6-44.2a24,24,0,0,1,3.7-5.7l11.5-13a20.7,20.7,0,0,1,4.8-4.1l25.2-15.7a20.52,20.52,0,0,1,20.5,13.4l15.5,40.9a21.57,21.57,0,0,1,.4,14.4l-120.9,378.2a21.31,21.31,0,0,1-19.3,15,21.08,21.08,0,0,1-7.4-6.8,22,22,0,0,1-3.4-15.2l48.1-351.1A25.25,25.25,0,0,1,1062.53,363.37Z" transform="translate(-35.23 -280.63)" style="fill:#a7cb64"/><path d="M1114.83,374.77l-4.2,10.3-58.7,25.9s-208.6,42.4-288.8,62.3-123.7,62.1-123.7,62.1l-78,86.2-68.7,99.5-44.5-25.5s48.5-93.6,129.1-204.5,203.3-101.9,203.3-101.9l230.7-21.1,34.3-15.6,62.5,10.3a8.7,8.7,0,0,1,6.7,12Z" transform="translate(-35.23 -280.63)" style="fill:#88a84c"/><path d="M1114.53,366.27l-4.2,10.3-58.7,25.9s-208.6,42.4-288.8,62.3-123.7,62.1-123.7,62.1l-78,86.2-68.7,99.5-44.5-25.5s48.5-93.6,129.1-204.5,203.3-101.9,203.3-101.9l230.7-21.1,34.3-15.6,62.5,10.3a8.7,8.7,0,0,1,6.7,12Z" transform="translate(-35.23 -280.63)" style="fill:#a7cb64"/><path d="M1115.23,712.07a6.89,6.89,0,1,1-8.3,5.1h0a6.89,6.89,0,0,1,8.28-5.11Z" transform="translate(-35.23 -280.63)" style="fill:url(#radial-gradient)"/><path d="M1130.33,286.27a8.4,8.4,0,1,1-8.4,8.4A8.4,8.4,0,0,1,1130.33,286.27Z" transform="translate(-35.23 -280.63)" style="fill:url(#radial-gradient-2)"/><circle cx="1056.9" cy="86.94" r="8.4" style="fill:url(#radial-gradient-3)"/><path d="M747.83,394.77a8.4,8.4,0,1,1-8.4,8.4A8.4,8.4,0,0,1,747.83,394.77Z" transform="translate(-35.23 -280.63)" style="fill:url(#radial-gradient-4)"/><path d="M1028.43,709.87l-7.1-7.1a3.23,3.23,0,0,1-.7-1.3l-1.2-4.2a4.28,4.28,0,0,1-.2-1.7l.3-10.1a9.3,9.3,0,0,1,.8-3.6c1.2-3.2,3.7-6.3,6.3-7.6l11.9-5.8a3.44,3.44,0,0,1,3.4-.1l88.8,44.6c1.6,1.1,1.7,4,.4,7.2a19.63,19.63,0,0,1-1,2,16.41,16.41,0,0,1-3.9,4.6,4.84,4.84,0,0,1-4,1.3l-92.9-17.3A1,1,0,0,1,1028.43,709.87Z" transform="translate(-35.23 -280.63)" style="fill:#a7cb64"/><path d="M1029.43,706l-7.2-7.2a3.17,3.17,0,0,1-.8-1.4l-1.2-4.3a5,5,0,0,1-.2-1.8l.3-9.4c1.2-3.2,3.7-6.3,6.3-7.6l11.9-5.8a3.44,3.44,0,0,1,3.4-.1l88.8,44.6c1.6,1.1,1.7,4,.4,7.2a10.58,10.58,0,0,1-2.7,2.8c-1.5,1.1-2.9,1.6-4.1,1.3l-94-17.6C1029.83,706.57,1029.53,706.37,1029.43,706Z" transform="translate(-35.23 -280.63)" style="fill:#a7cb64"/><circle cx="1000.6" cy="406.44" r="11.2" style="fill:url(#radial-gradient-5)"/><path d="M1089.53,708.47l6.9-5.9a5.12,5.12,0,0,1,1.3-.6l3.9-1.1a7.78,7.78,0,0,1,1.6-.2h9.1a12,12,0,0,1,3.2.5c2.8.9,5.5,2.8,6.4,4.9l4.3,9.5a2.54,2.54,0,0,1-.1,2.8l-47,77.1c-1.1,1.3-3.7,1.5-6.5.6-.5-.2-1.1-.4-1.7-.7a10.34,10.34,0,0,1-3.9-3,3.5,3.5,0,0,1-.9-3.2l22.8-79.5Q1089.2,709.06,1089.53,708.47Z" transform="translate(-35.23 -280.63)" style="fill:#a7cb64"/><path d="M1093.33,709.17l7-6a5.44,5.44,0,0,1,1.3-.7l3.9-1.1a7.78,7.78,0,0,1,1.6-.2h8.4c2.8.9,5.5,2.8,6.4,4.9l4.3,9.5a2.54,2.54,0,0,1-.1,2.8l-46.9,77.1c-1.1,1.3-3.7,1.5-6.5.6a9.4,9.4,0,0,1-2.3-2.1,3.7,3.7,0,0,1-.9-3.3l23.1-80.4A3.62,3.62,0,0,1,1093.33,709.17Z" transform="translate(-35.23 -280.63)" style="fill:#a7cb64"/><path d="M1100.83,723.37a9.52,9.52,0,1,1,13.4-1.3h0a9.52,9.52,0,0,1-13.39,1.31Z" transform="translate(-35.23 -280.63)" style="fill:url(#radial-gradient-6)"/><path d="M1055.13,916.07l-114.7-20-9.6-1.7-19.1-3.3.8-4.4,24.6-1.9,122.6-115.3-19.9-15.3,2.7-3.5,24.1,11.9,3.9,1.8,16.8,8.9,8,3.6a19.84,19.84,0,0,1,14.5,22.6l-1.9,10.7S1155.43,896.37,1055.13,916.07Z" transform="translate(-35.23 -280.63)" style="fill:#88a84c"/><path d="M1062.33,919.37l-114.7-20-9.6-1.7-19.1-3.3.8-4.4,24.6-1.9,122.6-115.3-19.9-15.3,2.7-3.5,24.1,11.9,3.9,1.8,16.8,8.9,8,3.6a19.84,19.84,0,0,1,14.5,22.6l-1.9,10.7S1162.63,899.67,1062.33,919.37Z" transform="translate(-35.23 -280.63)" style="fill:#a7cb64"/><path d="M1062.33,919.37l-143.6-24.8.8-4.4,24.6-1.9,27.2-25.6a72.26,72.26,0,0,0,5.2,8.6c10.9,15.4,30.8,29.1,49.8,31.5,19.8,2.5,41.2-.4,57.5-12.9,16.7-12.9,26.7-29.1,31.5-49.8a148.26,148.26,0,0,0,3.2-19.3C1127.33,842,1144.83,903.17,1062.33,919.37Z" transform="translate(-35.23 -280.63)" style="fill:#88a84c"/><path d="M282,529h-9.3a1.22,1.22,0,0,1-1.2-1.2v-40.7a1.22,1.22,0,0,1,1.2-1.2H282a1.22,1.22,0,0,1,1.2,1.2v40.7A1.38,1.38,0,0,1,282,529Z" transform="translate(-35.23 -280.63)" style="fill:url(#linear-gradient-3)"/><path d="M283.73,578.77h-12.6a1.58,1.58,0,0,1-1.6-1.56V522a1.58,1.58,0,0,1,1.56-1.6h12.54a1.58,1.58,0,0,1,1.6,1.56v55.24A1.57,1.57,0,0,1,283.73,578.77Z" transform="translate(-35.23 -280.63)" style="fill:#1a1b20"/><path d="M285.23,527.77h-15.6a2.8,2.8,0,0,1-2.8-2.8h0a2.8,2.8,0,0,1,2.8-2.8h15.6A2.8,2.8,0,0,1,288,525h0A2.86,2.86,0,0,1,285.23,527.77Z" transform="translate(-35.23 -280.63)" style="fill:#1a1b20"/><path d="M262.63,541.57h-9a18.43,18.43,0,0,0-18.4,18.2l-.1,4.2h139.2l.7-8.8a104.38,104.38,0,0,0,0-13.7H309l-.2.9h-3.1l-.2-.9h-15v2.7h-4.4v-2.7h-19.2l-.2.9h-3.9l-.2-.8Z" transform="translate(-35.23 -280.63)" style="fill:#070608"/><rect x="304.5" y="455.84" width="197.8" height="15.3" style="fill:#231f20"/><rect x="304.5" y="468.94" width="216.4" height="15.3" style="fill:#414042"/><path d="M116.43,902.17h48.9v16.2h-48.9Zm65.1,0h48.6v16.2h-48.6Zm64.8,0h48.6v16.2h-48.6Zm64.7,0h48.6v16.2H311Zm64.8,0h48.6v16.2h-48.6Zm64.8,0h48.6v16.2h-48.6Zm64.8,0H554v16.2h-48.6Zm64.8,0h48.6v16.2h-48.6Zm64.8,0h48.6v16.2H635Zm64.7,0h28.5a65,65,0,0,0,17.6-2.4l4.4,15.6a81.36,81.36,0,0,1-22,3h-28.5Zm-646.2-13.8,12.6-10.3a66,66,0,0,0,36,22.4l-3.6,15.8A82.74,82.74,0,0,1,53.53,888.37Zm705.7,5.9a66.3,66.3,0,0,0,28.9-31.2l14.8,6.6a82.91,82.91,0,0,1-36,38.9Zm-724-57.5a85.11,85.11,0,0,1,1.6-16l15.9,3.2a61.17,61.17,0,0,0-1.3,12.8,64.36,64.36,0,0,0,6.9,29.2l-14.5,7.3a78.34,78.34,0,0,1-8.6-36.5Zm757.2,12.6a67.7,67.7,0,0,0,1.2-12.7,64.84,64.84,0,0,0-7-29.3l14.5-7.3a79.4,79.4,0,0,1,8.8,36.7,83.92,83.92,0,0,1-1.6,15.8Zm-750.2-45.7a82.17,82.17,0,0,1,36-38.8l7.7,14.3A66.51,66.51,0,0,0,57,810.27ZM742.73,773l3.6-15.8a82.34,82.34,0,0,1,45,27.9l-12.5,10.3A66.56,66.56,0,0,0,742.73,773Zm-647.8-14.8a79.92,79.92,0,0,1,21.8-3h28.7v16.2h-28.7a64.26,64.26,0,0,0-17.5,2.4Zm66.6,13.2v-16.2h48.6v16.2Zm64.8-16.2h48.6v16.2h-48.6Zm64.8,0h48.6v16.2h-48.6Zm64.8,0h48.6v16.2h-48.6Zm64.8,0h48.6v16.2h-48.6Zm64.8,0h48.6v16.2h-48.6v-16.2Zm64.8,0h48.6v16.2h-48.6Zm64.8,0h48.6v16.2h-48.6Zm64.6,16.2v-16.2h48.6l-.1,16.2Z" transform="translate(-35.23 -280.63)" style="fill:#414042"/><path d="M43.23,869.37v-65.1a41,41,0,0,1,40.9-40.9h676.7a41,41,0,0,1,40.9,40.9v65.1a41,41,0,0,1-40.9,40.9H84.23A41.11,41.11,0,0,1,43.23,869.37Z" transform="translate(-35.23 -280.63)" style="fill:#231f20"/><path d="M116.73,885.87a49.1,49.1,0,1,1,0-98.2h611.6a49.1,49.1,0,0,1,0,98.2Z" transform="translate(-35.23 -280.63)" style="fill:#414042"/><path d="M123.33,775.77a62.3,62.3,0,1,0,62.3,62.3h0A62.31,62.31,0,0,0,123.33,775.77Z" transform="translate(-35.23 -280.63)" style="fill:#3d3b3d"/><path d="M123.33,775.77a62.3,62.3,0,1,0,62.3,62.3h0A62.31,62.31,0,0,0,123.33,775.77Z" transform="translate(-35.23 -280.63)"/><path d="M123.43,784.67a53.4,53.4,0,1,0,53.4,53.4,53.4,53.4,0,0,0-53.4-53.4Z" transform="translate(-35.23 -280.63)" style="fill:url(#radial-gradient-7)"/><path d="M123.33,792.27a45.84,45.84,0,1,0,.12,0Z" transform="translate(-35.23 -280.63)" style="fill:#231f20"/><path d="M123.33,792.27a45.84,45.84,0,1,0,.12,0Z" transform="translate(-35.23 -280.63)" style="fill:#3b3a3a"/><path d="M123.33,805.67a32.4,32.4,0,1,0,32.4,32.4,32.39,32.39,0,0,0-32.4-32.4Z" transform="translate(-35.23 -280.63)" style="fill:#414042;stroke:#3d3b3d;stroke-miterlimit:10;stroke-width:0.34220001101493835px"/><path d="M123.33,816a22.5,22.5,0,1,0,22.5,22.5h0A22.53,22.53,0,0,0,123.33,816Z" transform="translate(-35.23 -280.63)" style="fill:#231f20"/><path d="M136.13,832.27l14.7-7.2a31.06,31.06,0,0,0-8.5-10.6l-10.1,12.8A12,12,0,0,1,136.13,832.27Z" transform="translate(-35.23 -280.63)" style="fill:#231f20"/><path d="M132.33,849.67a13.91,13.91,0,0,1-5.7,2.8l3.6,15.9a29.84,29.84,0,0,0,12.3-5.9Z" transform="translate(-35.23 -280.63)" style="fill:#231f20"/><path d="M114.43,827.17l-10.2-12.7a31.51,31.51,0,0,0-8.5,10.7l14.7,7.1A17.7,17.7,0,0,1,114.43,827.17Z" transform="translate(-35.23 -280.63)" style="fill:#231f20"/><path d="M136.33,844.67l14.7,7.1a30.75,30.75,0,0,0,3-13.3v-.1l-16.3.1h0A14.48,14.48,0,0,1,136.33,844.67Z" transform="translate(-35.23 -280.63)" style="fill:#231f20"/><path d="M92.63,838.57a31.93,31.93,0,0,0,3.1,13.3l14.7-7.1a14.48,14.48,0,0,1-1.4-6.2Z" transform="translate(-35.23 -280.63)" style="fill:#231f20"/><path d="M120.13,824.57a13.84,13.84,0,0,1,6.4,0l3.6-15.9a31.2,31.2,0,0,0-13.6,0Z" transform="translate(-35.23 -280.63)" style="fill:#231f20"/><path d="M114.53,849.67l-10.2,12.8a29.84,29.84,0,0,0,12.3,5.9l3.6-15.9A13.26,13.26,0,0,1,114.53,849.67Z" transform="translate(-35.23 -280.63)" style="fill:#231f20"/><path d="M200.53,838.47h0a35,35,0,0,0,34.8,34.8h452.9a49,49,0,1,0-.8-69.5H235.33A34.86,34.86,0,0,0,200.53,838.47Z" transform="translate(-35.23 -280.63)" style="fill:#aea7a7"/><path d="M176.23,720.57v-80.7c0-73.1,35.5-78.8,78.8-78.8h129.6v159.5a8.13,8.13,0,0,1-8.1,8.1H184.33a8.07,8.07,0,0,1-8.1-8Z" transform="translate(-35.23 -280.63)" style="fill:#88a84c"/><path d="M199.73,720.57v-80.7c0-73.1,35.5-78.8,78.8-78.8h129.6v159.5a8.13,8.13,0,0,1-8.1,8.1H207.83A8.13,8.13,0,0,1,199.73,720.57Z" transform="translate(-35.23 -280.63)" style="fill:#a7cb64"/><path d="M464.83,458V733h156c19.9,0,29.9-68.6,26.2-88.2-8.7-45.8-13.3-40.9-22-86.8-4.4-22.9-8.6-45.9-12.1-69-2.2-14.4-4.9-31-23.4-31Zm14.7,34.9a18.3,18.3,0,0,1,18.3-18.3H576c18.4,0,21.2,16.5,23.4,31,3.5,23.1,7.8,46.1,12.1,69,.4,1.9.7,3.9,1.1,5.8A18.39,18.39,0,0,1,598,601.85a18,18,0,0,1-3.36.32h-96.8a18.31,18.31,0,0,1-18.3-18.3Z" transform="translate(-35.23 -280.63)" style="fill:#88a84c"/><path d="M479.53,492.87v91a18.31,18.31,0,0,0,18.3,18.3h96.8a18.34,18.34,0,0,0,18-21.8c-.4-1.9-.7-3.9-1.1-5.8-4.4-22.9-8.6-45.9-12.1-69-2.2-14.4-4.9-31-23.4-31h-78.2A18.3,18.3,0,0,0,479.53,492.87Z" transform="translate(-35.23 -280.63)" style="fill:#403430;opacity:0.9300000071525574;isolation:isolate"/><path d="M376.53,733.17h93.2V458.07h-61.8c-15.2,0-22.7,12.3-22.7,27.5l-39.9,209.9a31.81,31.81,0,0,0,31.2,37.7Z" transform="translate(-35.23 -280.63)" style="fill:#88a84c"/><path d="M461,581.37v-87.3a19.46,19.46,0,0,0-19.42-19.5H421.33c-14.6,0-22.1,11.5-22.6,25.9a19.15,19.15,0,0,1-.3,3.2l-14.1,74.1a19.55,19.55,0,0,0,15.56,22.86,20.21,20.21,0,0,0,3.64.34h38A19.43,19.43,0,0,0,461,581.63Z" transform="translate(-35.23 -280.63)" style="fill:#403430"/><path d="M175.43,721.57c1.6,10.7,8.9,18.8,17.6,18.8H619c8.7,0,15.9-8.1,17.6-18.8Z" transform="translate(-35.23 -280.63)" style="fill:#a7cb64"/><path d="M490.23,624.07a.82.82,0,0,1,.7-.9h6.5a.82.82,0,0,1,.7.9V632a.82.82,0,0,1-.7.9h-6.5a.82.82,0,0,1-.7-.9Z" transform="translate(-35.23 -280.63)" style="fill:#ed1c24"/><path d="M489.93,632v-7.9a1.13,1.13,0,0,1,1-1.2h6.5c.6,0,1,.5,1,1.2V632a1.13,1.13,0,0,1-1,1.2h-6.5C490.33,633.17,489.93,632.67,489.93,632Zm1-8.4a.47.47,0,0,0-.5.44v8a.54.54,0,0,0,.5.5h6.5a.47.47,0,0,0,.5-.44v-8a.54.54,0,0,0-.5-.5Z" transform="translate(-35.23 -280.63)" style="fill:#231f20"/><path d="M480.33,624.07a.82.82,0,0,1,.7-.9h6.5a.82.82,0,0,1,.7.9V632a.82.82,0,0,1-.7.9H481a.82.82,0,0,1-.7-.9Z" transform="translate(-35.23 -280.63)" style="fill:#aba9a7"/><path d="M480,632v-7.9a1.13,1.13,0,0,1,1-1.2h6.5c.6,0,1,.5,1,1.2V632a1.13,1.13,0,0,1-1,1.2H481C480.43,633.17,480,632.67,480,632Zm1-8.4a.47.47,0,0,0-.5.44v8a.54.54,0,0,0,.5.5h6.5a.47.47,0,0,0,.5-.44v-8a.54.54,0,0,0-.5-.5Z" transform="translate(-35.23 -280.63)" style="fill:#231f20"/><path d="M280.53,583.47c3.8,1.1,6.9,3.4,8.3,6.3l6.7,14.1h8.4l-6.7-14.1c-1.4-2.9-4.5-5.2-8.3-6.3a20,20,0,0,1,5.6-.8h-8.4A20,20,0,0,0,280.53,583.47Z" transform="translate(-35.23 -280.63)" style="fill:#88a84c"/><path d="M309.33,589.77l6.7,14.1h8.4l-6.7-14.1c-2-4.3-7.6-7.1-13.8-7.1h-8.4C301.73,582.67,307.33,585.47,309.33,589.77Z" transform="translate(-35.23 -280.63)" style="fill:#88a84c"/><path d="M326.43,589.77l6.7,14.1h8.4l-6.7-14.1c-2-4.3-7.6-7.1-13.8-7.1h-8.4C318.93,582.67,324.43,585.47,326.43,589.77Z" transform="translate(-35.23 -280.63)" style="fill:#88a84c"/><path d="M220.13,583.47c3.8,1.1,6.9,3.4,8.3,6.3l6.7,14.1h8.4l-6.7-14.1c-1.4-2.9-4.5-5.2-8.3-6.3a20,20,0,0,1,5.6-.8h-8.4A20,20,0,0,0,220.13,583.47Z" transform="translate(-35.23 -280.63)" style="fill:#88a84c"/><path d="M248.93,589.77l6.7,14.1H264l-6.7-14.1c-2-4.3-7.6-7.1-13.8-7.1h-8.4C241.33,582.67,246.93,585.47,248.93,589.77Z" transform="translate(-35.23 -280.63)" style="fill:#88a84c"/><path d="M266,589.77l6.7,14.1h8.4l-6.7-14.1c-2-4.3-7.6-7.1-13.8-7.1h-8.4C258.53,582.67,264,585.47,266,589.77Z" transform="translate(-35.23 -280.63)" style="fill:#88a84c"/><path d="M462.13,674.37v-24.6a2.86,2.86,0,0,1,2.8-2.8h18.7a2.86,2.86,0,0,1,2.8,2.8v24.6a2.86,2.86,0,0,1-2.8,2.8h-18.7A2.86,2.86,0,0,1,462.13,674.37Z" transform="translate(-35.23 -280.63)" style="fill:#fff"/><path d="M461.73,674.47v-24.9a4,4,0,0,1,4-4h9.1a4,4,0,0,1,4,4v24.9a4,4,0,0,1-4,4h-9.1a4,4,0,0,1-4-4Z" transform="translate(-35.23 -280.63)" style="fill:#805d19;stroke:#ffb932;stroke-miterlimit:10;stroke-width:0.1907999962568283px"/><path d="M459.93,675.77v-27.7a2.48,2.48,0,0,1,2.46-2.5h11.94a2.58,2.58,0,0,1,2.6,2.56v27.74a2.59,2.59,0,0,1-2.56,2.6H462.43a2.48,2.48,0,0,1-2.51-2.43A2.44,2.44,0,0,1,459.93,675.77Z" transform="translate(-35.23 -280.63)" style="fill:#fff"/></svg>