<svg id="Layer_1" data-name="Layer 1" xmlns="http://www.w3.org/2000/svg" xmlns:xlink="http://www.w3.org/1999/xlink" viewBox="0 0 1192.9 554.21"><defs><radialGradient id="radial-gradient" cx="-2868.49" cy="567.37" r="7.01" gradientTransform="matrix(0.98, 0.22, 0.22, -0.98, 2693.29, 1838.96)" gradientUnits="userSpaceOnUse"><stop offset="0" stop-color="#fff"/><stop offset="1"/></radialGradient><linearGradient id="linear-gradient" x1="-1426.93" y1="2771.74" x2="-1426.93" y2="2784.9" gradientTransform="matrix(0.42, -1.18, -1.1, -0.39, 3721.37, -12.69)" xlink:href="#radial-gradient"/><radialGradient id="radial-gradient-2" cx="-1005.71" cy="99.47" r="10.24" gradientTransform="translate(662.52 -188.68) rotate(-104.09)" xlink:href="#radial-gradient"/><linearGradient id="linear-gradient-2" x1="672.82" y1="560.79" x2="672.82" y2="583.22" gradientTransform="matrix(-0.82, 0.26, -0.26, -0.82, 1594.11, 878.63)" xlink:href="#radial-gradient"/></defs><title>Front and backhoe loader</title><path d="M27.3,654.6a7,7,0,1,1-5.3-8.4A7,7,0,0,1,27.3,654.6Z" transform="translate(-3.7 -261.09)" style="fill:url(#radial-gradient)"/><path d="M47.4,655.7,32.9,738.6a3.65,3.65,0,0,1-2.2,2.6,10.43,10.43,0,0,1-4.9,1.1,11.48,11.48,0,0,1-1.9-.1c-3-.4-5.3-1.7-5.7-3.4L9.4,647.3a2.71,2.71,0,0,1,1.1-2.6l8.2-6.8c1.8-1.5,5.1-2.1,8.1-1.6a14,14,0,0,1,3.1.9l8.3,4.1c.5.3,1,.6,1.4.9l3.1,2.7a4.36,4.36,0,0,1,.9,1.1l3.7,8.5A2.46,2.46,0,0,1,47.4,655.7Z" transform="translate(-3.7 -261.09)" style="fill:#88a84c"/><path d="M43.8,654.7,29.2,738.6a3.9,3.9,0,0,1-2.2,2.6,8.72,8.72,0,0,1-3.1.9c-3-.4-5.3-1.7-5.7-3.4L9.4,647.2a2.71,2.71,0,0,1,1.1-2.6l8.2-6.8c1.8-1.5,5.1-2.1,8.1-1.6l7.7,3.8c.5.3,1,.6,1.4.9l3.1,2.8a4.7,4.7,0,0,1,.9,1.2l3.8,8.7A3.75,3.75,0,0,1,43.8,654.7Z" transform="translate(-3.7 -261.09)" style="fill:#88a84c"/><path d="M18.6,655.9a9.67,9.67,0,0,1,7.2-11.7,9.9,9.9,0,0,1,11.8,7.2,9.67,9.67,0,0,1-7.2,11.7A9.9,9.9,0,0,1,18.6,655.9Z" transform="translate(-3.7 -261.09)" style="fill:#a7cb64"/><path d="M174.8,287.6a19.11,19.11,0,1,0,1.2,27A19.12,19.12,0,0,0,174.8,287.6Z" transform="translate(-3.7 -261.09)" style="fill:#a7cb64"/><rect x="223.6" y="310.01" width="25.1" height="74" style="fill:#a7cb64"/><polygon points="3.4 420.81 23.9 429.51 120.7 223.61 93 211.71 3.4 420.81" style="fill:#88a84c"/><path d="M218.1,639a14.92,14.92,0,0,1,2.1-.2l11.3-4.9,24.7,1.9,31,26H303v36.7H218V639Z" transform="translate(-3.7 -261.09)" style="fill:#a7cb64"/><path d="M275.5,647.8l42.6-3.1v8.9H290.2v8.2h27.9v3.4H290.2v8.2h27.9v3.4H290.2V685h27.9v3.4H290.2v8.2h27.9v5.8H307.6a200.1,200.1,0,0,1-32.1-2.3Z" transform="translate(-3.7 -261.09)" style="fill:#a7cb64"/><path d="M966.7,714.6l53.4-39.2a10.38,10.38,0,0,1,14.5,2.2l3.6,4.9A10.38,10.38,0,0,1,1036,697l-58.6,43.1A100,100,0,0,0,966.7,714.6Z" transform="translate(-3.7 -261.09)" style="fill:#88a84c"/><polygon points="670.3 363.31 640.6 131.51 381.2 131.51 351.5 383.41 663.1 383.41 670.3 363.31" style="fill:#88a84c"/><path d="M325.3,603.6l12.6-56.1a27.38,27.38,0,0,1,26.7-21.4h8l23.8,150.7,18.9,36.9h-90Z" transform="translate(-3.7 -261.09)" style="fill:#a7cb64"/><path d="M606.7,394.8h-154l.1-6.2c.2-14.7,9.4-26.5,20.7-26.5h10.1l.3,1.4h4.4l.3-1.4h21.6V366h4.9v-3.9h16.8l.2,1.4h3.4L525,362.1h71Z" transform="translate(-3.7 -261.09)" style="fill:#a7cb64"/><path d="M769.4,712.4l-.9-3.6H753.2l-.9,3.6h-75V702H660.2v10.4H601.7l-.7-3.6H589l-.7,3.6H330.2a386.48,386.48,0,0,1,.1-52.7l2.6-33.8H876.8l-.2,16.3c-.6,38.9-32.7,70.1-72.1,70.1H769.4Z" transform="translate(-3.7 -261.09)" style="fill:#88a84c"/><path d="M405.2,457.3v0Z" transform="translate(-3.7 -261.09)" style="fill:#ffb932;stroke:#a97c50;stroke-miterlimit:10;stroke-width:0.6625000238418579px"/><path d="M379.8,379.2h-4.3V349.9c0-3.4,4.1-6.4,10.1-7.3l8.7-6.9,19.2,2.6,24,36.5H631.1c8.5,0,15.4,6.6,15.4,14.7v4H375.4v-4A14.53,14.53,0,0,1,379.8,379.2Z" transform="translate(-3.7 -261.09)" style="fill:#88a84c"/><path d="M621,610.7a1,1,0,0,0,.8,1h7.3a.92.92,0,0,0,.8-1v-8.8a1,1,0,0,0-.8-1h-7.3a.92.92,0,0,0-.8,1Z" transform="translate(-3.7 -261.09)" style="fill:#ed1c24"/><path d="M620.7,610.7v-8.8a1.23,1.23,0,0,1,1.1-1.3h7.3a1.23,1.23,0,0,1,1.1,1.3v8.8a1.23,1.23,0,0,1-1.1,1.3h-7.3A1.23,1.23,0,0,1,620.7,610.7Zm1.1-9.4a.56.56,0,0,0-.5.6v8.8a.56.56,0,0,0,.5.6h7.3a.56.56,0,0,0,.5-.6v-8.8a.56.56,0,0,0-.5-.6Z" transform="translate(-3.7 -261.09)" style="fill:#231f20"/><path d="M609.9,610.7a1,1,0,0,0,.8,1H618a.92.92,0,0,0,.8-1v-8.8a1,1,0,0,0-.8-1h-7.3a.92.92,0,0,0-.8,1Z" transform="translate(-3.7 -261.09)" style="fill:#aba9a7"/><path d="M609.6,610.7v-8.8a1.23,1.23,0,0,1,1.1-1.3H618a1.23,1.23,0,0,1,1.1,1.3v8.8A1.23,1.23,0,0,1,618,612h-7.3A1.23,1.23,0,0,1,609.6,610.7Zm1.1-9.4a.56.56,0,0,0-.5.6v8.8a.56.56,0,0,0,.5.6H618a.56.56,0,0,0,.5-.6v-8.8a.56.56,0,0,0-.5-.6Z" transform="translate(-3.7 -261.09)" style="fill:#231f20"/><polygon points="390 387.51 577.7 387.51 577.3 388.61 871.4 388.61 884.6 304.61 649.4 244.01 621.5 131.51 371.6 131.51 342.3 383.41 394.6 383.41 390 387.51" style="fill:#a7cb64"/><path d="M523.4,407.5h55.8c13,0,24.3,6.9,27.7,16.8l39.8,101.9-8.3,6.3h-115Z" transform="translate(-3.7 -261.09)" style="fill:#403430;opacity:0.9300000071525574;isolation:isolate"/><path d="M678.7,493.6a.76.76,0,0,1,.4.1c6.1.8,12.1,1.8,18.1,2.7s12,1.9,18,3.1c23.9,4.3,47.5,9.4,70.9,15.1,41.9,10.3,83.1,22.5,123.8,36.2l11.8-9.5a32.42,32.42,0,0,1,45.6,5h0a32.42,32.42,0,0,1-5,45.6l-10,8.1c11.3,28.8,21.8,57.9,31.3,87.4q9.6,29.7,17.5,60.2c1.3,5.1,2.6,10.2,3.8,15.3l1.8,7.7,1.7,7.7a.37.37,0,0,0,.1.3c1.6,7.6-8.4,11.9-12.7,5.5-.1-.1-.1-.2-.2-.3l-4.5-6.5-4.3-6.6c-2.9-4.4-5.7-8.8-8.5-13.3q-16.8-26.7-31.8-54C928.3,670.5,911.7,637,896.2,603c-42-13.8-83.4-29.1-124.2-46.6-22.2-9.5-44.1-19.6-65.8-30.5-5.4-2.7-10.8-5.6-16.2-8.3-5.4-2.9-10.7-5.7-16.1-8.7-.1-.1-.2-.1-.3-.2C665.9,504.3,669.9,492.4,678.7,493.6Z" transform="translate(-3.7 -261.09)" style="fill:#88a84c"/><path d="M920.8,563.4a20.42,20.42,0,1,0,22.5-18.1A20.44,20.44,0,0,0,920.8,563.4Z" transform="translate(-3.7 -261.09)" style="fill:#a7cb64"/><path d="M297.7,755.6v-35a50.19,50.19,0,0,1,1.7-13.2v-7.1l1.3-.3v-4.4l-1.3-.3V673.7h3.7v-4.9h-3.7V652l1.3-.2v-3.4l-1.3-.2V577.3h31V697.6c3.5,5.9,5.6,14,5.6,23v35h5.6v24.8H292.1V755.6Z" transform="translate(-3.7 -261.09)" style="fill:#88a84c"/><path d="M756.2,720.1V698.9a49.16,49.16,0,0,1,.6-8v-4.3l.5-.2v-2.7l-.5-.2V670.4h1.4v-3h-1.4V657.2l.5-.1V655l-.5-.1V612h11.8v73a42.37,42.37,0,0,1,2.1,13.9v21.2h2.1v15H754v-15Z" transform="translate(-3.7 -261.09)" style="fill:#a7cb64"/><path d="M88.2,511.3,29.6,677.1a2.48,2.48,0,0,1-3.2,1.5l-6.7-2.4a2.48,2.48,0,0,1-1.5-3.2L76.8,507.2a2.48,2.48,0,0,1,3.2-1.5l6.7,2.4A2.48,2.48,0,0,1,88.2,511.3Z" transform="translate(-3.7 -261.09)" style="fill:url(#linear-gradient)"/><path d="M159.7,315.5,80.3,540.3a3.47,3.47,0,0,1-4.3,2.1l-9.1-3.2a3.47,3.47,0,0,1-2.1-4.3L144.3,310a3.47,3.47,0,0,1,4.3-2.1l9.1,3.2A3.53,3.53,0,0,1,159.7,315.5Z" transform="translate(-3.7 -261.09)" style="fill:#1a1b20"/><path d="M91,518.6l-5.4,15.3a3.79,3.79,0,0,1-4.8,2.3L67,531.3a3.79,3.79,0,0,1-2.3-4.8l5.4-15.3a3.79,3.79,0,0,1,4.8-2.3l13.8,4.9A3.79,3.79,0,0,1,91,518.6Z" transform="translate(-3.7 -261.09)" style="fill:#1a1b20"/><path d="M101.3,683.3,8.5,657.9a5.29,5.29,0,0,1-3.1-3,17,17,0,0,1-1.6-6,8.85,8.85,0,0,1,0-2.3c.2-3.5,1.7-6.1,3.6-6.4l101.2-1.3a4,4,0,0,1,3.1,1.6l8.4,10.6c1.8,2.3,2.7,6.3,2.4,9.8a10,10,0,0,1-.9,3.6l-4.2,9.4a9.88,9.88,0,0,1-.9,1.5l-3,3.3a3.81,3.81,0,0,1-1.3.9l-9.6,3.4A1.35,1.35,0,0,1,101.3,683.3Z" transform="translate(-3.7 -261.09)" style="fill:#88a84c"/><path d="M102.2,679.1l-94-25.7a5.71,5.71,0,0,1-3.2-3,13.05,13.05,0,0,1-1.3-3.8c.2-3.5,1.7-6.1,3.6-6.4l101.2-1.3a4,4,0,0,1,3.1,1.6l8.4,10.6c1.8,2.3,2.7,6.3,2.4,9.8l-3.9,8.7a5.6,5.6,0,0,1-1,1.5l-3,3.4a3.81,3.81,0,0,1-1.3.9l-9.8,3.4A1.1,1.1,0,0,1,102.2,679.1Z" transform="translate(-3.7 -261.09)" style="fill:#88a84c"/><circle cx="105.78" cy="658.6" r="11.4" transform="translate(-564.4 370.18) rotate(-78.53)" style="fill:#a7cb64"/><path d="M70.9,782.2h-11a20.24,20.24,0,0,1-20.1-18.6l-2.2-8.7-6-18.4-1.1-4.3L22.8,706l4-2.1,11.8,22.6L175.9,623.9l6.2-24.4h4.6v29.6l-.2,118.7C149,845,70.9,782.2,70.9,782.2Z" transform="translate(-3.7 -261.09)" style="fill:#88a84c"/><path d="M73,789.9H62a20.17,20.17,0,0,1-20.1-18.6l-2.2-8.7-6-18.4-1.1-4.3-7.7-26.3,4-2.1,11.8,22.7L177.9,631.4l6.2-24.4h4.6v29.7l-.2,118.9C151.1,852.9,73,789.9,73,789.9Z" transform="translate(-3.7 -261.09)" style="fill:#a7cb64"/><path d="M79.7,794.7a146.35,146.35,0,0,0,19.9.2c21.6-1.1,39.6-8.4,55.5-22.8,15.4-14.1,22.1-35.1,23.1-55.4.9-19.5-9.3-41.9-22.8-55.5a72.55,72.55,0,0,0-7.7-6.7l30.5-22.8,6.2-24.4H189l-.3,148.3C157.7,835.6,99.4,807.2,79.7,794.7Z" transform="translate(-3.7 -261.09)" style="fill:#88a84c"/><path d="M1013.6,709.7l58.5,15.8c.9.3,2.1-.2,3.2-1.2a14.48,14.48,0,0,0,3.2-4.2,14.17,14.17,0,0,0,.8-1.8c1-2.9.9-5.6-.4-6.5l-55.3-40.7a2.42,2.42,0,0,0-2.7.1l-9.6,5.3c-2.1,1.2-4.1,4-5.1,7a9.6,9.6,0,0,0-.6,3.3l-.3,9.3a8.08,8.08,0,0,0,.1,1.6l1,3.8a2.28,2.28,0,0,0,.6,1.2l5.7,6.5A1.05,1.05,0,0,0,1013.6,709.7Z" transform="translate(-3.7 -261.09)" style="fill:#a7cb64"/><path d="M1014.4,706l59.4,16.1c.9.3,2.1-.2,3.3-1.2a10.93,10.93,0,0,0,2.2-2.5c1-2.9.9-5.6-.4-6.5l-55.3-40.7a2.42,2.42,0,0,0-2.7.1l-9.6,5.3c-2.1,1.2-4.1,4-5.1,7l-.3,8.6a4.14,4.14,0,0,0,.2,1.6l1,3.9a2.28,2.28,0,0,0,.6,1.2l5.8,6.6A1.93,1.93,0,0,0,1014.4,706Z" transform="translate(-3.7 -261.09)" style="fill:#88a84c"/><path d="M1023.4,677.8a10.25,10.25,0,1,0,10.5,10A10.14,10.14,0,0,0,1023.4,677.8Z" transform="translate(-3.7 -261.09)" style="fill:#a7cb64"/><path d="M1012.1,780.2l48.6-36.3c.8-.6,1.1-1.8,1.1-3.3a11.91,11.91,0,0,0-1.4-5.1,9.5,9.5,0,0,0-1-1.7c-1.7-2.6-3.8-4.2-5.4-3.8l-66.2,18.4a2.47,2.47,0,0,0-1.6,2.2l-1.8,10.8c-.4,2.4.6,5.7,2.3,8.3a9,9,0,0,0,2.2,2.5l7.1,5.9a7.7,7.7,0,0,0,1.3.9l3.6,1.6a3.45,3.45,0,0,0,1.3.3l8.6-.4A2.06,2.06,0,0,0,1012.1,780.2Z" transform="translate(-3.7 -261.09)" style="fill:#a7cb64"/><path d="M1009.6,777.2l49.3-36.8c.8-.6,1.1-1.8,1.1-3.3a10.51,10.51,0,0,0-.6-3.3c-1.7-2.6-3.8-4.2-5.4-3.8l-66.2,18.4a2.47,2.47,0,0,0-1.6,2.2l-1.8,10.8c-.4,2.4.6,5.7,2.3,8.3l6.6,5.5a5.51,5.51,0,0,0,1.4.9l3.7,1.6a3.45,3.45,0,0,0,1.3.3l8.8-.5A1.32,1.32,0,0,0,1009.6,777.2Z" transform="translate(-3.7 -261.09)" style="fill:#a7cb64"/><path d="M1001.4,752.6a10.21,10.21,0,1,0,12.4,7.4A10.16,10.16,0,0,0,1001.4,752.6Z" transform="translate(-3.7 -261.09)" style="fill:url(#radial-gradient-2)"/><path d="M1046,690l-4.1-6.5a14,14,0,0,1,3.6-18.7l4.3-4.5,8.7-10.3,2.1-2.2,12.7-14.2,2.7,1.6-9,15.3,111.2,43.3,16.7-5.3,1.7,2.7-11.7,7.3-5.8,3.6-70.2,43.6C1037.7,759.3,1046,690,1046,690Z" transform="translate(-3.7 -261.09)" style="fill:#88a84c"/><path d="M1042.1,694.1l-4.1-6.5a14,14,0,0,1,3.6-18.7l4.3-4.5,8.7-10.3,2.1-2.2,12.7-14.2,2.7,1.6-9,15.3,111.2,43.3,16.7-5.3,1.7,2.7-11.7,7.3-5.8,3.6L1105,749.8C1033.8,763.4,1042.1,694.1,1042.1,694.1Z" transform="translate(-3.7 -261.09)" style="fill:#a7cb64"/><path d="M1041.8,699.8a103.45,103.45,0,0,0,7.2,11.8c8.6,12.3,19.6,20.3,34,24.4,14,3.9,28.9.1,41.2-6.8,11.9-6.7,21.3-20.9,24.4-34a51.17,51.17,0,0,0,1.1-7l24.7,9.6,16.7-5.3,1.7,2.7-87.7,54.5C1046.4,761,1041.7,716.1,1041.8,699.8Z" transform="translate(-3.7 -261.09)" style="fill:#88a84c"/><path d="M844.1,600.9,948.6,568a2.16,2.16,0,0,0,1.4-2.8L946.8,555a2.16,2.16,0,0,0-2.8-1.4L839.6,586.5a2.16,2.16,0,0,0-1.4,2.8l3.2,10.2A2.13,2.13,0,0,0,844.1,600.9Z" transform="translate(-3.7 -261.09)" style="fill:url(#linear-gradient-2)"/><path d="M719.9,642.9l141.6-44.6a3,3,0,0,0,2-3.8l-4.4-13.9a3,3,0,0,0-3.8-2L713.7,623.2a3,3,0,0,0-2,3.8l4.4,13.9A3.12,3.12,0,0,0,719.9,642.9Z" transform="translate(-3.7 -261.09)" style="fill:#1a1b20"/><path d="M849.6,605.8l8.6-2.7a3.06,3.06,0,0,0,2-3.7l-6.6-20.8a3.06,3.06,0,0,0-3.7-2l-8.6,2.7a3.06,3.06,0,0,0-2,3.7l6.6,20.8A2.89,2.89,0,0,0,849.6,605.8Z" transform="translate(-3.7 -261.09)" style="fill:#1a1b20"/><path d="M678.8,760.7V732.9c0-14.2,8.6-25.8,19.1-25.8h0c10.5,0,19.1,11.6,19.1,25.8v27.8h5.6v19.7H673.1V760.7Z" transform="translate(-3.7 -261.09)" style="fill:#88a84c"/><path d="M669.7,472V671.9a63.74,63.74,0,0,0,1.9,15.1l8.8,33.2h36.5l11.5-15.5c7.4-9.9,11.3-23.6,10.8-37.6C737.3,611.4,726.7,472,669.7,472Z" transform="translate(-3.7 -261.09)" style="fill:#88a84c"/><path d="M699.8,493.6a14.34,14.34,0,1,0-2.7,20.1A14.34,14.34,0,0,0,699.8,493.6Z" transform="translate(-3.7 -261.09)" style="fill:#a7cb64"/><path d="M398.3,382.9a1,1,0,0,0,.8,1h7.3a.92.92,0,0,0,.8-1v-8.8a1,1,0,0,0-.8-1h-7.3a.92.92,0,0,0-.8,1Z" transform="translate(-3.7 -261.09)" style="fill:#ed1c24"/><path d="M398,382.9v-8.8a1.23,1.23,0,0,1,1.1-1.3h7.3a1.23,1.23,0,0,1,1.1,1.3v8.8a1.23,1.23,0,0,1-1.1,1.3h-7.3A1.23,1.23,0,0,1,398,382.9Zm1.1-9.4a.56.56,0,0,0-.5.6v8.8a.56.56,0,0,0,.5.6h7.3a.56.56,0,0,0,.5-.6v-8.8a.56.56,0,0,0-.5-.6Z" transform="translate(-3.7 -261.09)" style="fill:#231f20"/><path d="M387.3,382.9a1,1,0,0,0,.8,1h7.3a.92.92,0,0,0,.8-1v-8.8a1,1,0,0,0-.8-1h-7.3a.92.92,0,0,0-.8,1Z" transform="translate(-3.7 -261.09)" style="fill:#aba9a7"/><path d="M387,382.9v-8.8a1.23,1.23,0,0,1,1.1-1.3h7.3a1.23,1.23,0,0,1,1.1,1.3v8.8a1.23,1.23,0,0,1-1.1,1.3h-7.3A1.23,1.23,0,0,1,387,382.9Zm1.1-9.4a.56.56,0,0,0-.5.6v8.8a.56.56,0,0,0,.5.6h7.3a.56.56,0,0,0,.5-.6v-8.8a.56.56,0,0,0-.5-.6Z" transform="translate(-3.7 -261.09)" style="fill:#231f20"/><path d="M612.6,539.1h34.1v34.1h-14a12.93,12.93,0,0,1-9.3-3.9l-6.9-6.9a13.1,13.1,0,0,1-3.9-9.3v-14Z" transform="translate(-3.7 -261.09)" style="fill:#88a84c"/><rect x="397.23" y="146.35" width="102.4" height="125" style="fill:#403430"/><path d="M186.8,340.1l4.8-35a16.77,16.77,0,0,0-.1-5l-2.2-12.5a17.35,17.35,0,0,0-1.4-4.4l-9.7-19.5a15.42,15.42,0,0,1,4.8,5.6l10.5,21.1a16.65,16.65,0,0,1,1.4,4.3L197,307a16.11,16.11,0,0,1,.1,4.9l-4.7,34.4c-.2,1.5-.6,3-4.8,4.4L110.8,524.2l-5,.5,79.7-180.2A17.11,17.11,0,0,0,186.8,340.1Z" transform="translate(-3.7 -261.09)" style="fill:#a7cb64"/><polygon points="232.4 346.91 232.4 379.01 212.6 379.01 146.7 66.61 156.3 7.51 175.5 7.51 200 58.41 280.3 286.11 280.3 316.21 247.4 326.61 232.4 346.91" style="fill:#88a84c"/><polygon points="89 259.21 87.8 259.21 69.9 197.51 125.6 31.51 84.3 197.51 89 259.21" style="fill:#a7cb64"/><path d="M129.3,292.6a16,16,0,0,1,5.8-8.8l25.3-19.5a15,15,0,0,1,17.9-.5l6.1,12.3v71.2L107.8,520.4h-15L88,458.6Z" transform="translate(-3.7 -261.09)" style="fill:#88a84c"/><circle cx="849.7" cy="481.61" r="69.9" style="fill:#382f2d"/><circle cx="849.7" cy="481.61" r="48.9" style="fill:#312527"/><circle cx="849.7" cy="481.61" r="34.9" style="fill:#f6f6f6"/><circle cx="849.69" cy="481.54" r="24.9" style="fill:#dad1d1"/><circle cx="849.7" cy="481.61" r="18.6" style="fill:#f6f6f6"/><rect x="843.16" y="408.95" width="16.7" height="5.8" style="fill:#382f2d"/><rect x="875.99" y="669.4" width="5.8" height="16.7" transform="translate(-62.27 1010.76) rotate(-70)" style="fill:#382f2d"/><rect x="896.78" y="682.11" width="5.8" height="16.7" transform="translate(-211.26 674.7) rotate(-50)" style="fill:#382f2d"/><rect x="911.76" y="701.09" width="5.8" height="16.7" transform="translate(-235.88 291.3) rotate(-30)" style="fill:#382f2d"/><rect x="919.53" y="723.97" width="5.8" height="16.7" transform="translate(-116.83 -89.83) rotate(-10)" style="fill:#382f2d"/><rect x="913.45" y="753.72" width="16.7" height="5.8" transform="translate(12.86 1271.9) rotate(-80)" style="fill:#382f2d"/><rect x="904.6" y="776.22" width="16.7" height="5.8" transform="translate(-221.97 919.09) rotate(-60)" style="fill:#382f2d"/><rect x="888.53" y="794.24" width="16.7" height="5.8" transform="translate(-306.26 501.96) rotate(-40)" style="fill:#382f2d"/><rect x="867.28" y="805.92" width="16.7" height="5.8" transform="translate(-227.52 87.15) rotate(-20)" style="fill:#382f2d"/><rect x="839.6" y="548.41" width="16.7" height="5.8" style="fill:#382f2d"/><rect x="825.07" y="799.25" width="5.8" height="16.7" transform="translate(-217.79 1048.36) rotate(-70)" style="fill:#382f2d"/><rect x="804.31" y="786.61" width="5.8" height="16.7" transform="translate(-324.33 641.2) rotate(-50)" style="fill:#382f2d"/><rect x="789.33" y="767.65" width="5.8" height="16.7" transform="translate(-285.56 239.01) rotate(-30)" style="fill:#382f2d"/><rect x="781.59" y="744.77" width="5.8" height="16.7" transform="translate(-122.59 -113.37) rotate(-10)" style="fill:#382f2d"/><rect x="776.73" y="725.99" width="16.7" height="5.8" transform="translate(-72.73 1114.42) rotate(-80)" style="fill:#382f2d"/><rect x="785.58" y="703.44" width="16.7" height="5.8" transform="translate(-218.45 779.64) rotate(-60)" style="fill:#382f2d"/><rect x="801.66" y="685.34" width="16.7" height="5.8" transform="translate(-256.59 420.64) rotate(-40)" style="fill:#382f2d"/><rect x="822.85" y="673.64" width="16.7" height="5.8" transform="translate(-184.96 63.98) rotate(-20)" style="fill:#382f2d"/><path d="M850.1,711.7a3.9,3.9,0,1,0,3.9-3.9A3.84,3.84,0,0,0,850.1,711.7Z" transform="translate(-3.7 -261.09)" style="fill:#382f2d"/><path d="M871.3,717.1a3.91,3.91,0,1,0,5.5-.5A3.85,3.85,0,0,0,871.3,717.1Z" transform="translate(-3.7 -261.09)" style="fill:#382f2d"/><path d="M884.1,734.8a3.9,3.9,0,1,0,4.5,3.2A4,4,0,0,0,884.1,734.8Z" transform="translate(-3.7 -261.09)" style="fill:#382f2d"/><path d="M882.5,756.7a3.88,3.88,0,1,0,1.4,5.3A3.92,3.92,0,0,0,882.5,756.7Z" transform="translate(-3.7 -261.09)" style="fill:#382f2d"/><path d="M867.2,772.4a3.89,3.89,0,1,0-2.3,5A3.85,3.85,0,0,0,867.2,772.4Z" transform="translate(-3.7 -261.09)" style="fill:#382f2d"/><path d="M845.5,774.6a3.89,3.89,0,1,0-5,2.3A4,4,0,0,0,845.5,774.6Z" transform="translate(-3.7 -261.09)" style="fill:#382f2d"/><path d="M827.3,762.3a3.83,3.83,0,0,0,1.4-5.3,3.88,3.88,0,0,0-6.7,3.9A4,4,0,0,0,827.3,762.3Z" transform="translate(-3.7 -261.09)" style="fill:#382f2d"/><path d="M821.4,741.2a3.9,3.9,0,1,0-3.2-4.5A3.93,3.93,0,0,0,821.4,741.2Z" transform="translate(-3.7 -261.09)" style="fill:#382f2d"/><path d="M830.4,721.2a3.91,3.91,0,1,0,.5-5.5A3.86,3.86,0,0,0,830.4,721.2Z" transform="translate(-3.7 -261.09)" style="fill:#382f2d"/><polygon points="336.8 369.81 387.5 288.51 580.2 287.71 635 385.91 336.8 387.11 336.8 369.81" style="fill:#a7cb64"/><path d="M628.8,631q1.65,0,3-2.1a13.68,13.68,0,0,0,.3-11.7l-37.8-77.5H370.2l-21.5,66.9c-1.3,3.9-.6,9,1.5,11.4s4.9,1.1,6.1-2.9l33.2-58.8h189l47,72.1C626.4,630.1,627.6,631,628.8,631Z" transform="translate(-3.7 -261.09)" style="fill:#88a84c"/><polygon points="665.8 424.71 328.7 424.71 328.3 424.01 328.3 360.21 665.8 360.21 665.8 424.71" style="fill:#88a84c"/><circle cx="486.7" cy="421.71" r="127.6" style="fill:#382f2d"/><circle cx="490.41" cy="682.8" r="111.7" transform="translate(-342.87 285.67) rotate(-45)" style="fill:#312527"/><circle cx="490.4" cy="682.8" r="63.7" transform="translate(-342.88 285.67) rotate(-45)" style="fill:#f6f6f6"/><circle cx="486.7" cy="421.71" r="45.4" style="fill:#dad1d1"/><circle cx="490.4" cy="682.8" r="34" transform="translate(-265.84 796.41) rotate(-80.78)" style="fill:#f6f6f6"/><rect x="474.59" y="289.16" width="30.5" height="10.6" style="fill:#382f2d"/><rect x="531.6" y="549.02" width="10.6" height="30.5" transform="translate(-180.67 614.73) rotate(-70)" style="fill:#382f2d"/><rect x="569.35" y="572.15" width="10.6" height="30.5" transform="translate(-248.4 388.92) rotate(-50)" style="fill:#382f2d"/><rect x="596.85" y="606.65" width="10.6" height="30.5" transform="translate(-233.98 123.32) rotate(-30)" style="fill:#382f2d"/><rect x="610.99" y="648.64" width="10.6" height="30.5" transform="translate(-109.6 -144.02) rotate(-10)" style="fill:#382f2d"/><rect x="599.87" y="702.71" width="30.5" height="10.6" transform="translate(-192.63 929.79) rotate(-80)" style="fill:#382f2d"/><rect x="583.79" y="743.87" width="30.5" height="10.6" transform="translate(-352.98 632.27) rotate(-60)" style="fill:#382f2d"/><rect x="554.48" y="776.96" width="30.5" height="10.6" transform="translate(-373.25 288.18) rotate(-40)" style="fill:#382f2d"/><rect x="515.67" y="798.11" width="30.5" height="10.6" transform="translate(-246.45 -31.07) rotate(-20)" style="fill:#382f2d"/><rect x="468.3" y="543.61" width="30.5" height="10.6" style="fill:#382f2d"/><rect x="438.59" y="785.94" width="10.6" height="30.5" transform="translate(-464.5 683.22) rotate(-70)" style="fill:#382f2d"/><rect x="400.83" y="762.91" width="10.6" height="30.5" transform="translate(-454.73 327.97) rotate(-50)" style="fill:#382f2d"/><rect x="373.38" y="728.4" width="10.6" height="30.5" transform="translate(-324.8 27.89) rotate(-30)" style="fill:#382f2d"/><rect x="359.25" y="686.46" width="10.6" height="30.5" transform="translate(-119.98 -187.14) rotate(-10)" style="fill:#382f2d"/><rect x="350.45" y="652.29" width="30.5" height="10.6" transform="translate(-349.09 642.49) rotate(-80)" style="fill:#382f2d"/><rect x="366.52" y="611.12" width="30.5" height="10.6" transform="translate(-346.65 377.74) rotate(-60)" style="fill:#382f2d"/><rect x="395.84" y="578.01" width="30.5" height="10.6" transform="translate(-282.47 139.65) rotate(-40)" style="fill:#382f2d"/><rect x="434.67" y="556.79" width="30.5" height="10.6" transform="translate(-168.8 -73.32) rotate(-20)" style="fill:#382f2d"/><path d="M484.8,631a6.5,6.5,0,1,0,6.5-6.5A6.49,6.49,0,0,0,484.8,631Z" transform="translate(-3.7 -261.09)" style="fill:#382f2d"/><path d="M520.3,640a6.53,6.53,0,1,0,9.2-.8A6.51,6.51,0,0,0,520.3,640Z" transform="translate(-3.7 -261.09)" style="fill:#382f2d"/><path d="M541.6,669.6a6.55,6.55,0,1,0,7.6,5.3A6.59,6.59,0,0,0,541.6,669.6Z" transform="translate(-3.7 -261.09)" style="fill:#382f2d"/><path d="M538.9,706.1a6.52,6.52,0,1,0,2.4,8.9A6.45,6.45,0,0,0,538.9,706.1Z" transform="translate(-3.7 -261.09)" style="fill:#382f2d"/><path d="M513.5,732.3a6.55,6.55,0,1,0-3.9,8.4A6.69,6.69,0,0,0,513.5,732.3Z" transform="translate(-3.7 -261.09)" style="fill:#382f2d"/><path d="M477.1,736a6.55,6.55,0,1,0-8.4,3.9A6.6,6.6,0,0,0,477.1,736Z" transform="translate(-3.7 -261.09)" style="fill:#382f2d"/><path d="M446.9,715.4A6.52,6.52,0,1,0,438,713,6.43,6.43,0,0,0,446.9,715.4Z" transform="translate(-3.7 -261.09)" style="fill:#382f2d"/><path d="M436.9,680.3a6.55,6.55,0,1,0-5.3-7.6A6.62,6.62,0,0,0,436.9,680.3Z" transform="translate(-3.7 -261.09)" style="fill:#382f2d"/><path d="M451.9,646.9a6.53,6.53,0,1,0,.8-9.2A6.62,6.62,0,0,0,451.9,646.9Z" transform="translate(-3.7 -261.09)" style="fill:#382f2d"/><line x1="655.2" y1="245.51" x2="655.2" y2="245.51" style="fill:none"/><rect x="652.8" y="245.51" width="1.2" height="113.3" style="fill:#88a84c"/></svg>