<?xml version="1.0" encoding="utf-8"?>
<!-- Generator: Adobe Illustrator 23.0.1, SVG Export Plug-In . SVG Version: 6.00 Build 0)  -->
<svg version="1.1" id="Layer_1" xmlns="http://www.w3.org/2000/svg" xmlns:xlink="http://www.w3.org/1999/xlink" x="0px" y="0px"
	 viewBox="0 0 1200 1200" style="enable-background:new 0 0 1200 1200;" xml:space="preserve">
<style type="text/css">
	.st0{fill:#88A84C;}
	.st1{fill:#ABA9A7;}
	.st2{fill:#231F20;}
	.st3{fill:url(#SVGID_1_);}
	.st4{fill:#1A1B20;}
	.st5{fill:#A7CB64;}
	.st6{fill:url(#SVGID_2_);}
	.st7{fill:#86A250;}
	.st8{fill:url(#SVGID_3_);}
	.st9{fill:#070608;}
	.st10{fill:#FFB932;stroke:#A97C50;stroke-width:0.6367;stroke-miterlimit:10;}
	.st11{opacity:0.93;fill:#403430;enable-background:new    ;}
	.st12{fill:none;stroke:#382F2D;stroke-width:1.0238;stroke-miterlimit:10;}
	.st13{fill:none;stroke:#382F2D;stroke-width:0.8812;stroke-miterlimit:10;}
	.st14{fill:#AEA7A7;}
	.st15{fill:#C2C0C0;}
	.st16{fill:url(#SVGID_4_);}
	.st17{fill:url(#SVGID_5_);}
	.st18{fill:url(#SVGID_6_);}
	.st19{opacity:0.6;fill:#88A84C;enable-background:new    ;}
	.st20{fill:#ED1C24;}
	.st21{fill:#382F2D;}
	.st22{fill:#312527;}
	.st23{fill:#F6F6F6;}
	.st24{fill:#DAD1D1;}
	.st25{fill:url(#SVGID_7_);}
	.st26{fill:none;}
	.st27{fill:#414042;}
	.st28{fill:url(#SVGID_8_);}
	.st29{fill:#382F2D;stroke:#414042;stroke-width:1.028;stroke-miterlimit:10;}
</style>
<g>
	<polygon class="st0" points="104.4,437.7 88.1,437.7 57.1,575.4 104.4,575.4 	"/>
	<g>
		<path class="st1" d="M105.9,551.5c0,0.5,0.3,0.9,0.7,0.9h6.7c0.4,0,0.7-0.4,0.7-0.9v-8.2c0-0.5-0.3-0.9-0.7-0.9h-6.7
			c-0.4,0-0.7,0.4-0.7,0.9V551.5z"/>
		<path class="st2" d="M105.6,551.5v-8.2c0-0.7,0.5-1.2,1-1.2h6.7c0.6,0,1,0.6,1,1.2v8.2c0,0.7-0.5,1.2-1,1.2h-6.7
			C106.1,552.7,105.6,552.2,105.6,551.5z M106.6,542.8c-0.3,0-0.5,0.3-0.5,0.6v8.2c0,0.3,0.2,0.6,0.5,0.6h6.7c0.3,0,0.5-0.3,0.5-0.6
			v-8.2c0-0.3-0.2-0.6-0.5-0.6H106.6z"/>
	</g>
	<g>
		<path class="st0" d="M978.6,639.7V627c0-12.1,9.3-22.3,21.4-23.3l10-2.6l21.2-7l4.9-1.3l30.3-9l2.4,4.7l-26.1,13.7l118.9,158.4
			l28.2,7.1v5.3H1167h-11.4h-137.1C906.2,730,978.6,639.7,978.6,639.7z"/>
		
			<linearGradient id="SVGID_1_" gradientUnits="userSpaceOnUse" x1="818.7466" y1="484.4532" x2="818.7466" y2="501.8653" gradientTransform="matrix(-1 0 0 -1 1644.9966 975.1035)">
			<stop  offset="0" style="stop-color:#FFFFFF"/>
			<stop  offset="1" style="stop-color:#000000"/>
		</linearGradient>
		<path class="st3" d="M784.7,485.5h83.1c1,0,1.9-0.9,1.9-1.9v-9.8c0-1-0.9-1.9-1.9-1.9h-83.1c-1,0-1.9,0.9-1.9,1.9v9.8
			C782.8,484.7,783.6,485.5,784.7,485.5z"/>
		<path class="st4" d="M684.7,487.9h112.7c1.4,0,2.6-1.2,2.6-2.6V472c0-1.4-1.2-2.6-2.6-2.6H684.7c-1.4,0-2.6,1.2-2.6,2.6v13.3
			C682.1,486.8,683.3,487.9,684.7,487.9z"/>
		<path class="st4" d="M787.6,491.2h6.3c1.4,0,2.6-1.2,2.6-2.6v-19.9c0-1.4-1.2-2.6-2.6-2.6h-6.3c-1.4,0-2.6,1.2-2.6,2.6v19.9
			C785,490,786.2,491.2,787.6,491.2z"/>
		<path class="st5" d="M966.8,650.1l-8.1-11c-1.9-2.5-5.4-3.1-8-1.2L871.8,696c-2.5,1.9-3.1,5.4-1.2,8l8.1,11c1.9,2.5,5.4,3.1,8,1.2
			l79.1-58.1C968.1,656.2,968.7,652.6,966.8,650.1z"/>
		<path class="st5" d="M885.5,693.6L885.5,693.6c6.3-0.8,10.7-6.6,9.9-12.8l-26.2-203.6c-0.8-6.3-6.6-10.7-12.8-9.9l0,0
			c-6.3,0.8-10.7,6.6-9.9,12.8l26.2,203.6C873.4,690,879.2,694.4,885.5,693.6z"/>
		
			<radialGradient id="SVGID_2_" cx="161.7576" cy="262.6884" r="9.5118" gradientTransform="matrix(-0.9737 -0.2277 0.2277 -0.9737 981.4154 993.1564)" gradientUnits="userSpaceOnUse">
			<stop  offset="0" style="stop-color:#FFFFFF"/>
			<stop  offset="1" style="stop-color:#000000"/>
		</radialGradient>
		<path class="st6" d="M874.5,698.4c-1.2,5.1,2,10.2,7.1,11.4s10.2-2,11.4-7.1s-2-10.2-7.1-11.4
			C880.8,690.1,875.7,693.3,874.5,698.4z"/>
		<path class="st7" d="M617.4,451.3c25.8,1,62.3,3.5,103.5,9.4c80.3,11.5,109.7,84,109.7,84l75.1,124.5l17.7,14.7l12,38.7
			c1.1,3.4-1.1,7.1-4.4,7.5l-6.5,0.8l-29.9-25.3c0,0-80.1-105.4-112.8-144.8c-32.7-39.4-66.8-51.1-66.8-51.1L648.3,492l-32.9-3.8
			L617.4,451.3z"/>
		<path class="st5" d="M617.5,448.4c25.9,0.9,64.2,3.4,107.7,9.6c80.3,11.5,109.7,84,109.7,84L910,666.4l17.7,14.7l12,38.7
			c1.1,3.4-1.1,7.1-4.4,7.5l-6.5,0.8l-29.9-25.3c0,0-80.1-105.4-112.8-144.8c-32.7-39.4-66.8-51.1-66.8-51.1l-66.7-17.7l-37.1-4.3
			L617.5,448.4z"/>
		
			<linearGradient id="SVGID_3_" gradientUnits="userSpaceOnUse" x1="137.6281" y1="2342.491" x2="137.6281" y2="2369.0405" gradientTransform="matrix(-4.489659e-11 1 -1 -4.489659e-11 2623.8169 230.2219)">
			<stop  offset="0" style="stop-color:#FFFFFF"/>
			<stop  offset="1" style="stop-color:#000000"/>
		</linearGradient>
		<path class="st8" d="M273.5,388.4v-41.1c0-0.9-0.8-1.7-1.7-1.7h-17.4c-0.9,0-1.7,0.8-1.7,1.7v41.1c0,0.9,0.8,1.7,1.7,1.7h17.4
			C272.7,390.1,273.5,389.4,273.5,388.4z"/>
		<path class="st4" d="M277.2,439.3v-55.7c0-1.2-1-2.3-2.3-2.3h-23.6c-1.2,0-2.3,1-2.3,2.3v55.7c0,1.2,1,2.3,2.3,2.3h23.6
			C276.2,441.5,277.2,440.5,277.2,439.3z"/>
		<path class="st4" d="M282.2,386.1L282.2,386.1c0-1.6-1.3-2.9-2.9-2.9H247c-1.6,0-2.9,1.3-2.9,2.9l0,0c0,1.6,1.3,2.9,2.9,2.9h32.3
			C280.8,389,282.2,387.7,282.2,386.1z"/>
		<path class="st0" d="M362.4,437.7H94.8l0.1-6.5c0.3-15.5,16.3-28,36-28h17.6l0.5,1.4h7.7l0.4-1.4h37.5v4.2h8.5v-4.2h29.3l0.4,1.4
			h6l0.4-1.4h123.3v34.5H362.4z"/>
		<path class="st9" d="M585,683.3l-0.4-1.2h-7.2l-0.4,1.2h-35.3v-3.6h-8v3.6H506l-0.3-1.2h-5.6l-0.3,1.2H378.3
			c-0.5-5.5-0.6-12.1,0.1-18.2l1.2-11.7h256l-0.1,5.6c-0.3,13.4-15.4,24.2-33.9,24.2H585V683.3z"/>
		<polygon class="st5" points="360.6,424.5 361.5,518.8 575.5,518.8 599.6,420.4 573.7,526.3 599.6,526.3 596,655 94.8,655 
			94.8,642 94.8,424.5 		"/>
		<path class="st10" d="M360.6,424.5v-4.1V424.5z"/>
		<path class="st0" d="M575.5,518.8l24.1-98.4l-30.2-112.6h-9.1H360.6v112.6v4.1l0,0l0.9,94.3H575.5z M581.7,420.6l-7.9,32.4H449.2
			V325.2h89.2c10.4,0,19.5,7,22.2,17.1L581.7,420.6z"/>
		<path class="st11" d="M449.2,453V325.2h89.2c10.4,0,19.5,7,22.2,17.1l21,78.3l-7.9,32.4L449.2,453L449.2,453z"/>
		<path class="st11" d="M449.2,464.9h121.6l-7.5,30.9c-0.8,3.4-3.8,5.7-7.3,5.7h-99.3c-4.1,0-7.5-3.4-7.5-7.5V464.9z"/>
		<path class="st11" d="M372.7,413.5v-69.7c0-10.3,8.3-18.6,18.6-18.6h39.5v88.3H372.7z"/>
		<path class="st5" d="M357.1,307.8h215.8l0,0c0-5.3-4.3-9.6-9.6-9.6H366.7C361.4,298.2,357.1,302.5,357.1,307.8L357.1,307.8z"/>
		<polygon class="st12" points="302.2,453.5 158,453.5 158,536.8 230.1,536.8 302.2,509.6 		"/>
		<g>
			<path class="st13" d="M213.4,465.7h15.8c0.5,0,0.9-0.4,0.9-0.9v-1.7c0-0.5-0.4-0.9-0.9-0.9h-15.8c-0.5,0-0.9,0.4-0.9,0.9v1.7
				C212.5,465.3,212.9,465.7,213.4,465.7z"/>
			<path class="st13" d="M213.4,472.8h15.8c0.5,0,0.9-0.4,0.9-0.9v-1.7c0-0.5-0.4-0.9-0.9-0.9h-15.8c-0.5,0-0.9,0.4-0.9,0.9v1.7
				C212.5,472.4,212.9,472.8,213.4,472.8z"/>
			<path class="st13" d="M213.4,479.8h15.8c0.5,0,0.9-0.4,0.9-0.9v-1.7c0-0.5-0.4-0.9-0.9-0.9h-15.8c-0.5,0-0.9,0.4-0.9,0.9v1.7
				C212.5,479.4,212.9,479.8,213.4,479.8z"/>
			<path class="st13" d="M213.4,486.8h15.8c0.5,0,0.9-0.4,0.9-0.9v-1.7c0-0.5-0.4-0.9-0.9-0.9h-15.8c-0.5,0-0.9,0.4-0.9,0.9v1.7
				C212.5,486.4,212.9,486.8,213.4,486.8z"/>
			<path class="st13" d="M213.4,493.8h15.8c0.5,0,0.9-0.4,0.9-0.9v-1.7c0-0.5-0.4-0.9-0.9-0.9h-15.8c-0.5,0-0.9,0.4-0.9,0.9v1.7
				C212.5,493.4,212.9,493.8,213.4,493.8z"/>
			<path class="st13" d="M213.4,500.8h15.8c0.5,0,0.9-0.4,0.9-0.9v-1.7c0-0.5-0.4-0.9-0.9-0.9h-15.8c-0.5,0-0.9,0.4-0.9,0.9v1.7
				C212.5,500.4,212.9,500.8,213.4,500.8z"/>
			<path class="st13" d="M213.4,507.9h15.8c0.5,0,0.9-0.4,0.9-0.9v-1.7c0-0.5-0.4-0.9-0.9-0.9h-15.8c-0.5,0-0.9,0.4-0.9,0.9v1.7
				C212.5,507.5,212.9,507.9,213.4,507.9z"/>
		</g>
		<g>
			<path class="st13" d="M190,465.7h15.8c0.5,0,0.9-0.4,0.9-0.9v-1.7c0-0.5-0.4-0.9-0.9-0.9H190c-0.5,0-0.9,0.4-0.9,0.9v1.7
				C189.1,465.3,189.5,465.7,190,465.7z"/>
			<path class="st13" d="M190,472.8h15.8c0.5,0,0.9-0.4,0.9-0.9v-1.7c0-0.5-0.4-0.9-0.9-0.9H190c-0.5,0-0.9,0.4-0.9,0.9v1.7
				C189.1,472.4,189.5,472.8,190,472.8z"/>
			<path class="st13" d="M190,479.8h15.8c0.5,0,0.9-0.4,0.9-0.9v-1.7c0-0.5-0.4-0.9-0.9-0.9H190c-0.5,0-0.9,0.4-0.9,0.9v1.7
				C189.1,479.4,189.5,479.8,190,479.8z"/>
			<path class="st13" d="M190,486.8h15.8c0.5,0,0.9-0.4,0.9-0.9v-1.7c0-0.5-0.4-0.9-0.9-0.9H190c-0.5,0-0.9,0.4-0.9,0.9v1.7
				C189.1,486.4,189.5,486.8,190,486.8z"/>
			<path class="st13" d="M190,493.8h15.8c0.5,0,0.9-0.4,0.9-0.9v-1.7c0-0.5-0.4-0.9-0.9-0.9H190c-0.5,0-0.9,0.4-0.9,0.9v1.7
				C189.1,493.4,189.5,493.8,190,493.8z"/>
			<path class="st13" d="M190,500.8h15.8c0.5,0,0.9-0.4,0.9-0.9v-1.7c0-0.5-0.4-0.9-0.9-0.9H190c-0.5,0-0.9,0.4-0.9,0.9v1.7
				C189.1,500.4,189.5,500.8,190,500.8z"/>
			<path class="st13" d="M190,507.9h15.8c0.5,0,0.9-0.4,0.9-0.9v-1.7c0-0.5-0.4-0.9-0.9-0.9H190c-0.5,0-0.9,0.4-0.9,0.9v1.7
				C189.1,507.5,189.5,507.9,190,507.9z"/>
		</g>
		<g>
			<path class="st13" d="M166.6,465.7h15.8c0.5,0,0.9-0.4,0.9-0.9v-1.7c0-0.5-0.4-0.9-0.9-0.9h-15.8c-0.5,0-0.9,0.4-0.9,0.9v1.7
				C165.7,465.3,166.1,465.7,166.6,465.7z"/>
			<path class="st13" d="M166.6,472.8h15.8c0.5,0,0.9-0.4,0.9-0.9v-1.7c0-0.5-0.4-0.9-0.9-0.9h-15.8c-0.5,0-0.9,0.4-0.9,0.9v1.7
				C165.7,472.4,166.1,472.8,166.6,472.8z"/>
			<path class="st13" d="M166.6,479.8h15.8c0.5,0,0.9-0.4,0.9-0.9v-1.7c0-0.5-0.4-0.9-0.9-0.9h-15.8c-0.5,0-0.9,0.4-0.9,0.9v1.7
				C165.7,479.4,166.1,479.8,166.6,479.8z"/>
			<path class="st13" d="M166.6,486.8h15.8c0.5,0,0.9-0.4,0.9-0.9v-1.7c0-0.5-0.4-0.9-0.9-0.9h-15.8c-0.5,0-0.9,0.4-0.9,0.9v1.7
				C165.7,486.4,166.1,486.8,166.6,486.8z"/>
			<path class="st13" d="M166.6,493.8h15.8c0.5,0,0.9-0.4,0.9-0.9v-1.7c0-0.5-0.4-0.9-0.9-0.9h-15.8c-0.5,0-0.9,0.4-0.9,0.9v1.7
				C165.7,493.4,166.1,493.8,166.6,493.8z"/>
			<path class="st13" d="M166.6,500.8h15.8c0.5,0,0.9-0.4,0.9-0.9v-1.7c0-0.5-0.4-0.9-0.9-0.9h-15.8c-0.5,0-0.9,0.4-0.9,0.9v1.7
				C165.7,500.4,166.1,500.8,166.6,500.8z"/>
			<path class="st13" d="M166.6,507.9h15.8c0.5,0,0.9-0.4,0.9-0.9v-1.7c0-0.5-0.4-0.9-0.9-0.9h-15.8c-0.5,0-0.9,0.4-0.9,0.9v1.7
				C165.7,507.5,166.1,507.9,166.6,507.9z"/>
		</g>
		<path class="st14" d="M165.7,598.8v84.5h-11.2l-43.9-21.9h-50l-36.5-18.5c-8.3-4.2-13.5-12.8-13.5-22.1V591
			c0-11.8,8.9-21.7,20.7-22.9l29.4-3.1h71.2C150.5,564.9,165.7,580.1,165.7,598.8z"/>
		<polygon class="st15" points="60.6,564.9 136,564.9 136,674.1 110.6,661.4 60.6,661.4 59.7,660.9 59.7,565 		"/>
		
			<radialGradient id="SVGID_4_" cx="235.165" cy="467.6022" r="9.5152" gradientTransform="matrix(-0.9737 -0.2277 0.2277 -0.9737 981.4154 993.1564)" gradientUnits="userSpaceOnUse">
			<stop  offset="0" style="stop-color:#FFFFFF"/>
			<stop  offset="1" style="stop-color:#000000"/>
		</radialGradient>
		<path class="st16" d="M849.7,482.1c-1.2,5.1,2,10.2,7.1,11.4c5.1,1.2,10.2-2,11.4-7.1s-2-10.2-7.1-11.4
			C856,473.9,850.8,477,849.7,482.1z"/>
		<path class="st5" d="M935.3,735.9l51.3-23.1c0.8-0.4,1.4-1.4,1.6-2.7c0.3-1.4,0.2-3.1-0.2-4.9c-0.1-0.6-0.3-1.2-0.5-1.8
			c-1-2.7-2.6-4.6-4.1-4.5l-63.6,3.3c-0.8,0-1.5,0.6-1.9,1.7l-3.8,9.4c-0.8,2.1-0.6,5.3,0.4,8c0.4,1,0.9,2,1.5,2.7l5.3,6.8
			c0.3,0.4,0.7,0.8,1,1.1l3,2.2c0.4,0.3,0.8,0.5,1.1,0.5l7.9,1.3C934.6,736.1,935,736,935.3,735.9z"/>
		<path class="st0" d="M933.6,732.7l52.1-23.4c0.8-0.4,1.4-1.4,1.7-2.8c0.2-0.9,0.2-2,0.1-3.1c-1-2.7-2.6-4.6-4.1-4.5l-63.6,3.3
			c-0.8,0-1.5,0.6-1.9,1.7l-3.8,9.4c-0.8,2.1-0.6,5.3,0.4,8l4.9,6.3c0.3,0.4,0.7,0.8,1.1,1.1l3,2.2c0.4,0.3,0.8,0.5,1.2,0.5l8,1.3
			C933,732.9,933.3,732.9,933.6,732.7z"/>
		<path class="st5" d="M941.6,672.2l54.3,14.7c0.9,0.2,1.9-0.2,3-1.1c1.1-0.9,2.1-2.3,2.9-3.9c0.3-0.6,0.5-1.1,0.7-1.7
			c1-2.7,0.9-5.2-0.3-6.1l-51.3-37.8c-0.6-0.5-1.5-0.4-2.5,0.1l-8.9,4.9c-1.9,1.1-3.8,3.7-4.7,6.5c-0.3,1-0.6,2.1-0.6,3l-0.3,8.6
			c0,0.6,0,1,0.1,1.5l0.9,3.6c0.1,0.5,0.3,0.8,0.5,1.1l5.3,6C941,671.9,941.3,672.1,941.6,672.2z"/>
		<path class="st0" d="M942.3,668.7l55.1,15c0.9,0.2,2-0.2,3-1.1c0.7-0.6,1.4-1.4,2.1-2.3c1-2.7,0.9-5.2-0.3-6.1l-51.3-37.8
			c-0.6-0.5-1.5-0.4-2.5,0.1l-8.9,4.9c-1.9,1.1-3.8,3.7-4.7,6.5l-0.2,8c0,0.6,0,1.1,0.1,1.5l0.9,3.6c0.1,0.5,0.3,0.9,0.6,1.2
			l5.4,6.1C941.7,668.4,942,668.6,942.3,668.7z"/>
		
			<radialGradient id="SVGID_5_" cx="-1037.8661" cy="-49.8828" r="9.4977" gradientTransform="matrix(-2.770000e-02 -0.9996 0.9996 -2.770000e-02 952.5127 -320.5768)" gradientUnits="userSpaceOnUse">
			<stop  offset="0" style="stop-color:#FFFFFF"/>
			<stop  offset="1" style="stop-color:#000000"/>
		</radialGradient>
		<path class="st17" d="M931.1,708.8c-5.2,0.1-9.4,4.5-9.2,9.8c0.1,5.2,4.5,9.4,9.8,9.2c5.2-0.1,9.4-4.5,9.2-9.8
			C940.7,712.7,936.4,708.6,931.1,708.8z"/>
		
			<radialGradient id="SVGID_6_" cx="-972.1776" cy="-28.4779" r="9.5073" gradientTransform="matrix(-2.770000e-02 -0.9996 0.9996 -2.770000e-02 952.5127 -320.5768)" gradientUnits="userSpaceOnUse">
			<stop  offset="0" style="stop-color:#FFFFFF"/>
			<stop  offset="1" style="stop-color:#000000"/>
		</radialGradient>
		<path class="st18" d="M950.7,642.5c-5.2,0.1-9.4,4.5-9.2,9.8c0.1,5.2,4.5,9.4,9.8,9.2c5.2-0.1,9.4-4.5,9.2-9.8
			C960.3,646.5,956,642.4,950.7,642.5z"/>
		<path class="st5" d="M969.5,642.1v-12.7c0-12.1,9.3-22.3,21.4-23.3l10-2.6l21.2-7l4.9-1.3l30.3-9l2.4,4.7l-26.1,13.7L1152.7,763
			l28.2,7.1v5.3H1158h-11.4h-137.1C897.2,732.4,969.5,642.1,969.5,642.1z"/>
		<path class="st19" d="M964.2,649.8c-0.5,7.5-0.6,15.2-0.2,22.9c1.4,24.9,9.8,45.8,26.5,64c16.3,17.8,40.6,25.5,64,26.5
			c22.6,1,48.3-10.8,64-26.5c2.7-2.7,5.3-5.7,7.7-9l26.4,35.1l28.2,7.1v5.3h-171.3C917.1,740,949.7,672.6,964.2,649.8z"/>
		<g>
			<path class="st20" d="M116.1,551.5c0,0.5,0.3,0.9,0.7,0.9h6.7c0.4,0,0.7-0.4,0.7-0.9v-8.2c0-0.5-0.3-0.9-0.7-0.9h-6.7
				c-0.4,0-0.7,0.4-0.7,0.9V551.5z"/>
			<path class="st2" d="M115.8,551.5v-8.2c0-0.7,0.5-1.2,1-1.2h6.7c0.6,0,1,0.6,1,1.2v8.2c0,0.7-0.5,1.2-1,1.2h-6.7
				C116.3,552.7,115.8,552.2,115.8,551.5z M116.8,542.8c-0.3,0-0.5,0.3-0.5,0.6v8.2c0,0.3,0.2,0.6,0.5,0.6h6.7
				c0.3,0,0.5-0.3,0.5-0.6v-8.2c0-0.3-0.2-0.6-0.5-0.6H116.8z"/>
		</g>
		<g>
			<path class="st20" d="M560.8,566.8c0,0.5,0.3,0.9,0.7,0.9h6.7c0.4,0,0.7-0.4,0.7-0.9v-8.2c0-0.5-0.3-0.9-0.7-0.9h-6.7
				c-0.4,0-0.7,0.4-0.7,0.9V566.8z"/>
			<path class="st2" d="M560.5,566.8v-8.2c0-0.7,0.5-1.2,1-1.2h6.7c0.6,0,1,0.6,1,1.2v8.2c0,0.7-0.5,1.2-1,1.2h-6.7
				C561,568.1,560.5,567.5,560.5,566.8z M561.6,558.1c-0.3,0-0.5,0.3-0.5,0.6v8.2c0,0.3,0.2,0.6,0.5,0.6h6.7c0.3,0,0.5-0.3,0.5-0.6
				v-8.2c0-0.3-0.2-0.6-0.5-0.6H561.6z"/>
		</g>
		<g>
			<path class="st1" d="M550.6,566.8c0,0.5,0.3,0.9,0.7,0.9h6.7c0.4,0,0.7-0.4,0.7-0.9v-8.2c0-0.5-0.3-0.9-0.7-0.9h-6.7
				c-0.4,0-0.7,0.4-0.7,0.9V566.8z"/>
			<path class="st2" d="M550.3,566.8v-8.2c0-0.7,0.5-1.2,1-1.2h6.7c0.6,0,1,0.6,1,1.2v8.2c0,0.7-0.5,1.2-1,1.2h-6.7
				C550.8,568.1,550.3,567.5,550.3,566.8z M551.3,558.1c-0.3,0-0.5,0.3-0.5,0.6v8.2c0,0.3,0.2,0.6,0.5,0.6h6.7
				c0.3,0,0.5-0.3,0.5-0.6v-8.2c0-0.3-0.2-0.6-0.5-0.6H551.3z"/>
		</g>
		<path class="st0" d="M101,430.6h7.5c-1.8,0-3.4,0.3-5,0.8c3.4,1.2,6.1,3.5,7.4,6.5l6,14.5h-7.5l-6-14.5c-1.2-3-4-5.3-7.4-6.5
			C97.6,430.9,99.2,430.6,101,430.6z"/>
		<path class="st0" d="M109.4,430.6h7.5c5.6,0,10.5,2.9,12.3,7.3l6,14.5h-7.5l-6-14.5C119.9,433.6,114.9,430.6,109.4,430.6z"/>
		<path class="st0" d="M124.6,430.6h7.5c5.6,0,10.5,2.9,12.3,7.3l6,14.5h-7.5l-6-14.5C135.1,433.6,130.2,430.6,124.6,430.6z"/>
		<path class="st5" d="M686.5,628.1l-25.9-50.5l-22.1-139.9H631c-11.9,0-22.2,8.2-24.8,19.8l-35.6,158.9h-36.4v40.8h152.2
			L686.5,628.1L686.5,628.1z"/>
		<circle class="st21" cx="713.7" cy="655" r="118.4"/>
		<circle class="st22" cx="713.7" cy="655" r="82.9"/>
		<ellipse class="st23" cx="713.7" cy="655" rx="59.1" ry="59.1"/>
		<ellipse class="st24" cx="713.7" cy="655" rx="42.1" ry="42.1"/>
		<circle class="st23" cx="713.7" cy="655" r="31.6"/>
		<rect x="702.5" y="531.9" class="st21" width="28.3" height="9.9"/>
		
			<rect x="751.9" y="530.9" transform="matrix(0.342 -0.9397 0.9397 0.342 -14.1492 1069.8938)" class="st21" width="9.9" height="28.3"/>
		
			<rect x="787" y="552.3" transform="matrix(0.6428 -0.766 0.766 0.6428 -151.0514 808.9884)" class="st21" width="9.9" height="28.3"/>
		<rect x="812.5" y="584.4" transform="matrix(0.866 -0.5 0.5 0.866 -189.7471 488.9428)" class="st21" width="9.9" height="28.3"/>
		
			<rect x="825.6" y="623.2" transform="matrix(0.9848 -0.1737 0.1737 0.9848 -98.0838 153.9481)" class="st21" width="9.9" height="28.3"/>
		
			<rect x="815.3" y="673.4" transform="matrix(0.1736 -0.9848 0.9848 0.1736 17.426 1377.4786)" class="st21" width="28.3" height="9.9"/>
		
			<rect x="800.4" y="711.7" transform="matrix(0.5 -0.866 0.866 0.5 -213.3407 1063.6967)" class="st21" width="28.3" height="9.9"/>
		
			<rect x="773.2" y="742.4" transform="matrix(0.766 -0.6428 0.6428 0.766 -296.1717 680.949)" class="st21" width="28.3" height="9.9"/>
		
			<rect x="737.2" y="762.1" transform="matrix(0.9397 -0.342 0.342 0.9397 -217.0261 303.2172)" class="st21" width="28.3" height="9.9"/>
		<rect x="696.6" y="768.2" class="st21" width="28.3" height="9.9"/>
		
			<rect x="665.6" y="750.8" transform="matrix(0.342 -0.9397 0.9397 0.342 -277.5845 1133.4791)" class="st21" width="9.9" height="28.3"/>
		
			<rect x="630.6" y="729.4" transform="matrix(0.6428 -0.766 0.766 0.6428 -342.578 752.4013)" class="st21" width="9.9" height="28.3"/>
		<rect x="605" y="697.4" transform="matrix(0.866 -0.5 0.5 0.866 -274.0464 400.2917)" class="st21" width="9.9" height="28.3"/>
		
			<rect x="591.9" y="658.5" transform="matrix(0.9848 -0.1737 0.1737 0.9848 -107.7583 113.8988)" class="st21" width="9.9" height="28.3"/>
		
			<rect x="583.8" y="626.6" transform="matrix(0.1737 -0.9848 0.9848 0.1737 -127.9381 1110.704)" class="st21" width="28.3" height="9.9"/>
		<rect x="598.7" y="588.4" transform="matrix(0.5 -0.866 0.866 0.5 -207.4659 827.4203)" class="st21" width="28.3" height="9.9"/>
		
			<rect x="625.9" y="557.7" transform="matrix(0.766 -0.6428 0.6428 0.766 -211.9125 543.0959)" class="st21" width="28.3" height="9.9"/>
		
			<rect x="662" y="538" transform="matrix(0.9397 -0.342 0.342 0.9397 -144.9194 263.9743)" class="st21" width="28.3" height="9.9"/>
		<circle class="st21" cx="285.1" cy="655" r="118.4"/>
		<circle class="st22" cx="285.1" cy="655" r="82.9"/>
		
			<ellipse transform="matrix(0.9732 -0.2298 0.2298 0.9732 -142.884 83.0515)" class="st23" cx="285.1" cy="655" rx="59.1" ry="59.1"/>
		
			<ellipse transform="matrix(0.9732 -0.2298 0.2298 0.9732 -142.884 83.0515)" class="st24" cx="285.1" cy="655" rx="42.1" ry="42.1"/>
		<circle class="st23" cx="285.1" cy="655" r="31.6"/>
		<rect x="274" y="531.9" class="st21" width="28.3" height="9.9"/>
		
			<rect x="323.4" y="530.9" transform="matrix(0.342 -0.9397 0.9397 0.342 -296.1463 667.1599)" class="st21" width="9.9" height="28.3"/>
		
			<rect x="358.3" y="552.3" transform="matrix(0.6428 -0.766 0.766 0.6428 -304.1252 480.5996)" class="st21" width="9.9" height="28.3"/>
		<rect x="383.9" y="584.4" transform="matrix(0.866 -0.5 0.5 0.866 -247.1687 274.6445)" class="st21" width="9.9" height="28.3"/>
		
			<rect x="397" y="623.3" transform="matrix(0.9848 -0.1736 0.1736 0.9848 -104.555 79.4641)" class="st21" width="9.9" height="28.3"/>
		
			<rect x="386.8" y="673.5" transform="matrix(0.1737 -0.9848 0.9848 0.1737 -336.8098 955.4399)" class="st21" width="28.3" height="9.9"/>
		<rect x="371.8" y="711.7" transform="matrix(0.5 -0.866 0.866 0.5 -427.6372 692.5301)" class="st21" width="28.3" height="9.9"/>
		
			<rect x="344.6" y="742.4" transform="matrix(0.766 -0.6428 0.6428 0.766 -396.461 405.4547)" class="st21" width="28.3" height="9.9"/>
		
			<rect x="308.6" y="762.1" transform="matrix(0.9397 -0.342 0.342 0.9397 -242.8694 156.6347)" class="st21" width="28.3" height="9.9"/>
		<rect x="268" y="768.2" class="st21" width="28.3" height="9.9"/>
		
			<rect x="237" y="750.8" transform="matrix(0.342 -0.9397 0.9397 0.342 -559.6096 730.7245)" class="st21" width="9.9" height="28.3"/>
		
			<rect x="202" y="729.4" transform="matrix(0.6428 -0.766 0.766 0.6428 -495.6473 424.1002)" class="st21" width="9.9" height="28.3"/>
		<rect x="176.4" y="697.4" transform="matrix(0.866 -0.5 0.5 0.866 -331.4707 185.9922)" class="st21" width="9.9" height="28.3"/>
		
			<rect x="163.3" y="658.4" transform="matrix(0.9848 -0.1737 0.1737 0.9848 -114.2723 39.449)" class="st21" width="9.9" height="28.3"/>
		
			<rect x="155.2" y="626.7" transform="matrix(0.1736 -0.9848 0.9848 0.1736 -482.0919 688.7765)" class="st21" width="28.3" height="9.9"/>
		<rect x="170.1" y="588.4" transform="matrix(0.5 -0.866 0.866 0.5 -421.7559 456.2622)" class="st21" width="28.3" height="9.9"/>
		
			<rect x="197.3" y="557.7" transform="matrix(0.766 -0.6428 0.6428 0.766 -312.1897 267.5834)" class="st21" width="28.3" height="9.9"/>
		
			<rect x="233.3" y="538" transform="matrix(0.9397 -0.342 0.342 0.9397 -170.7807 117.3718)" class="st21" width="28.3" height="9.9"/>
		
			<radialGradient id="SVGID_7_" cx="-1706.6354" cy="250.8331" r="13.3181" gradientTransform="matrix(0.7948 -0.6068 0.6068 0.7948 1829.2863 -768.7362)" gradientUnits="userSpaceOnUse">
			<stop  offset="0" style="stop-color:#FFFFFF"/>
			<stop  offset="1" style="stop-color:#000000"/>
		</radialGradient>
		<path class="st25" d="M635.6,458.1c-4.5-5.8-12.8-7-18.7-2.5c-5.8,4.5-7,12.8-2.5,18.7c4.5,5.8,12.8,7,18.7,2.5
			C639,472.3,640.1,464,635.6,458.1z"/>
		<line class="st26" x1="439.2" y1="307.8" x2="439.2" y2="518.8"/>
		<path class="st27" d="M329.4,533.3v0.2h26.1v-0.2h48.6l-17-46.8c-3.1-8.4-5.8-16-8.1-22.8c-9.6-27.7-14.9-42.9-31.2-42.9h-18.2
			l-2.2,112.6h2V533.3z M332.7,530V428.8h2.4c8.6,0,10.1,16.5,12.7,46.5c0.4,4.4,0.8,9,1.3,13.9l3,40.8H332.7z M355.3,530l-3-41.1
			c-0.5-5-0.9-9.6-1.3-14c-2.9-32.9-4.4-49.4-15.9-49.4h-2.5v-1.6h15.1c14.1,0,18.8,13.6,28.2,40.8c2.3,6.8,5,14.4,8.1,22.8
			l15.4,42.5H355.3z"/>
		<polygon class="st27" points="333.8,530 405,530 432.9,599.3 428,599.3 395.8,543.6 333.8,532 		"/>
		<polygon class="st2" points="415.6,539.5 548,539.5 548,522 408.7,522 		"/>
		<polygon class="st2" points="474.1,686.9 546.7,686.9 546.7,522 408.7,522 		"/>
		<g>
			
				<linearGradient id="SVGID_8_" gradientUnits="userSpaceOnUse" x1="718.6396" y1="528.7124" x2="718.6396" y2="656.3815" gradientTransform="matrix(-1 0 0 -1 1200.4396 1200)">
				<stop  offset="0" style="stop-color:#414042"/>
				<stop  offset="0.7961" style="stop-color:#231F20"/>
				<stop  offset="1" style="stop-color:#000000"/>
			</linearGradient>
			<polygon class="st28" points="434.4,539.4 446.2,569.2 450.4,579.7 462.1,609.3 466.3,619.9 478.1,649.5 482.3,660 486,669.6 
				529.2,669.6 529.2,539.4 			"/>
			<polygon class="st29" points="446.2,569.2 450.4,579.7 529.2,579.7 529.2,569.2 			"/>
			<polygon class="st29" points="462.1,609.3 466.3,619.9 529.2,619.9 529.2,609.3 			"/>
			<polygon class="st29" points="478.1,649.5 482.3,660 529.2,660 529.2,649.5 			"/>
		</g>
		<rect x="423.8" y="529.1" class="st29" width="106.3" height="10.5"/>
	</g>
</g>
</svg>
