<svg id="Layer_1" data-name="Layer 1" xmlns="http://www.w3.org/2000/svg" xmlns:xlink="http://www.w3.org/1999/xlink" viewBox="0 0 1179.2 479.9"><defs><linearGradient id="linear-gradient" x1="820.95" y1="777.4" x2="820.95" y2="759.98" gradientTransform="matrix(-1, 0, 0, 1, 1647, -224.9)" gradientUnits="userSpaceOnUse"><stop offset="0" stop-color="#fff"/><stop offset="1"/></linearGradient><radialGradient id="radial-gradient" cx="150.07" cy="997.84" r="9.51" gradientTransform="matrix(-0.97, -0.23, -0.23, 0.97, 1256.86, -175.03)" xlink:href="#linear-gradient"/><linearGradient id="linear-gradient-2" x1="199.48" y1="-1142.69" x2="199.48" y2="-1169.24" gradientTransform="matrix(0, 1, 1, 0, 1423.82, 230.22)" xlink:href="#linear-gradient"/><radialGradient id="radial-gradient-2" cx="223.48" cy="792.92" r="9.52" gradientTransform="matrix(-0.97, -0.23, -0.23, 0.97, 1256.86, -175.03)" xlink:href="#linear-gradient"/><radialGradient id="radial-gradient-3" cx="-1097.66" cy="1253.77" r="9.5" gradientTransform="matrix(-0.03, -1, -1, 0.03, 2154.06, -351.84)" xlink:href="#linear-gradient"/><radialGradient id="radial-gradient-4" cx="-1031.97" cy="1232.36" r="9.51" gradientTransform="matrix(-0.03, -1, -1, 0.03, 2154.06, -351.84)" xlink:href="#linear-gradient"/><radialGradient id="radial-gradient-5" cx="-1743.52" cy="902.53" r="13.32" gradientTransform="matrix(0.79, -0.61, -0.61, -0.79, 2558.26, 187.43)" xlink:href="#linear-gradient"/><linearGradient id="linear-gradient-3" x1="720.84" y1="733.14" x2="720.84" y2="605.47" gradientTransform="matrix(-1, 0, 0, 1, 1192.04, -360.05)" gradientUnits="userSpaceOnUse"><stop offset="0" stop-color="#414042"/><stop offset="0.8" stop-color="#231f20"/><stop offset="1"/></linearGradient></defs><title>Front loader</title><polygon points="93.8 139.5 77.5 139.5 46.5 277.2 93.8 277.2 93.8 139.5" style="fill:#88a84c"/><path d="M105.7,613.35a.81.81,0,0,0,.7.9h6.7a.81.81,0,0,0,.7-.9v-8.2a.81.81,0,0,0-.7-.9h-6.7a.81.81,0,0,0-.7.9Z" transform="translate(-10.4 -360.05)" style="fill:#aba9a7"/><path d="M105.4,613.35v-8.2a1.13,1.13,0,0,1,1-1.2h6.7a1.12,1.12,0,0,1,1,1.2v8.2a1.13,1.13,0,0,1-1,1.2h-6.7A1.13,1.13,0,0,1,105.4,613.35Zm1-8.7a.56.56,0,0,0-.5.6v8.2a.56.56,0,0,0,.5.6h6.7a.56.56,0,0,0,.5-.6v-8.2a.56.56,0,0,0-.5-.6Z" transform="translate(-10.4 -360.05)" style="fill:#231f20"/><path d="M978.4,701.55v-12.7a23.4,23.4,0,0,1,21.4-23.3l10-2.6,21.2-7,4.9-1.3,30.3-9,2.4,4.7-26.1,13.7,118.9,158.4,28.2,7.1v5.3H1018.3C906,791.85,978.4,701.55,978.4,701.55Z" transform="translate(-10.4 -360.05)" style="fill:#88a84c"/><path d="M784.5,547.35h83.1a2,2,0,0,0,1.9-1.9v-9.8a2,2,0,0,0-1.9-1.9H784.5a2,2,0,0,0-1.9,1.9v9.8A1.84,1.84,0,0,0,784.5,547.35Z" transform="translate(-10.4 -360.05)" style="fill:url(#linear-gradient)"/><path d="M684.5,549.75H797.2a2.65,2.65,0,0,0,2.6-2.6v-13.3a2.65,2.65,0,0,0-2.6-2.6H684.5a2.65,2.65,0,0,0-2.6,2.6v13.3A2.58,2.58,0,0,0,684.5,549.75Z" transform="translate(-10.4 -360.05)" style="fill:#1a1b20"/><path d="M787.4,553.05h6.3a2.65,2.65,0,0,0,2.6-2.6v-19.9a2.65,2.65,0,0,0-2.6-2.6h-6.3a2.65,2.65,0,0,0-2.6,2.6v19.9A2.65,2.65,0,0,0,787.4,553.05Z" transform="translate(-10.4 -360.05)" style="fill:#1a1b20"/><path d="M966.6,712l-8.1-11a5.73,5.73,0,0,0-8-1.2l-78.9,58.1a5.73,5.73,0,0,0-1.2,8l8.1,11a5.73,5.73,0,0,0,8,1.2L965.6,720A5.9,5.9,0,0,0,966.6,712Z" transform="translate(-10.4 -360.05)" style="fill:#a7cb64"/><path d="M885.3,755.45h0a11.46,11.46,0,0,0,9.9-12.8L869,539.05a11.46,11.46,0,0,0-12.8-9.9h0a11.46,11.46,0,0,0-9.9,12.8l26.2,203.6A11.35,11.35,0,0,0,885.3,755.45Z" transform="translate(-10.4 -360.05)" style="fill:#a7cb64"/><path d="M874.3,760.25a9.5,9.5,0,1,0,11.4-7.1A9.5,9.5,0,0,0,874.3,760.25Z" transform="translate(-10.4 -360.05)" style="fill:url(#radial-gradient)"/><path d="M617.2,513.15a1019.75,1019.75,0,0,1,103.5,9.4c80.3,11.5,109.7,84,109.7,84l75.1,124.5,17.7,14.7,12,38.7c1.1,3.4-1.1,7.1-4.4,7.5l-6.5.8-29.9-25.3s-80.1-105.4-112.8-144.8-66.8-51.1-66.8-51.1l-66.7-17.7-32.9-3.8Z" transform="translate(-10.4 -360.05)" style="fill:#86a250"/><path d="M617.3,510.25a1033,1033,0,0,1,107.7,9.6c80.3,11.5,109.7,84,109.7,84l75.1,124.4L927.5,743l12,38.7c1.1,3.4-1.1,7.1-4.4,7.5l-6.5.8-29.9-25.3s-80.1-105.4-112.8-144.8-66.8-51.1-66.8-51.1l-66.7-17.7-37.1-4.3Z" transform="translate(-10.4 -360.05)" style="fill:#a7cb64"/><path d="M273.3,450.25v-41.1a1.75,1.75,0,0,0-1.7-1.7H254.2a1.75,1.75,0,0,0-1.7,1.7v41.1a1.75,1.75,0,0,0,1.7,1.7h17.4A1.69,1.69,0,0,0,273.3,450.25Z" transform="translate(-10.4 -360.05)" style="fill:url(#linear-gradient-2)"/><path d="M277,501.15v-55.7a2.33,2.33,0,0,0-2.3-2.3H251.1a2.33,2.33,0,0,0-2.3,2.3v55.7a2.33,2.33,0,0,0,2.3,2.3h23.6A2.39,2.39,0,0,0,277,501.15Z" transform="translate(-10.4 -360.05)" style="fill:#1a1b20"/><path d="M282,448h0a2.9,2.9,0,0,0-2.9-2.9H246.8a2.9,2.9,0,0,0-2.9,2.9h0a2.9,2.9,0,0,0,2.9,2.9h32.3A3,3,0,0,0,282,448Z" transform="translate(-10.4 -360.05)" style="fill:#1a1b20"/><path d="M362.2,499.55H94.6l.1-6.5c.3-15.5,16.3-28,36-28h17.6l.5,1.4h7.7l.4-1.4h37.5v4.2h8.5v-4.2h29.3l.4,1.4h6l.4-1.4H362.3v34.5Z" transform="translate(-10.4 -360.05)" style="fill:#88a84c"/><path d="M584.8,745.15l-.4-1.2h-7.2l-.4,1.2H541.5v-3.6h-8v3.6H505.8l-.3-1.2h-5.6l-.3,1.2H378.1a92.44,92.44,0,0,1,.1-18.2l1.2-11.7h256l-.1,5.6c-.3,13.4-15.4,24.2-33.9,24.2H584.8Z" transform="translate(-10.4 -360.05)" style="fill:#070608"/><polygon points="350 126.3 350.9 220.6 564.9 220.6 589 122.2 563.1 228.1 589 228.1 585.4 356.8 84.2 356.8 84.2 343.8 84.2 126.3 350 126.3" style="fill:#a7cb64"/><path d="M360.4,486.35v0Z" transform="translate(-10.4 -360.05)" style="fill:#ffb932;stroke:#a97c50;stroke-miterlimit:10;stroke-width:0.6366999745368958px"/><path d="M575.3,580.65l24.1-98.4-30.2-112.6H360.4v116.7h0l.9,94.3Zm6.2-98.2-7.9,32.4H449V387.05h89.2a23,23,0,0,1,22.2,17.1Z" transform="translate(-10.4 -360.05)" style="fill:#88a84c"/><path d="M449,514.85V387.05h89.2a23,23,0,0,1,22.2,17.1l21,78.3-7.9,32.4Z" transform="translate(-10.4 -360.05)" style="fill:#403430;opacity:0.9300000071525574;isolation:isolate"/><path d="M449,526.75H570.6l-7.5,30.9a7.4,7.4,0,0,1-7.3,5.7H456.5a7.55,7.55,0,0,1-7.5-7.5Z" transform="translate(-10.4 -360.05)" style="fill:#403430;opacity:0.9300000071525574;isolation:isolate"/><path d="M372.5,475.35v-69.7a18.56,18.56,0,0,1,18.6-18.6h39.5v88.3Z" transform="translate(-10.4 -360.05)" style="fill:#403430;opacity:0.9300000071525574;isolation:isolate"/><path d="M356.9,369.65H572.7a9.6,9.6,0,0,0-9.6-9.6H366.5a9.6,9.6,0,0,0-9.6,9.6Z" transform="translate(-10.4 -360.05)" style="fill:#a7cb64"/><polygon points="291.6 155.3 147.4 155.3 147.4 238.6 219.5 238.6 291.6 211.4 291.6 155.3" style="fill:none;stroke:#382f2d;stroke-miterlimit:10;stroke-width:1.023800015449524px"/><path d="M213.2,527.55H229a.9.9,0,0,0,.9-.9V525a.9.9,0,0,0-.9-.9H213.2a.9.9,0,0,0-.9.9v1.7A.9.9,0,0,0,213.2,527.55Z" transform="translate(-10.4 -360.05)" style="fill:none;stroke:#382f2d;stroke-miterlimit:10;stroke-width:0.8812000155448914px"/><path d="M213.2,534.65H229a.9.9,0,0,0,.9-.9v-1.7a.9.9,0,0,0-.9-.9H213.2a.9.9,0,0,0-.9.9v1.7A.9.9,0,0,0,213.2,534.65Z" transform="translate(-10.4 -360.05)" style="fill:none;stroke:#382f2d;stroke-miterlimit:10;stroke-width:0.8812000155448914px"/><path d="M213.2,541.65H229a.9.9,0,0,0,.9-.9v-1.7a.9.9,0,0,0-.9-.9H213.2a.9.9,0,0,0-.9.9v1.7A.9.9,0,0,0,213.2,541.65Z" transform="translate(-10.4 -360.05)" style="fill:none;stroke:#382f2d;stroke-miterlimit:10;stroke-width:0.8812000155448914px"/><path d="M213.2,548.65H229a.9.9,0,0,0,.9-.9v-1.7a.9.9,0,0,0-.9-.9H213.2a.9.9,0,0,0-.9.9v1.7A.9.9,0,0,0,213.2,548.65Z" transform="translate(-10.4 -360.05)" style="fill:none;stroke:#382f2d;stroke-miterlimit:10;stroke-width:0.8812000155448914px"/><path d="M213.2,555.65H229a.9.9,0,0,0,.9-.9v-1.7a.9.9,0,0,0-.9-.9H213.2a.9.9,0,0,0-.9.9v1.7A.9.9,0,0,0,213.2,555.65Z" transform="translate(-10.4 -360.05)" style="fill:none;stroke:#382f2d;stroke-miterlimit:10;stroke-width:0.8812000155448914px"/><path d="M213.2,562.65H229a.9.9,0,0,0,.9-.9v-1.7a.9.9,0,0,0-.9-.9H213.2a.9.9,0,0,0-.9.9v1.7A.9.9,0,0,0,213.2,562.65Z" transform="translate(-10.4 -360.05)" style="fill:none;stroke:#382f2d;stroke-miterlimit:10;stroke-width:0.8812000155448914px"/><path d="M213.2,569.75H229a.9.9,0,0,0,.9-.9v-1.7a.9.9,0,0,0-.9-.9H213.2a.9.9,0,0,0-.9.9v1.7A.9.9,0,0,0,213.2,569.75Z" transform="translate(-10.4 -360.05)" style="fill:none;stroke:#382f2d;stroke-miterlimit:10;stroke-width:0.8812000155448914px"/><path d="M189.8,527.55h15.8a.9.9,0,0,0,.9-.9V525a.9.9,0,0,0-.9-.9H189.8a.9.9,0,0,0-.9.9v1.7A.9.9,0,0,0,189.8,527.55Z" transform="translate(-10.4 -360.05)" style="fill:none;stroke:#382f2d;stroke-miterlimit:10;stroke-width:0.8812000155448914px"/><path d="M189.8,534.65h15.8a.9.9,0,0,0,.9-.9v-1.7a.9.9,0,0,0-.9-.9H189.8a.9.9,0,0,0-.9.9v1.7A.9.9,0,0,0,189.8,534.65Z" transform="translate(-10.4 -360.05)" style="fill:none;stroke:#382f2d;stroke-miterlimit:10;stroke-width:0.8812000155448914px"/><path d="M189.8,541.65h15.8a.9.9,0,0,0,.9-.9v-1.7a.9.9,0,0,0-.9-.9H189.8a.9.9,0,0,0-.9.9v1.7A.9.9,0,0,0,189.8,541.65Z" transform="translate(-10.4 -360.05)" style="fill:none;stroke:#382f2d;stroke-miterlimit:10;stroke-width:0.8812000155448914px"/><path d="M189.8,548.65h15.8a.9.9,0,0,0,.9-.9v-1.7a.9.9,0,0,0-.9-.9H189.8a.9.9,0,0,0-.9.9v1.7A.9.9,0,0,0,189.8,548.65Z" transform="translate(-10.4 -360.05)" style="fill:none;stroke:#382f2d;stroke-miterlimit:10;stroke-width:0.8812000155448914px"/><path d="M189.8,555.65h15.8a.9.9,0,0,0,.9-.9v-1.7a.9.9,0,0,0-.9-.9H189.8a.9.9,0,0,0-.9.9v1.7A.9.9,0,0,0,189.8,555.65Z" transform="translate(-10.4 -360.05)" style="fill:none;stroke:#382f2d;stroke-miterlimit:10;stroke-width:0.8812000155448914px"/><path d="M189.8,562.65h15.8a.9.9,0,0,0,.9-.9v-1.7a.9.9,0,0,0-.9-.9H189.8a.9.9,0,0,0-.9.9v1.7A.9.9,0,0,0,189.8,562.65Z" transform="translate(-10.4 -360.05)" style="fill:none;stroke:#382f2d;stroke-miterlimit:10;stroke-width:0.8812000155448914px"/><path d="M189.8,569.75h15.8a.9.9,0,0,0,.9-.9v-1.7a.9.9,0,0,0-.9-.9H189.8a.9.9,0,0,0-.9.9v1.7A.9.9,0,0,0,189.8,569.75Z" transform="translate(-10.4 -360.05)" style="fill:none;stroke:#382f2d;stroke-miterlimit:10;stroke-width:0.8812000155448914px"/><path d="M166.4,527.55h15.8a.9.9,0,0,0,.9-.9V525a.9.9,0,0,0-.9-.9H166.4a.9.9,0,0,0-.9.9v1.7A.9.9,0,0,0,166.4,527.55Z" transform="translate(-10.4 -360.05)" style="fill:none;stroke:#382f2d;stroke-miterlimit:10;stroke-width:0.8812000155448914px"/><path d="M166.4,534.65h15.8a.9.9,0,0,0,.9-.9v-1.7a.9.9,0,0,0-.9-.9H166.4a.9.9,0,0,0-.9.9v1.7A.9.9,0,0,0,166.4,534.65Z" transform="translate(-10.4 -360.05)" style="fill:none;stroke:#382f2d;stroke-miterlimit:10;stroke-width:0.8812000155448914px"/><path d="M166.4,541.65h15.8a.9.9,0,0,0,.9-.9v-1.7a.9.9,0,0,0-.9-.9H166.4a.9.9,0,0,0-.9.9v1.7A.9.9,0,0,0,166.4,541.65Z" transform="translate(-10.4 -360.05)" style="fill:none;stroke:#382f2d;stroke-miterlimit:10;stroke-width:0.8812000155448914px"/><path d="M166.4,548.65h15.8a.9.9,0,0,0,.9-.9v-1.7a.9.9,0,0,0-.9-.9H166.4a.9.9,0,0,0-.9.9v1.7A.9.9,0,0,0,166.4,548.65Z" transform="translate(-10.4 -360.05)" style="fill:none;stroke:#382f2d;stroke-miterlimit:10;stroke-width:0.8812000155448914px"/><path d="M166.4,555.65h15.8a.9.9,0,0,0,.9-.9v-1.7a.9.9,0,0,0-.9-.9H166.4a.9.9,0,0,0-.9.9v1.7A.9.9,0,0,0,166.4,555.65Z" transform="translate(-10.4 -360.05)" style="fill:none;stroke:#382f2d;stroke-miterlimit:10;stroke-width:0.8812000155448914px"/><path d="M166.4,562.65h15.8a.9.9,0,0,0,.9-.9v-1.7a.9.9,0,0,0-.9-.9H166.4a.9.9,0,0,0-.9.9v1.7A.9.9,0,0,0,166.4,562.65Z" transform="translate(-10.4 -360.05)" style="fill:none;stroke:#382f2d;stroke-miterlimit:10;stroke-width:0.8812000155448914px"/><path d="M166.4,569.75h15.8a.9.9,0,0,0,.9-.9v-1.7a.9.9,0,0,0-.9-.9H166.4a.9.9,0,0,0-.9.9v1.7A.9.9,0,0,0,166.4,569.75Z" transform="translate(-10.4 -360.05)" style="fill:none;stroke:#382f2d;stroke-miterlimit:10;stroke-width:0.8812000155448914px"/><path d="M165.5,660.65v84.5H154.3l-43.9-21.9h-50l-36.5-18.5a24.77,24.77,0,0,1-13.5-22.1v-29.8A23,23,0,0,1,31.1,630l29.4-3.1h71.2A33.76,33.76,0,0,1,165.5,660.65Z" transform="translate(-10.4 -360.05)" style="fill:#aea7a7"/><polygon points="50 266.7 125.4 266.7 125.4 375.9 100 363.2 50 363.2 49.1 362.7 49.1 266.8 50 266.7" style="fill:#c2c0c0"/><path d="M849.5,544a9.5,9.5,0,1,0,11.4-7.1A9.5,9.5,0,0,0,849.5,544Z" transform="translate(-10.4 -360.05)" style="fill:url(#radial-gradient-2)"/><path d="M935.1,797.75l51.3-23.1A3.51,3.51,0,0,0,988,772a11.81,11.81,0,0,0-.2-4.9,12.09,12.09,0,0,0-.5-1.8c-1-2.7-2.6-4.6-4.1-4.5l-63.6,3.3c-.8,0-1.5.6-1.9,1.7l-3.8,9.4a12.38,12.38,0,0,0,.4,8,10,10,0,0,0,1.5,2.7l5.3,6.8a11,11,0,0,0,1,1.1l3,2.2a2.11,2.11,0,0,0,1.1.5l7.9,1.3A1.17,1.17,0,0,0,935.1,797.75Z" transform="translate(-10.4 -360.05)" style="fill:#a7cb64"/><path d="M933.4,794.55l52.1-23.4a3.89,3.89,0,0,0,1.7-2.8,10.5,10.5,0,0,0,.1-3.1c-1-2.7-2.6-4.6-4.1-4.5l-63.6,3.3c-.8,0-1.5.6-1.9,1.7l-3.8,9.4a12.38,12.38,0,0,0,.4,8l4.9,6.3a5.73,5.73,0,0,0,1.1,1.1l3,2.2a2.08,2.08,0,0,0,1.2.5l8,1.3A.75.75,0,0,0,933.4,794.55Z" transform="translate(-10.4 -360.05)" style="fill:#88a84c"/><path d="M941.4,734.05l54.3,14.7a3.66,3.66,0,0,0,3-1.1,12,12,0,0,0,2.9-3.9,12.2,12.2,0,0,0,.7-1.7c1-2.7.9-5.2-.3-6.1l-51.3-37.8a2.28,2.28,0,0,0-2.5.1l-8.9,4.9a12.15,12.15,0,0,0-4.7,6.5,11.4,11.4,0,0,0-.6,3l-.3,8.6a7.08,7.08,0,0,0,.1,1.5l.9,3.6a2.81,2.81,0,0,0,.5,1.1l5.3,6A2.36,2.36,0,0,0,941.4,734.05Z" transform="translate(-10.4 -360.05)" style="fill:#a7cb64"/><path d="M942.1,730.55l55.1,15a3.56,3.56,0,0,0,3-1.1,16,16,0,0,0,2.1-2.3c1-2.7.9-5.2-.3-6.1l-51.3-37.8a2.28,2.28,0,0,0-2.5.1l-8.9,4.9a12.15,12.15,0,0,0-4.7,6.5l-.2,8a6.62,6.62,0,0,0,.1,1.5l.9,3.6a2.28,2.28,0,0,0,.6,1.2l5.4,6.1A2.15,2.15,0,0,0,942.1,730.55Z" transform="translate(-10.4 -360.05)" style="fill:#88a84c"/><path d="M930.9,770.65a9.5,9.5,0,1,0,9.8,9.2A9.44,9.44,0,0,0,930.9,770.65Z" transform="translate(-10.4 -360.05)" style="fill:url(#radial-gradient-3)"/><path d="M950.5,704.35a9.5,9.5,0,1,0,9.8,9.2A9.57,9.57,0,0,0,950.5,704.35Z" transform="translate(-10.4 -360.05)" style="fill:url(#radial-gradient-4)"/><path d="M969.3,704v-12.7A23.4,23.4,0,0,1,990.7,668l10-2.6,21.2-7,4.9-1.3,30.3-9,2.4,4.7-26.1,13.7,119.1,158.4,28.2,7.1v5.3H1009.3C897,794.25,969.3,704,969.3,704Z" transform="translate(-10.4 -360.05)" style="fill:#a7cb64"/><path d="M964,711.65a194,194,0,0,0-.2,22.9c1.4,24.9,9.8,45.8,26.5,64,16.3,17.8,40.6,25.5,64,26.5,22.6,1,48.3-10.8,64-26.5a75.76,75.76,0,0,0,7.7-9l26.4,35.1,28.2,7.1v5.3H1009.3C916.9,801.85,949.5,734.45,964,711.65Z" transform="translate(-10.4 -360.05)" style="fill:#88a84c;opacity:0.6000000238418579;isolation:isolate"/><path d="M115.9,613.35a.81.81,0,0,0,.7.9h6.7a.81.81,0,0,0,.7-.9v-8.2a.81.81,0,0,0-.7-.9h-6.7a.81.81,0,0,0-.7.9Z" transform="translate(-10.4 -360.05)" style="fill:#ed1c24"/><path d="M115.6,613.35v-8.2a1.13,1.13,0,0,1,1-1.2h6.7a1.12,1.12,0,0,1,1,1.2v8.2a1.13,1.13,0,0,1-1,1.2h-6.7A1.13,1.13,0,0,1,115.6,613.35Zm1-8.7a.56.56,0,0,0-.5.6v8.2a.56.56,0,0,0,.5.6h6.7a.56.56,0,0,0,.5-.6v-8.2a.56.56,0,0,0-.5-.6Z" transform="translate(-10.4 -360.05)" style="fill:#231f20"/><path d="M560.6,628.65a.81.81,0,0,0,.7.9H568a.81.81,0,0,0,.7-.9v-8.2a.81.81,0,0,0-.7-.9h-6.7a.81.81,0,0,0-.7.9Z" transform="translate(-10.4 -360.05)" style="fill:#ed1c24"/><path d="M560.3,628.65v-8.2a1.13,1.13,0,0,1,1-1.2H568a1.12,1.12,0,0,1,1,1.2v8.2a1.13,1.13,0,0,1-1,1.2h-6.7C560.8,630,560.3,629.35,560.3,628.65Zm1.1-8.7a.56.56,0,0,0-.5.6v8.2a.56.56,0,0,0,.5.6h6.7a.56.56,0,0,0,.5-.6v-8.2a.56.56,0,0,0-.5-.6Z" transform="translate(-10.4 -360.05)" style="fill:#231f20"/><path d="M550.4,628.65a.81.81,0,0,0,.7.9h6.7a.81.81,0,0,0,.7-.9v-8.2a.81.81,0,0,0-.7-.9h-6.7a.81.81,0,0,0-.7.9Z" transform="translate(-10.4 -360.05)" style="fill:#aba9a7"/><path d="M550.1,628.65v-8.2a1.13,1.13,0,0,1,1-1.2h6.7a1.12,1.12,0,0,1,1,1.2v8.2a1.13,1.13,0,0,1-1,1.2h-6.7C550.6,630,550.1,629.35,550.1,628.65Zm1-8.7a.56.56,0,0,0-.5.6v8.2a.56.56,0,0,0,.5.6h6.7a.56.56,0,0,0,.5-.6v-8.2a.56.56,0,0,0-.5-.6Z" transform="translate(-10.4 -360.05)" style="fill:#231f20"/><path d="M100.8,492.45h7.5a16.36,16.36,0,0,0-5,.8,12.31,12.31,0,0,1,7.4,6.5l6,14.5h-7.5l-6-14.5a12,12,0,0,0-7.4-6.5A16.36,16.36,0,0,1,100.8,492.45Z" transform="translate(-10.4 -360.05)" style="fill:#88a84c"/><path d="M109.2,492.45h7.5c5.6,0,10.5,2.9,12.3,7.3l6,14.5h-7.5l-6-14.5C119.7,495.45,114.7,492.45,109.2,492.45Z" transform="translate(-10.4 -360.05)" style="fill:#88a84c"/><path d="M124.4,492.45h7.5c5.6,0,10.5,2.9,12.3,7.3l6,14.5h-7.5l-6-14.5C134.9,495.45,130,492.45,124.4,492.45Z" transform="translate(-10.4 -360.05)" style="fill:#88a84c"/><path d="M686.3,690l-25.9-50.5-22.1-139.9h-7.5a25.37,25.37,0,0,0-24.8,19.8l-35.6,158.9H534v40.8H686.2l.1-29.1Z" transform="translate(-10.4 -360.05)" style="fill:#a7cb64"/><circle cx="703.1" cy="356.8" r="118.4" style="fill:#382f2d"/><circle cx="703.1" cy="356.8" r="82.9" style="fill:#312527"/><circle cx="703.1" cy="356.8" r="59.1" style="fill:#f6f6f6"/><circle cx="703.1" cy="356.8" r="42.1" style="fill:#dad1d1"/><circle cx="703.1" cy="356.8" r="31.6" style="fill:#f6f6f6"/><rect x="691.9" y="233.7" width="28.3" height="9.9" style="fill:#382f2d"/><rect x="751.73" y="592.79" width="9.9" height="28.3" transform="translate(-82.85 750.37) rotate(-70)" style="fill:#382f2d"/><rect x="786.76" y="614.17" width="9.9" height="28.3" transform="translate(-208.92 470.84) rotate(-50)" style="fill:#382f2d"/><rect x="812.29" y="646.26" width="9.9" height="28.3" transform="translate(-231.12 137.06) rotate(-30)" style="fill:#382f2d"/><rect x="825.4" y="685.04" width="9.9" height="28.3" transform="translate(-119.23 -205.19) rotate(-10)" style="fill:#382f2d"/><rect x="815.11" y="735.3" width="28.3" height="9.9" transform="translate(-54.11 1068.35) rotate(-80)" style="fill:#382f2d"/><rect x="800.2" y="773.52" width="28.3" height="9.9" transform="translate(-277.4 734.42) rotate(-60)" style="fill:#382f2d"/><rect x="772.99" y="804.21" width="28.3" height="9.9" transform="translate(-346.37 335.26) rotate(-40)" style="fill:#382f2d"/><rect x="737" y="823.95" width="28.3" height="9.9" transform="translate(-248.59 -53.17) rotate(-20)" style="fill:#382f2d"/><rect x="686" y="470" width="28.3" height="9.9" style="fill:#382f2d"/><rect x="665.42" y="812.68" width="9.9" height="28.3" transform="translate(-346.27 813.95) rotate(-70)" style="fill:#382f2d"/><rect x="630.36" y="791.22" width="9.9" height="28.3" transform="translate(-400.41 414.28) rotate(-50)" style="fill:#382f2d"/><rect x="604.8" y="759.22" width="9.9" height="28.3" transform="translate(-315.4 48.45) rotate(-30)" style="fill:#382f2d"/><rect x="591.71" y="720.35" width="9.9" height="28.3" transform="translate(-128.91 -245.25) rotate(-10)" style="fill:#382f2d"/><rect x="583.53" y="688.44" width="28.3" height="9.9" transform="translate(-199.39 801.49) rotate(-80)" style="fill:#382f2d"/><rect x="598.45" y="650.27" width="28.3" height="9.9" transform="translate(-271.54 498.07) rotate(-60)" style="fill:#382f2d"/><rect x="625.69" y="619.56" width="28.3" height="9.9" transform="translate(-262.14 197.37) rotate(-40)" style="fill:#382f2d"/><rect x="661.8" y="599.84" width="28.3" height="9.9" transform="translate(-176.48 -92.41) rotate(-20)" style="fill:#382f2d"/><circle cx="274.5" cy="356.8" r="118.4" style="fill:#382f2d"/><circle cx="274.5" cy="356.8" r="82.9" style="fill:#312527"/><circle cx="284.89" cy="716.83" r="59.1" transform="translate(-167.51 -275.39) rotate(-13.29)" style="fill:#f6f6f6"/><circle cx="284.89" cy="716.83" r="42.1" transform="translate(-167.51 -275.39) rotate(-13.29)" style="fill:#dad1d1"/><circle cx="274.5" cy="356.8" r="31.6" style="fill:#f6f6f6"/><rect x="263.4" y="233.7" width="28.3" height="9.9" style="fill:#382f2d"/><rect x="323.18" y="592.72" width="9.9" height="28.3" transform="translate(-364.76 347.61) rotate(-70)" style="fill:#382f2d"/><rect x="358.12" y="614.16" width="9.9" height="28.3" transform="translate(-362.02 142.49) rotate(-50)" style="fill:#382f2d"/><rect x="383.7" y="646.26" width="9.9" height="28.3" transform="translate(-288.54 -77.24) rotate(-30)" style="fill:#382f2d"/><rect x="396.8" y="685.15" width="9.9" height="28.3" transform="translate(-125.7 -279.69) rotate(-10)" style="fill:#382f2d"/><rect x="386.62" y="735.33" width="28.3" height="9.9" transform="translate(-408.27 646.32) rotate(-80)" style="fill:#382f2d"/><rect x="371.61" y="773.52" width="28.3" height="9.9" transform="translate(-491.7 363.25) rotate(-60)" style="fill:#382f2d"/><rect x="344.39" y="804.22" width="28.3" height="9.9" transform="translate(-446.66 59.75) rotate(-40)" style="fill:#382f2d"/><rect x="308.4" y="823.95" width="28.3" height="9.9" transform="translate(-274.43 -199.76) rotate(-20)" style="fill:#382f2d"/><rect x="257.4" y="470" width="28.3" height="9.9" style="fill:#382f2d"/><rect x="236.81" y="812.68" width="9.9" height="28.3" transform="translate(-628.29 411.18) rotate(-70)" style="fill:#382f2d"/><rect x="201.79" y="791.23" width="9.9" height="28.3" transform="translate(-553.49 85.98) rotate(-50)" style="fill:#382f2d"/><rect x="176.2" y="759.22" width="9.9" height="28.3" transform="translate(-372.82 -165.85) rotate(-30)" style="fill:#382f2d"/><rect x="163.09" y="720.25" width="9.9" height="28.3" transform="translate(-135.41 -319.7) rotate(-10)" style="fill:#382f2d"/><rect x="155.01" y="688.56" width="28.3" height="9.9" transform="translate(-553.58 379.65) rotate(-80)" style="fill:#382f2d"/><rect x="169.86" y="650.28" width="28.3" height="9.9" transform="translate(-485.84 126.91) rotate(-60)" style="fill:#382f2d"/><rect x="197.1" y="619.55" width="28.3" height="9.9" transform="translate(-362.41 -78.13) rotate(-40)" style="fill:#382f2d"/><rect x="233.09" y="599.85" width="28.3" height="9.9" transform="translate(-202.33 -239.03) rotate(-20)" style="fill:#382f2d"/><path d="M635.4,520a13.34,13.34,0,1,0-2.5,18.7A13.36,13.36,0,0,0,635.4,520Z" transform="translate(-10.4 -360.05)" style="fill:url(#radial-gradient-5)"/><line x1="428.6" y1="9.6" x2="428.6" y2="220.6" style="fill:none"/><path d="M329.2,595.15v.2h26.1v-.2h48.6l-17-46.8q-4.65-12.6-8.1-22.8c-9.6-27.7-14.9-42.9-31.2-42.9H329.4l-2.2,112.6h2v-.1Zm3.3-3.3V490.65h2.4c8.6,0,10.1,16.5,12.7,46.5.4,4.4.8,9,1.3,13.9l3,40.8Zm22.6,0-3-41.1c-.5-5-.9-9.6-1.3-14-2.9-32.9-4.4-49.4-15.9-49.4h-2.5v-1.6h15.1c14.1,0,18.8,13.6,28.2,40.8q3.45,10.2,8.1,22.8l15.4,42.5Z" transform="translate(-10.4 -360.05)" style="fill:#414042"/><polygon points="323.2 231.8 394.4 231.8 422.3 301.1 417.4 301.1 385.2 245.4 323.2 233.8 323.2 231.8" style="fill:#414042"/><polygon points="405 241.3 537.4 241.3 537.4 223.8 398.1 223.8 405 241.3" style="fill:#231f20"/><polygon points="463.5 388.7 536.1 388.7 536.1 223.8 398.1 223.8 463.5 388.7" style="fill:#231f20"/><polygon points="423.8 241.2 435.6 271 439.8 281.5 451.5 311.1 455.7 321.7 467.5 351.3 471.7 361.8 475.4 371.4 518.6 371.4 518.6 241.2 423.8 241.2" style="fill:url(#linear-gradient-3)"/><polygon points="435.6 271 439.8 281.5 518.6 281.5 518.6 271 435.6 271" style="fill:#382f2d;stroke:#414042;stroke-miterlimit:10;stroke-width:1.027999997138977px"/><polygon points="451.5 311.1 455.7 321.7 518.6 321.7 518.6 311.1 451.5 311.1" style="fill:#382f2d;stroke:#414042;stroke-miterlimit:10;stroke-width:1.027999997138977px"/><polygon points="467.5 351.3 471.7 361.8 518.6 361.8 518.6 351.3 467.5 351.3" style="fill:#382f2d;stroke:#414042;stroke-miterlimit:10;stroke-width:1.027999997138977px"/><rect x="413.2" y="230.9" width="106.3" height="10.5" style="fill:#382f2d;stroke:#414042;stroke-miterlimit:10;stroke-width:1.027999997138977px"/></svg>