<svg id="Layer_1" data-name="Layer 1" xmlns="http://www.w3.org/2000/svg" xmlns:xlink="http://www.w3.org/1999/xlink" viewBox="0 0 1158.24 342"><defs><linearGradient id="linear-gradient" x1="2129.79" y1="760.56" x2="2106.79" y2="760.56" gradientTransform="translate(2540.3 773) rotate(180)" gradientUnits="userSpaceOnUse"><stop offset="0.26" stop-color="#fff" stop-opacity="0"/><stop offset="0.34" stop-color="#e6e9ea" stop-opacity="0.11"/><stop offset="0.57" stop-color="#a3afb3" stop-opacity="0.42"/><stop offset="0.77" stop-color="#72848b" stop-opacity="0.69"/><stop offset="0.92" stop-color="#546a72" stop-opacity="0.89"/><stop offset="1" stop-color="#496069"/></linearGradient><linearGradient id="linear-gradient-2" x1="1469.04" y1="644.47" x2="1471.14" y2="641.41" gradientTransform="translate(2540.3 773) rotate(180)" gradientUnits="userSpaceOnUse"><stop offset="0" stop-color="#4d4d4d"/><stop offset="0.13" stop-color="#434343"/><stop offset="1"/></linearGradient><linearGradient id="linear-gradient-3" x1="1464.74" y1="614.86" x2="1472.38" y2="614.86" gradientTransform="translate(2561.18 1202) rotate(180)" gradientUnits="userSpaceOnUse"><stop offset="0" stop-color="#4d4d4d"/><stop offset="0.14" stop-color="#353535"/><stop offset="0.32" stop-color="#1e1e1e"/><stop offset="0.52" stop-color="#0d0d0d"/><stop offset="0.73" stop-color="#030303"/><stop offset="1"/></linearGradient><linearGradient id="linear-gradient-4" x1="1464.69" y1="586.2" x2="1473.96" y2="586.2" xlink:href="#linear-gradient-3"/><linearGradient id="linear-gradient-5" x1="2478.12" y1="566.92" x2="2452.48" y2="525.65" gradientTransform="translate(2561.18 1202) rotate(180)" gradientUnits="userSpaceOnUse"><stop offset="0" stop-color="#c1272d"/><stop offset="1" stop-color="#c1272d" stop-opacity="0"/></linearGradient><radialGradient id="radial-gradient" cx="1676.72" cy="-1570.82" r="109.28" gradientTransform="translate(1628.44 1) rotate(180) scale(0.45)" gradientUnits="userSpaceOnUse"><stop offset="0"/><stop offset="0.47" stop-color="#020202"/><stop offset="0.64" stop-color="#090809"/><stop offset="0.76" stop-color="#141414"/><stop offset="0.86" stop-color="#252425"/><stop offset="0.92" stop-color="#363436"/><stop offset="1"/></radialGradient><radialGradient id="radial-gradient-2" cx="1676.72" cy="-1570.82" r="109.28" gradientTransform="translate(1628.44 1) rotate(180) scale(0.45)" gradientUnits="userSpaceOnUse"><stop offset="0" stop-opacity="0"/><stop offset="0.38" stop-color="#020202" stop-opacity="0.51"/><stop offset="0.51" stop-color="#090809" stop-opacity="0.69"/><stop offset="0.61" stop-color="#141414" stop-opacity="0.82"/><stop offset="0.69" stop-color="#252425" stop-opacity="0.93"/><stop offset="0.74" stop-color="#363436"/><stop offset="0.99" stop-opacity="0"/></radialGradient><radialGradient id="radial-gradient-3" cx="1676.51" cy="-1570.82" r="98.36" gradientTransform="translate(1628.44 1) rotate(180) scale(0.45)" gradientUnits="userSpaceOnUse"><stop offset="0.63"/><stop offset="0.63" stop-color="#080808" stop-opacity="0.98"/><stop offset="0.66" stop-color="#353535" stop-opacity="0.86"/><stop offset="0.69" stop-color="#5c5c5c" stop-opacity="0.73"/><stop offset="0.72" stop-color="#7b7b7b" stop-opacity="0.6"/><stop offset="0.75" stop-color="#949494" stop-opacity="0.47"/><stop offset="0.78" stop-color="#a5a5a5" stop-opacity="0.33"/><stop offset="0.82" stop-color="#b0b0b0" stop-opacity="0.18"/><stop offset="0.86" stop-color="#b3b3b3" stop-opacity="0"/></radialGradient><radialGradient id="radial-gradient-5" cx="1676.72" cy="-1570.82" r="79.64" gradientTransform="translate(1607.56 -428) rotate(180) scale(0.45)" gradientUnits="userSpaceOnUse"><stop offset="0.38" stop-color="#b3b3b3" stop-opacity="0"/><stop offset="0.41" stop-color="#a9a9a9" stop-opacity="0.06"/><stop offset="0.59" stop-color="#818182" stop-opacity="0.35"/><stop offset="0.76" stop-color="#656566" stop-opacity="0.61"/><stop offset="0.9" stop-color="#535355" stop-opacity="0.83"/><stop offset="1" stop-color="#4d4d4f"/></radialGradient><radialGradient id="radial-gradient-6" cx="1744.49" cy="-1202.28" r="6.94" gradientTransform="translate(1836.22 21.66) rotate(180) scale(0.55)" gradientUnits="userSpaceOnUse"><stop offset="0.55" stop-color="#fff"/><stop offset="0.59" stop-color="#f3f3f3" stop-opacity="0.92"/><stop offset="0.69" stop-color="#d7d7d7" stop-opacity="0.69"/><stop offset="0.79" stop-color="#c3c3c3" stop-opacity="0.46"/><stop offset="0.9" stop-color="#b7b7b7" stop-opacity="0.23"/><stop offset="1" stop-color="#b3b3b3" stop-opacity="0"/></radialGradient><radialGradient id="radial-gradient-7" cx="1675.56" cy="-1518.34" r="4.57" gradientTransform="translate(1628.44 1) rotate(180) scale(0.45)" gradientUnits="userSpaceOnUse"><stop offset="0"/><stop offset="0.35" stop-color="#020202"/><stop offset="0.52" stop-color="#0a0a0a"/><stop offset="0.65" stop-color="#171617"/><stop offset="0.77" stop-color="#292929"/><stop offset="0.86" stop-color="#414041"/><stop offset="0.95" stop-color="#5e5d5e"/><stop offset="1" stop-color="#727071"/></radialGradient><radialGradient id="radial-gradient-8" cx="1744.49" cy="-1286.15" r="6.94" xlink:href="#radial-gradient-6"/><radialGradient id="radial-gradient-9" cx="1675.56" cy="-1621.13" r="4.57" xlink:href="#radial-gradient-7"/><radialGradient id="radial-gradient-10" cx="1273.75" cy="-1013.5" r="6.94" gradientTransform="matrix(-0.52, -0.19, 0.19, -0.52, 1733.21, 401.33)" xlink:href="#radial-gradient-6"/><radialGradient id="radial-gradient-11" cx="1097.5" cy="-1288.24" r="4.57" gradientTransform="matrix(-0.42, -0.15, 0.15, -0.42, 1544.8, 310.24)" xlink:href="#radial-gradient-7"/><radialGradient id="radial-gradient-12" cx="1273.75" cy="-1097.36" r="6.94" gradientTransform="matrix(-0.52, -0.19, 0.19, -0.52, 1733.21, 401.33)" xlink:href="#radial-gradient-6"/><radialGradient id="radial-gradient-13" cx="1097.49" cy="-1391.04" r="4.57" gradientTransform="matrix(-0.42, -0.15, 0.15, -0.42, 1544.8, 310.24)" xlink:href="#radial-gradient-7"/><radialGradient id="radial-gradient-14" cx="894.29" cy="-674.42" r="6.94" gradientTransform="matrix(-0.42, -0.35, 0.35, -0.42, 1505.71, 722.62)" xlink:href="#radial-gradient-6"/><radialGradient id="radial-gradient-15" cx="633.27" cy="-870.49" r="4.57" gradientTransform="translate(1359.53 573.44) rotate(-140) scale(0.45)" xlink:href="#radial-gradient-7"/><radialGradient id="radial-gradient-16" cx="894.29" cy="-758.28" r="6.94" gradientTransform="matrix(-0.42, -0.35, 0.35, -0.42, 1505.71, 722.62)" xlink:href="#radial-gradient-6"/><radialGradient id="radial-gradient-17" cx="633.27" cy="-973.27" r="4.57" gradientTransform="translate(1359.53 573.44) rotate(-140) scale(0.45)" xlink:href="#radial-gradient-7"/><radialGradient id="radial-gradient-18" cx="656.34" cy="-226.91" r="6.94" gradientTransform="matrix(-0.28, -0.48, 0.48, -0.28, 1183.15, 947.64)" xlink:href="#radial-gradient-6"/><radialGradient id="radial-gradient-19" cx="339.56" cy="-322.11" r="4.57" gradientTransform="translate(1096.37 756.7) rotate(-120) scale(0.45)" xlink:href="#radial-gradient-7"/><radialGradient id="radial-gradient-20" cx="656.35" cy="-310.78" r="6.94" gradientTransform="matrix(-0.28, -0.48, 0.48, -0.28, 1183.15, 947.64)" xlink:href="#radial-gradient-6"/><radialGradient id="radial-gradient-21" cx="339.56" cy="-424.9" r="4.57" gradientTransform="translate(1096.37 756.7) rotate(-120) scale(0.45)" xlink:href="#radial-gradient-7"/><radialGradient id="radial-gradient-22" cx="582.8" cy="275.92" r="6.94" gradientTransform="translate(802.3 1047.32) rotate(-100) scale(0.55)" xlink:href="#radial-gradient-6"/><radialGradient id="radial-gradient-23" cx="253.23" cy="293.67" r="4.57" gradientTransform="matrix(-0.08, -0.44, 0.44, -0.08, 786.62, 839.81)" xlink:href="#radial-gradient-7"/><radialGradient id="radial-gradient-24" cx="582.8" cy="192.05" r="6.94" gradientTransform="translate(802.3 1047.32) rotate(-100) scale(0.55)" xlink:href="#radial-gradient-6"/><radialGradient id="radial-gradient-25" cx="253.24" cy="190.86" r="4.57" gradientTransform="matrix(-0.08, -0.44, 0.44, -0.08, 786.62, 839.81)" xlink:href="#radial-gradient-7"/><radialGradient id="radial-gradient-26" cx="687.56" cy="773.61" r="6.94" gradientTransform="translate(410.15 1011.74) rotate(-80) scale(0.55)" xlink:href="#radial-gradient-6"/><radialGradient id="radial-gradient-27" cx="379.84" cy="901.96" r="4.57" gradientTransform="matrix(0.08, -0.44, 0.44, 0.08, 467.28, 810.66)" xlink:href="#radial-gradient-7"/><radialGradient id="radial-gradient-28" cx="687.56" cy="689.74" r="6.94" gradientTransform="translate(410.15 1011.74) rotate(-80) scale(0.55)" xlink:href="#radial-gradient-6"/><radialGradient id="radial-gradient-29" cx="379.83" cy="799.16" r="4.57" gradientTransform="matrix(0.08, -0.44, 0.44, 0.08, 467.28, 810.66)" xlink:href="#radial-gradient-7"/><radialGradient id="radial-gradient-30" cx="955.55" cy="1203.78" r="6.94" gradientTransform="matrix(0.28, -0.48, 0.48, 0.28, 54.85, 844.23)" xlink:href="#radial-gradient-6"/><radialGradient id="radial-gradient-31" cx="707.87" cy="1432.83" r="4.57" gradientTransform="translate(175.85 673.94) rotate(-60) scale(0.45)" xlink:href="#radial-gradient-7"/><radialGradient id="radial-gradient-32" cx="955.55" cy="1119.9" r="6.95" gradientTransform="matrix(0.28, -0.48, 0.48, 0.28, 54.85, 844.23)" xlink:href="#radial-gradient-6"/><radialGradient id="radial-gradient-33" cx="707.87" cy="1330.04" r="4.57" gradientTransform="translate(175.85 673.94) rotate(-60) scale(0.45)" xlink:href="#radial-gradient-7"/><radialGradient id="radial-gradient-34" cx="1354.63" cy="1519.25" r="6.95" gradientTransform="matrix(0.42, -0.35, 0.35, 0.42, -223, 564.23)" xlink:href="#radial-gradient-6"/><radialGradient id="radial-gradient-35" cx="1196.94" cy="1817.55" r="4.57" gradientTransform="translate(-50.38 446.18) rotate(-40) scale(0.45)" xlink:href="#radial-gradient-7"/><radialGradient id="radial-gradient-36" cx="1354.63" cy="1435.4" r="6.94" gradientTransform="matrix(0.42, -0.35, 0.35, 0.42, -223, 564.23)" xlink:href="#radial-gradient-6"/><radialGradient id="radial-gradient-37" cx="1196.94" cy="1714.77" r="4.57" gradientTransform="translate(-50.38 446.18) rotate(-40) scale(0.45)" xlink:href="#radial-gradient-7"/><radialGradient id="radial-gradient-38" cx="1837.58" cy="1676.65" r="6.94" gradientTransform="matrix(0.52, -0.19, 0.19, 0.52, -387.64, 207.36)" xlink:href="#radial-gradient-6"/><radialGradient id="radial-gradient-39" cx="1790.68" cy="2011.36" r="4.57" gradientTransform="matrix(0.42, -0.15, 0.15, 0.42, -185.97, 155.57)" xlink:href="#radial-gradient-7"/><radialGradient id="radial-gradient-40" cx="1837.59" cy="1592.78" r="6.94" gradientTransform="matrix(0.52, -0.19, 0.19, 0.52, -387.64, 207.36)" xlink:href="#radial-gradient-6"/><radialGradient id="radial-gradient-41" cx="1790.69" cy="1908.56" r="4.57" gradientTransform="matrix(0.42, -0.15, 0.15, 0.42, -185.97, 155.57)" xlink:href="#radial-gradient-7"/><radialGradient id="radial-gradient-42" cx="1676.61" cy="-1570.92" r="27.24" gradientTransform="translate(1628.44 1) rotate(180) scale(0.45)" gradientUnits="userSpaceOnUse"><stop offset="0"/><stop offset="0.14" stop-color="#050505" stop-opacity="0.86"/><stop offset="0.29" stop-color="#121212" stop-opacity="0.71"/><stop offset="0.44" stop-color="#282828" stop-opacity="0.56"/><stop offset="0.61" stop-color="#474747" stop-opacity="0.39"/><stop offset="0.77" stop-color="#6f6f6f" stop-opacity="0.23"/><stop offset="0.94" stop-color="#9f9f9f" stop-opacity="0.06"/><stop offset="1" stop-color="#b3b3b3" stop-opacity="0"/></radialGradient><radialGradient id="radial-gradient-44" cx="1672.59" cy="-1565.81" r="20.97" gradientTransform="translate(1628.44 1) rotate(180) scale(0.45)" gradientUnits="userSpaceOnUse"><stop offset="0" stop-color="#b3b3b3" stop-opacity="0"/><stop offset="0.26" stop-color="#afafaf" stop-opacity="0.26"/><stop offset="0.53" stop-color="#a3a3a4" stop-opacity="0.53"/><stop offset="0.8" stop-color="#8f9091" stop-opacity="0.8"/><stop offset="1" stop-color="#7b7c7f"/></radialGradient><radialGradient id="radial-gradient-45" cx="1672.59" cy="-1565.81" r="11.99" gradientTransform="translate(1628.44 1) rotate(180) scale(0.45)" gradientUnits="userSpaceOnUse"><stop offset="0" stop-color="#fff"/><stop offset="0.31" stop-color="#ececec" stop-opacity="0.69"/><stop offset="0.92" stop-color="#bababa" stop-opacity="0.08"/><stop offset="1" stop-color="#b3b3b3" stop-opacity="0"/></radialGradient><radialGradient id="radial-gradient-46" cx="2842.32" cy="-1570.82" r="109.28" xlink:href="#radial-gradient"/><radialGradient id="radial-gradient-47" cx="2842.32" cy="-1570.82" r="109.28" xlink:href="#radial-gradient-2"/><radialGradient id="radial-gradient-48" cx="2842.32" cy="-1570.82" r="98.27" xlink:href="#radial-gradient-3"/><radialGradient id="radial-gradient-50" cx="2842.32" cy="-1570.82" r="79.69" xlink:href="#radial-gradient-5"/><radialGradient id="radial-gradient-51" cx="2695.55" cy="-1202.28" r="6.94" xlink:href="#radial-gradient-6"/><radialGradient id="radial-gradient-52" cx="2841.24" cy="-1518.34" r="4.57" xlink:href="#radial-gradient-7"/><radialGradient id="radial-gradient-53" cx="2695.55" cy="-1286.15" r="6.94" xlink:href="#radial-gradient-6"/><radialGradient id="radial-gradient-54" cx="2841.24" cy="-1621.13" r="4.57" xlink:href="#radial-gradient-7"/><radialGradient id="radial-gradient-55" cx="2167.5" cy="-1338.77" r="6.95" gradientTransform="matrix(-0.52, -0.19, 0.19, -0.52, 1733.21, 401.33)" xlink:href="#radial-gradient-6"/><radialGradient id="radial-gradient-56" cx="2192.95" cy="-1687.06" r="4.57" gradientTransform="matrix(-0.42, -0.15, 0.15, -0.42, 1544.8, 310.24)" xlink:href="#radial-gradient-7"/><radialGradient id="radial-gradient-57" cx="2167.51" cy="-1422.64" r="6.94" gradientTransform="matrix(-0.52, -0.19, 0.19, -0.52, 1733.21, 401.33)" xlink:href="#radial-gradient-6"/><radialGradient id="radial-gradient-58" cx="2192.94" cy="-1789.86" r="4.57" gradientTransform="matrix(-0.42, -0.15, 0.15, -0.42, 1544.8, 310.24)" xlink:href="#radial-gradient-7"/><radialGradient id="radial-gradient-59" cx="1622.82" cy="-1285.75" r="6.94" gradientTransform="matrix(-0.42, -0.35, 0.35, -0.42, 1505.71, 722.62)" xlink:href="#radial-gradient-6"/><radialGradient id="radial-gradient-60" cx="1526.18" cy="-1619.71" r="4.57" gradientTransform="translate(1359.53 573.44) rotate(-140) scale(0.45)" xlink:href="#radial-gradient-7"/><radialGradient id="radial-gradient-61" cx="1622.82" cy="-1369.61" r="6.94" gradientTransform="matrix(-0.42, -0.35, 0.35, -0.42, 1505.71, 722.62)" xlink:href="#radial-gradient-6"/><radialGradient id="radial-gradient-62" cx="1526.18" cy="-1722.5" r="4.57" gradientTransform="translate(1359.53 573.44) rotate(-140) scale(0.45)" xlink:href="#radial-gradient-7"/><radialGradient id="radial-gradient-63" cx="1131.98" cy="-1050.61" r="6.94" gradientTransform="matrix(-0.28, -0.48, 0.48, -0.28, 1183.15, 947.64)" xlink:href="#radial-gradient-6"/><radialGradient id="radial-gradient-64" cx="922.37" cy="-1331.6" r="4.57" gradientTransform="translate(1096.37 756.7) rotate(-120) scale(0.45)" xlink:href="#radial-gradient-7"/><radialGradient id="radial-gradient-65" cx="1131.98" cy="-1134.49" r="6.95" gradientTransform="matrix(-0.28, -0.48, 0.48, -0.28, 1183.15, 947.64)" xlink:href="#radial-gradient-6"/><radialGradient id="radial-gradient-66" cx="922.36" cy="-1434.39" r="4.57" gradientTransform="translate(1096.37 756.7) rotate(-120) scale(0.45)" xlink:href="#radial-gradient-7"/><radialGradient id="radial-gradient-67" cx="747.93" cy="-660.72" r="6.94" gradientTransform="translate(802.3 1047.32) rotate(-100) scale(0.55)" xlink:href="#radial-gradient-6"/><radialGradient id="radial-gradient-68" cx="455.76" cy="-854.43" r="4.57" gradientTransform="matrix(-0.08, -0.44, 0.44, -0.08, 786.62, 839.81)" xlink:href="#radial-gradient-7"/><radialGradient id="radial-gradient-69" cx="747.93" cy="-744.59" r="6.94" gradientTransform="translate(802.3 1047.32) rotate(-100) scale(0.55)" xlink:href="#radial-gradient-6"/><radialGradient id="radial-gradient-70" cx="455.77" cy="-957.24" r="4.57" gradientTransform="matrix(-0.08, -0.44, 0.44, -0.08, 786.62, 839.81)" xlink:href="#radial-gradient-7"/><radialGradient id="radial-gradient-71" cx="522.45" cy="-163.05" r="6.94" gradientTransform="translate(410.15 1011.74) rotate(-80) scale(0.55)" xlink:href="#radial-gradient-6"/><radialGradient id="radial-gradient-72" cx="177.31" cy="-246.14" r="4.57" gradientTransform="matrix(0.08, -0.44, 0.44, 0.08, 467.28, 810.66)" xlink:href="#radial-gradient-7"/><radialGradient id="radial-gradient-73" cx="522.44" cy="-246.9" r="6.94" gradientTransform="translate(410.15 1011.74) rotate(-80) scale(0.55)" xlink:href="#radial-gradient-6"/><radialGradient id="radial-gradient-74" cx="177.3" cy="-348.94" r="4.57" gradientTransform="matrix(0.08, -0.44, 0.44, 0.08, 467.28, 810.66)" xlink:href="#radial-gradient-7"/><radialGradient id="radial-gradient-75" cx="479.92" cy="380.08" r="6.94" gradientTransform="matrix(0.28, -0.48, 0.48, 0.28, 54.85, 844.23)" xlink:href="#radial-gradient-6"/><radialGradient id="radial-gradient-76" cx="125.06" cy="423.34" r="4.57" gradientTransform="translate(175.85 673.94) rotate(-60) scale(0.45)" xlink:href="#radial-gradient-7"/><radialGradient id="radial-gradient-77" cx="479.92" cy="296.2" r="6.94" gradientTransform="matrix(0.28, -0.48, 0.48, 0.28, 54.85, 844.23)" xlink:href="#radial-gradient-6"/><radialGradient id="radial-gradient-78" cx="125.06" cy="320.55" r="4.57" gradientTransform="translate(175.85 673.94) rotate(-60) scale(0.45)" xlink:href="#radial-gradient-7"/><radialGradient id="radial-gradient-79" cx="626.09" cy="907.93" r="6.94" gradientTransform="matrix(0.42, -0.35, 0.35, 0.42, -223, 564.23)" xlink:href="#radial-gradient-6"/><radialGradient id="radial-gradient-80" cx="304.03" cy="1068.32" r="4.57" gradientTransform="translate(-50.38 446.18) rotate(-40) scale(0.45)" xlink:href="#radial-gradient-7"/><radialGradient id="radial-gradient-81" cx="626.09" cy="824.06" r="6.94" gradientTransform="matrix(0.42, -0.35, 0.35, 0.42, -223, 564.23)" xlink:href="#radial-gradient-6"/><radialGradient id="radial-gradient-82" cx="304.03" cy="965.54" r="4.57" gradientTransform="translate(-50.38 446.18) rotate(-40) scale(0.45)" xlink:href="#radial-gradient-7"/><radialGradient id="radial-gradient-83" cx="943.81" cy="1351.38" r="6.95" gradientTransform="matrix(0.52, -0.19, 0.19, 0.52, -387.64, 207.36)" xlink:href="#radial-gradient-6"/><radialGradient id="radial-gradient-84" cx="695.23" cy="1612.55" r="4.57" gradientTransform="matrix(0.42, -0.15, 0.15, 0.42, -185.97, 155.57)" xlink:href="#radial-gradient-7"/><radialGradient id="radial-gradient-85" cx="943.82" cy="1267.52" r="6.94" gradientTransform="matrix(0.52, -0.19, 0.19, 0.52, -387.64, 207.36)" xlink:href="#radial-gradient-6"/><radialGradient id="radial-gradient-86" cx="695.24" cy="1509.75" r="4.57" gradientTransform="matrix(0.42, -0.15, 0.15, 0.42, -185.97, 155.57)" xlink:href="#radial-gradient-7"/><radialGradient id="radial-gradient-87" cx="2842.33" cy="-1570.92" r="27.25" xlink:href="#radial-gradient-42"/><radialGradient id="radial-gradient-89" cx="2838.28" cy="-1565.81" r="20.97" xlink:href="#radial-gradient-44"/><radialGradient id="radial-gradient-90" cx="2838.28" cy="-1565.81" r="11.99" xlink:href="#radial-gradient-45"/><linearGradient id="linear-gradient-6" x1="1477.28" y1="496.23" x2="1471.37" y2="502.34" xlink:href="#linear-gradient-3"/><linearGradient id="linear-gradient-7" x1="2478.59" y1="503.24" x2="2457.08" y2="503.24" gradientTransform="translate(2561.18 1202) rotate(180)" gradientUnits="userSpaceOnUse"><stop offset="0" stop-color="#fff" stop-opacity="0"/><stop offset="1" stop-color="#496069"/></linearGradient><linearGradient id="linear-gradient-8" x1="2467.25" y1="526.38" x2="2467.25" y2="485.27" xlink:href="#linear-gradient-7"/><linearGradient id="linear-gradient-9" x1="2045.7" y1="515.81" x2="2059.77" y2="515.81" gradientTransform="translate(2561.18 1202) rotate(180)" gradientUnits="userSpaceOnUse"><stop offset="0" stop-color="#d77e11" stop-opacity="0"/><stop offset="0.83" stop-color="#d77e11"/></linearGradient><radialGradient id="radial-gradient-91" cx="2485.32" cy="-1429.31" r="20.52" gradientTransform="translate(1628.44 571.2) rotate(180) scale(0.45 0.08)" gradientUnits="userSpaceOnUse"><stop offset="0" stop-color="#fcee21"/><stop offset="0.08" stop-color="#f9e420" stop-opacity="0.92"/><stop offset="0.71" stop-color="#e19b15" stop-opacity="0.29"/><stop offset="1" stop-color="#d77e11" stop-opacity="0"/></radialGradient><linearGradient id="linear-gradient-10" x1="1877.15" y1="515.81" x2="1891.22" y2="515.81" xlink:href="#linear-gradient-9"/><radialGradient id="radial-gradient-92" cx="2110.92" cy="-1429.31" r="20.52" xlink:href="#radial-gradient-91"/><linearGradient id="linear-gradient-11" x1="1775.76" y1="515.81" x2="1789.83" y2="515.81" xlink:href="#linear-gradient-9"/><radialGradient id="radial-gradient-93" cx="1885.74" cy="-1429.31" r="20.52" xlink:href="#radial-gradient-91"/><linearGradient id="linear-gradient-12" x1="1599.55" y1="515.81" x2="1613.62" y2="515.81" xlink:href="#linear-gradient-9"/><radialGradient id="radial-gradient-94" cx="1494.31" cy="-1429.31" r="20.52" xlink:href="#radial-gradient-91"/><linearGradient id="linear-gradient-13" x1="1599.55" y1="572.75" x2="1613.62" y2="572.75" xlink:href="#linear-gradient-9"/><radialGradient id="radial-gradient-95" cx="1494.31" cy="-1355.57" r="20.52" gradientTransform="translate(1628.44 520.11) rotate(180) scale(0.45 0.08)" xlink:href="#radial-gradient-91"/><linearGradient id="linear-gradient-14" x1="1420.3" y1="532.76" x2="1487.91" y2="532.76" gradientTransform="translate(2561.18 1202) rotate(180)" gradientUnits="userSpaceOnUse"><stop offset="0" stop-color="#ccc"/><stop offset="0.39" stop-color="#e8e8e8"/><stop offset="0.74" stop-color="#f9f9f9"/><stop offset="1" stop-color="#fff"/></linearGradient><linearGradient id="linear-gradient-15" x1="1454.74" y1="533.58" x2="1479.49" y2="533.58" xlink:href="#linear-gradient-14"/><radialGradient id="radial-gradient-96" cx="1186.97" cy="-1482.57" r="34.24" gradientTransform="translate(1628.44 1) rotate(180) scale(0.45)" gradientUnits="userSpaceOnUse"><stop offset="0" stop-color="#fff"/><stop offset="0.29" stop-color="#fdfdfd"/><stop offset="0.45" stop-color="#f5f5f5"/><stop offset="0.58" stop-color="#e7e7e7"/><stop offset="0.69" stop-color="#d3d3d3"/><stop offset="0.79" stop-color="#bababa"/><stop offset="0.88" stop-color="#9b9b9b"/><stop offset="0.97" stop-color="#777"/><stop offset="1" stop-color="#666"/></radialGradient><radialGradient id="radial-gradient-97" cx="1186.97" cy="-1482.58" r="7.7" xlink:href="#radial-gradient-96"/><linearGradient id="linear-gradient-16" x1="1473.79" y1="541.82" x2="1479.86" y2="522.2" gradientTransform="translate(2561.18 1202) rotate(180)" gradientUnits="userSpaceOnUse"><stop offset="0" stop-color="#666"/><stop offset="0.13" stop-color="#888"/><stop offset="0.33" stop-color="#b2b2b2"/><stop offset="0.52" stop-color="#d4d4d4"/><stop offset="0.69" stop-color="#ececec"/><stop offset="0.86" stop-color="#fafafa"/><stop offset="1" stop-color="#fff"/></linearGradient><linearGradient id="linear-gradient-17" x1="1484.62" y1="727.06" x2="1488.08" y2="716.95" gradientTransform="translate(2561.18 1202) rotate(180)" gradientUnits="userSpaceOnUse"><stop offset="0" stop-color="#fff" stop-opacity="0"/><stop offset="0.11" stop-color="#d9d9d9" stop-opacity="0.11"/><stop offset="0.25" stop-color="#afafaf" stop-opacity="0.25"/><stop offset="0.4" stop-color="#8b8b8b" stop-opacity="0.4"/><stop offset="0.55" stop-color="#707070" stop-opacity="0.55"/><stop offset="0.69" stop-color="#5c5c5c" stop-opacity="0.69"/><stop offset="0.84" stop-color="#515151" stop-opacity="0.84"/><stop offset="1" stop-color="#4d4d4d"/></linearGradient><linearGradient id="linear-gradient-18" x1="1521.67" y1="730.57" x2="1531.8" y2="730.57" gradientTransform="translate(2540.3 773) rotate(180)" xlink:href="#linear-gradient-17"/><linearGradient id="linear-gradient-19" x1="1444.25" y1="676.53" x2="1458.58" y2="676.53" xlink:href="#linear-gradient-3"/></defs><title>8</title><path d="M1179.12,753.83c0,9.46-259.25,17.17-579.12,17.17S20.88,763.29,20.88,753.83,280.13,736.65,600,736.65,1179.12,744.28,1179.12,753.83Z" transform="translate(-20.88 -429)" style="fill:#1b1b19"/><path d="M168.37,447.18H251.2a.43.43,0,0,0,.46-.46v-6.15a.44.44,0,0,0-.46-.46H168.37a.44.44,0,0,0-.46.46v6.15A.49.49,0,0,0,168.37,447.18Z" transform="translate(-20.88 -429)" style="fill:#fff"/><path d="M168.37,447.18H251.2a.43.43,0,0,0,.46-.46v-6.15a.44.44,0,0,0-.46-.46H168.37a.44.44,0,0,0-.46.46v6.15A.49.49,0,0,0,168.37,447.18Z" transform="translate(-20.88 -429)" style="fill:#88a84c"/><path d="M864,447.18h82.84a.44.44,0,0,0,.46-.46v-6.15a.44.44,0,0,0-.46-.46H864a.44.44,0,0,0-.46.46v6.15A.49.49,0,0,0,864,447.18Z" transform="translate(-20.88 -429)" style="fill:#fff"/><path d="M864,447.18h82.84a.44.44,0,0,0,.46-.46v-6.15a.44.44,0,0,0-.46-.46H864a.44.44,0,0,0-.46.46v6.15A.49.49,0,0,0,864,447.18Z" transform="translate(-20.88 -429)" style="fill:#88a84c"/><path d="M454.71,448.84H313l.28-1a68.58,68.58,0,0,1,7.07-6.71,32.94,32.94,0,0,1,20.94-7.07H454.71Z" transform="translate(-20.88 -429)" style="fill:#fff"/><path d="M454.71,448.84H313l.28-1a68.58,68.58,0,0,1,7.07-6.71,32.94,32.94,0,0,1,20.94-7.07H454.71Z" transform="translate(-20.88 -429)" style="fill:#88a84c"/><rect x="412.9" y="5.05" width="20.85" height="14.79" style="fill:url(#linear-gradient)"/><path d="M448.19,448.84V433c0-2.2,2.3-4,5.15-4H792.86c9.82,0,19.19,3.12,25.9,8.72a85.29,85.29,0,0,1,8.72,8.27l.83,2.85Z" transform="translate(-20.88 -429)" style="fill:#fff"/><path d="M448.19,448.84V433c0-2.2,2.3-4,5.15-4H792.86c9.82,0,19.19,3.12,25.9,8.72a85.29,85.29,0,0,1,8.72,8.27l.83,2.85Z" transform="translate(-20.88 -429)" style="fill:#88a84c"/><rect x="790.35" y="213.06" width="126.18" height="84.67"/><rect x="265.68" y="210.03" width="126.18" height="84.67"/><polygon points="1074.03 130.87 1066.32 125.63 1066.41 128.85 1073.57 135.28 1074.03 130.87" style="fill:url(#linear-gradient-2)"/><path d="M1094.91,559.87a11.52,11.52,0,0,1,1.47,4.22c.18,2.11,0,36.46-3.77,51.43l-3.76-3.58,4.86-42.15-.36-11Z" transform="translate(-20.88 -429)" style="fill:url(#linear-gradient-3)"/><path d="M1094.82,612.49l-6.25-1.93-1.38,2.57L1089,621l4.78-.64C1093.71,620.39,1099.13,617,1094.82,612.49Z" transform="translate(-20.88 -429)" style="fill:url(#linear-gradient-4)"/><path d="M815.63,717.73v19H813.7s-1.56-5-3.12-5.69-11.39-6.34-11.39-12.31Z" transform="translate(-20.88 -429)"/><path d="M290.69,717.73v23.15h-1.92s-1.57-6.16-3.13-7-11.38-7.72-11.38-15.06Z" transform="translate(-20.88 -429)"/><polygon points="767.75 290.39 767.75 302.14 637.99 302.14 633.58 306.64 501.43 306.64 496.19 301.41 396.83 301.41 396.83 287.45 767.75 290.39"/><path d="M89.76,712c6.7,3.49,17.63,6.15,29.75,8.27.18,0,.46.09.64.09s.46.09.65.09c3.76.64,7.71,1.19,11.57,1.74,3.4.46,6.7.92,10.1,1.29,23.14,2.66,44.08,3.58,44.08,3.58H292.16c.1-1.19.19-2.39.19-3.58a6.23,6.23,0,0,1,.09-1.29,363.44,363.44,0,0,1,7-53,63.36,63.36,0,0,1,98.81,0,376.62,376.62,0,0,1,7,53c0,.46.1.83.1,1.29.09,1.19.18,2.39.18,3.58H817c.09-1.19.18-2.39.18-3.58a5.62,5.62,0,0,1,.1-1.29,363.44,363.44,0,0,1,7-53,63.36,63.36,0,0,1,98.81,0,376.62,376.62,0,0,1,7,53c0,.46.09.83.09,1.29.09,1.19.19,2.39.19,3.58h150.88l2.58-3.12c.09-.18.18-.28.27-.46.28-.37.55-.83.83-1.29a47,47,0,0,0,4.77-12.39c.74-3,1.29-6,1.66-8.54.64-4.87.73-8.27.73-8.27s.18-2.85.28-8c.18-6.7.46-17.26.46-30.31,0-3.12,0-6.42-.1-9.91v-2.94c-.45-35.82-3-84.12-12-123.43-.18-.74-.27-1.38-.46-2.11-8.44-35.45-22.77-53.27-34.89-62.18-11.85-8.81-21.49-9.09-21.49-9.09H101.14c-14.51,14.05-14.51,84.22-14.51,84.22V678.52C84.7,701.3,89.76,712,89.76,712Z" transform="translate(-20.88 -429)" style="fill:#fff"/><path d="M89.76,712c6.61,3.4,17.26,6.06,29.11,8.17.18,0,.46.1.64.1s.46.09.64.09c2,.37,4,.64,6.06,1,2.3.37,4.6.64,6.89,1l4,.55h.09c3.68.46,7.35.92,10.93,1.29h0c.28,0,.46.09.74.09,2.11.18,4.22.46,6.24.64,2.67.28,5.15.46,7.53.64l2.85.28c.83.09,1.75.09,2.57.18s1.47.09,2.21.19c1.83.18,3.49.27,5,.36a3.23,3.23,0,0,1,.92.09c.91.1,1.83.1,2.57.19.46,0,.92.09,1.28.09a3.16,3.16,0,0,1,.92.09h1.38a3.56,3.56,0,0,1,.92.09h.18a2.63,2.63,0,0,1,.92.1H292.07c.28-5.7.74-11.12,1.2-16.17.09-.55.09-1.1.18-1.65s.09-1.1.18-1.65c.55-5.42,1.1-10.47,1.75-15.07.09-.91.27-1.92.36-2.84a19.4,19.4,0,0,1,.37-2.3c.19-1.1.37-2.2.55-3.3.1-.55.19-1,.28-1.57.18-.91.27-1.74.46-2.66.27-1.47.55-2.85.73-4.22.19-1,.37-2,.55-2.94.28-1.2.46-2.39.74-3.49a63.34,63.34,0,0,1,98.81,0c.19,1,.46,2.11.65,3.3s.55,2.67.82,4.14c.1.64.28,1.37.37,2.11.37,2.11.74,4.5,1.2,6.89.18,1.1.36,2.2.55,3.4v.09c.18,1.1.27,2.2.46,3.3s.36,2.48.55,3.86.27,2.57.46,4c.18,1.19.27,2.3.36,3.58.09.55.09,1,.19,1.56.55,5.42,1.1,11.3,1.47,17.54v1.75c.09.82.09,1.65.18,2.48H817c.28-5.7.73-11.11,1.19-16.17.1-.55.1-1.1.19-1.65s.09-1.1.18-1.65c.55-5.42,1.1-10.47,1.75-15.06.09-.92.27-1.93.36-2.85a19.4,19.4,0,0,1,.37-2.3c.18-1.1.37-2.2.55-3.3.09-.55.19-1,.28-1.56.18-.92.27-1.75.46-2.67.27-1.47.55-2.84.73-4.22.19-1,.37-2,.55-2.94.28-1.19.46-2.39.74-3.49a63.36,63.36,0,0,1,98.81,0c.19,1,.46,2.11.65,3.31s.55,2.66.82,4.13c.09.64.28,1.38.37,2.11.37,2.11.73,4.5,1.19,6.89.19,1.1.37,2.2.56,3.4v.09c.18,1.1.27,2.2.45,3.3s.37,2.48.56,3.86.27,2.57.45,3.95c.19,1.19.28,2.3.37,3.58.09.55.09,1,.19,1.56.55,5.42,1.1,11.3,1.46,17.54V725c.1.83.1,1.65.19,2.48h150.79l2.58-3.12c.09-.19.18-.28.27-.46.28-.37.55-.83.83-1.29a46.93,46.93,0,0,0,4.77-12.4c.74-3,1.29-6,1.66-8.54.64-4.86.73-8.26.73-8.26s.18-2.85.28-8c.18-6.71.46-17.27.46-30.31,0-3.12,0-6.43-.1-9.92v-2.94c-.45-35.81-3-84.12-12-123.42-.18-.74-.27-1.38-.46-2.12-8.44-35.44-22.77-53.26-34.89-62.17-11.85-8.82-21.49-9.09-21.49-9.09H101.14c-14.51,13.68-14.51,83.85-14.51,83.85V678.52C84.7,701.3,89.76,712,89.76,712Z" transform="translate(-20.88 -429)" style="fill:#a7cb64"/><path d="M86.17,587.88c5.61,4.77,12,12.4,14,23v68a1.9,1.9,0,0,1-1.65,2.11H86.17Z" transform="translate(-20.88 -429)" style="fill:#5e130c"/><path d="M86.17,590.54c5,4.59,10.66,11.48,12.31,20.76v67.5H86.17Z" transform="translate(-20.88 -429)" style="fill:#c1272d"/><path d="M86.17,635.45c4.6-5.79,9.1-10.84,12.31-14.24V678.8H86.17Z" transform="translate(-20.88 -429)" style="fill:url(#linear-gradient-5)"/><path d="M120.15,638.94V720.4c29.76,5.14,66.4,6.79,66.4,6.79H292.16a371.82,371.82,0,0,1,7.26-57.85,63.34,63.34,0,0,1,98.81,0,383.39,383.39,0,0,1,7.26,57.85H817a371.82,371.82,0,0,1,7.26-57.85,63.34,63.34,0,0,1,98.81,0,383.39,383.39,0,0,1,7.26,57.85h38V639H120.15Z" transform="translate(-20.88 -429)" style="fill:#29abe2"/><path d="M120.15,638.94V720.4c2,.37,4,.64,6.06,1,2.3.37,4.6.64,6.89,1l4,.55h.09c3.68.46,7.35.92,10.93,1.29h0c.28,0,.46.09.74.09,2.11.18,4.22.46,6.24.64,2.67.28,5.15.46,7.53.64l2.85.28c.83.09,1.75.09,2.57.18s1.47.09,2.21.19c1.83.18,3.49.27,5,.36a3.23,3.23,0,0,1,.92.09c.91.1,1.83.1,2.57.19.46,0,.92.09,1.28.09a3.16,3.16,0,0,1,.92.09h1.38a3.56,3.56,0,0,1,.92.09h.18a2.63,2.63,0,0,1,.92.1H292.07c.28-5.7.74-11.12,1.2-16.17a10.28,10.28,0,0,1,.18-1.65c.09-.55.09-1.1.18-1.65.55-5.42,1.1-10.47,1.75-15.06.09-.92.27-1.93.36-2.85a19.4,19.4,0,0,1,.37-2.3c.19-1.1.37-2.2.55-3.3.1-.55.19-1,.28-1.57.18-.91.27-1.74.46-2.66.27-1.47.55-2.85.73-4.22.19-1,.37-2,.55-2.94.28-1.2.46-2.39.74-3.49a63.34,63.34,0,0,1,98.81,0c.19,1,.46,2.11.65,3.3s.55,2.67.82,4.14c.1.64.28,1.37.37,2.11.37,2.11.74,4.5,1.2,6.89.18,1.1.36,2.2.55,3.4v.09c.18,1.1.27,2.2.46,3.3s.36,2.48.55,3.86.27,2.57.46,4c.18,1.19.27,2.3.36,3.58.09.55.09,1,.19,1.56.55,5.42,1.1,11.3,1.47,17.54v.65a1.58,1.58,0,0,0,.09.64v.46c.09.82.09,1.65.18,2.48H817.1c.28-5.7.74-11.11,1.2-16.17a10.28,10.28,0,0,1,.18-1.65c.09-.55.09-1.1.18-1.65.55-5.42,1.11-10.47,1.75-15.06.09-.92.27-1.93.37-2.85a17.58,17.58,0,0,1,.36-2.3c.19-1.1.37-2.2.55-3.3.1-.55.19-1,.28-1.56.18-.92.27-1.75.46-2.67.27-1.47.55-2.84.73-4.22.19-1,.37-2,.55-2.94.28-1.19.46-2.39.74-3.49a63.37,63.37,0,0,1,98.82,0c.18,1,.45,2.11.64,3.31s.55,2.66.82,4.13c.1.64.28,1.38.37,2.11.37,2.11.74,4.5,1.2,6.89.18,1.1.36,2.2.55,3.4v.09c.18,1.1.27,2.2.46,3.31s.36,2.47.55,3.85.27,2.57.46,3.95c.18,1.2.27,2.3.36,3.58.1.55.1,1,.19,1.56.55,5.42,1.1,11.3,1.47,17.54v.65a1.58,1.58,0,0,0,.09.64V725c.09.83.09,1.65.18,2.48h38V639.31H120.15Z" transform="translate(-20.88 -429)" style="fill:#88a84c"/><path d="M118.87,567.49V720.21c.18,0,.46.1.64.1s.46.09.64.09V640.22H254.33V723H137.23c3.68.46,7.35.92,10.93,1.29H254.33v3.58h1.28v-3.58H291.8a6.23,6.23,0,0,1,.09-1.29H255.61V640.22H422.94V723H404.57c0,.46.09.83.09,1.29h18.28v3.58h1.28v-3.58H591.55v2.93h1.29v-2.93H760.16v2.93h1.29v-2.93h55.28a5.62,5.62,0,0,1,.1-1.29H761.45V640.22H967.16V723H929.51c0,.46.09.83.09,1.29h37.56v2.93h1.29v-2.93h84.76c-.64,1-1.37,1.92-2.11,2.93h1.56c.74-1,1.38-1.92,2.12-2.93h28.83c.28-.37.55-.83.83-1.29H1055.6a59.37,59.37,0,0,0,8.82-25.16v-49.6L1058,634.9l-1.1.55,6.24,13v49.32a56.71,56.71,0,0,1-9,25.16H968.27V639H120.15V567.58l-1.28-.09Zm473.87,72.73H760.07V723H592.74Zm-168.61,0H591.46V723H424.13Z" transform="translate(-20.88 -429)" style="fill:#fff;opacity:0.5;isolation:isolate"/><polygon points="945.27 179.08 934.71 165.21 99.28 165.21 99.28 151.71 945.27 151.71 945.27 179.08" style="fill:#29abe2"/><polygon points="945.27 179.08 934.71 165.21 99.28 165.21 99.28 151.71 945.27 151.71 945.27 179.08" style="fill:#88a84c"/><path d="M824.45,705.61A49.2,49.2,0,1,0,871,659.05,49.22,49.22,0,0,0,824.45,705.61Z" transform="translate(-20.88 -429)" style="fill:url(#radial-gradient)"/><path d="M824.45,705.61A49.2,49.2,0,1,0,871,659.05,49.22,49.22,0,0,0,824.45,705.61Z" transform="translate(-20.88 -429)" style="fill:url(#radial-gradient-2)"/><path d="M841.71,708.18a29.15,29.15,0,0,0,1.47,9.46A31.24,31.24,0,0,0,850.35,730a32.29,32.29,0,0,0,16.25,9.37,30.5,30.5,0,0,0,7.07.82,29.82,29.82,0,0,0,7.07-.82,32.11,32.11,0,0,0,24.89-31.14,29.2,29.2,0,0,0-1.47-9.46,32.06,32.06,0,0,0-23.42-21.67,30.38,30.38,0,0,0-7.07-.83,29.88,29.88,0,0,0-7.07.83,32.11,32.11,0,0,0-23.42,21.67A29.63,29.63,0,0,0,841.71,708.18Z" transform="translate(-20.88 -429)" style="fill:#b3b3b3"/><path d="M841.71,708.18a29.15,29.15,0,0,0,1.47,9.46A31.24,31.24,0,0,0,850.35,730a32.29,32.29,0,0,0,16.25,9.37,30.5,30.5,0,0,0,7.07.82,29.82,29.82,0,0,0,7.07-.82,32.11,32.11,0,0,0,24.89-31.14,29.2,29.2,0,0,0-1.47-9.46,32.06,32.06,0,0,0-23.42-21.67,30.38,30.38,0,0,0-7.07-.83,29.88,29.88,0,0,0-7.07.83,32.11,32.11,0,0,0-23.42,21.67A29.63,29.63,0,0,0,841.71,708.18Z" transform="translate(-20.88 -429)" style="fill:url(#radial-gradient-3)"/><path d="M841.71,708.18a29.15,29.15,0,0,0,1.47,9.46A31.24,31.24,0,0,0,850.35,730a32.29,32.29,0,0,0,16.25,9.37,30.5,30.5,0,0,0,7.07.82,29.82,29.82,0,0,0,7.07-.82,32.11,32.11,0,0,0,24.89-31.14,29.2,29.2,0,0,0-1.47-9.46,32.06,32.06,0,0,0-23.42-21.67,30.38,30.38,0,0,0-7.07-.83,29.88,29.88,0,0,0-7.07.83,32.11,32.11,0,0,0-23.42,21.67A29.63,29.63,0,0,0,841.71,708.18Z" transform="translate(-20.88 -429)" style="fill:url(#radial-gradient-3)"/><path d="M845.3,708.18a27.66,27.66,0,0,0,1.28,8.36,29,29,0,0,0,6.34,10.93A28.16,28.16,0,0,0,880,735.83a28.53,28.53,0,0,0,20.76-19.29,28.56,28.56,0,0,0,1.28-8.36,27.6,27.6,0,0,0-1.28-8.35A28.53,28.53,0,0,0,880,680.54a27.85,27.85,0,0,0-12.67,0,28.53,28.53,0,0,0-20.76,19.29A28.55,28.55,0,0,0,845.3,708.18Z" transform="translate(-20.88 -429)"/><path d="M873.58,664.47a.39.39,0,0,0,.37-.37V661a.4.4,0,0,0-.37-.37.41.41,0,0,0-.37.37v3.12C873.31,664.38,873.4,664.47,873.58,664.47Z" transform="translate(-20.88 -429)"/><path d="M873.58,755.66a.39.39,0,0,0,.37-.36v-3.13a.39.39,0,0,0-.37-.36.4.4,0,0,0-.37.36v3.13C873.31,755.48,873.4,755.66,873.58,755.66Z" transform="translate(-20.88 -429)"/><path d="M881.3,665.2a.24.24,0,0,0,.27-.27l.55-3c0-.19-.09-.37-.27-.37s-.37.09-.37.28l-.55,3c0,.09.09.27.37.36Z" transform="translate(-20.88 -429)"/><path d="M865.41,754.93c.18,0,.27-.09.27-.28l.55-3c0-.18-.09-.36-.27-.36s-.37.09-.37.27l-.55,3a.4.4,0,0,0,.37.37Z" transform="translate(-20.88 -429)"/><path d="M888.64,667.13c.09,0,.28-.09.28-.18l1-2.94a.34.34,0,0,0-.19-.46.33.33,0,0,0-.45.18l-1,2.94a.33.33,0,0,0,.18.46Z" transform="translate(-20.88 -429)"/><path d="M857.51,752.82c.09,0,.28-.1.28-.19l1-2.94a.35.35,0,1,0-.65-.27l-1,2.94a.34.34,0,0,0,.19.46Z" transform="translate(-20.88 -429)"/><path d="M895.62,670.44c.09,0,.19-.09.28-.18l1.56-2.67a.41.41,0,0,0-.09-.46.41.41,0,0,0-.46.09l-1.56,2.67a.41.41,0,0,0,.09.46C895.53,670.35,895.53,670.44,895.62,670.44Z" transform="translate(-20.88 -429)"/><path d="M850.07,749.33c.09,0,.19-.1.28-.19l1.56-2.66a.41.41,0,0,0-.09-.46.41.41,0,0,0-.46.09l-1.56,2.67a.38.38,0,0,0,.09.45C850,749.33,850,749.33,850.07,749.33Z" transform="translate(-20.88 -429)"/><path d="M902,674.85a.33.33,0,0,0,.27-.09l2-2.39a.43.43,0,0,0,0-.46.42.42,0,0,0-.46,0l-2,2.39a.39.39,0,0,0,0,.46A.31.31,0,0,0,902,674.85Z" transform="translate(-20.88 -429)"/><path d="M843.37,744.64a.33.33,0,0,0,.27-.09l2-2.39a.39.39,0,0,0,0-.46.42.42,0,0,0-.46,0l-2,2.39a.43.43,0,0,0,0,.46C843.18,744.64,843.28,744.64,843.37,744.64Z" transform="translate(-20.88 -429)"/><path d="M907.38,680.27c.09,0,.18,0,.18-.1l2.39-2a.33.33,0,0,0-.46-.46l-2.39,2a.31.31,0,0,0,0,.46C907.19,680.17,907.29,680.27,907.38,680.27Z" transform="translate(-20.88 -429)"/><path d="M837.49,738.86c.09,0,.18,0,.18-.09l2.39-2a.3.3,0,0,0,0-.45.29.29,0,0,0-.46,0l-2.39,2a.31.31,0,0,0,0,.46C837.31,738.77,837.4,738.86,837.49,738.86Z" transform="translate(-20.88 -429)"/><path d="M911.79,686.51H912l2.66-1.56c.19-.09.19-.28.09-.46s-.27-.18-.45-.09L911.6,686c-.18.09-.18.27-.09.46S911.6,686.51,911.79,686.51Z" transform="translate(-20.88 -429)"/><path d="M832.81,732.06H833l2.66-1.56c.19-.09.19-.28.09-.46s-.27-.18-.45-.09l-2.67,1.56c-.18.09-.18.28-.09.46A.34.34,0,0,0,832.81,732.06Z" transform="translate(-20.88 -429)"/><path d="M915,693.49h0l3-1a.33.33,0,0,0,.18-.46.32.32,0,0,0-.45-.18l-2.94,1a.33.33,0,0,0-.19.46A.49.49,0,0,0,915,693.49Z" transform="translate(-20.88 -429)"/><path d="M829.32,724.62h0l3-1a.35.35,0,1,0-.28-.64l-2.94,1a.34.34,0,0,0-.18.46A.68.68,0,0,0,829.32,724.62Z" transform="translate(-20.88 -429)"/><path d="M916.93,700.93h0l3.12-.55c.18,0,.28-.19.28-.37s-.19-.28-.37-.28l-3,.56c-.19,0-.28.18-.28.36A.43.43,0,0,0,916.93,700.93Z" transform="translate(-20.88 -429)"/><path d="M827.2,716.72h0l3.13-.55c.18,0,.27-.18.27-.36s-.18-.28-.37-.28l-3,.55c-.18,0-.27.19-.27.37A.24.24,0,0,0,827.2,716.72Z" transform="translate(-20.88 -429)"/><path d="M917.66,708.55h3.13a.37.37,0,0,0,0-.73h-3.13a.37.37,0,0,0,0,.73Z" transform="translate(-20.88 -429)"/><path d="M826.47,708.55h3.12a.37.37,0,1,0,0-.73h-3.12a.4.4,0,0,0-.37.36C826.19,708.37,826.29,708.55,826.47,708.55Z" transform="translate(-20.88 -429)"/><path d="M920.05,716.72a.25.25,0,0,0,.28-.27c0-.18-.1-.37-.28-.37l-3-.55c-.18,0-.37.09-.37.28s.09.36.28.36l3.12.55Z" transform="translate(-20.88 -429)"/><path d="M830.23,700.93a.24.24,0,0,0,.28-.28c0-.18-.09-.36-.28-.36l-3-.56c-.18,0-.36.1-.36.28s.09.37.27.37l3.12.55Z" transform="translate(-20.88 -429)"/><path d="M917.85,724.62c.09,0,.27-.09.27-.18a.34.34,0,0,0-.18-.46L915,723a.35.35,0,1,0-.28.64l2.94,1Z" transform="translate(-20.88 -429)"/><path d="M832.26,693.49c.09,0,.27-.09.27-.18a.34.34,0,0,0-.18-.46l-2.94-1a.33.33,0,0,0-.46.18.34.34,0,0,0,.18.46l2.94,1Z" transform="translate(-20.88 -429)"/><path d="M914.45,732.06c.09,0,.18-.09.27-.18a.39.39,0,0,0-.09-.46L912,729.86a.33.33,0,0,0-.37.55l2.67,1.56C914.27,732.06,914.36,732.06,914.45,732.06Z" transform="translate(-20.88 -429)"/><path d="M835.47,686.51c.09,0,.18-.09.27-.18a.39.39,0,0,0-.09-.46L833,684.31a.4.4,0,0,0-.46.09.41.41,0,0,0,.09.46l2.67,1.56C835.38,686.51,835.38,686.51,835.47,686.51Z" transform="translate(-20.88 -429)"/><path d="M909.67,738.86a.34.34,0,0,0,.28-.09.43.43,0,0,0,0-.46l-2.39-2a.38.38,0,0,0-.46,0,.41.41,0,0,0,0,.45l2.39,2A.31.31,0,0,1,909.67,738.86Z" transform="translate(-20.88 -429)"/><path d="M839.88,680.27a.31.31,0,0,0,.27-.1.43.43,0,0,0,0-.46l-2.38-2a.42.42,0,0,0-.46,0,.39.39,0,0,0,0,.46l2.38,2A.35.35,0,0,0,839.88,680.27Z" transform="translate(-20.88 -429)"/><path d="M903.89,744.64c.09,0,.18,0,.18-.09a.3.3,0,0,0,0-.46l-2-2.39a.33.33,0,0,0-.46.46l2,2.39C903.7,744.55,903.8,744.64,903.89,744.64Z" transform="translate(-20.88 -429)"/><path d="M845.3,674.85c.09,0,.18,0,.18-.09a.31.31,0,0,0,0-.46l-2-2.39a.3.3,0,0,0-.46,0,.31.31,0,0,0,0,.46l2,2.39C845.11,674.76,845.2,674.85,845.3,674.85Z" transform="translate(-20.88 -429)"/><path d="M897.18,749.33h.19c.18-.1.18-.28.09-.46l-1.56-2.67c-.09-.18-.28-.18-.46-.09s-.18.28-.09.46l1.56,2.66C896.91,749.33,897.09,749.33,897.18,749.33Z" transform="translate(-20.88 -429)"/><path d="M851.63,670.44h.19c.18-.09.18-.28.09-.46l-1.56-2.66c-.09-.19-.28-.19-.46-.1s-.19.28-.09.46l1.56,2.67A.39.39,0,0,0,851.63,670.44Z" transform="translate(-20.88 -429)"/><path d="M889.74,752.82h0c.28-.1.37-.28.28-.46l-1-2.94a.34.34,0,0,0-.46-.19.34.34,0,0,0-.18.46l1,2.94A.48.48,0,0,0,889.74,752.82Z" transform="translate(-20.88 -429)"/><path d="M858.52,667.13h0c.28-.09.37-.27.28-.46l-1-2.94a.34.34,0,0,0-.46-.18.34.34,0,0,0-.19.46l1,2.94C858.34,667,858.43,667.13,858.52,667.13Z" transform="translate(-20.88 -429)"/><path d="M881.76,754.93h0c.27,0,.36-.19.27-.37l-.55-3c0-.18-.18-.27-.37-.27s-.27.18-.27.36l.55,3A.47.47,0,0,0,881.76,754.93Z" transform="translate(-20.88 -429)"/><path d="M866,665.2h0c.27,0,.37-.18.27-.36l-.55-3c0-.19-.18-.28-.36-.28s-.28.18-.28.37l.55,3C865.68,665,865.78,665.2,866,665.2Z" transform="translate(-20.88 -429)"/><circle cx="852.7" cy="279.18" r="28.74" style="fill:#e6e6e6"/><circle cx="852.7" cy="279.18" r="28.74" style="fill:url(#radial-gradient-5)"/><path d="M869.82,684.31a3.91,3.91,0,0,0,4.59,4.59,4,4,0,0,0,3-3,3.89,3.89,0,1,0-7.62-1.56Z" transform="translate(-20.88 -429)" style="opacity:0.699999988079071;isolation:isolate;fill:url(#radial-gradient-6)"/><path d="M871.84,684.49a1.78,1.78,0,0,0,2.29,2.3,1.67,1.67,0,0,0,1.1-1.11,1.78,1.78,0,0,0-2.29-2.29A1.63,1.63,0,0,0,871.84,684.49Z" transform="translate(-20.88 -429)" style="fill:url(#radial-gradient-7)"/><path d="M869.82,730.59a3.89,3.89,0,1,0,3-3A3.91,3.91,0,0,0,869.82,730.59Z" transform="translate(-20.88 -429)" style="opacity:0.699999988079071;isolation:isolate;fill:url(#radial-gradient-8)"/><path d="M871.84,730.78a1.78,1.78,0,0,0,2.29,2.29,1.63,1.63,0,0,0,1.1-1.1,1.78,1.78,0,0,0-2.29-2.3A1.65,1.65,0,0,0,871.84,730.78Z" transform="translate(-20.88 -429)" style="fill:url(#radial-gradient-9)"/><path d="M878.17,684.49a3.94,3.94,0,0,0,2.76,5.88,3.65,3.65,0,0,0,3.86-1.84,3.94,3.94,0,0,0-2.76-5.88A3.78,3.78,0,0,0,878.17,684.49Z" transform="translate(-20.88 -429)" style="opacity:0.699999988079071;isolation:isolate;fill:url(#radial-gradient-10)"/><path d="M880.1,685.32a1.87,1.87,0,0,0,1.38,3,2.17,2.17,0,0,0,1.47-.65,1.87,1.87,0,0,0-1.38-3A1.6,1.6,0,0,0,880.1,685.32Z" transform="translate(-20.88 -429)" style="fill:url(#radial-gradient-11)"/><path d="M862.38,727.93a3.94,3.94,0,0,0,2.75,5.88A3.65,3.65,0,0,0,869,732a3.94,3.94,0,0,0-2.76-5.88A4.09,4.09,0,0,0,862.38,727.93Z" transform="translate(-20.88 -429)" style="opacity:0.699999988079071;isolation:isolate;fill:url(#radial-gradient-12)"/><path d="M864.31,728.76a1.87,1.87,0,0,0,1.37,3,2.15,2.15,0,0,0,1.47-.65,1.87,1.87,0,0,0-1.37-3A1.83,1.83,0,0,0,864.31,728.76Z" transform="translate(-20.88 -429)" style="fill:url(#radial-gradient-13)"/><path d="M886.07,687.43a3.89,3.89,0,1,0,4.32-.37A4.09,4.09,0,0,0,886.07,687.43Z" transform="translate(-20.88 -429)" style="opacity:0.699999988079071;isolation:isolate;fill:url(#radial-gradient-14)"/><path d="M887.54,688.9a1.87,1.87,0,0,0,.28,3.3,1.56,1.56,0,0,0,1.56-.18,1.81,1.81,0,1,0-1.84-3.12Z" transform="translate(-20.88 -429)" style="fill:url(#radial-gradient-15)"/><path d="M856.32,722.88a3.88,3.88,0,1,0,4.31-.37A4.07,4.07,0,0,0,856.32,722.88Z" transform="translate(-20.88 -429)" style="opacity:0.699999988079071;isolation:isolate;fill:url(#radial-gradient-16)"/><path d="M857.79,724.35a1.86,1.86,0,0,0,.27,3.3,1.56,1.56,0,0,0,1.56-.18,1.81,1.81,0,1,0-1.83-3.12Z" transform="translate(-20.88 -429)" style="fill:url(#radial-gradient-17)"/><path d="M892.41,692.94a3.85,3.85,0,0,0-1.65,6.24,3.71,3.71,0,0,0,4.13,1.11,3.87,3.87,0,0,0,1.65-6.25A4,4,0,0,0,892.41,692.94Z" transform="translate(-20.88 -429)" style="opacity:0.699999988079071;isolation:isolate;fill:url(#radial-gradient-18)"/><path d="M893.33,694.87a1.84,1.84,0,0,0-.83,3.21,1.88,1.88,0,0,0,1.56.46,1.85,1.85,0,0,0,.83-3.21A1.48,1.48,0,0,0,893.33,694.87Z" transform="translate(-20.88 -429)" style="fill:url(#radial-gradient-19)"/><path d="M852.37,716.08a3.87,3.87,0,0,0-1.66,6.25,3.74,3.74,0,0,0,4.14,1.1,3.86,3.86,0,0,0,1.65-6.25A4.11,4.11,0,0,0,852.37,716.08Z" transform="translate(-20.88 -429)" style="opacity:0.699999988079071;isolation:isolate;fill:url(#radial-gradient-20)"/><path d="M853.19,718a1.87,1.87,0,1,0,1.57.46A1.47,1.47,0,0,0,853.19,718Z" transform="translate(-20.88 -429)" style="fill:url(#radial-gradient-21)"/><path d="M896.45,700.29a3.86,3.86,0,1,0,3.49,2.48A3.93,3.93,0,0,0,896.45,700.29Z" transform="translate(-20.88 -429)" style="opacity:0.699999988079071;isolation:isolate;fill:url(#radial-gradient-22)"/><path d="M896.72,702.4a1.86,1.86,0,1,0,1.29.92A1.66,1.66,0,0,0,896.72,702.4Z" transform="translate(-20.88 -429)" style="fill:url(#radial-gradient-23)"/><path d="M850.9,708.37a3.86,3.86,0,1,0,3.49,2.48A3.67,3.67,0,0,0,850.9,708.37Z" transform="translate(-20.88 -429)" style="opacity:0.699999988079071;isolation:isolate;fill:url(#radial-gradient-24)"/><path d="M851.08,710.39a1.88,1.88,0,0,0-1.93,2.75,1.91,1.91,0,0,0,1.29.92,1.88,1.88,0,0,0,1.93-2.75A1.73,1.73,0,0,0,851.08,710.39Z" transform="translate(-20.88 -429)" style="fill:url(#radial-gradient-25)"/><path d="M897.83,708.64a3.83,3.83,0,0,0-5.24,3.68,3.76,3.76,0,0,0,2.48,3.49,3.83,3.83,0,0,0,5.24-3.68A4.07,4.07,0,0,0,897.83,708.64Z" transform="translate(-20.88 -429)" style="opacity:0.699999988079071;isolation:isolate;fill:url(#radial-gradient-26)"/><path d="M897.28,710.66a1.88,1.88,0,0,0-2.76,1.93,1.73,1.73,0,0,0,.92,1.29,1.88,1.88,0,0,0,2.75-1.93A1.53,1.53,0,0,0,897.28,710.66Z" transform="translate(-20.88 -429)" style="fill:url(#radial-gradient-27)"/><path d="M852.28,700.56a3.82,3.82,0,0,0-5.24,3.67,3.75,3.75,0,0,0,2.48,3.49,3.82,3.82,0,0,0,5.24-3.67A4.19,4.19,0,0,0,852.28,700.56Z" transform="translate(-20.88 -429)" style="opacity:0.699999988079071;isolation:isolate;fill:url(#radial-gradient-28)"/><path d="M851.72,702.58a1.88,1.88,0,0,0-2.75,1.93,1.73,1.73,0,0,0,.92,1.29,1.88,1.88,0,0,0,2.75-1.93A1.91,1.91,0,0,0,851.72,702.58Z" transform="translate(-20.88 -429)" style="fill:url(#radial-gradient-29)"/><path d="M896.17,716.91a3.9,3.9,0,0,0-6.24,1.65,3.72,3.72,0,0,0,1.1,4.13,3.91,3.91,0,0,0,6.25-1.65A3.71,3.71,0,0,0,896.17,716.91Z" transform="translate(-20.88 -429)" style="opacity:0.699999988079071;isolation:isolate;fill:url(#radial-gradient-30)"/><path d="M895.07,718.56a1.88,1.88,0,0,0-3.21.83,1.7,1.7,0,0,0,.46,1.56,1.88,1.88,0,0,0,3.21-.83A2.39,2.39,0,0,0,895.07,718.56Z" transform="translate(-20.88 -429)" style="fill:url(#radial-gradient-31)"/><path d="M856.13,693.77a3.9,3.9,0,0,0-6.24,1.65,3.72,3.72,0,0,0,1.1,4.13,3.9,3.9,0,0,0,6.24-1.65A3.69,3.69,0,0,0,856.13,693.77Z" transform="translate(-20.88 -429)" style="opacity:0.699999988079071;isolation:isolate;fill:url(#radial-gradient-32)"/><path d="M854.94,695.42a1.89,1.89,0,0,0-3.22.82,1.71,1.71,0,0,0,.46,1.57,1.89,1.89,0,0,0,3.22-.83A2,2,0,0,0,854.94,695.42Z" transform="translate(-20.88 -429)" style="fill:url(#radial-gradient-33)"/><path d="M891.86,724.07a3.89,3.89,0,1,0-.37,4.32A3.88,3.88,0,0,0,891.86,724.07Z" transform="translate(-20.88 -429)" style="opacity:0.699999988079071;isolation:isolate;fill:url(#radial-gradient-34)"/><path d="M890.2,725.27a1.84,1.84,0,0,0-3.3-.28,1.89,1.89,0,0,0-.19,1.56,1.85,1.85,0,0,0,3.31.28A1.53,1.53,0,0,0,890.2,725.27Z" transform="translate(-20.88 -429)" style="fill:url(#radial-gradient-35)"/><path d="M862.1,688.62a3.88,3.88,0,1,0-.37,4.32A3.74,3.74,0,0,0,862.1,688.62Z" transform="translate(-20.88 -429)" style="opacity:0.699999988079071;isolation:isolate;fill:url(#radial-gradient-36)"/><path d="M860.45,689.82a1.85,1.85,0,0,0-3.31-.28,1.92,1.92,0,0,0-.18,1.56,1.85,1.85,0,0,0,3.31.28A1.61,1.61,0,0,0,860.45,689.82Z" transform="translate(-20.88 -429)" style="fill:url(#radial-gradient-37)"/><path d="M885.34,729.4a3.94,3.94,0,0,0-5.88-2.76,4.1,4.1,0,0,0-1.84,3.86,3.94,3.94,0,0,0,5.88,2.76A3.72,3.72,0,0,0,885.34,729.4Z" transform="translate(-20.88 -429)" style="opacity:0.699999988079071;isolation:isolate;fill:url(#radial-gradient-38)"/><path d="M883.41,730a1.84,1.84,0,0,0-3-1.38,1.6,1.6,0,0,0-.65,1.47,1.84,1.84,0,0,0,3,1.38A2.21,2.21,0,0,0,883.41,730Z" transform="translate(-20.88 -429)" style="fill:url(#radial-gradient-39)"/><path d="M869.54,685.87a3.94,3.94,0,0,0-5.88-2.76,4.1,4.1,0,0,0-1.83,3.86,3.93,3.93,0,0,0,5.87,2.75A3.75,3.75,0,0,0,869.54,685.87Z" transform="translate(-20.88 -429)" style="opacity:0.699999988079071;isolation:isolate;fill:url(#radial-gradient-40)"/><path d="M867.52,686.42a1.83,1.83,0,0,0-3-1.38,1.59,1.59,0,0,0-.64,1.47,1.84,1.84,0,1,0,3.67-.09Z" transform="translate(-20.88 -429)" style="fill:url(#radial-gradient-41)"/><path d="M861.55,706.16a12.25,12.25,0,1,0,10-10A12.1,12.1,0,0,0,861.55,706.16Z" transform="translate(-20.88 -429)" style="fill:url(#radial-gradient-42)"/><path d="M861.55,706.16a12.25,12.25,0,1,0,10-10A12.1,12.1,0,0,0,861.55,706.16Z" transform="translate(-20.88 -429)" style="fill:url(#radial-gradient-42)"/><path d="M865.78,706.35a8,8,0,0,0,9.64,9.64,7.93,7.93,0,0,0,6-6,8,8,0,0,0-9.65-9.64A8.19,8.19,0,0,0,865.78,706.35Z" transform="translate(-20.88 -429)" style="fill:#b3b3b3"/><path d="M865.78,706.35a8,8,0,0,0,9.64,9.64,7.93,7.93,0,0,0,6-6,8,8,0,0,0-9.65-9.64A8.19,8.19,0,0,0,865.78,706.35Z" transform="translate(-20.88 -429)" style="fill:url(#radial-gradient-44)"/><path d="M865.78,706.35a8,8,0,0,0,9.64,9.64,7.93,7.93,0,0,0,6-6,8,8,0,0,0-9.65-9.64A8.19,8.19,0,0,0,865.78,706.35Z" transform="translate(-20.88 -429)" style="fill:url(#radial-gradient-45)"/><path d="M299.69,705.61a49.2,49.2,0,1,0,46.57-46.56A49.22,49.22,0,0,0,299.69,705.61Z" transform="translate(-20.88 -429)" style="fill:url(#radial-gradient-46)"/><path d="M299.69,705.61a49.2,49.2,0,1,0,46.57-46.56A49.22,49.22,0,0,0,299.69,705.61Z" transform="translate(-20.88 -429)" style="fill:url(#radial-gradient-47)"/><path d="M316.87,708.18a29.15,29.15,0,0,0,1.47,9.46A31.22,31.22,0,0,0,325.5,730a32.32,32.32,0,0,0,16.26,9.37,30.37,30.37,0,0,0,7.07.82,29.88,29.88,0,0,0,7.07-.82,32.11,32.11,0,0,0,24.89-31.14,29.2,29.2,0,0,0-1.47-9.46,32.11,32.11,0,0,0-23.42-21.67,30.51,30.51,0,0,0-7.07-.83,29.82,29.82,0,0,0-7.07.83,32.09,32.09,0,0,0-24.89,31.13Z" transform="translate(-20.88 -429)" style="fill:#b3b3b3"/><path d="M316.87,708.18a29.15,29.15,0,0,0,1.47,9.46A31.22,31.22,0,0,0,325.5,730a32.32,32.32,0,0,0,16.26,9.37,30.37,30.37,0,0,0,7.07.82,29.88,29.88,0,0,0,7.07-.82,32.11,32.11,0,0,0,24.89-31.14,29.2,29.2,0,0,0-1.47-9.46,32.11,32.11,0,0,0-23.42-21.67,30.51,30.51,0,0,0-7.07-.83,29.82,29.82,0,0,0-7.07.83,32.09,32.09,0,0,0-24.89,31.13Z" transform="translate(-20.88 -429)" style="fill:url(#radial-gradient-48)"/><path d="M316.87,708.18a29.15,29.15,0,0,0,1.47,9.46A31.22,31.22,0,0,0,325.5,730a32.32,32.32,0,0,0,16.26,9.37,30.37,30.37,0,0,0,7.07.82,29.88,29.88,0,0,0,7.07-.82,32.11,32.11,0,0,0,24.89-31.14,29.2,29.2,0,0,0-1.47-9.46,32.11,32.11,0,0,0-23.42-21.67,30.51,30.51,0,0,0-7.07-.83,29.82,29.82,0,0,0-7.07.83,32.09,32.09,0,0,0-24.89,31.13Z" transform="translate(-20.88 -429)" style="fill:url(#radial-gradient-48)"/><path d="M320.54,708.18a27.36,27.36,0,0,0,1.29,8.36,29,29,0,0,0,6.33,10.93,28.18,28.18,0,0,0,27.1,8.36,28,28,0,0,0,14.41-8.36,28.5,28.5,0,0,0,7.63-19.29,27.29,27.29,0,0,0-1.29-8.35,28.94,28.94,0,0,0-6.34-10.93,28.16,28.16,0,0,0-27.09-8.36,28.49,28.49,0,0,0-20.75,19.29A25.58,25.58,0,0,0,320.54,708.18Z" transform="translate(-20.88 -429)"/><path d="M348.83,664.47a.39.39,0,0,0,.36-.37V661a.37.37,0,1,0-.73,0v3.12A.34.34,0,0,0,348.83,664.47Z" transform="translate(-20.88 -429)"/><path d="M348.83,755.66a.39.39,0,0,0,.36-.36v-3.13a.37.37,0,0,0-.73,0v3.13A.39.39,0,0,0,348.83,755.66Z" transform="translate(-20.88 -429)"/><path d="M356.45,665.2a.24.24,0,0,0,.27-.27l.56-3c0-.19-.1-.37-.28-.37s-.37.09-.37.28l-.55,3c0,.09.19.27.37.36Z" transform="translate(-20.88 -429)"/><path d="M340.65,754.93a.24.24,0,0,0,.28-.28l.55-3c0-.18-.09-.36-.28-.36s-.36.09-.36.27l-.55,3a.34.34,0,0,0,.36.37Z" transform="translate(-20.88 -429)"/><path d="M363.89,667.13c.09,0,.27-.09.27-.18l1-2.94a.33.33,0,0,0-.18-.46.34.34,0,0,0-.46.18l-1,2.94a.34.34,0,0,0,.18.46Z" transform="translate(-20.88 -429)"/><path d="M332.66,752.82c.1,0,.28-.1.28-.19l1-2.94a.34.34,0,0,0-.18-.46.33.33,0,0,0-.46.19l-1,2.94a.33.33,0,0,0,.18.46Z" transform="translate(-20.88 -429)"/><path d="M370.87,670.44c.09,0,.18-.09.27-.18l1.56-2.67a.4.4,0,0,0-.09-.46.41.41,0,0,0-.46.09l-1.56,2.67a.41.41,0,0,0,.09.46A.36.36,0,0,0,370.87,670.44Z" transform="translate(-20.88 -429)"/><path d="M325.22,749.33c.1,0,.19-.1.28-.19l1.56-2.66a.33.33,0,1,0-.55-.37L325,748.78a.4.4,0,0,0,.09.45A.27.27,0,0,0,325.22,749.33Z" transform="translate(-20.88 -429)"/><path d="M377.11,674.85a.35.35,0,0,0,.28-.09l2-2.39a.43.43,0,0,0,0-.46.42.42,0,0,0-.46,0l-2,2.39a.43.43,0,0,0,0,.46C377,674.76,377,674.85,377.11,674.85Z" transform="translate(-20.88 -429)"/><path d="M318.52,744.64a.36.36,0,0,0,.28-.09l2-2.39a.43.43,0,0,0,0-.46.42.42,0,0,0-.46,0l-2,2.39a.39.39,0,0,0,0,.46C318.43,744.64,318.43,744.64,318.52,744.64Z" transform="translate(-20.88 -429)"/><path d="M382.53,680.27c.09,0,.18,0,.18-.1l2.39-2a.3.3,0,0,0,0-.46.31.31,0,0,0-.46,0l-2.38,2a.29.29,0,0,0,0,.46C382.35,680.17,382.44,680.27,382.53,680.27Z" transform="translate(-20.88 -429)"/><path d="M312.73,738.86c.1,0,.19,0,.19-.09l2.39-2a.32.32,0,1,0-.46-.45l-2.39,2a.31.31,0,0,0,0,.46C312.55,738.77,312.64,738.86,312.73,738.86Z" transform="translate(-20.88 -429)"/><path d="M386.94,686.51h.18l2.67-1.56c.18-.09.18-.28.09-.46s-.28-.18-.46-.09L386.76,686c-.19.09-.19.27-.1.46A.36.36,0,0,0,386.94,686.51Z" transform="translate(-20.88 -429)"/><path d="M308.05,732.06h.18l2.67-1.56c.18-.09.18-.28.09-.46s-.28-.18-.46-.09l-2.66,1.56c-.19.09-.19.28-.09.46S307.87,732.06,308.05,732.06Z" transform="translate(-20.88 -429)"/><path d="M390.15,693.49h.09l2.94-1a.34.34,0,0,0,.19-.46.33.33,0,0,0-.46-.18l-2.94,1a.33.33,0,0,0-.18.46C390,693.4,390.06,693.49,390.15,693.49Z" transform="translate(-20.88 -429)"/><path d="M304.56,724.62h.09l2.94-1a.33.33,0,0,0,.19-.46.34.34,0,0,0-.46-.18l-2.94,1a.34.34,0,0,0-.19.46A.51.51,0,0,0,304.56,724.62Z" transform="translate(-20.88 -429)"/><path d="M392.17,700.93h0l3.13-.55c.18,0,.27-.19.27-.37s-.18-.28-.37-.28l-3,.56c-.18,0-.27.18-.27.36A.3.3,0,0,0,392.17,700.93Z" transform="translate(-20.88 -429)"/><path d="M302.45,716.72h0l3.12-.55c.19,0,.28-.18.28-.36s-.19-.28-.37-.28l-3,.55c-.18,0-.28.19-.28.37S302.27,716.72,302.45,716.72Z" transform="translate(-20.88 -429)"/><path d="M392.82,708.55h3.12a.37.37,0,1,0,0-.73h-3.12a.39.39,0,0,0-.37.36C392.54,708.37,392.63,708.55,392.82,708.55Z" transform="translate(-20.88 -429)"/><path d="M301.71,708.55h3.13a.37.37,0,0,0,0-.73h-3.13a.37.37,0,0,0,0,.73Z" transform="translate(-20.88 -429)"/><path d="M395.2,716.72c.19,0,.28-.09.28-.27s-.09-.37-.28-.37l-3-.55c-.18,0-.36.09-.36.28s.09.36.27.36l3.12.55Z" transform="translate(-20.88 -429)"/><path d="M305.48,700.93a.25.25,0,0,0,.28-.28c0-.18-.1-.36-.28-.36l-3-.56c-.18,0-.37.1-.37.28s.09.37.28.37l3.12.55Z" transform="translate(-20.88 -429)"/><path d="M393.09,724.62c.09,0,.28-.09.28-.18a.34.34,0,0,0-.19-.46l-2.94-1a.35.35,0,0,0-.27.64l2.94,1Z" transform="translate(-20.88 -429)"/><path d="M307.41,693.49c.09,0,.27-.09.27-.18a.33.33,0,0,0-.18-.46l-2.94-1a.33.33,0,0,0-.46.18.34.34,0,0,0,.19.46l2.93,1Z" transform="translate(-20.88 -429)"/><path d="M389.6,732.06c.09,0,.19-.09.28-.18a.41.41,0,0,0-.09-.46l-2.67-1.56a.42.42,0,0,0-.46.09.4.4,0,0,0,.1.46l2.66,1.56A.28.28,0,0,0,389.6,732.06Z" transform="translate(-20.88 -429)"/><path d="M310.71,686.51c.1,0,.19-.09.28-.18a.41.41,0,0,0-.09-.46l-2.67-1.56a.38.38,0,0,0-.45.09.4.4,0,0,0,.09.46l2.66,1.56C310.53,686.51,310.62,686.51,310.71,686.51Z" transform="translate(-20.88 -429)"/><path d="M384.92,738.86a.33.33,0,0,0,.27-.09.39.39,0,0,0,0-.46l-2.38-2c-.19-.1-.37-.1-.46,0a.41.41,0,0,0,0,.45l2.38,2A.36.36,0,0,0,384.92,738.86Z" transform="translate(-20.88 -429)"/><path d="M315.12,680.27a.33.33,0,0,0,.28-.1.43.43,0,0,0,0-.46l-2.39-2a.42.42,0,0,0-.46,0,.43.43,0,0,0,0,.46l2.39,2A.31.31,0,0,0,315.12,680.27Z" transform="translate(-20.88 -429)"/><path d="M379.13,744.64c.09,0,.19,0,.19-.09a.31.31,0,0,0,0-.46l-2-2.39a.31.31,0,0,0-.46,0,.29.29,0,0,0,0,.46l2,2.39C379,744.55,379,744.64,379.13,744.64Z" transform="translate(-20.88 -429)"/><path d="M320.54,674.85c.09,0,.18,0,.18-.09a.29.29,0,0,0,0-.46l-2-2.39a.3.3,0,0,0-.46,0,.31.31,0,0,0,0,.46l2,2.39C320.36,674.76,320.45,674.85,320.54,674.85Z" transform="translate(-20.88 -429)"/><path d="M372.34,749.33h.18c.18-.1.18-.28.09-.46l-1.56-2.67c-.09-.18-.27-.18-.46-.09s-.18.28-.09.46l1.56,2.66A.32.32,0,0,0,372.34,749.33Z" transform="translate(-20.88 -429)"/><path d="M326.79,670.44H327c.18-.09.18-.28.09-.46l-1.56-2.66c-.09-.19-.28-.19-.46-.1s-.18.28-.09.46l1.56,2.67C326.6,670.35,326.69,670.44,326.79,670.44Z" transform="translate(-20.88 -429)"/><path d="M364.9,752.82H365a.33.33,0,0,0,.18-.46l-1-2.94a.33.33,0,0,0-.46-.19.34.34,0,0,0-.18.46l1,2.94C364.71,752.72,364.81,752.82,364.9,752.82Z" transform="translate(-20.88 -429)"/><path d="M333.77,667.13h.09a.34.34,0,0,0,.18-.46l-1-2.94a.35.35,0,0,0-.64.28l1,2.94A.68.68,0,0,0,333.77,667.13Z" transform="translate(-20.88 -429)"/><path d="M357,754.93h0c.28,0,.37-.19.28-.37l-.56-3c0-.18-.18-.27-.36-.27s-.28.18-.28.36l.55,3C356.72,754.84,356.82,754.93,357,754.93Z" transform="translate(-20.88 -429)"/><path d="M341.2,665.2h0c.28,0,.37-.18.28-.36l-.55-3c0-.19-.19-.28-.37-.28s-.27.18-.27.37l.55,3A.4.4,0,0,0,341.2,665.2Z" transform="translate(-20.88 -429)"/><circle cx="327.95" cy="279.18" r="28.74" style="fill:#e6e6e6"/><circle cx="327.95" cy="279.18" r="28.74" style="fill:url(#radial-gradient-50)"/><path d="M345.06,684.31a3.89,3.89,0,1,0,3-3A3.82,3.82,0,0,0,345.06,684.31Z" transform="translate(-20.88 -429)" style="opacity:0.699999988079071;isolation:isolate;fill:url(#radial-gradient-51)"/><path d="M347.08,684.49a1.79,1.79,0,0,0,2.3,2.3,1.67,1.67,0,0,0,1.1-1.11,1.78,1.78,0,0,0-2.3-2.29A1.65,1.65,0,0,0,347.08,684.49Z" transform="translate(-20.88 -429)" style="fill:url(#radial-gradient-52)"/><path d="M345.06,730.59a3.89,3.89,0,1,0,3-3A3.83,3.83,0,0,0,345.06,730.59Z" transform="translate(-20.88 -429)" style="opacity:0.699999988079071;isolation:isolate;fill:url(#radial-gradient-53)"/><path d="M347.08,730.78a1.78,1.78,0,0,0,2.3,2.29,1.63,1.63,0,0,0,1.1-1.1,1.79,1.79,0,0,0-2.3-2.3A1.67,1.67,0,0,0,347.08,730.78Z" transform="translate(-20.88 -429)" style="fill:url(#radial-gradient-54)"/><path d="M353.42,684.49a3.94,3.94,0,0,0,2.75,5.88,3.65,3.65,0,0,0,3.86-1.84,3.94,3.94,0,0,0-2.75-5.88A3.78,3.78,0,0,0,353.42,684.49Z" transform="translate(-20.88 -429)" style="opacity:0.699999988079071;isolation:isolate;fill:url(#radial-gradient-55)"/><path d="M355.35,685.32a1.87,1.87,0,0,0,1.37,3,2.13,2.13,0,0,0,1.47-.65,1.87,1.87,0,0,0-1.37-3A1.43,1.43,0,0,0,355.35,685.32Z" transform="translate(-20.88 -429)" style="fill:url(#radial-gradient-56)"/><path d="M337.62,727.93a3.94,3.94,0,0,0,2.76,5.88,3.63,3.63,0,0,0,3.85-1.84,3.94,3.94,0,0,0-2.75-5.88A4,4,0,0,0,337.62,727.93Z" transform="translate(-20.88 -429)" style="opacity:0.699999988079071;isolation:isolate;fill:url(#radial-gradient-57)"/><path d="M339.46,728.76a1.87,1.87,0,0,0,1.38,3,2.17,2.17,0,0,0,1.47-.65,1.87,1.87,0,0,0-1.38-3A2.17,2.17,0,0,0,339.46,728.76Z" transform="translate(-20.88 -429)" style="fill:url(#radial-gradient-58)"/><path d="M361.32,687.43a3.88,3.88,0,1,0,4.31-.37A4.05,4.05,0,0,0,361.32,687.43Z" transform="translate(-20.88 -429)" style="opacity:0.699999988079071;isolation:isolate;fill:url(#radial-gradient-59)"/><path d="M362.79,688.9a1.86,1.86,0,0,0,.27,3.3,1.56,1.56,0,0,0,1.56-.18,1.88,1.88,0,0,0-.27-3.31A1.84,1.84,0,0,0,362.79,688.9Z" transform="translate(-20.88 -429)" style="fill:url(#radial-gradient-60)"/><path d="M331.56,722.88a3.89,3.89,0,1,0,4.32-.37A4.09,4.09,0,0,0,331.56,722.88Z" transform="translate(-20.88 -429)" style="opacity:0.699999988079071;isolation:isolate;fill:url(#radial-gradient-61)"/><path d="M333,724.35a1.87,1.87,0,0,0,.28,3.3,1.56,1.56,0,0,0,1.56-.18,1.81,1.81,0,1,0-1.84-3.12Z" transform="translate(-20.88 -429)" style="fill:url(#radial-gradient-62)"/><path d="M367.65,692.94a3.86,3.86,0,0,0-1.65,6.24,3.71,3.71,0,0,0,4.13,1.11,3.87,3.87,0,0,0,1.66-6.25A4.12,4.12,0,0,0,367.65,692.94Z" transform="translate(-20.88 -429)" style="opacity:0.699999988079071;isolation:isolate;fill:url(#radial-gradient-63)"/><path d="M368.48,694.87a1.84,1.84,0,0,0-.83,3.21,1.88,1.88,0,0,0,1.56.46,1.85,1.85,0,0,0,.83-3.21A1.43,1.43,0,0,0,368.48,694.87Z" transform="translate(-20.88 -429)" style="fill:url(#radial-gradient-64)"/><path d="M327.52,716.08a3.86,3.86,0,0,0-1.65,6.25,3.72,3.72,0,0,0,4.13,1.1,3.86,3.86,0,0,0,1.65-6.25A4,4,0,0,0,327.52,716.08Z" transform="translate(-20.88 -429)" style="opacity:0.699999988079071;isolation:isolate;fill:url(#radial-gradient-65)"/><path d="M328.44,718a1.87,1.87,0,1,0,1.56.46A1.5,1.5,0,0,0,328.44,718Z" transform="translate(-20.88 -429)" style="fill:url(#radial-gradient-66)"/><path d="M371.69,700.29a3.86,3.86,0,1,0,3.49,2.48A4,4,0,0,0,371.69,700.29Z" transform="translate(-20.88 -429)" style="opacity:0.699999988079071;isolation:isolate;fill:url(#radial-gradient-67)"/><path d="M371.88,702.4a1.86,1.86,0,1,0,1.28.92A1.52,1.52,0,0,0,371.88,702.4Z" transform="translate(-20.88 -429)" style="fill:url(#radial-gradient-68)"/><path d="M326.14,708.37a3.86,3.86,0,1,0,3.49,2.48A3.76,3.76,0,0,0,326.14,708.37Z" transform="translate(-20.88 -429)" style="opacity:0.699999988079071;isolation:isolate;fill:url(#radial-gradient-69)"/><path d="M326.33,710.39a1.86,1.86,0,1,0,1.28.92A1.87,1.87,0,0,0,326.33,710.39Z" transform="translate(-20.88 -429)" style="fill:url(#radial-gradient-70)"/><path d="M373,708.64a3.83,3.83,0,0,0-5.24,3.68,3.77,3.77,0,0,0,2.48,3.49,3.82,3.82,0,0,0,5.24-3.68A3.76,3.76,0,0,0,373,708.64Z" transform="translate(-20.88 -429)" style="opacity:0.699999988079071;isolation:isolate;fill:url(#radial-gradient-71)"/><path d="M372.52,710.66a1.88,1.88,0,0,0-2.75,1.93,1.72,1.72,0,0,0,.91,1.29,1.88,1.88,0,0,0,2.76-1.93A1.73,1.73,0,0,0,372.52,710.66Z" transform="translate(-20.88 -429)" style="fill:url(#radial-gradient-72)"/><path d="M327.43,700.56a3.83,3.83,0,0,0-5.24,3.67,3.75,3.75,0,0,0,2.48,3.49,3.84,3.84,0,1,0,2.76-7.16Z" transform="translate(-20.88 -429)" style="opacity:0.699999988079071;isolation:isolate;fill:url(#radial-gradient-73)"/><path d="M327,702.58a1.88,1.88,0,0,0-2.76,1.93,1.76,1.76,0,0,0,.92,1.29,1.88,1.88,0,0,0,2.76-1.93A1.91,1.91,0,0,0,327,702.58Z" transform="translate(-20.88 -429)" style="fill:url(#radial-gradient-74)"/><path d="M371.42,716.91a3.91,3.91,0,0,0-6.25,1.65,3.71,3.71,0,0,0,1.11,4.13,3.9,3.9,0,0,0,6.24-1.65A3.72,3.72,0,0,0,371.42,716.91Z" transform="translate(-20.88 -429)" style="opacity:0.699999988079071;isolation:isolate;fill:url(#radial-gradient-75)"/><path d="M370.22,718.56a1.88,1.88,0,0,0-3.21.83,1.7,1.7,0,0,0,.46,1.56,1.88,1.88,0,0,0,3.21-.83A1.94,1.94,0,0,0,370.22,718.56Z" transform="translate(-20.88 -429)" style="fill:url(#radial-gradient-76)"/><path d="M331.38,693.77a3.91,3.91,0,0,0-6.25,1.65,3.72,3.72,0,0,0,1.1,4.13,3.9,3.9,0,0,0,6.25-1.65A4,4,0,0,0,331.38,693.77Z" transform="translate(-20.88 -429)" style="opacity:0.699999988079071;isolation:isolate;fill:url(#radial-gradient-77)"/><path d="M330.18,695.42a1.88,1.88,0,0,0-3.21.82,1.71,1.71,0,0,0,.46,1.57,1.88,1.88,0,0,0,3.21-.83A2,2,0,0,0,330.18,695.42Z" transform="translate(-20.88 -429)" style="fill:url(#radial-gradient-78)"/><path d="M367.1,724.07a3.88,3.88,0,1,0-.37,4.32A4.07,4.07,0,0,0,367.1,724.07Z" transform="translate(-20.88 -429)" style="opacity:0.699999988079071;isolation:isolate;fill:url(#radial-gradient-79)"/><path d="M365.45,725.27a1.85,1.85,0,0,0-3.31-.28,1.92,1.92,0,0,0-.18,1.56,1.86,1.86,0,0,0,3.49-1.28Z" transform="translate(-20.88 -429)" style="fill:url(#radial-gradient-80)"/><path d="M337.35,688.62a3.89,3.89,0,1,0-.37,4.32A3.88,3.88,0,0,0,337.35,688.62Z" transform="translate(-20.88 -429)" style="opacity:0.699999988079071;isolation:isolate;fill:url(#radial-gradient-81)"/><path d="M335.69,689.82a1.84,1.84,0,0,0-3.3-.28,1.89,1.89,0,0,0-.19,1.56,1.85,1.85,0,0,0,3.31.28A1.81,1.81,0,0,0,335.69,689.82Z" transform="translate(-20.88 -429)" style="fill:url(#radial-gradient-82)"/><path d="M360.58,729.4a3.94,3.94,0,0,0-5.88-2.76,4.1,4.1,0,0,0-1.83,3.86,3.93,3.93,0,0,0,5.87,2.76A4,4,0,0,0,360.58,729.4Z" transform="translate(-20.88 -429)" style="opacity:0.699999988079071;isolation:isolate;fill:url(#radial-gradient-83)"/><path d="M358.56,730a1.83,1.83,0,0,0-3-1.38,1.59,1.59,0,0,0-.64,1.47,1.84,1.84,0,1,0,3.67-.09Z" transform="translate(-20.88 -429)" style="fill:url(#radial-gradient-84)"/><path d="M344.69,685.87a3.93,3.93,0,0,0-5.87-2.76A4.1,4.1,0,0,0,337,687a3.94,3.94,0,0,0,5.88,2.75A3.63,3.63,0,0,0,344.69,685.87Z" transform="translate(-20.88 -429)" style="opacity:0.699999988079071;isolation:isolate;fill:url(#radial-gradient-85)"/><path d="M342.77,686.42a1.84,1.84,0,0,0-3-1.38,1.62,1.62,0,0,0-.64,1.47,1.84,1.84,0,0,0,3,1.38A2.17,2.17,0,0,0,342.77,686.42Z" transform="translate(-20.88 -429)" style="fill:url(#radial-gradient-86)"/><path d="M336.7,706.16a12.26,12.26,0,1,0,10-10A12.28,12.28,0,0,0,336.7,706.16Z" transform="translate(-20.88 -429)" style="fill:url(#radial-gradient-87)"/><path d="M336.7,706.16a12.26,12.26,0,1,0,10-10A12.28,12.28,0,0,0,336.7,706.16Z" transform="translate(-20.88 -429)" style="fill:url(#radial-gradient-87)"/><path d="M341,706.35a8,8,0,0,0,9.64,9.64,7.91,7.91,0,0,0,6-6A8,8,0,1,0,341,706.35Z" transform="translate(-20.88 -429)" style="fill:#b3b3b3"/><path d="M341,706.35a8,8,0,0,0,9.64,9.64,7.91,7.91,0,0,0,6-6A8,8,0,1,0,341,706.35Z" transform="translate(-20.88 -429)" style="fill:url(#radial-gradient-89)"/><path d="M341,706.35a8,8,0,0,0,9.64,9.64,7.91,7.91,0,0,0,6-6A8,8,0,1,0,341,706.35Z" transform="translate(-20.88 -429)" style="fill:url(#radial-gradient-90)"/><path d="M1081.13,700.38c1.66,3,4.14,6.89,6.16,8.35a13.28,13.28,0,0,0,2.29,1.11c.74-3,1.29-6,1.65-8.54l-.18-.1-7.9-3.12A1.61,1.61,0,0,0,1081.13,700.38Z" transform="translate(-20.88 -429)" style="fill:url(#linear-gradient-6)"/><path d="M85.53,679.62l12.86-2h6.33v39.68a2.66,2.66,0,0,1-3.21,2.57c-4.87-1.11-13.78-3.31-15.24-5.7-2-3.21-3.86-18-2.85-32.14A2.39,2.39,0,0,1,85.53,679.62Z" transform="translate(-20.88 -429)" style="fill:#fff"/><path d="M85.53,679.62l12.86-2h6.33v39.68a2.66,2.66,0,0,1-3.21,2.57c-4.87-1.11-13.78-3.31-15.24-5.7-2-3.21-3.86-18-2.85-32.14A2.39,2.39,0,0,1,85.53,679.62Z" transform="translate(-20.88 -429)" style="fill:url(#linear-gradient-7)"/><path d="M85.53,679.62l12.86-2h6.33v39.68a2.66,2.66,0,0,1-3.21,2.57c-4.87-1.11-13.78-3.31-15.24-5.7-2-3.21-3.86-18-2.85-32.14A2.39,2.39,0,0,1,85.53,679.62Z" transform="translate(-20.88 -429)" style="fill:url(#linear-gradient-8)"/><path d="M1025.11,456.92c48.4,50.14,45.55,167.6,45.55,167.6l21.95,17.36c-.09-9.19-.37-19.1-.82-29.57-1.38-30.31-4.5-64.57-11.21-93.77-.18-.73-.27-1.38-.46-2.11-4.86-20.39-11.66-35-18.92-45.37a73.16,73.16,0,0,0-16-16.9h-18.91A1.68,1.68,0,0,0,1025.11,456.92Z" transform="translate(-20.88 -429)" style="fill:#403430"/><path d="M1041.18,471.15c32.88,48.86,33.71,137.39,33.71,137.39l16.9,3.77c-1.38-30.31-4.5-64.57-11.21-93.77-.18-.73-.27-1.38-.46-2.11-4.86-20.39-11.66-35-18.92-45.37l-20,.09Z" transform="translate(-20.88 -429)" style="fill:#5c524f"/><path d="M501,689.72h14.88a.59.59,0,0,0,.55-.55V683a.59.59,0,0,0-.55-.55H501a.58.58,0,0,0-.55.55v6.15A.52.52,0,0,0,501,689.72Z" transform="translate(-20.88 -429)" style="opacity:0.5;isolation:isolate"/><path d="M515.51,688.62v-4.86a.39.39,0,0,0-.37-.37H501.83a.39.39,0,0,0-.37.37v4.86a.39.39,0,0,0,.37.37h13.31A.39.39,0,0,0,515.51,688.62Z" transform="translate(-20.88 -429)" style="fill:#d77e11"/><path d="M515.51,688.62v-4.86a.39.39,0,0,0-.37-.37H501.83a.39.39,0,0,0-.37.37v4.86a.39.39,0,0,0,.37.37h13.31A.39.39,0,0,0,515.51,688.62Z" transform="translate(-20.88 -429)" style="fill:url(#linear-gradient-9)"/><path d="M515.51,688.62v-4.86a.39.39,0,0,0-.37-.37H501.83a.39.39,0,0,0-.37.37v4.86a.39.39,0,0,0,.37.37h13.31A.39.39,0,0,0,515.51,688.62Z" transform="translate(-20.88 -429)" style="fill:url(#radial-gradient-91)"/><path d="M669.52,689.72H684.4a.59.59,0,0,0,.55-.55V683a.59.59,0,0,0-.55-.55H669.52a.58.58,0,0,0-.55.55v6.15C669.06,689.54,669.24,689.72,669.52,689.72Z" transform="translate(-20.88 -429)" style="opacity:0.5;isolation:isolate"/><path d="M684,688.62v-4.86a.39.39,0,0,0-.37-.37H670.35a.39.39,0,0,0-.37.37v4.86a.39.39,0,0,0,.37.37h13.31A.39.39,0,0,0,684,688.62Z" transform="translate(-20.88 -429)" style="fill:#d77e11"/><path d="M684,688.62v-4.86a.39.39,0,0,0-.37-.37H670.35a.39.39,0,0,0-.37.37v4.86a.39.39,0,0,0,.37.37h13.31A.39.39,0,0,0,684,688.62Z" transform="translate(-20.88 -429)" style="fill:url(#linear-gradient-10)"/><path d="M684,688.62v-4.86a.39.39,0,0,0-.37-.37H670.35a.39.39,0,0,0-.37.37v4.86a.39.39,0,0,0,.37.37h13.31A.39.39,0,0,0,684,688.62Z" transform="translate(-20.88 -429)" style="fill:url(#radial-gradient-92)"/><path d="M770.91,689.72h14.88a.59.59,0,0,0,.55-.55V683a.59.59,0,0,0-.55-.55H770.91a.58.58,0,0,0-.55.55v6.15A.52.52,0,0,0,770.91,689.72Z" transform="translate(-20.88 -429)" style="opacity:0.5;isolation:isolate"/><path d="M785.42,688.62v-4.86a.4.4,0,0,0-.37-.37H771.73a.39.39,0,0,0-.36.37v4.86a.39.39,0,0,0,.36.37h13.32A.4.4,0,0,0,785.42,688.62Z" transform="translate(-20.88 -429)" style="fill:#d77e11"/><path d="M785.42,688.62v-4.86a.4.4,0,0,0-.37-.37H771.73a.39.39,0,0,0-.36.37v4.86a.39.39,0,0,0,.36.37h13.32A.4.4,0,0,0,785.42,688.62Z" transform="translate(-20.88 -429)" style="fill:url(#linear-gradient-11)"/><path d="M785.42,688.62v-4.86a.4.4,0,0,0-.37-.37H771.73a.39.39,0,0,0-.36.37v4.86a.39.39,0,0,0,.36.37h13.32A.4.4,0,0,0,785.42,688.62Z" transform="translate(-20.88 -429)" style="fill:url(#radial-gradient-93)"/><path d="M947.14,689.72H962a.58.58,0,0,0,.55-.55V683a.58.58,0,0,0-.55-.55H947.14a.59.59,0,0,0-.55.55v6.15A.53.53,0,0,0,947.14,689.72Z" transform="translate(-20.88 -429)" style="opacity:0.5;isolation:isolate"/><path d="M961.65,688.62v-4.86a.39.39,0,0,0-.36-.37H948a.4.4,0,0,0-.37.37v4.86a.4.4,0,0,0,.37.37h13.32A.39.39,0,0,0,961.65,688.62Z" transform="translate(-20.88 -429)" style="fill:#d77e11"/><path d="M961.65,688.62v-4.86a.39.39,0,0,0-.36-.37H948a.4.4,0,0,0-.37.37v4.86a.4.4,0,0,0,.37.37h13.32A.39.39,0,0,0,961.65,688.62Z" transform="translate(-20.88 -429)" style="fill:url(#linear-gradient-12)"/><path d="M961.65,688.62v-4.86a.39.39,0,0,0-.36-.37H948a.4.4,0,0,0-.37.37v4.86a.4.4,0,0,0,.37.37h13.32A.39.39,0,0,0,961.65,688.62Z" transform="translate(-20.88 -429)" style="fill:url(#radial-gradient-94)"/><path d="M947.14,632.79H962a.59.59,0,0,0,.55-.56v-6.15a.59.59,0,0,0-.55-.55H947.14a.6.6,0,0,0-.55.55v6.15A.54.54,0,0,0,947.14,632.79Z" transform="translate(-20.88 -429)" style="opacity:0.5;isolation:isolate"/><path d="M961.65,631.68v-4.86a.39.39,0,0,0-.36-.37H948a.4.4,0,0,0-.37.37v4.86a.4.4,0,0,0,.37.37h13.32A.39.39,0,0,0,961.65,631.68Z" transform="translate(-20.88 -429)" style="fill:#d77e11"/><path d="M961.65,631.68v-4.86a.39.39,0,0,0-.36-.37H948a.4.4,0,0,0-.37.37v4.86a.4.4,0,0,0,.37.37h13.32A.39.39,0,0,0,961.65,631.68Z" transform="translate(-20.88 -429)" style="fill:url(#linear-gradient-13)"/><path d="M961.65,631.68v-4.86a.39.39,0,0,0-.36-.37H948a.4.4,0,0,0-.37.37v4.86a.4.4,0,0,0,.37.37h13.32A.39.39,0,0,0,961.65,631.68Z" transform="translate(-20.88 -429)" style="fill:url(#radial-gradient-95)"/><path d="M516.89,704.69v-4.5a1.56,1.56,0,0,0-1.56-1.56H501.55a1.55,1.55,0,0,0-1.56,1.56v4.5Z" transform="translate(-20.88 -429)" style="fill:#a7cb64"/><path d="M500,711.4V710a1.54,1.54,0,0,1,1.56-1.56h13.78a1.55,1.55,0,0,1,1.56,1.56v1.38Z" transform="translate(-20.88 -429)" style="fill:#a7cb64"/><path d="M685.5,704.69v-4.5a1.55,1.55,0,0,0-1.56-1.56H670.16a1.55,1.55,0,0,0-1.56,1.56v4.5Z" transform="translate(-20.88 -429)" style="fill:#a7cb64"/><path d="M668.51,711.4V710a1.54,1.54,0,0,1,1.56-1.56h13.78a1.54,1.54,0,0,1,1.56,1.56v1.38Z" transform="translate(-20.88 -429)" style="fill:#a7cb64"/><path d="M768.15,657.77v4.86c0,.09.09.19.19.28s.09.09.18.09h.09v4.22a2.58,2.58,0,0,0,2.57,2.58H786.7a2.58,2.58,0,0,0,2.58-2.58v-16.8a2.57,2.57,0,0,0-2.58-2.57H771.18a2.56,2.56,0,0,0-2.57,2.57v7.16h-.09a.36.36,0,0,0-.28.09C768.15,657.58,768.15,657.67,768.15,657.77Zm1.11,4.86c.82-.46,2.2-1.47,2.11-2.75s-1.29-1.84-2.11-2.11v-7.35a2,2,0,0,1,2-2H786.8a2,2,0,0,1,2,2v16.8a2,2,0,0,1-2,2H771.28a2,2,0,0,1-2-2Zm-.56-4.41c.65.19,1.84.74,1.93,1.75s-1.1,1.84-1.93,2.3Z" transform="translate(-20.88 -429)" style="fill:#fff;opacity:0.5;isolation:isolate"/><path d="M119.51,566.85V720.31c.18,0,.46.09.64.09s.46.09.65.09V639.58H255v82.75H132.37c3.4.46,6.7.91,10.1,1.28H255v3.58h1.29v-3.58h36.09a6.13,6.13,0,0,1,.09-1.28H256.26V639.58H423.58v82.75H405.21c0,.46.1.82.1,1.28h18.27v3.58h1.29v-3.58H592.19v3.58h1.29v-3.58H760.81v3.58h1.28v-3.58h55.29a6.13,6.13,0,0,1,.09-1.28H762.09V639.58H967.81v82.75H930.15c0,.46.09.82.09,1.28h37.57v3.58h1.28v-3.58h84.77c-.83,1.2-1.75,2.39-2.67,3.58h1.57c.91-1.19,1.83-2.38,2.66-3.58h28.84c.27-.37.55-.82.82-1.28h-28.84a59.18,59.18,0,0,0,8.82-25.17V647.57l-6.43-13.31-1.1.55,6.25,13v49.31a56.85,56.85,0,0,1-9,25.17h-85.6V638.39H120.8V566.94l-1.29-.09Zm473.88,72.73H760.71v82.75H593.39Zm-168.61,0H592.1v82.75H424.78Z" transform="translate(-20.88 -429)" style="fill:#a7cb64"/><rect x="946.74" y="174.95" width="1.29" height="34.99" style="fill:#2c5068"/><path d="M1077.18,652.35h15.71v34a7.25,7.25,0,0,1-.74-.37l-18.09-12a5.89,5.89,0,0,1-2.57-4.78v-11A5.74,5.74,0,0,1,1077.18,652.35Z" transform="translate(-20.88 -429)" style="fill:#2c5068"/><path d="M1073.6,656.57a3.93,3.93,0,0,1,3.58-2.39h15.71v30.13l-17.82-11.94a3.9,3.9,0,0,1-1.74-3.31V658A2.61,2.61,0,0,1,1073.6,656.57Z" transform="translate(-20.88 -429)" style="fill:url(#linear-gradient-14)"/><path d="M1092.89,656.11v24.61a12.36,12.36,0,0,1,0-24.61Z" transform="translate(-20.88 -429)" style="fill:url(#linear-gradient-15)"/><path d="M1092.89,656.11v24.61a12.36,12.36,0,0,1,0-24.61Z" transform="translate(-20.88 -429)" style="fill:url(#radial-gradient-96)"/><path d="M1092.89,665.94v5a2.75,2.75,0,0,1,0-5Z" transform="translate(-20.88 -429)" style="fill:url(#radial-gradient-97)"/><path d="M1092.89,667.59v16.62l-17.82-11.93a3.9,3.9,0,0,1-1.74-3.31v-5.14A120.73,120.73,0,0,1,1092.89,667.59Z" transform="translate(-20.88 -429)" style="fill:url(#linear-gradient-16)"/><path d="M1077.18,654.18h7.9a48.08,48.08,0,0,1,7.72,2.39v27.74L1075,672.37a3.91,3.91,0,0,1-1.75-3.31V658A4,4,0,0,1,1077.18,654.18Z" transform="translate(-20.88 -429)" style="fill:#f9b659"/><path d="M1077.18,654.18h15.71v1.93c-6.61-.18-14.6.19-19.29.46A3.71,3.71,0,0,1,1077.18,654.18Z" transform="translate(-20.88 -429)" style="fill:#fff;opacity:0.5;isolation:isolate"/><path d="M1092.89,663.55v5.51c-9.92-2.94-19.56-5.14-19.56-5.14v-3.68C1073.23,660.15,1086.09,661.53,1092.89,663.55Z" transform="translate(-20.88 -429)" style="fill:#fff;opacity:0.5;isolation:isolate"/><path d="M119,454.26V574H966.15v34.16s18.55,38.39,98.64,39.59c0,0,9.18-150-49.78-190.57a16.25,16.25,0,0,0-9.18-2.84H120.15l-1.19-.09Z" transform="translate(-20.88 -429)" style="fill:#88a84c"/><path d="M978.46,460.68v48h58c-.64-1.65-1.19-3.21-1.84-4.77-12.12-30.4-25.8-43.26-25.8-43.26Z" transform="translate(-20.88 -429)" style="fill:#5c524f"/><path d="M1012.9,521v85h35.17a4.88,4.88,0,0,0,4.87-5c-.37-11.11-1.1-21.4-2.3-31a284.24,284.24,0,0,0-10-49Z" transform="translate(-20.88 -429)" style="fill:#5c524f"/><path d="M978.46,521v80.45a4.55,4.55,0,0,0,4.59,4.59h25.16V521Z" transform="translate(-20.88 -429)" style="fill:#5c524f"/><rect x="239.97" y="31.68" width="163.38" height="109.65" style="fill:#403430"/><rect x="592.07" y="31.68" width="179.45" height="109.65" style="fill:#403430"/><rect x="413.72" y="31.68" width="167.88" height="109.65" style="fill:#403430"/><rect x="781.9" y="31.68" width="163.29" height="109.65" style="fill:#403430"/><rect x="108.55" y="31.68" width="120.95" height="109.65" style="fill:#403430"/><path d="M1036.5,474.92l-3.77-6.71s32.33-1.47,72.1,16.44a12.09,12.09,0,0,1,7.16,10.93h0v10.65h-4.41a62.6,62.6,0,0,0-1.1-10.92,9.52,9.52,0,0,0-5.51-6.71C1090.59,483.92,1071.31,478.13,1036.5,474.92Z" transform="translate(-20.88 -429)" style="fill:#fff"/><path d="M1036.5,474.92l-3.77-6.71s32.33-1.47,72.1,16.44a12.09,12.09,0,0,1,7.16,10.93h0v10.65h-4.41a62.6,62.6,0,0,0-1.1-10.92,9.52,9.52,0,0,0-5.51-6.71C1090.59,483.92,1071.31,478.13,1036.5,474.92Z" transform="translate(-20.88 -429)" style="fill:url(#linear-gradient-17)"/><circle cx="1013.6" cy="42.43" r="5.05" style="fill:#fff"/><circle cx="1013.6" cy="42.43" r="5.05" style="fill:url(#linear-gradient-18)"/><path d="M1105.84,502h8a1.61,1.61,0,0,1,1.65,1.19c.55,2,1.47,7.08,1.47,16.72v20.66c0,.19,0,.28-.09.37-.37,1.28-2.85,7.9-12.58,8a1.73,1.73,0,0,1-1.75-1.65l1.56-43.81A1.79,1.79,0,0,1,1105.84,502Z" transform="translate(-20.88 -429)" style="fill:url(#linear-gradient-19)"/><path d="M1026.67,588.34H1012.9v17.72h35.17a4.88,4.88,0,0,0,4.87-5c-.37-11.11-1.1-21.4-2.3-31-.82,1.19-1.74,2.48-2.66,3.76a10.68,10.68,0,0,0-4-2.93l2.94-4.14a2.1,2.1,0,1,0-3.4-2.48l-4,5.7a11.25,11.25,0,0,0-11.21,11.2,9.16,9.16,0,0,0,.65,3.58l-1.93,2.67A2.11,2.11,0,0,0,1026.67,588.34Z" transform="translate(-20.88 -429)" style="fill:#1a1a1a;opacity:0.30000001192092896;isolation:isolate"/><path d="M978.46,541.68v59.88a4.55,4.55,0,0,0,4.59,4.59h25.16V588.43h-5.32V521h-4.78v56.57C993.06,565.56,984.61,546.92,978.46,541.68Z" transform="translate(-20.88 -429)" style="fill:#1a1a1a;opacity:0.30000001192092896;isolation:isolate"/><path d="M978.46,503.94v4.77h58c-.64-1.65-1.19-3.21-1.84-4.77H992.14V460.68H988v43.26Z" transform="translate(-20.88 -429)" style="fill:#1a1a1a;opacity:0.30000001192092896;isolation:isolate"/><path d="M629.39,476.66v83.48H613v10.2H792.4v-12L787.26,550a15,15,0,0,0-9-6.61l-3.86-1a2.23,2.23,0,0,0-2.67,2.94l5.51,14.87h-.09l-8.81-14.23a17.07,17.07,0,0,0-10.47-7.62l-4.5-1.2a2.6,2.6,0,0,0-3.13,3.4l7.26,19.65h-62L689.27,550a15,15,0,0,0-9-6.61l-3.86-1a2.23,2.23,0,0,0-2.67,2.94l5.52,14.87h-.1l-8.81-14.23a17.07,17.07,0,0,0-10.47-7.62l-4.5-1.2a2.59,2.59,0,0,0-3.12,3.4l7.25,19.65H637.74V476.66H792.31v-5.05H637.84V460.68h-8.45v10.93H613v5.05ZM260.3,540.49l.55,1.47,6.7,18.18h-6.7v10.2H424.22v-10.2H401.54L395.3,550a15,15,0,0,0-9-6.61l-3.86-1a2.22,2.22,0,0,0-2.66,2.94l5.51,14.87h-.19l-8.81-14.23a17.1,17.1,0,0,0-10.47-7.62l-4.5-1.2a2.6,2.6,0,0,0-3.13,3.4l7.26,19.65H303.37L297.12,550a14.93,14.93,0,0,0-9-6.61l-3.85-1a2.23,2.23,0,0,0-2.67,2.94l5.51,14.87H287l-7.53-12.21V476.66H424.13v-5.05H279.58V460.68h-8.45v10.93H260.85v5.05h10.28v62.73a19.6,19.6,0,0,0-3.21-1.2l-4.5-1.19a2.6,2.6,0,0,0-2.57.73A2.7,2.7,0,0,0,260.3,540.49ZM129.43,471.61v5.05h121v-5.05Zm318.67,5.05v83.48H434.6v10.2H602.48v-10.2h-5.05L591.18,550a14.93,14.93,0,0,0-9-6.61l-3.85-1a2.23,2.23,0,0,0-2.67,2.94l5.51,14.87h-.09l-8.81-14.23a17.1,17.1,0,0,0-10.47-7.62l-4.5-1.2a2.6,2.6,0,0,0-3.13,3.4l7.26,19.65H499.35L493.1,550a14.93,14.93,0,0,0-9-6.61l-3.86-1a2.22,2.22,0,0,0-2.66,2.94l5.51,14.87H483l-8.82-14.23a17,17,0,0,0-10.47-7.62l-4.5-1.2a2.62,2.62,0,0,0-2.84,1.1V476.76H602.3V471.7H456.55V460.78H448.1V471.7H434.6v5.06h13.5v-.1Zm8.45,64.66,7,18.82h-7Zm359.17-64.66v83.48H802.78v10.2H966.06v-10.2H891.4L885.15,550a14.93,14.93,0,0,0-9-6.61l-3.85-1a2.23,2.23,0,0,0-2.67,2.94l5.51,14.87h-.09l-8.82-14.23a17.05,17.05,0,0,0-10.46-7.62l-4.5-1.2a2.59,2.59,0,0,0-3.13,3.4l7.26,19.65H824V476.66H966v-5.05H824.17V460.68h-8.45v10.93H802.78v5.05ZM129.43,560.14v10.2h121v-10.2H205.47L199.22,550a14.93,14.93,0,0,0-9-6.61l-3.85-1a2.23,2.23,0,0,0-2.67,2.94l5.51,14.87h-.09l-8.81-14.23a17.1,17.1,0,0,0-10.47-7.62l-4.5-1.2a2.6,2.6,0,0,0-3.13,3.4l7.26,19.65Z" transform="translate(-20.88 -429)" style="fill:#1a1a1a;opacity:0.30000001192092896;isolation:isolate"/><path d="M767.79,657.49v4.87c0,.09.09.18.18.27s.09.09.18.09h.09V667a2.57,2.57,0,0,0,2.58,2.57h15.61A2.56,2.56,0,0,0,789,667V650.14a2.56,2.56,0,0,0-2.57-2.57H770.82a2.58,2.58,0,0,0-2.58,2.57v7.17h-.09a.33.33,0,0,0-.27.09C767.79,657.31,767.79,657.4,767.79,657.49Zm1.1,4.78c.82-.46,2.2-1.47,2.11-2.76s-1.29-1.84-2.11-2.11v-7.35a2,2,0,0,1,2-2h15.52a2,2,0,0,1,2,2v16.81a2,2,0,0,1-2,2H770.82a2,2,0,0,1-2-2v-4.59Zm-.46-4.41c.64.18,1.84.73,1.93,1.74s-1.1,1.84-1.93,2.3Z" transform="translate(-20.88 -429)" style="fill:#a7cb64"/><path d="M749.14,714.43h3.68a1,1,0,0,0,1-1h0a1,1,0,0,0-1-1h-3.68a1,1,0,0,0-1,1h0A1,1,0,0,0,749.14,714.43Z" transform="translate(-20.88 -429)" style="fill:#fff;opacity:0.5;isolation:isolate"/><path d="M749.42,714.15h3.67a1,1,0,0,0,1-1h0a1,1,0,0,0-1-1h-3.67a1,1,0,0,0-1,1h0A1,1,0,0,0,749.42,714.15Z" transform="translate(-20.88 -429)" style="fill:#a7cb64"/><path d="M771.37,714.43H775a1,1,0,0,0,1-1h0a1,1,0,0,0-1-1h-3.67a1,1,0,0,0-1,1h0A1,1,0,0,0,771.37,714.43Z" transform="translate(-20.88 -429)" style="fill:#fff;opacity:0.5;isolation:isolate"/><path d="M771.64,714.15h3.68a1,1,0,0,0,1-1h0a1,1,0,0,0-1-1h-3.68a1,1,0,0,0-1,1h0A1,1,0,0,0,771.64,714.15Z" transform="translate(-20.88 -429)" style="fill:#a7cb64"/><path d="M749.14,648.86h3.68a1,1,0,0,0,1-1h0a1,1,0,0,0-1-1h-3.68a1,1,0,0,0-1,1h0A1,1,0,0,0,749.14,648.86Z" transform="translate(-20.88 -429)" style="fill:#fff;opacity:0.5;isolation:isolate"/><path d="M749.42,648.49h3.67a1,1,0,0,0,1-1h0a1,1,0,0,0-1-1h-3.67a1,1,0,0,0-1,1h0A1,1,0,0,0,749.42,648.49Z" transform="translate(-20.88 -429)" style="fill:#a7cb64"/><path d="M580.07,714.43h3.67a1,1,0,0,0,1-1h0a1,1,0,0,0-1-1h-3.67a1,1,0,0,0-1,1h0A1,1,0,0,0,580.07,714.43Z" transform="translate(-20.88 -429)" style="fill:#fff;opacity:0.5;isolation:isolate"/><path d="M580.35,714.15H584a1,1,0,0,0,1-1h0a1,1,0,0,0-1-1h-3.67a1,1,0,0,0-1,1h0A1,1,0,0,0,580.35,714.15Z" transform="translate(-20.88 -429)" style="fill:#a7cb64"/><path d="M602.39,714.43h3.67a1,1,0,0,0,1-1h0a1,1,0,0,0-1-1h-3.67a1,1,0,0,0-1,1h0A1,1,0,0,0,602.39,714.43Z" transform="translate(-20.88 -429)" style="fill:#fff;opacity:0.5;isolation:isolate"/><path d="M602.66,714.15h3.68a1,1,0,0,0,1-1h0a1,1,0,0,0-1-1h-3.68a1,1,0,0,0-1,1h0A1,1,0,0,0,602.66,714.15Z" transform="translate(-20.88 -429)" style="fill:#a7cb64"/><path d="M580.07,648.86h3.67a1,1,0,0,0,1-1h0a1,1,0,0,0-1-1h-3.67a1,1,0,0,0-1,1h0A1,1,0,0,0,580.07,648.86Z" transform="translate(-20.88 -429)" style="fill:#fff;opacity:0.5;isolation:isolate"/><path d="M580.35,648.49H584a1,1,0,0,0,1-1h0a1,1,0,0,0-1-1h-3.67a1,1,0,0,0-1,1h0A1,1,0,0,0,580.35,648.49Z" transform="translate(-20.88 -429)" style="fill:#a7cb64"/><path d="M410.63,714.43h3.68a1,1,0,0,0,1-1h0a1,1,0,0,0-1-1h-3.68a1,1,0,0,0-1,1h0A1,1,0,0,0,410.63,714.43Z" transform="translate(-20.88 -429)" style="fill:#fff;opacity:0.5;isolation:isolate"/><path d="M410.91,714.15h3.67a1,1,0,0,0,1-1h0a1,1,0,0,0-1-1h-3.67a1,1,0,0,0-1,1h0A1,1,0,0,0,410.91,714.15Z" transform="translate(-20.88 -429)" style="fill:#a7cb64"/><path d="M433,714.43h3.67a1,1,0,0,0,1-1h0a1,1,0,0,0-1-1H433a1,1,0,0,0-1,1h0A1,1,0,0,0,433,714.43Z" transform="translate(-20.88 -429)" style="fill:#fff;opacity:0.5;isolation:isolate"/><path d="M433.22,714.15h3.68a1,1,0,0,0,1-1h0a1,1,0,0,0-1-1h-3.68a1,1,0,0,0-1,1h0A1,1,0,0,0,433.22,714.15Z" transform="translate(-20.88 -429)" style="fill:#a7cb64"/><path d="M410.63,648.86h3.68a1,1,0,0,0,1-1h0a1,1,0,0,0-1-1h-3.68a1,1,0,0,0-1,1h0A1,1,0,0,0,410.63,648.86Z" transform="translate(-20.88 -429)" style="fill:#fff;opacity:0.5;isolation:isolate"/><path d="M410.91,648.49h3.67a1,1,0,0,0,1-1h0a1,1,0,0,0-1-1h-3.67a1,1,0,0,0-1,1h0A1,1,0,0,0,410.91,648.49Z" transform="translate(-20.88 -429)" style="fill:#a7cb64"/><path d="M129.52,714.43h3.67a1,1,0,0,0,1-1h0a1,1,0,0,0-1-1h-3.67a1,1,0,0,0-1,1h0A1,1,0,0,0,129.52,714.43Z" transform="translate(-20.88 -429)" style="fill:#fff;opacity:0.5;isolation:isolate"/><path d="M129.8,714.15h3.67a1,1,0,0,0,1-1h0a1,1,0,0,0-1-1H129.8a1,1,0,0,0-1,1h0A1,1,0,0,0,129.8,714.15Z" transform="translate(-20.88 -429)" style="fill:#a7cb64"/><path d="M129.52,648.86h3.67a1,1,0,0,0,1-1h0a1,1,0,0,0-1-1h-3.67a1,1,0,0,0-1,1h0A1,1,0,0,0,129.52,648.86Z" transform="translate(-20.88 -429)" style="fill:#fff;opacity:0.5;isolation:isolate"/><path d="M129.8,648.49h3.67a1,1,0,0,0,1-1h0a1,1,0,0,0-1-1H129.8a1,1,0,0,0-1,1h0A1,1,0,0,0,129.8,648.49Z" transform="translate(-20.88 -429)" style="fill:#a7cb64"/><path d="M145.22,698.72h87.89a.63.63,0,0,0,.65-.64V657a.63.63,0,0,0-.65-.64H145.22a.63.63,0,0,0-.64.64v41.05A.63.63,0,0,0,145.22,698.72Z" transform="translate(-20.88 -429)" style="fill:#a7cb64"/><path d="M146.14,697.71H234a.62.62,0,0,0,.64-.64V656a.62.62,0,0,0-.64-.64H146.14a.63.63,0,0,0-.64.64v41.05A.63.63,0,0,0,146.14,697.71Z" transform="translate(-20.88 -429)" style="fill:#29abe2"/><path d="M146.14,697.71H234a.62.62,0,0,0,.64-.64V656a.62.62,0,0,0-.64-.64H146.14a.63.63,0,0,0-.64.64v41.05A.63.63,0,0,0,146.14,697.71Z" transform="translate(-20.88 -429)" style="fill:#a7cb64"/><rect x="127.74" y="230.14" width="82.84" height="34.81"/><path d="M229.81,696h0a.6.6,0,0,0,.55-.55V658a.59.59,0,0,0-.55-.55h0a.58.58,0,0,0-.55.55v37.47A.52.52,0,0,0,229.81,696Z" transform="translate(-20.88 -429)" style="fill:#a7cb64"/><path d="M229.81,696h0a.6.6,0,0,0,.55-.55V658a.59.59,0,0,0-.55-.55h0a.58.58,0,0,0-.55.55v37.47A.52.52,0,0,0,229.81,696Z" transform="translate(-20.88 -429)" style="fill:#a7cb64"/><path d="M227.05,696h0a.59.59,0,0,0,.55-.55V658a.58.58,0,0,0-.55-.55h0a.59.59,0,0,0-.55.55v37.47A.53.53,0,0,0,227.05,696Z" transform="translate(-20.88 -429)" style="fill:#a7cb64"/><path d="M227.05,696h0a.59.59,0,0,0,.55-.55V658a.58.58,0,0,0-.55-.55h0a.59.59,0,0,0-.55.55v37.47A.53.53,0,0,0,227.05,696Z" transform="translate(-20.88 -429)" style="fill:#a7cb64"/><path d="M224.3,696h0a.6.6,0,0,0,.55-.55V658a.59.59,0,0,0-.55-.55h0a.59.59,0,0,0-.56.55v37.47A.53.53,0,0,0,224.3,696Z" transform="translate(-20.88 -429)" style="fill:#a7cb64"/><path d="M224.3,696h0a.6.6,0,0,0,.55-.55V658a.59.59,0,0,0-.55-.55h0a.59.59,0,0,0-.56.55v37.47A.53.53,0,0,0,224.3,696Z" transform="translate(-20.88 -429)" style="fill:#a7cb64"/><path d="M221.54,696h0a.59.59,0,0,0,.55-.55V658a.58.58,0,0,0-.55-.55h0a.59.59,0,0,0-.55.55v37.47A.53.53,0,0,0,221.54,696Z" transform="translate(-20.88 -429)" style="fill:#a7cb64"/><path d="M221.54,696h0a.59.59,0,0,0,.55-.55V658a.58.58,0,0,0-.55-.55h0a.59.59,0,0,0-.55.55v37.47A.53.53,0,0,0,221.54,696Z" transform="translate(-20.88 -429)" style="fill:#a7cb64"/><path d="M218.88,696h0a.6.6,0,0,0,.55-.55V658a.59.59,0,0,0-.55-.55h0a.58.58,0,0,0-.55.55v37.47A.48.48,0,0,0,218.88,696Z" transform="translate(-20.88 -429)" style="fill:#a7cb64"/><path d="M218.88,696h0a.6.6,0,0,0,.55-.55V658a.59.59,0,0,0-.55-.55h0a.58.58,0,0,0-.55.55v37.47A.48.48,0,0,0,218.88,696Z" transform="translate(-20.88 -429)" style="fill:#a7cb64"/><path d="M216.12,696h0a.59.59,0,0,0,.55-.55V658a.58.58,0,0,0-.55-.55h0a.59.59,0,0,0-.55.55v37.47A.49.49,0,0,0,216.12,696Z" transform="translate(-20.88 -429)" style="fill:#a7cb64"/><path d="M216.12,696h0a.59.59,0,0,0,.55-.55V658a.58.58,0,0,0-.55-.55h0a.59.59,0,0,0-.55.55v37.47A.49.49,0,0,0,216.12,696Z" transform="translate(-20.88 -429)" style="fill:#a7cb64"/><path d="M213.37,696h0a.6.6,0,0,0,.55-.55V658a.59.59,0,0,0-.55-.55h0a.58.58,0,0,0-.55.55v37.47A.52.52,0,0,0,213.37,696Z" transform="translate(-20.88 -429)" style="fill:#a7cb64"/><path d="M213.37,696h0a.6.6,0,0,0,.55-.55V658a.59.59,0,0,0-.55-.55h0a.58.58,0,0,0-.55.55v37.47A.52.52,0,0,0,213.37,696Z" transform="translate(-20.88 -429)" style="fill:#a7cb64"/><path d="M210.61,696h0a.59.59,0,0,0,.55-.55V658a.58.58,0,0,0-.55-.55h0a.59.59,0,0,0-.55.55v37.47A.53.53,0,0,0,210.61,696Z" transform="translate(-20.88 -429)" style="fill:#a7cb64"/><path d="M210.61,696h0a.59.59,0,0,0,.55-.55V658a.58.58,0,0,0-.55-.55h0a.59.59,0,0,0-.55.55v37.47A.53.53,0,0,0,210.61,696Z" transform="translate(-20.88 -429)" style="fill:#a7cb64"/><path d="M207.86,696h0a.6.6,0,0,0,.55-.55V658a.59.59,0,0,0-.55-.55h0a.58.58,0,0,0-.55.55v37.47A.52.52,0,0,0,207.86,696Z" transform="translate(-20.88 -429)" style="fill:#a7cb64"/><path d="M207.86,696h0a.6.6,0,0,0,.55-.55V658a.59.59,0,0,0-.55-.55h0a.58.58,0,0,0-.55.55v37.47A.52.52,0,0,0,207.86,696Z" transform="translate(-20.88 -429)" style="fill:#a7cb64"/><path d="M205.1,696h0a.59.59,0,0,0,.55-.55V658a.58.58,0,0,0-.55-.55h0a.59.59,0,0,0-.55.55v37.47A.53.53,0,0,0,205.1,696Z" transform="translate(-20.88 -429)" style="fill:#a7cb64"/><path d="M205.1,696h0a.59.59,0,0,0,.55-.55V658a.58.58,0,0,0-.55-.55h0a.59.59,0,0,0-.55.55v37.47A.53.53,0,0,0,205.1,696Z" transform="translate(-20.88 -429)" style="fill:#a7cb64"/><path d="M202.44,696h0a.6.6,0,0,0,.55-.55V658a.59.59,0,0,0-.55-.55h0a.58.58,0,0,0-.55.55v37.47A.48.48,0,0,0,202.44,696Z" transform="translate(-20.88 -429)" style="fill:#a7cb64"/><path d="M202.44,696h0a.6.6,0,0,0,.55-.55V658a.59.59,0,0,0-.55-.55h0a.58.58,0,0,0-.55.55v37.47A.48.48,0,0,0,202.44,696Z" transform="translate(-20.88 -429)" style="fill:#a7cb64"/><path d="M199.68,696h0a.59.59,0,0,0,.55-.55V658a.58.58,0,0,0-.55-.55h0a.59.59,0,0,0-.55.55v37.47A.49.49,0,0,0,199.68,696Z" transform="translate(-20.88 -429)" style="fill:#a7cb64"/><path d="M199.68,696h0a.59.59,0,0,0,.55-.55V658a.58.58,0,0,0-.55-.55h0a.59.59,0,0,0-.55.55v37.47A.49.49,0,0,0,199.68,696Z" transform="translate(-20.88 -429)" style="fill:#a7cb64"/><path d="M196.93,696h0a.6.6,0,0,0,.55-.55V658a.59.59,0,0,0-.55-.55h0a.58.58,0,0,0-.55.55v37.47A.52.52,0,0,0,196.93,696Z" transform="translate(-20.88 -429)" style="fill:#a7cb64"/><path d="M196.93,696h0a.6.6,0,0,0,.55-.55V658a.59.59,0,0,0-.55-.55h0a.58.58,0,0,0-.55.55v37.47A.52.52,0,0,0,196.93,696Z" transform="translate(-20.88 -429)" style="fill:#a7cb64"/><path d="M194.17,696h0a.59.59,0,0,0,.55-.55V658a.58.58,0,0,0-.55-.55h0a.59.59,0,0,0-.55.55v37.47A.53.53,0,0,0,194.17,696Z" transform="translate(-20.88 -429)" style="fill:#a7cb64"/><path d="M194.17,696h0a.59.59,0,0,0,.55-.55V658a.58.58,0,0,0-.55-.55h0a.59.59,0,0,0-.55.55v37.47A.53.53,0,0,0,194.17,696Z" transform="translate(-20.88 -429)" style="fill:#a7cb64"/><path d="M191.42,696h0a.6.6,0,0,0,.55-.55V658a.59.59,0,0,0-.55-.55h0a.58.58,0,0,0-.55.55v37.47A.52.52,0,0,0,191.42,696Z" transform="translate(-20.88 -429)" style="fill:#a7cb64"/><path d="M191.42,696h0a.6.6,0,0,0,.55-.55V658a.59.59,0,0,0-.55-.55h0a.58.58,0,0,0-.55.55v37.47A.52.52,0,0,0,191.42,696Z" transform="translate(-20.88 -429)" style="fill:#a7cb64"/><path d="M188.66,696h0a.59.59,0,0,0,.55-.55V658a.58.58,0,0,0-.55-.55h0a.59.59,0,0,0-.55.55v37.47A.53.53,0,0,0,188.66,696Z" transform="translate(-20.88 -429)" style="fill:#a7cb64"/><path d="M188.66,696h0a.59.59,0,0,0,.55-.55V658a.58.58,0,0,0-.55-.55h0a.59.59,0,0,0-.55.55v37.47A.53.53,0,0,0,188.66,696Z" transform="translate(-20.88 -429)" style="fill:#a7cb64"/><path d="M186,696h0a.59.59,0,0,0,.55-.55V658a.58.58,0,0,0-.55-.55h0a.58.58,0,0,0-.55.55v37.47A.48.48,0,0,0,186,696Z" transform="translate(-20.88 -429)" style="fill:#a7cb64"/><path d="M186,696h0a.59.59,0,0,0,.55-.55V658a.58.58,0,0,0-.55-.55h0a.58.58,0,0,0-.55.55v37.47A.48.48,0,0,0,186,696Z" transform="translate(-20.88 -429)" style="fill:#a7cb64"/><path d="M183.24,696h0a.6.6,0,0,0,.56-.55V658a.59.59,0,0,0-.56-.55h0a.59.59,0,0,0-.55.55v37.47A.49.49,0,0,0,183.24,696Z" transform="translate(-20.88 -429)" style="fill:#a7cb64"/><path d="M183.24,696h0a.6.6,0,0,0,.56-.55V658a.59.59,0,0,0-.56-.55h0a.59.59,0,0,0-.55.55v37.47A.49.49,0,0,0,183.24,696Z" transform="translate(-20.88 -429)" style="fill:#a7cb64"/><path d="M180.49,696h0a.59.59,0,0,0,.55-.55V658a.58.58,0,0,0-.55-.55h0a.58.58,0,0,0-.55.55v37.47A.52.52,0,0,0,180.49,696Z" transform="translate(-20.88 -429)" style="fill:#a7cb64"/><path d="M180.49,696h0a.59.59,0,0,0,.55-.55V658a.58.58,0,0,0-.55-.55h0a.58.58,0,0,0-.55.55v37.47A.52.52,0,0,0,180.49,696Z" transform="translate(-20.88 -429)" style="fill:#a7cb64"/><path d="M177.73,696h0a.6.6,0,0,0,.56-.55V658a.59.59,0,0,0-.56-.55h0a.59.59,0,0,0-.55.55v37.47A.53.53,0,0,0,177.73,696Z" transform="translate(-20.88 -429)" style="fill:#a7cb64"/><path d="M177.73,696h0a.6.6,0,0,0,.56-.55V658a.59.59,0,0,0-.56-.55h0a.59.59,0,0,0-.55.55v37.47A.53.53,0,0,0,177.73,696Z" transform="translate(-20.88 -429)" style="fill:#a7cb64"/><path d="M175,696h0a.59.59,0,0,0,.55-.55V658a.58.58,0,0,0-.55-.55h0a.58.58,0,0,0-.55.55v37.47A.52.52,0,0,0,175,696Z" transform="translate(-20.88 -429)" style="fill:#a7cb64"/><path d="M175,696h0a.59.59,0,0,0,.55-.55V658a.58.58,0,0,0-.55-.55h0a.58.58,0,0,0-.55.55v37.47A.52.52,0,0,0,175,696Z" transform="translate(-20.88 -429)" style="fill:#a7cb64"/><path d="M172.22,696h0a.6.6,0,0,0,.56-.55V658a.59.59,0,0,0-.56-.55h0a.59.59,0,0,0-.55.55v37.47A.53.53,0,0,0,172.22,696Z" transform="translate(-20.88 -429)" style="fill:#a7cb64"/><path d="M172.22,696h0a.6.6,0,0,0,.56-.55V658a.59.59,0,0,0-.56-.55h0a.59.59,0,0,0-.55.55v37.47A.53.53,0,0,0,172.22,696Z" transform="translate(-20.88 -429)" style="fill:#a7cb64"/><path d="M169.56,696h0a.59.59,0,0,0,.55-.55V658a.58.58,0,0,0-.55-.55h0a.59.59,0,0,0-.55.55v37.47A.48.48,0,0,0,169.56,696Z" transform="translate(-20.88 -429)" style="fill:#a7cb64"/><path d="M169.56,696h0a.59.59,0,0,0,.55-.55V658a.58.58,0,0,0-.55-.55h0a.59.59,0,0,0-.55.55v37.47A.48.48,0,0,0,169.56,696Z" transform="translate(-20.88 -429)" style="fill:#a7cb64"/><path d="M166.81,696h0a.6.6,0,0,0,.55-.55V658a.59.59,0,0,0-.55-.55h0a.58.58,0,0,0-.55.55v37.47A.48.48,0,0,0,166.81,696Z" transform="translate(-20.88 -429)" style="fill:#a7cb64"/><path d="M166.81,696h0a.6.6,0,0,0,.55-.55V658a.59.59,0,0,0-.55-.55h0a.58.58,0,0,0-.55.55v37.47A.48.48,0,0,0,166.81,696Z" transform="translate(-20.88 -429)" style="fill:#a7cb64"/><path d="M164.05,696h0a.59.59,0,0,0,.55-.55V658a.58.58,0,0,0-.55-.55h0a.59.59,0,0,0-.55.55v37.47A.53.53,0,0,0,164.05,696Z" transform="translate(-20.88 -429)" style="fill:#a7cb64"/><path d="M164.05,696h0a.59.59,0,0,0,.55-.55V658a.58.58,0,0,0-.55-.55h0a.59.59,0,0,0-.55.55v37.47A.53.53,0,0,0,164.05,696Z" transform="translate(-20.88 -429)" style="fill:#a7cb64"/><path d="M161.3,696h0a.6.6,0,0,0,.55-.55V658a.59.59,0,0,0-.55-.55h0a.59.59,0,0,0-.56.55v37.47A.53.53,0,0,0,161.3,696Z" transform="translate(-20.88 -429)" style="fill:#a7cb64"/><path d="M161.3,696h0a.6.6,0,0,0,.55-.55V658a.59.59,0,0,0-.55-.55h0a.59.59,0,0,0-.56.55v37.47A.53.53,0,0,0,161.3,696Z" transform="translate(-20.88 -429)" style="fill:#a7cb64"/><path d="M158.54,696h0a.59.59,0,0,0,.55-.55V658a.58.58,0,0,0-.55-.55h0a.59.59,0,0,0-.55.55v37.47A.53.53,0,0,0,158.54,696Z" transform="translate(-20.88 -429)" style="fill:#a7cb64"/><path d="M158.54,696h0a.59.59,0,0,0,.55-.55V658a.58.58,0,0,0-.55-.55h0a.59.59,0,0,0-.55.55v37.47A.53.53,0,0,0,158.54,696Z" transform="translate(-20.88 -429)" style="fill:#a7cb64"/><path d="M155.79,696h0a.6.6,0,0,0,.55-.55V658a.59.59,0,0,0-.55-.55h0a.59.59,0,0,0-.56.55v37.47A.53.53,0,0,0,155.79,696Z" transform="translate(-20.88 -429)" style="fill:#a7cb64"/><path d="M155.79,696h0a.6.6,0,0,0,.55-.55V658a.59.59,0,0,0-.55-.55h0a.59.59,0,0,0-.56.55v37.47A.53.53,0,0,0,155.79,696Z" transform="translate(-20.88 -429)" style="fill:#a7cb64"/><path d="M153.12,696h0a.59.59,0,0,0,.55-.55V658a.58.58,0,0,0-.55-.55h0a.59.59,0,0,0-.55.55v37.47A.49.49,0,0,0,153.12,696Z" transform="translate(-20.88 -429)" style="fill:#a7cb64"/><path d="M153.12,696h0a.59.59,0,0,0,.55-.55V658a.58.58,0,0,0-.55-.55h0a.59.59,0,0,0-.55.55v37.47A.49.49,0,0,0,153.12,696Z" transform="translate(-20.88 -429)" style="fill:#a7cb64"/><path d="M150.37,696h0a.6.6,0,0,0,.55-.55V658a.59.59,0,0,0-.55-.55h0a.58.58,0,0,0-.55.55v37.47A.48.48,0,0,0,150.37,696Z" transform="translate(-20.88 -429)" style="fill:#a7cb64"/><path d="M150.37,696h0a.6.6,0,0,0,.55-.55V658a.59.59,0,0,0-.55-.55h0a.58.58,0,0,0-.55.55v37.47A.48.48,0,0,0,150.37,696Z" transform="translate(-20.88 -429)" style="fill:#a7cb64"/><path d="M992,644.91v-4.5a1.55,1.55,0,0,0-1.56-1.56H976.62a1.54,1.54,0,0,0-1.56,1.56v4.5Z" transform="translate(-20.88 -429)" style="fill:#fff"/><path d="M86.72,528.64v27.92l13.69-7.07V464.82a11.11,11.11,0,0,0-5.24-9.28C86.72,479.79,86.72,528.64,86.72,528.64Z" transform="translate(-20.88 -429)" style="fill:#403430"/></svg>