<svg id="Layer_1" data-name="Layer 1" xmlns="http://www.w3.org/2000/svg" xmlns:xlink="http://www.w3.org/1999/xlink" viewBox="0 0 1147.2 466.6"><defs><radialGradient id="radial-gradient" cx="3661.66" cy="512.5" r="66.09" gradientTransform="translate(4026.86 1200) rotate(180)" gradientUnits="userSpaceOnUse"><stop offset="0" stop-color="#231f20"/><stop offset="0.41" stop-color="#252122"/><stop offset="0.56" stop-color="#2b2729"/><stop offset="0.67" stop-color="#353334"/><stop offset="0.74" stop-color="#414042"/><stop offset="0.77" stop-color="#4d4d4f"/><stop offset="0.8" stop-color="#555658"/><stop offset="0.85" stop-color="#58595b"/><stop offset="0.92" stop-color="#414042"/></radialGradient><linearGradient id="linear-gradient" x1="3627.7" y1="530.75" x2="3650.77" y2="530.75" gradientTransform="translate(4026.86 1200) rotate(180)" gradientUnits="userSpaceOnUse"><stop offset="0.03" stop-color="#6d6e71"/><stop offset="0.25" stop-color="#bcbec0"/><stop offset="0.52" stop-color="#d1d3d4"/><stop offset="0.69" stop-color="#bcbec0"/><stop offset="0.98" stop-color="#58595b"/></linearGradient><linearGradient id="linear-gradient-2" x1="3638.13" y1="486.75" x2="3657.78" y2="486.75" xlink:href="#linear-gradient"/><linearGradient id="linear-gradient-3" x1="3672.8" y1="530.65" x2="3695.9" y2="530.65" xlink:href="#linear-gradient"/><linearGradient id="linear-gradient-4" x1="3623.89" y1="503.85" x2="3645.79" y2="503.85" xlink:href="#linear-gradient"/><linearGradient id="linear-gradient-5" x1="3677.66" y1="503.75" x2="3699.56" y2="503.75" xlink:href="#linear-gradient"/><linearGradient id="linear-gradient-6" x1="3653.46" y1="539.59" x2="3670.27" y2="539.59" xlink:href="#linear-gradient"/><linearGradient id="linear-gradient-7" x1="3665.66" y1="486.65" x2="3685.3" y2="486.65" xlink:href="#linear-gradient"/><radialGradient id="radial-gradient-2" cx="3834.46" r="66" xlink:href="#radial-gradient"/><linearGradient id="linear-gradient-8" x1="3800.42" y1="530.75" x2="3823.5" y2="530.75" xlink:href="#linear-gradient"/><linearGradient id="linear-gradient-9" x1="3810.86" y1="486.75" x2="3830.5" y2="486.75" xlink:href="#linear-gradient"/><linearGradient id="linear-gradient-10" x1="3845.53" y1="530.65" x2="3868.63" y2="530.65" xlink:href="#linear-gradient"/><linearGradient id="linear-gradient-11" x1="3796.61" y1="503.85" x2="3818.51" y2="503.85" xlink:href="#linear-gradient"/><linearGradient id="linear-gradient-12" x1="3850.4" y1="503.75" x2="3872.3" y2="503.75" xlink:href="#linear-gradient"/><linearGradient id="linear-gradient-13" x1="3826.18" y1="539.59" x2="3843" y2="539.59" xlink:href="#linear-gradient"/><linearGradient id="linear-gradient-14" x1="3838.39" y1="486.65" x2="3858.04" y2="486.65" xlink:href="#linear-gradient"/><radialGradient id="radial-gradient-3" cx="2968.26" r="66" xlink:href="#radial-gradient"/><linearGradient id="linear-gradient-15" x1="2934.25" y1="530.75" x2="2957.33" y2="530.75" xlink:href="#linear-gradient"/><linearGradient id="linear-gradient-16" x1="2944.69" y1="486.75" x2="2964.33" y2="486.75" xlink:href="#linear-gradient"/><linearGradient id="linear-gradient-17" x1="2979.36" y1="530.65" x2="3002.46" y2="530.65" xlink:href="#linear-gradient"/><linearGradient id="linear-gradient-18" x1="2930.44" y1="503.85" x2="2952.34" y2="503.85" xlink:href="#linear-gradient"/><linearGradient id="linear-gradient-19" x1="2984.23" y1="503.75" x2="3006.13" y2="503.75" xlink:href="#linear-gradient"/><linearGradient id="linear-gradient-20" x1="2960" y1="539.59" x2="2976.82" y2="539.59" xlink:href="#linear-gradient"/><linearGradient id="linear-gradient-21" x1="2972.22" y1="486.65" x2="2991.87" y2="486.65" xlink:href="#linear-gradient"/><radialGradient id="radial-gradient-4" cx="3095.15" cy="627.53" r="3.34" gradientTransform="translate(4026.86 1200) rotate(180)" gradientUnits="userSpaceOnUse"><stop offset="0" stop-color="#231f20"/><stop offset="0.47" stop-color="#252122"/><stop offset="0.64" stop-color="#2b2729"/><stop offset="0.77" stop-color="#353334"/><stop offset="0.85" stop-color="#414042"/><stop offset="0.99" stop-color="#414042"/></radialGradient><radialGradient id="radial-gradient-5" cx="3095.15" cy="593.98" r="3.34" xlink:href="#radial-gradient-4"/></defs><title>Dump Truck</title><path d="M774.1,576.1a3.91,3.91,0,1,0,0-7.8c-19.8,0-25.4-6.4-25.7-9.8V386.9c0-19.1-28.3-23-29.5-23.1a4.11,4.11,0,0,0-4.7,3.3,4,4,0,0,0,3.6,4.4c.3,0,22.3,3.1,22.3,15.4V558.6C740,559.3,740.4,576.1,774.1,576.1Z" transform="translate(-26.4 -297.8)" style="fill:#231f20"/><rect x="704.46" y="92.43" width="25.9" height="159.3" style="fill:#808285"/><rect x="723.9" y="92.43" width="6.5" height="159.3" style="fill:#6d6e71"/><rect x="704.46" y="208.97" width="25.9" height="8" style="fill:#231f20;stroke:#58595b;stroke-miterlimit:10;stroke-width:0.41269999742507935px"/><rect x="704.46" y="115.86" width="25.9" height="8" style="fill:#231f20;stroke:#58595b;stroke-miterlimit:10;stroke-width:0.41269999742507935px"/><rect x="77.94" y="283.8" width="1062.1" height="83.6" style="fill:#88a84c"/><rect x="91.13" y="271.02" width="606.9" height="27.3" style="fill:#88a84c"/><polygon points="781.1 48.7 885.2 48.7 885.2 53.1 898.6 53.1 898.6 65.4 763.5 65.4 763.5 53.1 781.1 53.1 781.1 48.7" style="fill:#88a84c"/><polygon points="781.1 40.3 885.2 40.3 885.2 44.8 898.6 44.8 898.6 57 763.5 57 763.5 44.8 781.1 44.8 781.1 40.3" style="fill:#a7cb64"/><path d="M447.6,675.2l.7-1.3h11.2l.6,1.3h54.8v-3.6h12.5v3.6h42.8l.5-1.3h8.7l.5,1.3H768.4a62.44,62.44,0,0,0-.1-18.3l-1.9-11.7H369.1l.9,30.1h77.6Z" transform="translate(-26.4 -297.8)" style="fill:#a7cb64"/><path d="M1125.3,501.6l7.3-7.2a2.63,2.63,0,0,1,3.6.6l2.7,2.7c.1.1.1.1.1.2s-.1.2-.2.3a4.18,4.18,0,0,0-2.3-.7c-4.9,0-5.5,6.7-1.7,8.3l-2.7,2.7a2.63,2.63,0,0,1-3.6-.6l-2.7-2.7C1124.7,504,1124.4,502.4,1125.3,501.6Z" transform="translate(-26.4 -297.8)" style="fill:#a7cb64"/><rect x="91.8" y="67.94" width="565.9" height="209.9" style="fill:#a7cb64"/><rect x="91.8" y="228.51" width="565.9" height="9.4" style="fill:#88a84c"/><rect x="91.8" y="259.68" width="565.9" height="4.7" style="fill:#88a84c"/><rect x="601.95" y="80.45" width="21.9" height="137.1" style="fill:#88a84c"/><rect x="561.85" y="80.45" width="21.9" height="137.1" style="fill:#88a84c"/><rect x="521.75" y="80.45" width="21.9" height="137.1" style="fill:#88a84c"/><rect x="481.64" y="80.45" width="21.9" height="137.1" style="fill:#88a84c"/><rect x="441.54" y="80.45" width="21.9" height="137.1" style="fill:#88a84c"/><rect x="401.44" y="80.45" width="21.9" height="137.1" style="fill:#88a84c"/><rect x="361.34" y="80.45" width="21.9" height="137.1" style="fill:#88a84c"/><rect x="321.23" y="80.45" width="21.9" height="137.1" style="fill:#88a84c"/><rect x="281.13" y="80.45" width="21.9" height="137.1" style="fill:#88a84c"/><rect x="241.03" y="80.45" width="21.9" height="137.1" style="fill:#88a84c"/><rect x="200.92" y="80.45" width="21.9" height="137.1" style="fill:#88a84c"/><rect x="160.82" y="80.45" width="21.9" height="137.1" style="fill:#88a84c"/><rect x="120.72" y="80.45" width="21.9" height="137.1" style="fill:#88a84c"/><path d="M104.4,620.1h13.8V345.7h-25V608.9A11.18,11.18,0,0,0,104.4,620.1Z" transform="translate(-26.4 -297.8)" style="fill:#a7cb64"/><rect x="26.49" y="47.85" width="42.1" height="237.9" style="fill:#a7cb64"/><path d="M682.3,585h42.1V361a13.87,13.87,0,0,0-13.9-13.9H682.2V585Z" transform="translate(-26.4 -297.8)" style="fill:#88a84c"/><rect x="69.1" y="310.75" width="8.8" height="119" style="fill:#aea7a7"/><rect x="225.98" y="352.28" width="49.7" height="9.7" style="fill:#88a84c"/><rect x="261.32" y="348.04" width="9.6" height="8.5" style="fill:#88a84c"/><rect x="247.14" y="350.74" width="9.6" height="8.5" style="fill:#88a84c"/><rect x="232.94" y="348.02" width="9.6" height="8.5" style="fill:#88a84c"/><rect x="238.51" y="366.51" width="27.6" height="3.2" style="fill:#88a84c"/><rect x="258.19" y="365.1" width="5.3" height="2.8" style="fill:#88a84c"/><rect x="250.31" y="365.99" width="5.3" height="2.8" style="fill:#231f20"/><rect x="242.41" y="365.07" width="5.3" height="2.8" style="fill:#88a84c"/><rect x="238.54" y="372.55" width="27.6" height="7.3" style="fill:#88a84c"/><rect x="258.21" y="369.32" width="5.3" height="6.4" style="fill:#88a84c"/><rect x="250.25" y="371.34" width="5.3" height="6.4" style="fill:#231f20"/><rect x="242.44" y="369.3" width="5.3" height="6.4" style="fill:#88a84c"/><polygon points="9 254.8 9 71.4 13.6 71.4 13.6 47.9 26.5 47.9 26.5 285.8 13.6 285.8 13.6 254.8 9 254.8" style="fill:#a7cb64"/><path d="M54.2,585V559.9H90.5V581a10.11,10.11,0,0,1-2.7,6.9L72.4,604.7h-46V585Z" transform="translate(-26.4 -297.8)" style="fill:#aea7a7"/><rect x="53.25" y="314.16" width="15.8" height="43.6" style="fill:#aea7a7"/><circle cx="73.7" cy="369.6" r="11.2" transform="matrix(0.03, -1, 1, 0.03, -324.55, 133.16)" style="fill:#88a84c"/><path d="M62.5,523.9a11.2,11.2,0,1,0,11.2-11.2A11.18,11.18,0,0,0,62.5,523.9Z" transform="translate(-26.4 -297.8)" style="fill:#88a84c"/><path d="M1173.6,637.9l-5.9-102.1s2.9-22.1-38-31.6-152.9-36.7-152.9-36.7l-29.5-85h-186V686.7H949.1V669.3h224.5Z" transform="translate(-26.4 -297.8)" style="fill:#88a84c"/><polygon points="1132.6 338 1132.6 371.4 946.5 371.4 946.5 388.8 727.5 388.8 727.5 338 1132.6 338" style="fill:#aea7a7"/><rect x="1079.1" y="354.3" width="53.4" height="11.6" style="fill:#3b3a3a;stroke:#231f20;stroke-miterlimit:10;stroke-width:0.7742000222206116px"/><rect x="1074.1" y="364.3" width="58.4" height="11.6" style="fill:#3b3a3a;stroke:#231f20;stroke-miterlimit:10;stroke-width:0.7742000222206116px"/><path d="M442.1,687.5a77,77,0,1,1-77-76.9A76.95,76.95,0,0,1,442.1,687.5Z" transform="translate(-26.4 -297.8)" style="fill:#3d3b3d"/><path d="M442.1,687.5a77,77,0,1,1-77-76.9A76.95,76.95,0,0,1,442.1,687.5Z" transform="translate(-26.4 -297.8)"/><path d="M431.2,687.5a66,66,0,1,1-66-66A66,66,0,0,1,431.2,687.5Z" transform="translate(-26.4 -297.8)" style="fill:url(#radial-gradient)"/><path d="M421.8,687.5a56.65,56.65,0,1,1-56.7-56.6A56.72,56.72,0,0,1,421.8,687.5Z" transform="translate(-26.4 -297.8)" style="fill:#231f20"/><path d="M421.8,687.5a56.65,56.65,0,1,1-56.7-56.6A56.72,56.72,0,0,1,421.8,687.5Z" transform="translate(-26.4 -297.8)" style="fill:#3b3a3a"/><path d="M405.1,687.5a40,40,0,1,1-40-40A40,40,0,0,1,405.1,687.5Z" transform="translate(-26.4 -297.8)" style="fill:#fff;stroke:#3d3b3d;stroke-miterlimit:10;stroke-width:0.428600013256073px"/><path d="M392.9,688a27.8,27.8,0,1,1-27.8-27.8A27.8,27.8,0,0,1,392.9,688Z" transform="translate(-26.4 -297.8)" style="fill:#f6f6f6"/><path d="M376.1,674.1l12.5-15.8a38.07,38.07,0,0,1,10.5,13.1L381,680.2A16.18,16.18,0,0,0,376.1,674.1Z" transform="translate(-26.4 -297.8)" style="fill:url(#linear-gradient)"/><path d="M388.7,717.5a37.65,37.65,0,0,1-15.2,7.3L369,705.1a19.42,19.42,0,0,0,7.1-3.4Z" transform="translate(-26.4 -297.8)" style="fill:url(#linear-gradient-2)"/><path d="M349.1,680.3l-18.2-8.7a38.42,38.42,0,0,1,10.5-13.2L354,674.1A19.81,19.81,0,0,0,349.1,680.3Z" transform="translate(-26.4 -297.8)" style="fill:url(#linear-gradient-3)"/><path d="M382.8,688v-.1H403v.1a38.56,38.56,0,0,1-3.7,16.4l-18.2-8.8A18.31,18.31,0,0,0,382.8,688Z" transform="translate(-26.4 -297.8)" style="fill:url(#linear-gradient-4)"/><path d="M347.4,688a17.08,17.08,0,0,0,1.8,7.7l-18.1,8.8a37.23,37.23,0,0,1-3.8-16.4Z" transform="translate(-26.4 -297.8)" style="fill:url(#linear-gradient-5)"/><path d="M356.6,651.1a38.1,38.1,0,0,1,16.8-.1L369,670.7a17.56,17.56,0,0,0-7.9,0Z" transform="translate(-26.4 -297.8)" style="fill:url(#linear-gradient-6)"/><path d="M361.2,705.2l-4.5,19.7a36.4,36.4,0,0,1-15.2-7.3l12.6-15.8A18.69,18.69,0,0,0,361.2,705.2Z" transform="translate(-26.4 -297.8)" style="fill:url(#linear-gradient-7)"/><path d="M269.3,687.5a77,77,0,1,1-77-76.9A76.95,76.95,0,0,1,269.3,687.5Z" transform="translate(-26.4 -297.8)" style="fill:#3d3b3d"/><path d="M269.3,687.5a77,77,0,1,1-77-76.9A76.95,76.95,0,0,1,269.3,687.5Z" transform="translate(-26.4 -297.8)"/><path d="M258.4,687.5a66,66,0,1,1-66-66A66,66,0,0,1,258.4,687.5Z" transform="translate(-26.4 -297.8)" style="fill:url(#radial-gradient-2)"/><path d="M249,687.5a56.65,56.65,0,1,1-56.7-56.6A56.72,56.72,0,0,1,249,687.5Z" transform="translate(-26.4 -297.8)" style="fill:#231f20"/><path d="M249,687.5a56.65,56.65,0,1,1-56.7-56.6A56.72,56.72,0,0,1,249,687.5Z" transform="translate(-26.4 -297.8)" style="fill:#3b3a3a"/><path d="M232.4,687.5a40,40,0,1,1-40-40A40,40,0,0,1,232.4,687.5Z" transform="translate(-26.4 -297.8)" style="fill:#fff;stroke:#3d3b3d;stroke-miterlimit:10;stroke-width:0.428600013256073px"/><path d="M220.2,688a27.8,27.8,0,1,1-27.8-27.8A27.8,27.8,0,0,1,220.2,688Z" transform="translate(-26.4 -297.8)" style="fill:#f6f6f6"/><path d="M203.4,674.1l12.5-15.8a38.07,38.07,0,0,1,10.5,13.1l-18.1,8.8A18.35,18.35,0,0,0,203.4,674.1Z" transform="translate(-26.4 -297.8)" style="fill:url(#linear-gradient-8)"/><path d="M216,717.5a37.65,37.65,0,0,1-15.2,7.3l-4.5-19.7a19.42,19.42,0,0,0,7.1-3.4Z" transform="translate(-26.4 -297.8)" style="fill:url(#linear-gradient-9)"/><path d="M176.4,680.3l-18.2-8.7a38.42,38.42,0,0,1,10.5-13.2l12.6,15.7A19.81,19.81,0,0,0,176.4,680.3Z" transform="translate(-26.4 -297.8)" style="fill:url(#linear-gradient-10)"/><path d="M210.1,688v-.1h20.2v.1a38.56,38.56,0,0,1-3.7,16.4l-18.2-8.8A18.31,18.31,0,0,0,210.1,688Z" transform="translate(-26.4 -297.8)" style="fill:url(#linear-gradient-11)"/><path d="M174.7,688a17.08,17.08,0,0,0,1.8,7.7l-18.1,8.8a37.23,37.23,0,0,1-3.8-16.4Z" transform="translate(-26.4 -297.8)" style="fill:url(#linear-gradient-12)"/><path d="M183.9,651.1a38.1,38.1,0,0,1,16.8-.1l-4.4,19.7a17.56,17.56,0,0,0-7.9,0Z" transform="translate(-26.4 -297.8)" style="fill:url(#linear-gradient-13)"/><path d="M188.5,705.2,184,724.9a36.4,36.4,0,0,1-15.2-7.3l12.6-15.8A18.69,18.69,0,0,0,188.5,705.2Z" transform="translate(-26.4 -297.8)" style="fill:url(#linear-gradient-14)"/><rect x="10.28" y="342.7" width="11.6" height="53.4" style="fill:#aea7a7"/><rect x="0.35" y="342.78" width="11.6" height="58.4" style="fill:#aea7a7"/><path d="M935.4,470.7l39.2-2.7-29.5-81.7H918.9c-8.4,0-14.7,7.4-13,15.3l11.9,55.5A18.07,18.07,0,0,0,935.4,470.7Z" transform="translate(-26.4 -297.8)" style="fill:#403430"/><path d="M766.9,386.2H961.6V375a14,14,0,0,0-14-14H773.9a7,7,0,0,0-7,7Z" transform="translate(-26.4 -297.8)" style="fill:#a7cb64"/><polygon points="673 259.2 673 94 676.8 94 676.8 72.8 687.4 72.8 687.4 287.2 676.8 287.2 676.8 259.2 673 259.2" style="fill:#a7cb64"/><polygon points="665.8 259.2 665.8 94 669.6 94 669.6 72.8 680.2 72.8 680.2 287.2 669.6 287.2 669.6 259.2 665.8 259.2" style="fill:#a7cb64"/><polygon points="655.9 48.5 739.4 0 839.4 0 855.6 26.4 748.9 26.4 698.1 67.9 679 67.9 677.1 67.9 91.7 67.9 91.7 48.5 655.9 48.5" style="fill:#a7cb64"/><rect x="740.94" y="336.5" width="152.3" height="53.8" style="fill:#88a84c"/><polygon points="760.8 314.2 878.2 314.2 878.2 320.1 893.3 320.1 893.3 336.5 741 336.5 741 320.1 760.8 320.1 760.8 314.2" style="fill:#88a84c"/><path d="M905.7,483.6c12.7.8,25.4,1.9,38.1,3.1,20.8,2.4,41.5,5.2,62.1,8.8s41.1,7.9,61.6,12.5l30.7,7c10.2,2.3,20.5,4.5,30.3,8.7a60.79,60.79,0,0,1,13.9,8.1,48.43,48.43,0,0,1,11.1,12.3c.7,1.2,1.5,2.4,2.1,3.7l1.8,3.9a79.2,79.2,0,0,1,2.8,8.2,138.38,138.38,0,0,1,4,16.9c4.2,22.9,4.6,46.4,8.8,69.3h-.1c-4.3-22.9-4.8-46.4-9.1-69.2a143.35,143.35,0,0,0-4.1-16.9c-.8-2.8-1.8-5.4-2.8-8.1l-1.8-3.8c-.6-1.3-1.4-2.4-2.1-3.6a49.06,49.06,0,0,0-11-12.1,59.36,59.36,0,0,0-13.8-7.9c-9.7-4.2-20-6.2-30.2-8.5l-30.7-6.9c-20.5-4.5-41-8.7-61.6-12.2s-41.3-6.3-62.1-8.5c-12.6-1.2-25.3-2.3-37.9-3.1v-1.7Z" transform="translate(-26.4 -297.8)" style="fill:#a7cb64"/><path d="M930.9,469.4c12.6,1.5,25.3,3.2,37.8,5.1,20.6,3.4,41.2,7.4,61.6,12.1s40.7,10,60.9,15.7l30.3,8.6c9,2.6,18.1,5,26.8,8.8a4.35,4.35,0,0,0-.4.7c-8.6-3.8-17.6-6.1-26.6-8.6l-30.3-8.5c-20.2-5.6-40.5-10.8-60.9-15.4s-40.9-8.4-61.5-11.8c-12.5-1.9-25.1-3.6-37.7-5.1Z" transform="translate(-26.4 -297.8)" style="fill:#a7cb64"/><path d="M905.7,470.7l-14.5-54.3a16.48,16.48,0,0,0-15.9-12.2H811.6a10.93,10.93,0,0,0-10.9,10.9v49.6a9.6,9.6,0,0,0,9.6,9.6h32.6a19.74,19.74,0,0,1,16.2,8.5l8.1,11.8h27.6a11,11,0,0,0,11-11V470.7Z" transform="translate(-26.4 -297.8)" style="fill:#403430"/><path d="M810.2,474.3h32.6a19.74,19.74,0,0,1,16.2,8.5l8.1,11.8h27.6a11,11,0,0,0,11-11V584.9c0,10.1-5.4,18.3-12,18.3H812.9c-6.6,0-12-8.2-12-18.3V466.7A9.38,9.38,0,0,0,810.2,474.3Z" transform="translate(-26.4 -297.8)" style="fill:#88a84c"/><polygon points="842.2 291.4 865.6 291.4 865.6 292.9 868.6 292.9 868.6 297 838.3 297 838.3 292.9 842.2 292.9 842.2 291.4" style="fill:#a7cb64"/><polygon points="842.2 288.7 865.6 288.7 865.6 290.1 868.6 290.1 868.6 294.2 838.3 294.2 838.3 290.1 842.2 290.1 842.2 288.7" style="fill:#a7cb64"/><path d="M818.2,581a.82.82,0,0,0,.8.9h7a.88.88,0,0,0,.8-.9v-8.5a.82.82,0,0,0-.8-.9h-7a.88.88,0,0,0-.8.9Z" transform="translate(-26.4 -297.8)" style="fill:#ed1c24"/><path d="M817.9,581v-8.5a1.23,1.23,0,0,1,1.1-1.3h7a1.23,1.23,0,0,1,1.1,1.3V581a1.23,1.23,0,0,1-1.1,1.3h-7A1.23,1.23,0,0,1,817.9,581Zm1-9.1a.56.56,0,0,0-.5.6V581a.56.56,0,0,0,.5.6h7a.56.56,0,0,0,.5-.6v-8.5a.56.56,0,0,0-.5-.6Z" transform="translate(-26.4 -297.8)" style="fill:#231f20"/><path d="M807.5,581a.82.82,0,0,0,.8.9h7a.88.88,0,0,0,.8-.9v-8.5a.82.82,0,0,0-.8-.9h-7a.88.88,0,0,0-.8.9Z" transform="translate(-26.4 -297.8)" style="fill:#aba9a7"/><path d="M807.3,581v-8.5a1.23,1.23,0,0,1,1.1-1.3h7a1.23,1.23,0,0,1,1.1,1.3V581a1.23,1.23,0,0,1-1.1,1.3h-7A1.16,1.16,0,0,1,807.3,581Zm1-9.1a.56.56,0,0,0-.5.6V581a.56.56,0,0,0,.5.6h7a.56.56,0,0,0,.5-.6v-8.5a.56.56,0,0,0-.5-.6Z" transform="translate(-26.4 -297.8)" style="fill:#231f20"/><path d="M1152,656.8l-22.9-53.9c-3.9-9.2-12-15.1-21-15.2l-94.2-1.2c-7.3-.1-14.3,3.7-18.8,10.2l-53.6,77.4H1152Z" transform="translate(-26.4 -297.8)" style="fill:#231f20"/><path d="M1138.3,660.4v-.9l-21.8-51.4c-1.7-4.1-5.1-6.8-8.6-6.8l-94.2-1.2c-2.8,0-5.4,1.6-7.3,4.3l129.1,55.9h2.8Z" transform="translate(-26.4 -297.8)" style="fill:#58595b;opacity:0.10000000149011612;isolation:isolate"/><path d="M1135.5,687.5a77,77,0,1,1-77-76.9A76.95,76.95,0,0,1,1135.5,687.5Z" transform="translate(-26.4 -297.8)" style="fill:#3d3b3d"/><path d="M1135.5,687.5a77,77,0,1,1-77-76.9A76.95,76.95,0,0,1,1135.5,687.5Z" transform="translate(-26.4 -297.8)"/><path d="M1124.6,687.5a66,66,0,1,1-66-66A66,66,0,0,1,1124.6,687.5Z" transform="translate(-26.4 -297.8)" style="fill:url(#radial-gradient-3)"/><path d="M1115.2,687.5a56.65,56.65,0,1,1-56.7-56.6A56.72,56.72,0,0,1,1115.2,687.5Z" transform="translate(-26.4 -297.8)" style="fill:#231f20"/><path d="M1115.2,687.5a56.65,56.65,0,1,1-56.7-56.6A56.72,56.72,0,0,1,1115.2,687.5Z" transform="translate(-26.4 -297.8)" style="fill:#3b3a3a"/><path d="M1098.6,687.5a40,40,0,1,1-40-40A40,40,0,0,1,1098.6,687.5Z" transform="translate(-26.4 -297.8)" style="fill:#fff;stroke:#3d3b3d;stroke-miterlimit:10;stroke-width:0.428600013256073px"/><path d="M1086.3,688a27.8,27.8,0,1,1-27.8-27.8A27.8,27.8,0,0,1,1086.3,688Z" transform="translate(-26.4 -297.8)" style="fill:#f6f6f6"/><path d="M1069.5,674.1l12.5-15.8a38.07,38.07,0,0,1,10.5,13.1l-18.1,8.8A16.18,16.18,0,0,0,1069.5,674.1Z" transform="translate(-26.4 -297.8)" style="fill:url(#linear-gradient-15)"/><path d="M1082.2,717.5a37.65,37.65,0,0,1-15.2,7.3l-4.5-19.7a19.42,19.42,0,0,0,7.1-3.4Z" transform="translate(-26.4 -297.8)" style="fill:url(#linear-gradient-16)"/><path d="M1042.6,680.3l-18.2-8.7a38.42,38.42,0,0,1,10.5-13.2l12.6,15.7A17.31,17.31,0,0,0,1042.6,680.3Z" transform="translate(-26.4 -297.8)" style="fill:url(#linear-gradient-17)"/><path d="M1076.3,688v-.1h20.2v.1a38.56,38.56,0,0,1-3.7,16.4l-18.2-8.8A20,20,0,0,0,1076.3,688Z" transform="translate(-26.4 -297.8)" style="fill:url(#linear-gradient-18)"/><path d="M1040.9,688a17.08,17.08,0,0,0,1.8,7.7l-18.1,8.8a37.23,37.23,0,0,1-3.8-16.4Z" transform="translate(-26.4 -297.8)" style="fill:url(#linear-gradient-19)"/><path d="M1050,651.1a38.1,38.1,0,0,1,16.8-.1l-4.4,19.7a17.56,17.56,0,0,0-7.9,0Z" transform="translate(-26.4 -297.8)" style="fill:url(#linear-gradient-20)"/><path d="M1054.6,705.2l-4.5,19.7a36.4,36.4,0,0,1-15.2-7.3l12.6-15.8A19.42,19.42,0,0,0,1054.6,705.2Z" transform="translate(-26.4 -297.8)" style="fill:url(#linear-gradient-21)"/><path d="M56.6,533.9a7.63,7.63,0,0,1,1.1-.8c-2.5-11.4-6.8-17.5-10.1-20.6a6.73,6.73,0,0,1-1.1.7C49.8,516.2,54.1,522.2,56.6,533.9Z" transform="translate(-26.4 -297.8)" style="fill:#a7cb64"/><path d="M931.3,486.9c-.4-.2-.7-.4-1.1-.6,2.5-8.6,6.8-13.2,10.1-15.6.4.2.7.4,1.1.6C938.2,473.5,933.9,478,931.3,486.9Z" transform="translate(-26.4 -297.8)" style="fill:#88a84c"/><path d="M933.1,526.7c.8.8.2,3.5-1.4,6l-13.3,21.6c-1.6,2.5-3.5,3.9-4.3,3.1l-1.9-1.9c-.8-.8-.2-3.5,1.4-6l13.3-21.6c1.6-2.5,3.5-3.9,4.3-3.1Z" transform="translate(-26.4 -297.8)" style="fill:#b3b3b3"/><path d="M919.7,539.6l-6.1,9.9c-1.6,2.5-2.2,5.2-1.4,6l1.9,1.9c.8.8,2.7-.6,4.3-3.1l6.1-9.9Z" transform="translate(-26.4 -297.8)" style="fill:#f5f5f5"/><path d="M919.7,539.1l5.2,5.3-6.3,10.2c-1.7,2.8-3.7,4.1-4.7,3.1l-1.9-1.9c-1-1-.4-3.8,1.3-6.6Zm4.4,5.4-4.3-4.4-6,9.6c-1.6,2.5-2,4.9-1.4,5.5l1.9,1.9c.6.6,2.3-.5,3.9-3Z" transform="translate(-26.4 -297.8)" style="fill:gray"/><path d="M937,497.6h9a22.9,22.9,0,0,0-6,.8c4.1,1.2,7.4,3.6,8.9,6.8l7.2,15.1h-9l-7.2-15.1c-1.5-3.1-4.8-5.5-8.9-6.8A23.49,23.49,0,0,1,937,497.6Z" transform="translate(-26.4 -297.8)" style="fill:#a7cb64"/><path d="M947.1,497.6h9c6.7,0,12.7,3.1,14.8,7.6l7.2,15.1h-9l-7.2-15.1C959.8,500.7,953.8,497.6,947.1,497.6Z" transform="translate(-26.4 -297.8)" style="fill:#a7cb64"/><path d="M965.5,497.6h9c6.7,0,12.7,3.1,14.8,7.6l7.2,15.1h-9l-7.2-15.1C978.1,500.7,972.2,497.6,965.5,497.6Z" transform="translate(-26.4 -297.8)" style="fill:#a7cb64"/><rect x="594.79" y="372.84" width="99.5" height="9.6" style="fill:#aea7a7"/><rect x="594.84" y="381.05" width="108.8" height="9.6" style="fill:#aea7a7"/><rect x="887.5" y="339.6" width="54" height="46.3" style="fill:#88a84c"/><rect x="908.7" y="376.6" width="11.6" height="1.2" style="fill:#a7cb64"/><path d="M941.3,664.8c0,.3.1.5.3.5h2.8c.2,0,.3-.2.3-.5v-4.9c0-.3-.1-.5-.3-.5h-2.8c-.2,0-.3.2-.3.5Z" transform="translate(-26.4 -297.8)" style="fill:#ed1c24"/><path d="M941.2,664.8v-4.9c0-.4.2-.7.4-.7h2.8c.2,0,.4.3.4.7v4.9c0,.4-.2.7-.4.7h-2.8C941.4,665.5,941.2,665.2,941.2,664.8Zm.4-5.3c-.1,0-.2.2-.2.3v4.9c0,.2.1.3.2.3h2.8c.1,0,.2-.2.2-.3v-4.9c0-.2-.1-.3-.2-.3Z" transform="translate(-26.4 -297.8)" style="fill:#231f20"/><path d="M937,664.8c0,.3.1.5.3.5h2.8c.2,0,.3-.2.3-.5v-4.9c0-.3-.1-.5-.3-.5h-2.8c-.2,0-.3.2-.3.5Z" transform="translate(-26.4 -297.8)" style="fill:#aba9a7"/><path d="M936.9,664.8v-4.9c0-.4.2-.7.4-.7h2.8c.2,0,.4.3.4.7v4.9c0,.4-.2.7-.4.7h-2.8C937.1,665.5,936.9,665.2,936.9,664.8Zm.4-5.3c-.1,0-.2.2-.2.3v4.9c0,.2.1.3.2.3h2.8c.1,0,.2-.2.2-.3v-4.9c0-.2-.1-.3-.2-.3Z" transform="translate(-26.4 -297.8)" style="fill:#231f20"/><path d="M935,572.5a3.3,3.3,0,1,1-3.3-3.3A3.15,3.15,0,0,1,935,572.5Z" transform="translate(-26.4 -297.8)" style="fill:#231f20"/><path d="M935,572.5a3.3,3.3,0,1,1-3.3-3.3A3.15,3.15,0,0,1,935,572.5Z" transform="translate(-26.4 -297.8)" style="fill:url(#radial-gradient-4)"/><path d="M934.1,572.5a2.4,2.4,0,1,1-2.4-2.4A2.43,2.43,0,0,1,934.1,572.5Z" transform="translate(-26.4 -297.8)" style="fill:#fff"/><path d="M929.3,572.5a2.4,2.4,0,1,1,2.4,2.4A2.43,2.43,0,0,1,929.3,572.5Zm.1,0a2.3,2.3,0,1,0,2.3-2.3A2.2,2.2,0,0,0,929.4,572.5Z" transform="translate(-26.4 -297.8)" style="fill:#3d3b3d"/><path d="M933.5,572.5a1.8,1.8,0,1,1-1.8-1.8A1.79,1.79,0,0,1,933.5,572.5Z" transform="translate(-26.4 -297.8)" style="fill:#ed1c24"/><path d="M929.8,572.5a1.9,1.9,0,1,1,1.9,1.9A1.84,1.84,0,0,1,929.8,572.5Zm.2,0a1.7,1.7,0,1,0,1.7-1.7A1.75,1.75,0,0,0,930,572.5Z" transform="translate(-26.4 -297.8)" style="fill:#231f20"/><path d="M935,606a3.3,3.3,0,1,1-3.3-3.3A3.27,3.27,0,0,1,935,606Z" transform="translate(-26.4 -297.8)" style="fill:#231f20"/><path d="M935,606a3.3,3.3,0,1,1-3.3-3.3A3.27,3.27,0,0,1,935,606Z" transform="translate(-26.4 -297.8)" style="fill:url(#radial-gradient-5)"/><path d="M934.1,606a2.4,2.4,0,1,1-2.4-2.4A2.5,2.5,0,0,1,934.1,606Z" transform="translate(-26.4 -297.8)" style="fill:#fff"/><path d="M929.3,606a2.4,2.4,0,1,1,2.4,2.4A2.43,2.43,0,0,1,929.3,606Zm.1,0a2.3,2.3,0,1,0,2.3-2.3A2.26,2.26,0,0,0,929.4,606Z" transform="translate(-26.4 -297.8)" style="fill:#3d3b3d"/><path d="M933.5,606a1.8,1.8,0,1,1-1.8-1.8A1.79,1.79,0,0,1,933.5,606Z" transform="translate(-26.4 -297.8)" style="fill:#ed1c24"/><path d="M929.8,606a1.9,1.9,0,1,1,1.9,1.9A1.78,1.78,0,0,1,929.8,606Zm.2,0a1.7,1.7,0,1,0,1.7-1.7A1.83,1.83,0,0,0,930,606Z" transform="translate(-26.4 -297.8)" style="fill:#231f20"/><path d="M698.7,605.1a2.85,2.85,0,1,1-2.9,2.8A2.82,2.82,0,0,1,698.7,605.1Z" transform="translate(-26.4 -297.8)"/><path d="M698.7,605.1a2.85,2.85,0,1,1-2.9,2.8A2.82,2.82,0,0,1,698.7,605.1Z" transform="translate(-26.4 -297.8)"/><path d="M698.6,605.9a2,2,0,1,1-2,2A2,2,0,0,1,698.6,605.9Z" transform="translate(-26.4 -297.8)"/><path d="M698.6,610a2.05,2.05,0,1,1,2.1-2A2.16,2.16,0,0,1,698.6,610Zm0-.1a2,2,0,1,0-2-2A2,2,0,0,0,698.6,609.9Z" transform="translate(-26.4 -297.8)"/><path d="M698.7,606.4a1.55,1.55,0,1,1-1.6,1.5A1.56,1.56,0,0,1,698.7,606.4Z" transform="translate(-26.4 -297.8)"/><path d="M698.6,609.6a1.65,1.65,0,1,1,1.7-1.6A1.67,1.67,0,0,1,698.6,609.6Zm0-.2a1.45,1.45,0,1,0-1.4-1.5A1.45,1.45,0,0,0,698.6,609.4Z" transform="translate(-26.4 -297.8)"/><path d="M727.3,605.4a2.85,2.85,0,1,1-2.9,2.8A2.88,2.88,0,0,1,727.3,605.4Z" transform="translate(-26.4 -297.8)"/><path d="M727.3,605.4a2.85,2.85,0,1,1-2.9,2.8A2.88,2.88,0,0,1,727.3,605.4Z" transform="translate(-26.4 -297.8)"/><path d="M727.3,606.3a2,2,0,1,1-2,2A1.84,1.84,0,0,1,727.3,606.3Z" transform="translate(-26.4 -297.8)"/><path d="M727.2,610.3a2.05,2.05,0,1,1,2.1-2A2.09,2.09,0,0,1,727.2,610.3Zm0-.1a2,2,0,1,0-2-2A2,2,0,0,0,727.2,610.2Z" transform="translate(-26.4 -297.8)"/><path d="M727.3,606.7a1.55,1.55,0,1,1-1.6,1.5A1.56,1.56,0,0,1,727.3,606.7Z" transform="translate(-26.4 -297.8)"/><path d="M727.3,609.9a1.65,1.65,0,1,1,1.7-1.6A1.73,1.73,0,0,1,727.3,609.9Zm0-.2a1.45,1.45,0,1,0-1.4-1.5A1.39,1.39,0,0,0,727.3,609.7Z" transform="translate(-26.4 -297.8)"/><path d="M698.7,628.7a2.85,2.85,0,1,1-2.9,2.8A2.82,2.82,0,0,1,698.7,628.7Z" transform="translate(-26.4 -297.8)"/><path d="M698.7,628.7a2.85,2.85,0,1,1-2.9,2.8A2.82,2.82,0,0,1,698.7,628.7Z" transform="translate(-26.4 -297.8)"/><path d="M698.6,629.5a2,2,0,1,1-2,2A2,2,0,0,1,698.6,629.5Z" transform="translate(-26.4 -297.8)"/><path d="M698.6,633.5a2.05,2.05,0,1,1,2.1-2A2,2,0,0,1,698.6,633.5Zm0,0a2,2,0,1,0-2-2A2,2,0,0,0,698.6,633.5Z" transform="translate(-26.4 -297.8)"/><path d="M698.7,630a1.55,1.55,0,1,1-1.6,1.5A1.5,1.5,0,0,1,698.7,630Z" transform="translate(-26.4 -297.8)"/><path d="M698.6,633.2a1.65,1.65,0,1,1,1.7-1.6A1.74,1.74,0,0,1,698.6,633.2Zm0-.2a1.45,1.45,0,1,0-1.4-1.5A1.45,1.45,0,0,0,698.6,633Z" transform="translate(-26.4 -297.8)"/><path d="M727.3,629a2.85,2.85,0,1,1-2.9,2.8A2.82,2.82,0,0,1,727.3,629Z" transform="translate(-26.4 -297.8)"/><path d="M727.3,629a2.85,2.85,0,1,1-2.9,2.8A2.82,2.82,0,0,1,727.3,629Z" transform="translate(-26.4 -297.8)"/><path d="M727.3,629.8a2,2,0,1,1-2,2A1.94,1.94,0,0,1,727.3,629.8Z" transform="translate(-26.4 -297.8)"/><path d="M727.2,633.9a2.05,2.05,0,1,1,2.1-2A2.09,2.09,0,0,1,727.2,633.9Zm0-.1a2,2,0,1,0-2-2A2,2,0,0,0,727.2,633.8Z" transform="translate(-26.4 -297.8)"/><path d="M727.3,630.3a1.55,1.55,0,1,1-1.6,1.5A1.5,1.5,0,0,1,727.3,630.3Z" transform="translate(-26.4 -297.8)"/><path d="M727.3,633.5a1.65,1.65,0,1,1,1.7-1.6A1.73,1.73,0,0,1,727.3,633.5Zm0-.2a1.45,1.45,0,1,0-1.4-1.5A1.39,1.39,0,0,0,727.3,633.3Z" transform="translate(-26.4 -297.8)"/><path d="M578.1,605.1a2.85,2.85,0,1,1-2.9,2.8A2.88,2.88,0,0,1,578.1,605.1Z" transform="translate(-26.4 -297.8)"/><path d="M578.1,605.1a2.85,2.85,0,1,1-2.9,2.8A2.88,2.88,0,0,1,578.1,605.1Z" transform="translate(-26.4 -297.8)"/><path d="M578.1,605.9a2,2,0,1,1-2,2A2,2,0,0,1,578.1,605.9Z" transform="translate(-26.4 -297.8)"/><path d="M578.1,610a2.05,2.05,0,1,1,2.1-2A2.16,2.16,0,0,1,578.1,610Zm0-.1a2,2,0,1,0-2-2A2,2,0,0,0,578.1,609.9Z" transform="translate(-26.4 -297.8)"/><path d="M578.1,606.4a1.55,1.55,0,1,1-1.6,1.5A1.71,1.71,0,0,1,578.1,606.4Z" transform="translate(-26.4 -297.8)"/><path d="M578.1,609.6a1.65,1.65,0,1,1,1.7-1.6A1.67,1.67,0,0,1,578.1,609.6Zm0-.2a1.45,1.45,0,1,0-1.4-1.5A1.45,1.45,0,0,0,578.1,609.4Z" transform="translate(-26.4 -297.8)"/><path d="M606.7,605.4a2.85,2.85,0,1,1-2.9,2.8A3,3,0,0,1,606.7,605.4Z" transform="translate(-26.4 -297.8)"/><path d="M606.7,605.4a2.85,2.85,0,1,1-2.9,2.8A3,3,0,0,1,606.7,605.4Z" transform="translate(-26.4 -297.8)"/><path d="M606.7,606.3a2,2,0,1,1-2,2A1.89,1.89,0,0,1,606.7,606.3Z" transform="translate(-26.4 -297.8)"/><path d="M606.7,610.3a2.05,2.05,0,0,1,.1-4.1,2,2,0,0,1,2,2.1A2.16,2.16,0,0,1,606.7,610.3Zm0-.1a2,2,0,1,0-2-2A2,2,0,0,0,606.7,610.2Z" transform="translate(-26.4 -297.8)"/><path d="M606.8,606.7a1.55,1.55,0,1,1-1.6,1.5A1.56,1.56,0,0,1,606.8,606.7Z" transform="translate(-26.4 -297.8)"/><path d="M606.7,609.9a1.65,1.65,0,1,1,1.7-1.6A1.67,1.67,0,0,1,606.7,609.9Zm0-.2a1.45,1.45,0,1,0-1.4-1.5A1.45,1.45,0,0,0,606.7,609.7Z" transform="translate(-26.4 -297.8)"/><path d="M578.1,628.7a2.85,2.85,0,1,1-2.9,2.8A2.88,2.88,0,0,1,578.1,628.7Z" transform="translate(-26.4 -297.8)"/><path d="M578.1,628.7a2.85,2.85,0,1,1-2.9,2.8A2.88,2.88,0,0,1,578.1,628.7Z" transform="translate(-26.4 -297.8)"/><path d="M578.1,629.5a2,2,0,1,1-2,2A2,2,0,0,1,578.1,629.5Z" transform="translate(-26.4 -297.8)"/><path d="M578.1,633.5a2.05,2.05,0,1,1,2.1-2A2,2,0,0,1,578.1,633.5Zm0,0a2,2,0,1,0-2-2A2,2,0,0,0,578.1,633.5Z" transform="translate(-26.4 -297.8)"/><path d="M578.1,630a1.55,1.55,0,1,1-1.6,1.5A1.62,1.62,0,0,1,578.1,630Z" transform="translate(-26.4 -297.8)"/><path d="M578.1,633.2a1.65,1.65,0,1,1,1.7-1.6A1.74,1.74,0,0,1,578.1,633.2Zm0-.2a1.45,1.45,0,1,0-1.4-1.5A1.45,1.45,0,0,0,578.1,633Z" transform="translate(-26.4 -297.8)"/><path d="M606.7,629a2.85,2.85,0,1,1-2.9,2.8A3,3,0,0,1,606.7,629Z" transform="translate(-26.4 -297.8)"/><path d="M606.7,629a2.85,2.85,0,1,1-2.9,2.8A3,3,0,0,1,606.7,629Z" transform="translate(-26.4 -297.8)"/><path d="M606.7,629.8a2,2,0,1,1-2,2A2,2,0,0,1,606.7,629.8Z" transform="translate(-26.4 -297.8)"/><path d="M606.7,633.9a2.05,2.05,0,1,1,2.1-2A2.16,2.16,0,0,1,606.7,633.9Zm0-.1a2,2,0,1,0-2-2A2,2,0,0,0,606.7,633.8Z" transform="translate(-26.4 -297.8)"/><path d="M606.8,630.3a1.55,1.55,0,1,1-1.6,1.5A1.5,1.5,0,0,1,606.8,630.3Z" transform="translate(-26.4 -297.8)"/><path d="M606.7,633.5a1.65,1.65,0,1,1,1.7-1.6A1.67,1.67,0,0,1,606.7,633.5Zm0-.2a1.45,1.45,0,1,0-1.4-1.5A1.45,1.45,0,0,0,606.7,633.3Z" transform="translate(-26.4 -297.8)"/><path d="M457.6,605.1a2.85,2.85,0,1,1-2.9,2.8A2.82,2.82,0,0,1,457.6,605.1Z" transform="translate(-26.4 -297.8)"/><path d="M457.6,605.1a2.85,2.85,0,1,1-2.9,2.8A2.82,2.82,0,0,1,457.6,605.1Z" transform="translate(-26.4 -297.8)"/><path d="M457.6,605.9a2,2,0,1,1-2,2A2,2,0,0,1,457.6,605.9Z" transform="translate(-26.4 -297.8)"/><path d="M457.5,610a2.05,2.05,0,1,1,2.1-2A2.09,2.09,0,0,1,457.5,610Zm0-.1a2,2,0,1,0-2-2A2.07,2.07,0,0,0,457.5,609.9Z" transform="translate(-26.4 -297.8)"/><path d="M457.6,606.4a1.55,1.55,0,1,1-1.6,1.5A1.56,1.56,0,0,1,457.6,606.4Z" transform="translate(-26.4 -297.8)"/><path d="M457.6,609.6a1.65,1.65,0,1,1,1.7-1.6A1.73,1.73,0,0,1,457.6,609.6Zm0-.2a1.45,1.45,0,1,0-1.4-1.5A1.39,1.39,0,0,0,457.6,609.4Z" transform="translate(-26.4 -297.8)"/><path d="M486.2,605.4a2.85,2.85,0,1,1-2.9,2.8A2.88,2.88,0,0,1,486.2,605.4Z" transform="translate(-26.4 -297.8)"/><path d="M486.2,605.4a2.85,2.85,0,1,1-2.9,2.8A2.88,2.88,0,0,1,486.2,605.4Z" transform="translate(-26.4 -297.8)"/><path d="M486.2,606.3a2,2,0,1,1-2,2A1.89,1.89,0,0,1,486.2,606.3Z" transform="translate(-26.4 -297.8)"/><path d="M486.2,610.3a2.05,2.05,0,0,1,.1-4.1,2,2,0,0,1,2,2.1A2.16,2.16,0,0,1,486.2,610.3Zm0-.1a2,2,0,1,0-2-2A2,2,0,0,0,486.2,610.2Z" transform="translate(-26.4 -297.8)"/><path d="M486.2,606.7a1.55,1.55,0,1,1-1.6,1.5A1.71,1.71,0,0,1,486.2,606.7Z" transform="translate(-26.4 -297.8)"/><path d="M486.2,609.9a1.65,1.65,0,1,1,1.7-1.6A1.67,1.67,0,0,1,486.2,609.9Zm0-.2a1.45,1.45,0,1,0-1.4-1.5A1.39,1.39,0,0,0,486.2,609.7Z" transform="translate(-26.4 -297.8)"/><path d="M457.6,628.7a2.85,2.85,0,1,1-2.9,2.8A2.82,2.82,0,0,1,457.6,628.7Z" transform="translate(-26.4 -297.8)"/><path d="M457.6,628.7a2.85,2.85,0,1,1-2.9,2.8A2.82,2.82,0,0,1,457.6,628.7Z" transform="translate(-26.4 -297.8)"/><path d="M457.6,629.5a2,2,0,1,1-2,2A2,2,0,0,1,457.6,629.5Z" transform="translate(-26.4 -297.8)"/><path d="M457.5,633.5a2.05,2.05,0,1,1,2.1-2A2,2,0,0,1,457.5,633.5Zm0,0a2,2,0,1,0-2-2A2.07,2.07,0,0,0,457.5,633.5Z" transform="translate(-26.4 -297.8)"/><path d="M457.6,630a1.55,1.55,0,1,1-1.6,1.5A1.5,1.5,0,0,1,457.6,630Z" transform="translate(-26.4 -297.8)"/><path d="M457.6,633.2a1.65,1.65,0,1,1,1.7-1.6A1.82,1.82,0,0,1,457.6,633.2Zm0-.2a1.45,1.45,0,1,0-1.4-1.5A1.39,1.39,0,0,0,457.6,633Z" transform="translate(-26.4 -297.8)"/><path d="M486.2,629a2.85,2.85,0,1,1-2.9,2.8A2.82,2.82,0,0,1,486.2,629Z" transform="translate(-26.4 -297.8)"/><path d="M486.2,629a2.85,2.85,0,1,1-2.9,2.8A2.82,2.82,0,0,1,486.2,629Z" transform="translate(-26.4 -297.8)"/><path d="M486.2,629.8a2,2,0,1,1-2,2A2,2,0,0,1,486.2,629.8Z" transform="translate(-26.4 -297.8)"/><path d="M486.2,633.9a2.05,2.05,0,1,1,2.1-2A2.16,2.16,0,0,1,486.2,633.9Zm0-.1a2,2,0,1,0-2-2A2,2,0,0,0,486.2,633.8Z" transform="translate(-26.4 -297.8)"/><path d="M486.2,630.3a1.55,1.55,0,1,1-1.6,1.5A1.62,1.62,0,0,1,486.2,630.3Z" transform="translate(-26.4 -297.8)"/><path d="M486.2,633.5a1.65,1.65,0,1,1,1.7-1.6A1.67,1.67,0,0,1,486.2,633.5Zm0-.2a1.45,1.45,0,1,0-1.4-1.5A1.39,1.39,0,0,0,486.2,633.3Z" transform="translate(-26.4 -297.8)"/><path d="M267.7,605.1a2.85,2.85,0,1,1-2.9,2.8A2.82,2.82,0,0,1,267.7,605.1Z" transform="translate(-26.4 -297.8)"/><path d="M267.7,605.1a2.85,2.85,0,1,1-2.9,2.8A2.82,2.82,0,0,1,267.7,605.1Z" transform="translate(-26.4 -297.8)"/><path d="M267.7,605.9a2,2,0,1,1-2,2A2,2,0,0,1,267.7,605.9Z" transform="translate(-26.4 -297.8)"/><path d="M267.6,610a2.05,2.05,0,1,1,2.1-2A2,2,0,0,1,267.6,610Zm0-.1a2,2,0,1,0-2-2A2.07,2.07,0,0,0,267.6,609.9Z" transform="translate(-26.4 -297.8)"/><path d="M267.7,606.4a1.55,1.55,0,1,1-1.6,1.5A1.56,1.56,0,0,1,267.7,606.4Z" transform="translate(-26.4 -297.8)"/><path d="M267.7,609.6a1.65,1.65,0,1,1,1.7-1.6A1.73,1.73,0,0,1,267.7,609.6Zm0-.2a1.45,1.45,0,1,0-1.4-1.5A1.39,1.39,0,0,0,267.7,609.4Z" transform="translate(-26.4 -297.8)"/><path d="M296.3,605.4a2.85,2.85,0,1,1-2.9,2.8A3,3,0,0,1,296.3,605.4Z" transform="translate(-26.4 -297.8)"/><path d="M296.3,605.4a2.85,2.85,0,1,1-2.9,2.8A3,3,0,0,1,296.3,605.4Z" transform="translate(-26.4 -297.8)"/><path d="M296.3,606.3a2,2,0,1,1-2,2A1.89,1.89,0,0,1,296.3,606.3Z" transform="translate(-26.4 -297.8)"/><path d="M296.3,610.3a2.05,2.05,0,1,1,2.1-2A2.16,2.16,0,0,1,296.3,610.3Zm0-.1a2,2,0,1,0-2-2A2,2,0,0,0,296.3,610.2Z" transform="translate(-26.4 -297.8)"/><path d="M296.3,606.7a1.55,1.55,0,1,1-1.6,1.5A1.71,1.71,0,0,1,296.3,606.7Z" transform="translate(-26.4 -297.8)"/><path d="M296.3,609.9a1.65,1.65,0,1,1,1.7-1.6A1.67,1.67,0,0,1,296.3,609.9Zm0-.2a1.45,1.45,0,1,0-1.4-1.5A1.45,1.45,0,0,0,296.3,609.7Z" transform="translate(-26.4 -297.8)"/><path d="M267.7,628.7a2.85,2.85,0,1,1-2.9,2.8A2.82,2.82,0,0,1,267.7,628.7Z" transform="translate(-26.4 -297.8)"/><path d="M267.7,628.7a2.85,2.85,0,1,1-2.9,2.8A2.82,2.82,0,0,1,267.7,628.7Z" transform="translate(-26.4 -297.8)"/><path d="M267.7,629.5a2,2,0,1,1-2,2A2,2,0,0,1,267.7,629.5Z" transform="translate(-26.4 -297.8)"/><path d="M267.6,633.5a2.05,2.05,0,1,1,2.1-2A1.92,1.92,0,0,1,267.6,633.5Zm0,0a2,2,0,1,0-2-2A2.07,2.07,0,0,0,267.6,633.5Z" transform="translate(-26.4 -297.8)"/><path d="M267.7,630a1.55,1.55,0,1,1-1.6,1.5A1.5,1.5,0,0,1,267.7,630Z" transform="translate(-26.4 -297.8)"/><path d="M267.7,633.2a1.65,1.65,0,1,1,1.7-1.6A1.82,1.82,0,0,1,267.7,633.2Zm0-.2a1.45,1.45,0,1,0-1.4-1.5A1.39,1.39,0,0,0,267.7,633Z" transform="translate(-26.4 -297.8)"/><path d="M296.3,629a2.85,2.85,0,1,1-2.9,2.8A3,3,0,0,1,296.3,629Z" transform="translate(-26.4 -297.8)"/><path d="M296.3,629a2.85,2.85,0,1,1-2.9,2.8A3,3,0,0,1,296.3,629Z" transform="translate(-26.4 -297.8)"/><path d="M296.3,629.8a2,2,0,1,1-2,2A2,2,0,0,1,296.3,629.8Z" transform="translate(-26.4 -297.8)"/><path d="M296.3,633.9a2.05,2.05,0,1,1,2.1-2A2.16,2.16,0,0,1,296.3,633.9Zm0-.1a2,2,0,1,0-2-2A2,2,0,0,0,296.3,633.8Z" transform="translate(-26.4 -297.8)"/><path d="M296.3,630.3a1.55,1.55,0,1,1-1.6,1.5A1.62,1.62,0,0,1,296.3,630.3Z" transform="translate(-26.4 -297.8)"/><path d="M296.3,633.5a1.65,1.65,0,1,1,1.7-1.6A1.67,1.67,0,0,1,296.3,633.5Zm0-.2a1.45,1.45,0,1,0-1.4-1.5A1.45,1.45,0,0,0,296.3,633.3Z" transform="translate(-26.4 -297.8)"/><path d="M460.5,664a5.39,5.39,0,0,0,3.8-1.6,6.3,6.3,0,0,0,.4-8.5l-47.6-56.4H134.5l-27.2,48.6a6.28,6.28,0,0,0,2,8.3,5.38,5.38,0,0,0,7.7-2.1l23.9-42.7H412L456.3,662A5.77,5.77,0,0,0,460.5,664Z" transform="translate(-26.4 -297.8)" style="fill:#a7cb64"/></svg>