<svg id="Layer_1" data-name="Layer 1" xmlns="http://www.w3.org/2000/svg" viewBox="0 0 1158 619.86"><title>7</title><path d="M1171,909.93H127a6.43,6.43,0,0,1,0-12.86H1171a6.43,6.43,0,1,1,0,12.86Z" transform="translate(-21 -290.07)" style="fill:#1b1b19"/><polygon points="121.31 324.89 90.73 324.89 90.73 199.52 102.35 199.52 121.31 324.89" style="fill:#212121"/><rect x="90.73" y="199.52" width="4.29" height="122.21" style="fill:#333"/><path d="M674,434.86h0a2.85,2.85,0,0,1-1.92-3.5l13.09-42.65a2.84,2.84,0,0,1,3.49-1.92h0a2.85,2.85,0,0,1,1.92,3.5l-13.09,42.65A2.76,2.76,0,0,1,674,434.86Z" transform="translate(-21 -290.07)" style="fill:#b5b5b5"/><path d="M685.65,390.29a2.29,2.29,0,1,1,2.93,1.35A2.25,2.25,0,0,1,685.65,390.29Z" transform="translate(-21 -290.07)" style="fill:#b5b5b5"/><path d="M737.67,511.25l-45.48-6.32a6.69,6.69,0,0,0-7.33,4.74l-14.22,46.38s50.33,7.79,51.12,8.24,23.81-30.81,23.81-30.81Z" transform="translate(-21 -290.07)" style="fill:#141414"/><path d="M637,567.11h0a6,6,0,0,1-4.17-7.33l20-71.55a6,6,0,0,1,7.34-4.17h0a6,6,0,0,1,4.17,7.33l-20,71.55A6.08,6.08,0,0,1,637,567.11Z" transform="translate(-21 -290.07)" style="fill:#141414"/><path d="M649.31,531.45l53.94,15a5.24,5.24,0,0,0,6.43-3.61h0a5.24,5.24,0,0,0-3.61-6.43l-53.94-15A5.24,5.24,0,0,0,645.7,525h0A5.29,5.29,0,0,0,649.31,531.45Z" transform="translate(-21 -290.07)" style="fill:#141414"/><path d="M200.53,560.9,183,471.19a9.6,9.6,0,0,1,9.37-11.39h18.73a26.79,26.79,0,0,1,23.7,14.44l45.47,88.92Z" transform="translate(-21 -290.07)" style="fill:#403430"/><path d="M223.67,474.35l45.25,88.59,11.28.33-45.47-88.92A26.46,26.46,0,0,0,211,459.91H200A26.46,26.46,0,0,1,223.67,474.35Z" transform="translate(-21 -290.07)" style="fill:#403430"/><path d="M465.38,560.9l-17.49-89.71a9.59,9.59,0,0,1,9.36-11.39H476a26.77,26.77,0,0,1,23.7,14.44l45.48,88.92Z" transform="translate(-21 -290.07)" style="fill:#403430"/><path d="M488.51,474.35l45.25,88.59,11.29.33-45.48-88.92a26.44,26.44,0,0,0-23.7-14.44H464.81A26.44,26.44,0,0,1,488.51,474.35Z" transform="translate(-21 -290.07)" style="fill:#403430"/><path d="M696.59,385.55h-.33l-244.08-12H215.43a7.45,7.45,0,1,1,0-14.89h237.2l244.3,12a7.44,7.44,0,0,1,7,7.79A7.28,7.28,0,0,1,696.59,385.55Z" transform="translate(-21 -290.07)" style="fill:#a7cb64"/><path d="M168.49,564.18a13.4,13.4,0,0,1-2.94-.34,11.91,11.91,0,0,1-8.69-14.56L203.69,363.2a12,12,0,1,1,23.25,5.87L180,555A11.7,11.7,0,0,1,168.49,564.18Z" transform="translate(-21 -290.07)" style="fill:#a7cb64"/><path d="M452.29,565.53a12.09,12.09,0,0,1-12.08-12.07V366.14a12.08,12.08,0,1,1,24.15,0V553.57A12,12,0,0,1,452.29,565.53Z" transform="translate(-21 -290.07)" style="fill:#a7cb64"/><path d="M464.36,553.57V366.14a12.09,12.09,0,0,0-12.07-12.08V565.53A12,12,0,0,0,464.36,553.57Z" transform="translate(-21 -290.07)" style="fill:#a7cb64"/><path d="M199.74,333.86s-10.6-44.57-59.35-43.78c-3.61.11-4.74,5-1.58,6.55,18.84,9.59,30.24,29.67,29.79,42.88C180,346.62,199.74,333.86,199.74,333.86Z" transform="translate(-21 -290.07)" style="fill:#a7cb64"/><path d="M795.78,373.81c6,.68,7.79-7.79,2.15-9.7C759.79,351.47,675.72,333,497.31,323.37c-197.36-10.61-310.54,10-362.23,24a4.94,4.94,0,0,0,1.47,9.71c70.3-3.05,231.22-8.8,362.68-4.4C625.5,356.88,741.84,368.06,795.78,373.81Z" transform="translate(-21 -290.07)" style="fill:#88a84c"/><path d="M499.91,347.29c-133-4.51-295.65,1.24-368.44,4.4a4.89,4.89,0,0,0,5.19,5.31c70.31-3.05,231.22-8.81,362.68-4.4C625.73,356.88,742,368.06,795.9,373.7a4.94,4.94,0,0,0,5.53-5.08C745.57,362.86,627.76,351.58,499.91,347.29Z" transform="translate(-21 -290.07)" style="fill:#a7cb64"/><path d="M180.22,555.15l46.95-186a12,12,0,0,0-8.69-14.55L165.55,563.84a14.2,14.2,0,0,0,2.94.34A12.15,12.15,0,0,0,180.22,555.15Z" transform="translate(-21 -290.07)" style="fill:#a7cb64"/><path d="M218.36,354.51a12,12,0,0,0-14.55,8.69l-5,19.75,22.23,10.16,6.1-24A12.15,12.15,0,0,0,218.36,354.51Z" transform="translate(-21 -290.07)" style="fill:#a7cb64"/><path d="M452.29,354.18a12.09,12.09,0,0,0-12.08,12.07v29.34l24,5.08V366.25A11.85,11.85,0,0,0,452.29,354.18Z" transform="translate(-21 -290.07)" style="fill:#a7cb64"/><path d="M21,623.42V466.12a45.37,45.37,0,0,1,45.36-45.37h0a45.38,45.38,0,0,1,45.37,45.37v157.3a45.37,45.37,0,0,1-45.37,45.36h0A45.36,45.36,0,0,1,21,623.42Z" transform="translate(-21 -290.07)" style="fill:#111"/><path d="M92.43,422.67a6.16,6.16,0,0,1,0,6.77l-5.08,8.13a10.2,10.2,0,0,0,0,10.72l5.08,8.12a6.16,6.16,0,0,1,0,6.77l-5.08,8.13a10.2,10.2,0,0,0,0,10.72l5.08,8.12a6.16,6.16,0,0,1,0,6.77l-5.08,8.13a10.2,10.2,0,0,0,0,10.72l5.08,8.12a6.16,6.16,0,0,1,0,6.77l-5.08,8.24a10.2,10.2,0,0,0,0,10.72l5.08,8.13a6.16,6.16,0,0,1,0,6.77l-5.08,8.12a10.2,10.2,0,0,0,0,10.72l5.08,8.13a6.16,6.16,0,0,1,0,6.77l-5.08,8.12a10.2,10.2,0,0,0,0,10.72l5.08,8.13a6.16,6.16,0,0,1,0,6.77l-5.08,8.23a10.2,10.2,0,0,0,0,10.72l5.08,8.24a6.37,6.37,0,0,1,0,6.89l-.9,1.46a25.7,25.7,0,0,0,5-1.46,10,10,0,0,0-.9-8.92l-5.08-8.24a6.16,6.16,0,0,1,0-6.77l5.08-8.24a10.2,10.2,0,0,0,0-10.72l-5.08-8.12a6.16,6.16,0,0,1,0-6.77l5.08-8.13a10.2,10.2,0,0,0,0-10.72l-5.08-8.12a6.16,6.16,0,0,1,0-6.77l5.08-8.13a10.2,10.2,0,0,0,0-10.72l-5.08-8.12a6.16,6.16,0,0,1,0-6.77l5.08-8.24a10.2,10.2,0,0,0,0-10.72l-5.08-8.12a6.16,6.16,0,0,1,0-6.77l5.08-8.13a10.2,10.2,0,0,0,0-10.72L90.51,480a6.16,6.16,0,0,1,0-6.77l5.08-8.13a10.2,10.2,0,0,0,0-10.72l-5.08-8.12a6.16,6.16,0,0,1,0-6.77l5.08-8.13a10.34,10.34,0,0,0,.9-8.91,25,25,0,0,0-5-1.47Z" transform="translate(-21 -290.07)"/><path d="M45.49,658.06l-5.08-8.23a6.14,6.14,0,0,1,0-6.78l5.08-8.23a10.2,10.2,0,0,0,0-10.72L40.41,616a6.13,6.13,0,0,1,0-6.77l5.08-8.12a10.2,10.2,0,0,0,0-10.72l-5.08-8.13a6.13,6.13,0,0,1,0-6.77l5.08-8.12a10.2,10.2,0,0,0,0-10.72l-5.08-8.13a6.13,6.13,0,0,1,0-6.77l5.08-8.24a10.2,10.2,0,0,0,0-10.72l-5.08-8.12a6.13,6.13,0,0,1,0-6.77l5.08-8.13a10.2,10.2,0,0,0,0-10.72l-5.08-8.12a6.13,6.13,0,0,1,0-6.77L45.49,466a10.2,10.2,0,0,0,0-10.72l-5.08-8.12a6.13,6.13,0,0,1,0-6.77l5.08-8.13a10.2,10.2,0,0,0,0-10.72,24.38,24.38,0,0,0-4.07.34l.91,1.58a6.16,6.16,0,0,1,0,6.77l-5.08,8.13a10.2,10.2,0,0,0,0,10.72l5.08,7.56a6.16,6.16,0,0,1,0,6.77l-5.08,8.12a10.2,10.2,0,0,0,0,10.72l5.08,8.24a6.16,6.16,0,0,1,0,6.77l-5.08,8.13a10.2,10.2,0,0,0,0,10.72l5.08,8.23a6.16,6.16,0,0,1,0,6.77l-5.08,8.24a10.2,10.2,0,0,0,0,10.72l5.08,8.13a6.16,6.16,0,0,1,0,6.77l-5.08,8.12a10.2,10.2,0,0,0,0,10.72l5.08,8.13a6.16,6.16,0,0,1,0,6.77l-5.08,8.12a10.2,10.2,0,0,0,0,10.72l5.08,8.13a6.16,6.16,0,0,1,0,6.77l-5.08,8.24a10.2,10.2,0,0,0,0,10.72l5.08,8.23a6.16,6.16,0,0,1,0,6.77l-1,1.58a24.27,24.27,0,0,0,4.06.34h0A9.19,9.19,0,0,0,45.49,658.06Z" transform="translate(-21 -290.07)"/><path d="M57.79,668.78h4.4a10.2,10.2,0,0,0,0-10.72l-5.08-8.23a6.18,6.18,0,0,1,0-6.78l5.08-8.23a10.2,10.2,0,0,0,0-10.72L57.11,616a6.16,6.16,0,0,1,0-6.77l5.08-8.12a10.2,10.2,0,0,0,0-10.72l-5.08-8.13a6.16,6.16,0,0,1,0-6.77l5.08-8.12a10.2,10.2,0,0,0,0-10.72l-5.08-8.13a6.16,6.16,0,0,1,0-6.77l5.08-8.24a10.2,10.2,0,0,0,0-10.72l-5.08-8.12a6.16,6.16,0,0,1,0-6.77l5.08-8.13a10.2,10.2,0,0,0,0-10.72l-5.08-8.12a6.16,6.16,0,0,1,0-6.77L62.19,466a10.2,10.2,0,0,0,0-10.72l-5.08-8.12a6.16,6.16,0,0,1,0-6.77l5.08-8.13a10.2,10.2,0,0,0,0-10.72h-4.4L59,423.46a6.16,6.16,0,0,1,0,6.77L54,438.36a10.2,10.2,0,0,0,0,10.72L59,457.2A6.16,6.16,0,0,1,59,464L54,472.1a10.2,10.2,0,0,0,0,10.72L59,490.94a6.16,6.16,0,0,1,0,6.77L54,505.84a10.2,10.2,0,0,0,0,10.72L59,524.68a6.16,6.16,0,0,1,0,6.77L54,539.69a10.2,10.2,0,0,0,0,10.72L59,558.54a6.16,6.16,0,0,1,0,6.77L54,573.43a10.2,10.2,0,0,0,0,10.72L59,592.28a6.16,6.16,0,0,1,0,6.77L54,607.17a10.2,10.2,0,0,0,0,10.72L59,626a6.16,6.16,0,0,1,0,6.77L54,641a10.2,10.2,0,0,0,0,10.72L59,660a6.16,6.16,0,0,1,0,6.77Z" transform="translate(-21 -290.07)"/><path d="M74.49,668.78h4.4a10.2,10.2,0,0,0,0-10.72l-5.08-8.23a6.18,6.18,0,0,1,0-6.78l5.08-8.23a10.2,10.2,0,0,0,0-10.72L73.81,616a6.16,6.16,0,0,1,0-6.77l5.08-8.12a10.2,10.2,0,0,0,0-10.72l-5.08-8.13a6.16,6.16,0,0,1,0-6.77l5.08-8.12a10.2,10.2,0,0,0,0-10.72l-5.08-8.13a6.16,6.16,0,0,1,0-6.77l5.08-8.24a10.2,10.2,0,0,0,0-10.72l-5.08-8.12a6.16,6.16,0,0,1,0-6.77l5.08-8.13a10.2,10.2,0,0,0,0-10.72l-5.08-8.12a6.16,6.16,0,0,1,0-6.77L78.89,466a10.2,10.2,0,0,0,0-10.72l-5.08-8.12a6.16,6.16,0,0,1,0-6.77l5.08-8.13a10.2,10.2,0,0,0,0-10.72h-4.4l1.24,1.92a6.16,6.16,0,0,1,0,6.77l-5.08,8.13a10.2,10.2,0,0,0,0,10.72l5.08,8.12a6.16,6.16,0,0,1,0,6.77l-5.08,8.13a10.2,10.2,0,0,0,0,10.72l5.08,8.12a6.16,6.16,0,0,1,0,6.77l-5.08,8.13a10.2,10.2,0,0,0,0,10.72l5.08,8.12a6.16,6.16,0,0,1,0,6.77l-5.08,8.24a10.2,10.2,0,0,0,0,10.72l5.08,8.13a6.16,6.16,0,0,1,0,6.77l-5.08,8.12a10.2,10.2,0,0,0,0,10.72l5.08,8.13a6.16,6.16,0,0,1,0,6.77l-5.08,8.12a10.2,10.2,0,0,0,0,10.72L75.73,626a6.16,6.16,0,0,1,0,6.77L70.65,641a10.2,10.2,0,0,0,0,10.72L75.73,660a6.16,6.16,0,0,1,0,6.77Z" transform="translate(-21 -290.07)"/><path d="M37.59,422.11a24.54,24.54,0,0,0-16.48,23.13V644.18a24.45,24.45,0,0,0,16.48,23.14Z" transform="translate(-21 -290.07)" style="opacity:0.5;isolation:isolate"/><path d="M95.25,667.43a24.55,24.55,0,0,0,16.48-23.13V445.35a24.43,24.43,0,0,0-16.48-23.13Z" transform="translate(-21 -290.07)" style="opacity:0.5;isolation:isolate"/><polygon points="119.84 442.58 210.57 464.81 977.9 464.81 1149.99 436.38 1149.99 393.83 1129.11 356.82 1086.46 314.84 922.95 319.81 197.48 319.81 130.22 361.11 119.84 442.58" style="fill:#161616"/><path d="M1152,781.06h0a9.31,9.31,0,0,1-.11-1.8h.11a5.54,5.54,0,0,0,5.3-5.76,113.71,113.71,0,0,0-1.69-15.23,5.52,5.52,0,0,0-6.43-4.52h-.11c-.12-.56-.23-1.12-.34-1.69h.11a5.68,5.68,0,0,0,3.84-6.88,122.52,122.52,0,0,0-5.19-14.45,5.6,5.6,0,0,0-7.34-2.93.11.11,0,0,0-.11.11c-.23-.56-.57-1-.79-1.58a.11.11,0,0,0,.11-.11,5.55,5.55,0,0,0,2.15-7.56,121.35,121.35,0,0,0-8.35-12.86,5.56,5.56,0,0,0-7.79-1.13l-.11.11c-.34-.45-.79-.9-1.13-1.35l.11-.12a5.66,5.66,0,0,0,.34-7.9,124.37,124.37,0,0,0-11.17-10.6,5.44,5.44,0,0,0-7.79.67s0,.12-.11.12c-.45-.34-1-.68-1.47-1l.11-.11a5.55,5.55,0,0,0-1.46-7.67A119.71,119.71,0,0,0,1089.4,669a5.5,5.5,0,0,0-7.45,2.48v.11c-.56-.22-1.12-.45-1.58-.67a.12.12,0,0,1,.12-.12,5.42,5.42,0,0,0-3.27-7.1,129,129,0,0,0-14.67-4.52,5.56,5.56,0,0,0-6.66,4.06v.12l-1.7-.34v-.11a5.58,5.58,0,0,0-4.85-6.21c-2.59-.34-5.3-.57-7.9-.79s-5-.23-7.44-.23a5.54,5.54,0,0,0-5.53,5.53v.12c-.57,0-1.13.11-1.81.11v-.11a5.64,5.64,0,0,0-6.09-5,112.16,112.16,0,0,0-15.12,2.6,5.62,5.62,0,0,0-4.18,6.65v.12c-.56.11-1.13.33-1.69.45v-.11a5.53,5.53,0,0,0-7.11-3.39,119.9,119.9,0,0,0-14.11,6,5.61,5.61,0,0,0-2.48,7.45l.11.11c-.56.34-1,.57-1.58.9a.11.11,0,0,0-.11-.11,5.62,5.62,0,0,0-7.67-1.69,121.47,121.47,0,0,0-12.41,9.14,5.43,5.43,0,0,0-.68,7.78l.11.12c-.45.45-.9.79-1.35,1.24l-.12-.11a5.63,5.63,0,0,0-7.89.11,138,138,0,0,0-9.93,11.73,5.57,5.57,0,0,0,1.12,7.79s.12,0,.12.11c-.34.45-.68,1-1,1.47l-.11-.11a5.49,5.49,0,0,0-7.56,1.92,128.25,128.25,0,0,0-7,13.65,5.58,5.58,0,0,0,2.93,7.33H923c-.23.57-.34,1.13-.57,1.7a.11.11,0,0,1-.11-.12,5.58,5.58,0,0,0-7,3.62,139.73,139.73,0,0,0-3.61,14.89,5.52,5.52,0,0,0,4.52,6.43h.11a9,9,0,0,0-.23,1.81H916a5.54,5.54,0,0,0-5.87,5.19v.79a128.78,128.78,0,0,0-.11,14.56,5.41,5.41,0,0,0,5.19,5.19H916c.11.56.11,1.13.23,1.8h-.12a5.62,5.62,0,0,0-4.62,6.43,137.89,137.89,0,0,0,3.38,15,5.54,5.54,0,0,0,5,4,5.74,5.74,0,0,0,1.92-.22h.11a9,9,0,0,1,.56,1.69h-.11a5.46,5.46,0,0,0-2.93,7.22,139.55,139.55,0,0,0,6.77,13.77,5.69,5.69,0,0,0,4.51,2.82,5.34,5.34,0,0,0,3.16-.68l.11-.11a10.1,10.1,0,0,1,.91,1.47s-.12,0-.12.11a5.6,5.6,0,0,0-1.24,7.79,124.59,124.59,0,0,0,9.82,11.84,5,5,0,0,0,3.72,1.7,5.94,5.94,0,0,0,4.18-1.47l.11-.11,1.24,1.24-.11.11a5.53,5.53,0,0,0,.56,7.79,111,111,0,0,0,12.3,9.25,4.91,4.91,0,0,0,2.71.9,5.58,5.58,0,0,0,5-2.48.11.11,0,0,1,.11-.11c.56.34,1,.56,1.58.9l-.11.11a5.55,5.55,0,0,0,2.37,7.45,121.94,121.94,0,0,0,14.1,6.21,4.13,4.13,0,0,0,1.58.34,5.5,5.5,0,0,0,5.53-3.62v-.11c.57.23,1.13.34,1.69.57v.11a5.64,5.64,0,0,0,4.07,6.77,137.84,137.84,0,0,0,15.12,2.82h.34a5.48,5.48,0,0,0,5.86-4.85v-.11c.46,0,.79.11,1.25.11h.56v.11a5.65,5.65,0,0,0,5.19,5.64h.34a114.41,114.41,0,0,0,15.35-.79,5.48,5.48,0,0,0,4.85-6.09v-.11c.56-.12,1.13-.23,1.8-.34v.11a5.51,5.51,0,0,0,5.08,4.29,7.59,7.59,0,0,0,1.58-.11,138.31,138.31,0,0,0,14.78-4.29,5.54,5.54,0,0,0,3.39-7.11.11.11,0,0,0-.11-.11c.56-.23,1.12-.45,1.58-.68a.11.11,0,0,0,.11.11,5.9,5.9,0,0,0,4.63,3.16,5.13,5.13,0,0,0,2.82-.56,120.3,120.3,0,0,0,13.31-7.56,5.5,5.5,0,0,0,1.58-7.68l-.11-.11a13.91,13.91,0,0,1,1.47-1,.11.11,0,0,0,.11.11,5.64,5.64,0,0,0,4,2,5.47,5.47,0,0,0,3.84-1.24,124.49,124.49,0,0,0,11.28-10.5,5.56,5.56,0,0,0-.23-7.9l-.11-.11c.34-.45.79-.9,1.13-1.35l.11.11a5.85,5.85,0,0,0,3,1.13,5.6,5.6,0,0,0,4.74-2.14,120,120,0,0,0,8.57-12.76,5.44,5.44,0,0,0-2-7.56.11.11,0,0,1-.11-.11c.23-.56.56-1,.79-1.58a.11.11,0,0,1,.11.11,5.83,5.83,0,0,0,1.92.45,5.65,5.65,0,0,0,5.42-3.27,146.69,146.69,0,0,0,5.41-14.44,5.52,5.52,0,0,0-3.72-6.89h-.11c.11-.56.34-1.12.45-1.69h.11c.23,0,.45.12.68.12a5.42,5.42,0,0,0,5.75-4.52,135.41,135.41,0,0,0,1.92-15.23v-.34C1157.45,783.88,1155.19,781.18,1152,781.06Z" transform="translate(-21 -290.07)" style="fill:#111"/><circle cx="1012.54" cy="489.41" r="105.51" style="fill:#232323"/><path d="M940.56,782H940a8.32,8.32,0,0,1-7.79-8.81,102.84,102.84,0,0,1,3.39-20.31,8.36,8.36,0,1,1,16.13,4.4,86.15,86.15,0,0,0-2.82,16.93A8.46,8.46,0,0,1,940.56,782Z" transform="translate(-21 -290.07)" style="fill:#3a3a3a"/><path d="M1006.35,877a8.43,8.43,0,0,1-2.37-.34,101.51,101.51,0,0,1-69.4-74.48,8.28,8.28,0,1,1,16.14-3.72,84.92,84.92,0,0,0,58,62.18,8.3,8.3,0,0,1,5.53,10.38A8.2,8.2,0,0,1,1006.35,877Z" transform="translate(-21 -290.07)" style="fill:#3a3a3a"/><circle cx="1033.42" cy="779.56" r="74.02" transform="translate(-269.55 669) rotate(-45)" style="fill:#111"/><path d="M1077.55,775.76a44.28,44.28,0,0,0-47.84-40.29l-2.37-27.64a71.93,71.93,0,0,1,78,65.56Z" transform="translate(-21 -290.07)" style="fill:#88a84c"/><path d="M1062.32,781.51l-.45-.11,2.14-4.51-2.82-4.06.45-.23,41.64-18.06a73.39,73.39,0,0,0-9-17.49,70.69,70.69,0,0,0-13.31-14.44l-31.26,32.95-.34.34-2.82-4.06-5,.45v-.45l5.19-45.14a75.27,75.27,0,0,0-19.64-.9,71.94,71.94,0,0,0-19.18,4.28l12.86,43.56.12.45-5,.45-2.14,4.52-.34-.23L977,731.75a69.15,69.15,0,0,0-10.61,16.59,76.68,76.68,0,0,0-5.87,18.73l44.13,10.61.45.11L1003,782.3l2.83,4.07-.46.22-41.64,18.06a74.13,74.13,0,0,0,9,17.49A70.73,70.73,0,0,0,986,836.58l31.26-33,.33-.34,2.82,4.07,5-.46v.46l-5.19,45.13a75.62,75.62,0,0,0,19.63.91,72.5,72.5,0,0,0,19.19-4.29l-12.87-43.56-.11-.45,5-.45,2.14-4.52.34.23L1090,827.44a69.43,69.43,0,0,0,10.6-16.59,76.68,76.68,0,0,0,5.87-18.73Z" transform="translate(-21 -290.07)" style="fill:#8e8e8e"/><polygon points="1001.83 512.32 987.38 491.56 998.1 468.76 1023.15 466.62 1037.6 487.27 1026.88 510.06 1001.83 512.32" style="fill:#111"/><circle cx="1012.43" cy="489.41" r="18.62" style="fill:#afafaf"/><path d="M1026.55,794.72a3.14,3.14,0,0,1-1.36-.34,17,17,0,0,1-4.74-25.84,16.52,16.52,0,0,1,11.51-6,17,17,0,0,1,14.67,6.2,2.81,2.81,0,0,1-4.4,3.5,11.42,11.42,0,1,0-14.33,17.27,2.81,2.81,0,0,1,1.13,3.72A3,3,0,0,1,1026.55,794.72Z" transform="translate(-21 -290.07)" style="fill:#fff"/><path d="M967.76,792.57A74,74,0,0,1,1085,726.33a74,74,0,1,0-95,113A72.89,72.89,0,0,1,967.76,792.57Z" transform="translate(-21 -290.07)" style="fill:#111;opacity:0.5;isolation:isolate"/><path d="M1033.32,857.23A77.82,77.82,0,0,1,956,786.14a77.77,77.77,0,1,1,84.18,70.75C1037.83,857.12,1035.58,857.23,1033.32,857.23Zm.22-148.05c-2,0-4.06.11-6.09.23a70.4,70.4,0,0,0-64,76.17,69.35,69.35,0,0,0,24.82,47.73,70.13,70.13,0,0,0,51.35,16.25,69.3,69.3,0,0,0,47.73-24.83,70,70,0,0,0,16.25-51.34h0A70.49,70.49,0,0,0,1033.54,709.18Z" transform="translate(-21 -290.07)" style="fill:#bcbcbc"/><path d="M1033.43,856.33H1031a2.77,2.77,0,1,1,.11-5.53h.11a70.42,70.42,0,0,0,8.47-.23,71.33,71.33,0,0,0,64.88-77.18c-.22-2.14-.45-4.29-.79-6.32a2.81,2.81,0,0,1,5.53-1,69.28,69.28,0,0,1,.91,6.89,76.78,76.78,0,0,1-69.85,83.16C1037.83,856.22,1035.58,856.33,1033.43,856.33Z" transform="translate(-21 -290.07)" style="fill:#fff"/><path d="M411.1,781.06H411v-1.8h.11a5.54,5.54,0,0,0,5.3-5.76,113.71,113.71,0,0,0-1.69-15.23,5.52,5.52,0,0,0-6.43-4.52h-.11c-.12-.56-.23-1.12-.34-1.69h.11a5.68,5.68,0,0,0,3.84-6.88,122.52,122.52,0,0,0-5.19-14.45,5.6,5.6,0,0,0-7.34-2.93.11.11,0,0,0-.11.11c-.23-.56-.57-1-.79-1.58a.11.11,0,0,0,.11-.11,5.55,5.55,0,0,0,2.15-7.56,121.35,121.35,0,0,0-8.35-12.86,5.56,5.56,0,0,0-7.79-1.13l-.11.11c-.34-.45-.79-.9-1.13-1.35l.11-.12a5.66,5.66,0,0,0,.34-7.9,124.37,124.37,0,0,0-11.17-10.6,5.44,5.44,0,0,0-7.79.67s0,.12-.11.12c-.45-.34-1-.68-1.47-1l.11-.11a5.55,5.55,0,0,0-1.46-7.67A119.71,119.71,0,0,0,348.47,669a5.5,5.5,0,0,0-7.45,2.48v.11c-.56-.22-1.12-.45-1.58-.67a.12.12,0,0,1,.12-.12,5.41,5.41,0,0,0-3.28-7.1,128.2,128.2,0,0,0-14.66-4.52,5.56,5.56,0,0,0-6.66,4.06v.12l-1.7-.34v-.11a5.58,5.58,0,0,0-4.85-6.21c-2.59-.34-5.3-.57-7.9-.79s-5-.23-7.44-.23a5.54,5.54,0,0,0-5.53,5.53v.12c-.57,0-1.13.11-1.81.11v-.11a5.64,5.64,0,0,0-6.09-5,112.16,112.16,0,0,0-15.12,2.6,5.62,5.62,0,0,0-4.18,6.65v.12c-.56.11-1.13.33-1.69.45v-.11a5.53,5.53,0,0,0-7.11-3.39,119.9,119.9,0,0,0-14.11,6,5.61,5.61,0,0,0-2.48,7.45l.11.11c-.56.34-1,.57-1.58.9a.11.11,0,0,0-.11-.11,5.62,5.62,0,0,0-7.67-1.69,120.38,120.38,0,0,0-12.41,9.14,5.43,5.43,0,0,0-.68,7.78l.11.12c-.45.45-.9.79-1.35,1.24l-.12-.11a5.63,5.63,0,0,0-7.89.11,140,140,0,0,0-9.94,11.73,5.58,5.58,0,0,0,1.13,7.79s.12,0,.12.11c-.34.45-.68,1-1,1.47l-.11-.11a5.49,5.49,0,0,0-7.56,1.92,128.25,128.25,0,0,0-7,13.65,5.58,5.58,0,0,0,2.93,7.33H182c-.23.57-.34,1.13-.57,1.7a.11.11,0,0,1-.11-.12,5.58,5.58,0,0,0-7,3.62,139.73,139.73,0,0,0-3.61,14.89,5.52,5.52,0,0,0,4.52,6.43h.11a9,9,0,0,0-.23,1.81H175a5.54,5.54,0,0,0-5.87,5.19v.79a128.78,128.78,0,0,0-.11,14.56,5.41,5.41,0,0,0,5.19,5.19H175c.11.56.11,1.13.23,1.8h-.12a5.62,5.62,0,0,0-4.62,6.43,137.89,137.89,0,0,0,3.38,15,5.54,5.54,0,0,0,5,4,5.74,5.74,0,0,0,1.92-.22h.11a9.84,9.84,0,0,1,.56,1.69h-.11a5.46,5.46,0,0,0-2.93,7.22,139.55,139.55,0,0,0,6.77,13.77A5.69,5.69,0,0,0,189.7,844a5.34,5.34,0,0,0,3.16-.68l.11-.11a10.1,10.1,0,0,1,.91,1.47s-.12,0-.12.11a5.6,5.6,0,0,0-1.24,7.79,124.59,124.59,0,0,0,9.82,11.84,5,5,0,0,0,3.72,1.7,5.94,5.94,0,0,0,4.18-1.47l.11-.11,1.24,1.24-.11.11a5.53,5.53,0,0,0,.56,7.79,111,111,0,0,0,12.3,9.25,4.91,4.91,0,0,0,2.71.9,5.58,5.58,0,0,0,5-2.48.11.11,0,0,1,.11-.11c.56.34,1,.56,1.58.9l-.11.11a5.55,5.55,0,0,0,2.37,7.45,121.94,121.94,0,0,0,14.1,6.21,4.13,4.13,0,0,0,1.58.34,5.5,5.5,0,0,0,5.53-3.62v-.11c.57.23,1.13.34,1.69.57v.11a5.64,5.64,0,0,0,4.07,6.77,137.84,137.84,0,0,0,15.12,2.82h.34a5.48,5.48,0,0,0,5.86-4.85v-.11c.46,0,.79.11,1.25.11h.56v.11a5.65,5.65,0,0,0,5.19,5.64h.34a114.41,114.41,0,0,0,15.35-.79,5.48,5.48,0,0,0,4.85-6.09v-.11c.56-.12,1.13-.23,1.8-.34v.11a5.51,5.51,0,0,0,5.08,4.29,7.59,7.59,0,0,0,1.58-.11A138.31,138.31,0,0,0,335,896.39a5.54,5.54,0,0,0,3.39-7.11.11.11,0,0,0-.11-.11c.56-.23,1.12-.45,1.58-.68a.11.11,0,0,0,.11.11,5.9,5.9,0,0,0,4.63,3.16,5.13,5.13,0,0,0,2.82-.56,120.3,120.3,0,0,0,13.31-7.56,5.5,5.5,0,0,0,1.58-7.68l-.11-.11a13.91,13.91,0,0,1,1.47-1,.11.11,0,0,0,.11.11,5.64,5.64,0,0,0,3.95,2,5.43,5.43,0,0,0,3.83-1.24,123.29,123.29,0,0,0,11.29-10.5,5.56,5.56,0,0,0-.23-7.9l-.11-.11c.34-.45.79-.9,1.13-1.35l.11.11a5.85,5.85,0,0,0,3,1.13,5.6,5.6,0,0,0,4.74-2.14,120,120,0,0,0,8.57-12.76,5.44,5.44,0,0,0-2-7.56.11.11,0,0,1-.11-.11c.23-.56.56-1,.79-1.58a.11.11,0,0,1,.11.11,5.83,5.83,0,0,0,1.92.45,5.65,5.65,0,0,0,5.42-3.27,146.69,146.69,0,0,0,5.41-14.44,5.52,5.52,0,0,0-3.72-6.89h-.11c.11-.56.34-1.12.45-1.69h.11c.23,0,.45.12.68.12a5.42,5.42,0,0,0,5.75-4.52,135.41,135.41,0,0,0,1.92-15.23v-.34C416.52,783.88,414.15,781.18,411.1,781.06Z" transform="translate(-21 -290.07)" style="fill:#111"/><circle cx="271.5" cy="489.41" r="105.51" style="fill:#232323"/><path d="M199.52,782H199a8.32,8.32,0,0,1-7.78-8.81,103.57,103.57,0,0,1,3.38-20.31,8.36,8.36,0,0,1,16.14,4.4,85.42,85.42,0,0,0-2.82,16.93A8.38,8.38,0,0,1,199.52,782Z" transform="translate(-21 -290.07)" style="fill:#3a3a3a"/><path d="M265.31,877a8.43,8.43,0,0,1-2.37-.34,101.49,101.49,0,0,1-69.4-74.48,8.28,8.28,0,1,1,16.13-3.72,84.94,84.94,0,0,0,58,62.18A8.3,8.3,0,0,1,273.21,871,8.2,8.2,0,0,1,265.31,877Z" transform="translate(-21 -290.07)" style="fill:#3a3a3a"/><circle cx="292.5" cy="779.46" r="74.02" transform="translate(-486.49 145.06) rotate(-45)" style="fill:#111"/><path d="M336.62,775.76a44.28,44.28,0,0,0-47.84-40.29l-2.37-27.64a71.93,71.93,0,0,1,78,65.56Z" transform="translate(-21 -290.07)" style="fill:#88a84c"/><path d="M321.28,781.51l-.45-.11,2.14-4.51-2.82-4.06.45-.23,41.64-18.06a73.76,73.76,0,0,0-9-17.49,71,71,0,0,0-13.31-14.44l-31.26,32.95-.34.34-2.82-4.06-5,.45v-.45l5.19-45.14a75.19,75.19,0,0,0-19.63-.9,71.94,71.94,0,0,0-19.18,4.28l12.86,43.56.11.45-5,.45-2.15,4.52-.33-.23L236,731.75a69.15,69.15,0,0,0-10.61,16.59,76.68,76.68,0,0,0-5.87,18.73l44.12,10.61.45.11-2.14,4.51,2.82,4.07-.45.22-41.64,18.06a73.76,73.76,0,0,0,9,17.49A71,71,0,0,0,245,836.58l31.26-33,.34-.34,2.82,4.07,5-.46v.46l-5.19,45.13a75.62,75.62,0,0,0,19.63.91A72.34,72.34,0,0,0,318,849.11l-12.86-43.56-.11-.45,5-.45,2.15-4.52.33.23,36.45,27.08a69.15,69.15,0,0,0,10.61-16.59,76.68,76.68,0,0,0,5.87-18.73Z" transform="translate(-21 -290.07)" style="fill:#8e8e8e"/><polygon points="260.78 512.32 246.34 491.56 257.06 468.76 282.22 466.62 296.67 487.27 285.94 510.06 260.78 512.32" style="fill:#111"/><circle cx="271.5" cy="489.41" r="18.62" style="fill:#afafaf"/><path d="M285.62,794.72a3.14,3.14,0,0,1-1.36-.34A17.15,17.15,0,0,1,275.57,781a17,17,0,0,1,30.13-12.19,2.81,2.81,0,1,1-4.4,3.5A11.39,11.39,0,1,0,287,789.41a2.84,2.84,0,0,1-1.35,5.31Z" transform="translate(-21 -290.07)" style="fill:#fff"/><path d="M226.71,792.57A74,74,0,0,1,344,726.33a74,74,0,1,0-95,113A73.47,73.47,0,0,1,226.71,792.57Z" transform="translate(-21 -290.07)" style="fill:#111;opacity:0.5;isolation:isolate"/><path d="M292.39,857.23a77.82,77.82,0,0,1-77.3-71.09,77.77,77.77,0,1,1,84.18,70.75C296.9,857.12,294.65,857.23,292.39,857.23Zm.11-148.05c-2,0-4.06.11-6.09.23a70.4,70.4,0,0,0-64,76.17,69.35,69.35,0,0,0,24.82,47.73,70.1,70.1,0,0,0,51.35,16.25,69.32,69.32,0,0,0,47.73-24.83,70.09,70.09,0,0,0,16.25-51.34h0A70.41,70.41,0,0,0,292.5,709.18Z" transform="translate(-21 -290.07)" style="fill:#bcbcbc"/><path d="M292.39,856.33h-2.48a2.77,2.77,0,1,1,.11-5.53,70.31,70.31,0,0,0,8.46-.23,71.35,71.35,0,0,0,64.89-77.18c-.23-2.14-.45-4.29-.79-6.32a2.81,2.81,0,0,1,5.53-1,69.29,69.29,0,0,1,.9,6.89,76.78,76.78,0,0,1-69.85,83.16C296.9,856.22,294.65,856.33,292.39,856.33Z" transform="translate(-21 -290.07)" style="fill:#fff"/><polygon points="127.74 440.1 437.27 464.81 353.54 314.84 153.69 314.84 127.74 440.1" style="opacity:0.5;isolation:isolate"/><polygon points="833.58 466.62 1158 435.13 1114.22 332.79 917.42 330.3 833.58 466.62" style="opacity:0.5;isolation:isolate"/><path d="M111.73,627.14h0V561h0a20.9,20.9,0,0,0-20.88,20.87v24.49A21,21,0,0,0,111.73,627.14Z" transform="translate(-21 -290.07)" style="fill:#dd2424"/><path d="M96.61,600.51h0a4.29,4.29,0,0,0,4.28-4.29v-25.5a4.29,4.29,0,0,0-4.28-4.29h0a4.29,4.29,0,0,0-4.29,4.29v25.5A4.36,4.36,0,0,0,96.61,600.51Z" transform="translate(-21 -290.07)" style="fill:#f95353"/><rect x="80.91" y="270.83" width="9.82" height="66.13" style="fill:#af1c1c"/><path d="M111.73,632.67a5.54,5.54,0,0,1-5.53-5.53V561a5.53,5.53,0,0,1,11.06,0v66.12A5.54,5.54,0,0,1,111.73,632.67Z" transform="translate(-21 -290.07)" style="fill:#212121"/><path d="M1129.46,581.89a63,63,0,0,0-49.09-39.15l-234.15-36a139.87,139.87,0,0,0-21.66-1.69H775l-72.9-134.51a8.24,8.24,0,0,0-7.33-4.29h0a8.31,8.31,0,0,0-7.45,12l60.6,122.44h-7.11a35.78,35.78,0,0,0-25.73,10.94l-24,24.94a35.75,35.75,0,0,1-25.72,11H111.73V678.26l35.2,40,6.66,1,22.23-62.62a53.92,53.92,0,0,1,50.89-35.89H331a54.09,54.09,0,0,1,45.7,25.17l72.11,114.53H860L945.87,644A57.34,57.34,0,0,1,992,620.71h94.11a57.25,57.25,0,0,1,46.72,24.15l9.25,13V614.28Z" transform="translate(-21 -290.07)" style="fill:#88a84c"/><rect x="733.14" y="366.98" width="8.8" height="32.5" style="fill:#a7cb64"/><path d="M717.81,664.16h0a3.16,3.16,0,0,0,3.16,3.16h22.34a5.05,5.05,0,0,1,5.08,5.07v1.81a5.06,5.06,0,0,1-5.08,5.08H721a3.15,3.15,0,0,0-3.16,3.16h0a3.18,3.18,0,0,0,2.82,3.16l33.51,3.83v-32.5l-33.51,3.84A3.5,3.5,0,0,0,717.81,664.16Z" transform="translate(-21 -290.07)" style="fill:#a7cb64"/><path d="M717.81,660.21h0a3.16,3.16,0,0,0,3.16,3.16h22.34a5.05,5.05,0,0,1,5.08,5.07v1.81a5.06,5.06,0,0,1-5.08,5.08H721a3.15,3.15,0,0,0-3.16,3.16h0a3.18,3.18,0,0,0,2.82,3.16l33.51,3.83V653l-33.51,3.83A3.5,3.5,0,0,0,717.81,660.21Z" transform="translate(-21 -290.07)" style="fill:#a7cb64"/><rect x="733.14" y="363.03" width="8.8" height="32.5" style="fill:#a7cb64"/><rect x="738.67" y="363.03" width="3.27" height="32.5" style="fill:#a7cb64"/><rect x="733.14" y="284.04" width="8.8" height="32.5" style="fill:#a7cb64"/><path d="M717.81,581.1h0a3.15,3.15,0,0,0,3.16,3.16h22.34a5.06,5.06,0,0,1,5.08,5.08v1.81a5.05,5.05,0,0,1-5.08,5.07H721a3.15,3.15,0,0,0-3.16,3.16h0a3.18,3.18,0,0,0,2.82,3.16l33.51,3.84v-32.5l-33.51,3.84A3.7,3.7,0,0,0,717.81,581.1Z" transform="translate(-21 -290.07)" style="fill:#a7cb64"/><path d="M717.81,577.15h0a3.15,3.15,0,0,0,3.16,3.16h22.34a5.06,5.06,0,0,1,5.08,5.08v1.81a5.06,5.06,0,0,1-5.08,5.08H721a3.15,3.15,0,0,0-3.16,3.15h0a3.18,3.18,0,0,0,2.82,3.16l33.51,3.84v-32.5l-33.51,3.84A3.7,3.7,0,0,0,717.81,577.15Z" transform="translate(-21 -290.07)" style="fill:#a7cb64"/><rect x="733.14" y="280.09" width="8.8" height="32.5" style="fill:#a7cb64"/><rect x="738.67" y="280.09" width="3.27" height="32.5" style="fill:#a7cb64"/><polygon points="375.66 317.67 508.36 460.52 435.01 460.52 375.66 317.67" style="fill:#a7cb64"/><path d="M1119.08,564.52a62.82,62.82,0,0,0-38.82-21.9l-234.15-36a139.88,139.88,0,0,0-21.66-1.7H774.91L789.13,538Z" transform="translate(-21 -290.07)" style="fill:#a7cb64"/><polygon points="90.73 257.52 121.31 389.77 90.73 389.77 90.73 257.52" style="fill:#a7cb64"/><circle cx="708.43" cy="254.81" r="18.51" style="fill:#a7cb64"/><path d="M741.28,530.55a18.14,18.14,0,0,1,4.29,11.85,18.44,18.44,0,0,1-18.51,18.5,18.15,18.15,0,0,1-11.85-4.28,18.51,18.51,0,1,0,26.07-26.07Z" transform="translate(-21 -290.07)" style="fill:#a7cb64"/><path d="M700.32,542.51l21.44-22.23a101.63,101.63,0,0,1,26.29-19.63h-7.22a35.78,35.78,0,0,0-25.73,10.94l-24,24.94a35.75,35.75,0,0,1-25.72,11H111.73V555H670.64A40.52,40.52,0,0,0,700.32,542.51Z" transform="translate(-21 -290.07)" style="fill:#a7cb64"/><circle cx="505.54" cy="301.42" r="20.09" style="fill:#fff"/><path d="M506.45,591.49a20.06,20.06,0,0,0,2.82,10.26h34.65a19.76,19.76,0,0,0,2.82-10.26,16.17,16.17,0,0,0-.34-3.39H506.79A16,16,0,0,0,506.45,591.49Z" transform="translate(-21 -290.07)" style="fill:#a7cb64"/><path d="M553.06,598.26H494.49a6.79,6.79,0,0,1-6.77-6.77h0a6.8,6.8,0,0,1,6.77-6.78h58.57a6.8,6.8,0,0,1,6.77,6.78h0A6.79,6.79,0,0,1,553.06,598.26Z" transform="translate(-21 -290.07)" style="fill:#fff"/><path d="M488.06,593.4a6.8,6.8,0,0,0,6.54,4.86h58.57a6.91,6.91,0,0,0,6.54-4.86Z" transform="translate(-21 -290.07)" style="fill:#88a84c"/><rect x="945.1" y="393" width="5.53" height="364.94" transform="translate(309.51 1206.53) rotate(-87.43)" style="fill:#a7cb64"/><path d="M832.34,505.61h0a2,2,0,0,0-.67,3.27,47.1,47.1,0,0,1,15.46,34.87v26.86h5.53V543.75a52.21,52.21,0,0,0-15.35-37.12A4.72,4.72,0,0,0,832.34,505.61Z" transform="translate(-21 -290.07)" style="fill:#a7cb64"/><path d="M758.43,514.86l-5.87-11.51a5.15,5.15,0,0,0-4.51-2.82h0a3.8,3.8,0,0,0-.79,4.52l6.32,12.3A85.65,85.65,0,0,1,763,556.17V681.76a41.86,41.86,0,0,1-41.87,41.87H550.24a49.87,49.87,0,0,1-42.88-24.49l-26.07-43.9a60.3,60.3,0,0,1-8.35-30.47V547.48h-5.53v77.29a65.07,65.07,0,0,0,9.14,33.29L502.5,702a55.47,55.47,0,0,0,47.74,27.19H721a47.38,47.38,0,0,0,47.39-47.39V556.28A92.58,92.58,0,0,0,758.43,514.86Z" transform="translate(-21 -290.07)" style="fill:#a7cb64"/><path d="M1173.58,661.11a12.69,12.69,0,0,0,.91-12.19l-6.55-14.44a91.71,91.71,0,0,0-18.28-26.63c-16.36-16.59-37.69-26.07-59.92-26.86-1.13,0-2.26-.11-3.38-.11H992.24A97.7,97.7,0,0,0,914,620.37L820.38,747.21H487.27L410.2,624.66a93.28,93.28,0,0,0-79.33-43.78H226.6a93.85,93.85,0,0,0-88.36,62.4l-11.39,32.27H87.24A19.66,19.66,0,0,0,67.6,695.19v27a33.28,33.28,0,0,0,33.29,33.29H141.4A19.65,19.65,0,0,0,161,735.81V706.13l17.26-48.74c.46-1.25.91-2.49,1.47-3.73a50.92,50.92,0,0,1,27.42-26.52l3.73-1.35a44.56,44.56,0,0,1,7.67-1.81,47.06,47.06,0,0,1,8-.67H330.87a42.29,42.29,0,0,1,6.54.45,51.64,51.64,0,0,1,26.18,11.4,49.53,49.53,0,0,1,10.61,12.18l64.43,102.35a11.94,11.94,0,0,0-4.51,9.37,12.08,12.08,0,0,0,12.07,12.07h416a12,12,0,0,0,8.57-20.54l77.64-105.05a54.73,54.73,0,0,1,43.89-22.12h94.12a54.67,54.67,0,0,1,44.46,22.91l8.8,12.3a9.19,9.19,0,0,0,9.14,8.24H1163A12.81,12.81,0,0,0,1173.58,661.11Z" transform="translate(-21 -290.07)" style="fill:#212121"/><path d="M159.23,626.35a3.39,3.39,0,0,1-2.25-.79,3.75,3.75,0,0,1-.68-5.19c1.47-1.91,2.93-3.72,4.51-5.53a3.68,3.68,0,0,1,5.53,4.86,64,64,0,0,0-4.17,5.07A3.3,3.3,0,0,1,159.23,626.35Z" transform="translate(-21 -290.07)" style="fill:#636363"/><path d="M177.4,608.64a3.73,3.73,0,0,1-2.93-1.47,3.65,3.65,0,0,1,.79-5.19,92.51,92.51,0,0,1,55.18-18.05H283a3.72,3.72,0,1,1,0,7.44H230.44A85.69,85.69,0,0,0,179.66,608,4.1,4.1,0,0,1,177.4,608.64Z" transform="translate(-21 -290.07)" style="fill:#636363"/><path d="M322.07,591.26H310a3.73,3.73,0,0,1,0-7.45h12.08a3.75,3.75,0,0,1,3.72,3.73A3.68,3.68,0,0,1,322.07,591.26Z" transform="translate(-21 -290.07)" style="fill:#636363"/><path d="M896.33,665.4a3.51,3.51,0,0,1-2.15-.68,3.65,3.65,0,0,1-.79-5.19l2.49-3.39a3.72,3.72,0,1,1,6,4.41l-2.49,3.38A3.76,3.76,0,0,1,896.33,665.4Z" transform="translate(-21 -290.07)" style="fill:#636363"/><path d="M908.4,649a3.46,3.46,0,0,1-2.14-.68,3.65,3.65,0,0,1-.79-5.19l14.89-20.09a94.85,94.85,0,0,1,76.06-38.37H1011a3.73,3.73,0,0,1,0,7.45H996.42a87.5,87.5,0,0,0-70.19,35.44l-14.89,20.08A3.67,3.67,0,0,1,908.4,649Z" transform="translate(-21 -290.07)" style="fill:#636363"/><path d="M1052.05,592.05h-15.57a3.73,3.73,0,1,1,0-7.45h15.57a3.73,3.73,0,0,1,0,7.45Z" transform="translate(-21 -290.07)" style="fill:#636363"/><path d="M141.52,743.37H101a33.27,33.27,0,0,1-33.29-33.29v12.08A33.28,33.28,0,0,0,101,755.45h40.51a19.65,19.65,0,0,0,19.63-19.64V723.74A19.57,19.57,0,0,1,141.52,743.37Z" transform="translate(-21 -290.07)"/><path d="M1174.49,648.92l-6.55-14.44a91.71,91.71,0,0,0-18.28-26.63c-16.36-16.59-37.69-26.07-59.92-26.86-1.13,0-2.26-.11-3.38-.11h-13.09c1.12,0,2.25,0,3.38.11,22.34.79,43.56,10.38,59.92,26.86a89.62,89.62,0,0,1,18.28,26.63l6.55,14.44A12.8,12.8,0,0,1,1149.77,667h13.09a12.54,12.54,0,0,0,10.72-5.87A12.71,12.71,0,0,0,1174.49,648.92Z" transform="translate(-21 -290.07)" style="fill:#141414"/><path d="M349.15,582.57c24.37,7.67,46.72,35.21,46.72,35.21l77.52,120.4-14,8.92h27.87L410.2,624.66A93,93,0,0,0,349.15,582.57Z" transform="translate(-21 -290.07)" style="opacity:0.5;isolation:isolate"/><path d="M126.85,675.55h9.93a24.51,24.51,0,0,1,24.48,24.72l-.11,5.86L174,670Z" transform="translate(-21 -290.07)" style="opacity:0.5;isolation:isolate"/><polygon points="849.6 460.52 821.16 458.04 851.52 458.04 849.6 460.52" style="opacity:0.5;isolation:isolate"/><path d="M723.11,498.16h0a7.45,7.45,0,0,1,7.45,7.45v43.45a7.43,7.43,0,0,1-7.45,7.44h0a7.44,7.44,0,0,1-7.45-7.44V505.61A7.6,7.6,0,0,1,723.11,498.16Z" transform="translate(-21 -290.07)" style="fill:#212121"/><path d="M702,370.54a8.33,8.33,0,0,0-14.78,7.67l12.41,24.94,22.23,4.17Z" transform="translate(-21 -290.07)" style="fill:#a7cb64"/><path d="M723.11,498.16a7.45,7.45,0,0,0-7.45,7.45v28h3.39a19,19,0,0,0,11.4-3.84V505.61A7.36,7.36,0,0,0,723.11,498.16Z" transform="translate(-21 -290.07)" style="fill:#0a0a0a"/><path d="M710.14,473.79h-17A7.08,7.08,0,0,0,686,480.9v41.41a7.08,7.08,0,0,0,7.11,7.11h17a27.73,27.73,0,0,0,27.75-27.76h0A27.76,27.76,0,0,0,710.14,473.79Z" transform="translate(-21 -290.07)" style="fill:#212121"/><path d="M719.16,473.79H707.31a18.87,18.87,0,0,1,18.85,18.84v17.95a18.87,18.87,0,0,1-18.85,18.84h11.85A18.88,18.88,0,0,0,738,510.58V492.63A19,19,0,0,0,719.16,473.79Z" transform="translate(-21 -290.07)" style="fill:#2b2b2b"/><path d="M708.56,432.26h0a2.75,2.75,0,0,1-3.73-1.35l-19.41-40.17a2.76,2.76,0,0,1,1.36-3.73h0a2.75,2.75,0,0,1,3.72,1.36l19.41,40.17A3,3,0,0,1,708.56,432.26Z" transform="translate(-21 -290.07)" style="fill:#e5e5e5"/><path d="M686.89,391.53a2.27,2.27,0,1,1,3.05-1A2.27,2.27,0,0,1,686.89,391.53Z" transform="translate(-21 -290.07)" style="fill:#b5b5b5"/><path d="M434.23,761a12.13,12.13,0,0,0,11.85,10.27H862A12,12,0,0,0,873.87,761Z" transform="translate(-21 -290.07)" style="opacity:0.5;isolation:isolate"/><path d="M387.06,558.87H358.85a3.72,3.72,0,0,1,0-7.44h28.21a3.72,3.72,0,1,1,0,7.44Z" transform="translate(-21 -290.07)" style="fill:#88a84c"/><path d="M325.56,558.87H251.09a3.72,3.72,0,1,1,0-7.44h74.47a3.75,3.75,0,0,1,3.73,3.72A3.83,3.83,0,0,1,325.56,558.87Z" transform="translate(-21 -290.07)" style="fill:#88a84c"/><path d="M534.78,591.49H497a2.83,2.83,0,0,1,0-5.65h37.81a2.83,2.83,0,0,1,0,5.65Z" transform="translate(-21 -290.07)" style="fill:#fff"/><path d="M174.13,504.37a1.48,1.48,0,0,1-.68-.11,2.84,2.84,0,0,1-2-3.39l16-65.11a2.79,2.79,0,0,1,5.42,1.36l-16,65.11A2.76,2.76,0,0,1,174.13,504.37Z" transform="translate(-21 -290.07)" style="fill:#88a84c"/><path d="M169.05,524.91a1.48,1.48,0,0,1-.68-.11,2.85,2.85,0,0,1-2-3.39l1.47-5.87a2.79,2.79,0,0,1,5.42,1.36l-1.47,5.86A2.88,2.88,0,0,1,169.05,524.91Z" transform="translate(-21 -290.07)" style="fill:#88a84c"/><path d="M445.86,539.24a2.8,2.8,0,0,1-2.83-2.82V500.65a2.83,2.83,0,0,1,5.65,0v35.77A3,3,0,0,1,445.86,539.24Z" transform="translate(-21 -290.07)" style="fill:#a7cb64"/><path d="M774.34,757.25H724.58a3.73,3.73,0,0,1,0-7.45h49.76a3.73,3.73,0,1,1,0,7.45Z" transform="translate(-21 -290.07)" style="fill:#636363"/><path d="M801.31,757.25H792a3.73,3.73,0,1,1,0-7.45h9.36a3.73,3.73,0,1,1,0,7.45Z" transform="translate(-21 -290.07)" style="fill:#636363"/></svg>