<svg id="Layer_1" data-name="Layer 1" xmlns="http://www.w3.org/2000/svg" xmlns:xlink="http://www.w3.org/1999/xlink" viewBox="0 0 1129.55 638.75"><defs><linearGradient id="linear-gradient" x1="-1244.5" y1="824" x2="-1244.5" y2="811.06" gradientTransform="matrix(0.08, -1.25, -1.17, -0.08, 2172.3, -926.62)" gradientUnits="userSpaceOnUse"><stop offset="0" stop-color="#fff"/><stop offset="1"/></linearGradient><linearGradient id="linear-gradient-2" x1="210.12" y1="32.35" x2="210.12" y2="14.35" gradientTransform="matrix(-0.96, 0.28, 0.28, 0.96, 1237.19, 175.44)" xlink:href="#linear-gradient"/><radialGradient id="radial-gradient" cx="-51.69" cy="838.95" r="6.89" gradientTransform="matrix(-0.97, -0.23, -0.23, 0.97, 1254.47, -175.28)" xlink:href="#linear-gradient"/><radialGradient id="radial-gradient-2" cx="69.83" cy="229.3" r="8.4" gradientTransform="matrix(-1, 0, 0, 1, 1200.26, 0)" xlink:href="#linear-gradient"/><radialGradient id="radial-gradient-3" cx="108" cy="302.22" r="8.41" gradientTransform="matrix(-1, 0, 0, 1, 1164.86, -215.25)" xlink:href="#linear-gradient"/><radialGradient id="radial-gradient-4" cx="452.26" cy="337.8" r="8.41" gradientTransform="matrix(-1, 0, 0, 1, 1200.26, 0)" xlink:href="#linear-gradient"/><radialGradient id="radial-gradient-5" cx="-944.22" cy="1142.46" r="11.21" gradientTransform="matrix(-0.03, -1, -1, 0.03, 2116.45, -569.07)" xlink:href="#linear-gradient"/><radialGradient id="radial-gradient-6" cx="1923.67" cy="-1429.49" r="9.55" gradientTransform="matrix(0.77, 0.63, 0.63, -0.77, 526.86, -1674.69)" xlink:href="#linear-gradient"/><linearGradient id="linear-gradient-3" x1="211.83" y1="-1135.94" x2="211.83" y2="-1150.78" gradientTransform="matrix(0, 1, 1, 0, 1423.64, 230.22)" xlink:href="#linear-gradient"/><radialGradient id="radial-gradient-7" cx="3903.53" cy="772.7" r="53.4" gradientTransform="matrix(-1, 0, 0, 1, 4027.13, 0)" gradientUnits="userSpaceOnUse"><stop offset="0" stop-color="#231f20"/><stop offset="0.41" stop-color="#252122"/><stop offset="0.56" stop-color="#2b2729"/><stop offset="0.67" stop-color="#353334"/><stop offset="0.74" stop-color="#414042"/><stop offset="0.77" stop-color="#4d4d4f"/><stop offset="0.8" stop-color="#555658"/><stop offset="0.85" stop-color="#58595b"/><stop offset="0.92" stop-color="#414042"/></radialGradient></defs><title>Excavator</title><path d="M1119.7,482l7.1.5a2.29,2.29,0,0,1,2.2,2.5l-11.3,172.4a2.29,2.29,0,0,1-2.5,2.2l-7.1-.5a2.29,2.29,0,0,1-2.2-2.5l11.3-172.4A2.35,2.35,0,0,1,1119.7,482Z" transform="translate(-35.4 -215.25)" style="fill:url(#linear-gradient)"/><path d="M1134.5,276.9l4.4.3a5.82,5.82,0,0,1,5.4,6.2l-15,228.7a5.82,5.82,0,0,1-6.2,5.4l-4.4-.3a5.82,5.82,0,0,1-5.4-6.2l15-228.7A5.82,5.82,0,0,1,1134.5,276.9Z" transform="translate(-35.4 -215.25)" style="fill:#1a1b20"/><path d="M1115.7,486.3l14.5,1a3.59,3.59,0,0,1,3.4,3.8l-1.1,16.1a3.59,3.59,0,0,1-3.8,3.4l-14.5-1a3.59,3.59,0,0,1-3.4-3.8l1.1-16.1A3.59,3.59,0,0,1,1115.7,486.3Z" transform="translate(-35.4 -215.25)" style="fill:#1a1b20"/><path d="M947.6,284.5l-2.4-8.3a2.79,2.79,0,0,1,1.9-3.4l183.7-53.2a2.79,2.79,0,0,1,3.4,1.9l2.4,8.3a2.79,2.79,0,0,1-1.9,3.4L950.9,286.4A2.65,2.65,0,0,1,947.6,284.5Z" transform="translate(-35.4 -215.25)" style="fill:url(#linear-gradient-2)"/><path d="M729.1,349.4l-3.2-11.2a3.65,3.65,0,0,1,2.5-4.6l249.1-72.1a3.65,3.65,0,0,1,4.6,2.5l3.2,11.2a3.65,3.65,0,0,1-2.5,4.6L733.7,351.9A3.81,3.81,0,0,1,729.1,349.4Z" transform="translate(-35.4 -215.25)" style="fill:#1a1b20"/><path d="M953.7,287.5l-4.9-16.9a4.1,4.1,0,0,1,2.8-5.1l16.9-4.9a4.1,4.1,0,0,1,5.1,2.8l4.9,16.9a4.1,4.1,0,0,1-2.8,5.1l-16.9,4.9A4.18,4.18,0,0,1,953.7,287.5Z" transform="translate(-35.4 -215.25)" style="fill:#1a1b20"/><path d="M1051.5,301.4l19.3-43.5a22.27,22.27,0,0,1,3.6-5.6l11.4-12.8a20,20,0,0,1,4.7-4l27.4-17.1a20.15,20.15,0,0,1,9.6-3.1,20.53,20.53,0,0,1,20.5,13.4l15.5,40.9a21.57,21.57,0,0,1,.4,14.4L1043.1,662.2a21.31,21.31,0,0,1-19.3,15,19.78,19.78,0,0,1-5.4-.5,20.52,20.52,0,0,1-12.4-8.6,22,22,0,0,1-3.4-15l47.3-345.8A24.58,24.58,0,0,1,1051.5,301.4Z" transform="translate(-35.4 -215.25)" style="fill:#88a84c"/><path d="M1062.7,298l19.6-44.2a24.28,24.28,0,0,1,3.7-5.7l11.5-13a20.88,20.88,0,0,1,4.8-4.1l25.2-15.7a20.53,20.53,0,0,1,20.5,13.4l15.5,40.9a21.57,21.57,0,0,1,.4,14.4L1043,662.2a21.31,21.31,0,0,1-19.3,15,21,21,0,0,1-7.4-6.8,22,22,0,0,1-3.4-15.2L1061,304.1A25.07,25.07,0,0,1,1062.7,298Z" transform="translate(-35.4 -215.25)" style="fill:#a7cb64"/><path d="M1115,309.4l-4.2,10.3-58.7,25.9S843.5,388,763.3,407.9,639.6,470,639.6,470l-78,86.2-68.7,99.5-44.5-25.5s48.5-93.6,129.1-204.5S780.8,323.8,780.8,323.8l230.7-21.1,34.3-15.6,62.5,10.3A8.71,8.71,0,0,1,1115,309.4Z" transform="translate(-35.4 -215.25)" style="fill:#88a84c"/><path d="M1114.7,300.9l-4.2,10.3-58.7,25.9S843.2,379.5,763,399.4s-123.7,62.1-123.7,62.1l-78,86.2-68.7,99.5-44.5-25.5s48.5-93.6,129.1-204.5S780.5,315.3,780.5,315.3l230.7-21.1,34.3-15.6,62.5,10.3A8.71,8.71,0,0,1,1114.7,300.9Z" transform="translate(-35.4 -215.25)" style="fill:#a7cb64"/><path d="M1115.4,646.7a6.89,6.89,0,1,1-8.3,5.1A6.88,6.88,0,0,1,1115.4,646.7Z" transform="translate(-35.4 -215.25)" style="fill:url(#radial-gradient)"/><path d="M1130.5,220.9a8.4,8.4,0,1,1-8.4,8.4A8.45,8.45,0,0,1,1130.5,220.9Z" transform="translate(-35.4 -215.25)" style="fill:url(#radial-gradient-2)"/><circle cx="1056.9" cy="86.95" r="8.4" style="fill:url(#radial-gradient-3)"/><path d="M748,329.4a8.4,8.4,0,1,1-8.4,8.4A8.45,8.45,0,0,1,748,329.4Z" transform="translate(-35.4 -215.25)" style="fill:url(#radial-gradient-4)"/><path d="M1028.6,644.5l-7.1-7.1a3.16,3.16,0,0,1-.7-1.3l-1.2-4.2a4.42,4.42,0,0,1-.2-1.7l.3-10.1a9.37,9.37,0,0,1,.8-3.6c1.2-3.2,3.7-6.3,6.3-7.6l11.9-5.8a3.44,3.44,0,0,1,3.4-.1l88.8,44.6c1.6,1.1,1.7,4,.4,7.2a18.65,18.65,0,0,1-1,2,16.34,16.34,0,0,1-3.9,4.6,4.83,4.83,0,0,1-4,1.3l-92.9-17.3A1,1,0,0,1,1028.6,644.5Z" transform="translate(-35.4 -215.25)" style="fill:#a7cb64"/><path d="M1029.6,640.6l-7.2-7.2a3.22,3.22,0,0,1-.8-1.4l-1.2-4.3a5,5,0,0,1-.2-1.8l.3-9.4c1.2-3.2,3.7-6.3,6.3-7.6l11.9-5.8a3.44,3.44,0,0,1,3.4-.1l88.8,44.6c1.6,1.1,1.7,4,.4,7.2a10.34,10.34,0,0,1-2.7,2.8c-1.5,1.1-2.9,1.6-4.1,1.3l-94-17.6C1030,641.2,1029.7,641,1029.6,640.6Z" transform="translate(-35.4 -215.25)" style="fill:#a7cb64"/><circle cx="1000.6" cy="406.45" r="11.2" style="fill:url(#radial-gradient-5)"/><path d="M1089.7,643.1l6.9-5.9a5.17,5.17,0,0,1,1.3-.6l3.9-1.1a7.77,7.77,0,0,1,1.6-.2h9.1a11.85,11.85,0,0,1,3.2.5c2.8.9,5.5,2.8,6.4,4.9l4.3,9.5a2.54,2.54,0,0,1-.1,2.8l-47,77.1c-1.1,1.3-3.7,1.5-6.5.6-.5-.2-1.1-.4-1.7-.7a10.34,10.34,0,0,1-3.9-3,3.51,3.51,0,0,1-.9-3.2l22.8-79.5A13.35,13.35,0,0,1,1089.7,643.1Z" transform="translate(-35.4 -215.25)" style="fill:#a7cb64"/><path d="M1093.5,643.8l7-6a5.39,5.39,0,0,1,1.3-.7l3.9-1.1a7.77,7.77,0,0,1,1.6-.2h8.4c2.8.9,5.5,2.8,6.4,4.9l4.3,9.5a2.54,2.54,0,0,1-.1,2.8l-46.9,77.1c-1.1,1.3-3.7,1.5-6.5.6a9.45,9.45,0,0,1-2.3-2.1,3.7,3.7,0,0,1-.9-3.3l23.1-80.4A3.78,3.78,0,0,1,1093.5,643.8Z" transform="translate(-35.4 -215.25)" style="fill:#a7cb64"/><path d="M1101,658a9.52,9.52,0,1,1,13.4-1.3A9.51,9.51,0,0,1,1101,658Z" transform="translate(-35.4 -215.25)" style="fill:url(#radial-gradient-6)"/><path d="M1055.3,850.7l-114.7-20L931,829l-19.1-3.3.8-4.4,24.6-1.9,122.6-115.3L1040,688.8l2.7-3.5,24.1,11.9,3.9,1.8,16.8,8.9,8,3.6a19.84,19.84,0,0,1,14.5,22.6l-1.9,10.7S1155.6,831,1055.3,850.7Z" transform="translate(-35.4 -215.25)" style="fill:#88a84c"/><path d="M1062.5,854,947.8,834l-9.6-1.7L919.1,829l.8-4.4,24.6-1.9,122.6-115.3-19.9-15.3,2.7-3.5,24.1,11.9,3.9,1.8,16.8,8.9,8,3.6a19.84,19.84,0,0,1,14.5,22.6l-1.9,10.7S1162.8,834.3,1062.5,854Z" transform="translate(-35.4 -215.25)" style="fill:#a7cb64"/><path d="M1062.5,854,918.9,829.2l.8-4.4,24.6-1.9,27.2-25.6a72.68,72.68,0,0,0,5.2,8.6c10.9,15.4,30.8,29.1,49.8,31.5,19.8,2.5,41.2-.4,57.5-12.9,16.7-12.9,26.7-29.1,31.5-49.8a146.53,146.53,0,0,0,3.2-19.3C1127.5,776.6,1145,837.8,1062.5,854Z" transform="translate(-35.4 -215.25)" style="fill:#88a84c"/><path d="M282.2,463.6h-9.3a1.22,1.22,0,0,1-1.2-1.2V421.7a1.22,1.22,0,0,1,1.2-1.2h9.3a1.22,1.22,0,0,1,1.2,1.2v40.7A1.38,1.38,0,0,1,282.2,463.6Z" transform="translate(-35.4 -215.25)" style="fill:url(#linear-gradient-3)"/><path d="M283.9,513.4H271.3a1.58,1.58,0,0,1-1.6-1.6V456.6a1.58,1.58,0,0,1,1.6-1.6h12.5a1.58,1.58,0,0,1,1.6,1.6v55.2A1.56,1.56,0,0,1,283.9,513.4Z" transform="translate(-35.4 -215.25)" style="fill:#1a1b20"/><path d="M285.4,462.4H269.8a2.8,2.8,0,0,1-2.8-2.8h0a2.8,2.8,0,0,1,2.8-2.8h15.6a2.8,2.8,0,0,1,2.8,2.8h0A2.86,2.86,0,0,1,285.4,462.4Z" transform="translate(-35.4 -215.25)" style="fill:#1a1b20"/><path d="M262.8,476.2h-9a18.44,18.44,0,0,0-18.4,18.2l-.1,4.2H374.5l.7-8.8a104.31,104.31,0,0,0,0-13.7h-66l-.2.9h-3.1l-.2-.9h-15v2.7h-4.4v-2.7H267.1l-.2.9H263l-.2-.8Z" transform="translate(-35.4 -215.25)" style="fill:#070608"/><rect x="304.5" y="455.85" width="197.8" height="15.3" style="fill:#231f20"/><rect x="304.5" y="468.95" width="216.4" height="15.3" style="fill:#414042"/><path d="M116.6,836.8h48.9V853H116.6Zm65.1,0h48.6V853H181.7V836.8Zm64.8,0h48.6V853H246.5Zm64.7,0h48.6V853H311.2Zm64.8,0h48.6V853H376Zm64.8,0h48.6V853H440.8Zm64.8,0h48.6V853H505.6Zm64.8,0H619V853H570.4Zm64.8,0h48.6V853H635.2Zm64.7,0h28.5a65,65,0,0,0,17.6-2.4l4.4,15.6a81.11,81.11,0,0,1-22,3H699.9ZM53.7,823l12.6-10.3a66,66,0,0,0,36,22.4l-3.6,15.8A82.68,82.68,0,0,1,53.7,823Zm705.7,5.9a66.28,66.28,0,0,0,28.9-31.2l14.8,6.6a82.87,82.87,0,0,1-36,38.9Zm-724-57.5a85.11,85.11,0,0,1,1.6-16l15.9,3.2a61.1,61.1,0,0,0-1.3,12.8,64.33,64.33,0,0,0,6.9,29.2L44,807.9A78.44,78.44,0,0,1,35.4,771.4ZM792.6,784a67.46,67.46,0,0,0,1.2-12.7,64.84,64.84,0,0,0-7-29.3l14.5-7.3a79.43,79.43,0,0,1,8.8,36.7,83.84,83.84,0,0,1-1.6,15.8ZM42.4,738.3a82.16,82.16,0,0,1,36-38.8l7.7,14.3a66.55,66.55,0,0,0-28.9,31.1Zm700.5-30.7,3.6-15.8a82.32,82.32,0,0,1,45,27.9L779,730A66.6,66.6,0,0,0,742.9,707.6ZM95.1,692.8a79.67,79.67,0,0,1,21.8-3h28.7V706H116.9a64.27,64.27,0,0,0-17.5,2.4ZM161.7,706V689.8h48.6V706Zm64.8-16.2h48.6V706H226.5Zm64.8,0h48.6V706H291.3Zm64.8,0h48.6V706H356.1Zm64.8,0h48.6V706H420.9Zm64.8,0h48.6V706H485.7V689.8Zm64.8,0h48.6V706H550.5Zm64.8,0h48.6V706H615.3ZM679.9,706V689.8h48.6l-.1,16.2Z" transform="translate(-35.4 -215.25)" style="fill:#414042"/><path d="M43.4,804V738.9A41,41,0,0,1,84.3,698H761a41,41,0,0,1,40.9,40.9V804A41,41,0,0,1,761,844.9H84.4A41.1,41.1,0,0,1,43.4,804Z" transform="translate(-35.4 -215.25)" style="fill:#231f20"/><path d="M116.9,820.5a49.1,49.1,0,1,1,0-98.2H728.5a49.1,49.1,0,0,1,0,98.2Z" transform="translate(-35.4 -215.25)" style="fill:#414042"/><path d="M123.5,710.4a62.3,62.3,0,1,0,62.3,62.3A62.31,62.31,0,0,0,123.5,710.4Z" transform="translate(-35.4 -215.25)" style="fill:#3d3b3d"/><path d="M123.5,710.4a62.3,62.3,0,1,0,62.3,62.3A62.31,62.31,0,0,0,123.5,710.4Z" transform="translate(-35.4 -215.25)"/><path d="M123.6,719.3A53.4,53.4,0,1,0,177,772.7,53.39,53.39,0,0,0,123.6,719.3Z" transform="translate(-35.4 -215.25)" style="fill:url(#radial-gradient-7)"/><path d="M123.5,726.9a45.85,45.85,0,1,0,45.9,45.8A45.79,45.79,0,0,0,123.5,726.9Z" transform="translate(-35.4 -215.25)" style="fill:#231f20"/><path d="M123.5,726.9a45.85,45.85,0,1,0,45.9,45.8A45.79,45.79,0,0,0,123.5,726.9Z" transform="translate(-35.4 -215.25)" style="fill:#3b3a3a"/><path d="M123.5,740.3a32.4,32.4,0,1,0,32.4,32.4A32.39,32.39,0,0,0,123.5,740.3Z" transform="translate(-35.4 -215.25)" style="fill:#414042;stroke:#3d3b3d;stroke-miterlimit:10;stroke-width:0.34220001101493835px"/><path d="M123.5,750.6A22.5,22.5,0,1,0,146,773.1,22.53,22.53,0,0,0,123.5,750.6Z" transform="translate(-35.4 -215.25)" style="fill:#231f20"/><path d="M136.3,766.9l14.7-7.2a31.16,31.16,0,0,0-8.5-10.6l-10.1,12.8A12,12,0,0,1,136.3,766.9Z" transform="translate(-35.4 -215.25)" style="fill:#231f20"/><path d="M132.5,784.3a13.84,13.84,0,0,1-5.7,2.8l3.6,15.9a29.9,29.9,0,0,0,12.3-5.9Z" transform="translate(-35.4 -215.25)" style="fill:#231f20"/><path d="M114.6,761.8l-10.2-12.7a31.51,31.51,0,0,0-8.5,10.7l14.7,7.1A17.7,17.7,0,0,1,114.6,761.8Z" transform="translate(-35.4 -215.25)" style="fill:#231f20"/><path d="M136.5,779.3l14.7,7.1a30.77,30.77,0,0,0,3-13.3V773l-16.3.1h0A14.44,14.44,0,0,1,136.5,779.3Z" transform="translate(-35.4 -215.25)" style="fill:#231f20"/><path d="M92.8,773.2a32,32,0,0,0,3.1,13.3l14.7-7.1a14.44,14.44,0,0,1-1.4-6.2Z" transform="translate(-35.4 -215.25)" style="fill:#231f20"/><path d="M120.3,759.2a13.84,13.84,0,0,1,6.4,0l3.6-15.9a31.2,31.2,0,0,0-13.6,0Z" transform="translate(-35.4 -215.25)" style="fill:#231f20"/><path d="M114.7,784.3l-10.2,12.8a29.9,29.9,0,0,0,12.3,5.9l3.6-15.9A13.27,13.27,0,0,1,114.7,784.3Z" transform="translate(-35.4 -215.25)" style="fill:#231f20"/><path d="M200.7,773.1h0a35,35,0,0,0,34.8,34.8H688.4a49,49,0,1,0-.8-69.5H235.5A34.87,34.87,0,0,0,200.7,773.1Z" transform="translate(-35.4 -215.25)" style="fill:#aea7a7"/><path d="M176.4,655.2V574.5c0-73.1,35.5-78.8,78.8-78.8H384.8V655.2a8.13,8.13,0,0,1-8.1,8.1H184.5A8.07,8.07,0,0,1,176.4,655.2Z" transform="translate(-35.4 -215.25)" style="fill:#88a84c"/><path d="M199.9,655.2V574.5c0-73.1,35.5-78.8,78.8-78.8H408.3V655.2a8.13,8.13,0,0,1-8.1,8.1H208A8.13,8.13,0,0,1,199.9,655.2Z" transform="translate(-35.4 -215.25)" style="fill:#a7cb64"/><path d="M465,392.6v275H621c19.9,0,29.9-68.6,26.2-88.2-8.7-45.8-13.3-40.9-22-86.8-4.4-22.9-8.6-45.9-12.1-69-2.2-14.4-4.9-31-23.4-31H465Zm14.7,34.9A18.31,18.31,0,0,1,498,409.2h78.2c18.4,0,21.2,16.5,23.4,31,3.5,23.1,7.8,46.1,12.1,69,.4,1.9.7,3.9,1.1,5.8a18.38,18.38,0,0,1-18,21.8H498a18.31,18.31,0,0,1-18.3-18.3Z" transform="translate(-35.4 -215.25)" style="fill:#88a84c"/><path d="M479.7,427.5v91A18.31,18.31,0,0,0,498,536.8h96.8a18.33,18.33,0,0,0,18-21.8c-.4-1.9-.7-3.9-1.1-5.8-4.4-22.9-8.6-45.9-12.1-69-2.2-14.4-4.9-31-23.4-31H498A18.31,18.31,0,0,0,479.7,427.5Z" transform="translate(-35.4 -215.25)" style="fill:#403430;opacity:0.9300000071525574;isolation:isolate"/><path d="M376.7,667.8h93.2V392.7H408.1c-15.2,0-22.7,12.3-22.7,27.5L345.5,630.1A31.81,31.81,0,0,0,376.7,667.8Z" transform="translate(-35.4 -215.25)" style="fill:#88a84c"/><path d="M461.2,516V428.7a19.46,19.46,0,0,0-19.5-19.5H421.5c-14.6,0-22.1,11.5-22.6,25.9a18.16,18.16,0,0,1-.3,3.2l-14.1,74.1a19.55,19.55,0,0,0,19.2,23.2h38A19.42,19.42,0,0,0,461.2,516Z" transform="translate(-35.4 -215.25)" style="fill:#403430"/><path d="M175.6,656.2c1.6,10.7,8.9,18.8,17.6,18.8h426c8.7,0,15.9-8.1,17.6-18.8Z" transform="translate(-35.4 -215.25)" style="fill:#a7cb64"/><path d="M490.4,558.7a.81.81,0,0,1,.7-.9h6.5a.81.81,0,0,1,.7.9v7.9a.81.81,0,0,1-.7.9h-6.5a.81.81,0,0,1-.7-.9Z" transform="translate(-35.4 -215.25)" style="fill:#ed1c24"/><path d="M490.1,566.6v-7.9a1.13,1.13,0,0,1,1-1.2h6.5c.6,0,1,.5,1,1.2v7.9a1.13,1.13,0,0,1-1,1.2h-6.5C490.5,567.8,490.1,567.3,490.1,566.6Zm1-8.4a.47.47,0,0,0-.5.5v7.9a.54.54,0,0,0,.5.5h6.5a.47.47,0,0,0,.5-.5v-7.9a.54.54,0,0,0-.5-.5Z" transform="translate(-35.4 -215.25)" style="fill:#231f20"/><path d="M480.5,558.7a.81.81,0,0,1,.7-.9h6.5a.81.81,0,0,1,.7.9v7.9a.81.81,0,0,1-.7.9h-6.5a.81.81,0,0,1-.7-.9Z" transform="translate(-35.4 -215.25)" style="fill:#aba9a7"/><path d="M480.2,566.6v-7.9a1.13,1.13,0,0,1,1-1.2h6.5c.6,0,1,.5,1,1.2v7.9a1.13,1.13,0,0,1-1,1.2h-6.5C480.6,567.8,480.2,567.3,480.2,566.6Zm1-8.4a.47.47,0,0,0-.5.5v7.9a.54.54,0,0,0,.5.5h6.5a.47.47,0,0,0,.5-.5v-7.9a.54.54,0,0,0-.5-.5Z" transform="translate(-35.4 -215.25)" style="fill:#231f20"/><path d="M280.7,518.1c3.8,1.1,6.9,3.4,8.3,6.3l6.7,14.1h8.4l-6.7-14.1c-1.4-2.9-4.5-5.2-8.3-6.3a19.93,19.93,0,0,1,5.6-.8h-8.4A19.93,19.93,0,0,0,280.7,518.1Z" transform="translate(-35.4 -215.25)" style="fill:#88a84c"/><path d="M309.5,524.4l6.7,14.1h8.4l-6.7-14.1c-2-4.3-7.6-7.1-13.8-7.1h-8.4C301.9,517.3,307.5,520.1,309.5,524.4Z" transform="translate(-35.4 -215.25)" style="fill:#88a84c"/><path d="M326.6,524.4l6.7,14.1h8.4L335,524.4c-2-4.3-7.6-7.1-13.8-7.1h-8.4C319.1,517.3,324.6,520.1,326.6,524.4Z" transform="translate(-35.4 -215.25)" style="fill:#88a84c"/><path d="M220.3,518.1c3.8,1.1,6.9,3.4,8.3,6.3l6.7,14.1h8.4L237,524.4c-1.4-2.9-4.5-5.2-8.3-6.3a19.93,19.93,0,0,1,5.6-.8h-8.4A19.93,19.93,0,0,0,220.3,518.1Z" transform="translate(-35.4 -215.25)" style="fill:#88a84c"/><path d="M249.1,524.4l6.7,14.1h8.4l-6.7-14.1c-2-4.3-7.6-7.1-13.8-7.1h-8.4C241.5,517.3,247.1,520.1,249.1,524.4Z" transform="translate(-35.4 -215.25)" style="fill:#88a84c"/><path d="M266.2,524.4l6.7,14.1h8.4l-6.7-14.1c-2-4.3-7.6-7.1-13.8-7.1h-8.4C258.7,517.3,264.2,520.1,266.2,524.4Z" transform="translate(-35.4 -215.25)" style="fill:#88a84c"/><path d="M462.3,609V584.4a2.86,2.86,0,0,1,2.8-2.8h18.7a2.86,2.86,0,0,1,2.8,2.8V609a2.86,2.86,0,0,1-2.8,2.8H465.1A2.86,2.86,0,0,1,462.3,609Z" transform="translate(-35.4 -215.25)" style="fill:#fff"/><path d="M461.9,609.1V584.2a4,4,0,0,1,4-4H475a4,4,0,0,1,4,4v24.9a4,4,0,0,1-4,4h-9.1A4,4,0,0,1,461.9,609.1Z" transform="translate(-35.4 -215.25)" style="fill:#805d19;stroke:#ffb932;stroke-miterlimit:10;stroke-width:0.1907999962568283px"/><path d="M460.1,610.4V582.7a2.48,2.48,0,0,1,2.5-2.5h11.9a2.58,2.58,0,0,1,2.6,2.6v27.7a2.58,2.58,0,0,1-2.6,2.6H462.6A2.47,2.47,0,0,1,460.1,610.4Z" transform="translate(-35.4 -215.25)" style="fill:#fff"/></svg>