<svg id="Layer_1" data-name="Layer 1" xmlns="http://www.w3.org/2000/svg" xmlns:xlink="http://www.w3.org/1999/xlink" viewBox="0 0 1130.9 565.5"><defs><linearGradient id="linear-gradient" x1="2146.04" y1="-98.43" x2="2146.04" y2="-116.24" gradientTransform="matrix(1.1, 0.29, -0.25, 0.95, -2227.95, 187.83)" gradientUnits="userSpaceOnUse"><stop offset="0" stop-color="#fff"/><stop offset="1"/></linearGradient><linearGradient id="linear-gradient-2" x1="407.63" y1="-3173.37" x2="407.63" y2="-3197.93" gradientTransform="translate(-2438.7 -19.58) rotate(90)" xlink:href="#linear-gradient"/><radialGradient id="radial-gradient" cx="-264.13" cy="-3423.95" r="3.27" gradientTransform="matrix(-0.77, 0.63, -0.63, -0.77, -1546.8, -1926.95)" xlink:href="#linear-gradient"/><radialGradient id="radial-gradient-2" cx="-281.01" cy="-3429.35" r="3.27" gradientTransform="matrix(-0.77, 0.63, -0.63, -0.77, -1546.8, -1926.95)" xlink:href="#linear-gradient"/><radialGradient id="radial-gradient-3" cx="-266.75" cy="-3441.58" r="3.27" gradientTransform="matrix(-0.77, 0.63, -0.63, -0.77, -1546.8, -1926.95)" xlink:href="#linear-gradient"/><radialGradient id="radial-gradient-4" cx="-114.23" cy="-3279.95" r="3.26" gradientTransform="matrix(-0.77, 0.63, -0.63, -0.77, -1546.8, -1926.95)" xlink:href="#linear-gradient"/><radialGradient id="radial-gradient-5" cx="-92.21" cy="-3306.79" r="3.27" gradientTransform="matrix(-0.77, 0.63, -0.63, -0.77, -1546.8, -1926.95)" xlink:href="#linear-gradient"/><radialGradient id="radial-gradient-6" cx="-70.18" cy="-3333.62" r="3.27" gradientTransform="matrix(-0.77, 0.63, -0.63, -0.77, -1546.8, -1926.95)" xlink:href="#linear-gradient"/><radialGradient id="radial-gradient-7" cx="-241.26" cy="-3384.21" r="3.27" gradientTransform="matrix(-0.77, 0.63, -0.63, -0.77, -1546.8, -1926.95)" xlink:href="#linear-gradient"/><radialGradient id="radial-gradient-8" cx="-219.24" cy="-3411.05" r="3.26" gradientTransform="matrix(-0.77, 0.63, -0.63, -0.77, -1546.8, -1926.95)" xlink:href="#linear-gradient"/><radialGradient id="radial-gradient-9" cx="-197.21" cy="-3437.88" r="3.27" gradientTransform="matrix(-0.77, 0.63, -0.63, -0.77, -1546.8, -1926.95)" xlink:href="#linear-gradient"/><radialGradient id="radial-gradient-10" cx="-290.94" cy="360.33" r="3.27" gradientTransform="matrix(-0.63, -0.77, 0.77, -0.63, 297.22, 525.34)" xlink:href="#linear-gradient"/><radialGradient id="radial-gradient-11" cx="-268.91" cy="333.5" r="3.26" gradientTransform="matrix(-0.63, -0.77, 0.77, -0.63, 297.22, 525.34)" xlink:href="#linear-gradient"/><radialGradient id="radial-gradient-12" cx="-246.89" cy="306.66" r="3.27" gradientTransform="matrix(-0.63, -0.77, 0.77, -0.63, 297.22, 525.34)" xlink:href="#linear-gradient"/><radialGradient id="radial-gradient-13" cx="-137.37" cy="-3050.91" r="3.27" gradientTransform="matrix(-0.77, 0.63, -0.63, -0.77, -1546.8, -1926.95)" xlink:href="#linear-gradient"/><radialGradient id="radial-gradient-14" cx="-124.39" cy="-3066.73" r="3.27" gradientTransform="matrix(-0.77, 0.63, -0.63, -0.77, -1546.8, -1926.95)" xlink:href="#linear-gradient"/><radialGradient id="radial-gradient-15" cx="-111.4" cy="-3082.55" r="3.27" gradientTransform="matrix(-0.77, 0.63, -0.63, -0.77, -1546.8, -1926.95)" xlink:href="#linear-gradient"/><linearGradient id="linear-gradient-3" x1="-1350.89" y1="-1573.86" x2="-1350.89" y2="-1595.58" gradientTransform="translate(-564.03 -983.95) rotate(-176.57)" xlink:href="#linear-gradient"/><radialGradient id="radial-gradient-16" cx="467.43" cy="1036.6" r="70.25" gradientTransform="matrix(-1, 0, 0, 1, 812.33, -249.8)" gradientUnits="userSpaceOnUse"><stop offset="0" stop-color="#231f20"/><stop offset="0.41" stop-color="#252122"/><stop offset="0.56" stop-color="#2b2729"/><stop offset="0.67" stop-color="#353334"/><stop offset="0.74" stop-color="#414042"/><stop offset="0.77" stop-color="#4d4d4f"/><stop offset="0.8" stop-color="#555658"/><stop offset="0.85" stop-color="#58595b"/><stop offset="0.92" stop-color="#414042"/></radialGradient><radialGradient id="radial-gradient-17" cx="56.18" cy="404.05" r="36.55" gradientTransform="matrix(1, 0, 0, -1, -34.4, 952.2)" xlink:href="#radial-gradient-16"/><radialGradient id="radial-gradient-18" cx="2960.5" cy="932.58" r="11.04" gradientTransform="translate(-2251.87 -567.05)" xlink:href="#linear-gradient"/><radialGradient id="radial-gradient-19" cx="-84.15" cy="-3407.76" r="3.27" gradientTransform="matrix(-0.77, 0.63, -0.63, -0.77, -1546.8, -1926.95)" xlink:href="#linear-gradient"/><radialGradient id="radial-gradient-20" cx="-139.27" cy="-3453" r="3.27" gradientTransform="matrix(-0.77, 0.63, -0.63, -0.77, -1546.8, -1926.95)" xlink:href="#linear-gradient"/></defs><title>Bulldozer</title><polygon points="598.3 38.7 569.4 47.2 555 47.2 547.1 44.9 547.1 38.7 598.3 38.7" style="fill:#101111"/><rect x="357" y="14.2" width="8.2" height="1.8" style="fill:#faaa28"/><rect x="357" y="16" width="8.2" height="4.2" style="fill:#faaa28"/><rect x="365.2" y="16" width="87.1" height="4.2" style="fill:#faaa28"/><path d="M154.15,710.85a6.66,6.66,0,0,1-.9-5.3l5.3-23.5h-34.9l-15.6,12.7a7.19,7.19,0,0,0-2.6,6.1l5.3,55.5a7,7,0,0,0,3.9,5.6l63.5,31.2a7,7,0,0,0,9.37-3.2,7.92,7.92,0,0,0,.33-.8l4.7-13.9a7.05,7.05,0,0,0-.7-6Z" transform="translate(-34.55 -317.25)" style="fill:#88a84c"/><path d="M204.75,728.35l-94.5-25a1.88,1.88,0,0,1-1.3-2.2l2.6-9.7a1.88,1.88,0,0,1,2.2-1.3l94.5,25a1.88,1.88,0,0,1,1.3,2.2l-2.6,9.7a1.71,1.71,0,0,1-2,1.35Z" transform="translate(-34.55 -317.25)" style="fill:url(#linear-gradient)"/><path d="M317.05,760.65l-128.2-33.9a2.52,2.52,0,0,1-1.8-3l3.5-13.1a2.52,2.52,0,0,1,3-1.8l128.2,33.9a2.52,2.52,0,0,1,1.8,3l-3.5,13.1A2.51,2.51,0,0,1,317.05,760.65Z" transform="translate(-34.55 -317.25)" style="fill:#1a1b20"/><path d="M200.15,733.05l-8.1-2.1a2.38,2.38,0,0,1-1.73-2.89l0-.11,5.2-19.5a2.38,2.38,0,0,1,2.89-1.73l.11,0,8.1,2.1a2.38,2.38,0,0,1,1.73,2.89l0,.11-5.2,19.5a2.38,2.38,0,0,1-2.89,1.73Z" transform="translate(-34.55 -317.25)" style="fill:#1a1b20"/><path d="M363.85,731.25h0a13.78,13.78,0,0,1-16.2,10.7l-240.5-49a13.78,13.78,0,0,1-10.7-16.2h0a13.78,13.78,0,0,1,16.2-10.7l240.5,49A13.78,13.78,0,0,1,363.85,731.25Z" transform="translate(-34.55 -317.25)" style="fill:#a7cb64"/><path d="M121.75,660,79,694.65a7.19,7.19,0,0,0-2.6,6.1l5.3,55.5a7,7,0,0,0,3.9,5.6l63.5,31.2a7,7,0,0,0,9.37-3.2,7.92,7.92,0,0,0,.33-.8l4.7-13.9a7.05,7.05,0,0,0-.7-6l-37.6-58.3a6.66,6.66,0,0,1-.9-5.3l8.7-38.5a6.93,6.93,0,0,0-5.18-8.32,7.31,7.31,0,0,0-1.62-.18h0A6.28,6.28,0,0,0,121.75,660Z" transform="translate(-34.55 -317.25)" style="fill:#a7cb64"/><path d="M114.85,670.05a11.39,11.39,0,1,1-9.5,13h0A11.4,11.4,0,0,1,114.85,670.05Z" transform="translate(-34.55 -317.25)" style="fill:#88a84c"/><path d="M81.25,759h-7.9c-5.5,37.2.1,79,28.2,121.5l2-2.7C78.65,836,74.85,795.25,81.25,759Z" transform="translate(-34.55 -317.25)" style="fill:#88a84c"/><polygon points="31.2 531.8 9.1 498.8 9.1 504.1 24.2 526.6 65.4 565.5 66 564.7 31.2 531.8" style="fill:#88a84c"/><path d="M73.45,759H43.65v57.1l22.1,33,34.8,32.9,1.1-1.5C73.55,838,68,796.25,73.45,759Z" transform="translate(-34.55 -317.25)" style="fill:#88a84c"/><path d="M73.45,759H43.65v57.1l22.1,33,34.8,32.9,1.1-1.5C73.55,838,68,796.25,73.45,759Z" transform="translate(-34.55 -317.25)" style="fill:#88a84c"/><path d="M135.25,759h-7c-4.9,32.2.1,68.4,25.2,105.2l1.8-2.3C133,825.65,129.55,790.35,135.25,759Z" transform="translate(-34.55 -317.25)" style="fill:#88a84c"/><polygon points="86.8 519.7 67.1 491.1 67.1 495.7 80.6 515.2 117.4 548.9 117.9 548.2 86.8 519.7" style="fill:#88a84c"/><path d="M128.25,759h-26.6v49.4l19.7,28.6,31.1,28.5,1-1.3C128.35,827.35,123.35,791.25,128.25,759Z" transform="translate(-34.55 -317.25)" style="fill:#88a84c"/><path d="M128.25,759h-26.6v49.4l19.7,28.6,31.1,28.5,1-1.3C128.35,827.35,123.35,791.25,128.25,759Z" transform="translate(-34.55 -317.25)" style="fill:#88a84c"/><path d="M189.15,756.05h-7c-4.9,32.2.1,68.4,25.2,105.2l1.8-2.3C186.85,822.75,183.45,787.45,189.15,756.05Z" transform="translate(-34.55 -317.25)" style="fill:#88a84c"/><polygon points="140.7 516.8 121 488.3 121 492.8 134.5 512.3 171.3 546 171.8 545.3 140.7 516.8" style="fill:#88a84c"/><path d="M182.15,756.05h-26.6v49.4l19.7,28.6,31.1,28.5,1-1.3C182.25,824.45,177.25,788.35,182.15,756.05Z" transform="translate(-34.55 -317.25)" style="fill:#88a84c"/><path d="M182.15,756.05h-26.6v49.4l19.7,28.6,31.1,28.5,1-1.3C182.25,824.45,177.25,788.35,182.15,756.05Z" transform="translate(-34.55 -317.25)" style="fill:#88a84c"/><path d="M345.85,768.25h0A15.64,15.64,0,0,1,330.27,784h0l-280,.9a15.64,15.64,0,0,1-15.7-15.58v0h0a15.64,15.64,0,0,1,15.58-15.7h0l280-.9A15.71,15.71,0,0,1,345.85,768.25Z" transform="translate(-34.55 -317.25)" style="fill:#a7cb64"/><path d="M53.55,757.55A13,13,0,1,1,46,774.3l0,0A13,13,0,0,1,53.55,757.55Z" transform="translate(-34.55 -317.25)" style="fill:#a7cb64"/><path d="M742,421.85v-67.6a1.79,1.79,0,0,1,1.78-1.8h15.62a1.79,1.79,0,0,1,1.8,1.78v67.62a1.79,1.79,0,0,1-1.78,1.8H743.75a1.79,1.79,0,0,1-1.8-1.78Z" transform="translate(-34.55 -317.25)" style="fill:url(#linear-gradient-2)"/><path d="M738.55,503.65V412a2.43,2.43,0,0,1,2.4-2.4h21.1a2.43,2.43,0,0,1,2.4,2.4v91.7a2.43,2.43,0,0,1-2.4,2.4H741A2.43,2.43,0,0,1,738.55,503.65Z" transform="translate(-34.55 -317.25)" style="fill:#1a1b20"/><path d="M734,417.15h0a4.69,4.69,0,0,1,4.68-4.7h25.92a4.69,4.69,0,0,1,4.7,4.68v0h0a4.69,4.69,0,0,1-4.68,4.7H738.65A4.83,4.83,0,0,1,734,417.15Z" transform="translate(-34.55 -317.25)" style="fill:#1a1b20"/><path d="M272.55,356.35l28.9,10.3,23.8,1.3-1.5-4.1v-3.1c0-2.4,5.6-4.4-6.2-4.4Z" transform="translate(-34.55 -317.25)" style="fill:#101111"/><path d="M755.85,504.05,634,485l1.8-11.3a11.83,11.83,0,0,1,13.5-9.8l98.6,15.4a11.83,11.83,0,0,1,9.8,13.5ZM637,482.75,753.55,501l1.4-8.7a9.07,9.07,0,0,0-7.52-10.39h-.08l-98.6-15.4A9.07,9.07,0,0,0,638.36,474v.08Z" transform="translate(-34.55 -317.25)" style="fill:#88a84c"/><polygon points="760.6 188.1 824.5 210 824.5 380.8 760.6 380.8 760.6 188.1" style="fill:#a7cb64"/><path d="M831.65,556.25a3.27,3.27,0,1,1,4.6.5A3.31,3.31,0,0,1,831.65,556.25Z" transform="translate(-34.55 -317.25)" style="fill:url(#radial-gradient)"/><path d="M848.15,549.75a3.27,3.27,0,1,1,4.6.5A3.31,3.31,0,0,1,848.15,549.75Z" transform="translate(-34.55 -317.25)" style="fill:url(#radial-gradient-2)"/><path d="M844.85,568.25a3.27,3.27,0,1,1,4.6.5A3.31,3.31,0,0,1,844.85,568.25Z" transform="translate(-34.55 -317.25)" style="fill:url(#radial-gradient-3)"/><path d="M825.55,583.55c-.4.2-1.4-.8-2.3-2.2l-14.9-23.7c-.9-1.4-1.3-2.8-1-3l6-3.8c.4-.2,1.4.8,2.3,2.2l14.9,23.7c.9,1.4,1.3,2.8,1,3Z" transform="translate(-34.55 -317.25)" style="fill:#ed1c24"/><path d="M823,581.55l-14.9-23.7c-1.2-2-1.9-3.9-1.3-4.2l6-3.8c.5-.3,1.9,1,3.2,3l14.9,23.7c1.2,2,1.9,3.9,1.3,4.2l-6,3.8C825.65,584.85,824.25,583.55,823,581.55Zm-7.5-28.4c-.6-.9-1.2-1.5-1.4-1.4l-6,3.8c-.2.1,0,1,.6,1.9l14.9,23.7c.6.9,1.2,1.5,1.4,1.4l6-3.8c.2-.1,0-1-.6-1.9Z" transform="translate(-34.55 -317.25)" style="fill:#231f20"/><path d="M848.15,619.55c-.4.2-1.4-.8-2.3-2.2L831,593.65c-.9-1.4-1.3-2.8-1-3l6-3.8c.4-.2,1.4.8,2.3,2.2l14.9,23.7c.9,1.4,1.3,2.8,1,3Z" transform="translate(-34.55 -317.25)" style="fill:#aba9a7"/><path d="M845.65,617.55l-14.9-23.7c-1.2-2-1.9-3.9-1.3-4.2l6-3.8c.5-.3,1.9,1,3.2,3l14.9,23.7c1.2,2,1.9,3.9,1.3,4.2l-6,3.8C848.25,620.85,846.85,619.55,845.65,617.55Zm-7.6-28.4c-.6-.9-1.2-1.5-1.4-1.4l-6,3.8c-.2.1,0,1,.6,1.9l14.9,23.7c.6.9,1.2,1.5,1.4,1.4l6-3.8c.2-.1,0-1-.6-1.9Z" transform="translate(-34.55 -317.25)" style="fill:#231f20"/><path d="M235,641.35" transform="translate(-34.55 -317.25)" style="fill:#ffb932;stroke:#a97c50;stroke-miterlimit:10;stroke-width:0.19370000064373016px"/><path d="M623.65,700.25H279.05a12.25,12.25,0,0,1-12.2-12.2v-56.5h356.8Z" transform="translate(-34.55 -317.25)" style="fill:#88a84c"/><polygon points="824.2 211.4 831.4 217.3 842.8 253.7 824.2 253.7 824.2 211.4" style="fill:#373735"/><polygon points="824.2 252.2 842.8 252.2 859.7 320.1 859.7 388.5 878.4 388.5 878.4 412.8 825.3 412.8 824.2 252.2" style="fill:#373736"/><path d="M618.85,478.75l44.5,1.8a8.65,8.65,0,0,1,1.6.2l130.2,24.6v194.9H615.85Z" transform="translate(-34.55 -317.25)" style="fill:#a7cb64"/><path d="M795.15,518.15v-12.8l-130.1-24.5a8.65,8.65,0,0,0-1.6-.2l-44.5-1.8-.5,39.3Z" transform="translate(-34.55 -317.25)" style="fill:#a7cb64"/><path d="M624.45,540.05a3.27,3.27,0,1,1,4.6.5A3.31,3.31,0,0,1,624.45,540.05Z" transform="translate(-34.55 -317.25)" style="fill:url(#radial-gradient-4)"/><path d="M624.45,574.75a3.27,3.27,0,1,1,4.6.5A3.31,3.31,0,0,1,624.45,574.75Z" transform="translate(-34.55 -317.25)" style="fill:url(#radial-gradient-5)"/><path d="M624.45,609.55a3.27,3.27,0,1,1,4.6.5A3.31,3.31,0,0,1,624.45,609.55Z" transform="translate(-34.55 -317.25)" style="fill:url(#radial-gradient-6)"/><path d="M788.75,540.05a3.27,3.27,0,1,1,4.6.5A3.31,3.31,0,0,1,788.75,540.05Z" transform="translate(-34.55 -317.25)" style="fill:url(#radial-gradient-7)"/><path d="M788.75,574.75a3.27,3.27,0,1,1,4.6.5A3.31,3.31,0,0,1,788.75,574.75Z" transform="translate(-34.55 -317.25)" style="fill:url(#radial-gradient-8)"/><path d="M788.75,609.55a3.27,3.27,0,1,1,4.6.5A3.31,3.31,0,0,1,788.75,609.55Z" transform="translate(-34.55 -317.25)" style="fill:url(#radial-gradient-9)"/><path d="M754.05,522.85a3.27,3.27,0,1,1-.5,4.6A3.31,3.31,0,0,1,754.05,522.85Z" transform="translate(-34.55 -317.25)" style="fill:url(#radial-gradient-10)"/><path d="M719.25,522.85a3.27,3.27,0,1,1-.5,4.6A3.31,3.31,0,0,1,719.25,522.85Z" transform="translate(-34.55 -317.25)" style="fill:url(#radial-gradient-11)"/><path d="M684.55,522.85a3.27,3.27,0,1,1-.5,4.6A3.31,3.31,0,0,1,684.55,522.85Z" transform="translate(-34.55 -317.25)" style="fill:url(#radial-gradient-12)"/><path d="M679.45,698.05V657a7.34,7.34,0,0,0-7.3-7.3h-19a8.71,8.71,0,0,1-8.68-8.74,8.92,8.92,0,0,1,.08-1.16l14.9-98.9a14.13,14.13,0,0,1,14.1-12.1h110.3v114.4a7.6,7.6,0,0,1-7.6,7.6h-5a8.45,8.45,0,0,0-8.4,8.4v39" transform="translate(-34.55 -317.25)" style="fill:#a7cb64"/><rect x="258.7" y="318.9" width="193.6" height="4.2" style="fill:#414042;stroke:#231f20;stroke-miterlimit:10;stroke-width:0.24289999902248383px"/><polygon points="258.7 219.6 258.7 222.3 452.3 222.3 452.3 214.8 259.8 214.8 258.7 219.6" style="fill:#414042;stroke:#231f20;stroke-miterlimit:10;stroke-width:0.24289999902248383px"/><polygon points="365.2 20.3 357 20.3 357 157.9 272.8 157.9 271.1 165.4 452.3 165.4 452.3 157.9 365.2 157.9 365.2 20.3" style="fill:#414042;stroke:#231f20;stroke-miterlimit:10;stroke-width:0.24289999902248383px"/><rect x="258.7" y="222.3" width="193.6" height="96.6" style="fill:#313032"/><polygon points="259.8 214.8 452.3 214.8 452.3 165.4 271.1 165.4 259.8 214.8" style="fill:#403430"/><polygon points="272.8 157.9 357 157.9 357 20.3 304.1 20.3 272.8 157.9" style="fill:#403430"/><rect x="365.2" y="20.3" width="87.1" height="137.6" style="fill:#403430"/><rect x="452.3" y="214.8" width="6" height="7.5" style="fill:#a7cb64"/><rect x="452.3" y="157.9" width="6" height="7.5" style="fill:#a7cb64"/><polygon points="258.7 219.6 258.7 215.4 258.9 214.8 253.6 214.8 256.3 203.1 252.7 218.9 252.7 222.3 258.7 222.3 258.7 219.6" style="fill:#faaa28"/><polygon points="271.8 157.9 266.6 157.9 299.3 14.2 264.9 165.4 270.1 165.4 271.8 157.9" style="fill:#a7cb64"/><polygon points="452.3 318.9 452.3 323.1 258.7 323.1 258.7 318.9 258.7 222.3 252.7 222.3 252.7 329.1 458.4 329.1 458.4 222.3 452.3 222.3 452.3 318.9" style="fill:#403430"/><path d="M299.45,482.65l-8.6,37.7Z" transform="translate(-34.55 -317.25)" style="fill:#faaa28"/><polygon points="258.9 214.8 270.1 165.4 264.9 165.4 256.3 203.1 253.6 214.8 258.9 214.8" style="fill:#a7cb64"/><rect x="452.3" y="165.4" width="6" height="49.4" style="fill:#a7cb64"/><polygon points="271.8 157.9 304.1 16 357 16 357 14.2 299.3 14.2 266.6 157.9 271.8 157.9" style="fill:#a7cb64"/><polygon points="365.2 16 452.3 16 452.3 20.3 452.3 157.9 458.4 157.9 458.4 14.2 365.2 14.2 365.2 16" style="fill:#a7cb64"/><polygon points="272.8 157.9 271.8 157.9 270.1 165.4 271.1 165.4 272.8 157.9" style="fill:#a7cb64"/><polygon points="258.9 214.8 258.7 215.4 258.7 219.6 259.8 214.8 258.9 214.8" style="fill:#faaa28"/><polygon points="271.1 165.4 270.1 165.4 258.9 214.8 259.8 214.8 271.1 165.4" style="fill:#a7cb64"/><polygon points="304.1 20.3 357 20.3 357 16 304.1 16 271.8 157.9 272.8 157.9 304.1 20.3" style="fill:#a7cb64"/><path d="M623.65,478.15l-38-141.2c-.1-.2-.2-.3-.4-.3L499,325.55v-.1H329.15l-1.1,4.7-46.6,204.7-.2.7v116.9h217.6v-11.7h124.7V478.15Zm-130.7-3v171.2H287.25V536.15l3.6-15.8,8.6-37.7,34.4-151.2h159v143.7Z" transform="translate(-34.55 -317.25)" style="fill:#88a84c"/><path d="M505.85,635.25l-.2-301.3,53.3,6.2a32.51,32.51,0,0,1,27.6,23.8l30.2,112.5a23.77,23.77,0,0,1,.9,6.5v139.9a12.5,12.5,0,0,1-12.5,12.5h-99.3Z" transform="translate(-34.55 -317.25)" style="fill:#403430"/><path d="M238.25,626.65l18.4-81.5,26.1-31.9,172.6,27.5a12.31,12.31,0,0,1,10.4,12.4l-1.4,94.9L250,641.85a12.47,12.47,0,0,1-12-13A12.16,12.16,0,0,1,238.25,626.65Z" transform="translate(-34.55 -317.25)" style="fill:#88a84c"/><path d="M252.85,617l14.4-63.9a10.17,10.17,0,0,1,2.2-4.4l14.4-17.6a10.7,10.7,0,0,1,10-3.8l150.7,24a10.7,10.7,0,0,1,9.1,10.8l-.9,62.6a10.78,10.78,0,0,1-10.95,10.6h-.15l-178.6-5.2a10.74,10.74,0,0,1-10.2-13.1Z" transform="translate(-34.55 -317.25)" style="fill:#a7cb64"/><path d="M328.25,559.05h15.6a.79.79,0,0,0,.8-.78v-1.82a.79.79,0,0,0-.78-.8H328.25a.79.79,0,0,0-.8.78v1.92A.85.85,0,0,0,328.25,559.05Z" transform="translate(-34.55 -317.25)" style="fill:#88a84c"/><path d="M328.25,566h15.6a.79.79,0,0,0,.8-.78v-1.92a.79.79,0,0,0-.78-.8H328.25a.79.79,0,0,0-.8.78v1.92C327.55,565.55,327.85,566,328.25,566Z" transform="translate(-34.55 -317.25)" style="fill:#88a84c"/><path d="M328.25,572.85h15.6a.79.79,0,0,0,.8-.78v-1.92a.79.79,0,0,0-.78-.8H328.25a.79.79,0,0,0-.8.78v1.92C327.55,572.45,327.85,572.85,328.25,572.85Z" transform="translate(-34.55 -317.25)" style="fill:#88a84c"/><path d="M328.25,579.65h15.6a.79.79,0,0,0,.8-.78V577a.79.79,0,0,0-.78-.8H328.25a.79.79,0,0,0-.8.78v1.92C327.55,579.35,327.85,579.65,328.25,579.65Z" transform="translate(-34.55 -317.25)" style="fill:#88a84c"/><path d="M328.25,586.55h15.6a.79.79,0,0,0,.8-.78v-1.92a.79.79,0,0,0-.78-.8H328.25a.79.79,0,0,0-.8.78v1.92C327.55,586.25,327.85,586.55,328.25,586.55Z" transform="translate(-34.55 -317.25)" style="fill:#88a84c"/><path d="M328.25,593.45h15.6a.79.79,0,0,0,.8-.78v-1.92a.79.79,0,0,0-.78-.8H328.25a.79.79,0,0,0-.8.78v1.92C327.55,593.05,327.85,593.45,328.25,593.45Z" transform="translate(-34.55 -317.25)" style="fill:#88a84c"/><path d="M328.25,600.35h15.6a.79.79,0,0,0,.8-.78v-1.92a.79.79,0,0,0-.78-.8H328.25a.79.79,0,0,0-.8.78v1.92C327.55,600,327.85,600.35,328.25,600.35Z" transform="translate(-34.55 -317.25)" style="fill:#88a84c"/><path d="M305.35,559.05H321a.79.79,0,0,0,.8-.78v-1.82a.79.79,0,0,0-.78-.8H305.35a.79.79,0,0,0-.8.78v1.92a.71.71,0,0,0,.71.71Z" transform="translate(-34.55 -317.25)" style="fill:#88a84c"/><path d="M305.35,566H321a.79.79,0,0,0,.8-.78v-1.92a.79.79,0,0,0-.78-.8H305.35a.79.79,0,0,0-.8.78v1.92a.79.79,0,0,0,.78.8Z" transform="translate(-34.55 -317.25)" style="fill:#88a84c"/><path d="M305.35,572.85H321a.79.79,0,0,0,.8-.78v-1.92a.79.79,0,0,0-.78-.8H305.35a.79.79,0,0,0-.8.78v1.92a.79.79,0,0,0,.78.8Z" transform="translate(-34.55 -317.25)" style="fill:#88a84c"/><path d="M305.35,579.65H321a.79.79,0,0,0,.8-.78V577a.79.79,0,0,0-.78-.8H305.35a.79.79,0,0,0-.8.78v1.92a.74.74,0,0,0,.67.8Z" transform="translate(-34.55 -317.25)" style="fill:#88a84c"/><path d="M305.35,586.55H321a.79.79,0,0,0,.8-.78v-1.92a.79.79,0,0,0-.78-.8H305.35a.79.79,0,0,0-.8.78v1.92a.74.74,0,0,0,.67.8Z" transform="translate(-34.55 -317.25)" style="fill:#88a84c"/><path d="M305.35,593.45H321a.79.79,0,0,0,.8-.78v-1.92a.79.79,0,0,0-.78-.8H305.35a.79.79,0,0,0-.8.78v1.92a.79.79,0,0,0,.78.8Z" transform="translate(-34.55 -317.25)" style="fill:#88a84c"/><path d="M305.35,600.35H321a.79.79,0,0,0,.8-.78v-1.92a.79.79,0,0,0-.78-.8H305.35a.79.79,0,0,0-.8.78v1.92a.79.79,0,0,0,.78.8Z" transform="translate(-34.55 -317.25)" style="fill:#88a84c"/><path d="M282.35,559.05H298a.79.79,0,0,0,.8-.78v-1.82a.79.79,0,0,0-.78-.8H282.35a.79.79,0,0,0-.8.78v1.92A.77.77,0,0,0,282.35,559.05Z" transform="translate(-34.55 -317.25)" style="fill:#88a84c"/><path d="M282.35,566H298a.79.79,0,0,0,.8-.78v-1.92a.79.79,0,0,0-.78-.8H282.35a.79.79,0,0,0-.8.78v1.92A.86.86,0,0,0,282.35,566Z" transform="translate(-34.55 -317.25)" style="fill:#88a84c"/><path d="M282.35,572.85H298a.79.79,0,0,0,.8-.78v-1.92a.79.79,0,0,0-.78-.8H282.35a.79.79,0,0,0-.8.78v1.92A.86.86,0,0,0,282.35,572.85Z" transform="translate(-34.55 -317.25)" style="fill:#88a84c"/><path d="M282.35,579.65H298a.79.79,0,0,0,.8-.78V577a.79.79,0,0,0-.78-.8H282.35a.79.79,0,0,0-.8.78v1.92a.79.79,0,0,0,.78.8Z" transform="translate(-34.55 -317.25)" style="fill:#88a84c"/><path d="M282.35,586.55H298a.79.79,0,0,0,.8-.78v-1.92a.79.79,0,0,0-.78-.8H282.35a.79.79,0,0,0-.8.78v1.92a.79.79,0,0,0,.78.8Z" transform="translate(-34.55 -317.25)" style="fill:#88a84c"/><path d="M282.35,593.45H298a.79.79,0,0,0,.8-.78v-1.92a.79.79,0,0,0-.78-.8H282.35a.79.79,0,0,0-.8.78v1.92A.86.86,0,0,0,282.35,593.45Z" transform="translate(-34.55 -317.25)" style="fill:#88a84c"/><path d="M282.35,600.35H298a.79.79,0,0,0,.8-.78v-1.92a.79.79,0,0,0-.78-.8H282.35a.79.79,0,0,0-.8.78v1.92A.86.86,0,0,0,282.35,600.35Z" transform="translate(-34.55 -317.25)" style="fill:#88a84c"/><path d="M774.55,543.45v96.6h-50.1a9.22,9.22,0,0,1-9.2-9.1v-.8l.8-4.9.9-5.8.9-5.8.9-5.8.9-5.8,1-5.9.8-5.2,3.8-23.2c.8-3.7,1.6-7.2,2.5-10.2a5.64,5.64,0,0,1,.4-1.2c2.8-8.1,7-13,16.6-13h29.8Z" transform="translate(-34.55 -317.25)" style="fill:#88a84c"/><path d="M752.05,561.45h15.2a1,1,0,0,0,1-1v-3.8a1,1,0,0,0-1-1h-15.2a1,1,0,0,0-1,1v3.8A1.08,1.08,0,0,0,752.05,561.45Z" transform="translate(-34.55 -317.25)" style="fill:#88a84c"/><path d="M752.05,573.05h15.2a1,1,0,0,0,1-1v-3.8a1,1,0,0,0-1-1h-15.2a1,1,0,0,0-1,1v3.8A1.08,1.08,0,0,0,752.05,573.05Z" transform="translate(-34.55 -317.25)" style="fill:#88a84c"/><path d="M752.05,584.55h15.2a1,1,0,0,0,1-1v-3.8a1,1,0,0,0-1-1h-15.2a1,1,0,0,0-1,1v3.8A1,1,0,0,0,752.05,584.55Z" transform="translate(-34.55 -317.25)" style="fill:#88a84c"/><path d="M752.05,596.15h15.2a1,1,0,0,0,1-1v-3.8a1,1,0,0,0-1-1h-15.2a1,1,0,0,0-1,1v3.8A1,1,0,0,0,752.05,596.15Z" transform="translate(-34.55 -317.25)" style="fill:#88a84c"/><path d="M752.05,607.75h15.2a1,1,0,0,0,1-1V603a1,1,0,0,0-1-1h-15.2a1,1,0,0,0-1,1v3.8A1,1,0,0,0,752.05,607.75Z" transform="translate(-34.55 -317.25)" style="fill:#88a84c"/><path d="M752.05,619.35h15.2a1,1,0,0,0,1-1v-3.8a1,1,0,0,0-1-1h-15.2a1,1,0,0,0-1,1v3.8A1.08,1.08,0,0,0,752.05,619.35Z" transform="translate(-34.55 -317.25)" style="fill:#88a84c"/><path d="M752.05,631h15.2a1,1,0,0,0,1-1v-3.8a1,1,0,0,0-1-1h-15.2a1,1,0,0,0-1,1V630A1.08,1.08,0,0,0,752.05,631Z" transform="translate(-34.55 -317.25)" style="fill:#88a84c"/><path d="M729.15,561.45h15.2a1,1,0,0,0,1-1v-3.8a1,1,0,0,0-1-1h-15.2a1,1,0,0,0-1,1v3.8A1,1,0,0,0,729.15,561.45Z" transform="translate(-34.55 -317.25)" style="fill:#88a84c"/><path d="M729.15,573.05h15.2a1,1,0,0,0,1-1v-3.8a1,1,0,0,0-1-1h-15.2a1,1,0,0,0-1,1v3.8A1,1,0,0,0,729.15,573.05Z" transform="translate(-34.55 -317.25)" style="fill:#88a84c"/><path d="M729.15,584.55h15.2a1,1,0,0,0,1-1v-3.8a1,1,0,0,0-1-1h-15.2a1,1,0,0,0-1,1v3.8a.94.94,0,0,0,.88,1Z" transform="translate(-34.55 -317.25)" style="fill:#88a84c"/><path d="M729.15,596.15h15.2a1,1,0,0,0,1-1v-3.8a1,1,0,0,0-1-1h-15.2a1,1,0,0,0-1,1v3.8a.94.94,0,0,0,.88,1Z" transform="translate(-34.55 -317.25)" style="fill:#88a84c"/><path d="M729.15,607.75h15.2a1,1,0,0,0,1-1V603a1,1,0,0,0-1-1h-15.2a1,1,0,0,0-1,1v3.8a.94.94,0,0,0,.88,1Z" transform="translate(-34.55 -317.25)" style="fill:#88a84c"/><path d="M729.15,619.35h15.2a1,1,0,0,0,1-1v-3.8a1,1,0,0,0-1-1h-15.2a1,1,0,0,0-1,1v3.8A1,1,0,0,0,729.15,619.35Z" transform="translate(-34.55 -317.25)" style="fill:#88a84c"/><path d="M729.15,631h15.2a1,1,0,0,0,1-1v-3.8a1,1,0,0,0-1-1h-15.2a1,1,0,0,0-1,1V630A1,1,0,0,0,729.15,631Z" transform="translate(-34.55 -317.25)" style="fill:#88a84c"/><path d="M722.35,592.35v1.9a2,2,0,0,1-1.4,1.9l.8-5.2A1.83,1.83,0,0,1,722.35,592.35Z" transform="translate(-34.55 -317.25)" style="fill:#88a84c"/><path d="M722.35,603.85v2a1.9,1.9,0,0,1-1.9,1.9h-1.4l.9-5.8h.4A2,2,0,0,1,722.35,603.85Z" transform="translate(-34.55 -317.25)" style="fill:#88a84c"/><path d="M722.35,615.45v2a1.9,1.9,0,0,1-1.9,1.9h-3.3l.9-5.8h2.3A2,2,0,0,1,722.35,615.45Z" transform="translate(-34.55 -317.25)" style="fill:#88a84c"/><path d="M722.35,627.05v2a1.9,1.9,0,0,1-1.9,1.9h-5.1v-.8l.8-4.9h4.2a1.84,1.84,0,0,1,2,1.67A.62.62,0,0,1,722.35,627.05Z" transform="translate(-34.55 -317.25)" style="fill:#88a84c"/><path d="M497,348.35a3.27,3.27,0,1,1,4.6.5A3.31,3.31,0,0,1,497,348.35Z" transform="translate(-34.55 -317.25)" style="fill:url(#radial-gradient-13)"/><path d="M497,368.85a3.27,3.27,0,1,1,4.6.5A3.31,3.31,0,0,1,497,368.85Z" transform="translate(-34.55 -317.25)" style="fill:url(#radial-gradient-14)"/><path d="M497,389.25a3.27,3.27,0,1,1,4.6.5A3.31,3.31,0,0,1,497,389.25Z" transform="translate(-34.55 -317.25)" style="fill:url(#radial-gradient-15)"/><rect x="869.1" y="451.7" width="9.6" height="42.6" style="fill:#ffb932;stroke:#a97c50;stroke-miterlimit:10;stroke-width:0.2329999953508377px"/><path d="M1045,599.25v-4.8h-8.8s-36.9,201.1,129.3,261.1v-3.7C1024.75,793.75,1040.75,629.45,1045,599.25Z" transform="translate(-34.55 -317.25)" style="fill:#88a84c"/><rect x="943.7" y="277.2" width="9.6" height="16.6" style="fill:#a7cb64"/><polygon points="936 293.8 926.4 293.8 943.7 309.1 953.3 309.1 936 293.8" style="fill:#a7cb64"/><polygon points="912 406.3 878.7 384.8 878.7 318.3 869.1 318.3 869.1 384.8 902.4 406.3 900.7 451.7 910.3 451.7 912 406.3" style="fill:#a7cb64"/><polygon points="966.4 494.3 956.8 494.3 1069.1 534.2 1130.8 541.5 1130.8 540.4 1078.7 534.2 966.4 494.3" style="fill:#a7cb64"/><rect x="895.4" y="309.1" width="9.6" height="9.3" style="fill:#a7cb64"/><path d="M1036.15,594.45h-48.3v16.6h-17.3l17.3,15.3h-48.3v9.3h-26.3v66.4l33.3,21.6-1.8,45.3h-31.6v42.6H1001l112.3,39.9,52.1,6.2v-2.1C999.15,795.55,1036.15,594.45,1036.15,594.45Z" transform="translate(-34.55 -317.25)" style="fill:#a7cb64"/><path d="M1036.15,594.45h-44.6v57.6h17.8v9.6h-17.8v30.2h23.3v8.2h-23.3v35.7h28.8v12.3h-28.8v31.5h39.8v11h-39.8v21h9.4l112.3,39.9,52.1,6.2v-2.1C999.15,795.55,1036.15,594.45,1036.15,594.45Z" transform="translate(-34.55 -317.25)" style="fill:#88a84c"/><polygon points="1010.4 270.4 1009.8 267.4 984.2 243.6 963.8 249.5 943.7 277 1010.4 277 1010.4 270.4" style="fill:#88a84c"/><path d="M980.45,646.75a3.27,3.27,0,1,1,4.6.5A3.31,3.31,0,0,1,980.45,646.75Z" transform="translate(-34.55 -317.25)" style="fill:#a7cb64"/><path d="M980.45,690.35a3.27,3.27,0,1,1,4.6.5A3.31,3.31,0,0,1,980.45,690.35Z" transform="translate(-34.55 -317.25)" style="fill:#a7cb64"/><path d="M980.45,734a3.27,3.27,0,1,1,4.6.5A3.52,3.52,0,0,1,980.45,734Z" transform="translate(-34.55 -317.25)" style="fill:#a7cb64"/><path d="M980.45,777.45a3.27,3.27,0,1,1,4.6.5A3.31,3.31,0,0,1,980.45,777.45Z" transform="translate(-34.55 -317.25)" style="fill:#a7cb64"/><path d="M643.15,668.45l98.6,5.8a2,2,0,0,1,1.91,2.09s0,.07,0,.11l-.8,12.9a2,2,0,0,1-2.09,1.91h-.11l-98.6-5.8a2,2,0,0,1-1.91-2.09s0-.07,0-.11l.8-12.9A2.1,2.1,0,0,1,643.15,668.45Z" transform="translate(-34.55 -317.25)" style="fill:url(#linear-gradient-3)"/><path d="M525.25,658.45l133.7,7.9a2.78,2.78,0,0,1,2.6,2.9l-1,17.5a2.78,2.78,0,0,1-2.9,2.6l-133.8-7.9a2.78,2.78,0,0,1-2.6-2.9l1-17.5A2.8,2.8,0,0,1,525.25,658.45Z" transform="translate(-34.55 -317.25)" style="fill:#1a1b20"/><path d="M647,661.55l8,.5a2.78,2.78,0,0,1,2.6,2.9l-1.5,25.6a2.78,2.78,0,0,1-2.9,2.6l-8-.5a2.78,2.78,0,0,1-2.6-2.9l1.5-25.6A2.78,2.78,0,0,1,647,661.55Z" transform="translate(-34.55 -317.25)" style="fill:#1a1b20"/><path d="M326.15,653.45l-28.3,4.7c-5.4.9-9.5,5.9-10.4,12.1a17.94,17.94,0,0,0,3.7,14.1,11.72,11.72,0,0,0,8.5,4.4l205.7,10.7a9,9,0,0,0,3.6-.5l27-8.3a10.48,10.48,0,0,0,3.6-1.9l8.5-6.6a15.17,15.17,0,0,0,2.7-2.9l12.3-17.6a15.89,15.89,0,0,0,2.7-6.6,8.65,8.65,0,0,0,.2-1.6Z" transform="translate(-34.55 -317.25)" style="fill:#a7cb64"/><path d="M326.15,653.45l-28.3,4.7c-5.4.9-9.5,5.9-10.4,12.1a16.65,16.65,0,0,0,3.3,6.3,12.59,12.59,0,0,0,8.6,4.5l208.9,10.8a9.51,9.51,0,0,0,3.7-.5l27.5-8.4a14.4,14.4,0,0,0,3.7-1.9l8.6-6.7a15.38,15.38,0,0,0,2.8-2.9l11.4-16.3a8.65,8.65,0,0,0,.2-1.6h-240Z" transform="translate(-34.55 -317.25)" style="fill:#a7cb64"/><path d="M815.35,881.35v-7h6v7Zm-23.3,0h-5.8v-7h5.8Zm-29.2,0h-5.8v-7h5.8Zm-29.1,0H728v-7h5.8Zm-29.2,0h-5.8v-7h5.8Zm-29.2,0h-5.8v-7h5.8Zm-29.2,0h-5.8v-7h5.8Zm-29.1,0h-5.9v-7H617v7Zm-29.2,0h-5.8v-7h5.8Zm-29.2,0h-5.8v-7h5.8Zm-29.2,0h-5.8v-7h5.8Zm-29.1,0h-5.8v-7h5.8Zm-29.2,0h-5.8v-7h5.8Zm-29.2,0h-5.8v-7H442Zm-29.1,0h-5.8v-7h5.8Zm-29.2,0h-5.8v-7h5.8Zm-29.2,0h-5.8v-7h5.8ZM325,881c-2-.2-4-.5-6-.8l1.1-6.9a50.09,50.09,0,0,0,5.6.7Zm520.4-2.7-1.8-6.7c1.8-.5,3.6-1,5.4-1.6l2.2,6.6c-1.9.6-3.8,1.2-5.8,1.7Zm-549.5-5.1a54.38,54.38,0,0,1-5.4-2.7l3.3-6.2c1.6.9,3.3,1.7,5,2.5Zm577.1-7.1-3.8-5.8c1.6-1,3.1-2.1,4.6-3.2l4.2,5.6c-1.7,1.1-3.3,2.3-5,3.4Zm-602.3-9.5c-1.5-1.4-2.9-2.8-4.3-4.2l5-4.8c1.3,1.3,2.6,2.7,4,3.9Zm624.6-10.8-5.4-4.3c1.2-1.5,2.3-3,3.4-4.5l5.7,4c-1.2,1.6-2.5,3.2-3.7,4.8ZM252,833c-1-1.8-1.9-3.6-2.8-5.4l6.3-3c.8,1.7,1.7,3.3,2.6,5Zm658.1-13.5-6.5-2.4c.6-1.7,1.2-3.5,1.8-5.3l6.7,2C911.35,815.65,910.75,817.55,910.05,819.45Zm-668.5-14.8q-.6-3-.9-6l6.9-.9a51.24,51.24,0,0,0,.9,5.5Zm674.2-14.8-7-.2v-5.6l7-.2v3A15,15,0,0,1,915.75,789.85Zm-668.2-14.4-6.9-.9c.3-2,.6-4,1-6l6.8,1.3C248.15,771.65,247.85,773.55,247.55,775.45ZM905.35,762a47.22,47.22,0,0,0-1.8-5.3l6.5-2.4c.7,1.9,1.3,3.8,1.9,5.8Zm-649.8-13.3-6.3-3c.9-1.8,1.8-3.6,2.8-5.4l6.1,3.4C257.25,745.25,256.35,747,255.55,748.65Zm637.7-11.9-3.3-4.5,5.5-4.3c1.2,1.6,2.5,3.2,3.6,4.9Zm-621.7-11-5-4.9c1.4-1.4,2.9-2.9,4.4-4.2l4.7,5.2c-1.4,1.3-2.8,2.6-4.1,3.9Zm602.3-9.1c-1.5-1.1-3-2.2-4.6-3.2l3.8-5.8c1.7,1.1,3.3,2.3,5,3.5ZM294,709.05l-3.2-6.2c1.8-.9,3.6-1.8,5.4-2.6l2.8,6.4c-1.6.7-3.3,1.5-5,2.4Zm555.2-5.4c-1.8-.6-3.6-1.1-5.4-1.6l1.8-6.7c1.9.5,3.9,1.1,5.8,1.7Zm-528.7-3.4-1.1-6.9c2-.3,4-.6,6-.8l.7,6.9C324.15,699.75,322.25,700,320.45,700.25Zm501.1-1.1h-5.8v-7h5.9Zm-29.1,0h-5.8v-7h5.8Zm-29.2,0h-5.8v-7h5.8Zm-29.2,0h-5.8v-7h5.8Zm-29.2,0h-5.8v-7h5.8Zm-29.1,0H670v-7h5.8Zm-29.2,0h-5.8v-7h5.8Zm-29.2,0h-5.8v-7h5.8Zm-29.1,0h-5.8v-7h5.8Zm-29.2,0h-5.9v-7H559v7Zm-29.2,0h-5.8v-7h5.8Zm-29.2,0h-5.8v-7h5.8Zm-29.1,0h-5.8v-7h5.8Zm-29.2,0h-5.8v-7h5.8Zm-29.2,0h-5.8v-7h5.8Zm-29.2,0h-5.8v-7H384Zm-29.1,0h-5.8v-7h5.8Z" transform="translate(-34.55 -317.25)" style="fill:#414042"/><path d="M865.15,878H291.35a47.59,47.59,0,0,1-47.6-47.58V743.25a47.59,47.59,0,0,1,47.58-47.6H865.15a47.59,47.59,0,0,1,47.6,47.58v87.12A47.59,47.59,0,0,1,865.17,878Z" transform="translate(-34.55 -317.25)" style="fill:#231f20"/><path d="M334.85,860.45a73.7,73.7,0,1,1,0-147.4h486.7a73.7,73.7,0,0,1,0,147.4Z" transform="translate(-34.55 -317.25)" style="fill:#f6f6f6;opacity:0.30000001192092896;isolation:isolate"/><path d="M398.15,756.85h393.3a42.6,42.6,0,1,1,.7,60.5h-394a30.41,30.41,0,0,1-30.3-30.3h0A30.39,30.39,0,0,1,398.15,756.85Z" transform="translate(-34.55 -317.25)" style="fill:#88a84c"/><path d="M426.75,786.75a81.86,81.86,0,1,1,0-.08Z" transform="translate(-34.55 -317.25)" style="fill:#3d3b3d"/><path d="M426.75,786.75a81.86,81.86,0,1,1,0-.08Z" transform="translate(-34.55 -317.25)"/><path d="M415.15,786.75a70.25,70.25,0,1,1-70.3-70.2A70.25,70.25,0,0,1,415.15,786.75Z" transform="translate(-34.55 -317.25)" style="fill:url(#radial-gradient-16)"/><path d="M405.15,786.75a60.3,60.3,0,1,1-60.3-60.3h0A60.3,60.3,0,0,1,405.15,786.75Z" transform="translate(-34.55 -317.25)" style="fill:#231f20"/><path d="M405.15,786.75a60.3,60.3,0,1,1-60.3-60.3h0A60.3,60.3,0,0,1,405.15,786.75Z" transform="translate(-34.55 -317.25)" style="fill:#3b3a3a"/><path d="M387.45,786.75a42.6,42.6,0,1,1-42.6-42.6h0A42.64,42.64,0,0,1,387.45,786.75Z" transform="translate(-34.55 -317.25)" style="fill:#414042;stroke:#3d3b3d;stroke-miterlimit:10;stroke-width:0.42160001397132874px"/><path d="M374.45,787.25a29.5,29.5,0,1,1-29.5-29.5,29.5,29.5,0,0,1,29.5,29.5Z" transform="translate(-34.55 -317.25)" style="fill:#f6f6f6"/><path d="M356.55,772.55l13.3-16.8a41.19,41.19,0,0,1,11.2,14l-19.3,9.4A16,16,0,0,0,356.55,772.55Z" transform="translate(-34.55 -317.25)" style="fill:#f6f6f6"/><path d="M370.05,818.75a39.68,39.68,0,0,1-16.1,7.8l-4.8-20.9a19.33,19.33,0,0,0,7.5-3.6Z" transform="translate(-34.55 -317.25)" style="fill:#f6f6f6"/><path d="M328,779.15l-19.3-9.3a39.84,39.84,0,0,1,11.1-14l13.4,16.7A19.55,19.55,0,0,0,328,779.15Z" transform="translate(-34.55 -317.25)" style="fill:#f6f6f6"/><path d="M363.75,787.25v-.1h21.4v.1a39.46,39.46,0,0,1-4,17.5l-19.3-9.3A18.05,18.05,0,0,0,363.75,787.25Z" transform="translate(-34.55 -317.25)" style="fill:#f6f6f6"/><path d="M326.15,787.35a18.05,18.05,0,0,0,1.9,8.2l-19.3,9.3a38.86,38.86,0,0,1-4-17.5Z" transform="translate(-34.55 -317.25)" style="fill:#f6f6f6"/><path d="M335.85,748.05a41.57,41.57,0,0,1,17.9-.1l-4.7,20.9a19.83,19.83,0,0,0-8.4,0Z" transform="translate(-34.55 -317.25)" style="fill:#f6f6f6"/><path d="M340.75,805.65l-4.7,20.9a41.06,41.06,0,0,1-16.2-7.7l13.4-16.8A19.33,19.33,0,0,0,340.75,805.65Z" transform="translate(-34.55 -317.25)" style="fill:#f6f6f6"/><path d="M865.75,786.75a42.6,42.6,0,1,1-42.6-42.6h0A42.64,42.64,0,0,1,865.75,786.75Z" transform="translate(-34.55 -317.25)" style="fill:#3d3b3d"/><path d="M865.75,786.75a42.6,42.6,0,1,1-42.6-42.6h0A42.64,42.64,0,0,1,865.75,786.75Z" transform="translate(-34.55 -317.25)"/><path d="M859.75,786.75a36.5,36.5,0,1,1-36.5-36.5h0A36.51,36.51,0,0,1,859.75,786.75Z" transform="translate(-34.55 -317.25)" style="fill:url(#radial-gradient-17)"/><path d="M854.55,786.75a31.25,31.25,0,1,1,0-.1Z" transform="translate(-34.55 -317.25)" style="fill:#231f20"/><path d="M854.55,786.75a31.25,31.25,0,1,1,0-.1Z" transform="translate(-34.55 -317.25)" style="fill:#3b3a3a"/><path d="M845.35,786.75a22.1,22.1,0,1,1-22.1-22.1h0A22.12,22.12,0,0,1,845.35,786.75Z" transform="translate(-34.55 -317.25)" style="fill:#414042;stroke:#3d3b3d;stroke-miterlimit:10;stroke-width:0.21930000185966492px"/><path d="M838.55,787.05a15.4,15.4,0,1,1-15.4-15.4h0A15.42,15.42,0,0,1,838.55,787.05Z" transform="translate(-34.55 -317.25)" style="fill:#f6f6f6"/><path d="M829.25,779.35l6.9-8.8a21.58,21.58,0,0,1,5.8,7.3l-10,4.9A8.79,8.79,0,0,0,829.25,779.35Z" transform="translate(-34.55 -317.25)" style="fill:#f6f6f6"/><path d="M836.25,803.35a20,20,0,0,1-8.4,4.1l-2.5-10.9a9.42,9.42,0,0,0,3.9-1.9Z" transform="translate(-34.55 -317.25)" style="fill:#f6f6f6"/><path d="M814.35,782.85l-10.1-4.8a21.58,21.58,0,0,1,5.8-7.3l7,8.7A9.05,9.05,0,0,0,814.35,782.85Z" transform="translate(-34.55 -317.25)" style="fill:#f6f6f6"/><path d="M833,787.05h0l11.2-.1v.1a20.51,20.51,0,0,1-2.1,9.1l-10.1-4.8A9.43,9.43,0,0,0,833,787.05Z" transform="translate(-34.55 -317.25)" style="fill:#f6f6f6"/><path d="M813.35,787.05a8.65,8.65,0,0,0,1,4.2l-10,4.9a20.22,20.22,0,0,1-2.1-9.1Z" transform="translate(-34.55 -317.25)" style="fill:#f6f6f6"/><path d="M818.45,766.65a20.86,20.86,0,0,1,9.3,0l-2.4,10.9a10.87,10.87,0,0,0-4.4,0Z" transform="translate(-34.55 -317.25)" style="fill:#f6f6f6"/><path d="M821.05,796.55l-2.5,10.9a21.75,21.75,0,0,1-8.4-4l7-8.7A8.83,8.83,0,0,0,821.05,796.55Z" transform="translate(-34.55 -317.25)" style="fill:#f6f6f6"/><circle cx="708.6" cy="365.5" r="11" style="fill:url(#radial-gradient-18)"/><path d="M693,563.25h-25.9a1.79,1.79,0,0,1-1.8-1.78V545.35a1.79,1.79,0,0,1,1.78-1.8H693a1.79,1.79,0,0,1,1.8,1.78v16.12a1.68,1.68,0,0,1-1.55,1.8Z" transform="translate(-34.55 -317.25)" style="fill:#e4ebd6"/><path d="M682.25,658a3.27,3.27,0,1,1,4.6.5A3.31,3.31,0,0,1,682.25,658Z" transform="translate(-34.55 -317.25)" style="fill:url(#radial-gradient-19)"/><path d="M753.55,658a3.27,3.27,0,1,1,4.6.5A3.31,3.31,0,0,1,753.55,658Z" transform="translate(-34.55 -317.25)" style="fill:url(#radial-gradient-20)"/><path d="M423.65,568.75a.82.82,0,0,1-.7.9h-6.6a.82.82,0,0,1-.7-.9v-8a.82.82,0,0,1,.7-.9H423a.82.82,0,0,1,.7.9Z" transform="translate(-34.55 -317.25)" style="fill:#ed1c24"/><path d="M423,570h-6.6c-.6,0-1-.5-1-1.2v-8c0-.7.4-1.2,1-1.2H423c.6,0,1,.5,1,1.2v8A1.13,1.13,0,0,1,423,570Zm-6.6-9.7c-.3,0-.5.2-.5.6v8a.56.56,0,0,0,.5.6H423c.3,0,.5-.2.5-.6v-8a.56.56,0,0,0-.5-.6Z" transform="translate(-34.55 -317.25)" style="fill:#231f20"/><path d="M433.65,568.75a.82.82,0,0,1-.7.9h-6.6a.82.82,0,0,1-.7-.9v-8a.82.82,0,0,1,.7-.9H433a.82.82,0,0,1,.7.9Z" transform="translate(-34.55 -317.25)" style="fill:#aba9a7"/><path d="M433,570h-6.6c-.6,0-1-.5-1-1.2v-8c0-.7.4-1.2,1-1.2H433c.6,0,1,.5,1,1.2v8A1.13,1.13,0,0,1,433,570Zm-6.6-9.7c-.3,0-.5.2-.5.6v8a.56.56,0,0,0,.5.6H433c.3,0,.5-.2.5-.6v-8a.56.56,0,0,0-.5-.6Z" transform="translate(-34.55 -317.25)" style="fill:#231f20"/><path d="M632.85,357.65v-6c0-12.5-12.2-22.6-27.1-22.6l-306-11.8a27.12,27.12,0,0,0-27.1,27.1v13.2h360.2Z" transform="translate(-34.55 -317.25)" style="fill:#a7cb64"/></svg>