<svg id="Layer_1" data-name="Layer 1" xmlns="http://www.w3.org/2000/svg" xmlns:xlink="http://www.w3.org/1999/xlink" viewBox="0 0 1147.2 466.8"><defs><radialGradient id="radial-gradient" cx="3637.26" cy="1054.1" r="66.09" gradientTransform="matrix(-1, 0, 0, 1, 4002.46, -297.8)" gradientUnits="userSpaceOnUse"><stop offset="0" stop-color="#231f20"/><stop offset="0.41" stop-color="#252122"/><stop offset="0.56" stop-color="#2b2729"/><stop offset="0.67" stop-color="#353334"/><stop offset="0.74" stop-color="#414042"/><stop offset="0.77" stop-color="#4d4d4f"/><stop offset="0.8" stop-color="#555658"/><stop offset="0.85" stop-color="#58595b"/><stop offset="0.92" stop-color="#414042"/></radialGradient><linearGradient id="linear-gradient" x1="3603.3" y1="1035.85" x2="3626.37" y2="1035.85" gradientTransform="matrix(-1, 0, 0, 1, 4002.46, -297.8)" gradientUnits="userSpaceOnUse"><stop offset="0.03" stop-color="#6d6e71"/><stop offset="0.25" stop-color="#bcbec0"/><stop offset="0.52" stop-color="#d1d3d4"/><stop offset="0.69" stop-color="#bcbec0"/><stop offset="0.98" stop-color="#58595b"/></linearGradient><linearGradient id="linear-gradient-2" x1="3629.06" y1="1027.01" x2="3645.86" y2="1027.01" xlink:href="#linear-gradient"/><radialGradient id="radial-gradient-2" cx="3860.86" cy="322.9" r="66" gradientTransform="matrix(1, 0, 0, -1, -26.4, 904.2)" xlink:href="#radial-gradient"/><linearGradient id="linear-gradient-3" x1="3776.02" y1="1035.85" x2="3799.1" y2="1035.85" xlink:href="#linear-gradient"/><linearGradient id="linear-gradient-4" x1="3801.78" y1="1027.01" x2="3818.6" y2="1027.01" xlink:href="#linear-gradient"/><radialGradient id="radial-gradient-3" cx="2994.66" cy="322.9" r="66" gradientTransform="matrix(1, 0, 0, -1, -26.4, 904.2)" xlink:href="#radial-gradient"/><linearGradient id="linear-gradient-5" x1="2909.85" y1="1035.85" x2="2932.93" y2="1035.85" xlink:href="#linear-gradient"/><linearGradient id="linear-gradient-6" x1="2935.6" y1="1027.01" x2="2952.42" y2="1027.01" xlink:href="#linear-gradient"/><radialGradient id="radial-gradient-4" cx="3070.75" cy="939.07" r="3.34" gradientTransform="matrix(-1, 0, 0, 1, 4002.46, -297.8)" gradientUnits="userSpaceOnUse"><stop offset="0" stop-color="#231f20"/><stop offset="0.47" stop-color="#252122"/><stop offset="0.64" stop-color="#2b2729"/><stop offset="0.77" stop-color="#353334"/><stop offset="0.85" stop-color="#414042"/><stop offset="0.99" stop-color="#414042"/></radialGradient><radialGradient id="radial-gradient-5" cx="3121.55" cy="241.42" r="3.34" gradientTransform="matrix(1, 0, 0, -1, -26.4, 904.2)" xlink:href="#radial-gradient-4"/></defs><title>Dump Truck</title><path d="M774.1,644.9a3.91,3.91,0,0,0,.56-7.8h-.56c-19.8,0-25.4-6.4-25.7-9.8V455.7c0-19.1-28.3-23-29.5-23.1a4.11,4.11,0,0,0-4.7,3.3,4,4,0,0,0,3.56,4.4h0c.3,0,22.3,3.1,22.3,15.4V627.4C740,628.1,740.4,644.9,774.1,644.9Z" transform="translate(-26.4 -366.6)" style="fill:#231f20"/><rect x="704.46" y="92.43" width="25.9" height="159.3" style="fill:#808285"/><rect x="723.9" y="92.43" width="6.5" height="159.3" style="fill:#6d6e71"/><rect x="704.46" y="208.97" width="25.9" height="8" style="fill:#231f20;stroke:#58595b;stroke-miterlimit:10;stroke-width:0.41269999742507935px"/><rect x="704.46" y="115.86" width="25.9" height="8" style="fill:#231f20;stroke:#58595b;stroke-miterlimit:10;stroke-width:0.41269999742507935px"/><rect x="77.94" y="283.8" width="1062.1" height="83.6" style="fill:#88a84c"/><rect x="91.13" y="271.02" width="606.9" height="27.3" style="fill:#88a84c"/><polygon points="781.1 48.7 885.2 48.7 885.2 53.1 898.6 53.1 898.6 65.4 763.5 65.4 763.5 53.1 781.1 53.1 781.1 48.7" style="fill:#88a84c"/><polygon points="781.1 40.3 885.2 40.3 885.2 44.8 898.6 44.8 898.6 57 763.5 57 763.5 44.8 781.1 44.8 781.1 40.3" style="fill:#a7cb64"/><path d="M447.6,744l.7-1.3h11.2l.6,1.3h54.8v-3.6h12.5V744h42.8l.5-1.3h8.7l.5,1.3H768.4a62.36,62.36,0,0,0-.1-18.3L766.4,714H369.1l.9,30.1h77.6Z" transform="translate(-26.4 -366.6)" style="fill:#a7cb64"/><rect x="91.8" y="67.94" width="565.9" height="209.9" style="fill:#a7cb64"/><rect x="91.8" y="228.51" width="565.9" height="9.4" style="fill:#88a84c"/><rect x="91.8" y="259.68" width="565.9" height="4.7" style="fill:#88a84c"/><rect x="601.95" y="80.45" width="21.9" height="137.1" style="fill:#88a84c"/><rect x="561.85" y="80.45" width="21.9" height="137.1" style="fill:#88a84c"/><rect x="521.75" y="80.45" width="21.9" height="137.1" style="fill:#88a84c"/><rect x="481.64" y="80.45" width="21.9" height="137.1" style="fill:#88a84c"/><rect x="441.54" y="80.45" width="21.9" height="137.1" style="fill:#88a84c"/><rect x="401.44" y="80.45" width="21.9" height="137.1" style="fill:#88a84c"/><rect x="361.34" y="80.45" width="21.9" height="137.1" style="fill:#88a84c"/><rect x="321.23" y="80.45" width="21.9" height="137.1" style="fill:#88a84c"/><rect x="281.13" y="80.45" width="21.9" height="137.1" style="fill:#88a84c"/><rect x="241.03" y="80.45" width="21.9" height="137.1" style="fill:#88a84c"/><rect x="200.92" y="80.45" width="21.9" height="137.1" style="fill:#88a84c"/><rect x="160.82" y="80.45" width="21.9" height="137.1" style="fill:#88a84c"/><rect x="120.72" y="80.45" width="21.9" height="137.1" style="fill:#88a84c"/><path d="M104.4,688.9h13.8V414.5h-25V677.7a11.19,11.19,0,0,0,11.16,11.2Z" transform="translate(-26.4 -366.6)" style="fill:#a7cb64"/><rect x="26.49" y="47.85" width="42.1" height="237.9" style="fill:#a7cb64"/><path d="M682.3,653.8h42.1v-224a13.87,13.87,0,0,0-13.84-13.9H682.2V653.8Z" transform="translate(-26.4 -366.6)" style="fill:#88a84c"/><rect x="69.1" y="310.75" width="8.8" height="119" style="fill:#aea7a7"/><rect x="225.98" y="352.28" width="49.7" height="9.7" style="fill:#88a84c"/><rect x="261.32" y="348.04" width="9.6" height="8.5" style="fill:#88a84c"/><rect x="247.14" y="350.74" width="9.6" height="8.5" style="fill:#88a84c"/><rect x="232.94" y="348.02" width="9.6" height="8.5" style="fill:#88a84c"/><polygon points="9 254.8 9 71.4 13.6 71.4 13.6 47.9 26.5 47.9 26.5 285.8 13.6 285.8 13.6 254.8 9 254.8" style="fill:#a7cb64"/><path d="M54.2,653.8V628.7H90.5v21.1a10.1,10.1,0,0,1-2.7,6.9L72.4,673.5h-46V653.8Z" transform="translate(-26.4 -366.6)" style="fill:#aea7a7"/><rect x="53.25" y="314.16" width="15.8" height="43.6" style="fill:#aea7a7"/><circle cx="73.66" cy="437.15" r="11.21" transform="translate(-393.67 116.42) rotate(-86.37)" style="fill:#88a84c"/><path d="M62.5,592.7a11.2,11.2,0,1,0,11.2-11.2,11.19,11.19,0,0,0-11.2,11.2Z" transform="translate(-26.4 -366.6)" style="fill:#88a84c"/><path d="M1173.6,706.7l-5.9-102.1s2.9-22.1-38-31.6-152.9-36.7-152.9-36.7l-29.5-85h-186V755.5H949.1V738.1h224.5Z" transform="translate(-26.4 -366.6)" style="fill:#88a84c"/><polygon points="1132.6 338 1132.6 371.4 946.5 371.4 946.5 388.8 727.5 388.8 727.5 338 1132.6 338" style="fill:#aea7a7"/><path d="M442.1,756.3A77,77,0,1,1,365,679.4h.1a77,77,0,0,1,77,76.9Z" transform="translate(-26.4 -366.6)" style="fill:#3d3b3d"/><path d="M442.1,756.3A77,77,0,1,1,365,679.4h.1a77,77,0,0,1,77,76.9Z" transform="translate(-26.4 -366.6)"/><path d="M431.2,756.3a66,66,0,1,1-66-66h0A66,66,0,0,1,431.2,756.3Z" transform="translate(-26.4 -366.6)" style="fill:url(#radial-gradient)"/><path d="M421.8,756.3a56.65,56.65,0,1,1-56.7-56.6A56.65,56.65,0,0,1,421.8,756.3Z" transform="translate(-26.4 -366.6)" style="fill:#231f20"/><path d="M421.8,756.3a56.65,56.65,0,1,1-56.7-56.6A56.65,56.65,0,0,1,421.8,756.3Z" transform="translate(-26.4 -366.6)" style="fill:#3b3a3a"/><path d="M405.1,756.3a40,40,0,1,1-40-40A40,40,0,0,1,405.1,756.3Z" transform="translate(-26.4 -366.6)" style="fill:#fff;stroke:#3d3b3d;stroke-miterlimit:10;stroke-width:0.428600013256073px"/><path d="M376.1,742.9l12.5-15.8a38.09,38.09,0,0,1,10.5,13.1L381,749A16.18,16.18,0,0,0,376.1,742.9Z" transform="translate(-26.4 -366.6)" style="fill:url(#linear-gradient)"/><path d="M356.6,719.9a38.1,38.1,0,0,1,16.8-.1L369,739.5a17.56,17.56,0,0,0-7.9,0Z" transform="translate(-26.4 -366.6)" style="fill:url(#linear-gradient-2)"/><path d="M269.3,756.3a77,77,0,1,1-77.1-76.9h.1a77,77,0,0,1,77,76.9Z" transform="translate(-26.4 -366.6)" style="fill:#3d3b3d"/><path d="M269.3,756.3a77,77,0,1,1-77.1-76.9h.1a77,77,0,0,1,77,76.9Z" transform="translate(-26.4 -366.6)"/><path d="M258.4,756.3a66,66,0,1,1-66-66h0A66,66,0,0,1,258.4,756.3Z" transform="translate(-26.4 -366.6)" style="fill:url(#radial-gradient-2)"/><path d="M249,756.3a56.65,56.65,0,1,1-56.7-56.6A56.65,56.65,0,0,1,249,756.3Z" transform="translate(-26.4 -366.6)" style="fill:#231f20"/><path d="M249,756.3a56.65,56.65,0,1,1-56.7-56.6A56.65,56.65,0,0,1,249,756.3Z" transform="translate(-26.4 -366.6)" style="fill:#3b3a3a"/><path d="M232.4,756.3a40,40,0,1,1-40-40A40,40,0,0,1,232.4,756.3Z" transform="translate(-26.4 -366.6)" style="fill:#fff;stroke:#3d3b3d;stroke-miterlimit:10;stroke-width:0.428600013256073px"/><path d="M203.4,742.9l12.5-15.8a38.09,38.09,0,0,1,10.5,13.1L208.3,749A18.48,18.48,0,0,0,203.4,742.9Z" transform="translate(-26.4 -366.6)" style="fill:url(#linear-gradient-3)"/><path d="M183.9,719.9a38.1,38.1,0,0,1,16.8-.1l-4.4,19.7a17.56,17.56,0,0,0-7.9,0Z" transform="translate(-26.4 -366.6)" style="fill:url(#linear-gradient-4)"/><rect x="10.28" y="342.7" width="11.6" height="53.4" style="fill:#aea7a7"/><rect x="0.35" y="342.78" width="11.6" height="58.4" style="fill:#aea7a7"/><path d="M935.4,539.5l39.2-2.7-29.5-81.7H918.9c-8.4,0-14.7,7.4-13,15.3l11.9,55.5A18.08,18.08,0,0,0,935.4,539.5Z" transform="translate(-26.4 -366.6)" style="fill:#403430"/><path d="M766.9,455H961.6V443.8a14,14,0,0,0-14-14H773.9a7,7,0,0,0-7,7Z" transform="translate(-26.4 -366.6)" style="fill:#a7cb64"/><polygon points="673 259.2 673 94 676.8 94 676.8 72.8 687.4 72.8 687.4 287.2 676.8 287.2 676.8 259.2 673 259.2" style="fill:#a7cb64"/><polygon points="665.8 259.2 665.8 94 669.6 94 669.6 72.8 680.2 72.8 680.2 287.2 669.6 287.2 669.6 259.2 665.8 259.2" style="fill:#a7cb64"/><polygon points="655.9 48.5 739.4 0 839.4 0 855.6 26.4 748.9 26.4 698.1 67.9 679 67.9 677.1 67.9 91.7 67.9 91.7 48.5 655.9 48.5" style="fill:#a7cb64"/><rect x="740.94" y="336.5" width="152.3" height="53.8" style="fill:#88a84c"/><polygon points="760.8 314.2 878.2 314.2 878.2 320.1 893.3 320.1 893.3 336.5 741 336.5 741 320.1 760.8 320.1 760.8 314.2" style="fill:#88a84c"/><path d="M905.7,552.4c12.7.8,25.4,1.9,38.1,3.1,20.8,2.4,41.5,5.2,62.1,8.8s41.1,7.9,61.6,12.5l30.7,7c10.2,2.3,20.5,4.5,30.3,8.7a60.8,60.8,0,0,1,13.9,8.1,48.41,48.41,0,0,1,11.1,12.3c.7,1.2,1.5,2.4,2.1,3.7l1.8,3.9a79.2,79.2,0,0,1,2.8,8.2,137.85,137.85,0,0,1,4,16.9c4.2,22.9,4.6,46.4,8.8,69.3h-.1c-4.3-22.9-4.8-46.4-9.1-69.2a142.46,142.46,0,0,0-4.1-16.9c-.8-2.8-1.8-5.4-2.8-8.1l-1.8-3.8c-.6-1.3-1.4-2.4-2.1-3.6a49,49,0,0,0-11-12.1,59.25,59.25,0,0,0-13.8-7.9c-9.7-4.2-20-6.2-30.2-8.5l-30.7-6.9c-20.5-4.5-41-8.7-61.6-12.2s-41.3-6.3-62.1-8.5c-12.6-1.2-25.3-2.3-37.9-3.1v-1.7Z" transform="translate(-26.4 -366.6)" style="fill:#a7cb64"/><path d="M930.9,538.2c12.6,1.5,25.3,3.2,37.8,5.1,20.6,3.4,41.2,7.4,61.6,12.1s40.7,10,60.9,15.7l30.3,8.6c9,2.6,18.1,5,26.8,8.8a4.38,4.38,0,0,0-.4.7c-8.6-3.8-17.6-6.1-26.6-8.6l-30.3-8.5c-20.2-5.6-40.5-10.8-60.9-15.4s-40.9-8.4-61.5-11.8c-12.5-1.9-25.1-3.6-37.7-5.1Z" transform="translate(-26.4 -366.6)" style="fill:#a7cb64"/><path d="M905.7,539.5l-14.5-54.3A16.48,16.48,0,0,0,875.3,473H811.6a10.94,10.94,0,0,0-10.9,10.9v49.6a9.6,9.6,0,0,0,9.6,9.6h32.6a19.72,19.72,0,0,1,16.2,8.5l8.1,11.8h27.6a11,11,0,0,0,11-11V539.5Z" transform="translate(-26.4 -366.6)" style="fill:#403430"/><path d="M810.2,543.1h32.6a19.72,19.72,0,0,1,16.2,8.5l8.1,11.8h27.6a11,11,0,0,0,11-11h0V653.7c0,10.1-5.4,18.3-12,18.3H812.9c-6.6,0-12-8.2-12-18.3V535.5A9.38,9.38,0,0,0,810.2,543.1Z" transform="translate(-26.4 -366.6)" style="fill:#88a84c"/><polygon points="842.2 291.4 865.6 291.4 865.6 292.9 868.6 292.9 868.6 297 838.3 297 838.3 292.9 842.2 292.9 842.2 291.4" style="fill:#a7cb64"/><polygon points="842.2 288.7 865.6 288.7 865.6 290.1 868.6 290.1 868.6 294.2 838.3 294.2 838.3 290.1 842.2 290.1 842.2 288.7" style="fill:#a7cb64"/><path d="M818.2,649.8a.83.83,0,0,0,.74.9H826a.88.88,0,0,0,.8-.9v-8.5a.83.83,0,0,0-.74-.9H819a.88.88,0,0,0-.8.9Z" transform="translate(-26.4 -366.6)" style="fill:#ed1c24"/><path d="M817.9,649.8v-8.5A1.23,1.23,0,0,1,819,640h7a1.23,1.23,0,0,1,1.1,1.3v8.5a1.23,1.23,0,0,1-1.1,1.3h-7A1.23,1.23,0,0,1,817.9,649.8Zm1-9.1a.56.56,0,0,0-.5.6v8.5a.56.56,0,0,0,.5.6h7a.56.56,0,0,0,.5-.6v-8.5a.56.56,0,0,0-.5-.6Z" transform="translate(-26.4 -366.6)" style="fill:#231f20"/><path d="M807.5,649.8a.83.83,0,0,0,.74.9h7.06a.88.88,0,0,0,.8-.9v-8.5a.83.83,0,0,0-.74-.9H808.3a.88.88,0,0,0-.8.9Z" transform="translate(-26.4 -366.6)" style="fill:#aba9a7"/><path d="M807.3,649.8v-8.5a1.23,1.23,0,0,1,1.1-1.3h7a1.23,1.23,0,0,1,1.1,1.3v8.5a1.23,1.23,0,0,1-1.1,1.3h-7a1.16,1.16,0,0,1-1.11-1.21S807.3,649.83,807.3,649.8Zm1-9.1a.56.56,0,0,0-.5.6v8.5a.56.56,0,0,0,.5.6h7a.56.56,0,0,0,.5-.6v-8.5a.56.56,0,0,0-.5-.6Z" transform="translate(-26.4 -366.6)" style="fill:#231f20"/><path d="M1152,725.6l-22.9-53.9c-3.9-9.2-12-15.1-21-15.2l-94.2-1.2c-7.3-.1-14.3,3.7-18.8,10.2l-53.6,77.4H1152Z" transform="translate(-26.4 -366.6)" style="fill:#231f20"/><path d="M1138.3,729.2v-.9l-21.8-51.4c-1.7-4.1-5.1-6.8-8.6-6.8l-94.2-1.2c-2.8,0-5.4,1.6-7.3,4.3l129.1,55.9h2.8Z" transform="translate(-26.4 -366.6)" style="fill:#58595b;opacity:0.10000000149011612;isolation:isolate"/><path d="M1135.5,756.3a77,77,0,1,1-77.1-76.9h.1a77,77,0,0,1,77,76.9Z" transform="translate(-26.4 -366.6)" style="fill:#3d3b3d"/><path d="M1135.5,756.3a77,77,0,1,1-77.1-76.9h.1a77,77,0,0,1,77,76.9Z" transform="translate(-26.4 -366.6)"/><path d="M1124.6,756.3a66,66,0,1,1-66-66h0A66,66,0,0,1,1124.6,756.3Z" transform="translate(-26.4 -366.6)" style="fill:url(#radial-gradient-3)"/><path d="M1115.2,756.3a56.65,56.65,0,1,1-56.7-56.6h0A56.72,56.72,0,0,1,1115.2,756.3Z" transform="translate(-26.4 -366.6)" style="fill:#231f20"/><path d="M1115.2,756.3a56.65,56.65,0,1,1-56.7-56.6h0A56.72,56.72,0,0,1,1115.2,756.3Z" transform="translate(-26.4 -366.6)" style="fill:#3b3a3a"/><path d="M1098.6,756.3a40,40,0,1,1-40-40A40,40,0,0,1,1098.6,756.3Z" transform="translate(-26.4 -366.6)" style="fill:#fff;stroke:#3d3b3d;stroke-miterlimit:10;stroke-width:0.428600013256073px"/><path d="M1069.5,742.9l12.5-15.8a38.09,38.09,0,0,1,10.5,13.1l-18.1,8.8A16.18,16.18,0,0,0,1069.5,742.9Z" transform="translate(-26.4 -366.6)" style="fill:url(#linear-gradient-5)"/><path d="M1050,719.9a38.1,38.1,0,0,1,16.8-.1l-4.4,19.7a17.56,17.56,0,0,0-7.9,0Z" transform="translate(-26.4 -366.6)" style="fill:url(#linear-gradient-6)"/><path d="M56.6,602.7a7.18,7.18,0,0,1,1.1-.8c-2.5-11.4-6.8-17.5-10.1-20.6a6.61,6.61,0,0,1-1.1.7C49.8,585,54.1,591,56.6,602.7Z" transform="translate(-26.4 -366.6)" style="fill:#a7cb64"/><path d="M931.3,555.7c-.4-.2-.7-.4-1.1-.6,2.5-8.6,6.8-13.2,10.1-15.6.4.2.7.4,1.1.6C938.2,542.3,933.9,546.8,931.3,555.7Z" transform="translate(-26.4 -366.6)" style="fill:#88a84c"/><path d="M933.1,595.5c.8.8.2,3.5-1.4,6l-13.3,21.6c-1.6,2.5-3.5,3.9-4.3,3.1l-1.9-1.9c-.8-.8-.2-3.5,1.4-6l13.3-21.6c1.6-2.5,3.5-3.9,4.3-3.1Z" transform="translate(-26.4 -366.6)" style="fill:#b3b3b3"/><path d="M919.7,608.4l-6.1,9.9c-1.6,2.5-2.2,5.2-1.4,6l1.9,1.9c.8.8,2.7-.6,4.3-3.1l6.1-9.9Z" transform="translate(-26.4 -366.6)" style="fill:#f5f5f5"/><path d="M919.7,607.9l5.2,5.3-6.3,10.2c-1.7,2.8-3.7,4.1-4.7,3.1l-1.9-1.9c-1-1-.4-3.8,1.3-6.6Zm4.4,5.4-4.3-4.4-6,9.6c-1.6,2.5-2,4.9-1.4,5.5l1.9,1.9c.6.6,2.3-.5,3.9-3Z" transform="translate(-26.4 -366.6)" style="fill:gray"/><path d="M937,566.4h9a23,23,0,0,0-6,.8c4.1,1.2,7.4,3.6,8.9,6.8l7.2,15.1h-9L939.9,574c-1.5-3.1-4.8-5.5-8.9-6.8A23.82,23.82,0,0,1,937,566.4Z" transform="translate(-26.4 -366.6)" style="fill:#a7cb64"/><path d="M947.1,566.4h9c6.7,0,12.7,3.1,14.8,7.6l7.2,15.1h-9L961.9,574C959.8,569.5,953.8,566.4,947.1,566.4Z" transform="translate(-26.4 -366.6)" style="fill:#a7cb64"/><path d="M965.5,566.4h9c6.7,0,12.7,3.1,14.8,7.6l7.2,15.1h-9L980.3,574C978.1,569.5,972.2,566.4,965.5,566.4Z" transform="translate(-26.4 -366.6)" style="fill:#a7cb64"/><rect x="887.5" y="339.6" width="54" height="46.3" style="fill:#88a84c"/><path d="M935,641.3a3.3,3.3,0,1,1-3.3-3.3h0a3.15,3.15,0,0,1,3.3,3A1.61,1.61,0,0,1,935,641.3Z" transform="translate(-26.4 -366.6)" style="fill:#231f20"/><path d="M935,641.3a3.3,3.3,0,1,1-3.3-3.3h0a3.15,3.15,0,0,1,3.3,3A1.61,1.61,0,0,1,935,641.3Z" transform="translate(-26.4 -366.6)" style="fill:url(#radial-gradient-4)"/><path d="M934.1,641.3a2.4,2.4,0,1,1-2.4-2.4A2.43,2.43,0,0,1,934.1,641.3Z" transform="translate(-26.4 -366.6)" style="fill:#fff"/><path d="M929.3,641.3a2.4,2.4,0,1,1,2.4,2.4A2.43,2.43,0,0,1,929.3,641.3Zm.1,0a2.3,2.3,0,1,0,2.3-2.3h0a2.2,2.2,0,0,0-2.3,2.1v.2Z" transform="translate(-26.4 -366.6)" style="fill:#3d3b3d"/><path d="M933.5,641.3a1.8,1.8,0,1,1-1.8-1.8h0a1.79,1.79,0,0,1,1.8,1.78Z" transform="translate(-26.4 -366.6)" style="fill:#ed1c24"/><path d="M929.8,641.3a1.9,1.9,0,1,1,1.9,1.9,1.84,1.84,0,0,1-1.9-1.78Zm.2,0a1.7,1.7,0,1,0,1.7-1.7A1.75,1.75,0,0,0,930,641.3Z" transform="translate(-26.4 -366.6)" style="fill:#231f20"/><path d="M935,674.8a3.3,3.3,0,1,1-3.3-3.3h0a3.26,3.26,0,0,1,3.3,3.24Z" transform="translate(-26.4 -366.6)" style="fill:#231f20"/><path d="M935,674.8a3.3,3.3,0,1,1-3.3-3.3h0a3.26,3.26,0,0,1,3.3,3.24Z" transform="translate(-26.4 -366.6)" style="fill:url(#radial-gradient-5)"/><path d="M934.1,674.8a2.4,2.4,0,1,1-2.4-2.4A2.5,2.5,0,0,1,934.1,674.8Z" transform="translate(-26.4 -366.6)" style="fill:#fff"/><path d="M929.3,674.8a2.4,2.4,0,1,1,2.4,2.4A2.43,2.43,0,0,1,929.3,674.8Zm.1,0a2.3,2.3,0,1,0,2.3-2.3h0a2.26,2.26,0,0,0-2.3,2.22v.08Z" transform="translate(-26.4 -366.6)" style="fill:#3d3b3d"/><path d="M933.5,674.8a1.8,1.8,0,1,1-1.8-1.8h0a1.79,1.79,0,0,1,1.8,1.78Z" transform="translate(-26.4 -366.6)" style="fill:#ed1c24"/><path d="M929.8,674.8a1.9,1.9,0,1,1,1.9,1.9,1.78,1.78,0,0,1-1.9-1.65A1,1,0,0,1,929.8,674.8Zm.2,0a1.7,1.7,0,1,0,1.7-1.7A1.83,1.83,0,0,0,930,674.8Z" transform="translate(-26.4 -366.6)" style="fill:#231f20"/><path d="M698.7,673.9a2.85,2.85,0,1,1-2.9,2.8,2.82,2.82,0,0,1,2.84-2.8Z" transform="translate(-26.4 -366.6)"/><path d="M698.7,673.9a2.85,2.85,0,1,1-2.9,2.8,2.82,2.82,0,0,1,2.84-2.8Z" transform="translate(-26.4 -366.6)"/><path d="M698.6,674.7a2,2,0,1,1-2,2A2,2,0,0,1,698.6,674.7Z" transform="translate(-26.4 -366.6)"/><path d="M698.6,678.8a2.05,2.05,0,1,1,2.1-2A2.16,2.16,0,0,1,698.6,678.8Zm0-.1a2,2,0,1,0-2-2A2,2,0,0,0,698.6,678.7Z" transform="translate(-26.4 -366.6)"/><path d="M698.7,675.2a1.55,1.55,0,1,1-1.6,1.5A1.57,1.57,0,0,1,698.7,675.2Z" transform="translate(-26.4 -366.6)"/><path d="M698.6,678.4a1.65,1.65,0,1,1,1.7-1.6A1.65,1.65,0,0,1,698.6,678.4Zm0-.2a1.45,1.45,0,1,0-1.4-1.5,1.45,1.45,0,0,0,1.4,1.5Z" transform="translate(-26.4 -366.6)"/><path d="M727.3,674.2a2.85,2.85,0,1,1-2.9,2.8A2.86,2.86,0,0,1,727.3,674.2Z" transform="translate(-26.4 -366.6)"/><path d="M727.3,674.2a2.85,2.85,0,1,1-2.9,2.8A2.86,2.86,0,0,1,727.3,674.2Z" transform="translate(-26.4 -366.6)"/><path d="M727.3,675.1a2,2,0,1,1-2,2,1.84,1.84,0,0,1,1.66-2Z" transform="translate(-26.4 -366.6)"/><path d="M727.2,679.1a2.05,2.05,0,1,1,2.1-2A2.09,2.09,0,0,1,727.2,679.1Zm0-.1a2,2,0,1,0-2-2A2,2,0,0,0,727.2,679Z" transform="translate(-26.4 -366.6)"/><path d="M727.3,675.5a1.55,1.55,0,1,1-1.6,1.5A1.57,1.57,0,0,1,727.3,675.5Z" transform="translate(-26.4 -366.6)"/><path d="M727.3,678.7a1.65,1.65,0,1,1,1.7-1.6A1.73,1.73,0,0,1,727.3,678.7Zm0-.2a1.45,1.45,0,1,0-1.4-1.5,1.4,1.4,0,0,0,1.28,1.5Z" transform="translate(-26.4 -366.6)"/><path d="M698.7,697.5a2.85,2.85,0,1,1-2.9,2.8,2.82,2.82,0,0,1,2.84-2.8Z" transform="translate(-26.4 -366.6)"/><path d="M698.7,697.5a2.85,2.85,0,1,1-2.9,2.8,2.82,2.82,0,0,1,2.84-2.8Z" transform="translate(-26.4 -366.6)"/><path d="M698.6,698.3a2,2,0,1,1-2,2A2,2,0,0,1,698.6,698.3Z" transform="translate(-26.4 -366.6)"/><path d="M698.6,702.3a2.05,2.05,0,1,1,2.1-2,2,2,0,0,1-2,2Zm0,0a2,2,0,1,0-2-2A2,2,0,0,0,698.6,702.3Z" transform="translate(-26.4 -366.6)"/><path d="M698.7,698.8a1.55,1.55,0,1,1-1.6,1.5,1.5,1.5,0,0,1,1.5-1.5Z" transform="translate(-26.4 -366.6)"/><path d="M698.6,702a1.65,1.65,0,1,1,1.7-1.6A1.74,1.74,0,0,1,698.6,702Zm0-.2a1.45,1.45,0,1,0-1.4-1.5,1.45,1.45,0,0,0,1.4,1.5Z" transform="translate(-26.4 -366.6)"/><path d="M727.3,697.8a2.85,2.85,0,1,1-2.9,2.8,2.82,2.82,0,0,1,2.84-2.8Z" transform="translate(-26.4 -366.6)"/><path d="M727.3,697.8a2.85,2.85,0,1,1-2.9,2.8,2.82,2.82,0,0,1,2.84-2.8Z" transform="translate(-26.4 -366.6)"/><path d="M727.3,698.6a2,2,0,1,1-2,2,1.94,1.94,0,0,1,1.88-2Z" transform="translate(-26.4 -366.6)"/><path d="M727.2,702.7a2.05,2.05,0,1,1,2.1-2A2.09,2.09,0,0,1,727.2,702.7Zm0-.1a2,2,0,1,0-2-2,2,2,0,0,0,2,2Z" transform="translate(-26.4 -366.6)"/><path d="M727.3,699.1a1.55,1.55,0,1,1-1.6,1.5,1.5,1.5,0,0,1,1.5-1.5Z" transform="translate(-26.4 -366.6)"/><path d="M727.3,702.3a1.65,1.65,0,1,1,1.7-1.6A1.73,1.73,0,0,1,727.3,702.3Zm0-.2a1.45,1.45,0,1,0-1.4-1.5,1.4,1.4,0,0,0,1.28,1.5Z" transform="translate(-26.4 -366.6)"/><path d="M578.1,673.9a2.85,2.85,0,1,1-2.9,2.8A2.86,2.86,0,0,1,578.1,673.9Z" transform="translate(-26.4 -366.6)"/><path d="M578.1,673.9a2.85,2.85,0,1,1-2.9,2.8A2.86,2.86,0,0,1,578.1,673.9Z" transform="translate(-26.4 -366.6)"/><path d="M578.1,674.7a2,2,0,1,1-2,2A2,2,0,0,1,578.1,674.7Z" transform="translate(-26.4 -366.6)"/><path d="M578.1,678.8a2.05,2.05,0,1,1,2.1-2A2.16,2.16,0,0,1,578.1,678.8Zm0-.1a2,2,0,1,0-2-2A2,2,0,0,0,578.1,678.7Z" transform="translate(-26.4 -366.6)"/><path d="M578.1,675.2a1.55,1.55,0,1,1-1.6,1.5A1.71,1.71,0,0,1,578.1,675.2Z" transform="translate(-26.4 -366.6)"/><path d="M578.1,678.4a1.65,1.65,0,1,1,1.7-1.6A1.65,1.65,0,0,1,578.1,678.4Zm0-.2a1.45,1.45,0,1,0-1.4-1.5,1.45,1.45,0,0,0,1.4,1.5Z" transform="translate(-26.4 -366.6)"/><path d="M606.7,674.2a2.85,2.85,0,1,1-2.9,2.8A3,3,0,0,1,606.7,674.2Z" transform="translate(-26.4 -366.6)"/><path d="M606.7,674.2a2.85,2.85,0,1,1-2.9,2.8A3,3,0,0,1,606.7,674.2Z" transform="translate(-26.4 -366.6)"/><path d="M606.7,675.1a2,2,0,1,1-2,2,1.89,1.89,0,0,1,1.77-2Z" transform="translate(-26.4 -366.6)"/><path d="M606.7,679.1a2.05,2.05,0,1,1,.1-4.1,2,2,0,0,1,2,2v.1A2.16,2.16,0,0,1,606.7,679.1Zm0-.1a2,2,0,1,0-2-2A2,2,0,0,0,606.7,679Z" transform="translate(-26.4 -366.6)"/><path d="M606.8,675.5a1.55,1.55,0,1,1-1.6,1.5A1.57,1.57,0,0,1,606.8,675.5Z" transform="translate(-26.4 -366.6)"/><path d="M606.7,678.7a1.65,1.65,0,1,1,1.7-1.6A1.65,1.65,0,0,1,606.7,678.7Zm0-.2a1.45,1.45,0,1,0-1.4-1.5,1.45,1.45,0,0,0,1.4,1.5Z" transform="translate(-26.4 -366.6)"/><path d="M578.1,697.5a2.85,2.85,0,1,1-2.9,2.8A2.86,2.86,0,0,1,578.1,697.5Z" transform="translate(-26.4 -366.6)"/><path d="M578.1,697.5a2.85,2.85,0,1,1-2.9,2.8A2.86,2.86,0,0,1,578.1,697.5Z" transform="translate(-26.4 -366.6)"/><path d="M578.1,698.3a2,2,0,1,1-2,2A2,2,0,0,1,578.1,698.3Z" transform="translate(-26.4 -366.6)"/><path d="M578.1,702.3a2.05,2.05,0,1,1,2.1-2,2,2,0,0,1-2,2Zm0,0a2,2,0,1,0-2-2A2,2,0,0,0,578.1,702.3Z" transform="translate(-26.4 -366.6)"/><path d="M578.1,698.8a1.55,1.55,0,1,1-1.6,1.5A1.62,1.62,0,0,1,578.1,698.8Z" transform="translate(-26.4 -366.6)"/><path d="M578.1,702a1.65,1.65,0,1,1,1.7-1.6A1.74,1.74,0,0,1,578.1,702Zm0-.2a1.45,1.45,0,1,0-1.4-1.5,1.45,1.45,0,0,0,1.4,1.5Z" transform="translate(-26.4 -366.6)"/><path d="M606.7,697.8a2.85,2.85,0,1,1-2.9,2.8A3,3,0,0,1,606.7,697.8Z" transform="translate(-26.4 -366.6)"/><path d="M606.7,697.8a2.85,2.85,0,1,1-2.9,2.8A3,3,0,0,1,606.7,697.8Z" transform="translate(-26.4 -366.6)"/><path d="M606.7,698.6a2,2,0,1,1-2,2A2,2,0,0,1,606.7,698.6Z" transform="translate(-26.4 -366.6)"/><path d="M606.7,702.7a2.05,2.05,0,1,1,2.1-2A2.16,2.16,0,0,1,606.7,702.7Zm0-.1a2,2,0,1,0-2-2,2,2,0,0,0,2,2Z" transform="translate(-26.4 -366.6)"/><path d="M606.8,699.1a1.55,1.55,0,1,1-1.6,1.5,1.5,1.5,0,0,1,1.5-1.5Z" transform="translate(-26.4 -366.6)"/><path d="M606.7,702.3a1.65,1.65,0,1,1,1.7-1.6A1.65,1.65,0,0,1,606.7,702.3Zm0-.2a1.45,1.45,0,1,0-1.4-1.5,1.45,1.45,0,0,0,1.4,1.5Z" transform="translate(-26.4 -366.6)"/><path d="M457.6,673.9a2.85,2.85,0,1,1-2.9,2.8,2.82,2.82,0,0,1,2.84-2.8Z" transform="translate(-26.4 -366.6)"/><path d="M457.6,673.9a2.85,2.85,0,1,1-2.9,2.8,2.82,2.82,0,0,1,2.84-2.8Z" transform="translate(-26.4 -366.6)"/><path d="M457.6,674.7a2,2,0,1,1-2,2A2,2,0,0,1,457.6,674.7Z" transform="translate(-26.4 -366.6)"/><path d="M457.5,678.8a2.05,2.05,0,1,1,2.1-2A2.09,2.09,0,0,1,457.5,678.8Zm0-.1a2,2,0,1,0-2-2A2.07,2.07,0,0,0,457.5,678.7Z" transform="translate(-26.4 -366.6)"/><path d="M457.6,675.2a1.55,1.55,0,1,1-1.6,1.5A1.57,1.57,0,0,1,457.6,675.2Z" transform="translate(-26.4 -366.6)"/><path d="M457.6,678.4a1.65,1.65,0,1,1,1.7-1.6A1.73,1.73,0,0,1,457.6,678.4Zm0-.2a1.45,1.45,0,1,0-1.4-1.5,1.4,1.4,0,0,0,1.28,1.5Z" transform="translate(-26.4 -366.6)"/><path d="M486.2,674.2a2.85,2.85,0,1,1-2.9,2.8A2.86,2.86,0,0,1,486.2,674.2Z" transform="translate(-26.4 -366.6)"/><path d="M486.2,674.2a2.85,2.85,0,1,1-2.9,2.8A2.86,2.86,0,0,1,486.2,674.2Z" transform="translate(-26.4 -366.6)"/><path d="M486.2,675.1a2,2,0,1,1-2,2,1.89,1.89,0,0,1,1.77-2Z" transform="translate(-26.4 -366.6)"/><path d="M486.2,679.1a2.05,2.05,0,1,1,.1-4.1,2,2,0,0,1,2,2v.1A2.16,2.16,0,0,1,486.2,679.1Zm0-.1a2,2,0,1,0-2-2A2,2,0,0,0,486.2,679Z" transform="translate(-26.4 -366.6)"/><path d="M486.2,675.5a1.55,1.55,0,1,1-1.6,1.5A1.71,1.71,0,0,1,486.2,675.5Z" transform="translate(-26.4 -366.6)"/><path d="M486.2,678.7a1.65,1.65,0,1,1,1.7-1.6A1.65,1.65,0,0,1,486.2,678.7Zm0-.2a1.45,1.45,0,1,0-1.4-1.5,1.4,1.4,0,0,0,1.28,1.5Z" transform="translate(-26.4 -366.6)"/><path d="M457.6,697.5a2.85,2.85,0,1,1-2.9,2.8,2.82,2.82,0,0,1,2.84-2.8Z" transform="translate(-26.4 -366.6)"/><path d="M457.6,697.5a2.85,2.85,0,1,1-2.9,2.8,2.82,2.82,0,0,1,2.84-2.8Z" transform="translate(-26.4 -366.6)"/><path d="M457.6,698.3a2,2,0,1,1-2,2A2,2,0,0,1,457.6,698.3Z" transform="translate(-26.4 -366.6)"/><path d="M457.5,702.3a2.05,2.05,0,1,1,2.1-2,2,2,0,0,1-2,2Zm0,0a2,2,0,1,0-2-2A2.07,2.07,0,0,0,457.5,702.3Z" transform="translate(-26.4 -366.6)"/><path d="M457.6,698.8a1.55,1.55,0,1,1-1.6,1.5,1.5,1.5,0,0,1,1.5-1.5Z" transform="translate(-26.4 -366.6)"/><path d="M457.6,702a1.65,1.65,0,1,1,1.7-1.6A1.82,1.82,0,0,1,457.6,702Zm0-.2a1.45,1.45,0,1,0-1.4-1.5,1.4,1.4,0,0,0,1.28,1.5Z" transform="translate(-26.4 -366.6)"/><path d="M486.2,697.8a2.85,2.85,0,1,1-2.9,2.8,2.82,2.82,0,0,1,2.84-2.8Z" transform="translate(-26.4 -366.6)"/><path d="M486.2,697.8a2.85,2.85,0,1,1-2.9,2.8,2.82,2.82,0,0,1,2.84-2.8Z" transform="translate(-26.4 -366.6)"/><path d="M486.2,698.6a2,2,0,1,1-2,2A2,2,0,0,1,486.2,698.6Z" transform="translate(-26.4 -366.6)"/><path d="M486.2,702.7a2.05,2.05,0,1,1,2.1-2A2.16,2.16,0,0,1,486.2,702.7Zm0-.1a2,2,0,1,0-2-2,2,2,0,0,0,2,2Z" transform="translate(-26.4 -366.6)"/><path d="M486.2,699.1a1.55,1.55,0,1,1-1.6,1.5A1.62,1.62,0,0,1,486.2,699.1Z" transform="translate(-26.4 -366.6)"/><path d="M486.2,702.3a1.65,1.65,0,1,1,1.7-1.6A1.65,1.65,0,0,1,486.2,702.3Zm0-.2a1.45,1.45,0,1,0-1.4-1.5,1.4,1.4,0,0,0,1.28,1.5Z" transform="translate(-26.4 -366.6)"/><path d="M267.7,673.9a2.85,2.85,0,1,1-2.9,2.8,2.82,2.82,0,0,1,2.84-2.8Z" transform="translate(-26.4 -366.6)"/><path d="M267.7,673.9a2.85,2.85,0,1,1-2.9,2.8,2.82,2.82,0,0,1,2.84-2.8Z" transform="translate(-26.4 -366.6)"/><path d="M267.7,674.7a2,2,0,1,1-2,2A2,2,0,0,1,267.7,674.7Z" transform="translate(-26.4 -366.6)"/><path d="M267.6,678.8a2.05,2.05,0,1,1,2.1-2,2,2,0,0,1-2,2Zm0-.1a2,2,0,1,0-2-2A2.07,2.07,0,0,0,267.6,678.7Z" transform="translate(-26.4 -366.6)"/><path d="M267.7,675.2a1.55,1.55,0,1,1-1.6,1.5A1.57,1.57,0,0,1,267.7,675.2Z" transform="translate(-26.4 -366.6)"/><path d="M267.7,678.4a1.65,1.65,0,1,1,1.7-1.6A1.73,1.73,0,0,1,267.7,678.4Zm0-.2a1.45,1.45,0,1,0-1.4-1.5,1.4,1.4,0,0,0,1.28,1.5Z" transform="translate(-26.4 -366.6)"/><path d="M296.3,674.2a2.85,2.85,0,1,1-2.9,2.8A3,3,0,0,1,296.3,674.2Z" transform="translate(-26.4 -366.6)"/><path d="M296.3,674.2a2.85,2.85,0,1,1-2.9,2.8A3,3,0,0,1,296.3,674.2Z" transform="translate(-26.4 -366.6)"/><path d="M296.3,675.1a2,2,0,1,1-2,2,1.89,1.89,0,0,1,1.77-2Z" transform="translate(-26.4 -366.6)"/><path d="M296.3,679.1a2.05,2.05,0,1,1,2.1-2A2.16,2.16,0,0,1,296.3,679.1Zm0-.1a2,2,0,1,0-2-2A2,2,0,0,0,296.3,679Z" transform="translate(-26.4 -366.6)"/><path d="M296.3,675.5a1.55,1.55,0,1,1-1.6,1.5A1.71,1.71,0,0,1,296.3,675.5Z" transform="translate(-26.4 -366.6)"/><path d="M296.3,678.7a1.65,1.65,0,1,1,1.7-1.6A1.65,1.65,0,0,1,296.3,678.7Zm0-.2a1.45,1.45,0,1,0-1.4-1.5,1.45,1.45,0,0,0,1.4,1.5Z" transform="translate(-26.4 -366.6)"/><path d="M267.7,697.5a2.85,2.85,0,1,1-2.9,2.8,2.82,2.82,0,0,1,2.84-2.8Z" transform="translate(-26.4 -366.6)"/><path d="M267.7,697.5a2.85,2.85,0,1,1-2.9,2.8,2.82,2.82,0,0,1,2.84-2.8Z" transform="translate(-26.4 -366.6)"/><path d="M267.7,698.3a2,2,0,1,1-2,2A2,2,0,0,1,267.7,698.3Z" transform="translate(-26.4 -366.6)"/><path d="M267.6,702.3a2.05,2.05,0,1,1,2.1-2,1.92,1.92,0,0,1-1.83,2Zm0,0a2,2,0,1,0-2-2A2.07,2.07,0,0,0,267.6,702.3Z" transform="translate(-26.4 -366.6)"/><path d="M267.7,698.8a1.55,1.55,0,1,1-1.6,1.5,1.5,1.5,0,0,1,1.5-1.5Z" transform="translate(-26.4 -366.6)"/><path d="M267.7,702a1.65,1.65,0,1,1,1.7-1.6A1.82,1.82,0,0,1,267.7,702Zm0-.2a1.45,1.45,0,1,0-1.4-1.5,1.4,1.4,0,0,0,1.28,1.5Z" transform="translate(-26.4 -366.6)"/><path d="M296.3,697.8a2.85,2.85,0,1,1-2.9,2.8A3,3,0,0,1,296.3,697.8Z" transform="translate(-26.4 -366.6)"/><path d="M296.3,697.8a2.85,2.85,0,1,1-2.9,2.8A3,3,0,0,1,296.3,697.8Z" transform="translate(-26.4 -366.6)"/><path d="M296.3,698.6a2,2,0,1,1-2,2A2,2,0,0,1,296.3,698.6Z" transform="translate(-26.4 -366.6)"/><path d="M296.3,702.7a2.05,2.05,0,1,1,2.1-2A2.16,2.16,0,0,1,296.3,702.7Zm0-.1a2,2,0,1,0-2-2,2,2,0,0,0,2,2Z" transform="translate(-26.4 -366.6)"/><path d="M296.3,699.1a1.55,1.55,0,1,1-1.6,1.5A1.62,1.62,0,0,1,296.3,699.1Z" transform="translate(-26.4 -366.6)"/><path d="M296.3,702.3a1.65,1.65,0,1,1,1.7-1.6A1.65,1.65,0,0,1,296.3,702.3Zm0-.2a1.45,1.45,0,1,0-1.4-1.5,1.45,1.45,0,0,0,1.4,1.5Z" transform="translate(-26.4 -366.6)"/><path d="M460.5,732.8a5.37,5.37,0,0,0,3.8-1.6,6.29,6.29,0,0,0,.4-8.5l-47.6-56.4H134.5l-27.2,48.6a6.28,6.28,0,0,0,2,8.3,5.38,5.38,0,0,0,7.43-1.63,4.39,4.39,0,0,0,.27-.47l23.9-42.7H412l44.3,52.4A5.77,5.77,0,0,0,460.5,732.8Z" transform="translate(-26.4 -366.6)" style="fill:#a7cb64"/></svg>