<svg id="Layer_1" data-name="Layer 1" xmlns="http://www.w3.org/2000/svg" xmlns:xlink="http://www.w3.org/1999/xlink" viewBox="0 0 1155.89 559.38"><defs><linearGradient id="linear-gradient" x1="1732.92" y1="-1603.79" x2="1732.92" y2="-1611.38" gradientTransform="translate(-1231.1 2165.38)" gradientUnits="userSpaceOnUse"><stop offset="0" stop-color="#fff"/><stop offset="1"/></linearGradient><linearGradient id="linear-gradient-2" x1="-236.72" y1="-1763.5" x2="-236.72" y2="-1779.78" gradientTransform="matrix(-2.67, 1.03, -0.51, -1.31, -746.91, -1609.2)" xlink:href="#linear-gradient"/><radialGradient id="radial-gradient" cx="-873.45" cy="4225.14" r="3.87" gradientTransform="translate(-3058.16 -351.84) rotate(-88.41)" xlink:href="#linear-gradient"/><radialGradient id="radial-gradient-2" cx="-873.09" cy="4237.85" r="3.87" gradientTransform="translate(-3058.16 -351.84) rotate(-88.41)" xlink:href="#linear-gradient"/><radialGradient id="radial-gradient-3" cx="2211.05" cy="808.93" r="53.7" gradientTransform="translate(-2106.54)" gradientUnits="userSpaceOnUse"><stop offset="0" stop-color="#231f20"/><stop offset="0.41" stop-color="#252122"/><stop offset="0.56" stop-color="#2b2729"/><stop offset="0.67" stop-color="#353334"/><stop offset="0.74" stop-color="#414042"/><stop offset="0.77" stop-color="#4d4d4f"/><stop offset="0.8" stop-color="#555658"/><stop offset="0.85" stop-color="#58595b"/><stop offset="0.92" stop-color="#414042"/></radialGradient><linearGradient id="linear-gradient-3" x1="228.91" y1="-2427.98" x2="228.91" y2="-2446.75" gradientTransform="translate(-2327.91 230.22) rotate(90)" xlink:href="#linear-gradient"/><radialGradient id="radial-gradient-4" cx="2716.15" cy="809.83" r="53.7" xlink:href="#radial-gradient-3"/><radialGradient id="radial-gradient-5" cx="497.48" cy="815.43" r="11.25" gradientTransform="matrix(-1, 0, 0, 1, 923.11, 0)" xlink:href="#radial-gradient-3"/><radialGradient id="radial-gradient-6" cx="143.1" cy="-2758.21" r="3.77" gradientTransform="matrix(-0.77, 0.63, -0.63, -0.77, -1430.73, -1673.56)" xlink:href="#linear-gradient"/><radialGradient id="radial-gradient-7" cx="175.02" cy="-2797.1" r="3.77" gradientTransform="matrix(-0.77, 0.63, -0.63, -0.77, -1430.73, -1673.56)" xlink:href="#linear-gradient"/><radialGradient id="radial-gradient-8" cx="206.94" cy="-2835.99" r="3.77" gradientTransform="matrix(-0.77, 0.63, -0.63, -0.77, -1430.73, -1673.56)" xlink:href="#linear-gradient"/><radialGradient id="radial-gradient-9" cx="238.85" cy="-2874.88" r="3.77" gradientTransform="matrix(-0.77, 0.63, -0.63, -0.77, -1430.73, -1673.56)" xlink:href="#linear-gradient"/><radialGradient id="radial-gradient-10" cx="423.08" cy="-666.26" r="3.77" gradientTransform="matrix(-0.63, -0.77, 0.77, -0.63, 1419.06, 265.31)" xlink:href="#linear-gradient"/><radialGradient id="radial-gradient-11" cx="455" cy="-705.15" r="3.77" gradientTransform="matrix(-0.63, -0.77, 0.77, -0.63, 1419.06, 265.31)" xlink:href="#linear-gradient"/><radialGradient id="radial-gradient-12" cx="486.92" cy="-744.04" r="3.77" gradientTransform="matrix(-0.63, -0.77, 0.77, -0.63, 1419.06, 265.31)" xlink:href="#linear-gradient"/><radialGradient id="radial-gradient-13" cx="518.83" cy="-782.94" r="3.77" gradientTransform="matrix(-0.63, -0.77, 0.77, -0.63, 1419.06, 265.31)" xlink:href="#linear-gradient"/><radialGradient id="radial-gradient-14" cx="355.97" cy="-584.49" r="3.77" gradientTransform="matrix(-0.63, -0.77, 0.77, -0.63, 1419.06, 265.31)" xlink:href="#linear-gradient"/><radialGradient id="radial-gradient-15" cx="387.89" cy="-623.37" r="3.77" gradientTransform="matrix(-0.63, -0.77, 0.77, -0.63, 1419.06, 265.31)" xlink:href="#linear-gradient"/></defs><title>crane</title><path d="M516.91,559.33h-30.2a.79.79,0,0,1-.8-.8v-4.3a.79.79,0,0,1,.8-.8h30.2a.79.79,0,0,1,.8.8v4.3A.79.79,0,0,1,516.91,559.33Z" transform="translate(-22.06 -320.31)" style="fill:url(#linear-gradient)"/><path d="M553.51,560.43h-41a1.11,1.11,0,0,1-1.1-1.1v-5.8a1.11,1.11,0,0,1,1.1-1.1h41a1.11,1.11,0,0,1,1.1,1.1v5.8A1.11,1.11,0,0,1,553.51,560.43Z" transform="translate(-22.06 -320.31)" style="fill:#1a1b20"/><path d="M516,561.83h-2.5a.9.9,0,0,1-.9-.9v-9.2a.9.9,0,0,1,.9-.9H516a.9.9,0,0,1,.9.9v9.2A.9.9,0,0,1,516,561.83Z" transform="translate(-22.06 -320.31)" style="fill:#1a1b20"/><path d="M680.11,503.83l198.6-76.6a3.91,3.91,0,0,1,5.1,2.3l3.6,9.4a3.91,3.91,0,0,1-2.3,5.1l-198.6,76.6a3.91,3.91,0,0,1-5.1-2.3l-3.6-9.4A4,4,0,0,1,680.11,503.83Z" transform="translate(-22.06 -320.31)" style="fill:url(#linear-gradient-2)"/><path d="M441.81,592.23l269.3-103.8a5.32,5.32,0,0,1,6.9,3.1l4.9,12.7a5.32,5.32,0,0,1-3.1,6.9l-269.3,103.8a5.32,5.32,0,0,1-6.9-3.1l-4.9-12.7A5.49,5.49,0,0,1,441.81,592.23Z" transform="translate(-22.06 -320.31)" style="fill:#88a84c"/><path d="M684.11,494.33l17.1-6.6a5.35,5.35,0,0,1,6.9,3l8,20.7a5.35,5.35,0,0,1-3,6.9l-17.1,6.6a5.35,5.35,0,0,1-6.9-3l-8-20.7A5.28,5.28,0,0,1,684.11,494.33Z" transform="translate(-22.06 -320.31)" style="fill:#a7cb64"/><polygon points="955.16 27.92 315.26 27.92 356.76 113.52 955.16 113.52 985.36 113.52 985.36 89.72 955.16 27.92" style="fill:#a7cb64"/><path d="M807.81,354.63h84.8a11.43,11.43,0,0,1,6.7,2.2l69.4,49.8a11.7,11.7,0,0,1,4.8,9.4h0a11.63,11.63,0,0,1-7.9,11l-118.2,39.3a11.66,11.66,0,0,1-14.4-6.6l-36-89.1A11.69,11.69,0,0,1,807.81,354.63Z" transform="translate(-22.06 -320.31)" style="fill:#88a84c"/><path d="M536.31,531.43h27a3.14,3.14,0,0,1,2.1.7l22.1,15.8a3.56,3.56,0,0,1,1.5,3h0a3.66,3.66,0,0,1-2.5,3.5l-37.6,12.5a3.77,3.77,0,0,1-4.6-2.1l-11.4-28.3A3.67,3.67,0,0,1,536.31,531.43Z" transform="translate(-22.06 -320.31)" style="fill:#a7cb64"/><circle cx="822.76" cy="72.52" r="24.5" style="fill:#a7cb64"/><circle cx="879.56" cy="81.02" r="16.1" style="fill:#a7cb64"/><rect x="1105.86" y="152.92" width="39.2" height="189.5" style="fill:none;stroke:#414042;stroke-miterlimit:10;stroke-width:1.8777999877929688px"/><polygon points="1065.46 113.52 1094.26 113.52 1094.26 102.42 1064.16 40.62 1035.26 40.62 1065.46 102.42 1065.46 113.52" style="fill:#88a84c"/><rect x="1046.06" y="46.92" width="15.8" height="4.1" style="fill:#a7cb64"/><rect x="1070.76" y="107.72" width="15.8" height="4.1" style="fill:#a7cb64"/><polygon points="1036.96 113.52 1065.86 113.52 1065.86 96.12 1035.66 34.32 1006.86 34.32 1036.96 96.12 1036.96 113.52" style="fill:#a7cb64"/><rect x="1017.66" y="40.62" width="15.8" height="4.1" style="fill:#88a84c"/><rect x="1042.36" y="101.42" width="15.8" height="4.1" style="fill:#88a84c"/><polygon points="983.46 27.92 954.56 27.92 984.76 89.72 984.76 113.52 1013.66 113.52 1013.66 89.72 983.46 27.92" style="fill:#88a84c"/><rect x="965.46" y="34.32" width="15.8" height="4.1" style="fill:#a7cb64"/><rect x="990.06" y="95.02" width="15.8" height="4.1" style="fill:#a7cb64"/><polygon points="1008.66 27.92 979.76 27.92 1009.96 89.72 1009.96 113.52 1038.86 113.52 1038.86 89.72 1008.66 27.92" style="fill:#88a84c"/><rect x="990.66" y="34.32" width="15.8" height="4.1" style="fill:#a7cb64"/><rect x="1015.36" y="95.02" width="15.8" height="4.1" style="fill:#a7cb64"/><polygon points="1061.86 40.32 1078.66 40.32 1125.56 67.72 1125.56 170.72 1119.26 170.72 1083.36 114.02 1083.36 81.42 1061.86 40.32" style="fill:#a7cb64"/><path d="M1155.61,405.33l-.1-18.8a2.78,2.78,0,0,0-2.7-2.8l-23.8-1.3a2.94,2.94,0,0,0-2.9,3.8l6.8,19.9a3,3,0,0,0,1,1.4l4.7,3.4v47.8h17v-53.4Z" transform="translate(-22.06 -320.31)" style="fill:#88a84c"/><path d="M1165.31,462.83l-.8-14.5a1.84,1.84,0,0,0-1.8-1.7l-12.1-.1v-.1h-6.9v6.4a20.67,20.67,0,1,0,24.4,20.3A20.4,20.4,0,0,0,1165.31,462.83Z" transform="translate(-22.06 -320.31)" style="fill:#a7cb64"/><path d="M1156.21,473a8.8,8.8,0,1,1-8.8-8.8A8.75,8.75,0,0,1,1156.21,473Z" transform="translate(-22.06 -320.31)" style="fill:#a7cb64"/><path d="M1147.41,484.63A11.6,11.6,0,1,1,1159,473,11.61,11.61,0,0,1,1147.41,484.63Zm0-17.6a6,6,0,1,0,6,6A6,6,0,0,0,1147.41,467Z" transform="translate(-22.06 -320.31)" style="fill:#88a84c"/><path d="M1140.81,716.13v13.3a3.49,3.49,0,0,1-1,2.4l-13.3,12.3a3.1,3.1,0,0,0-1,2.4v12a3.17,3.17,0,0,0,.9,2.3l12.4,12.4a3.17,3.17,0,0,0,2.3.9h10.5a3.17,3.17,0,0,0,2.3-.9l12.4-12.4a3.17,3.17,0,0,0,.9-2.3v-12.2a3.49,3.49,0,0,1,.8-2.2l2.1-2.3a3.45,3.45,0,0,0,.6-3.4h0a3.23,3.23,0,0,0-5.3-1l-3.1,3.1a2.41,2.41,0,0,0-.6.8l-6.3,12.5a3.22,3.22,0,0,1-2.9,1.8h-7.4a3.16,3.16,0,0,1-3.2-3.2v-7.6a3.17,3.17,0,0,1,.9-2.3l11.3-11.3a3.17,3.17,0,0,0,.9-2.3v-12.8a3.16,3.16,0,0,0-3.2-3.2H1144A3.16,3.16,0,0,0,1140.81,716.13Z" transform="translate(-22.06 -320.31)" style="fill:#88a84c"/><path d="M1151.61,774.63h-10.5a3.86,3.86,0,0,1-2.7-1.1l-12.4-12.4a3.86,3.86,0,0,1-1.1-2.7v-12a4,4,0,0,1,1.2-2.8l13.3-12.3a2.88,2.88,0,0,0,.9-2V716a3.8,3.8,0,0,1,3.8-3.8h7.8a3.8,3.8,0,0,1,3.8,3.8v12.9a3.86,3.86,0,0,1-1.1,2.7l-11.3,11.3a2.73,2.73,0,0,0-.8,1.9v7.6a2.69,2.69,0,0,0,2.7,2.7h7.4a2.67,2.67,0,0,0,2.4-1.5l6.3-12.5a3.59,3.59,0,0,1,.7-1l3.1-3.1a3.77,3.77,0,0,1,6.1,1.2,3.71,3.71,0,0,1-.7,4l-2.1,2.3a2.87,2.87,0,0,0-.7,1.8v12.2a3.86,3.86,0,0,1-1.1,2.7l-12.4,12.4A3.54,3.54,0,0,1,1151.61,774.63Zm-7.6-61.2a2.69,2.69,0,0,0-2.7,2.7v13.3a4,4,0,0,1-1.2,2.8l-13.3,12.3a2.88,2.88,0,0,0-.9,2v12a2.73,2.73,0,0,0,.8,1.9l12.4,12.4a2.73,2.73,0,0,0,1.9.8h10.5a2.73,2.73,0,0,0,1.9-.8l12.4-12.4a2.73,2.73,0,0,0,.8-1.9v-12.2a3.47,3.47,0,0,1,1-2.5l2.1-2.3a2.66,2.66,0,0,0,.5-2.8,3,3,0,0,0-2-1.6,2.6,2.6,0,0,0-2.4.7l-3.1,3.1a1.79,1.79,0,0,0-.5.7l-6.3,12.5a3.67,3.67,0,0,1-3.4,2.1h-7.4a3.8,3.8,0,0,1-3.8-3.8v-7.6a3.86,3.86,0,0,1,1.1-2.7l11.3-11.3a2.73,2.73,0,0,0,.8-1.9V716a2.69,2.69,0,0,0-2.7-2.7H1144v.1Z" transform="translate(-22.06 -320.31)" style="fill:#88a84c"/><path d="M1175.81,664.13l-11.2-19.7a11.93,11.93,0,0,0-10.3-6h-4.6a10.87,10.87,0,0,1-4.4,0h-4.6a11.81,11.81,0,0,0-10.3,6l-11.2,19.7a11.8,11.8,0,0,0-.7,10.2l17.7,45.3a2.84,2.84,0,0,0,.8,1.1h0a9.14,9.14,0,0,0,8.2,5h4.8a9.25,9.25,0,0,0,8.2-5h0a4.44,4.44,0,0,0,.8-1.1l17.7-45.3A12.57,12.57,0,0,0,1175.81,664.13Z" transform="translate(-22.06 -320.31)" style="fill:#a7cb64"/><path d="M1149.81,726.23H1145a9.74,9.74,0,0,1-8.6-5.2,2.55,2.55,0,0,1-.8-1.2l-17.7-45.3a12.23,12.23,0,0,1,.8-10.7l11.2-19.7a12.36,12.36,0,0,1,10.8-6.3h4.1a1.27,1.27,0,0,1,.6.1,9.91,9.91,0,0,0,4.2,0c.2,0,.4-.1.6-.1h4.1a12.36,12.36,0,0,1,10.8,6.3l11.2,19.7a12.57,12.57,0,0,1,.8,10.7l-17.7,45.3a3.6,3.6,0,0,1-.8,1.2A10.06,10.06,0,0,1,1149.81,726.23Zm-9.2-87.3a11.42,11.42,0,0,0-9.9,5.7l-11.2,19.7a11.27,11.27,0,0,0-.7,9.8l17.7,45.3a2.36,2.36,0,0,0,.6.9l.1.2a8.59,8.59,0,0,0,7.7,4.7h4.8a8.59,8.59,0,0,0,7.7-4.7l.1-.2a1.46,1.46,0,0,0,.6-.9l17.7-45.3a11.27,11.27,0,0,0-.7-9.8l-11.2-19.7a11.42,11.42,0,0,0-9.9-5.7h-4.5a11.87,11.87,0,0,1-4.6,0h-4.3Z" transform="translate(-22.06 -320.31)" style="fill:#88a84c"/><rect x="1122.76" y="332.02" width="5.3" height="21" style="fill:#88a84c"/><path d="M1150.61,673.83h-6.4v-22h6.4Zm-5.3-1.1h4.2v-19.9h-4.2Z" transform="translate(-22.06 -320.31)" style="fill:#88a84c"/><circle cx="1125.36" cy="391.92" r="7.3" style="fill:#88a84c"/><path d="M1147.41,720.93a8.7,8.7,0,1,1,8.7-8.7A8.71,8.71,0,0,1,1147.41,720.93Zm0-14.6a5.9,5.9,0,0,0,0,11.8,5.85,5.85,0,0,0,5.9-5.9A5.91,5.91,0,0,0,1147.41,706.33Z" transform="translate(-22.06 -320.31)" style="fill:#88a84c"/><rect x="1112.96" y="310.22" width="24.8" height="16.9" style="fill:#414042"/><path d="M1160.41,647.93h-25.9v-18h25.9Zm-24.8-1.1h23.8V631h-23.8Z" transform="translate(-22.06 -320.31)" style="fill:#88a84c"/><path d="M1141.21,634.43a3.9,3.9,0,1,1-4,3.8A3.9,3.9,0,0,1,1141.21,634.43Z" transform="translate(-22.06 -320.31)" style="fill:url(#radial-gradient)"/><path d="M1153.91,634.43a3.9,3.9,0,1,1-4,3.8A3.9,3.9,0,0,1,1153.91,634.43Z" transform="translate(-22.06 -320.31)" style="fill:url(#radial-gradient-2)"/><path d="M171.51,332.63h143.2a46.63,46.63,0,0,1,36,16.8l69.8,85.4a44.88,44.88,0,0,1,10.2,28.3v38.8c0,16.9-14.1,30.5-31.5,30.5H134.71V368.23C134.71,348.63,151.21,332.63,171.51,332.63Z" transform="translate(-22.06 -320.31)" style="fill:#88a84c"/><rect x="127.06" y="149.22" width="142.6" height="49.1" style="fill:#403430"/><path d="M291.71,459.93V346.63H171.51c-12.3,0-22.3,9.7-22.3,21.6v91.7Z" transform="translate(-22.06 -320.31)" style="fill:#403430"/><path d="M409.21,443.53l-69.8-85.4a31.88,31.88,0,0,0-24.7-11.6h-13.2v172h97.6a16.86,16.86,0,0,0,17.1-16.6v-38.8A31,31,0,0,0,409.21,443.53Z" transform="translate(-22.06 -320.31)" style="fill:#403430"/><rect x="270.56" y="405.02" width="123.8" height="13.3" style="fill:#312527;stroke:#414042;stroke-miterlimit:10;stroke-width:0.949999988079071px"/><rect x="253.66" y="390.52" width="157.8" height="16.9" style="fill:#312527;stroke:#414042;stroke-miterlimit:10;stroke-width:1.2105000019073486px"/><path d="M610.61,754.33H92.81a54.6,54.6,0,0,0,0,109.2h517.8a54.6,54.6,0,1,0,0-109.2Z" transform="translate(-22.06 -320.31)" style="fill:#939598"/><path d="M160.21,809.23a12.56,12.56,0,0,1,6-10.7,64.49,64.49,0,0,0-2.8-10.9,12.59,12.59,0,0,1-10.7-18.7,59,59,0,0,0-7.9-7.9,12.59,12.59,0,0,1-18.7-10.9,62.42,62.42,0,0,0-10.7-2.9,12.49,12.49,0,0,1-21.7,0,54.46,54.46,0,0,0-10.7,2.9A12.59,12.59,0,0,1,64.31,761a65.5,65.5,0,0,0-7.9,7.9,12.48,12.48,0,0,1-.1,12.4,12.75,12.75,0,0,1-10.6,6.3,58.15,58.15,0,0,0-2.8,10.9,12.56,12.56,0,0,1,6,10.7,12.3,12.3,0,0,1-5.9,10.6,66,66,0,0,0,3,11,12.49,12.49,0,0,1,10.3,6.3,12.3,12.3,0,0,1,.3,11.9,62.76,62.76,0,0,0,8.2,8.1,12.86,12.86,0,0,1,11.9.3,12.62,12.62,0,0,1,6.3,10.1,68.31,68.31,0,0,0,11.2,3,12.54,12.54,0,0,1,10.4-5.6,12.4,12.4,0,0,1,10.4,5.6,52.86,52.86,0,0,0,11.2-3,12.77,12.77,0,0,1,6.3-10.1,12.58,12.58,0,0,1,11.9-.4,62.76,62.76,0,0,0,8.2-8.1,12.57,12.57,0,0,1,.3-11.9,12.72,12.72,0,0,1,10.3-6.3,66,66,0,0,0,3-11A12.1,12.1,0,0,1,160.21,809.23Zm-55.7,53.4a53.7,53.7,0,1,1,53.7-53.7A53.65,53.65,0,0,1,104.51,862.63Z" transform="translate(-22.06 -320.31)"/><path d="M104.51,755.23a53.7,53.7,0,1,0,53.7,53.7A53.65,53.65,0,0,0,104.51,755.23Zm0,86.2a32.5,32.5,0,1,1,32.5-32.5A32.5,32.5,0,0,1,104.51,841.43Z" transform="translate(-22.06 -320.31)" style="fill:url(#radial-gradient-3)"/><path d="M104.51,776.33a32.5,32.5,0,1,0,32.5,32.5A32.5,32.5,0,0,0,104.51,776.33Z" transform="translate(-22.06 -320.31)" style="fill:#414042;stroke:#3d3b3d;stroke-miterlimit:10;stroke-width:0.4000000059604645px"/><path d="M150.61,808.93a46.1,46.1,0,1,1-46.1-46.1A46.11,46.11,0,0,1,150.61,808.93Z" transform="translate(-22.06 -320.31)" style="fill:#231f20"/><path d="M150.61,808.93a46.1,46.1,0,1,1-46.1-46.1A46.11,46.11,0,0,1,150.61,808.93Z" transform="translate(-22.06 -320.31)" style="fill:#3b3a3a"/><path d="M127.11,809.33a22.6,22.6,0,1,1-22.6-22.6A22.58,22.58,0,0,1,127.11,809.33Z" transform="translate(-22.06 -320.31)" style="fill:#231f20"/><path d="M113.41,798l10.2-12.9a31.8,31.8,0,0,1,8.6,10.7l-14.8,7.2A13.07,13.07,0,0,0,113.41,798Z" transform="translate(-22.06 -320.31)" style="fill:#231f20"/><path d="M123.71,833.33a32.08,32.08,0,0,1-12.3,6l-3.6-16a13.27,13.27,0,0,0,5.7-2.8Z" transform="translate(-22.06 -320.31)" style="fill:#231f20"/><path d="M91.51,803l-14.8-7.1a31.51,31.51,0,0,1,8.5-10.7L95.51,798A16.07,16.07,0,0,0,91.51,803Z" transform="translate(-22.06 -320.31)" style="fill:#231f20"/><path d="M118.91,809.33h0l16.4-.1v.1a30.88,30.88,0,0,1-3,13.4l-14.8-7.1A16,16,0,0,0,118.91,809.33Z" transform="translate(-22.06 -320.31)" style="fill:#231f20"/><path d="M90.11,809.33a14.44,14.44,0,0,0,1.4,6.2l-14.7,7.1a30.88,30.88,0,0,1-3.1-13.3Z" transform="translate(-22.06 -320.31)" style="fill:#231f20"/><path d="M97.61,779.33a31.66,31.66,0,0,1,13.7,0l-3.6,16a13.84,13.84,0,0,0-6.4,0Z" transform="translate(-22.06 -320.31)" style="fill:#231f20"/><path d="M101.31,823.33l-3.6,16a30.91,30.91,0,0,1-12.4-5.9l10.2-12.8A17.13,17.13,0,0,0,101.31,823.33Z" transform="translate(-22.06 -320.31)" style="fill:#231f20"/><path d="M105.61,484.63v-51a1.75,1.75,0,0,1,1.7-1.7h11.3a1.75,1.75,0,0,1,1.7,1.7v51a1.75,1.75,0,0,1-1.7,1.7h-11.3A1.63,1.63,0,0,1,105.61,484.63Z" transform="translate(-22.06 -320.31)" style="fill:url(#linear-gradient-3)"/><path d="M103,547.13v-69.2a2.26,2.26,0,0,1,2.3-2.3h15.3a2.26,2.26,0,0,1,2.3,2.3v69.2a2.26,2.26,0,0,1-2.3,2.3h-15.3A2.33,2.33,0,0,1,103,547.13Z" transform="translate(-22.06 -320.31)" style="fill:#1a1b20"/><path d="M99.51,481.43h0a3.59,3.59,0,0,1,3.6-3.6h19.8a3.59,3.59,0,0,1,3.6,3.6h0a3.59,3.59,0,0,1-3.6,3.6h-19.8A3.72,3.72,0,0,1,99.51,481.43Z" transform="translate(-22.06 -320.31)" style="fill:#1a1b20"/><path d="M220.31,717.93H89.51A18.52,18.52,0,0,1,71,699.43V547.73a31.5,31.5,0,0,1,31.5-31.5h117.8Z" transform="translate(-22.06 -320.31)" style="fill:#a7cb64"/><path d="M474,594.93v-41.3a13.19,13.19,0,0,1,13.2-13.2h0a13.19,13.19,0,0,1,13.2,13.2v41.3a13.19,13.19,0,0,1-13.2,13.2h0A13.19,13.19,0,0,1,474,594.93Z" transform="translate(-22.06 -320.31)" style="fill:#a7cb64"/><path d="M189.31,852a3,3,0,0,1,1.5-2.6,26.81,26.81,0,0,0-.7-2.7,3.25,3.25,0,0,1-2.6-1.5,2.93,2.93,0,0,1,0-3,11.38,11.38,0,0,0-1.9-1.9,3.19,3.19,0,0,1-3,0,3.06,3.06,0,0,1-1.5-2.7,19.73,19.73,0,0,0-2.6-.7,3,3,0,0,1-2.7,1.5,3.28,3.28,0,0,1-2.7-1.5,19.73,19.73,0,0,0-2.6.7,3.28,3.28,0,0,1-1.5,2.7,2.93,2.93,0,0,1-3,0,17,17,0,0,0-1.9,1.9,3.19,3.19,0,0,1,0,3,3,3,0,0,1-2.6,1.5,26.81,26.81,0,0,0-.7,2.7,3,3,0,0,1,1.5,2.6,3.12,3.12,0,0,1-1.4,2.6,26.81,26.81,0,0,0,.7,2.7,3,3,0,0,1,2.5,1.5,3.29,3.29,0,0,1,.1,2.9,18.88,18.88,0,0,0,2,2,3,3,0,0,1,2.9.1,3,3,0,0,1,1.5,2.5,13.43,13.43,0,0,0,2.7.7,3.26,3.26,0,0,1,2.6-1.4,3,3,0,0,1,2.6,1.4,21.29,21.29,0,0,0,2.7-.7,3.34,3.34,0,0,1,1.5-2.5,3.29,3.29,0,0,1,2.9-.1,18.88,18.88,0,0,0,2-2,2.76,2.76,0,0,1,.1-2.9,3,3,0,0,1,2.5-1.5,13.43,13.43,0,0,0,.7-2.7A3,3,0,0,1,189.31,852Zm-13.7,13a13.1,13.1,0,1,1,13.1-13.1A13.08,13.08,0,0,1,175.61,865Z" transform="translate(-22.06 -320.31)"/><path d="M175.61,843.93a8,8,0,1,0,8,8A8,8,0,0,0,175.61,843.93Z" transform="translate(-22.06 -320.31)" style="fill:#414042;stroke:#3d3b3d;stroke-miterlimit:10;stroke-width:0.09794499725103378px"/><path d="M186.91,851.93a11.3,11.3,0,1,1-11.3-11.3A11.35,11.35,0,0,1,186.91,851.93Z" transform="translate(-22.06 -320.31)" style="fill:#231f20"/><path d="M240.81,852a3,3,0,0,1,1.5-2.6,26.81,26.81,0,0,0-.7-2.7,3.25,3.25,0,0,1-2.6-1.5,2.93,2.93,0,0,1,0-3,11.38,11.38,0,0,0-1.9-1.9,3.19,3.19,0,0,1-3,0,3.06,3.06,0,0,1-1.5-2.7,19.73,19.73,0,0,0-2.6-.7,3,3,0,0,1-2.7,1.5,3.15,3.15,0,0,1-2.7-1.5,19.73,19.73,0,0,0-2.6.7,3.28,3.28,0,0,1-1.5,2.7,2.93,2.93,0,0,1-3,0,17,17,0,0,0-1.9,1.9,3.19,3.19,0,0,1,0,3,3,3,0,0,1-2.6,1.5,26.81,26.81,0,0,0-.7,2.7,3,3,0,0,1,1.5,2.6,3.12,3.12,0,0,1-1.4,2.6,26.81,26.81,0,0,0,.7,2.7,3,3,0,0,1,2.5,1.5,3.29,3.29,0,0,1,.1,2.9,18.88,18.88,0,0,0,2,2,3,3,0,0,1,2.9.1,3,3,0,0,1,1.5,2.5,13.43,13.43,0,0,0,2.7.7,3.26,3.26,0,0,1,2.6-1.4A3,3,0,0,1,230,867a21.29,21.29,0,0,0,2.7-.7,3.34,3.34,0,0,1,1.5-2.5,3.29,3.29,0,0,1,2.9-.1,18.88,18.88,0,0,0,2-2,2.76,2.76,0,0,1,.1-2.9,3,3,0,0,1,2.5-1.5,13.43,13.43,0,0,0,.7-2.7A2.81,2.81,0,0,1,240.81,852Zm-13.7,13a13.1,13.1,0,1,1,13.1-13.1A13.08,13.08,0,0,1,227.11,865Z" transform="translate(-22.06 -320.31)"/><path d="M227.11,843.93a8,8,0,1,0,8,8A8,8,0,0,0,227.11,843.93Z" transform="translate(-22.06 -320.31)" style="fill:#414042;stroke:#3d3b3d;stroke-miterlimit:10;stroke-width:0.09794499725103378px"/><path d="M238.41,851.93a11.3,11.3,0,1,1-11.3-11.3A11.35,11.35,0,0,1,238.41,851.93Z" transform="translate(-22.06 -320.31)" style="fill:#231f20"/><path d="M292.21,852a3,3,0,0,1,1.5-2.6,26.81,26.81,0,0,0-.7-2.7,3.25,3.25,0,0,1-2.6-1.5,2.93,2.93,0,0,1,0-3,11.38,11.38,0,0,0-1.9-1.9,3.19,3.19,0,0,1-3,0,3.06,3.06,0,0,1-1.5-2.7,19.73,19.73,0,0,0-2.6-.7,3,3,0,0,1-2.7,1.5,3.28,3.28,0,0,1-2.7-1.5,19.73,19.73,0,0,0-2.6.7,3.28,3.28,0,0,1-1.5,2.7,2.93,2.93,0,0,1-3,0,17,17,0,0,0-1.9,1.9,3.19,3.19,0,0,1,0,3,3,3,0,0,1-2.6,1.5,26.81,26.81,0,0,0-.7,2.7,3,3,0,0,1,1.5,2.6,3.12,3.12,0,0,1-1.4,2.6,26.81,26.81,0,0,0,.7,2.7,3,3,0,0,1,2.5,1.5,3.29,3.29,0,0,1,.1,2.9,18.88,18.88,0,0,0,2,2,3,3,0,0,1,2.9.1,3,3,0,0,1,1.5,2.5,13.43,13.43,0,0,0,2.7.7,3.26,3.26,0,0,1,2.6-1.4,3,3,0,0,1,2.6,1.4,21.29,21.29,0,0,0,2.7-.7,3.34,3.34,0,0,1,1.5-2.5,3.29,3.29,0,0,1,2.9-.1,18.88,18.88,0,0,0,2-2,2.76,2.76,0,0,1,.1-2.9,3,3,0,0,1,2.5-1.5,13.43,13.43,0,0,0,.7-2.7A3,3,0,0,1,292.21,852Zm-13.6,13a13.1,13.1,0,1,1,13.1-13.1A13.08,13.08,0,0,1,278.61,865Z" transform="translate(-22.06 -320.31)"/><path d="M278.61,843.93a8,8,0,1,0,8,8A8,8,0,0,0,278.61,843.93Z" transform="translate(-22.06 -320.31)" style="fill:#414042;stroke:#3d3b3d;stroke-miterlimit:10;stroke-width:0.09794499725103378px"/><path d="M289.91,851.93a11.3,11.3,0,1,1-11.3-11.3A11.35,11.35,0,0,1,289.91,851.93Z" transform="translate(-22.06 -320.31)" style="fill:#231f20"/><path d="M343.71,852a3,3,0,0,1,1.5-2.6,26.81,26.81,0,0,0-.7-2.7,3.25,3.25,0,0,1-2.6-1.5,2.93,2.93,0,0,1,0-3,11.38,11.38,0,0,0-1.9-1.9,3.19,3.19,0,0,1-3,0,3.06,3.06,0,0,1-1.5-2.7,19.73,19.73,0,0,0-2.6-.7,3,3,0,0,1-2.7,1.5,3.28,3.28,0,0,1-2.7-1.5,19.73,19.73,0,0,0-2.6.7,3.28,3.28,0,0,1-1.5,2.7,2.93,2.93,0,0,1-3,0,17,17,0,0,0-1.9,1.9,3.19,3.19,0,0,1,0,3,3,3,0,0,1-2.6,1.5,26.81,26.81,0,0,0-.7,2.7,3,3,0,0,1,1.5,2.6,3.12,3.12,0,0,1-1.4,2.6,26.81,26.81,0,0,0,.7,2.7,3,3,0,0,1,2.5,1.5,3.29,3.29,0,0,1,.1,2.9,18.88,18.88,0,0,0,2,2,3,3,0,0,1,2.9.1,3,3,0,0,1,1.5,2.5,13.43,13.43,0,0,0,2.7.7,3.26,3.26,0,0,1,2.6-1.4,3,3,0,0,1,2.6,1.4,21.29,21.29,0,0,0,2.7-.7,3.34,3.34,0,0,1,1.5-2.5,3.29,3.29,0,0,1,2.9-.1,18.88,18.88,0,0,0,2-2,2.76,2.76,0,0,1,.1-2.9,3,3,0,0,1,2.5-1.5,13.43,13.43,0,0,0,.7-2.7A3,3,0,0,1,343.71,852Zm-13.6,13a13.1,13.1,0,1,1,13.1-13.1A13.08,13.08,0,0,1,330.11,865Z" transform="translate(-22.06 -320.31)"/><path d="M330.11,843.93a8,8,0,1,0,8,8A8,8,0,0,0,330.11,843.93Z" transform="translate(-22.06 -320.31)" style="fill:#414042;stroke:#3d3b3d;stroke-miterlimit:10;stroke-width:0.09794499725103378px"/><path d="M341.41,851.93a11.3,11.3,0,1,1-11.3-11.3A11.35,11.35,0,0,1,341.41,851.93Z" transform="translate(-22.06 -320.31)" style="fill:#231f20"/><path d="M395.21,852a3,3,0,0,1,1.5-2.6,26.81,26.81,0,0,0-.7-2.7,3.25,3.25,0,0,1-2.6-1.5,2.93,2.93,0,0,1,0-3,11.38,11.38,0,0,0-1.9-1.9,3.19,3.19,0,0,1-3,0,3.06,3.06,0,0,1-1.5-2.7,19.73,19.73,0,0,0-2.6-.7,3,3,0,0,1-2.7,1.5,3.28,3.28,0,0,1-2.7-1.5,19.73,19.73,0,0,0-2.6.7,3.28,3.28,0,0,1-1.5,2.7,2.93,2.93,0,0,1-3,0,17,17,0,0,0-1.9,1.9,3.19,3.19,0,0,1,0,3,3,3,0,0,1-2.6,1.5,26.81,26.81,0,0,0-.7,2.7,3,3,0,0,1,1.5,2.6,3.12,3.12,0,0,1-1.4,2.6,26.81,26.81,0,0,0,.7,2.7,3,3,0,0,1,2.5,1.5,3.29,3.29,0,0,1,.1,2.9,18.88,18.88,0,0,0,2,2,3,3,0,0,1,2.9.1,3,3,0,0,1,1.5,2.5,13.43,13.43,0,0,0,2.7.7,3.26,3.26,0,0,1,2.6-1.4,3,3,0,0,1,2.6,1.4,21.29,21.29,0,0,0,2.7-.7,3.34,3.34,0,0,1,1.5-2.5,3.29,3.29,0,0,1,2.9-.1,18.88,18.88,0,0,0,2-2,2.76,2.76,0,0,1,.1-2.9,3,3,0,0,1,2.5-1.5,13.43,13.43,0,0,0,.7-2.7A3,3,0,0,1,395.21,852Zm-13.6,13a13.1,13.1,0,1,1,13.1-13.1A13.08,13.08,0,0,1,381.61,865Z" transform="translate(-22.06 -320.31)"/><path d="M381.61,843.93a8,8,0,1,0,8,8A8,8,0,0,0,381.61,843.93Z" transform="translate(-22.06 -320.31)" style="fill:#414042;stroke:#3d3b3d;stroke-miterlimit:10;stroke-width:0.09794499725103378px"/><path d="M392.81,851.93a11.3,11.3,0,1,1-11.3-11.3A11.35,11.35,0,0,1,392.81,851.93Z" transform="translate(-22.06 -320.31)" style="fill:#231f20"/><path d="M446.71,852a3,3,0,0,1,1.5-2.6,26.81,26.81,0,0,0-.7-2.7,3.25,3.25,0,0,1-2.6-1.5,2.93,2.93,0,0,1,0-3,11.38,11.38,0,0,0-1.9-1.9,3.19,3.19,0,0,1-3,0,3.06,3.06,0,0,1-1.5-2.7,19.73,19.73,0,0,0-2.6-.7,3,3,0,0,1-2.7,1.5,3.28,3.28,0,0,1-2.7-1.5,19.73,19.73,0,0,0-2.6.7,3.28,3.28,0,0,1-1.5,2.7,2.93,2.93,0,0,1-3,0,17,17,0,0,0-1.9,1.9,3.19,3.19,0,0,1,0,3,3,3,0,0,1-2.6,1.5,26.81,26.81,0,0,0-.7,2.7,3,3,0,0,1,1.5,2.6,3.12,3.12,0,0,1-1.4,2.6,26.81,26.81,0,0,0,.7,2.7,3,3,0,0,1,2.5,1.5,3.29,3.29,0,0,1,.1,2.9,18.88,18.88,0,0,0,2,2,3,3,0,0,1,2.9.1,3,3,0,0,1,1.5,2.5,13.43,13.43,0,0,0,2.7.7,3.26,3.26,0,0,1,2.6-1.4,3,3,0,0,1,2.6,1.4,21.29,21.29,0,0,0,2.7-.7,3.34,3.34,0,0,1,1.5-2.5,3.29,3.29,0,0,1,2.9-.1,18.88,18.88,0,0,0,2-2,2.76,2.76,0,0,1,.1-2.9,3,3,0,0,1,2.5-1.5,13.43,13.43,0,0,0,.7-2.7A3,3,0,0,1,446.71,852ZM433,865a13.1,13.1,0,1,1,13.1-13.1A13.08,13.08,0,0,1,433,865Z" transform="translate(-22.06 -320.31)"/><path d="M433,843.93a8,8,0,1,0,8,8A8,8,0,0,0,433,843.93Z" transform="translate(-22.06 -320.31)" style="fill:#414042;stroke:#3d3b3d;stroke-miterlimit:10;stroke-width:0.09794499725103378px"/><path d="M444.31,851.93a11.3,11.3,0,1,1-11.3-11.3A11.35,11.35,0,0,1,444.31,851.93Z" transform="translate(-22.06 -320.31)" style="fill:#231f20"/><path d="M498.21,852a3,3,0,0,1,1.5-2.6,26.81,26.81,0,0,0-.7-2.7,3.25,3.25,0,0,1-2.6-1.5,2.93,2.93,0,0,1,0-3,11.38,11.38,0,0,0-1.9-1.9,3.19,3.19,0,0,1-3,0,3.06,3.06,0,0,1-1.5-2.7,19.73,19.73,0,0,0-2.6-.7,3,3,0,0,1-2.7,1.5,3.28,3.28,0,0,1-2.7-1.5,19.73,19.73,0,0,0-2.6.7,3.28,3.28,0,0,1-1.5,2.7,2.93,2.93,0,0,1-3,0,17,17,0,0,0-1.9,1.9,3.19,3.19,0,0,1,0,3,3,3,0,0,1-2.6,1.5,26.81,26.81,0,0,0-.7,2.7,3,3,0,0,1,1.5,2.6,3.12,3.12,0,0,1-1.4,2.6,26.81,26.81,0,0,0,.7,2.7,3,3,0,0,1,2.5,1.5,3.29,3.29,0,0,1,.1,2.9,18.88,18.88,0,0,0,2,2,3,3,0,0,1,2.9.1,3,3,0,0,1,1.5,2.5,13.43,13.43,0,0,0,2.7.7,3.26,3.26,0,0,1,2.6-1.4,3,3,0,0,1,2.6,1.4,21.29,21.29,0,0,0,2.7-.7,3.34,3.34,0,0,1,1.5-2.5,3.29,3.29,0,0,1,2.9-.1,18.88,18.88,0,0,0,2-2,2.76,2.76,0,0,1,.1-2.9,3,3,0,0,1,2.5-1.5,13.43,13.43,0,0,0,.7-2.7A2.81,2.81,0,0,1,498.21,852Zm-13.7,13a13.1,13.1,0,1,1,13.1-13.1A13.08,13.08,0,0,1,484.51,865Z" transform="translate(-22.06 -320.31)"/><path d="M484.51,843.93a8,8,0,1,0,8,8A8,8,0,0,0,484.51,843.93Z" transform="translate(-22.06 -320.31)" style="fill:#414042;stroke:#3d3b3d;stroke-miterlimit:10;stroke-width:0.09794499725103378px"/><path d="M495.81,851.93a11.3,11.3,0,1,1-11.3-11.3A11.35,11.35,0,0,1,495.81,851.93Z" transform="translate(-22.06 -320.31)" style="fill:#231f20"/><path d="M549.61,852a3,3,0,0,1,1.5-2.6,26.81,26.81,0,0,0-.7-2.7,3.25,3.25,0,0,1-2.6-1.5,2.93,2.93,0,0,1,0-3,11.38,11.38,0,0,0-1.9-1.9,3.19,3.19,0,0,1-3,0,3.06,3.06,0,0,1-1.5-2.7,19.73,19.73,0,0,0-2.6-.7,3,3,0,0,1-2.7,1.5,3.28,3.28,0,0,1-2.7-1.5,19.73,19.73,0,0,0-2.6.7,3.28,3.28,0,0,1-1.5,2.7,2.93,2.93,0,0,1-3,0,17,17,0,0,0-1.9,1.9,3.19,3.19,0,0,1,0,3,3,3,0,0,1-2.6,1.5,26.81,26.81,0,0,0-.7,2.7,3,3,0,0,1,1.5,2.6,3.12,3.12,0,0,1-1.4,2.6,26.81,26.81,0,0,0,.7,2.7,3,3,0,0,1,2.5,1.5,3.29,3.29,0,0,1,.1,2.9,18.88,18.88,0,0,0,2,2,3,3,0,0,1,2.9.1,3,3,0,0,1,1.5,2.5,13.43,13.43,0,0,0,2.7.7,3.26,3.26,0,0,1,2.6-1.4,3,3,0,0,1,2.6,1.4,21.29,21.29,0,0,0,2.7-.7,3.34,3.34,0,0,1,1.5-2.5,3.29,3.29,0,0,1,2.9-.1,18.88,18.88,0,0,0,2-2,2.76,2.76,0,0,1,.1-2.9,3,3,0,0,1,2.5-1.5,13.43,13.43,0,0,0,.7-2.7A3,3,0,0,1,549.61,852ZM536,865a13.1,13.1,0,1,1,13.1-13.1A13.08,13.08,0,0,1,536,865Z" transform="translate(-22.06 -320.31)"/><path d="M536,843.93a8,8,0,1,0,8,8A8,8,0,0,0,536,843.93Z" transform="translate(-22.06 -320.31)" style="fill:#414042;stroke:#3d3b3d;stroke-miterlimit:10;stroke-width:0.09794499725103378px"/><path d="M547.31,851.93a11.3,11.3,0,1,1-11.3-11.3A11.35,11.35,0,0,1,547.31,851.93Z" transform="translate(-22.06 -320.31)" style="fill:#231f20"/><path d="M609.61,756.13a53.7,53.7,0,1,0,53.7,53.7A53.65,53.65,0,0,0,609.61,756.13Zm0,86.2a32.5,32.5,0,1,1,32.5-32.5A32.5,32.5,0,0,1,609.61,842.33Z" transform="translate(-22.06 -320.31)" style="fill:url(#radial-gradient-4)"/><path d="M655.71,809.83a46.1,46.1,0,1,1-46.1-46.1A46.11,46.11,0,0,1,655.71,809.83Z" transform="translate(-22.06 -320.31)" style="fill:#3b3a3a"/><path d="M634.71,877.43h-566A44.43,44.43,0,0,1,24.31,833v-48.2a44.43,44.43,0,0,1,44.4-44.4h566a44.43,44.43,0,0,1,44.4,44.4V833A44.43,44.43,0,0,1,634.71,877.43Z" transform="translate(-22.06 -320.31)" style="fill:none;stroke:#3b3a3a;stroke-miterlimit:10;stroke-width:4.517000198364258px"/><rect x="138.16" y="455.02" width="395.7" height="66.8" style="fill:#58595b"/><polygon points="498.46 437.72 363.36 437.72 308.66 437.72 173.56 437.72 138.16 455.02 308.66 455.02 363.36 455.02 533.86 455.02 498.46 437.72" style="fill:#58595b"/><polygon points="273.26 470.82 258.26 470.82 251.36 478.12 243.76 478.12 212.56 478.12 209.86 478.12 178.66 478.12 171.06 478.12 164.16 470.82 149.06 470.82 149.06 486.42 178.66 486.42 209.86 486.42 212.56 486.42 243.76 486.42 273.26 486.42 273.26 470.82" style="fill:#312527;stroke:#414042;stroke-miterlimit:10;stroke-width:1.2105000019073486px"/><polygon points="517.86 470.82 502.76 470.82 495.86 478.12 488.26 478.12 457.06 478.12 454.36 478.12 423.16 478.12 415.56 478.12 408.66 470.82 393.66 470.82 393.66 486.42 423.16 486.42 454.36 486.42 457.06 486.42 488.26 486.42 517.86 486.42 517.86 470.82" style="fill:#312527;stroke:#414042;stroke-miterlimit:10;stroke-width:1.2105000019073486px"/><path d="M294.81,806.23h121.1a13.09,13.09,0,1,1,9.3,22.3,12.94,12.94,0,0,1-9.1-3.7H294.81a9.35,9.35,0,0,1-9.3-9.3h0A9.35,9.35,0,0,1,294.81,806.23Z" transform="translate(-22.06 -320.31)" style="fill:#312527;stroke:#414042;stroke-miterlimit:10;stroke-width:1.2105000019073486px"/><path d="M438.71,815.43a13.1,13.1,0,1,1-13.1-13.1A13.14,13.14,0,0,1,438.71,815.43Z" transform="translate(-22.06 -320.31)" style="fill:#3d3b3d"/><path d="M438.71,815.43a13.1,13.1,0,1,1-13.1-13.1A13.14,13.14,0,0,1,438.71,815.43Z" transform="translate(-22.06 -320.31)"/><path d="M436.91,815.43a11.2,11.2,0,1,1-11.2-11.2A11.18,11.18,0,0,1,436.91,815.43Z" transform="translate(-22.06 -320.31)" style="fill:url(#radial-gradient-5)"/><path d="M435.31,815.43a9.65,9.65,0,1,1-9.7-9.6A9.62,9.62,0,0,1,435.31,815.43Z" transform="translate(-22.06 -320.31)" style="fill:#231f20"/><path d="M435.31,815.43a9.65,9.65,0,1,1-9.7-9.6A9.62,9.62,0,0,1,435.31,815.43Z" transform="translate(-22.06 -320.31)" style="fill:#3b3a3a"/><path d="M432.41,815.43a6.8,6.8,0,1,1-6.8-6.8A6.74,6.74,0,0,1,432.41,815.43Z" transform="translate(-22.06 -320.31)" style="fill:#414042;stroke:#3d3b3d;stroke-miterlimit:10;stroke-width:0.0837780013680458px"/><path d="M430.41,815.53a4.7,4.7,0,1,1-4.7-4.7A4.69,4.69,0,0,1,430.41,815.53Z" transform="translate(-22.06 -320.31)" style="fill:#231f20"/><path d="M427.51,813.13l2.1-2.7a6.25,6.25,0,0,1,1.8,2.2l-3.1,1.5A3.92,3.92,0,0,0,427.51,813.13Z" transform="translate(-22.06 -320.31)" style="fill:#231f20"/><path d="M429.61,820.53a6.2,6.2,0,0,1-2.6,1.2l-.8-3.3a2.73,2.73,0,0,0,1.2-.6Z" transform="translate(-22.06 -320.31)" style="fill:#231f20"/><path d="M422.91,814.23l-3.1-1.5a5.48,5.48,0,0,1,1.8-2.2l2.1,2.7A2.72,2.72,0,0,0,422.91,814.23Z" transform="translate(-22.06 -320.31)" style="fill:#231f20"/><path d="M428.61,815.53H432a6.71,6.71,0,0,1-.6,2.8l-3.1-1.5A3.08,3.08,0,0,0,428.61,815.53Z" transform="translate(-22.06 -320.31)" style="fill:#231f20"/><path d="M422.61,815.53a2.77,2.77,0,0,0,.3,1.3l-3.1,1.5a6.71,6.71,0,0,1-.6-2.8Z" transform="translate(-22.06 -320.31)" style="fill:#231f20"/><path d="M424.21,809.23a7.08,7.08,0,0,1,2.9,0l-.8,3.4a2.85,2.85,0,0,0-1.3,0Z" transform="translate(-22.06 -320.31)" style="fill:#231f20"/><path d="M425,818.43l-.8,3.3a6.82,6.82,0,0,1-2.6-1.2l2.1-2.7A3.1,3.1,0,0,0,425,818.43Z" transform="translate(-22.06 -320.31)" style="fill:#231f20"/><path d="M195.11,555.33h-61.8a35,35,0,0,0-34.8,35.2v57.7a35,35,0,0,0,34.8,35.2h61.8Z" transform="translate(-22.06 -320.31)" style="fill:#88a84c"/><path d="M610.61,740.43H92.81a68.5,68.5,0,0,0,0,137h517.8a68.5,68.5,0,0,0,0-137Zm0,123.1H92.81a54.6,54.6,0,0,1,0-109.2h517.8a54.6,54.6,0,1,1,0,109.2Z" transform="translate(-22.06 -320.31)" style="fill:#58595b"/><path d="M469.51,592.13a2.8,2.8,0,0,1-2.8-2.8v-45a13.06,13.06,0,0,0-7.7-11.9L395.31,504a18.66,18.66,0,0,1-11-17v-47.4a13,13,0,0,0-13-13h-40.9a13.25,13.25,0,0,0-9.7,4.3L249,508.43a2.76,2.76,0,0,1-4.1-3.7l71.7-77.6a18.47,18.47,0,0,1,13.8-6.1h40.9a18.56,18.56,0,0,1,18.6,18.6V487a13.06,13.06,0,0,0,7.7,11.9l63.7,28.4a18.66,18.66,0,0,1,11,17v45A2.73,2.73,0,0,1,469.51,592.13Z" transform="translate(-22.06 -320.31)" style="fill:#88a84c"/><path d="M205.51,551.73a3.76,3.76,0,1,1,5.3.5A3.79,3.79,0,0,1,205.51,551.73Z" transform="translate(-22.06 -320.31)" style="fill:url(#radial-gradient-6)"/><path d="M205.51,602a3.76,3.76,0,1,1,5.3.5A3.79,3.79,0,0,1,205.51,602Z" transform="translate(-22.06 -320.31)" style="fill:url(#radial-gradient-7)"/><path d="M205.51,652.33a3.76,3.76,0,1,1,5.3.5A3.71,3.71,0,0,1,205.51,652.33Z" transform="translate(-22.06 -320.31)" style="fill:url(#radial-gradient-8)"/><path d="M205.51,702.63a3.76,3.76,0,1,1,5.3.5A3.71,3.71,0,0,1,205.51,702.63Z" transform="translate(-22.06 -320.31)" style="fill:url(#radial-gradient-9)"/><path d="M633.21,358a3.76,3.76,0,1,1-.5,5.3A3.79,3.79,0,0,1,633.21,358Z" transform="translate(-22.06 -320.31)" style="fill:url(#radial-gradient-10)"/><path d="M582.91,358a3.76,3.76,0,1,1-.5,5.3A3.79,3.79,0,0,1,582.91,358Z" transform="translate(-22.06 -320.31)" style="fill:url(#radial-gradient-11)"/><path d="M532.61,358a3.76,3.76,0,1,1-.5,5.3A3.79,3.79,0,0,1,532.61,358Z" transform="translate(-22.06 -320.31)" style="fill:url(#radial-gradient-12)"/><path d="M482.31,358a3.76,3.76,0,1,1-.5,5.3A3.7,3.7,0,0,1,482.31,358Z" transform="translate(-22.06 -320.31)" style="fill:url(#radial-gradient-13)"/><path d="M739,358a3.76,3.76,0,1,1-.5,5.3A3.79,3.79,0,0,1,739,358Z" transform="translate(-22.06 -320.31)" style="fill:url(#radial-gradient-14)"/><path d="M688.71,358a3.76,3.76,0,1,1-.5,5.3A3.79,3.79,0,0,1,688.71,358Z" transform="translate(-22.06 -320.31)" style="fill:url(#radial-gradient-15)"/><rect x="197.46" y="196.62" width="142" height="201" style="fill:#a7cb64"/><path d="M333.11,683.53h-87.4a13.87,13.87,0,0,1-13.9-13.9V567.73a13.87,13.87,0,0,1,13.9-13.9h87.4a13.87,13.87,0,0,1,13.9,13.9v101.9A13.87,13.87,0,0,1,333.11,683.53Z" transform="translate(-22.06 -320.31)" style="fill:#88a84c"/><path d="M284.11,579.53h-27a1.79,1.79,0,0,1-1.8-1.8v-3.4a1.79,1.79,0,0,1,1.8-1.8h27a1.79,1.79,0,0,1,1.8,1.8v3.4A1.79,1.79,0,0,1,284.11,579.53Z" transform="translate(-22.06 -320.31)" style="fill:#a7cb64"/><path d="M284.11,593.83h-27a1.79,1.79,0,0,1-1.8-1.8v-3.4a1.79,1.79,0,0,1,1.8-1.8h27a1.79,1.79,0,0,1,1.8,1.8V592A1.86,1.86,0,0,1,284.11,593.83Z" transform="translate(-22.06 -320.31)" style="fill:#a7cb64"/><path d="M284.11,608h-27a1.79,1.79,0,0,1-1.8-1.8v-3.4a1.79,1.79,0,0,1,1.8-1.8h27a1.79,1.79,0,0,1,1.8,1.8v3.4A1.86,1.86,0,0,1,284.11,608Z" transform="translate(-22.06 -320.31)" style="fill:#a7cb64"/><path d="M284.11,622.23h-27a1.79,1.79,0,0,1-1.8-1.8V617a1.79,1.79,0,0,1,1.8-1.8h27a1.79,1.79,0,0,1,1.8,1.8v3.4A1.79,1.79,0,0,1,284.11,622.23Z" transform="translate(-22.06 -320.31)" style="fill:#a7cb64"/><path d="M284.11,636.43h-27a1.79,1.79,0,0,1-1.8-1.8v-3.4a1.79,1.79,0,0,1,1.8-1.8h27a1.79,1.79,0,0,1,1.8,1.8v3.4A1.79,1.79,0,0,1,284.11,636.43Z" transform="translate(-22.06 -320.31)" style="fill:#a7cb64"/><path d="M284.11,650.63h-27a1.79,1.79,0,0,1-1.8-1.8v-3.4a1.79,1.79,0,0,1,1.8-1.8h27a1.79,1.79,0,0,1,1.8,1.8v3.4A1.79,1.79,0,0,1,284.11,650.63Z" transform="translate(-22.06 -320.31)" style="fill:#a7cb64"/><path d="M284.11,664.83h-27a1.79,1.79,0,0,1-1.8-1.8v-3.4a1.79,1.79,0,0,1,1.8-1.8h27a1.79,1.79,0,0,1,1.8,1.8V663A1.79,1.79,0,0,1,284.11,664.83Z" transform="translate(-22.06 -320.31)" style="fill:#a7cb64"/><path d="M325,579.53H298a1.79,1.79,0,0,1-1.8-1.8v-3.4a1.79,1.79,0,0,1,1.8-1.8h27a1.79,1.79,0,0,1,1.8,1.8v3.4A1.79,1.79,0,0,1,325,579.53Z" transform="translate(-22.06 -320.31)" style="fill:#a7cb64"/><path d="M325,593.83H298a1.79,1.79,0,0,1-1.8-1.8v-3.4a1.79,1.79,0,0,1,1.8-1.8h27a1.79,1.79,0,0,1,1.8,1.8V592A1.86,1.86,0,0,1,325,593.83Z" transform="translate(-22.06 -320.31)" style="fill:#a7cb64"/><path d="M325,608H298a1.79,1.79,0,0,1-1.8-1.8v-3.4A1.79,1.79,0,0,1,298,601h27a1.79,1.79,0,0,1,1.8,1.8v3.4A1.86,1.86,0,0,1,325,608Z" transform="translate(-22.06 -320.31)" style="fill:#a7cb64"/><path d="M325,622.23H298a1.79,1.79,0,0,1-1.8-1.8V617a1.79,1.79,0,0,1,1.8-1.8h27a1.79,1.79,0,0,1,1.8,1.8v3.4A1.79,1.79,0,0,1,325,622.23Z" transform="translate(-22.06 -320.31)" style="fill:#a7cb64"/><path d="M325,636.43H298a1.79,1.79,0,0,1-1.8-1.8v-3.4a1.79,1.79,0,0,1,1.8-1.8h27a1.79,1.79,0,0,1,1.8,1.8v3.4A1.79,1.79,0,0,1,325,636.43Z" transform="translate(-22.06 -320.31)" style="fill:#a7cb64"/><path d="M325,650.63H298a1.79,1.79,0,0,1-1.8-1.8v-3.4a1.79,1.79,0,0,1,1.8-1.8h27a1.79,1.79,0,0,1,1.8,1.8v3.4A1.79,1.79,0,0,1,325,650.63Z" transform="translate(-22.06 -320.31)" style="fill:#a7cb64"/><path d="M325,664.83H298a1.79,1.79,0,0,1-1.8-1.8v-3.4a1.79,1.79,0,0,1,1.8-1.8h27a1.79,1.79,0,0,1,1.8,1.8V663A1.79,1.79,0,0,1,325,664.83Z" transform="translate(-22.06 -320.31)" style="fill:#a7cb64"/><path d="M426.21,517.63v-20.2a22.82,22.82,0,0,0-12.1-3.5h-11.3l-.3,1.2h-4.9l-.3-1.2h-24v3.4h-5.5v-3.4h-90.1l-9.9,23.7Zm-77.3-22.9-.1.4H345Z" transform="translate(-22.06 -320.31)" style="fill:#88a84c"/><path d="M426.21,517.63v-12.7H238.51c-9.4,0-17,5.6-17.1,12.7Z" transform="translate(-22.06 -320.31)" style="fill:#88a84c"/><path d="M361.51,518h47.7a44.37,44.37,0,0,1,34.8,16.8l67.6,85.4a45.75,45.75,0,0,1,9.9,28.3v38.8a30.49,30.49,0,0,1-30.5,30.5H361.51Z" transform="translate(-22.06 -320.31)" style="fill:#a7cb64"/><path d="M389.11,387.63l24,28.3a10.33,10.33,0,0,0,7.9,3.6h0a10.26,10.26,0,0,0,9-5.3l25.5-45.4a10.33,10.33,0,0,0-5.8-14.9l-6.8-2.2a9.73,9.73,0,0,0-5.6-.2l-48.7,11.8a10.34,10.34,0,0,0-5.7,16.4Z" transform="translate(-22.06 -320.31)" style="fill:#88a84c"/><path d="M430.31,555.43h-7.8a16.52,16.52,0,0,1,5.1.8,12.41,12.41,0,0,0-7.6,6.7l-6.2,15.1h7.8l6.2-15.1a12.41,12.41,0,0,1,7.6-6.7A16.52,16.52,0,0,0,430.31,555.43Z" transform="translate(-22.06 -320.31)" style="fill:#88a84c"/><path d="M421.61,555.43h-7.8c-5.8,0-10.9,3-12.8,7.6l-6.2,15.1h7.8l6.2-15.1C410.71,558.43,415.81,555.43,421.61,555.43Z" transform="translate(-22.06 -320.31)" style="fill:#88a84c"/><path d="M405.81,555.43H398c-5.8,0-10.9,3-12.8,7.6l-6.2,15.1h7.8L393,563C394.91,558.43,400,555.43,405.81,555.43Z" transform="translate(-22.06 -320.31)" style="fill:#88a84c"/><path d="M394.11,699.53c0,.4-.2.7-.6.7h-5a.67.67,0,0,1-.6-.7v-6.1c0-.4.2-.7.6-.7h5a.67.67,0,0,1,.6.7Z" transform="translate(-22.06 -320.31)" style="fill:#ed1c24"/><path d="M393.61,700.53h-5a.88.88,0,0,1-.8-.9v-6.2a.82.82,0,0,1,.8-.9h5a.88.88,0,0,1,.8.9v6.1C394.31,700.13,394,700.53,393.61,700.53Zm-5.1-7.5c-.2,0-.3.2-.3.4v6.1a.45.45,0,0,0,.3.4h5c.2,0,.3-.2.3-.4v-6.1a.45.45,0,0,0-.3-.4Z" transform="translate(-22.06 -320.31)" style="fill:#231f20"/><path d="M401.81,699.53c0,.4-.2.7-.6.7h-5a.67.67,0,0,1-.6-.7v-6.1c0-.4.2-.7.6-.7h5a.67.67,0,0,1,.6.7Z" transform="translate(-22.06 -320.31)" style="fill:#aba9a7"/><path d="M401.21,700.53h-5a.88.88,0,0,1-.8-.9v-6.2a.82.82,0,0,1,.8-.9h5a.88.88,0,0,1,.8.9v6.1C402,700.13,401.71,700.53,401.21,700.53Zm-5-7.5c-.2,0-.3.2-.3.4v6.1a.45.45,0,0,0,.3.4h5c.2,0,.3-.2.3-.4v-6.1a.45.45,0,0,0-.3-.4Z" transform="translate(-22.06 -320.31)" style="fill:#231f20"/><path d="M447.61,327.13a7.07,7.07,0,0,0-8.8-6.6l-4.8,1.2a7.17,7.17,0,0,0-3.4,1.9l-24.2,24.5a7.13,7.13,0,0,0,2.6,11.7l2,.7h17a20.1,20.1,0,0,0,20.1-20.9Zm-11.4,12.8a7,7,0,1,1,7-7A7,7,0,0,1,436.21,339.93Z" transform="translate(-22.06 -320.31)" style="fill:#a7cb64"/></svg>