<svg id="Layer_1" data-name="Layer 1" xmlns="http://www.w3.org/2000/svg" xmlns:xlink="http://www.w3.org/1999/xlink" viewBox="0 0 1130.5 591.7"><defs><linearGradient id="linear-gradient" x1="443.33" y1="-390.52" x2="443.33" y2="-416.37" gradientTransform="translate(-256.08 -0.48) rotate(90)" gradientUnits="userSpaceOnUse"><stop offset="0" stop-color="#fff"/><stop offset="1"/></linearGradient><radialGradient id="radial-gradient" cx="-2098.61" cy="641.8" r="6.19" gradientTransform="matrix(-0.79, -0.61, 0.61, -0.79, -1394.37, -49.04)" xlink:href="#linear-gradient"/><radialGradient id="radial-gradient-2" cx="-2184.29" cy="707.22" r="6.19" gradientTransform="matrix(-0.79, -0.61, 0.61, -0.79, -1394.37, -49.04)" xlink:href="#linear-gradient"/><radialGradient id="radial-gradient-3" cx="-2269.97" cy="772.63" r="6.2" gradientTransform="matrix(-0.79, -0.61, 0.61, -0.79, -1394.37, -49.04)" xlink:href="#linear-gradient"/><radialGradient id="radial-gradient-4" cx="-2355.64" cy="838.04" r="6.2" gradientTransform="matrix(-0.79, -0.61, 0.61, -0.79, -1394.37, -49.04)" xlink:href="#linear-gradient"/><radialGradient id="radial-gradient-5" cx="-2441.32" cy="903.45" r="6.2" gradientTransform="matrix(-0.79, -0.61, 0.61, -0.79, -1394.37, -49.04)" xlink:href="#linear-gradient"/><radialGradient id="radial-gradient-6" cx="-1974.3" cy="824.61" r="6.2" gradientTransform="matrix(-0.79, -0.61, 0.61, -0.79, -1394.37, -49.04)" xlink:href="#linear-gradient"/><radialGradient id="radial-gradient-7" cx="-2381.23" cy="1609.99" r="3.29" gradientTransform="translate(191.8 -2398.46) rotate(-59.83) scale(0.99)" xlink:href="#linear-gradient"/><radialGradient id="radial-gradient-8" cx="-2426.72" cy="1644.72" r="3.29" gradientTransform="translate(191.8 -2398.46) rotate(-59.83) scale(0.99)" xlink:href="#linear-gradient"/><radialGradient id="radial-gradient-9" cx="-2472.22" cy="1679.45" r="3.29" gradientTransform="translate(191.8 -2398.46) rotate(-59.83) scale(0.99)" xlink:href="#linear-gradient"/><radialGradient id="radial-gradient-10" cx="-2132.32" cy="597.65" r="6.19" gradientTransform="matrix(-0.79, -0.61, 0.61, -0.79, -1394.37, -49.04)" xlink:href="#linear-gradient"/><radialGradient id="radial-gradient-11" cx="-2218" cy="663.06" r="6.2" gradientTransform="matrix(-0.79, -0.61, 0.61, -0.79, -1394.37, -49.04)" xlink:href="#linear-gradient"/><radialGradient id="radial-gradient-12" cx="-2303.69" cy="728.47" r="6.2" gradientTransform="matrix(-0.79, -0.61, 0.61, -0.79, -1394.37, -49.04)" xlink:href="#linear-gradient"/><radialGradient id="radial-gradient-13" cx="-2389.36" cy="793.88" r="6.2" gradientTransform="matrix(-0.79, -0.61, 0.61, -0.79, -1394.37, -49.04)" xlink:href="#linear-gradient"/><radialGradient id="radial-gradient-14" cx="-2461.37" cy="877.18" r="6.2" gradientTransform="matrix(-0.79, -0.61, 0.61, -0.79, -1394.37, -49.04)" xlink:href="#linear-gradient"/></defs><title>Road rollar</title><path d="M571.35,559.75h-101a5.34,5.34,0,0,1-5.3-5.3v-17.6a5.34,5.34,0,0,1,5.3-5.3h101a5.34,5.34,0,0,1,5.3,5.3v17.6A5.34,5.34,0,0,1,571.35,559.75Z" transform="translate(-34.75 -304.15)" style="fill:#1a1b20"/><circle cx="904.94" cy="707.36" r="182.2" transform="translate(-269.88 542.92) rotate(-45)" style="fill:#d5cccc"/><path d="M905,895.85c-104,0-188.5-84.6-188.5-188.5s84.6-188.5,188.5-188.5,188.5,84.6,188.5,188.5S1009,895.85,905,895.85Zm0-364.3c-96.9,0-175.8,78.9-175.8,175.8s78.9,175.8,175.8,175.8,175.8-78.9,175.8-175.8-78.9-175.8-175.8-175.8Z" transform="translate(-34.75 -304.15)" style="fill:#d5cccc"/><circle cx="870.19" cy="403.21" r="160.9" style="fill:#312527"/><circle cx="870.19" cy="403.21" r="152" style="fill:#f6f6f6"/><circle cx="904.95" cy="707.36" r="143.3" transform="translate(-269.88 542.92) rotate(-45)" style="fill:#f6f6f6;opacity:0.6000000238418579;isolation:isolate"/><path d="M968.85,569.35a172.59,172.59,0,0,1,35,25.1c28.3,26,40.5,64.6,42.2,101.9a109.24,109.24,0,0,1-12.4,55.5,129.54,129.54,0,0,1-76.2,76.2,108.4,108.4,0,0,1-55.5,12.4c-39,0-73.7-16.3-101.9-42.2s-40.5-64.6-42.2-101.9a109.24,109.24,0,0,1,12.4-55.5,133,133,0,0,1,5.6-14,151.92,151.92,0,1,0,193-57.5Z" transform="translate(-34.75 -304.15)" style="fill:#dad1d1;opacity:0.6000000238418579;isolation:isolate"/><path d="M639.75,621.65c.7-1.5,1.4-2.9,2.1-4.4h-28.6l-3.6-55.9c-.6-6.8-1.1-13.1-1.5-19-3.5-44.9-5.3-67.4-19.3-67.4h-3v-2.2h18.3c17.1,0,22.8,18.6,34.1,55.5,2.8,9.2,6,19.7,9.9,31.1l10.9,33.6c1-1.1,2-2.2,3.1-3.2l-10.3-31.9c-3.8-11.4-7-21.8-9.8-31-11.6-37.7-18-58.5-37.8-58.5h-22.2l-2.7,153.4H582v.3h31.6v-.3h26.2Zm-53.9-4.4V479.35h2.9c10.4,0,12.2,22.5,15.4,63.3.5,5.9,1,12.3,1.5,19l3.6,55.6Z" transform="translate(-34.75 -304.15)" style="fill:#a7cb64"/><path d="M681.05,432.05l-64.4,35.3a1.43,1.43,0,0,1-1.8-.5l-3.1-5.6a1.43,1.43,0,0,1,.5-1.8l64.4-35.3a1.43,1.43,0,0,1,1.8.5l3.1,5.6A1.43,1.43,0,0,1,681.05,432.05Z" transform="translate(-34.75 -304.15)" style="fill:#231f20"/><path d="M677.25,478.25,657.65,489a1.43,1.43,0,0,1-1.8-.5l-19.5-35.7a1.43,1.43,0,0,1,.5-1.8l19.6-10.7a1.43,1.43,0,0,1,1.8.5l19.5,35.7A1.38,1.38,0,0,1,677.25,478.25Z" transform="translate(-34.75 -304.15)" style="fill:#231f20"/><path d="M515.05,317.05l-49.7,5.9a.45.45,0,0,0-.4.3l-61.6,141,21.6,153h22l-21.5-153,61.6-141c.1-.2.2-.3.4-.3l27.7-3.3v-2.6Z" transform="translate(-34.75 -304.15)" style="fill:#88a84c"/><polygon points="732 362.1 484.8 350.5 484.8 461.6 732 470.6 732 362.1" style="fill:#a7cb64"/><path d="M691.25,476.35c-3-2.5-8.7-2.3-13.4.5L652.65,492l5.8,57.7-28,18.8v54.3l2.1,4.8,126.5-76.5Z" transform="translate(-34.75 -304.15)" style="fill:#a7cb64"/><path d="M702.75,706.35l-2.8-.3-14.9-5.3-32.5,2L611.75,731H591v39.8h111.8Z" transform="translate(-34.75 -304.15)" style="fill:#88a84c"/><path d="M627.25,715.85l-56-3.3v9.7H608v8.9h-36.7v3.7H608v8.9h-36.7v3.7H608v8.9h-36.7v3.7H608V769h-36.7v6.2h13.9c10.7,0,20.8-.4,29.4-1.1a13.86,13.86,0,0,0,12.7-13.9v-44.3Z" transform="translate(-34.75 -304.15)" style="fill:#a7cb64"/><path d="M142.05,478.55v-71.4a1.79,1.79,0,0,1,1.78-1.8h16.62a1.79,1.79,0,0,1,1.8,1.78v71.42a1.79,1.79,0,0,1-1.78,1.8H143.85a1.79,1.79,0,0,1-1.8-1.78Z" transform="translate(-34.75 -304.15)" style="fill:url(#linear-gradient)"/><path d="M138.45,564.75V468a2.43,2.43,0,0,1,2.4-2.4h22.5a2.43,2.43,0,0,1,2.4,2.4v96.8a2.43,2.43,0,0,1-2.4,2.4h-22.5A2.43,2.43,0,0,1,138.45,564.75Z" transform="translate(-34.75 -304.15)" style="fill:#1a1b20"/><path d="M133.65,473.45h0a4.92,4.92,0,0,1,4.9-4.9h27.2a4.92,4.92,0,0,1,4.9,4.9h0a4.92,4.92,0,0,1-4.9,4.9h-27.2a4.84,4.84,0,0,1-4.9-4.78Z" transform="translate(-34.75 -304.15)" style="fill:#1a1b20"/><path d="M419.65,444.25l-384.9,137v110.1a14.65,14.65,0,0,0,8.9,13.5l168.6,72.3h353.3a11.5,11.5,0,0,0,11.5-11.5h0V622H469.25Z" transform="translate(-34.75 -304.15)" style="fill:#a7cb64"/><polygon points="615.6 478.3 615.6 382 681.1 333.9 1111.1 360.6 1130.5 436.5 975.6 495.6 615.6 478.3" style="fill:#88a84c"/><polygon points="1111.1 360.6 1058.5 357.3 1058.5 382.5 744.3 382.5 744.3 337.8 681.1 333.9 615.6 382 615.6 406.5 1122.8 406.5 1111.1 360.6" style="fill:#a7cb64"/><path d="M371.35,463.35l16.1,42.7-74.3,152.4H89.35A30.3,30.3,0,0,1,61.85,641l-27.1-57.9" transform="translate(-34.75 -304.15)" style="fill:#88a84c"/><rect x="556.6" y="13.7" width="8.7" height="1.8" style="fill:#faaa28"/><rect x="556.6" y="15.5" width="8.7" height="4.1" style="fill:#faaa28"/><rect x="464.9" y="15.5" width="91.7" height="4.1" style="fill:#faaa28"/><path d="M567.85,544.35h-74.8l-18.9-69.2a14.74,14.74,0,0,0-18-9.1l-32.8,9.5,50.1,146.3h84.1l25.4-53a16.87,16.87,0,0,0-15.1-24.5Z" transform="translate(-34.75 -304.15)" style="fill:#88a84c"/><path d="M292.55,536.25a.83.83,0,0,0,.74.9h7a.88.88,0,0,0,.8-.9v-7.7a.83.83,0,0,0-.74-.9h-7a.88.88,0,0,0-.8.9Z" transform="translate(-34.75 -304.15)" style="fill:#ed1c24"/><path d="M292.35,536.25v-7.7a1.2,1.2,0,0,1,1.1-1.2h6.9a1.13,1.13,0,0,1,1.1,1.16v7.74a1.2,1.2,0,0,1-1.1,1.2h-6.9a1.13,1.13,0,0,1-1.1-1.16Zm1-8.3a.47.47,0,0,0-.5.44v7.76a.47.47,0,0,0,.44.5h7a.47.47,0,0,0,.5-.44v-7.76a.47.47,0,0,0-.44-.5h-7Z" transform="translate(-34.75 -304.15)" style="fill:#231f20"/><path d="M282.05,536.25a.83.83,0,0,0,.74.9h7a.88.88,0,0,0,.8-.9v-7.7a.83.83,0,0,0-.74-.9h-7a.88.88,0,0,0-.8.9Z" transform="translate(-34.75 -304.15)" style="fill:#aba9a7"/><path d="M281.75,536.25v-7.7a1.2,1.2,0,0,1,1.1-1.2h6.9a1.13,1.13,0,0,1,1.1,1.16v7.74a1.2,1.2,0,0,1-1.1,1.2h-6.9A1.2,1.2,0,0,1,281.75,536.25Zm1.1-8.3a.47.47,0,0,0-.5.44v7.76a.47.47,0,0,0,.44.5h7a.47.47,0,0,0,.5-.44v-7.76a.47.47,0,0,0-.44-.5h-7Z" transform="translate(-34.75 -304.15)" style="fill:#231f20"/><path d="M1062.55,676.25a1,1,0,0,0,.9,1.09h8.9a1.1,1.1,0,0,0,1-1.1v-9.9a1,1,0,0,0-.89-1.1h-8.91a1.1,1.1,0,0,0-1,1.1Z" transform="translate(-34.75 -304.15)" style="fill:#ed1c24"/><path d="M1062.25,676.25v-9.9a1.43,1.43,0,0,1,1.3-1.5h8.8a1.43,1.43,0,0,1,1.3,1.5v9.9a1.43,1.43,0,0,1-1.3,1.5h-8.8A1.43,1.43,0,0,1,1062.25,676.25Zm1.3-10.6a.67.67,0,0,0-.6.7v9.9a.67.67,0,0,0,.6.7h8.8a.67.67,0,0,0,.6-.7v-9.9a.67.67,0,0,0-.6-.7Z" transform="translate(-34.75 -304.15)" style="fill:#231f20"/><path d="M1049.15,676.25a1,1,0,0,0,.9,1.09h8.9a1.1,1.1,0,0,0,1-1.1v-9.9a1,1,0,0,0-.89-1.1h-8.91a1.1,1.1,0,0,0-1,1.1Z" transform="translate(-34.75 -304.15)" style="fill:#aba9a7"/><path d="M1048.85,676.25v-9.9a1.43,1.43,0,0,1,1.3-1.5h8.8a1.43,1.43,0,0,1,1.3,1.5v9.9a1.43,1.43,0,0,1-1.3,1.5h-8.8A1.43,1.43,0,0,1,1048.85,676.25Zm1.3-10.6a.67.67,0,0,0-.6.7v9.9a.67.67,0,0,0,.6.7h8.8a.67.67,0,0,0,.6-.7v-9.9a.67.67,0,0,0-.6-.7Z" transform="translate(-34.75 -304.15)" style="fill:#231f20"/><path d="M645.15,635.45H473.85L403.75,447a9.59,9.59,0,0,1,18-6.6l65.4,176h151.9l104.8-72.1a9.57,9.57,0,0,1,11,15.66l-.2.14Z" transform="translate(-34.75 -304.15)" style="fill:#88a84c"/><path d="M501.15,315.15l-49.7,5.9a.45.45,0,0,0-.4.3l-59.7,136.7a16.6,16.6,0,0,0-1.2,9.1l20.9,148.3h22l-21.5-153,61.6-141c.1-.2.2-.3.4-.3l27.7-3.3v-2.7Z" transform="translate(-34.75 -304.15)" style="fill:#a7cb64"/><path d="M403.45,343.25v-5.8c0-12.1,10.1-21.9,22.6-21.9l254.2-11.4c12.5,0,22.6,11.8,22.6,26.3v12.8Z" transform="translate(-34.75 -304.15)" style="fill:#a7cb64"/><path d="M157.55,588.15V572a.9.9,0,0,1,.9-.9H162a.9.9,0,0,1,.9.9v16.2a.9.9,0,0,1-.9.9h-3.5C158,589.15,157.55,588.65,157.55,588.15Z" transform="translate(-34.75 -304.15)" style="fill:#a7cb64"/><path d="M146.85,588.15V572a.9.9,0,0,1,.9-.9h3.5a.9.9,0,0,1,.9.9v16.2a.9.9,0,0,1-.9.9h-3.5C147.25,589.15,146.85,588.65,146.85,588.15Z" transform="translate(-34.75 -304.15)" style="fill:#a7cb64"/><path d="M136.05,588.15V572a.9.9,0,0,1,.9-.9h3.5a.9.9,0,0,1,.9.9v16.2a.9.9,0,0,1-.9.9h-3.4a.86.86,0,0,1-1-.73A1,1,0,0,1,136.05,588.15Z" transform="translate(-34.75 -304.15)" style="fill:#a7cb64"/><path d="M125.35,588.15V572a.9.9,0,0,1,.9-.9h3.5a.9.9,0,0,1,.9.9v16.2a.9.9,0,0,1-.9.9h-3.5C125.75,589.15,125.35,588.65,125.35,588.15Z" transform="translate(-34.75 -304.15)" style="fill:#a7cb64"/><path d="M114.55,588.15V572a.9.9,0,0,1,.9-.9H119a.9.9,0,0,1,.9.9v16.2a.9.9,0,0,1-.9.9h-3.5C115.05,589.15,114.55,588.65,114.55,588.15Z" transform="translate(-34.75 -304.15)" style="fill:#a7cb64"/><path d="M103.85,588.15V572a.9.9,0,0,1,.9-.9h3.5a.9.9,0,0,1,.9.9v16.2a.9.9,0,0,1-.9.9h-3.5C104.25,589.15,103.85,588.65,103.85,588.15Z" transform="translate(-34.75 -304.15)" style="fill:#a7cb64"/><path d="M93.05,588.15V572a.9.9,0,0,1,.9-.9h3.5a.9.9,0,0,1,.9.9v16.2a.9.9,0,0,1-.9.9h-3.4a.93.93,0,0,1-1-.84Z" transform="translate(-34.75 -304.15)" style="fill:#a7cb64"/><path d="M157.55,612.35v-16.2a.9.9,0,0,1,.9-.9H162a.9.9,0,0,1,.9.9h0v16.2a.9.9,0,0,1-.9.9h-3.5a.9.9,0,0,1-.9-.9Z" transform="translate(-34.75 -304.15)" style="fill:#a7cb64"/><path d="M146.85,612.35v-16.2a.9.9,0,0,1,.9-.9h3.5a.9.9,0,0,1,.9.9h0v16.2a.9.9,0,0,1-.9.9h-3.5a.9.9,0,0,1-.9-.9Z" transform="translate(-34.75 -304.15)" style="fill:#a7cb64"/><path d="M136.05,612.35v-16.2a.9.9,0,0,1,.9-.9h3.5a.9.9,0,0,1,.9.9h0v16.2a.9.9,0,0,1-.9.9h-3.4a.93.93,0,0,1-1-.84Z" transform="translate(-34.75 -304.15)" style="fill:#a7cb64"/><path d="M125.35,612.35v-16.2a.9.9,0,0,1,.9-.9h3.5a.9.9,0,0,1,.9.9h0v16.2a.9.9,0,0,1-.9.9h-3.5a.9.9,0,0,1-.9-.9Z" transform="translate(-34.75 -304.15)" style="fill:#a7cb64"/><path d="M114.55,612.35v-16.2a.9.9,0,0,1,.9-.9H119a.9.9,0,0,1,.9.9h0v16.2a.9.9,0,0,1-.9.9h-3.5A1,1,0,0,1,114.55,612.35Z" transform="translate(-34.75 -304.15)" style="fill:#a7cb64"/><path d="M103.85,612.35v-16.2a.9.9,0,0,1,.9-.9h3.5a.9.9,0,0,1,.9.9h0v16.2a.9.9,0,0,1-.9.9h-3.5a.9.9,0,0,1-.9-.9Z" transform="translate(-34.75 -304.15)" style="fill:#a7cb64"/><path d="M93.05,612.35v-16.2a.9.9,0,0,1,.9-.9h3.5a.9.9,0,0,1,.9.9h0v16.2a.9.9,0,0,1-.9.9h-3.4A1,1,0,0,1,93.05,612.35Z" transform="translate(-34.75 -304.15)" style="fill:#a7cb64"/><path d="M157.55,636.55v-16.2a.9.9,0,0,1,.9-.9H162a.9.9,0,0,1,.9.9h0v16.2a.9.9,0,0,1-.9.9h-3.5a.9.9,0,0,1-.9-.9Z" transform="translate(-34.75 -304.15)" style="fill:#a7cb64"/><path d="M146.85,636.55v-16.2a.9.9,0,0,1,.9-.9h3.5a.9.9,0,0,1,.9.9h0v16.2a.9.9,0,0,1-.9.9h-3.5a.9.9,0,0,1-.9-.9Z" transform="translate(-34.75 -304.15)" style="fill:#a7cb64"/><path d="M136.05,636.55v-16.2a.9.9,0,0,1,.9-.9h3.5a.9.9,0,0,1,.9.9h0v16.2a.9.9,0,0,1-.9.9h-3.4a.93.93,0,0,1-1-.84Z" transform="translate(-34.75 -304.15)" style="fill:#a7cb64"/><path d="M125.35,636.55v-16.2a.9.9,0,0,1,.9-.9h3.5a.9.9,0,0,1,.9.9h0v16.2a.9.9,0,0,1-.9.9h-3.5a.9.9,0,0,1-.9-.9Z" transform="translate(-34.75 -304.15)" style="fill:#a7cb64"/><path d="M114.55,636.55v-16.2a.9.9,0,0,1,.9-.9H119a.9.9,0,0,1,.9.9h0v16.2a.9.9,0,0,1-.9.9h-3.5A1,1,0,0,1,114.55,636.55Z" transform="translate(-34.75 -304.15)" style="fill:#a7cb64"/><path d="M103.85,636.55v-16.2a.9.9,0,0,1,.9-.9h3.5a.9.9,0,0,1,.9.9h0v16.2a.9.9,0,0,1-.9.9h-3.5a.9.9,0,0,1-.9-.9Z" transform="translate(-34.75 -304.15)" style="fill:#a7cb64"/><path d="M93.05,636.55v-16.2a.9.9,0,0,1,.9-.9h3.5a.9.9,0,0,1,.9.9h0v16.2a.9.9,0,0,1-.9.9h-3.4A1,1,0,0,1,93.05,636.55Z" transform="translate(-34.75 -304.15)" style="fill:#a7cb64"/><path d="M660.25,716a6.21,6.21,0,1,1,1.2,8.7A6.21,6.21,0,0,1,660.25,716Z" transform="translate(-34.75 -304.15)" style="fill:url(#radial-gradient)"/><path d="M768.05,716a6.21,6.21,0,1,1,1.2,8.7,6.12,6.12,0,0,1-1.3-8.57Z" transform="translate(-34.75 -304.15)" style="fill:url(#radial-gradient-2)"/><path d="M875.85,716a6.21,6.21,0,1,1,1.2,8.7,6.12,6.12,0,0,1-1.3-8.57Z" transform="translate(-34.75 -304.15)" style="fill:url(#radial-gradient-3)"/><path d="M983.65,716a6.21,6.21,0,1,1,1.2,8.7,6.12,6.12,0,0,1-1.3-8.57Z" transform="translate(-34.75 -304.15)" style="fill:url(#radial-gradient-4)"/><path d="M1091.45,716a6.21,6.21,0,1,1,1.2,8.7,6.12,6.12,0,0,1-1.3-8.57Z" transform="translate(-34.75 -304.15)" style="fill:url(#radial-gradient-5)"/><path d="M672.35,495.15a6.21,6.21,0,1,1,1.2,8.7A6.32,6.32,0,0,1,672.35,495.15Z" transform="translate(-34.75 -304.15)" style="fill:url(#radial-gradient-6)"/><path d="M384.05,462.25a3.29,3.29,0,1,1-4.5,1.2,3.29,3.29,0,0,1,4.5-1.2Z" transform="translate(-34.75 -304.15)" style="fill:url(#radial-gradient-7)"/><path d="M391.25,519.05a3.29,3.29,0,1,1-4.5,1.2,3.29,3.29,0,0,1,4.5-1.2Z" transform="translate(-34.75 -304.15)" style="fill:url(#radial-gradient-8)"/><path d="M398.45,575.85a3.29,3.29,0,1,1-4.5,1.2,3.29,3.29,0,0,1,4.5-1.2Z" transform="translate(-34.75 -304.15)" style="fill:url(#radial-gradient-9)"/><path d="M660.25,771.45a6.21,6.21,0,1,1,1.2,8.7A6.21,6.21,0,0,1,660.25,771.45Z" transform="translate(-34.75 -304.15)" style="fill:url(#radial-gradient-10)"/><path d="M768.05,771.45a6.21,6.21,0,1,1,1.2,8.7,6.12,6.12,0,0,1-1.3-8.57Z" transform="translate(-34.75 -304.15)" style="fill:url(#radial-gradient-11)"/><path d="M875.85,771.45a6.21,6.21,0,1,1,1.2,8.7,6.12,6.12,0,0,1-1.3-8.57Z" transform="translate(-34.75 -304.15)" style="fill:url(#radial-gradient-12)"/><path d="M983.65,771.45a6.21,6.21,0,1,1,1.2,8.7,6.12,6.12,0,0,1-1.3-8.57Z" transform="translate(-34.75 -304.15)" style="fill:url(#radial-gradient-13)"/><path d="M1091.45,749a6.21,6.21,0,1,1,1.2,8.7,6.12,6.12,0,0,1-1.3-8.57Z" transform="translate(-34.75 -304.15)" style="fill:url(#radial-gradient-14)"/><circle cx="299.3" cy="429.9" r="155.7" style="fill:#382f2d"/><circle cx="299.3" cy="429.9" r="136.4" style="fill:#312527"/><circle cx="299.3" cy="429.9" r="77.8" style="fill:#f6f6f6"/><circle cx="299.3" cy="429.9" r="55.4" style="fill:#d5cccc"/><circle cx="299.28" cy="429.94" r="41.5" style="fill:#f6f6f6"/><rect x="276.8" y="268.1" width="37.2" height="13" style="fill:#382f2d"/><rect x="258.74" y="582.94" width="37.2" height="13" transform="translate(-219.62 -173.75) rotate(-20)" style="fill:#382f2d"/><rect x="212.67" y="611.15" width="37.2" height="13" transform="translate(-377.66 -10.99) rotate(-40)" style="fill:#382f2d"/><rect x="179.08" y="653.32" width="37.2" height="13" transform="translate(-507.33 196.96) rotate(-60)" style="fill:#382f2d"/><rect x="161.85" y="704.48" width="37.2" height="13" transform="translate(-585.81 461.08) rotate(-80)" style="fill:#382f2d"/><rect x="171.96" y="743.72" width="12.93" height="37" transform="translate(-162.4 -262.44) rotate(-9.84)" style="fill:#382f2d"/><rect x="195.04" y="796.5" width="13" height="37.2" transform="translate(-415.3 -94.18) rotate(-30)" style="fill:#382f2d"/><rect x="451.97" y="801.86" width="37.2" height="13" transform="translate(-499.52 507.55) rotate(-60)" style="fill:#382f2d"/><rect x="469.12" y="750.81" width="37.2" height="13" transform="translate(-377.53 801.97) rotate(-80)" style="fill:#382f2d"/><rect x="479.9" y="684.6" width="13" height="37.2" transform="translate(-149.47 -209) rotate(-10)" style="fill:#382f2d"/><rect x="460.16" y="634.46" width="13" height="37.2" transform="translate(-298.76 16.68) rotate(-30)" style="fill:#382f2d"/><rect x="424.4" y="594" width="13" height="37.2" transform="translate(-350.1 244.77) rotate(-50)" style="fill:#382f2d"/><rect x="377.05" y="568.26" width="13" height="37.2" transform="translate(-333.85 442.41) rotate(-70)" style="fill:#382f2d"/><path d="M341,671a8,8,0,1,1-8-8A8,8,0,0,1,341,671Z" transform="translate(-34.75 -304.15)" style="fill:#382f2d"/><path d="M297.65,681.85a8,8,0,1,1-11.27-.94l.07-.06A8,8,0,0,1,297.65,681.85Z" transform="translate(-34.75 -304.15)" style="fill:#382f2d"/><path d="M271.55,718.05a8,8,0,1,1-9.21,6.57v-.07a7.93,7.93,0,0,1,9.11-6.52Z" transform="translate(-34.75 -304.15)" style="fill:#382f2d"/><path d="M274.85,762.55A8,8,0,1,1,272,773.49l0,0A8,8,0,0,1,274.85,762.55Z" transform="translate(-34.75 -304.15)" style="fill:#382f2d"/><path d="M306,794.55a8,8,0,1,1,4.85,10.22l-.05,0a7.94,7.94,0,0,1-4.82-10.14Z" transform="translate(-34.75 -304.15)" style="fill:#382f2d"/><path d="M350.35,799.05a8,8,0,1,1,10.25,4.78l-.05,0A8.1,8.1,0,0,1,350.35,799.05Z" transform="translate(-34.75 -304.15)" style="fill:#382f2d"/><path d="M387.25,774A8,8,0,1,1,398.17,771l0,0A8,8,0,0,1,387.25,774Z" transform="translate(-34.75 -304.15)" style="fill:#382f2d"/><path d="M399.35,731.05a8,8,0,1,1,6.49-9.27v.07A8,8,0,0,1,399.35,731.05Z" transform="translate(-34.75 -304.15)" style="fill:#382f2d"/><path d="M381.05,690.35A8,8,0,1,1,380,679.09l.07.06a7.85,7.85,0,0,1,1.13,11C381.14,690.25,381.09,690.3,381.05,690.35Z" transform="translate(-34.75 -304.15)" style="fill:#382f2d"/><path d="M562.55,763.05h-57.5a4.8,4.8,0,0,1-4.8-4.8v-95.1a4.8,4.8,0,0,1,4.8-4.8h57.6a4.8,4.8,0,0,1,4.8,4.8v95.1A4.89,4.89,0,0,1,562.55,763.05Z" transform="translate(-34.75 -304.15)" style="fill:#88a84c"/></svg>