<svg id="Layer_1" data-name="Layer 1" xmlns="http://www.w3.org/2000/svg" xmlns:xlink="http://www.w3.org/1999/xlink" viewBox="0 0 1192.9 554.22"><defs><radialGradient id="radial-gradient" cx="-2794.81" cy="945.78" r="7.01" gradientTransform="matrix(0.98, 0.22, -0.22, 0.98, 2953.83, 401.67)" gradientUnits="userSpaceOnUse"><stop offset="0" stop-color="#fff"/><stop offset="1"/></radialGradient><linearGradient id="linear-gradient" x1="-1674.34" y1="-1476.19" x2="-1674.34" y2="-1489.35" gradientTransform="matrix(0.42, -1.18, 1.1, 0.39, 2397.15, -739.99)" xlink:href="#radial-gradient"/><radialGradient id="radial-gradient-2" cx="-1317.55" cy="1177.42" r="10.24" gradientTransform="matrix(-0.24, -0.97, -0.97, 0.24, 1824.93, -740.18)" xlink:href="#radial-gradient"/><linearGradient id="linear-gradient-2" x1="781.07" y1="997.81" x2="781.07" y2="975.38" gradientTransform="matrix(-0.82, 0.26, 0.26, 0.82, 1279.97, -366.54)" xlink:href="#radial-gradient"/></defs><title>Front and backhoe loader</title><path d="M27.15,716.41a7,7,0,1,1-5.3-8.4,7,7,0,0,1,5.3,8.4Z" transform="translate(-3.55 -322.89)" style="fill:url(#radial-gradient)"/><path d="M47.25,717.51l-14.5,82.9a3.64,3.64,0,0,1-2.2,2.6,10.41,10.41,0,0,1-4.9,1.1,11,11,0,0,1-1.9-.1c-3-.4-5.3-1.7-5.7-3.4l-8.8-91.5a2.72,2.72,0,0,1,1.1-2.6l8.2-6.8c1.8-1.5,5.1-2.1,8.1-1.6a14.1,14.1,0,0,1,3.1.9l8.3,4.1c.5.3,1,.6,1.4.9l3.1,2.7a4.52,4.52,0,0,1,.9,1.1l3.7,8.5A2.45,2.45,0,0,1,47.25,717.51Z" transform="translate(-3.55 -322.89)" style="fill:#88a84c"/><path d="M43.65,716.51l-14.6,83.9a3.91,3.91,0,0,1-2.2,2.6,8.65,8.65,0,0,1-3.1.9c-3-.4-5.3-1.7-5.7-3.4L9.25,709a2.72,2.72,0,0,1,1.1-2.6l8.2-6.8c1.8-1.5,5.1-2.1,8.1-1.6l7.7,3.8c.5.3,1,.6,1.4.9l3.1,2.8a4.6,4.6,0,0,1,.9,1.2l3.8,8.7A3.7,3.7,0,0,1,43.65,716.51Z" transform="translate(-3.55 -322.89)" style="fill:#88a84c"/><path d="M18.45,717.71A9.67,9.67,0,0,1,25.56,706l.09,0a9.9,9.9,0,0,1,11.8,7.2,9.67,9.67,0,0,1-7.11,11.68l-.09,0A9.9,9.9,0,0,1,18.45,717.71Z" transform="translate(-3.55 -322.89)" style="fill:#a7cb64"/><path d="M174.65,349.41a19.11,19.11,0,1,0,1.2,27A19.11,19.11,0,0,0,174.65,349.41Z" transform="translate(-3.55 -322.89)" style="fill:#a7cb64"/><rect x="223.6" y="310.02" width="25.1" height="74" style="fill:#a7cb64"/><polygon points="3.4 420.82 23.9 429.52 120.7 223.62 93 211.72 3.4 420.82" style="fill:#88a84c"/><path d="M218,700.81a14.78,14.78,0,0,1,2.1-.2l11.3-4.9,24.7,1.9,31,26h15.8v36.7h-85v-59.5Z" transform="translate(-3.55 -322.89)" style="fill:#a7cb64"/><path d="M275.35,709.61l42.6-3.1v8.9h-27.9v8.2H318V727h-27.9v8.2H318v3.4h-27.9v8.2H318v3.4h-27.9v8.2H318v5.8h-10.5a199.4,199.4,0,0,1-32.1-2.3Z" transform="translate(-3.55 -322.89)" style="fill:#a7cb64"/><path d="M966.55,776.41l53.4-39.2a10.38,10.38,0,0,1,14.5,2.2l3.6,4.9a10.38,10.38,0,0,1-2.2,14.5l-58.6,43.1A100.09,100.09,0,0,0,966.55,776.41Z" transform="translate(-3.55 -322.89)" style="fill:#88a84c"/><polygon points="670.3 363.32 640.6 131.52 381.2 131.52 351.5 383.42 663.1 383.42 670.3 363.32" style="fill:#88a84c"/><path d="M325.15,665.41l12.6-56.1a27.38,27.38,0,0,1,26.7-21.4h8l23.8,150.7,18.9,36.9h-90Z" transform="translate(-3.55 -322.89)" style="fill:#a7cb64"/><path d="M606.55,456.61h-154l.1-6.2c.2-14.7,9.4-26.5,20.7-26.5h10.1l.3,1.4h4.4l.3-1.4h21.6v3.9H515v-3.9h16.8l.2,1.4h3.4l-10.5-1.4h71Z" transform="translate(-3.55 -322.89)" style="fill:#a7cb64"/><path d="M769.25,774.21l-.9-3.6h-15.3l-.9,3.6h-75v-10.4h-17.1v10.4h-58.5l-.7-3.6h-12l-.7,3.6H330.05a386.18,386.18,0,0,1,.1-52.7l2.6-33.8h543.9l-.2,16.3c-.6,38.9-32.7,70.1-72.1,70.1h-35.1Z" transform="translate(-3.55 -322.89)" style="fill:#88a84c"/><path d="M405.05,519.11Z" transform="translate(-3.55 -322.89)" style="fill:#ffb932;stroke:#a97c50;stroke-miterlimit:10;stroke-width:0.6625000238418579px"/><path d="M379.65,441h-4.3v-29.3c0-3.4,4.1-6.4,10.1-7.3l8.7-6.9,19.2,2.6,24,36.5H631c8.5,0,15.4,6.6,15.4,14.7v4H375.25v-4A14.55,14.55,0,0,1,379.65,441Z" transform="translate(-3.55 -322.89)" style="fill:#88a84c"/><path d="M620.85,672.51a1,1,0,0,0,.8,1H629a.92.92,0,0,0,.8-1v-8.8a1,1,0,0,0-.8-1h-7.3a.92.92,0,0,0-.8,1Z" transform="translate(-3.55 -322.89)" style="fill:#ed1c24"/><path d="M620.55,672.51v-8.8a1.23,1.23,0,0,1,1.1-1.3H629a1.23,1.23,0,0,1,1.1,1.3v8.8a1.23,1.23,0,0,1-1.1,1.3h-7.3A1.23,1.23,0,0,1,620.55,672.51Zm1.1-9.4a.56.56,0,0,0-.5.6v8.8a.56.56,0,0,0,.5.6H629a.56.56,0,0,0,.5-.6v-8.8a.56.56,0,0,0-.5-.6Z" transform="translate(-3.55 -322.89)" style="fill:#231f20"/><path d="M609.75,672.51a1,1,0,0,0,.8,1h7.3a.92.92,0,0,0,.8-1v-8.8a1,1,0,0,0-.8-1h-7.3a.92.92,0,0,0-.8,1Z" transform="translate(-3.55 -322.89)" style="fill:#aba9a7"/><path d="M609.45,672.51v-8.8a1.23,1.23,0,0,1,1.1-1.3h7.3a1.23,1.23,0,0,1,1.1,1.3v8.8a1.23,1.23,0,0,1-1.1,1.3h-7.3A1.23,1.23,0,0,1,609.45,672.51Zm1.1-9.4a.56.56,0,0,0-.5.6v8.8a.56.56,0,0,0,.5.6h7.3a.56.56,0,0,0,.5-.6v-8.8a.56.56,0,0,0-.5-.6Z" transform="translate(-3.55 -322.89)" style="fill:#231f20"/><polygon points="390 387.52 577.7 387.52 577.3 388.62 871.4 388.62 884.6 304.62 649.4 244.02 621.5 131.52 371.6 131.52 342.3 383.42 394.6 383.42 390 387.52" style="fill:#a7cb64"/><path d="M523.25,469.31h55.8c13,0,24.3,6.9,27.7,16.8L646.55,588l-8.3,6.3h-115Z" transform="translate(-3.55 -322.89)" style="fill:#403430;opacity:0.9300000071525574;isolation:isolate"/><path d="M678.55,555.41a.79.79,0,0,1,.4.1c6.1.8,12.1,1.8,18.1,2.7s12,1.9,18,3.1c23.9,4.3,47.5,9.4,70.9,15.1,41.9,10.3,83.1,22.5,123.8,36.2l11.8-9.5a32.42,32.42,0,0,1,45.58,5l0,0h0a32.42,32.42,0,0,1-5,45.58l0,0-10,8.1c11.3,28.8,21.8,57.9,31.3,87.4q9.6,29.7,17.5,60.2c1.3,5.1,2.6,10.2,3.8,15.3l1.8,7.7,1.7,7.7a.37.37,0,0,0,.1.3c1.6,7.6-8.4,11.9-12.7,5.5-.1-.1-.1-.2-.2-.3l-4.5-6.5-4.3-6.6c-2.9-4.4-5.7-8.8-8.5-13.3q-16.8-26.7-31.8-54c-18.2-32.9-34.8-66.4-50.3-100.4-42-13.8-83.4-29.1-124.2-46.6-22.2-9.5-44.1-19.6-65.8-30.5-5.4-2.7-10.8-5.6-16.2-8.3-5.4-2.9-10.7-5.7-16.1-8.7-.1-.1-.2-.1-.3-.2C665.75,566.11,669.75,554.21,678.55,555.41Z" transform="translate(-3.55 -322.89)" style="fill:#88a84c"/><path d="M920.65,625.21a20.42,20.42,0,1,0,22.5-18.1h0A20.44,20.44,0,0,0,920.65,625.21Z" transform="translate(-3.55 -322.89)" style="fill:#a7cb64"/><path d="M297.55,817.41v-35a50.28,50.28,0,0,1,1.7-13.2v-7.1l1.3-.3v-4.4l-1.3-.3v-21.6H303v-4.9h-3.7v-16.8l1.3-.2v-3.4l-1.3-.2v-70.9h31v120.3c3.5,5.9,5.6,14,5.6,23v35h5.6v24.8H292v-24.8Z" transform="translate(-3.55 -322.89)" style="fill:#88a84c"/><path d="M756.05,781.91v-21.2a48.73,48.73,0,0,1,.6-8v-4.3l.5-.2v-2.7l-.5-.2v-13.1h1.4v-3h-1.4V719l.5-.1v-2.1l-.5-.1v-42.9h11.8v73a42.29,42.29,0,0,1,2.1,13.9v21.2h2.1v15h-18.8v-15Z" transform="translate(-3.55 -322.89)" style="fill:#a7cb64"/><path d="M88.05,573.11l-58.6,165.8a2.47,2.47,0,0,1-3.16,1.51h0l-6.7-2.4A2.47,2.47,0,0,1,18,734.85v0L76.65,569a2.47,2.47,0,0,1,3.16-1.51h0l6.7,2.4a2.47,2.47,0,0,1,1.51,3.16Z" transform="translate(-3.55 -322.89)" style="fill:url(#linear-gradient)"/><path d="M159.55,377.31l-79.4,224.8a3.47,3.47,0,0,1-4.3,2.1l-9.1-3.2a3.47,3.47,0,0,1-2.1-4.3l79.5-224.9a3.47,3.47,0,0,1,4.3-2.1l9.1,3.2A3.54,3.54,0,0,1,159.55,377.31Z" transform="translate(-3.55 -322.89)" style="fill:#1a1b20"/><path d="M90.85,580.41l-5.4,15.3a3.79,3.79,0,0,1-4.8,2.3l-13.8-4.9a3.79,3.79,0,0,1-2.3-4.8L70,573a3.79,3.79,0,0,1,4.8-2.3l13.8,4.9A3.79,3.79,0,0,1,90.85,580.41Z" transform="translate(-3.55 -322.89)" style="fill:#1a1b20"/><path d="M101.15,745.11l-92.8-25.4a5.27,5.27,0,0,1-3.1-3,16.91,16.91,0,0,1-1.6-6,8.85,8.85,0,0,1,0-2.3c.2-3.5,1.7-6.1,3.6-6.4l101.2-1.3a4,4,0,0,1,3.1,1.6l8.4,10.6c1.8,2.3,2.7,6.3,2.4,9.8a9.94,9.94,0,0,1-.9,3.6l-4.2,9.4a9.46,9.46,0,0,1-.9,1.5l-3,3.3a3.89,3.89,0,0,1-1.3.9l-9.6,3.4A1.34,1.34,0,0,1,101.15,745.11Z" transform="translate(-3.55 -322.89)" style="fill:#88a84c"/><path d="M102.05,740.91l-94-25.7a5.68,5.68,0,0,1-3.2-3,12.77,12.77,0,0,1-1.3-3.8c.2-3.5,1.7-6.1,3.6-6.4l101.2-1.3a4,4,0,0,1,3.1,1.6l8.4,10.6c1.8,2.3,2.7,6.3,2.4,9.8l-3.9,8.7a5.62,5.62,0,0,1-1,1.5l-3,3.4a3.89,3.89,0,0,1-1.3.9l-9.8,3.4A1.09,1.09,0,0,1,102.05,740.91Z" transform="translate(-3.55 -322.89)" style="fill:#88a84c"/><circle cx="105.63" cy="720.38" r="11.4" transform="translate(-624.92 357.76) rotate(-78.53)" style="fill:#a7cb64"/><path d="M70.75,844h-11a20.24,20.24,0,0,1-20.1-18.6l-2.2-8.7-6-18.4-1.1-4.3-7.7-26.2,4-2.1,11.8,22.6,137.3-102.6,6.2-24.4h4.6v29.6l-.2,118.7C148.85,906.81,70.75,844,70.75,844Z" transform="translate(-3.55 -322.89)" style="fill:#88a84c"/><path d="M72.85,851.71h-11a20.16,20.16,0,0,1-20.1-18.6l-2.2-8.7-6-18.4-1.1-4.3-7.7-26.3,4-2.1L40.55,796l137.2-102.8,6.2-24.4h4.6v29.7l-.2,118.9C151,914.71,72.85,851.71,72.85,851.71Z" transform="translate(-3.55 -322.89)" style="fill:#a7cb64"/><path d="M79.55,856.51a146.84,146.84,0,0,0,19.9.2c21.6-1.1,39.6-8.4,55.5-22.8,15.4-14.1,22.1-35.1,23.1-55.4.9-19.5-9.3-41.9-22.8-55.5a73.19,73.19,0,0,0-7.7-6.7l30.5-22.8,6.2-24.4h4.6l-.3,148.3C157.55,897.41,99.25,869,79.55,856.51Z" transform="translate(-3.55 -322.89)" style="fill:#88a84c"/><path d="M1013.45,771.51l58.5,15.8c.9.3,2.1-.2,3.2-1.2a14.42,14.42,0,0,0,3.2-4.2,13.15,13.15,0,0,0,.8-1.8c1-2.9.9-5.6-.4-6.5l-55.3-40.7a2.42,2.42,0,0,0-2.7.1l-9.6,5.3c-2.1,1.2-4.1,4-5.1,7a9.54,9.54,0,0,0-.6,3.3l-.3,9.3a7.78,7.78,0,0,0,.1,1.6l1,3.8a2.29,2.29,0,0,0,.6,1.2l5.7,6.5A1.05,1.05,0,0,0,1013.45,771.51Z" transform="translate(-3.55 -322.89)" style="fill:#a7cb64"/><path d="M1014.25,767.81l59.4,16.1c.9.3,2.1-.2,3.3-1.2a10.92,10.92,0,0,0,2.2-2.5c1-2.9.9-5.6-.4-6.5l-55.3-40.7a2.42,2.42,0,0,0-2.7.1l-9.6,5.3c-2.1,1.2-4.1,4-5.1,7l-.3,8.6a4.15,4.15,0,0,0,.2,1.6l1,3.9a2.29,2.29,0,0,0,.6,1.2l5.8,6.6A2,2,0,0,0,1014.25,767.81Z" transform="translate(-3.55 -322.89)" style="fill:#88a84c"/><path d="M1023.25,739.61a10.25,10.25,0,1,0,10.5,10,10.14,10.14,0,0,0-10.27-10Z" transform="translate(-3.55 -322.89)" style="fill:#a7cb64"/><path d="M1012,842l48.6-36.3c.8-.6,1.1-1.8,1.1-3.3a12,12,0,0,0-1.4-5.1,9.36,9.36,0,0,0-1-1.7c-1.7-2.6-3.8-4.2-5.4-3.8l-66.2,18.4a2.47,2.47,0,0,0-1.6,2.2l-1.8,10.8c-.4,2.4.6,5.7,2.3,8.3a9.07,9.07,0,0,0,2.2,2.5l7.1,5.9a7.73,7.73,0,0,0,1.3.9l3.6,1.6a3.43,3.43,0,0,0,1.3.3l8.6-.4A2.06,2.06,0,0,0,1012,842Z" transform="translate(-3.55 -322.89)" style="fill:#a7cb64"/><path d="M1009.45,839l49.3-36.8c.8-.6,1.1-1.8,1.1-3.3a10.34,10.34,0,0,0-.6-3.3c-1.7-2.6-3.8-4.2-5.4-3.8l-66.2,18.4a2.47,2.47,0,0,0-1.6,2.2l-1.8,10.8c-.4,2.4.6,5.7,2.3,8.3l6.6,5.5a5.58,5.58,0,0,0,1.4.9l3.7,1.6a3.43,3.43,0,0,0,1.3.3l8.8-.5A1.33,1.33,0,0,0,1009.45,839Z" transform="translate(-3.55 -322.89)" style="fill:#a7cb64"/><path d="M1001.25,814.41a10.71,10.71,0,1,0,.1,0Z" transform="translate(-3.55 -322.89)" style="fill:url(#radial-gradient-2)"/><path d="M1045.85,751.81l-4.1-6.5a14,14,0,0,1,3.6-18.7l4.3-4.5,8.7-10.3,2.1-2.2,12.7-14.2,2.7,1.6-9,15.3,111.2,43.3,16.7-5.3,1.7,2.7-11.7,7.3-5.8,3.6-70.2,43.6C1037.55,821.11,1045.85,751.81,1045.85,751.81Z" transform="translate(-3.55 -322.89)" style="fill:#88a84c"/><path d="M1042,755.91l-4.1-6.5a14,14,0,0,1,3.6-18.7l4.3-4.5,8.7-10.3,2.1-2.2,12.7-14.2,2.7,1.6-9,15.3,111.2,43.3,16.7-5.3,1.7,2.7-11.7,7.3-5.8,3.6-70.2,43.6C1033.65,825.21,1042,755.91,1042,755.91Z" transform="translate(-3.55 -322.89)" style="fill:#a7cb64"/><path d="M1041.65,761.61a103,103,0,0,0,7.2,11.8c8.6,12.3,19.6,20.3,34,24.4,14,3.9,28.9.1,41.2-6.8,11.9-6.7,21.3-20.9,24.4-34a50.21,50.21,0,0,0,1.1-7l24.7,9.6,16.7-5.3,1.7,2.7-87.7,54.5C1046.25,822.81,1041.55,777.91,1041.65,761.61Z" transform="translate(-3.55 -322.89)" style="fill:#88a84c"/><path d="M844,662.71l104.5-32.9a2.16,2.16,0,0,0,1.43-2.7l0-.1-3.2-10.2a2.16,2.16,0,0,0-2.7-1.43l-.1,0-104.4,32.9A2.16,2.16,0,0,0,838,651l0,.1,3.2,10.2a2.13,2.13,0,0,0,2.66,1.41Z" transform="translate(-3.55 -322.89)" style="fill:url(#linear-gradient-2)"/><path d="M719.75,704.71l141.6-44.6a3,3,0,0,0,2-3.73s0,0,0-.07l-4.4-13.9a3,3,0,0,0-3.73-2l-.07,0L713.55,685a3,3,0,0,0-2,3.73s0,0,0,.07l4.4,13.9A3.12,3.12,0,0,0,719.75,704.71Z" transform="translate(-3.55 -322.89)" style="fill:#1a1b20"/><path d="M849.45,667.61l8.6-2.7a3.06,3.06,0,0,0,2-3.7l-6.6-20.8a3.06,3.06,0,0,0-3.7-2l-8.6,2.7a3.06,3.06,0,0,0-2,3.7l6.6,20.8a2.89,2.89,0,0,0,3.54,2Z" transform="translate(-3.55 -322.89)" style="fill:#1a1b20"/><path d="M678.65,822.51v-27.8c0-14.2,8.6-25.8,19.1-25.8h0c10.5,0,19.1,11.6,19.1,25.8v27.8h5.6v19.7H673v-19.7Z" transform="translate(-3.55 -322.89)" style="fill:#88a84c"/><path d="M669.55,533.81v199.9a64.07,64.07,0,0,0,1.9,15.1l8.8,33.2h36.5l11.5-15.5c7.4-9.9,11.3-23.6,10.8-37.6C737.15,673.21,726.55,533.81,669.55,533.81Z" transform="translate(-3.55 -322.89)" style="fill:#88a84c"/><path d="M699.65,555.41a14.34,14.34,0,1,0-2.7,20.1,14.34,14.34,0,0,0,2.7-20.1Z" transform="translate(-3.55 -322.89)" style="fill:#a7cb64"/><path d="M398.15,444.71a1,1,0,0,0,.8,1h7.3a.92.92,0,0,0,.8-1v-8.8a1,1,0,0,0-.8-1H399a.92.92,0,0,0-.8,1Z" transform="translate(-3.55 -322.89)" style="fill:#ed1c24"/><path d="M397.85,444.71v-8.8a1.23,1.23,0,0,1,1.1-1.3h7.3a1.23,1.23,0,0,1,1.1,1.3v8.8a1.23,1.23,0,0,1-1.1,1.3H399A1.23,1.23,0,0,1,397.85,444.71Zm1.1-9.4a.56.56,0,0,0-.5.6v8.8a.56.56,0,0,0,.5.6h7.3a.56.56,0,0,0,.5-.6v-8.8a.56.56,0,0,0-.5-.6Z" transform="translate(-3.55 -322.89)" style="fill:#231f20"/><path d="M387.15,444.71a1,1,0,0,0,.8,1h7.3a.92.92,0,0,0,.8-1v-8.8a1,1,0,0,0-.8-1H388a.92.92,0,0,0-.8,1Z" transform="translate(-3.55 -322.89)" style="fill:#aba9a7"/><path d="M386.85,444.71v-8.8a1.23,1.23,0,0,1,1.1-1.3h7.3a1.23,1.23,0,0,1,1.1,1.3v8.8a1.23,1.23,0,0,1-1.1,1.3H388A1.23,1.23,0,0,1,386.85,444.71Zm1.1-9.4a.56.56,0,0,0-.5.6v8.8a.56.56,0,0,0,.5.6h7.3a.56.56,0,0,0,.5-.6v-8.8a.56.56,0,0,0-.5-.6Z" transform="translate(-3.55 -322.89)" style="fill:#231f20"/><path d="M612.45,600.91h34.1V635h-14a12.91,12.91,0,0,1-9.3-3.9l-6.9-6.9a13.11,13.11,0,0,1-3.9-9.3v-14Z" transform="translate(-3.55 -322.89)" style="fill:#88a84c"/><rect x="397.23" y="146.36" width="102.4" height="125" style="fill:#403430"/><path d="M186.65,401.91l4.8-35a16.76,16.76,0,0,0-.1-5l-2.2-12.5a17.49,17.49,0,0,0-1.4-4.4l-9.7-19.5a15.35,15.35,0,0,1,4.8,5.6l10.5,21.1a16.66,16.66,0,0,1,1.4,4.3l2.1,12.3a16.1,16.1,0,0,1,.1,4.9l-4.7,34.4c-.2,1.5-.6,3-4.8,4.4L110.65,586l-5,.5,79.7-180.2A16.88,16.88,0,0,0,186.65,401.91Z" transform="translate(-3.55 -322.89)" style="fill:#a7cb64"/><polygon points="232.4 346.92 232.4 379.02 212.6 379.02 146.7 66.62 156.3 7.52 175.5 7.52 200 58.42 280.3 286.12 280.3 316.22 247.4 326.62 232.4 346.92" style="fill:#88a84c"/><polygon points="89 259.22 87.8 259.22 69.9 197.52 125.6 31.52 84.3 197.52 89 259.22" style="fill:#a7cb64"/><path d="M129.15,354.41a16,16,0,0,1,5.8-8.8l25.3-19.5a15,15,0,0,1,17.9-.5l6.1,12.3v71.2l-76.6,173.1h-15l-4.8-61.8Z" transform="translate(-3.55 -322.89)" style="fill:#88a84c"/><circle cx="849.7" cy="481.62" r="69.9" style="fill:#382f2d"/><circle cx="849.7" cy="481.62" r="48.9" style="fill:#312527"/><circle cx="849.7" cy="481.62" r="34.9" style="fill:#f6f6f6"/><circle cx="849.69" cy="481.55" r="24.9" style="fill:#dad1d1"/><circle cx="849.7" cy="481.62" r="18.6" style="fill:#f6f6f6"/><rect x="843.16" y="408.96" width="16.7" height="5.8" style="fill:#382f2d"/><rect x="875.85" y="731.23" width="5.8" height="16.7" transform="translate(-120.32 989.5) rotate(-70)" style="fill:#382f2d"/><rect x="896.62" y="743.87" width="5.8" height="16.7" transform="translate(-258.47 634.88) rotate(-50)" style="fill:#382f2d"/><rect x="911.61" y="762.91" width="5.8" height="16.7" transform="translate(-266.66 237.69) rotate(-30)" style="fill:#382f2d"/><rect x="919.4" y="785.74" width="5.8" height="16.7" transform="translate(-127.43 -150.67) rotate(-10)" style="fill:#382f2d"/><rect x="913.25" y="815.49" width="16.7" height="5.8" transform="translate(-47.94 1260.99) rotate(-80)" style="fill:#382f2d"/><rect x="904.44" y="838.01" width="16.7" height="5.8" transform="translate(-275.41 888.07) rotate(-60)" style="fill:#382f2d"/><rect x="888.38" y="856.1" width="16.7" height="5.8" transform="matrix(0.77, -0.64, 0.64, 0.77, -345.91, 454.49)" style="fill:#382f2d"/><rect x="867.14" y="867.71" width="16.7" height="5.8" transform="translate(-248.52 29.05) rotate(-20)" style="fill:#382f2d"/><rect x="839.6" y="548.42" width="16.7" height="5.8" style="fill:#382f2d"/><rect x="824.94" y="861.09" width="5.8" height="16.7" transform="translate(-275.85 1027.1) rotate(-70)" style="fill:#382f2d"/><rect x="804.16" y="848.38" width="5.8" height="16.7" transform="translate(-371.55 601.39) rotate(-50)" style="fill:#382f2d"/><rect x="789.18" y="829.48" width="5.8" height="16.7" transform="translate(-316.35 185.4) rotate(-30)" style="fill:#382f2d"/><rect x="781.41" y="806.63" width="5.8" height="16.7" transform="translate(-133.16 -174.31) rotate(-10)" style="fill:#382f2d"/><rect x="776.61" y="787.84" width="16.7" height="5.8" transform="translate(-133.62 1103.58) rotate(-80)" style="fill:#382f2d"/><rect x="785.42" y="765.25" width="16.7" height="5.8" transform="translate(-271.9 748.61) rotate(-60)" style="fill:#382f2d"/><rect x="801.51" y="747.2" width="16.7" height="5.8" transform="matrix(0.77, -0.64, 0.64, 0.77, -296.23, 373.16)" style="fill:#382f2d"/><rect x="822.7" y="735.43" width="16.7" height="5.8" transform="translate(-205.96 5.87) rotate(-20)" style="fill:#382f2d"/><path d="M850,773.51a3.9,3.9,0,1,0,3.9-3.9,3.84,3.84,0,0,0-3.9,3.78Z" transform="translate(-3.55 -322.89)" style="fill:#382f2d"/><path d="M871.15,778.91a3.91,3.91,0,1,0,5.51-.49h0a3.86,3.86,0,0,0-5.43.41Z" transform="translate(-3.55 -322.89)" style="fill:#382f2d"/><path d="M884,796.61a3.9,3.9,0,1,0,4.5,3.2A4,4,0,0,0,884,796.61Z" transform="translate(-3.55 -322.89)" style="fill:#382f2d"/><path d="M882.35,818.51a3.88,3.88,0,1,0,1.4,5.31h0A3.92,3.92,0,0,0,882.35,818.51Z" transform="translate(-3.55 -322.89)" style="fill:#382f2d"/><path d="M867.05,834.21a3.89,3.89,0,1,0-2.3,5,3.85,3.85,0,0,0,2.33-4.92Z" transform="translate(-3.55 -322.89)" style="fill:#382f2d"/><path d="M845.35,836.41a3.89,3.89,0,1,0-5,2.3A4,4,0,0,0,845.35,836.41Z" transform="translate(-3.55 -322.89)" style="fill:#382f2d"/><path d="M827.15,824.11a3.83,3.83,0,0,0,1.45-5.22l-.05-.08a3.88,3.88,0,0,0-6.7,3.9A4,4,0,0,0,827.15,824.11Z" transform="translate(-3.55 -322.89)" style="fill:#382f2d"/><path d="M821.25,803a3.9,3.9,0,1,0-3.2-4.5A3.9,3.9,0,0,0,821.25,803Z" transform="translate(-3.55 -322.89)" style="fill:#382f2d"/><path d="M830.25,783a3.91,3.91,0,1,0,.51-5.51h0a3.87,3.87,0,0,0-.56,5.43Z" transform="translate(-3.55 -322.89)" style="fill:#382f2d"/><polygon points="336.8 369.82 387.5 288.52 580.2 287.72 635 385.92 336.8 387.12 336.8 369.82" style="fill:#a7cb64"/><path d="M628.65,692.81q1.65,0,3-2.1A13.66,13.66,0,0,0,632,679l-37.8-77.5H370.05l-21.5,66.9c-1.3,3.9-.6,9,1.5,11.4s4.9,1.1,6.1-2.9l33.2-58.8h189l47,72.1C626.25,691.91,627.45,692.81,628.65,692.81Z" transform="translate(-3.55 -322.89)" style="fill:#88a84c"/><polygon points="665.8 424.72 328.7 424.72 328.3 424.02 328.3 360.22 665.8 360.22 665.8 424.72" style="fill:#88a84c"/><circle cx="486.7" cy="421.72" r="127.6" style="fill:#382f2d"/><circle cx="490.26" cy="744.61" r="111.7" transform="translate(-386.47 241.87) rotate(-45)" style="fill:#312527"/><circle cx="490.25" cy="744.62" r="63.7" transform="translate(-386.48 241.86) rotate(-45)" style="fill:#f6f6f6"/><circle cx="490.25" cy="744.61" r="45.4" transform="translate(-326.82 786.37) rotate(-80.78)" style="fill:#dad1d1"/><circle cx="490.26" cy="744.65" r="34" transform="translate(-374.77 651.35) rotate(-71.56)" style="fill:#f6f6f6"/><rect x="474.59" y="289.17" width="30.5" height="10.6" style="fill:#382f2d"/><rect x="531.45" y="610.85" width="10.6" height="30.5" transform="translate(-238.72 593.45) rotate(-70)" style="fill:#382f2d"/><rect x="569.2" y="633.94" width="10.6" height="30.5" transform="translate(-295.64 349.1) rotate(-50)" style="fill:#382f2d"/><rect x="596.7" y="668.48" width="10.6" height="30.5" transform="translate(-264.76 69.71) rotate(-30)" style="fill:#382f2d"/><rect x="610.86" y="710.42" width="10.6" height="30.5" transform="translate(-120.2 -204.87) rotate(-10)" style="fill:#382f2d"/><rect x="599.74" y="764.56" width="30.5" height="10.6" transform="translate(-253.52 918.93) rotate(-80)" style="fill:#382f2d"/><rect x="583.64" y="805.67" width="30.5" height="10.6" transform="translate(-406.43 601.25) rotate(-60)" style="fill:#382f2d"/><rect x="554.32" y="838.81" width="30.5" height="10.6" transform="matrix(0.77, -0.64, 0.64, 0.77, -412.88, 240.7)" style="fill:#382f2d"/><rect x="515.53" y="859.9" width="30.5" height="10.6" transform="translate(-267.46 -89.17) rotate(-20)" style="fill:#382f2d"/><rect x="468.3" y="543.62" width="30.5" height="10.6" style="fill:#382f2d"/><rect x="438.44" y="847.77" width="10.6" height="30.5" transform="translate(-522.55 661.94) rotate(-70)" style="fill:#382f2d"/><rect x="400.68" y="824.7" width="10.6" height="30.5" transform="translate(-501.97 288.15) rotate(-50)" style="fill:#382f2d"/><rect x="373.22" y="790.22" width="10.6" height="30.5" transform="translate(-355.57 -25.72) rotate(-30)" style="fill:#382f2d"/><rect x="359.13" y="748.26" width="10.6" height="30.5" transform="translate(-130.6 -248.01) rotate(-10)" style="fill:#382f2d"/><rect x="350.31" y="714.14" width="30.5" height="10.6" transform="translate(-409.97 631.63) rotate(-80)" style="fill:#382f2d"/><rect x="366.37" y="672.93" width="30.5" height="10.6" transform="translate(-400.1 346.72) rotate(-60)" style="fill:#382f2d"/><rect x="395.69" y="639.85" width="30.5" height="10.6" transform="matrix(0.77, -0.64, 0.64, 0.77, -322.1, 92.19)" style="fill:#382f2d"/><rect x="434.53" y="618.59" width="30.5" height="10.6" transform="translate(-189.81 -131.43) rotate(-20)" style="fill:#382f2d"/><path d="M484.65,692.81a6.5,6.5,0,1,0,6.5-6.5,6.5,6.5,0,0,0-6.5,6.5Z" transform="translate(-3.55 -322.89)" style="fill:#382f2d"/><path d="M520.15,701.81a6.53,6.53,0,1,0,9.2-.8h0a6.5,6.5,0,0,0-9.17.77Z" transform="translate(-3.55 -322.89)" style="fill:#382f2d"/><path d="M541.45,731.41a6.55,6.55,0,1,0,7.6,5.3A6.56,6.56,0,0,0,541.45,731.41Z" transform="translate(-3.55 -322.89)" style="fill:#382f2d"/><path d="M538.75,767.91a6.52,6.52,0,1,0,2.4,8.9h0a6.45,6.45,0,0,0-2.28-8.83Z" transform="translate(-3.55 -322.89)" style="fill:#382f2d"/><path d="M513.35,794.11a6.55,6.55,0,1,0-3.9,8.4h0A6.69,6.69,0,0,0,513.35,794.11Z" transform="translate(-3.55 -322.89)" style="fill:#382f2d"/><path d="M477,797.81a6.55,6.55,0,1,0-8.4,3.9h0A6.59,6.59,0,0,0,477,797.81Z" transform="translate(-3.55 -322.89)" style="fill:#382f2d"/><path d="M446.75,777.21a6.52,6.52,0,1,0-8.9-2.4h0a6.43,6.43,0,0,0,8.75,2.49Z" transform="translate(-3.55 -322.89)" style="fill:#382f2d"/><path d="M436.75,742.11a6.55,6.55,0,1,0-5.3-7.6A6.56,6.56,0,0,0,436.75,742.11Z" transform="translate(-3.55 -322.89)" style="fill:#382f2d"/><path d="M451.75,708.71a6.53,6.53,0,1,0,.8-9.2h0A6.62,6.62,0,0,0,451.75,708.71Z" transform="translate(-3.55 -322.89)" style="fill:#382f2d"/><line x1="655.2" y1="245.52" x2="655.2" y2="245.52" style="fill:none"/><rect x="652.8" y="245.52" width="1.2" height="113.3" style="fill:#88a84c"/></svg>