<svg id="Layer_1" data-name="Layer 1" xmlns="http://www.w3.org/2000/svg" xmlns:xlink="http://www.w3.org/1999/xlink" viewBox="0 0 1157.98 282.3"><defs><radialGradient id="radial-gradient" cx="2949.95" cy="701.47" r="34.05" gradientTransform="matrix(-1, 0, 0, 1, 4014.74, 0)" gradientUnits="userSpaceOnUse"><stop offset="0" stop-color="#231f20"/><stop offset="0.41" stop-color="#252122"/><stop offset="0.56" stop-color="#2b2729"/><stop offset="0.67" stop-color="#353334"/><stop offset="0.74" stop-color="#414042"/><stop offset="0.77" stop-color="#4d4d4f"/><stop offset="0.8" stop-color="#555658"/><stop offset="0.85" stop-color="#58595b"/><stop offset="0.92" stop-color="#414042"/></radialGradient><linearGradient id="linear-gradient" x1="2935.58" y1="701.68" x2="2964.21" y2="701.68" gradientTransform="matrix(-1, 0, 0, 1, 4014.74, 0)" gradientUnits="userSpaceOnUse"><stop offset="0.03" stop-color="#6d6e71"/><stop offset="0.25" stop-color="#bcbec0"/><stop offset="0.52" stop-color="#d1d3d4"/><stop offset="0.69" stop-color="#bcbec0"/><stop offset="0.98" stop-color="#58595b"/></linearGradient><linearGradient id="linear-gradient-2" x1="2932.34" y1="691.94" x2="2944.24" y2="691.94" xlink:href="#linear-gradient"/><linearGradient id="linear-gradient-3" x1="2937.73" y1="714.78" x2="2947.86" y2="714.78" xlink:href="#linear-gradient"/><linearGradient id="linear-gradient-4" x1="2955.61" y1="692.1" x2="2967.52" y2="692.1" xlink:href="#linear-gradient"/><linearGradient id="linear-gradient-5" x1="2930.38" y1="705.84" x2="2941.68" y2="705.84" xlink:href="#linear-gradient"/><linearGradient id="linear-gradient-6" x1="2958.12" y1="705.94" x2="2969.43" y2="705.94" xlink:href="#linear-gradient"/><linearGradient id="linear-gradient-7" x1="2945.63" y1="687.49" x2="2954.3" y2="687.49" xlink:href="#linear-gradient"/><linearGradient id="linear-gradient-8" x1="2951.93" y1="714.78" x2="2962.07" y2="714.78" xlink:href="#linear-gradient"/><radialGradient id="radial-gradient-2" cx="3195.83" cy="701.47" r="34.06" xlink:href="#radial-gradient"/><linearGradient id="linear-gradient-9" x1="3181.47" y1="701.68" x2="3210.1" y2="701.68" xlink:href="#linear-gradient"/><linearGradient id="linear-gradient-10" x1="3178.23" y1="691.94" x2="3190.12" y2="691.94" xlink:href="#linear-gradient"/><linearGradient id="linear-gradient-11" x1="3183.61" y1="714.78" x2="3193.75" y2="714.78" xlink:href="#linear-gradient"/><linearGradient id="linear-gradient-12" x1="3201.5" y1="692.1" x2="3213.41" y2="692.1" xlink:href="#linear-gradient"/><linearGradient id="linear-gradient-13" x1="3176.26" y1="705.84" x2="3187.56" y2="705.84" xlink:href="#linear-gradient"/><linearGradient id="linear-gradient-14" x1="3204.01" y1="705.94" x2="3215.32" y2="705.94" xlink:href="#linear-gradient"/><linearGradient id="linear-gradient-15" x1="3191.52" y1="687.49" x2="3200.19" y2="687.49" xlink:href="#linear-gradient"/><linearGradient id="linear-gradient-16" x1="3197.82" y1="714.78" x2="3207.95" y2="714.78" xlink:href="#linear-gradient"/><radialGradient id="radial-gradient-3" cx="3285.62" cy="701.47" r="34.05" xlink:href="#radial-gradient"/><linearGradient id="linear-gradient-17" x1="3271.25" y1="701.68" x2="3299.88" y2="701.68" xlink:href="#linear-gradient"/><linearGradient id="linear-gradient-18" x1="3268.01" y1="691.94" x2="3279.9" y2="691.94" xlink:href="#linear-gradient"/><linearGradient id="linear-gradient-19" x1="3273.39" y1="714.78" x2="3283.53" y2="714.78" xlink:href="#linear-gradient"/><linearGradient id="linear-gradient-20" x1="3291.28" y1="692.1" x2="3303.19" y2="692.1" xlink:href="#linear-gradient"/><linearGradient id="linear-gradient-21" x1="3266.04" y1="705.84" x2="3277.34" y2="705.84" xlink:href="#linear-gradient"/><linearGradient id="linear-gradient-22" x1="3293.79" y1="705.94" x2="3305.1" y2="705.94" xlink:href="#linear-gradient"/><linearGradient id="linear-gradient-23" x1="3281.3" y1="687.49" x2="3289.98" y2="687.49" xlink:href="#linear-gradient"/><linearGradient id="linear-gradient-24" x1="3287.59" y1="714.78" x2="3297.73" y2="714.78" xlink:href="#linear-gradient"/><radialGradient id="radial-gradient-4" cx="3654.75" cy="701.47" r="34.06" xlink:href="#radial-gradient"/><linearGradient id="linear-gradient-25" x1="3640.39" y1="701.68" x2="3669.02" y2="701.68" xlink:href="#linear-gradient"/><linearGradient id="linear-gradient-26" x1="3637.15" y1="691.94" x2="3649.04" y2="691.94" xlink:href="#linear-gradient"/><linearGradient id="linear-gradient-27" x1="3642.54" y1="714.78" x2="3652.67" y2="714.78" xlink:href="#linear-gradient"/><linearGradient id="linear-gradient-28" x1="3660.42" y1="692.1" x2="3672.33" y2="692.1" xlink:href="#linear-gradient"/><linearGradient id="linear-gradient-29" x1="3635.18" y1="705.84" x2="3646.49" y2="705.84" xlink:href="#linear-gradient"/><linearGradient id="linear-gradient-30" x1="3662.93" y1="705.94" x2="3674.24" y2="705.94" xlink:href="#linear-gradient"/><linearGradient id="linear-gradient-31" x1="3650.43" y1="687.49" x2="3659.11" y2="687.49" xlink:href="#linear-gradient"/><linearGradient id="linear-gradient-32" x1="3656.74" y1="714.78" x2="3666.87" y2="714.78" xlink:href="#linear-gradient"/><radialGradient id="radial-gradient-5" cx="3746.95" cy="701.47" r="34.06" xlink:href="#radial-gradient"/><linearGradient id="linear-gradient-33" x1="3732.59" y1="701.68" x2="3761.22" y2="701.68" xlink:href="#linear-gradient"/><linearGradient id="linear-gradient-34" x1="3729.35" y1="691.94" x2="3741.25" y2="691.94" xlink:href="#linear-gradient"/><linearGradient id="linear-gradient-35" x1="3734.74" y1="714.78" x2="3744.88" y2="714.78" xlink:href="#linear-gradient"/><linearGradient id="linear-gradient-36" x1="3752.62" y1="692.1" x2="3764.53" y2="692.1" xlink:href="#linear-gradient"/><linearGradient id="linear-gradient-37" x1="3727.38" y1="705.84" x2="3738.68" y2="705.84" xlink:href="#linear-gradient"/><linearGradient id="linear-gradient-38" x1="3755.14" y1="705.94" x2="3766.44" y2="705.94" xlink:href="#linear-gradient"/><linearGradient id="linear-gradient-39" x1="3742.64" y1="687.49" x2="3751.31" y2="687.49" xlink:href="#linear-gradient"/><linearGradient id="linear-gradient-40" x1="3748.94" y1="714.78" x2="3759.08" y2="714.78" xlink:href="#linear-gradient"/><radialGradient id="radial-gradient-6" cx="3839.16" cy="701.47" r="34.06" xlink:href="#radial-gradient"/><linearGradient id="linear-gradient-41" x1="3824.79" y1="701.68" x2="3853.42" y2="701.68" xlink:href="#linear-gradient"/><linearGradient id="linear-gradient-42" x1="3821.55" y1="691.94" x2="3833.45" y2="691.94" xlink:href="#linear-gradient"/><linearGradient id="linear-gradient-43" x1="3826.94" y1="714.78" x2="3837.07" y2="714.78" xlink:href="#linear-gradient"/><linearGradient id="linear-gradient-44" x1="3844.82" y1="692.1" x2="3856.73" y2="692.1" xlink:href="#linear-gradient"/><linearGradient id="linear-gradient-45" x1="3819.58" y1="705.84" x2="3830.89" y2="705.84" xlink:href="#linear-gradient"/><linearGradient id="linear-gradient-46" x1="3847.34" y1="705.94" x2="3858.64" y2="705.94" xlink:href="#linear-gradient"/><linearGradient id="linear-gradient-47" x1="3834.84" y1="687.49" x2="3843.52" y2="687.49" xlink:href="#linear-gradient"/><linearGradient id="linear-gradient-48" x1="3841.14" y1="714.78" x2="3851.28" y2="714.78" xlink:href="#linear-gradient"/></defs><title>Fuel Truck</title><polygon points="760.1 192.51 761.57 192.51 770.41 192.51 771.78 192.51 779.36 198.62 779.36 213.25 770.41 213.25 761.57 213.25 752.63 213.25 752.63 198.62 760.1 192.51"/><polygon points="669.26 7.79 736.31 7.79 736.31 12 744.84 12 744.84 23.47 657.9 23.47 657.9 12 669.26 12 669.26 7.79" style="fill:#88a84c"/><polygon points="669.26 0 736.31 0 736.31 4.21 744.84 4.21 744.84 15.58 657.9 15.58 657.9 4.21 669.26 4.21 669.26 0" style="fill:#88a84c"/><polygon points="216.24 7.79 283.29 7.79 283.29 12 291.92 12 291.92 23.47 204.87 23.47 204.87 12 216.24 12 216.24 7.79" style="fill:#88a84c"/><polygon points="216.24 0 283.29 0 283.29 4.21 291.92 4.21 291.92 15.58 204.87 15.58 204.87 4.21 216.24 4.21 216.24 0" style="fill:#88a84c"/><path d="M21.38,566.42c0,2.42.11,5,.21,7.27,2,45,21.89,80.41,46.31,80.41v.32H905V654a28.88,28.88,0,0,0,2.94.1c13.37,0,25.58-9,34.63-23.47a78.17,78.17,0,0,0,5.26-9.89,106.43,106.43,0,0,0,5.58-15.16,96,96,0,0,0,2.42-9.9,144.68,144.68,0,0,0,2.95-29.26c0-48.41-22.84-87.78-50.94-87.78-1.06,0-2,.1-3,.1v-.1H67.8c-20.53,0-38,25.16-44.1,60.1-.53,3.26-1.06,6.53-1.37,9.89q-.79,7.43-.95,15.16Z" transform="translate(-21.02 -458.85)" style="fill:#a7cb64"/><polygon points="981.88 212.2 981.88 247.14 636.32 247.14 636.32 222.51 674.11 212.2 981.88 212.2" style="fill:#414042"/><polygon points="977.77 69.05 1075.97 69.05 977.77 41.89 977.77 41.89 977.77 69.05" style="fill:#a7cb64"/><path d="M998.68,500.22l9-30,12.84-11.05s77.79,29.26,107.47,71.89c2.73,3.89-24.63.42-29.47-1.06Z" transform="translate(-21.02 -458.85)" style="fill:#a7cb64"/><path d="M773.12,669.68c36.63-10.74,75.68-12.74,75.68-12.74l9.47,8,.21,10.95H773.12v-6.21Z" transform="translate(-21.02 -458.85)" style="fill:#414042"/><path d="M999,527.9l.1-19.58a5,5,0,0,1,4.64-5.16,4.23,4.23,0,0,1,3,1.27l8.21,8.21a5.64,5.64,0,0,1,1.58,3.89v11.26L999,527.9Z" transform="translate(-21.02 -458.85)" style="fill:#a7cb64"/><polygon points="981.88 249.98 1129.76 251.98 1139.65 156.62 981.88 156.62 981.88 249.98"/><path d="M1004.89,675.57a2.92,2.92,0,0,0,2.85-2.94,2.86,2.86,0,0,0-2.85-3c-13.47,0-17.36-4.84-17.47-7.47V531.69c0-14.53-19.26-17.47-20.1-17.58a3,3,0,0,0-3.27,2.53,3,3,0,0,0,2.43,3.37c.21,0,15.15,2.31,15.15,11.68V662.31C981.63,662.73,982,675.57,1004.89,675.57Z" transform="translate(-21.02 -458.85)" style="fill:#231f20"/><rect x="954.3" y="75.36" width="17.68" height="121.15" style="fill:#808285"/><rect x="967.56" y="75.36" width="4.42" height="121.15" style="fill:#6d6e71"/><rect x="954.3" y="163.88" width="17.68" height="6.1" style="fill:#231f20;stroke:#58595b;stroke-miterlimit:10;stroke-width:0.5758000016212463px"/><rect x="954.3" y="93.15" width="17.68" height="6.1" style="fill:#231f20;stroke:#58595b;stroke-miterlimit:10;stroke-width:0.5758000016212463px"/><path d="M438.19,695.15l.32-.63h5.79l.32.63h28.2v-1.89h6.42v1.89h22.11l.31-.63h4.53l.32.63h97.25a35.72,35.72,0,0,0,0-9.47l-.94-6.11H397.67l.42,15.48,40.1.1Z" transform="translate(-21.02 -458.85)" style="fill:#070608"/><path d="M65.48,695.15l.32-.63h5.79l.31.63h28.21v-1.89h6.42v1.89h22.11l.31-.63h4.53l.31.63h97.26a35.72,35.72,0,0,0,0-9.47l-1-6.11H25l.42,15.48,40.1.1Z" transform="translate(-21.02 -458.85)" style="fill:#070608"/><path d="M1172.57,647.15a6.1,6.1,0,0,1,6,5.79l.42,6.63a6.23,6.23,0,0,1-5.27,6.53Z" transform="translate(-21.02 -458.85)" style="fill:#ec1c24"/><path d="M1171.62,631.37c3.79-.11,7,1.36,7.05,3.36l.21,4c.11,2-2.84,3.79-6.63,4.11Z" transform="translate(-21.02 -458.85)" style="fill:#ec1c24"/><rect x="1170.25" y="622.84" width="2.53" height="43.26" transform="translate(-55.56 -391.62) rotate(-3.24)" style="fill:#020200"/><polygon points="1149.86 207.14 1149.86 162.2 1146.92 162.2 1146.92 156.41 1138.81 156.41 1138.81 214.83 1146.92 214.83 1146.92 207.14 1149.86 207.14" style="fill:#3b3a3a;stroke:#231f20;stroke-miterlimit:10;stroke-width:0.5910000205039978px"/><path d="M1159.09,674.31V661.36h-18.73v10.85a5.34,5.34,0,0,0,1.37,3.57l8,8.64h23.78V674.21l-14.42.1Z" transform="translate(-21.02 -458.85)" style="fill:#3b3a3a;stroke:#231f20;stroke-miterlimit:10;stroke-width:0.7742000222206116px"/><rect x="1135.86" y="181.46" width="6" height="27.47" style="fill:#3b3a3a;stroke:#231f20;stroke-miterlimit:10;stroke-width:0.7742000222206116px"/><rect x="1130.71" y="178.83" width="6" height="30.1" style="fill:#3b3a3a;stroke:#231f20;stroke-miterlimit:10;stroke-width:0.7742000222206116px"/><path d="M1104.57,701.47a39.68,39.68,0,1,1-39.68-39.68A39.71,39.71,0,0,1,1104.57,701.47Z" transform="translate(-21.02 -458.85)" style="fill:#3d3b3d"/><path d="M1104.57,701.47a39.68,39.68,0,1,1-39.68-39.68A39.71,39.71,0,0,1,1104.57,701.47Z" transform="translate(-21.02 -458.85)"/><path d="M1098.89,701.47a34.11,34.11,0,1,1-34.11-34.11A34.09,34.09,0,0,1,1098.89,701.47Z" transform="translate(-21.02 -458.85)" style="fill:url(#radial-gradient)"/><path d="M1094.05,701.47a29.27,29.27,0,1,1-29.27-29.26A29.27,29.27,0,0,1,1094.05,701.47Z" transform="translate(-21.02 -458.85)" style="fill:#231f20"/><path d="M1094.05,701.47a29.27,29.27,0,1,1-29.27-29.26A29.27,29.27,0,0,1,1094.05,701.47Z" transform="translate(-21.02 -458.85)" style="fill:#3b3a3a"/><path d="M1085.52,701.47a20.63,20.63,0,1,1-20.63-20.63A20.67,20.67,0,0,1,1085.52,701.47Z" transform="translate(-21.02 -458.85)" style="fill:#fff;stroke:#3d3b3d;stroke-miterlimit:10;stroke-width:0.428600013256073px"/><path d="M1079.2,701.68a14.32,14.32,0,1,1-14.31-14.32A14.33,14.33,0,0,1,1079.2,701.68Z" transform="translate(-21.02 -458.85)" style="fill:url(#linear-gradient)"/><path d="M1070.47,694.52l6.42-8.21a18.93,18.93,0,0,1,5.47,6.74l-9.37,4.52A9.71,9.71,0,0,0,1070.47,694.52Z" transform="translate(-21.02 -458.85)" style="fill:url(#linear-gradient-2)"/><path d="M1077,716.94a19.82,19.82,0,0,1-7.78,3.79l-2.32-10.11a10.55,10.55,0,0,0,3.68-1.79Z" transform="translate(-21.02 -458.85)" style="fill:url(#linear-gradient-3)"/><path d="M1056.57,697.78l-9.36-4.52a21.13,21.13,0,0,1,5.36-6.84l6.53,8.1A11.14,11.14,0,0,0,1056.57,697.78Z" transform="translate(-21.02 -458.85)" style="fill:url(#linear-gradient-4)"/><path d="M1073.94,701.68h0l10.42-.11v.11a19.38,19.38,0,0,1-1.89,8.42l-9.37-4.53A9.49,9.49,0,0,0,1073.94,701.68Z" transform="translate(-21.02 -458.85)" style="fill:url(#linear-gradient-5)"/><path d="M1055.73,701.68a9,9,0,0,0,1,4l-9.37,4.52a21.15,21.15,0,0,1-2-8.42Z" transform="translate(-21.02 -458.85)" style="fill:url(#linear-gradient-6)"/><path d="M1060.47,682.63a19.63,19.63,0,0,1,8.63,0l-2.32,10.21a8.88,8.88,0,0,0-4.1,0Z" transform="translate(-21.02 -458.85)" style="fill:url(#linear-gradient-7)"/><path d="M1062.78,710.62l-2.31,10.11a18,18,0,0,1-7.79-3.79l6.53-8.11A9.32,9.32,0,0,0,1062.78,710.62Z" transform="translate(-21.02 -458.85)" style="fill:url(#linear-gradient-8)"/><path d="M858.69,701.47A39.68,39.68,0,1,1,819,661.79,39.71,39.71,0,0,1,858.69,701.47Z" transform="translate(-21.02 -458.85)" style="fill:#3d3b3d"/><path d="M858.69,701.47A39.68,39.68,0,1,1,819,661.79,39.71,39.71,0,0,1,858.69,701.47Z" transform="translate(-21.02 -458.85)"/><path d="M853,701.47a34.11,34.11,0,1,1-34.1-34.11A34.09,34.09,0,0,1,853,701.47Z" transform="translate(-21.02 -458.85)" style="fill:url(#radial-gradient-2)"/><path d="M848.17,701.47a29.27,29.27,0,1,1-29.26-29.26A29.27,29.27,0,0,1,848.17,701.47Z" transform="translate(-21.02 -458.85)" style="fill:#231f20"/><path d="M848.17,701.47a29.27,29.27,0,1,1-29.26-29.26A29.27,29.27,0,0,1,848.17,701.47Z" transform="translate(-21.02 -458.85)" style="fill:#3b3a3a"/><path d="M839.64,701.47A20.63,20.63,0,1,1,819,680.84,20.67,20.67,0,0,1,839.64,701.47Z" transform="translate(-21.02 -458.85)" style="fill:#fff;stroke:#3d3b3d;stroke-miterlimit:10;stroke-width:0.428600013256073px"/><path d="M833.22,701.68a14.32,14.32,0,1,1-14.31-14.32A14.33,14.33,0,0,1,833.22,701.68Z" transform="translate(-21.02 -458.85)" style="fill:url(#linear-gradient-9)"/><path d="M824.59,694.52l6.42-8.21a18.83,18.83,0,0,1,5.47,6.74l-9.36,4.52A9.89,9.89,0,0,0,824.59,694.52Z" transform="translate(-21.02 -458.85)" style="fill:url(#linear-gradient-10)"/><path d="M831.12,716.94a19.93,19.93,0,0,1-7.79,3.79L821,710.62a10.68,10.68,0,0,0,3.69-1.79Z" transform="translate(-21.02 -458.85)" style="fill:url(#linear-gradient-11)"/><path d="M810.7,697.78l-9.37-4.52a21.16,21.16,0,0,1,5.37-6.84l6.52,8.1A10.94,10.94,0,0,0,810.7,697.78Z" transform="translate(-21.02 -458.85)" style="fill:url(#linear-gradient-12)"/><path d="M828.06,701.68h0l10.42-.11v.11a19.38,19.38,0,0,1-1.89,8.42l-9.37-4.53A9.49,9.49,0,0,0,828.06,701.68Z" transform="translate(-21.02 -458.85)" style="fill:url(#linear-gradient-13)"/><path d="M809.85,701.68a9,9,0,0,0,.95,4l-9.37,4.52a21.15,21.15,0,0,1-2-8.42Z" transform="translate(-21.02 -458.85)" style="fill:url(#linear-gradient-14)"/><path d="M814.59,682.63a19.63,19.63,0,0,1,8.63,0l-2.31,10.21a8.92,8.92,0,0,0-4.11,0Z" transform="translate(-21.02 -458.85)" style="fill:url(#linear-gradient-15)"/><path d="M816.91,710.62l-2.32,10.11a18,18,0,0,1-7.79-3.79l6.53-8.11A9.29,9.29,0,0,0,816.91,710.62Z" transform="translate(-21.02 -458.85)" style="fill:url(#linear-gradient-16)"/><path d="M768.91,701.47a39.68,39.68,0,1,1-39.68-39.68A39.71,39.71,0,0,1,768.91,701.47Z" transform="translate(-21.02 -458.85)" style="fill:#3d3b3d"/><path d="M768.91,701.47a39.68,39.68,0,1,1-39.68-39.68A39.71,39.71,0,0,1,768.91,701.47Z" transform="translate(-21.02 -458.85)"/><path d="M763.23,701.47a34.11,34.11,0,1,1-34.11-34.11A34.1,34.1,0,0,1,763.23,701.47Z" transform="translate(-21.02 -458.85)" style="fill:url(#radial-gradient-3)"/><path d="M758.38,701.47a29.26,29.26,0,1,1-29.26-29.26A29.27,29.27,0,0,1,758.38,701.47Z" transform="translate(-21.02 -458.85)" style="fill:#231f20"/><path d="M758.38,701.47a29.26,29.26,0,1,1-29.26-29.26A29.27,29.27,0,0,1,758.38,701.47Z" transform="translate(-21.02 -458.85)" style="fill:#3b3a3a"/><path d="M749.86,701.47a20.63,20.63,0,1,1-20.63-20.63A20.67,20.67,0,0,1,749.86,701.47Z" transform="translate(-21.02 -458.85)" style="fill:#fff;stroke:#3d3b3d;stroke-miterlimit:10;stroke-width:0.428600013256073px"/><path d="M743.54,701.68a14.32,14.32,0,1,1-14.31-14.32A14.33,14.33,0,0,1,743.54,701.68Z" transform="translate(-21.02 -458.85)" style="fill:url(#linear-gradient-17)"/><path d="M734.81,694.52l6.42-8.21a18.93,18.93,0,0,1,5.47,6.74l-9.37,4.52A9.71,9.71,0,0,0,734.81,694.52Z" transform="translate(-21.02 -458.85)" style="fill:url(#linear-gradient-18)"/><path d="M741.33,716.94a19.79,19.79,0,0,1-7.79,3.79l-2.31-10.11a10.64,10.64,0,0,0,3.68-1.79Z" transform="translate(-21.02 -458.85)" style="fill:url(#linear-gradient-19)"/><path d="M720.91,697.78l-9.37-4.52a21.3,21.3,0,0,1,5.37-6.84l6.53,8.1A11,11,0,0,0,720.91,697.78Z" transform="translate(-21.02 -458.85)" style="fill:url(#linear-gradient-20)"/><path d="M738.28,701.68h0l10.42-.11v.11a19.38,19.38,0,0,1-1.89,8.42l-9.37-4.53A9.65,9.65,0,0,0,738.28,701.68Z" transform="translate(-21.02 -458.85)" style="fill:url(#linear-gradient-21)"/><path d="M720.07,701.68a9,9,0,0,0,.95,4l-9.37,4.52a21.15,21.15,0,0,1-2-8.42Z" transform="translate(-21.02 -458.85)" style="fill:url(#linear-gradient-22)"/><path d="M724.81,682.63a19.63,19.63,0,0,1,8.63,0l-2.32,10.21a8.88,8.88,0,0,0-4.1,0Z" transform="translate(-21.02 -458.85)" style="fill:url(#linear-gradient-23)"/><path d="M727.12,710.62l-2.31,10.11a18,18,0,0,1-7.79-3.79l6.52-8.11A9.43,9.43,0,0,0,727.12,710.62Z" transform="translate(-21.02 -458.85)" style="fill:url(#linear-gradient-24)"/><rect x="865.88" y="215.35" width="79.99" height="38.73" style="fill:#88a84c"/><polygon points="876.3 199.25 937.88 199.25 937.88 203.46 945.77 203.46 945.77 215.35 865.88 215.35 865.88 203.46 876.3 203.46 876.3 199.25" style="fill:#88a84c"/><rect x="854.51" y="226.62" width="4.95" height="23.16" style="fill:#231f20"/><rect x="858.73" y="224.41" width="4.95" height="25.37" style="fill:#414042"/><rect x="947.14" y="220.72" width="27.79" height="33.26" style="fill:#88a84c"/><rect x="958.09" y="247.35" width="6" height="0.84" style="fill:#88a84c"/><path d="M982.37,699.26c0,.21.1.42.21.42h1.47c.11,0,.21-.21.21-.42v-3.58c0-.21-.1-.42-.21-.42h-1.47c-.11,0-.21.21-.21.42Z" transform="translate(-21.02 -458.85)" style="fill:#88a84c"/><path d="M982.26,699.26v-3.58c0-.32.11-.53.21-.53H984c.1,0,.21.21.21.53v3.58c0,.31-.11.52-.21.52h-1.48C982.37,699.78,982.26,699.57,982.26,699.26Zm.21-3.69c-.1,0-.1.11-.1.21v3.58c0,.11,0,.21.1.21H984c.1,0,.1-.1.1-.21v-3.58c0-.1,0-.21-.1-.21Z" transform="translate(-21.02 -458.85)" style="fill:#88a84c"/><path d="M980.05,699.26c0,.21.11.42.21.42h1.48c.1,0,.21-.21.21-.42v-3.58c0-.21-.11-.42-.21-.42h-1.48c-.1,0-.21.21-.21.42Z" transform="translate(-21.02 -458.85)" style="fill:#88a84c"/><path d="M980.05,699.26v-3.58c0-.32.11-.53.21-.53h1.48c.1,0,.21.21.21.53v3.58c0,.31-.11.52-.21.52h-1.48C980.16,699.78,980.05,699.57,980.05,699.26Zm.21-3.69c-.1,0-.1.11-.1.21v3.58c0,.11,0,.21.1.21h1.48c.1,0,.1-.1.1-.21v-3.58c0-.1,0-.21-.1-.21Z" transform="translate(-21.02 -458.85)" style="fill:#88a84c"/><path d="M999,518.43c.1-.11.21-.11.42-.11h75.89l49.47,11a7.14,7.14,0,0,1,4.74,3.58l33.26,59.89a9.1,9.1,0,0,1,1,4.32l-3.68,74.2a.82.82,0,0,1-.85.74h-39l-.42-.32a39.73,39.73,0,0,0-36.1-23.26,31.35,31.35,0,0,0-5.37.42H1005.1a6.43,6.43,0,0,1-6-4.1L999,518.43Z" transform="translate(-21.02 -458.85)" style="fill:#88a84c"/><path d="M1152.57,661.57l3.79-64.41a5.79,5.79,0,0,0-.84-3.48l-32.21-54.1a6.25,6.25,0,0,0-5.27-3.05h-46.41a6.22,6.22,0,0,0-6.21,6.21v93a6.24,6.24,0,0,0,6.31,6.21c12.42-.32,39.79,1.37,49.47,22a6.1,6.1,0,0,0,5.58,3.47h19.68A6.22,6.22,0,0,0,1152.57,661.57Z" transform="translate(-21.02 -458.85)" style="fill:none;stroke:#231f20;stroke-miterlimit:10;stroke-width:0.7742000222206116px"/><path d="M1072.57,592.21V543.58h41.37a6.15,6.15,0,0,1,5.37,3.06l30,50.31h0a3.86,3.86,0,0,1-4.43,3.68Z" transform="translate(-21.02 -458.85)" style="fill:#403430"/><line x1="1098.39" y1="87.78" x2="1098.39" y2="138.41" style="fill:none;stroke:#231f20;stroke-miterlimit:10;stroke-width:0.7742000222206116px"/><path d="M1075,600.74h13.06a1.67,1.67,0,0,0,1.68-1.69h0a1.66,1.66,0,0,0-1.68-1.68H1075a1.66,1.66,0,0,0-1.68,1.68h0A1.67,1.67,0,0,0,1075,600.74Z" transform="translate(-21.02 -458.85)" style="fill:#231f20"/><path d="M1020.16,588.32h30.1a3.55,3.55,0,0,0,3.58-3.58V540.21a3.54,3.54,0,0,0-3.58-3.57h-30.1a3.54,3.54,0,0,0-3.58,3.57v44.53A3.48,3.48,0,0,0,1020.16,588.32Z" transform="translate(-21.02 -458.85)" style="fill:#403430"/><path d="M999,658.73a3,3,0,0,1,3.26-3.05h73.26a46.23,46.23,0,0,1,5.37-.42,39.62,39.62,0,0,1,36.1,23.26l.42.32h42l-7.16,32a16.21,16.21,0,0,1-15.79,12.64h-29.78v-20A41.71,41.71,0,0,0,1065,661.79h0a41.71,41.71,0,0,0-41.68,41.68v20H998.89V658.73Z" transform="translate(-21.02 -458.85)" style="fill:#a7cb64"/><path d="M1019.52,596.11h4.64a9.64,9.64,0,0,0-3.06.42,7.11,7.11,0,0,1,4.53,3.47l3.68,7.79h-4.63L1021,600a7.11,7.11,0,0,0-4.53-3.47A9.62,9.62,0,0,1,1019.52,596.11Z" transform="translate(-21.02 -458.85)" style="fill:#a7cb64"/><path d="M1024.68,596.11h4.63c3.48,0,6.53,1.57,7.69,3.89l3.68,7.79h-4.63l-3.68-7.79C1031.31,597.68,1028.16,596.11,1024.68,596.11Z" transform="translate(-21.02 -458.85)" style="fill:#a7cb64"/><path d="M1034.15,596.11h4.64c3.47,0,6.52,1.57,7.68,3.89l3.68,7.79h-4.63l-3.68-7.79C1040.79,597.68,1037.63,596.11,1034.15,596.11Z" transform="translate(-21.02 -458.85)" style="fill:#a7cb64"/><path d="M1146.78,695.57v2.21a1.84,1.84,0,0,0-1-1.47c-1.26,1.05-3.89,1.79-7.37,2.21L1122,700.31V698.1l16.42-1.79c3.37-.32,6-1.16,7.37-2.21A2.12,2.12,0,0,1,1146.78,695.57Z" transform="translate(-21.02 -458.85)" style="fill:#88a84c"/><path d="M1146.78,698v2.21c0,1.69-3.37,3.06-8.21,3.58L1122,705.57v-2.21l16.42-1.79C1143.41,701.05,1146.78,699.68,1146.78,698Z" transform="translate(-21.02 -458.85)" style="fill:#88a84c"/><path d="M1146.78,702.52v2.21c0,1.68-3.37,3-8.21,3.58l-16.42,1.79v-2.21l16.42-1.79C1143.41,705.57,1146.78,704.1,1146.78,702.52Z" transform="translate(-21.02 -458.85)" style="fill:#88a84c"/><path d="M1017,642a.48.48,0,0,0,.42.52H1021a.48.48,0,0,0,.42-.52v-4.42a.48.48,0,0,0-.42-.53h-3.58a.48.48,0,0,0-.42.53Z" transform="translate(-21.02 -458.85)" style="fill:#ed1c24"/><path d="M1016.79,642v-4.42a.59.59,0,0,1,.52-.64h3.58a.59.59,0,0,1,.53.64V642a.59.59,0,0,1-.53.63h-3.58A.68.68,0,0,1,1016.79,642Zm.63-4.74c-.11,0-.21.11-.21.32V642c0,.21.1.31.21.31H1021c.1,0,.21-.1.21-.31v-4.42c0-.21-.11-.32-.21-.32Z" transform="translate(-21.02 -458.85)" style="fill:#231f20"/><path d="M1011.52,642a.49.49,0,0,0,.43.52h3.57a.48.48,0,0,0,.43-.52v-4.42a.48.48,0,0,0-.43-.53H1012a.49.49,0,0,0-.43.53Z" transform="translate(-21.02 -458.85)" style="fill:#aba9a7"/><path d="M1011.31,642v-4.42a.59.59,0,0,1,.53-.64h3.58a.59.59,0,0,1,.53.64V642a.59.59,0,0,1-.53.63h-3.58A.69.69,0,0,1,1011.31,642Zm.64-4.74c-.11,0-.21.11-.21.32V642c0,.21.1.31.21.31h3.57c.11,0,.22-.1.22-.31v-4.42c0-.21-.11-.32-.22-.32Z" transform="translate(-21.02 -458.85)" style="fill:#231f20"/><polygon points="572.85 248.3 572.85 245.35 578.01 241.35 586.11 241.35 591.27 245.35 591.27 248.3 572.85 248.3"/><rect x="578.43" y="206.72" width="8.1" height="34.63"/><polygon points="672.53 195.57 672.53 209.14 596.01 223.88 406.12 223.88 390.65 238.93 102.99 238.93 87.2 223.56 0.36 223.56 0.36 195.57 672.53 195.57" style="fill:#414042;stroke:#070608;stroke-miterlimit:10;stroke-width:0.7228999733924866px"/><polygon points="672.53 195.57 672.53 209.14 596.01 223.88 585.69 223.88 585.69 195.57 672.53 195.57" style="fill:#070608;stroke:#414042;stroke-miterlimit:10;stroke-width:0.7228999733924866px"/><path d="M399.67,701.47A39.68,39.68,0,1,1,360,661.79,39.71,39.71,0,0,1,399.67,701.47Z" transform="translate(-21.02 -458.85)" style="fill:#3d3b3d"/><path d="M399.67,701.47A39.68,39.68,0,1,1,360,661.79,39.71,39.71,0,0,1,399.67,701.47Z" transform="translate(-21.02 -458.85)"/><path d="M394.09,701.47A34.1,34.1,0,1,1,360,667.36,34.09,34.09,0,0,1,394.09,701.47Z" transform="translate(-21.02 -458.85)" style="fill:url(#radial-gradient-4)"/><path d="M389.25,701.47A29.26,29.26,0,1,1,360,672.21,29.27,29.27,0,0,1,389.25,701.47Z" transform="translate(-21.02 -458.85)" style="fill:#231f20"/><path d="M389.25,701.47A29.26,29.26,0,1,1,360,672.21,29.27,29.27,0,0,1,389.25,701.47Z" transform="translate(-21.02 -458.85)" style="fill:#3b3a3a"/><path d="M380.62,701.47A20.63,20.63,0,1,1,360,680.84,20.67,20.67,0,0,1,380.62,701.47Z" transform="translate(-21.02 -458.85)" style="fill:#fff;stroke:#3d3b3d;stroke-miterlimit:10;stroke-width:0.428600013256073px"/><path d="M374.3,701.68A14.32,14.32,0,1,1,360,687.36,14.33,14.33,0,0,1,374.3,701.68Z" transform="translate(-21.02 -458.85)" style="fill:url(#linear-gradient-25)"/><path d="M365.67,694.52l6.42-8.21a19,19,0,0,1,5.48,6.74l-9.37,4.52A9.75,9.75,0,0,0,365.67,694.52Z" transform="translate(-21.02 -458.85)" style="fill:url(#linear-gradient-26)"/><path d="M372.2,716.94a19.93,19.93,0,0,1-7.79,3.79l-2.32-10.11a10.6,10.6,0,0,0,3.69-1.79Z" transform="translate(-21.02 -458.85)" style="fill:url(#linear-gradient-27)"/><path d="M351.78,697.78l-9.37-4.52a21.16,21.16,0,0,1,5.37-6.84l6.53,8.1A10.81,10.81,0,0,0,351.78,697.78Z" transform="translate(-21.02 -458.85)" style="fill:url(#linear-gradient-28)"/><path d="M369.15,701.68h0l10.42-.11v.11a19.25,19.25,0,0,1-1.9,8.42l-9.37-4.53A9.5,9.5,0,0,0,369.15,701.68Z" transform="translate(-21.02 -458.85)" style="fill:url(#linear-gradient-29)"/><path d="M350.94,701.68a9,9,0,0,0,.94,4l-9.36,4.52a20.82,20.82,0,0,1-2-8.42Z" transform="translate(-21.02 -458.85)" style="fill:url(#linear-gradient-30)"/><path d="M355.67,682.63a19.63,19.63,0,0,1,8.63,0L362,692.84a8.92,8.92,0,0,0-4.11,0Z" transform="translate(-21.02 -458.85)" style="fill:url(#linear-gradient-31)"/><path d="M358,710.62l-2.32,10.11a18.08,18.08,0,0,1-7.79-3.79l6.53-8.11A9.36,9.36,0,0,0,358,710.62Z" transform="translate(-21.02 -458.85)" style="fill:url(#linear-gradient-32)"/><path d="M307.47,701.47a39.69,39.69,0,1,1-39.68-39.68A39.71,39.71,0,0,1,307.47,701.47Z" transform="translate(-21.02 -458.85)" style="fill:#3d3b3d"/><path d="M307.47,701.47a39.69,39.69,0,1,1-39.68-39.68A39.71,39.71,0,0,1,307.47,701.47Z" transform="translate(-21.02 -458.85)"/><path d="M301.89,701.47a34.11,34.11,0,1,1-34.1-34.11A34.09,34.09,0,0,1,301.89,701.47Z" transform="translate(-21.02 -458.85)" style="fill:url(#radial-gradient-5)"/><path d="M297.05,701.47a29.27,29.27,0,1,1-29.26-29.26A29.27,29.27,0,0,1,297.05,701.47Z" transform="translate(-21.02 -458.85)" style="fill:#231f20"/><path d="M297.05,701.47a29.27,29.27,0,1,1-29.26-29.26A29.27,29.27,0,0,1,297.05,701.47Z" transform="translate(-21.02 -458.85)" style="fill:#3b3a3a"/><path d="M288.42,701.47a20.64,20.64,0,1,1-20.63-20.63A20.67,20.67,0,0,1,288.42,701.47Z" transform="translate(-21.02 -458.85)" style="fill:#fff;stroke:#3d3b3d;stroke-miterlimit:10;stroke-width:0.428600013256073px"/><path d="M282.1,701.68a14.32,14.32,0,1,1-14.31-14.32A14.33,14.33,0,0,1,282.1,701.68Z" transform="translate(-21.02 -458.85)" style="fill:url(#linear-gradient-33)"/><path d="M273.47,694.52l6.42-8.21a18.83,18.83,0,0,1,5.47,6.74L276,697.57A9.89,9.89,0,0,0,273.47,694.52Z" transform="translate(-21.02 -458.85)" style="fill:url(#linear-gradient-34)"/><path d="M280,716.94a19.82,19.82,0,0,1-7.78,3.79l-2.32-10.11a10.55,10.55,0,0,0,3.68-1.79Z" transform="translate(-21.02 -458.85)" style="fill:url(#linear-gradient-35)"/><path d="M259.58,697.78l-9.37-4.52a21,21,0,0,1,5.37-6.84l6.52,8.1A10.94,10.94,0,0,0,259.58,697.78Z" transform="translate(-21.02 -458.85)" style="fill:url(#linear-gradient-36)"/><path d="M276.94,701.68h0l10.42-.11v.11a19.38,19.38,0,0,1-1.89,8.42l-9.37-4.53A9.49,9.49,0,0,0,276.94,701.68Z" transform="translate(-21.02 -458.85)" style="fill:url(#linear-gradient-37)"/><path d="M258.73,701.68a9,9,0,0,0,.95,4l-9.37,4.52a21.15,21.15,0,0,1-2-8.42Z" transform="translate(-21.02 -458.85)" style="fill:url(#linear-gradient-38)"/><path d="M263.47,682.63a19.63,19.63,0,0,1,8.63,0l-2.32,10.21a8.88,8.88,0,0,0-4.1,0Z" transform="translate(-21.02 -458.85)" style="fill:url(#linear-gradient-39)"/><path d="M265.79,710.62l-2.32,10.11a18,18,0,0,1-7.79-3.79l6.53-8.11A9.29,9.29,0,0,0,265.79,710.62Z" transform="translate(-21.02 -458.85)" style="fill:url(#linear-gradient-40)"/><path d="M215.37,701.47a39.69,39.69,0,1,1-39.68-39.68A39.71,39.71,0,0,1,215.37,701.47Z" transform="translate(-21.02 -458.85)" style="fill:#3d3b3d"/><path d="M215.37,701.47a39.69,39.69,0,1,1-39.68-39.68A39.71,39.71,0,0,1,215.37,701.47Z" transform="translate(-21.02 -458.85)"/><path d="M209.68,701.47a34.1,34.1,0,1,1-34.1-34.11A34.09,34.09,0,0,1,209.68,701.47Z" transform="translate(-21.02 -458.85)" style="fill:url(#radial-gradient-6)"/><path d="M204.84,701.47a29.26,29.26,0,1,1-29.26-29.26A29.27,29.27,0,0,1,204.84,701.47Z" transform="translate(-21.02 -458.85)" style="fill:#231f20"/><path d="M204.84,701.47a29.26,29.26,0,1,1-29.26-29.26A29.27,29.27,0,0,1,204.84,701.47Z" transform="translate(-21.02 -458.85)" style="fill:#3b3a3a"/><path d="M196.32,701.47a20.63,20.63,0,1,1-20.63-20.63A20.67,20.67,0,0,1,196.32,701.47Z" transform="translate(-21.02 -458.85)" style="fill:#fff;stroke:#3d3b3d;stroke-miterlimit:10;stroke-width:0.428600013256073px"/><path d="M189.9,701.68a14.32,14.32,0,1,1-14.32-14.32A14.34,14.34,0,0,1,189.9,701.68Z" transform="translate(-21.02 -458.85)" style="fill:url(#linear-gradient-41)"/><path d="M181.26,694.52l6.43-8.21a18.93,18.93,0,0,1,5.47,6.74l-9.37,4.52A9.75,9.75,0,0,0,181.26,694.52Z" transform="translate(-21.02 -458.85)" style="fill:url(#linear-gradient-42)"/><path d="M187.79,716.94a19.93,19.93,0,0,1-7.79,3.79l-2.31-10.11a10.64,10.64,0,0,0,3.68-1.79Z" transform="translate(-21.02 -458.85)" style="fill:url(#linear-gradient-43)"/><path d="M167.37,697.78,158,693.26a21.3,21.3,0,0,1,5.37-6.84l6.53,8.1A10.81,10.81,0,0,0,167.37,697.78Z" transform="translate(-21.02 -458.85)" style="fill:url(#linear-gradient-44)"/><path d="M184.74,701.68h0l10.42-.11v.11a19.25,19.25,0,0,1-1.9,8.42l-9.36-4.53A9.65,9.65,0,0,0,184.74,701.68Z" transform="translate(-21.02 -458.85)" style="fill:url(#linear-gradient-45)"/><path d="M166.53,701.68a8.84,8.84,0,0,0,.95,4l-9.37,4.52a21,21,0,0,1-2-8.42Z" transform="translate(-21.02 -458.85)" style="fill:url(#linear-gradient-46)"/><path d="M171.27,682.63a19.63,19.63,0,0,1,8.63,0l-2.32,10.21a8.88,8.88,0,0,0-4.1,0Z" transform="translate(-21.02 -458.85)" style="fill:url(#linear-gradient-47)"/><path d="M173.58,710.62l-2.31,10.11a18,18,0,0,1-7.79-3.79l6.52-8.11A9.36,9.36,0,0,0,173.58,710.62Z" transform="translate(-21.02 -458.85)" style="fill:url(#linear-gradient-48)"/><g style="opacity:0.10000000149011612"><path d="M21.38,566.42c0,2.42.11,5,.21,7.27H340.94l56.94,56.94h544.6a80.83,80.83,0,0,0,5.26-9.89H402l-56.95-57H21.38Z" transform="translate(-21.02 -458.85)" style="fill:#231f20"/><path d="M22.33,548.64H340.94l56.94,56.94H953.42a96,96,0,0,0,2.42-9.9H402L345,538.74H23.7C23.17,541.9,22.64,545.27,22.33,548.64Z" transform="translate(-21.02 -458.85)" style="fill:#231f20"/></g><path d="M582.29,661.68a1.48,1.48,0,1,1-1.47,1.47A1.44,1.44,0,0,1,582.29,661.68Z" transform="translate(-21.02 -458.85)"/><path d="M582.29,661.68a1.48,1.48,0,1,1-1.47,1.47A1.44,1.44,0,0,1,582.29,661.68Z" transform="translate(-21.02 -458.85)"/><path d="M582.29,662.1a1.06,1.06,0,1,1-1,1A1,1,0,0,1,582.29,662.1Z" transform="translate(-21.02 -458.85)"/><path d="M582.29,664.21a1.06,1.06,0,1,1,1.05-1.06A1.13,1.13,0,0,1,582.29,664.21Zm0-.11a1.05,1.05,0,1,0-1-1.05A1,1,0,0,0,582.29,664.1Z" transform="translate(-21.02 -458.85)"/><path d="M582.29,662.31a.85.85,0,1,1-.84.84A.83.83,0,0,1,582.29,662.31Z" transform="translate(-21.02 -458.85)"/><path d="M582.29,664a.91.91,0,0,1-.84-.85.84.84,0,1,1,1.68,0A.91.91,0,0,1,582.29,664Zm0-.11a.73.73,0,0,0,.74-.74.74.74,0,0,0-1.48,0A.79.79,0,0,0,582.29,663.89Z" transform="translate(-21.02 -458.85)"/><path d="M597,661.79a1.47,1.47,0,1,1-1.48,1.47A1.44,1.44,0,0,1,597,661.79Z" transform="translate(-21.02 -458.85)"/><path d="M597,661.79a1.47,1.47,0,1,1-1.48,1.47A1.44,1.44,0,0,1,597,661.79Z" transform="translate(-21.02 -458.85)"/><path d="M597,662.21a1.05,1.05,0,1,1-1.06,1A1.13,1.13,0,0,1,597,662.21Z" transform="translate(-21.02 -458.85)"/><path d="M597,664.31a1,1,0,1,1,1.05-1A1.06,1.06,0,0,1,597,664.31Zm0,0a1.05,1.05,0,1,0-1.06-1A1.13,1.13,0,0,0,597,664.31Z" transform="translate(-21.02 -458.85)"/><path d="M597,662.42a.84.84,0,1,1-.85.84C596.29,662.84,596.61,662.42,597,662.42Z" transform="translate(-21.02 -458.85)"/><path d="M597,664.1a.84.84,0,1,1,0-1.68.9.9,0,0,1,.84.84A.83.83,0,0,1,597,664.1Zm0-.1a.74.74,0,0,0,0-1.48.74.74,0,0,0,0,1.48Z" transform="translate(-21.02 -458.85)"/><path d="M582.29,673.78a1.48,1.48,0,1,1-1.47,1.48A1.44,1.44,0,0,1,582.29,673.78Z" transform="translate(-21.02 -458.85)"/><path d="M582.29,673.78a1.48,1.48,0,1,1-1.47,1.48A1.44,1.44,0,0,1,582.29,673.78Z" transform="translate(-21.02 -458.85)"/><path d="M582.29,674.21a1,1,0,1,1-1,1A1,1,0,0,1,582.29,674.21Z" transform="translate(-21.02 -458.85)"/><path d="M582.29,676.31a1,1,0,1,1,1.05-1A1,1,0,0,1,582.29,676.31Zm0,0a1,1,0,1,0-1-1A1,1,0,0,0,582.29,676.31Z" transform="translate(-21.02 -458.85)"/><path d="M582.29,674.42a.84.84,0,1,1-.84.84A.9.9,0,0,1,582.29,674.42Z" transform="translate(-21.02 -458.85)"/><path d="M582.29,676.1a.84.84,0,1,1,.84-.84A.83.83,0,0,1,582.29,676.1Zm0-.11a.72.72,0,0,0,.74-.73.74.74,0,0,0-1.48,0A.72.72,0,0,0,582.29,676Z" transform="translate(-21.02 -458.85)"/><path d="M597,674a1.47,1.47,0,1,1-1.48,1.47A1.44,1.44,0,0,1,597,674Z" transform="translate(-21.02 -458.85)"/><path d="M597,674a1.47,1.47,0,1,1-1.48,1.47A1.44,1.44,0,0,1,597,674Z" transform="translate(-21.02 -458.85)"/><path d="M597,674.42a1.05,1.05,0,1,1-1.06,1.05A1.06,1.06,0,0,1,597,674.42Z" transform="translate(-21.02 -458.85)"/><path d="M597,676.52a1,1,0,1,1,1.05-1A1.14,1.14,0,0,1,597,676.52Zm0-.1a1.06,1.06,0,1,0-1.06-1.06A1.06,1.06,0,0,0,597,676.42Z" transform="translate(-21.02 -458.85)"/><path d="M597,674.63a.84.84,0,0,1,0,1.68.84.84,0,0,1-.85-.84C596.29,674.94,596.61,674.63,597,674.63Z" transform="translate(-21.02 -458.85)"/><path d="M597,676.31a.84.84,0,1,1,0-1.68.84.84,0,0,1,0,1.68Zm0-.1a.74.74,0,0,0,0-1.48.73.73,0,0,0-.74.74A.8.8,0,0,0,597,676.21Z" transform="translate(-21.02 -458.85)"/><path d="M508.3,661.68a1.48,1.48,0,1,1-1.48,1.47A1.44,1.44,0,0,1,508.3,661.68Z" transform="translate(-21.02 -458.85)"/><path d="M508.3,661.68a1.48,1.48,0,1,1-1.48,1.47A1.44,1.44,0,0,1,508.3,661.68Z" transform="translate(-21.02 -458.85)"/><path d="M508.3,662.1a1.06,1.06,0,1,1-1.06,1A1.06,1.06,0,0,1,508.3,662.1Z" transform="translate(-21.02 -458.85)"/><path d="M508.3,664.21a1.06,1.06,0,1,1,1.05-1.06A1.14,1.14,0,0,1,508.3,664.21Zm0-.11a1.05,1.05,0,1,0-1.06-1.05A1,1,0,0,0,508.3,664.1Z" transform="translate(-21.02 -458.85)"/><path d="M508.3,662.31a.85.85,0,1,1-.85.84A.83.83,0,0,1,508.3,662.31Z" transform="translate(-21.02 -458.85)"/><path d="M508.3,664a.91.91,0,0,1-.85-.85.85.85,0,1,1,.85.85Zm0-.11a.72.72,0,0,0,.73-.74.74.74,0,0,0-1.47,0A.79.79,0,0,0,508.3,663.89Z" transform="translate(-21.02 -458.85)"/><path d="M523,661.79a1.47,1.47,0,1,1-1.47,1.47A1.5,1.5,0,0,1,523,661.79Z" transform="translate(-21.02 -458.85)"/><path d="M523,661.79a1.47,1.47,0,1,1-1.47,1.47A1.5,1.5,0,0,1,523,661.79Z" transform="translate(-21.02 -458.85)"/><path d="M523,662.21a1,1,0,1,1-1,1A1.12,1.12,0,0,1,523,662.21Z" transform="translate(-21.02 -458.85)"/><path d="M523,664.31a1,1,0,1,1,1.05-1A1,1,0,0,1,523,664.31Zm0,0a1,1,0,1,0-1-1A1.12,1.12,0,0,0,523,664.31Z" transform="translate(-21.02 -458.85)"/><path d="M523,662.42a.84.84,0,1,1-.84.84C522.29,662.84,522.61,662.42,523,662.42Z" transform="translate(-21.02 -458.85)"/><path d="M523,664.1a.84.84,0,1,1,.84-.84A.77.77,0,0,1,523,664.1Zm0-.1a.74.74,0,1,0-.74-.74A.73.73,0,0,0,523,664Z" transform="translate(-21.02 -458.85)"/><path d="M508.3,673.78a1.48,1.48,0,1,1-1.48,1.48A1.44,1.44,0,0,1,508.3,673.78Z" transform="translate(-21.02 -458.85)"/><path d="M508.3,673.78a1.48,1.48,0,1,1-1.48,1.48A1.44,1.44,0,0,1,508.3,673.78Z" transform="translate(-21.02 -458.85)"/><path d="M508.3,674.21a1.05,1.05,0,1,1-1.06,1A1.06,1.06,0,0,1,508.3,674.21Z" transform="translate(-21.02 -458.85)"/><path d="M508.3,676.31a1,1,0,1,1,1.05-1A1.06,1.06,0,0,1,508.3,676.31Zm0,0a1.05,1.05,0,1,0-1.06-1A1.06,1.06,0,0,0,508.3,676.31Z" transform="translate(-21.02 -458.85)"/><path d="M508.3,674.42a.84.84,0,0,1,0,1.68.83.83,0,0,1-.85-.84A.9.9,0,0,1,508.3,674.42Z" transform="translate(-21.02 -458.85)"/><path d="M508.3,676.1a.84.84,0,1,1,.84-.84A.83.83,0,0,1,508.3,676.1Zm0-.11a.71.71,0,0,0,.73-.73.74.74,0,1,0-.73.73Z" transform="translate(-21.02 -458.85)"/><path d="M523,674a1.47,1.47,0,1,1-1.47,1.47A1.5,1.5,0,0,1,523,674Z" transform="translate(-21.02 -458.85)"/><path d="M523,674a1.47,1.47,0,1,1-1.47,1.47A1.5,1.5,0,0,1,523,674Z" transform="translate(-21.02 -458.85)"/><path d="M523,674.42a1.05,1.05,0,1,1-1,1.05A1,1,0,0,1,523,674.42Z" transform="translate(-21.02 -458.85)"/><path d="M523,676.52a1,1,0,1,1,1.05-1A1.06,1.06,0,0,1,523,676.52Zm0-.1a1.06,1.06,0,1,0-1-1.06A1.06,1.06,0,0,0,523,676.42Z" transform="translate(-21.02 -458.85)"/><path d="M523,674.63a.84.84,0,1,1-.84.84C522.29,674.94,522.61,674.63,523,674.63Z" transform="translate(-21.02 -458.85)"/><path d="M523,676.31a.84.84,0,1,1,.84-.84A.83.83,0,0,1,523,676.31Zm0-.1a.74.74,0,1,0-.74-.74A.8.8,0,0,0,523,676.21Z" transform="translate(-21.02 -458.85)"/><path d="M434.3,661.68a1.48,1.48,0,1,1-1.47,1.47A1.5,1.5,0,0,1,434.3,661.68Z" transform="translate(-21.02 -458.85)"/><path d="M434.3,661.68a1.48,1.48,0,1,1-1.47,1.47A1.5,1.5,0,0,1,434.3,661.68Z" transform="translate(-21.02 -458.85)"/><path d="M434.3,662.1a1.06,1.06,0,1,1-1.05,1A1,1,0,0,1,434.3,662.1Z" transform="translate(-21.02 -458.85)"/><path d="M434.3,664.21a1.06,1.06,0,1,1,1.05-1.06A1.06,1.06,0,0,1,434.3,664.21Zm0-.11a1.05,1.05,0,1,0-1.05-1.05A1,1,0,0,0,434.3,664.1Z" transform="translate(-21.02 -458.85)"/><path d="M434.3,662.31a.85.85,0,1,1-.84.84C433.56,662.63,433.88,662.31,434.3,662.31Z" transform="translate(-21.02 -458.85)"/><path d="M434.3,664a.91.91,0,0,1-.84-.85.84.84,0,1,1,1.68,0A.83.83,0,0,1,434.3,664Zm0-.11a.73.73,0,0,0,.74-.74.74.74,0,0,0-1.48,0A.79.79,0,0,0,434.3,663.89Z" transform="translate(-21.02 -458.85)"/><path d="M449.14,661.79a1.47,1.47,0,1,1-1.47,1.47A1.44,1.44,0,0,1,449.14,661.79Z" transform="translate(-21.02 -458.85)"/><path d="M449.14,661.79a1.47,1.47,0,1,1-1.47,1.47A1.44,1.44,0,0,1,449.14,661.79Z" transform="translate(-21.02 -458.85)"/><path d="M449.14,662.21a1,1,0,1,1-1.05,1A1,1,0,0,1,449.14,662.21Z" transform="translate(-21.02 -458.85)"/><path d="M449,664.31a1,1,0,1,1,1-1A1,1,0,0,1,449,664.31Zm0,0a1.05,1.05,0,1,0-1.06-1A1.23,1.23,0,0,0,449,664.31Z" transform="translate(-21.02 -458.85)"/><path d="M449.14,662.42a.84.84,0,1,1-.84.84A.83.83,0,0,1,449.14,662.42Z" transform="translate(-21.02 -458.85)"/><path d="M449.14,664.1a.84.84,0,1,1,.84-.84A.83.83,0,0,1,449.14,664.1Zm0-.1a.74.74,0,1,0-.74-.74C448.3,663.68,448.72,664,449.14,664Z" transform="translate(-21.02 -458.85)"/><path d="M434.3,673.78a1.48,1.48,0,1,1-1.47,1.48A1.51,1.51,0,0,1,434.3,673.78Z" transform="translate(-21.02 -458.85)"/><path d="M434.3,673.78a1.48,1.48,0,1,1-1.47,1.48A1.51,1.51,0,0,1,434.3,673.78Z" transform="translate(-21.02 -458.85)"/><path d="M434.3,674.21a1,1,0,1,1-1.05,1A1,1,0,0,1,434.3,674.21Z" transform="translate(-21.02 -458.85)"/><path d="M434.3,676.31a1,1,0,1,1,1.05-1A1,1,0,0,1,434.3,676.31Zm0,0a1,1,0,1,0-1.05-1A1.13,1.13,0,0,0,434.3,676.31Z" transform="translate(-21.02 -458.85)"/><path d="M434.3,674.42a.84.84,0,1,1-.84.84C433.56,674.84,433.88,674.42,434.3,674.42Z" transform="translate(-21.02 -458.85)"/><path d="M434.3,676.1a.84.84,0,1,1,.84-.84A.77.77,0,0,1,434.3,676.1Zm0-.11a.72.72,0,0,0,.74-.73.74.74,0,0,0-1.48,0A.72.72,0,0,0,434.3,676Z" transform="translate(-21.02 -458.85)"/><path d="M449.14,674a1.47,1.47,0,1,1-1.47,1.47A1.44,1.44,0,0,1,449.14,674Z" transform="translate(-21.02 -458.85)"/><path d="M449.14,674a1.47,1.47,0,1,1-1.47,1.47A1.44,1.44,0,0,1,449.14,674Z" transform="translate(-21.02 -458.85)"/><path d="M449.14,674.42a1,1,0,0,1,0,2.1,1.14,1.14,0,0,1-1.05-1A1,1,0,0,1,449.14,674.42Z" transform="translate(-21.02 -458.85)"/><path d="M449,676.52a1,1,0,1,1,1-1A1.06,1.06,0,0,1,449,676.52Zm0-.1a1.06,1.06,0,1,0-1.06-1.06A1.14,1.14,0,0,0,449,676.42Z" transform="translate(-21.02 -458.85)"/><path d="M449.14,674.63a.84.84,0,1,1-.84.84A.77.77,0,0,1,449.14,674.63Z" transform="translate(-21.02 -458.85)"/><path d="M449.14,676.31a.84.84,0,1,1,.84-.84A.9.9,0,0,1,449.14,676.31Zm0-.1a.74.74,0,1,0-.74-.74C448.3,675.78,448.72,676.21,449.14,676.21Z" transform="translate(-21.02 -458.85)"/><path d="M108.32,661.68a1.48,1.48,0,1,1-1.47,1.47A1.44,1.44,0,0,1,108.32,661.68Z" transform="translate(-21.02 -458.85)"/><path d="M108.32,661.68a1.48,1.48,0,1,1-1.47,1.47A1.44,1.44,0,0,1,108.32,661.68Z" transform="translate(-21.02 -458.85)"/><path d="M108.32,662.1a1.06,1.06,0,1,1-1,1A1,1,0,0,1,108.32,662.1Z" transform="translate(-21.02 -458.85)"/><path d="M108.32,664.21a1.06,1.06,0,1,1,1.05-1.06A1.14,1.14,0,0,1,108.32,664.21Zm0-.11a1.05,1.05,0,1,0-1-1.05A1,1,0,0,0,108.32,664.1Z" transform="translate(-21.02 -458.85)"/><path d="M108.32,662.31a.85.85,0,1,1-.84.84A.83.83,0,0,1,108.32,662.31Z" transform="translate(-21.02 -458.85)"/><path d="M108.32,664a.91.91,0,0,1-.84-.85.84.84,0,0,1,1.68,0A.91.91,0,0,1,108.32,664Zm0-.11a.73.73,0,0,0,.74-.74.72.72,0,0,0-.74-.73.71.71,0,0,0-.73.73A.78.78,0,0,0,108.32,663.89Z" transform="translate(-21.02 -458.85)"/><path d="M123.06,661.79a1.47,1.47,0,1,1-1.48,1.47A1.51,1.51,0,0,1,123.06,661.79Z" transform="translate(-21.02 -458.85)"/><path d="M123.06,661.79a1.47,1.47,0,1,1-1.48,1.47A1.51,1.51,0,0,1,123.06,661.79Z" transform="translate(-21.02 -458.85)"/><path d="M123.06,662.21a1,1,0,1,1-1,1A1.13,1.13,0,0,1,123.06,662.21Z" transform="translate(-21.02 -458.85)"/><path d="M123.06,664.31a1,1,0,1,1,1-1A1.06,1.06,0,0,1,123.06,664.31Zm0,0a1,1,0,1,0-1-1A1.12,1.12,0,0,0,123.06,664.31Z" transform="translate(-21.02 -458.85)"/><path d="M123.06,662.42a.84.84,0,1,1-.84.84C122.32,662.84,122.64,662.42,123.06,662.42Z" transform="translate(-21.02 -458.85)"/><path d="M123.06,664.1a.84.84,0,1,1,.84-.84A.77.77,0,0,1,123.06,664.1Zm0-.1a.74.74,0,0,0,0-1.48.74.74,0,1,0,0,1.48Z" transform="translate(-21.02 -458.85)"/><path d="M108.32,673.78a1.48,1.48,0,1,1,0,3,1.48,1.48,0,0,1,0-3Z" transform="translate(-21.02 -458.85)"/><path d="M108.32,673.78a1.48,1.48,0,1,1,0,3,1.48,1.48,0,0,1,0-3Z" transform="translate(-21.02 -458.85)"/><path d="M108.32,674.21a1,1,0,1,1,0,2.1,1.14,1.14,0,0,1-1-1A1,1,0,0,1,108.32,674.21Z" transform="translate(-21.02 -458.85)"/><path d="M108.32,676.31a1,1,0,0,1,0-2.1,1.12,1.12,0,0,1,1.05,1A1,1,0,0,1,108.32,676.31Zm0,0a1,1,0,1,0-1-1A1,1,0,0,0,108.32,676.31Z" transform="translate(-21.02 -458.85)"/><path d="M108.32,674.42a.84.84,0,1,1-.84.84A.9.9,0,0,1,108.32,674.42Z" transform="translate(-21.02 -458.85)"/><path d="M108.32,676.1a.84.84,0,1,1,.84-.84A.83.83,0,0,1,108.32,676.1Zm0-.11a.72.72,0,0,0,.74-.73.73.73,0,0,0-.74-.74.72.72,0,0,0-.73.74A.71.71,0,0,0,108.32,676Z" transform="translate(-21.02 -458.85)"/><path d="M123.06,674a1.47,1.47,0,1,1-1.48,1.47A1.51,1.51,0,0,1,123.06,674Z" transform="translate(-21.02 -458.85)"/><path d="M123.06,674a1.47,1.47,0,1,1-1.48,1.47A1.51,1.51,0,0,1,123.06,674Z" transform="translate(-21.02 -458.85)"/><path d="M123.06,674.42a1.05,1.05,0,1,1-1,1.05A1,1,0,0,1,123.06,674.42Z" transform="translate(-21.02 -458.85)"/><path d="M123.06,676.52a1,1,0,1,1,1-1A1.13,1.13,0,0,1,123.06,676.52Zm0-.1a1.06,1.06,0,0,0,0-2.11,1.06,1.06,0,0,0,0,2.11Z" transform="translate(-21.02 -458.85)"/><path d="M123.06,674.63a.84.84,0,1,1-.84.84C122.32,674.94,122.64,674.63,123.06,674.63Z" transform="translate(-21.02 -458.85)"/><path d="M123.06,676.31a.84.84,0,1,1,.84-.84A.83.83,0,0,1,123.06,676.31Zm0-.1a.74.74,0,0,0,0-1.48.73.73,0,0,0-.74.74A.8.8,0,0,0,123.06,676.21Z" transform="translate(-21.02 -458.85)"/><path d="M34.33,661.68a1.48,1.48,0,1,1-1.48,1.47A1.44,1.44,0,0,1,34.33,661.68Z" transform="translate(-21.02 -458.85)"/><path d="M34.33,661.68a1.48,1.48,0,1,1-1.48,1.47A1.44,1.44,0,0,1,34.33,661.68Z" transform="translate(-21.02 -458.85)"/><path d="M34.33,662.1a1.06,1.06,0,1,1-1.06,1A1.06,1.06,0,0,1,34.33,662.1Z" transform="translate(-21.02 -458.85)"/><path d="M34.33,664.21a1.06,1.06,0,1,1,1.05-1.06A1.14,1.14,0,0,1,34.33,664.21Zm0-.11a1.05,1.05,0,1,0-1.06-1.05A1.06,1.06,0,0,0,34.33,664.1Z" transform="translate(-21.02 -458.85)"/><path d="M34.33,662.31a.85.85,0,0,1,0,1.69.84.84,0,0,1-.85-.85C33.59,662.63,33.91,662.31,34.33,662.31Z" transform="translate(-21.02 -458.85)"/><path d="M34.33,664a.92.92,0,0,1-.85-.85.91.91,0,0,1,.85-.84.9.9,0,0,1,.84.84A.84.84,0,0,1,34.33,664Zm0-.11a.72.72,0,0,0,.73-.74.71.71,0,0,0-.73-.73.72.72,0,0,0-.74.73A.79.79,0,0,0,34.33,663.89Z" transform="translate(-21.02 -458.85)"/><path d="M49.06,661.79a1.47,1.47,0,1,1-1.47,1.47A1.51,1.51,0,0,1,49.06,661.79Z" transform="translate(-21.02 -458.85)"/><path d="M49.06,661.79a1.47,1.47,0,1,1-1.47,1.47A1.51,1.51,0,0,1,49.06,661.79Z" transform="translate(-21.02 -458.85)"/><path d="M49.06,662.21a1,1,0,1,1-1.05,1A1.23,1.23,0,0,1,49.06,662.21Z" transform="translate(-21.02 -458.85)"/><path d="M49.06,664.31a1.05,1.05,0,1,1,1.06-1A1,1,0,0,1,49.06,664.31Zm0,0a1,1,0,1,0-1.05-1A1.23,1.23,0,0,0,49.06,664.31Z" transform="translate(-21.02 -458.85)"/><path d="M49.17,662.42a.84.84,0,1,1-.84.84A.83.83,0,0,1,49.17,662.42Z" transform="translate(-21.02 -458.85)"/><path d="M49.06,664.1a.84.84,0,1,1,.84-.84C50,663.79,49.59,664.1,49.06,664.1Zm0-.1a.74.74,0,0,0,0-1.48.74.74,0,0,0,0,1.48Z" transform="translate(-21.02 -458.85)"/><path d="M34.33,673.78a1.48,1.48,0,1,1-1.48,1.48A1.44,1.44,0,0,1,34.33,673.78Z" transform="translate(-21.02 -458.85)"/><path d="M34.33,673.78a1.48,1.48,0,1,1-1.48,1.48A1.44,1.44,0,0,1,34.33,673.78Z" transform="translate(-21.02 -458.85)"/><path d="M34.33,674.21a1.05,1.05,0,1,1-1.06,1A1.06,1.06,0,0,1,34.33,674.21Z" transform="translate(-21.02 -458.85)"/><path d="M34.33,676.31a1,1,0,1,1,1.05-1A1.06,1.06,0,0,1,34.33,676.31Zm0,0a1.05,1.05,0,1,0-1.06-1A1.14,1.14,0,0,0,34.33,676.31Z" transform="translate(-21.02 -458.85)"/><path d="M34.33,674.42a.84.84,0,0,1,0,1.68.84.84,0,0,1-.85-.84C33.59,674.84,33.91,674.42,34.33,674.42Z" transform="translate(-21.02 -458.85)"/><path d="M34.33,676.1a.84.84,0,1,1,0-1.68.9.9,0,0,1,.84.84A.78.78,0,0,1,34.33,676.1Zm0-.11a.71.71,0,0,0,.73-.73.72.72,0,0,0-.73-.74.73.73,0,0,0-.74.74A.72.72,0,0,0,34.33,676Z" transform="translate(-21.02 -458.85)"/><path d="M49.06,674a1.47,1.47,0,1,1-1.47,1.47A1.51,1.51,0,0,1,49.06,674Z" transform="translate(-21.02 -458.85)"/><path d="M49.06,674a1.47,1.47,0,1,1-1.47,1.47A1.51,1.51,0,0,1,49.06,674Z" transform="translate(-21.02 -458.85)"/><path d="M49.06,674.42A1.05,1.05,0,1,1,48,675.47,1.13,1.13,0,0,1,49.06,674.42Z" transform="translate(-21.02 -458.85)"/><path d="M49.06,676.52a1.05,1.05,0,1,1,1.06-1A1.06,1.06,0,0,1,49.06,676.52Zm0-.1a1.06,1.06,0,1,0,0-2.11A1.06,1.06,0,0,0,48,675.36,1.14,1.14,0,0,0,49.06,676.42Z" transform="translate(-21.02 -458.85)"/><path d="M49.17,674.63a.84.84,0,1,1-.84.84A.77.77,0,0,1,49.17,674.63Z" transform="translate(-21.02 -458.85)"/><path d="M49.06,676.31a.84.84,0,1,1,.84-.84C50,675.89,49.59,676.31,49.06,676.31Zm0-.1a.74.74,0,0,0,0-1.48.72.72,0,0,0-.73.74A.79.79,0,0,0,49.06,676.21Z" transform="translate(-21.02 -458.85)"/></svg>