<svg id="Layer_1" data-name="Layer 1" xmlns="http://www.w3.org/2000/svg" xmlns:xlink="http://www.w3.org/1999/xlink" viewBox="0 0 1156.2 538.5"><defs><radialGradient id="radial-gradient" cx="-2321.56" cy="1002.28" r="4.88" gradientTransform="matrix(0.67, -0.74, -0.74, -0.67, 2454.56, -345.03)" gradientUnits="userSpaceOnUse"><stop offset="0" stop-color="#fff"/><stop offset="1"/></radialGradient><radialGradient id="radial-gradient-2" cx="-2082.58" cy="922.69" r="4.88" gradientTransform="matrix(1, 0, 0, -1, -25.6, 942.1)" xlink:href="#radial-gradient"/><radialGradient id="radial-gradient-3" cx="-2083.44" cy="899.48" r="4.88" gradientTransform="matrix(1, 0, 0, -1, -25.6, 942.1)" xlink:href="#radial-gradient"/><radialGradient id="radial-gradient-4" cx="-2094.61" cy="911.69" r="4.88" gradientTransform="matrix(1, 0, 0, -1, -25.6, 942.1)" xlink:href="#radial-gradient"/><radialGradient id="radial-gradient-5" cx="-2105.78" cy="879.05" r="4.88" gradientTransform="matrix(1, 0, 0, -1, -25.6, 942.1)" xlink:href="#radial-gradient"/><radialGradient id="radial-gradient-6" cx="-2116.95" cy="891.26" r="4.88" gradientTransform="matrix(1, 0, 0, -1, -25.6, 942.1)" xlink:href="#radial-gradient"/><radialGradient id="radial-gradient-7" cx="-2117.81" cy="868.05" r="4.88" gradientTransform="matrix(1, 0, 0, -1, -25.6, 942.1)" xlink:href="#radial-gradient"/><radialGradient id="radial-gradient-8" cx="-2128.98" cy="880.27" r="4.89" gradientTransform="matrix(1, 0, 0, -1, -25.6, 942.1)" xlink:href="#radial-gradient"/><radialGradient id="radial-gradient-9" cx="1214.66" cy="-2299.36" r="4.12" gradientTransform="matrix(-0.63, 0.77, 0.77, 0.63, 2816.22, 1182.79)" xlink:href="#radial-gradient"/><radialGradient id="radial-gradient-10" cx="1249.56" cy="-2341.89" r="4.12" gradientTransform="matrix(-0.63, 0.77, 0.77, 0.63, 2816.22, 1182.79)" xlink:href="#radial-gradient"/><radialGradient id="radial-gradient-11" cx="1366.92" cy="-2174.4" r="4.12" gradientTransform="matrix(-0.63, 0.77, 0.77, 0.63, 2816.22, 1182.79)" xlink:href="#radial-gradient"/><radialGradient id="radial-gradient-12" cx="1401.82" cy="-2216.93" r="4.13" gradientTransform="matrix(-0.63, 0.77, 0.77, 0.63, 2816.22, 1182.79)" xlink:href="#radial-gradient"/><radialGradient id="radial-gradient-13" cx="1438.29" cy="-2261.38" r="4.13" gradientTransform="matrix(-0.63, 0.77, 0.77, 0.63, 2816.22, 1182.79)" xlink:href="#radial-gradient"/><radialGradient id="radial-gradient-14" cx="1473.2" cy="-2303.91" r="4.12" gradientTransform="matrix(-0.63, 0.77, 0.77, 0.63, 2816.22, 1182.79)" xlink:href="#radial-gradient"/><linearGradient id="linear-gradient" x1="-48.75" y1="1396.71" x2="-48.75" y2="1385.91" gradientTransform="translate(1827.15 708.7) rotate(90)" xlink:href="#radial-gradient"/><linearGradient id="linear-gradient-2" x1="-127.37" y1="1183.71" x2="-127.37" y2="1170.39" gradientTransform="translate(1827.15 799.47) rotate(90)" xlink:href="#radial-gradient"/><radialGradient id="radial-gradient-15" cx="919.91" cy="-2084.82" r="4.12" gradientTransform="matrix(-0.63, 0.77, 0.77, 0.63, 2816.22, 1182.79)" xlink:href="#radial-gradient"/><radialGradient id="radial-gradient-16" cx="954.82" cy="-2127.35" r="4.12" gradientTransform="matrix(-0.63, 0.77, 0.77, 0.63, 2816.22, 1182.79)" xlink:href="#radial-gradient"/><radialGradient id="radial-gradient-17" cx="989.72" cy="-2169.88" r="4.12" gradientTransform="matrix(-0.63, 0.77, 0.77, 0.63, 2816.22, 1182.79)" xlink:href="#radial-gradient"/><radialGradient id="radial-gradient-18" cx="1024.63" cy="-2212.41" r="4.12" gradientTransform="matrix(-0.63, 0.77, 0.77, 0.63, 2816.22, 1182.79)" xlink:href="#radial-gradient"/><radialGradient id="radial-gradient-19" cx="1144.86" cy="-2214.31" r="4.12" gradientTransform="matrix(-0.63, 0.77, 0.77, 0.63, 2816.22, 1182.79)" xlink:href="#radial-gradient"/><radialGradient id="radial-gradient-20" cx="1179.75" cy="-2256.83" r="4.13" gradientTransform="matrix(-0.63, 0.77, 0.77, 0.63, 2816.22, 1182.79)" xlink:href="#radial-gradient"/><radialGradient id="radial-gradient-21" cx="1297.11" cy="-2089.35" r="4.12" gradientTransform="matrix(-0.63, 0.77, 0.77, 0.63, 2816.22, 1182.79)" xlink:href="#radial-gradient"/><radialGradient id="radial-gradient-22" cx="1332.02" cy="-2131.87" r="4.12" gradientTransform="matrix(-0.63, 0.77, 0.77, 0.63, 2816.22, 1182.79)" xlink:href="#radial-gradient"/><radialGradient id="radial-gradient-23" cx="992.18" cy="-1514.17" r="4.12" gradientTransform="matrix(0.77, 0.63, 0.63, -0.77, 978.91, -1141.97)" xlink:href="#radial-gradient"/><radialGradient id="radial-gradient-24" cx="1027.08" cy="-1556.7" r="4.12" gradientTransform="matrix(0.77, 0.63, 0.63, -0.77, 978.91, -1141.97)" xlink:href="#radial-gradient"/><radialGradient id="radial-gradient-25" cx="723.44" cy="-1693.22" r="4.13" gradientTransform="matrix(-0.63, 0.77, 0.77, 0.63, 2816.22, 1182.79)" xlink:href="#radial-gradient"/><radialGradient id="radial-gradient-26" cx="758.35" cy="-1735.75" r="4.12" gradientTransform="matrix(-0.63, 0.77, 0.77, 0.63, 2816.22, 1182.79)" xlink:href="#radial-gradient"/><radialGradient id="radial-gradient-27" cx="789.13" cy="-1773.25" r="4.12" gradientTransform="matrix(-0.63, 0.77, 0.77, 0.63, 2816.22, 1182.79)" xlink:href="#radial-gradient"/><radialGradient id="radial-gradient-28" cx="824.03" cy="-1815.78" r="4.12" gradientTransform="matrix(-0.63, 0.77, 0.77, 0.63, 2816.22, 1182.79)" xlink:href="#radial-gradient"/><radialGradient id="radial-gradient-29" cx="858.93" cy="-1858.32" r="4.12" gradientTransform="matrix(-0.63, 0.77, 0.77, 0.63, 2816.22, 1182.79)" xlink:href="#radial-gradient"/><radialGradient id="radial-gradient-30" cx="-1385.26" cy="1522.77" r="6.07" gradientTransform="matrix(-0.03, -1, -1, 0.03, 2113.55, -942.55)" xlink:href="#radial-gradient"/><radialGradient id="radial-gradient-31" cx="-1281.32" cy="1777.4" r="6.07" gradientTransform="matrix(-0.03, -1, -1, 0.03, 2135.45, -611.8)" xlink:href="#radial-gradient"/><radialGradient id="radial-gradient-32" cx="-1368.8" cy="1410.25" r="6.08" gradientTransform="matrix(-0.03, -1, -1, 0.03, 2113.55, -942.55)" xlink:href="#radial-gradient"/></defs><title>Asphalt Paver</title><path d="M127.6,647.45v-60.8c0-7.3,5.2-13.2,11.6-13.2h17.4c6.4,0,11.6,5.9,11.6,13.2v60.8c0,7.3-5.2,13.2-11.6,13.2H139.2C132.8,660.65,127.6,654.75,127.6,647.45Zm11.5-69.4c-4.1,0-7.5,3.8-7.5,8.6v60.8c0,4.7,3.4,8.6,7.5,8.6h17.4c4.1,0,7.5-3.8,7.5-8.6v-60.8c0-4.7-3.4-8.6-7.5-8.6Z" transform="translate(-21.9 -330.75)" style="fill:#a7cb64"/><path d="M156.6,660.25v-60.8c0-7.3,5.2-13.2,11.6-13.2h17.4c6.3,0,11.4,5.7,11.6,12.8l18.7,60.7v.4c0,2.5-1.4,6.2-13.7,10-6.6,2-13.8,3.3-16.6,3.3H168.2C161.8,673.55,156.6,667.55,156.6,660.25ZM193.1,600v-.4c0-4.7-3.4-8.6-7.5-8.6H168.2c-4.1,0-7.5,3.8-7.5,8.6v60.8c0,4.7,3.4,8.6,7.5,8.6h17.4a67.29,67.29,0,0,0,15-3c8.1-2.4,10.7-4.7,11.2-5.5Z" transform="translate(-21.9 -330.75)" style="fill:#a7cb64"/><path d="M223,668.25c-14.8-4.6-16.5-9.1-16.5-12.1v-.5l22.7-73.5c.2-8.6,6.4-15.5,14-15.5h21.1c7.7,0,14,7.2,14,16v73.6c0,8.8-6.3,16-14,16H243.2C239.7,672.25,231,670.75,223,668.25Zm20.2-96c-5,0-9.1,4.7-9.1,10.4v.5l-22.6,73.2c.6,1.1,3.8,3.7,13.5,6.7,7.8,2.3,15.5,3.6,18.1,3.6h21.2c5,0,9.1-4.7,9.1-10.4v-73.6c0-5.7-4.1-10.4-9.1-10.4Z" transform="translate(-21.9 -330.75)" style="fill:#a7cb64"/><polygon points="136.1 501.1 136.1 510.1 6.9 510.1 6.9 518.5 0 518.5 0 510.1 0 509.6 0 501.1 136.1 501.1" style="fill:#aea7a7"/><path d="M65.6,856.85H96.9a7.7,7.7,0,0,0,7.7-7.7h0v-77a7.7,7.7,0,0,0-7.7-7.7H65.6a7.7,7.7,0,0,0-7.7,7.7h0v77a7.64,7.64,0,0,0,7.58,7.7Z" transform="translate(-21.9 -330.75)" style="fill:#a7cb64"/><path d="M168.9,674.65H113.4a8.82,8.82,0,0,0-6.9,3.3L86.8,702a9,9,0,0,0-2,5.7v60.5a9,9,0,0,0,9,9H169a9,9,0,0,0,9-9v-84.5A9.18,9.18,0,0,0,168.9,674.65Z" transform="translate(-21.9 -330.75)" style="fill:#a7cb64"/><path d="M127.4,718.05h25.2a5.38,5.38,0,0,0,5.4-5.36V687.45a5.38,5.38,0,0,0-5.36-5.4H127.4a5.38,5.38,0,0,0-5.4,5.36v25.24a5.38,5.38,0,0,0,5.36,5.4Z" transform="translate(-21.9 -330.75)" style="fill:#6d863d"/><path d="M151.6,688.35a4.88,4.88,0,1,0,.3,6.9A4.88,4.88,0,0,0,151.6,688.35Z" transform="translate(-21.9 -330.75)" style="fill:url(#radial-gradient)"/><path d="M135,688.35a4.88,4.88,0,1,0,.3,6.9,4.79,4.79,0,0,0-.18-6.79Z" transform="translate(-21.9 -330.75)" style="fill:url(#radial-gradient-2)"/><path d="M151.6,704.65a4.88,4.88,0,1,0,.3,6.9A4.88,4.88,0,0,0,151.6,704.65Z" transform="translate(-21.9 -330.75)" style="fill:url(#radial-gradient-3)"/><path d="M135,704.65a4.88,4.88,0,1,0,.3,6.9,4.79,4.79,0,0,0-.18-6.79Z" transform="translate(-21.9 -330.75)" style="fill:url(#radial-gradient-4)"/><path d="M127.4,764.65h25.2a5.38,5.38,0,0,0,5.4-5.36V734.05a5.38,5.38,0,0,0-5.36-5.4H127.4A5.38,5.38,0,0,0,122,734v25.24a5.38,5.38,0,0,0,5.36,5.4Z" transform="translate(-21.9 -330.75)" style="fill:#6d863d"/><path d="M151.6,734.85a4.88,4.88,0,1,0,.3,6.9A4.88,4.88,0,0,0,151.6,734.85Z" transform="translate(-21.9 -330.75)" style="fill:url(#radial-gradient-5)"/><path d="M135,734.85a4.88,4.88,0,1,0,.3,6.9,4.81,4.81,0,0,0-.19-6.8Z" transform="translate(-21.9 -330.75)" style="fill:url(#radial-gradient-6)"/><path d="M151.6,751.15a4.88,4.88,0,1,0,.3,6.9A4.88,4.88,0,0,0,151.6,751.15Z" transform="translate(-21.9 -330.75)" style="fill:url(#radial-gradient-7)"/><path d="M135,751.15a4.88,4.88,0,1,0,.3,6.9,4.81,4.81,0,0,0-.19-6.8Z" transform="translate(-21.9 -330.75)" style="fill:url(#radial-gradient-8)"/><path d="M275.4,783H183.5V682.25a8.6,8.6,0,0,1,8.6-8.6h75.4a7.84,7.84,0,0,1,7.9,7.8V783Z" transform="translate(-21.9 -330.75)" style="fill:#a7cb64"/><rect x="177.82" y="359.39" width="59.5" height="2.7" style="fill:#6d863d"/><rect x="177.82" y="365.47" width="59.5" height="2.7" style="fill:#6d863d"/><rect x="177.82" y="371.65" width="59.5" height="2.7" style="fill:#6d863d"/><rect x="177.82" y="377.83" width="59.5" height="2.7" style="fill:#6d863d"/><rect x="177.82" y="383.91" width="59.5" height="2.7" style="fill:#6d863d"/><rect x="177.82" y="390.08" width="59.5" height="2.7" style="fill:#6d863d"/><rect x="177.82" y="396.16" width="59.5" height="2.7" style="fill:#6d863d"/><rect x="177.82" y="402.34" width="59.5" height="2.7" style="fill:#6d863d"/><rect x="177.82" y="408.52" width="59.5" height="2.7" style="fill:#6d863d"/><rect x="177.82" y="414.6" width="59.5" height="2.7" style="fill:#6d863d"/><rect x="177.82" y="420.78" width="59.5" height="2.7" style="fill:#6d863d"/><rect x="177.82" y="426.86" width="59.5" height="2.7" style="fill:#6d863d"/><rect x="177.82" y="433.04" width="59.5" height="2.7" style="fill:#6d863d"/><circle cx="112.7" cy="480.7" r="10.7" style="fill:#6d863d"/><path d="M264.4,683.85a2.9,2.9,0,1,0,2.9-2.9A3,3,0,0,0,264.4,683.85Z" transform="translate(-21.9 -330.75)" style="fill:#6d863d"/><path d="M264.4,714.65a2.9,2.9,0,1,0,2.9-2.9A3,3,0,0,0,264.4,714.65Z" transform="translate(-21.9 -330.75)" style="fill:#6d863d"/><path d="M264.4,745.45a2.9,2.9,0,1,0,2.9-2.9,2.9,2.9,0,0,0-2.9,2.9Z" transform="translate(-21.9 -330.75)" style="fill:#6d863d"/><path d="M264.4,776.15a2.9,2.9,0,1,0,2.9-2.9A3,3,0,0,0,264.4,776.15Z" transform="translate(-21.9 -330.75)" style="fill:#6d863d"/><circle cx="169.6" cy="353.1" r="2.9" style="fill:#6d863d"/><circle cx="169.6" cy="383.9" r="2.9" style="fill:#6d863d"/><circle cx="169.6" cy="414.7" r="2.9" style="fill:#6d863d"/><circle cx="169.6" cy="445.4" r="2.9" style="fill:#6d863d"/><path d="M441.7,430.05l-48.8,26.7a1.27,1.27,0,0,1-1.7-.5l-2.1-3.8a1.27,1.27,0,0,1,.5-1.7l48.8-26.7a1.27,1.27,0,0,1,1.7.5l2.1,3.8A1.34,1.34,0,0,1,441.7,430.05Z" transform="translate(-21.9 -330.75)" style="fill:#614f49"/><path d="M438.8,465.35l-14.5,7.9a1.27,1.27,0,0,1-1.7-.5L408,446a1.27,1.27,0,0,1,.5-1.7l14.5-7.9a1.27,1.27,0,0,1,1.7.5l14.6,26.8A1.27,1.27,0,0,1,438.8,465.35Z" transform="translate(-21.9 -330.75)" style="fill:#614f49"/><path d="M433.6,450.45l20.1,6.3,3.7,17.8v2.3H436.3l-4.1,13.2H420a6.08,6.08,0,0,1-6.1-5.9l-.5-11.7a7.27,7.27,0,0,1,2.4-5.7Z" transform="translate(-21.9 -330.75)" style="fill:#a7cb64"/><rect x="331.1" y="11" width="65.2" height="2.9" style="fill:#faaa28"/><path d="M284.6,358.55v-4.2a15.75,15.75,0,0,1,16-15.5h0l180.8-8.1c8.9,0,16,8.4,16,18.7v9.1Z" transform="translate(-21.9 -330.75)" style="fill:#a7cb64"/><path d="M262.4,659.15a4.12,4.12,0,1,0-.6-5.8A4.21,4.21,0,0,0,262.4,659.15Z" transform="translate(-21.9 -330.75)" style="fill:url(#radial-gradient-9)"/><path d="M207.4,659.15a4.12,4.12,0,1,0-.6-5.8,4.14,4.14,0,0,0,.6,5.8Z" transform="translate(-21.9 -330.75)" style="fill:url(#radial-gradient-10)"/><path d="M262.4,856.15a4.12,4.12,0,1,0-.6-5.8A4.21,4.21,0,0,0,262.4,856.15Z" transform="translate(-21.9 -330.75)" style="fill:url(#radial-gradient-11)"/><path d="M207.4,856.15a4.12,4.12,0,1,0-.6-5.8,4.14,4.14,0,0,0,.6,5.8Z" transform="translate(-21.9 -330.75)" style="fill:url(#radial-gradient-12)"/><path d="M149.9,856.15a4.12,4.12,0,1,0-.6-5.8,4.14,4.14,0,0,0,.6,5.8Z" transform="translate(-21.9 -330.75)" style="fill:url(#radial-gradient-13)"/><path d="M94.9,856.15a4.12,4.12,0,1,0-.6-5.8,4.14,4.14,0,0,0,.6,5.8Z" transform="translate(-21.9 -330.75)" style="fill:url(#radial-gradient-14)"/><path d="M712.3,551.65v-69.1a1.9,1.9,0,0,0-1.9-1.9h-9.8a1.9,1.9,0,0,0-1.9,1.9h0v69.1a1.9,1.9,0,0,0,1.9,1.9h9.8a1.9,1.9,0,0,0,1.9-1.9Z" transform="translate(-21.9 -330.75)" style="fill:#a7cb64"/><path d="M714.8,635.35v-93.7a2.48,2.48,0,0,0-2.46-2.5H699a2.48,2.48,0,0,0-2.5,2.46v93.74a2.48,2.48,0,0,0,2.46,2.5H712.3A2.54,2.54,0,0,0,714.8,635.35Z" transform="translate(-21.9 -330.75)" style="fill:#a7cb64"/><path d="M718,549.75v-5.7a1.9,1.9,0,0,0-1.9-1.9H695a1.9,1.9,0,0,0-1.9,1.9h0v5.7a1.9,1.9,0,0,0,1.9,1.9h21.1A2,2,0,0,0,718,549.75Z" transform="translate(-21.9 -330.75)" style="fill:#6d863d"/><polygon points="349.8 11.1 458.9 11.1 459.7 14.6 494.6 167.9 494.7 168.4 494.7 216.2 490.2 216.2 490.2 168.9 487.5 157.1 481 128.8 455.3 15.6 349.8 15.6 349.8 11.1" style="fill:#a7cb64"/><path d="M511.5,499.75,476.7,347H371.1v-5.7H481.2L517,498.55l.1.6v48.4h-5.7Zm4.5-.5-35.7-156.8h-108v3.3H477.6l25.9,113.7,9.1,40.2v46.7h3.3Z" transform="translate(-21.9 -330.75)" style="fill:#6d863d"/><path d="M364,344l-35.4,4.2c-.2,0-.3.1-.3.2l-43.8,100.3,15.3,108.9h15.7l-15.3-108.9L344,348.35c0-.1.2-.2.3-.2l19.7-2.3V344Z" transform="translate(-21.9 -330.75)" style="fill:#6d863d"/><path d="M354.1,342.65l-35.4,4.2c-.2,0-.3.1-.3.2l-42.5,97.2a11.81,11.81,0,0,0-.9,6.4l14.9,105.5h15.7l-15.3-108.8,43.8-100.3c0-.1.2-.2.3-.2l19.7-2.3Z" transform="translate(-21.9 -330.75)" style="fill:#a7cb64"/><path d="M296.9,556.65h89.8a3,3,0,0,0,3-3v-8.8a3,3,0,0,0-3-3H296.9a3,3,0,0,0-3,3v8.8A3.08,3.08,0,0,0,296.9,556.65Z" transform="translate(-21.9 -330.75)" style="fill:#a7cb64"/><polygon points="287.2 318.1 321.8 318.1 321.8 229 272 229 287.2 318.1" style="fill:#6d863d"/><rect x="271.97" y="224.61" width="95.8" height="11.6" style="fill:#6d863d"/><path d="M290.5,655.55v.4h33v-.4h61.3l-21.5-78c-4-14-7.3-26.7-10.2-38C341,493.35,334.3,468,313.7,468H290.6l-2.8,187.6Zm4.1-5.3V481.45h3c10.8,0,12.7,27.5,16,77.5.5,7.3,1,15,1.6,23.2l3.8,68H294.6Zm28.5,0-3.8-68.5c-.6-8.3-1.1-16-1.6-23.3-3.7-54.9-5.5-82.4-20.1-82.4h-3.1v-2.7h19.1c17.8,0,23.7,22.7,35.6,68,3,11.3,6.3,24,10.3,38.1l19.5,70.9H323.1Z" transform="translate(-21.9 -330.75)" style="fill:#a7cb64"/><rect x="357.43" y="391.69" width="8" height="146.5" style="fill:#aea7a7"/><rect x="59.28" y="512.87" width="304.3" height="20.8" style="fill:#a7cb64"/><path d="M118.3,644.15h265V786H106.5V656A11.82,11.82,0,0,1,118.3,644.15Z" transform="translate(-21.9 -330.75)" style="fill:#6d863d"/><path d="M76.4,846.45a14.35,14.35,0,0,1-.7-4.6v-70H421.2v74.6Z" transform="translate(-21.9 -330.75)" style="fill:#6d863d"/><path d="M101.2,825.35H324.8v-28.2H101.2a2.26,2.26,0,0,0-2.3,2.22v23.68a2.26,2.26,0,0,0,2.22,2.3Z" transform="translate(-21.9 -330.75)" style="fill:#a7cb64"/><path d="M324.7,845.05h0a2.66,2.66,0,0,0,2.6-2.6v-90.7a2.66,2.66,0,0,0-2.6-2.6h0a2.66,2.66,0,0,0-2.6,2.6v90.7A2.66,2.66,0,0,0,324.7,845.05Z" transform="translate(-21.9 -330.75)" style="fill:#a7cb64"/><path d="M314.4,705.85H352v5.2H314.4a2.66,2.66,0,0,1-2.6-2.6,2.58,2.58,0,0,1,2.56-2.6Z" transform="translate(-21.9 -330.75)" style="fill:#a7cb64"/><path d="M314.4,718.15H352v5.2H314.4a2.66,2.66,0,0,1-2.6-2.6,2.58,2.58,0,0,1,2.56-2.6Z" transform="translate(-21.9 -330.75)" style="fill:#a7cb64"/><path d="M314.4,730.45H352v5.2H314.4a2.66,2.66,0,0,1-2.6-2.6,2.58,2.58,0,0,1,2.56-2.6Z" transform="translate(-21.9 -330.75)" style="fill:#a7cb64"/><circle cx="284.7" cy="480.7" r="10.7" style="fill:#6d863d"/><path d="M353.3,783.75h0a2.66,2.66,0,0,0,2.6-2.6v-90.7a2.66,2.66,0,0,0-2.6-2.6h0a2.66,2.66,0,0,0-2.6,2.6v90.7A2.66,2.66,0,0,0,353.3,783.75Z" transform="translate(-21.9 -330.75)" style="fill:#a7cb64"/><path d="M668.7,622.65H894.9l-16.8-22.6H751v2.7h-7.7v-2.7H709.4l-.4.9h-6.9l-.4-.9H685.8a50.52,50.52,0,0,0-17.1,2.8Zm109-21.7-.1-.3,5.5.3Z" transform="translate(-21.9 -330.75)" style="fill:#6d863d"/><path d="M668.7,608.75H933.4c13.3,0,24.2,4.5,24.2,10.2v2.7H668.7Z" transform="translate(-21.9 -330.75)" style="fill:#a7cb64"/><rect x="362.12" y="298.24" width="315.3" height="214.6" style="fill:#a7cb64"/><path d="M1138.2,739.25V797a10.71,10.71,0,0,1-10.7,10.7H698.8V694.05Z" transform="translate(-21.9 -330.75)" style="fill:#6d863d"/><path d="M755.4,807.65V700.15l382.8,39.1V797a10.71,10.71,0,0,1-10.7,10.7h-78.7v-43H919.9v43Z" transform="translate(-21.9 -330.75)" style="fill:#a7cb64"/><path d="M439.7,461.35a446.65,446.65,0,0,1,17.4,42.7c11.9,34-10.7,60.3-10.7,60.3l-33.7,55-2.2,10L397.7,642a2.63,2.63,0,0,1-3.73,0,1.45,1.45,0,0,1-.17-.18l-1.7-2.4,3.9-16.9s25.1-53.1,34-74,6.5-36.7,6.5-36.7l-6.7-29.9-5.2-13.7Z" transform="translate(-21.9 -330.75)" style="fill:#a7cb64"/><path d="M440.9,460.85a458,458,0,0,1,18.2,44.4c11.9,34-10.7,60.3-10.7,60.3l-33.7,55-2.2,10-12.8,12.6a2.63,2.63,0,0,1-3.73,0,1.45,1.45,0,0,1-.17-.18l-1.7-2.4,3.9-16.9s25.1-53.1,34-74,6.5-36.7,6.5-36.7l-6.7-29.9-5.9-15.5Z" transform="translate(-21.9 -330.75)" style="fill:#6d863d"/><circle cx="946.5" cy="454.7" r="17.6" style="fill:#382f2d"/><circle cx="946.5" cy="454.67" r="12.3" style="fill:#312527"/><path d="M959.6,785.45a8.8,8.8,0,1,0,8.8-8.8h0A8.81,8.81,0,0,0,959.6,785.45Z" transform="translate(-21.9 -330.75)" style="fill:#f6f6f6"/><path d="M962.1,785.45a6.3,6.3,0,1,0,6.3-6.3h0a6.27,6.27,0,0,0-6.3,6.24Z" transform="translate(-21.9 -330.75)" style="fill:#dad1d1"/><path d="M963.7,785.45a4.7,4.7,0,1,0,4.7-4.7,4.69,4.69,0,0,0-4.7,4.7Z" transform="translate(-21.9 -330.75)" style="fill:#f6f6f6"/><rect x="944.81" y="436.38" width="4.2" height="1.5" style="fill:#382f2d"/><rect x="973.98" y="767.02" width="1.5" height="4.2" transform="translate(-103.29 1091.26) rotate(-70)" style="fill:#382f2d"/><rect x="979.25" y="770.11" width="1.5" height="4.2" transform="translate(-263.38 695.82) rotate(-50)" style="fill:#382f2d"/><rect x="983.06" y="774.93" width="1.5" height="4.2" transform="translate(-278.61 265.26) rotate(-30)" style="fill:#382f2d"/><rect x="984.86" y="780.75" width="1.5" height="4.2" transform="translate(-142.87 -147.71) rotate(-10)" style="fill:#382f2d"/><rect x="983.45" y="788.12" width="4.2" height="1.5" transform="translate(15.62 1291.71) rotate(-80)" style="fill:#382f2d"/><rect x="981.2" y="793.84" width="4.2" height="1.5" transform="translate(-218.39 918.11) rotate(-60)" style="fill:#382f2d"/><rect x="977.2" y="798.45" width="4.2" height="1.5" transform="matrix(0.77, -0.64, 0.64, 0.77, -306.5, 485.71)" style="fill:#382f2d"/><rect x="971.81" y="801.39" width="4.2" height="1.5" transform="translate(-237.51 50.72) rotate(-20)" style="fill:#382f2d"/><rect x="943.9" y="471.5" width="4.2" height="1.5" style="fill:#382f2d"/><rect x="961.27" y="799.72" width="1.5" height="4.2" transform="translate(-142.37 1100.83) rotate(-70)" style="fill:#382f2d"/><rect x="956.03" y="796.61" width="1.5" height="4.2" transform="translate(-291.98 687.49) rotate(-50)" style="fill:#382f2d"/><rect x="952.29" y="791.74" width="1.5" height="4.2" transform="translate(-291.14 252.12) rotate(-30)" style="fill:#382f2d"/><rect x="950.2" y="785.84" width="1.5" height="4.2" transform="translate(-144.28 -153.65) rotate(-10)" style="fill:#382f2d"/><rect x="949.1" y="781.27" width="4.2" height="1.5" transform="translate(-6.02 1252.22) rotate(-80)" style="fill:#382f2d"/><rect x="951.29" y="775.5" width="4.2" height="1.5" transform="translate(-217.46 883.04) rotate(-60)" style="fill:#382f2d"/><rect x="955.3" y="770.91" width="4.2" height="1.5" transform="matrix(0.77, -0.64, 0.64, 0.77, -293.93, 465.19)" style="fill:#382f2d"/><rect x="960.68" y="768" width="4.2" height="1.5" transform="translate(-226.76 44.9) rotate(-20)" style="fill:#382f2d"/><path d="M641.1,549.55H520.3l.1-4.9c.1-11.5,7.4-20.8,16.3-20.8h7.9l.2,1.1h3.5l.2-1.1h16.9V527h3.8v-3.1h13.2l.2,1.1h2.7l-8.2-1.1h55.7Z" transform="translate(-21.9 -330.75)" style="fill:#6d863d"/><path d="M436.8,537.35h-3.4v-23c0-2.7,3.3-5,8-5.7l6.9-5.4,15.2,2,19,28.6H635.7c6.7,0,12.2,5.2,12.2,11.6v3.1H433.3v-3.1A11.24,11.24,0,0,1,436.8,537.35Z" transform="translate(-21.9 -330.75)" style="fill:#a7cb64"/><path d="M453.1,540.15c0,.4.3.8.6.8h5.7c.3,0,.6-.3.6-.8v-6.9c0-.4-.3-.8-.6-.8h-5.7c-.3,0-.6.3-.6.8Z" transform="translate(-21.9 -330.75)" style="fill:#ed1c24"/><path d="M452.8,540.15v-6.9a.93.93,0,0,1,.84-1h5.76a1,1,0,0,1,.9,1v6.9a.93.93,0,0,1-.84,1H453.7C453.2,541.25,452.8,540.75,452.8,540.15Zm.9-7.3a.46.46,0,0,0-.4.5v6.9a.46.46,0,0,0,.4.5h5.7a.46.46,0,0,0,.4-.5v-6.9a.46.46,0,0,0-.4-.5Z" transform="translate(-21.9 -330.75)" style="fill:#231f20"/><path d="M444.4,540.15c0,.4.3.8.6.8h5.7c.3,0,.6-.3.6-.8v-6.9c0-.4-.3-.8-.6-.8H445c-.3,0-.6.3-.6.8Z" transform="translate(-21.9 -330.75)" style="fill:#aba9a7"/><path d="M444.2,540.15v-6.9a.93.93,0,0,1,.84-1h5.76a1,1,0,0,1,.9,1v6.9a.93.93,0,0,1-.84,1H445.1C444.6,541.25,444.2,540.75,444.2,540.15Zm.9-7.3a.46.46,0,0,0-.4.5v6.9a.46.46,0,0,0,.4.5h5.7a.46.46,0,0,0,.4-.5v-6.9a.46.46,0,0,0-.4-.5Z" transform="translate(-21.9 -330.75)" style="fill:#231f20"/><circle cx="1023.1" cy="481.2" r="54.9" style="fill:#382f2d"/><circle cx="1023.1" cy="481.2" r="38.4" style="fill:#312527"/><circle cx="1023.1" cy="481.2" r="27.4" style="fill:#f6f6f6"/><circle cx="1023.1" cy="481.2" r="19.5" style="fill:#dad1d1"/><circle cx="1023.1" cy="481.2" r="14.6" style="fill:#f6f6f6"/><rect x="1017.99" y="424.11" width="13.1" height="4.6" style="fill:#382f2d"/><rect x="1062.7" y="754.48" width="4.6" height="13.1" transform="translate(-36.28 1170.76) rotate(-70)" style="fill:#382f2d"/><rect x="1072.57" y="852.44" width="13.1" height="4.6" transform="matrix(0.77, -0.64, 0.64, 0.77, -318.85, 562.87)" style="fill:#382f2d"/><rect x="1055.91" y="861.55" width="13.1" height="4.6" transform="translate(-253.28 84.73) rotate(-20)" style="fill:#382f2d"/><rect x="1015.2" y="533.6" width="13.1" height="4.6" style="fill:#382f2d"/><rect x="1022.8" y="856.32" width="4.6" height="13.1" transform="translate(-158.24 1200.28) rotate(-70)" style="fill:#382f2d"/><rect x="1006.41" y="846.3" width="4.6" height="13.1" transform="translate(-314.9 746.61) rotate(-50)" style="fill:#382f2d"/><rect x="994.62" y="831.57" width="4.6" height="13.1" transform="translate(-307.4 280) rotate(-30)" style="fill:#382f2d"/><rect x="988.64" y="813.57" width="4.6" height="13.1" transform="translate(-149.26 -146.22) rotate(-10)" style="fill:#382f2d"/><rect x="984.77" y="798.67" width="13.1" height="4.6" transform="translate(8.48 1307.39) rotate(-80)" style="fill:#382f2d"/><rect x="991.79" y="781.08" width="13.1" height="4.6" transform="translate(-201.16 925.53) rotate(-60)" style="fill:#382f2d"/><rect x="1004.41" y="766.86" width="13.1" height="4.6" transform="matrix(0.77, -0.64, 0.64, 0.77, -279.79, 499.04)" style="fill:#382f2d"/><rect x="1021.1" y="757.65" width="13.1" height="4.6" transform="translate(-219.84 66.56) rotate(-20)" style="fill:#382f2d"/><path d="M1042.4,787.55a3.1,3.1,0,1,0,3.1-3.1h0A3.18,3.18,0,0,0,1042.4,787.55Z" transform="translate(-21.9 -330.75)" style="fill:#382f2d"/><circle cx="1039.5" cy="462.99" r="3.1" style="fill:#382f2d"/><path d="M1069.1,805.75a3.1,3.1,0,1,0,3.6,2.5h0a3.08,3.08,0,0,0-3.56-2.51Z" transform="translate(-21.9 -330.75)" style="fill:#382f2d"/><path d="M1067.8,822.85a3.07,3.07,0,1,0,1.1,4.2,3,3,0,0,0-1-4.13Z" transform="translate(-21.9 -330.75)" style="fill:#382f2d"/><path d="M1055.9,835.25a3,3,0,1,0-1.8,3.9A3.17,3.17,0,0,0,1055.9,835.25Z" transform="translate(-21.9 -330.75)" style="fill:#382f2d"/><path d="M1038.8,837a3.17,3.17,0,1,0,0,.07Z" transform="translate(-21.9 -330.75)" style="fill:#382f2d"/><path d="M1024.6,827.25a3.07,3.07,0,1,0-4.2-1.1h0a3,3,0,0,0,4.08,1.17Z" transform="translate(-21.9 -330.75)" style="fill:#382f2d"/><path d="M1019.9,810.75a3.1,3.1,0,1,0-2.5-3.6h0a3.08,3.08,0,0,0,2.46,3.59Z" transform="translate(-21.9 -330.75)" style="fill:#382f2d"/><circle cx="1007.38" cy="462.38" r="3.1" style="fill:#382f2d"/><circle cx="871.4" cy="481.2" r="54.9" style="fill:#382f2d"/><circle cx="871.4" cy="481.2" r="38.4" style="fill:#312527"/><circle cx="871.4" cy="481.2" r="27.4" style="fill:#f6f6f6"/><circle cx="871.4" cy="481.2" r="19.5" style="fill:#dad1d1"/><circle cx="871.4" cy="481.2" r="14.6" style="fill:#f6f6f6"/><rect x="866.18" y="424.11" width="13.1" height="4.6" style="fill:#382f2d"/><rect x="910.98" y="754.48" width="4.6" height="13.1" transform="translate(-136.12 1028.2) rotate(-70)" style="fill:#382f2d"/><rect x="927.24" y="764.31" width="4.6" height="13.1" transform="translate(-280.37 656.68) rotate(-50)" style="fill:#382f2d"/><rect x="939.01" y="779.24" width="4.6" height="13.1" transform="translate(-288.68 245.18) rotate(-30)" style="fill:#382f2d"/><rect x="945" y="797.31" width="4.6" height="13.1" transform="translate(-147.1 -154.04) rotate(-10)" style="fill:#382f2d"/><rect x="940.34" y="820.45" width="13.1" height="4.6" transform="translate(-49.68 1281.63) rotate(-80)" style="fill:#382f2d"/><rect x="933.36" y="838.21" width="13.1" height="4.6" transform="translate(-279.84 903.49) rotate(-60)" style="fill:#382f2d"/><rect x="920.79" y="852.47" width="13.1" height="4.6" transform="matrix(0.77, -0.64, 0.64, 0.77, -354.38, 465.31)" style="fill:#382f2d"/><rect x="904.1" y="861.57" width="13.1" height="4.6" transform="translate(-262.44 32.81) rotate(-20)" style="fill:#382f2d"/><rect x="863.4" y="533.6" width="13.1" height="4.6" style="fill:#382f2d"/><rect x="871" y="856.31" width="4.6" height="13.1" transform="translate(-258.11 1057.63) rotate(-70)" style="fill:#382f2d"/><rect x="854.71" y="846.35" width="4.6" height="13.1" transform="translate(-369.12 630.42) rotate(-50)" style="fill:#382f2d"/><rect x="842.84" y="831.53" width="4.6" height="13.1" transform="translate(-327.71 204.1) rotate(-30)" style="fill:#382f2d"/><rect x="836.88" y="813.62" width="4.6" height="13.1" transform="translate(-151.57 -172.57) rotate(-10)" style="fill:#382f2d"/><rect x="833" y="798.72" width="13.1" height="4.6" transform="translate(-116.99 1157.98) rotate(-80)" style="fill:#382f2d"/><rect x="840.06" y="781.04" width="13.1" height="4.6" transform="translate(-276.99 794.11) rotate(-60)" style="fill:#382f2d"/><rect x="852.6" y="766.89" width="13.1" height="4.6" transform="matrix(0.77, -0.64, 0.64, 0.77, -315.32, 401.46)" style="fill:#382f2d"/><rect x="869.29" y="757.68" width="13.1" height="4.6" transform="translate(-229.01 14.64) rotate(-20)" style="fill:#382f2d"/><path d="M890.6,787.55a3.1,3.1,0,1,0,3.1-3.1h0A3.18,3.18,0,0,0,890.6,787.55Z" transform="translate(-21.9 -330.75)" style="fill:#382f2d"/><circle cx="887.78" cy="462.95" r="3.1" style="fill:#382f2d"/><path d="M917.4,805.75a3.1,3.1,0,1,0,3.6,2.5h0A3.19,3.19,0,0,0,917.4,805.75Z" transform="translate(-21.9 -330.75)" style="fill:#382f2d"/><path d="M916.1,822.85a3.07,3.07,0,1,0,1.1,4.2,3,3,0,0,0-1-4.13Z" transform="translate(-21.9 -330.75)" style="fill:#382f2d"/><path d="M904.1,835.25a2.86,2.86,0,1,0,0,.07Z" transform="translate(-21.9 -330.75)" style="fill:#382f2d"/><path d="M887,837a3,3,0,1,0-3.9,1.8A3.08,3.08,0,0,0,887,837Z" transform="translate(-21.9 -330.75)" style="fill:#382f2d"/><path d="M872.8,827.25a3.07,3.07,0,1,0-4.2-1.1,3,3,0,0,0,4.08,1.17Z" transform="translate(-21.9 -330.75)" style="fill:#382f2d"/><path d="M868.1,810.75a3.1,3.1,0,1,0-2.5-3.6h0a3.08,3.08,0,0,0,2.46,3.59Z" transform="translate(-21.9 -330.75)" style="fill:#382f2d"/><circle cx="855.58" cy="462.4" r="3.1" style="fill:#382f2d"/><circle cx="544.89" cy="733.07" r="131.1" transform="translate(-380.66 269.26) rotate(-45)" style="fill:#1d1715"/><circle cx="522.99" cy="402.32" r="91.8" style="fill:#1d1715"/><circle cx="523" cy="402.25" r="65.5" style="fill:#f6f6f6"/><circle cx="544.9" cy="733.05" r="46.6" transform="translate(-287.87 822.74) rotate(-80.78)" style="fill:#dad1d1"/><circle cx="523" cy="402.25" r="35" style="fill:#f6f6f6"/><rect x="510.7" y="266.16" width="31.3" height="10.9" style="fill:#382f2d"/><rect x="587.21" y="595.73" width="10.9" height="31.3" transform="translate(-206.45 628.44) rotate(-70)" style="fill:#382f2d"/><rect x="626.03" y="619.38" width="10.9" height="31.3" transform="translate(-282.79 379.84) rotate(-50)" style="fill:#382f2d"/><rect x="654.28" y="654.94" width="10.9" height="31.3" transform="translate(-268.81 88.96) rotate(-30)" style="fill:#382f2d"/><rect x="668.84" y="697.92" width="10.9" height="31.3" transform="translate(-135.57 -202.82) rotate(-10)" style="fill:#382f2d"/><rect x="657.45" y="753.57" width="31.3" height="10.9" transform="translate(-213.17 959.35) rotate(-80)" style="fill:#382f2d"/><rect x="640.74" y="795.82" width="31.3" height="10.9" transform="translate(-387.63 638.34) rotate(-60)" style="fill:#382f2d"/><rect x="610.77" y="829.83" width="31.3" height="10.9" transform="matrix(0.77, -0.64, 0.64, 0.77, -412.26, 267.33)" style="fill:#382f2d"/><rect x="570.89" y="851.56" width="31.3" height="10.9" transform="translate(-279.64 -78.46) rotate(-20)" style="fill:#382f2d"/><rect x="504.1" y="527.6" width="31.3" height="10.9" style="fill:#382f2d"/><rect x="491.72" y="839.17" width="10.9" height="31.3" transform="translate(-498.04 698.89) rotate(-70)" style="fill:#382f2d"/><rect x="452.88" y="815.37" width="10.9" height="31.3" transform="translate(-494.78 317.2) rotate(-50)" style="fill:#382f2d"/><rect x="424.6" y="779.92" width="10.9" height="31.3" transform="translate(-362.07 -9.14) rotate(-30)" style="fill:#382f2d"/><rect x="410.21" y="736.86" width="10.9" height="31.3" transform="translate(-146.26 -247.14) rotate(-10)" style="fill:#382f2d"/><rect x="401.17" y="701.74" width="31.3" height="10.9" transform="translate(-373.91 664.13) rotate(-80)" style="fill:#382f2d"/><rect x="417.75" y="659.41" width="31.3" height="10.9" transform="translate(-380.99 377.02) rotate(-60)" style="fill:#382f2d"/><rect x="447.8" y="625.39" width="31.3" height="10.9" transform="matrix(0.77, -0.64, 0.64, 0.77, -318.97, 114.74)" style="fill:#382f2d"/><rect x="487.69" y="603.6" width="31.3" height="10.9" transform="translate(-199.85 -121.87) rotate(-20)" style="fill:#382f2d"/><path d="M538.6,675a7.3,7.3,0,1,0,7.3-7.3h0a7.21,7.21,0,0,0-7.3,7.12Z" transform="translate(-21.9 -330.75)" style="fill:#382f2d"/><path d="M578.4,685.05a7.31,7.31,0,1,0,10.3-.9,7.22,7.22,0,0,0-10.18.76Z" transform="translate(-21.9 -330.75)" style="fill:#382f2d"/><path d="M602.5,718.35a7.32,7.32,0,1,0,8.5,5.91h0a7.29,7.29,0,0,0-8.45-5.91Z" transform="translate(-21.9 -330.75)" style="fill:#382f2d"/><path d="M599.4,759.25a7.32,7.32,0,1,0,2.7,10A7.32,7.32,0,0,0,599.4,759.25Z" transform="translate(-21.9 -330.75)" style="fill:#382f2d"/><path d="M570.8,788.65a7.34,7.34,0,1,0-4.4,9.4h0A7.34,7.34,0,0,0,570.8,788.65Z" transform="translate(-21.9 -330.75)" style="fill:#382f2d"/><path d="M530,792.85a7.34,7.34,0,1,0-9.4,4.4h0A7.43,7.43,0,0,0,530,792.85Z" transform="translate(-21.9 -330.75)" style="fill:#382f2d"/><path d="M496,769.75a7.32,7.32,0,1,0-10-2.7A7.32,7.32,0,0,0,496,769.75Z" transform="translate(-21.9 -330.75)" style="fill:#382f2d"/><path d="M484.8,730.25a7.32,7.32,0,1,0-5.9-8.51h0A7.36,7.36,0,0,0,484.8,730.25Z" transform="translate(-21.9 -330.75)" style="fill:#382f2d"/><path d="M501.7,692.75a7.31,7.31,0,1,0,.9-10.3,7.32,7.32,0,0,0-.9,10.3Z" transform="translate(-21.9 -330.75)" style="fill:#382f2d"/><polygon points="1131.9 424.2 1156.2 319.4 670.6 319.4 670.6 387.4 1131.9 424.2" style="fill:#a7cb64"/><path d="M754.9,702.65c30.2,7.5,61,12.8,91.8,17.4,41.1,6.1,82.3,12.4,123.6,17.4,44.1,5.3,89,4.2,132.3-6.8,21.9-5.6,39.3-20.8,51.2-39.4,7.9-12.3,11.3-26.6,11.4-41.1H1178L1153.7,755l-461.3-36.8v-35.3A539.84,539.84,0,0,0,754.9,702.65Z" transform="translate(-21.9 -330.75)" style="fill:#88a84c"/><polygon points="772.3 319.4 772.3 395.5 670.6 387.4 670.6 319.4 772.3 319.4" style="fill:#6d863d"/><polygon points="1129.1 290.1 670.6 290.1 670.6 319.4 1156.2 319.4 1129.1 290.1" style="fill:#6d863d"/><path d="M726.7,741.65v94.2a1.9,1.9,0,0,0,1.9,1.9h6.6a1.9,1.9,0,0,0,1.9-1.9h0v-94.2a1.9,1.9,0,0,0-1.9-1.9h-6.6A2,2,0,0,0,726.7,741.65Z" transform="translate(-21.9 -330.75)" style="fill:#a7cb64"/><path d="M724.9,628.85v127.8a2.66,2.66,0,0,0,2.6,2.6h9a2.66,2.66,0,0,0,2.6-2.6V628.85a2.66,2.66,0,0,0-2.6-2.6h-9A2.66,2.66,0,0,0,724.9,628.85Z" transform="translate(-21.9 -330.75)" style="fill:#a7cb64"/><path d="M722.4,744.85v7.8a2.59,2.59,0,0,0,2.56,2.6H738.9a2.59,2.59,0,0,0,2.6-2.56v-7.84a2.59,2.59,0,0,0-2.56-2.6H725A2.72,2.72,0,0,0,722.4,744.85Z" transform="translate(-21.9 -330.75)" style="fill:#a7cb64"/><path d="M699.1,754.25v77.4a1.58,1.58,0,0,0,1.56,1.6h5.44a1.58,1.58,0,0,0,1.6-1.56V754.25a1.58,1.58,0,0,0-1.56-1.6H700.7a1.58,1.58,0,0,0-1.6,1.56Z" transform="translate(-21.9 -330.75)" style="fill:#a7cb64"/><path d="M697.6,661.55v105a2.05,2.05,0,0,0,2,2.1h7.5a2.05,2.05,0,0,0,2.1-2V661.55a2.05,2.05,0,0,0-2-2.1h-7.5a2.05,2.05,0,0,0-2.1,2Z" transform="translate(-21.9 -330.75)" style="fill:#a7cb64"/><path d="M695.5,756.85v6.4a2.05,2.05,0,0,0,2,2.1h11.6a2.05,2.05,0,0,0,2.1-2v-6.5a2.05,2.05,0,0,0-2-2.1H697.6A2.11,2.11,0,0,0,695.5,756.85Z" transform="translate(-21.9 -330.75)" style="fill:#a7cb64"/><path d="M433.6,638.85v39.8a2.43,2.43,0,0,0,2.4,2.4h3.6a2.43,2.43,0,0,0,2.4-2.4v-39.8Z" transform="translate(-21.9 -330.75)" style="fill:url(#linear-gradient)"/><path d="M443.6,723.55v-54.9a3.33,3.33,0,0,0-3.3-3.3h-4.9a3.33,3.33,0,0,0-3.3,3.3v54.9Z" transform="translate(-21.9 -330.75)" style="fill:#a7cb64"/><path d="M430.1,677v-6.3a2.11,2.11,0,0,1,2.1-2.1h11.3a2.11,2.11,0,0,1,2.1,2.1V677a2.11,2.11,0,0,1-2.1,2.1H432.2a2.05,2.05,0,0,1-2.1-2Z" transform="translate(-21.9 -330.75)" style="fill:#6d863d"/><polygon points="365.6 399.5 691.7 493 671.1 517.7 365.6 430.2 365.6 399.5" style="fill:#6d863d"/><path d="M647.4,629.05v82.6a3.27,3.27,0,0,0,3,3.5h4.4a3.35,3.35,0,0,0,3-3.5v-82.6Z" transform="translate(-21.9 -330.75)" style="fill:url(#linear-gradient-2)"/><path d="M659.6,815.75V697c0-2.6-1.8-4.8-4.1-4.8h-6c-2.2,0-4.1,2.1-4.1,4.8v118.8Z" transform="translate(-21.9 -330.75)" style="fill:#a7cb64"/><path d="M643,709.35v-9.6a2.8,2.8,0,0,1,2.8-2.8h13.6a2.8,2.8,0,0,1,2.8,2.8v9.6a2.8,2.8,0,0,1-2.8,2.8H645.8A2.86,2.86,0,0,1,643,709.35Z" transform="translate(-21.9 -330.75)" style="fill:#6d863d"/><polygon points="750.6 455 664.8 455 664.8 526 707.7 526 750.6 502.8 750.6 455" style="fill:#a7cb64"/><path d="M719.8,796.15h9.1a.67.67,0,0,0,.7-.66v-1.64a.67.67,0,0,0-.66-.7H719.8a.67.67,0,0,0-.7.66v1.64a.67.67,0,0,0,.66.7Z" transform="translate(-21.9 -330.75)" style="fill:none;stroke:#382f2d;stroke-miterlimit:10;stroke-width:0.6744999885559082px"/><path d="M719.8,802.15h9.1a.67.67,0,0,0,.7-.66v-1.64a.67.67,0,0,0-.66-.7H719.8a.67.67,0,0,0-.7.66v1.64a.67.67,0,0,0,.66.7Z" transform="translate(-21.9 -330.75)" style="fill:none;stroke:#382f2d;stroke-miterlimit:10;stroke-width:0.6744999885559082px"/><path d="M719.8,808.15h9.1a.67.67,0,0,0,.7-.66v-1.64a.67.67,0,0,0-.66-.7H719.8a.67.67,0,0,0-.7.66v1.64a.67.67,0,0,0,.66.7Z" transform="translate(-21.9 -330.75)" style="fill:none;stroke:#382f2d;stroke-miterlimit:10;stroke-width:0.6744999885559082px"/><path d="M719.8,814.15h9.1a.67.67,0,0,0,.7-.66v-1.64a.67.67,0,0,0-.66-.7H719.8a.67.67,0,0,0-.7.66v1.64a.67.67,0,0,0,.66.7Z" transform="translate(-21.9 -330.75)" style="fill:none;stroke:#382f2d;stroke-miterlimit:10;stroke-width:0.6744999885559082px"/><path d="M719.8,820.15h9.1a.67.67,0,0,0,.7-.66v-1.64a.67.67,0,0,0-.66-.7H719.8a.67.67,0,0,0-.7.66v1.64a.67.67,0,0,0,.66.7Z" transform="translate(-21.9 -330.75)" style="fill:none;stroke:#382f2d;stroke-miterlimit:10;stroke-width:0.6744999885559082px"/><path d="M719.8,826.05h9.1a.67.67,0,0,0,.7-.66v-1.64a.67.67,0,0,0-.66-.7H719.8a.67.67,0,0,0-.7.66v1.64a.67.67,0,0,0,.66.7Z" transform="translate(-21.9 -330.75)" style="fill:none;stroke:#382f2d;stroke-miterlimit:10;stroke-width:0.6744999885559082px"/><path d="M719.8,832.05h9.1a.67.67,0,0,0,.7-.66v-1.64a.67.67,0,0,0-.66-.7H719.8a.67.67,0,0,0-.7.66v1.64a.67.67,0,0,0,.66.7Z" transform="translate(-21.9 -330.75)" style="fill:none;stroke:#382f2d;stroke-miterlimit:10;stroke-width:0.6744999885559082px"/><path d="M705.9,796.15H715a.67.67,0,0,0,.7-.66v-1.64a.67.67,0,0,0-.66-.7H705.9a.67.67,0,0,0-.7.66v1.64a.67.67,0,0,0,.66.7Z" transform="translate(-21.9 -330.75)" style="fill:none;stroke:#382f2d;stroke-miterlimit:10;stroke-width:0.6744999885559082px"/><path d="M705.9,802.15H715a.67.67,0,0,0,.7-.66v-1.64a.67.67,0,0,0-.66-.7H705.9a.67.67,0,0,0-.7.66v1.64a.67.67,0,0,0,.66.7Z" transform="translate(-21.9 -330.75)" style="fill:none;stroke:#382f2d;stroke-miterlimit:10;stroke-width:0.6744999885559082px"/><path d="M705.9,808.15H715a.67.67,0,0,0,.7-.66v-1.64a.67.67,0,0,0-.66-.7H705.9a.67.67,0,0,0-.7.66v1.64a.67.67,0,0,0,.66.7Z" transform="translate(-21.9 -330.75)" style="fill:none;stroke:#382f2d;stroke-miterlimit:10;stroke-width:0.6744999885559082px"/><path d="M705.9,814.15H715a.67.67,0,0,0,.7-.66v-1.64a.67.67,0,0,0-.66-.7H705.9a.67.67,0,0,0-.7.66v1.64a.67.67,0,0,0,.66.7Z" transform="translate(-21.9 -330.75)" style="fill:none;stroke:#382f2d;stroke-miterlimit:10;stroke-width:0.6744999885559082px"/><path d="M705.9,820.15H715a.67.67,0,0,0,.7-.66v-1.64a.67.67,0,0,0-.66-.7H705.9a.67.67,0,0,0-.7.66v1.64a.67.67,0,0,0,.66.7Z" transform="translate(-21.9 -330.75)" style="fill:none;stroke:#382f2d;stroke-miterlimit:10;stroke-width:0.6744999885559082px"/><path d="M705.9,826.05H715a.67.67,0,0,0,.7-.66v-1.64a.67.67,0,0,0-.66-.7H705.9a.67.67,0,0,0-.7.66v1.64a.67.67,0,0,0,.66.7Z" transform="translate(-21.9 -330.75)" style="fill:none;stroke:#382f2d;stroke-miterlimit:10;stroke-width:0.6744999885559082px"/><path d="M705.9,832.05H715a.67.67,0,0,0,.7-.66v-1.64a.67.67,0,0,0-.66-.7H705.9a.67.67,0,0,0-.7.66v1.64a.67.67,0,0,0,.66.7Z" transform="translate(-21.9 -330.75)" style="fill:none;stroke:#382f2d;stroke-miterlimit:10;stroke-width:0.6744999885559082px"/><path d="M691.9,796.15H701a.67.67,0,0,0,.7-.66v-1.64a.67.67,0,0,0-.66-.7H691.9a.67.67,0,0,0-.7.66v1.64A.85.85,0,0,0,691.9,796.15Z" transform="translate(-21.9 -330.75)" style="fill:none;stroke:#382f2d;stroke-miterlimit:10;stroke-width:0.6744999885559082px"/><path d="M691.9,802.15H701a.67.67,0,0,0,.7-.66v-1.64a.67.67,0,0,0-.66-.7H691.9a.67.67,0,0,0-.7.66v1.64A.85.85,0,0,0,691.9,802.15Z" transform="translate(-21.9 -330.75)" style="fill:none;stroke:#382f2d;stroke-miterlimit:10;stroke-width:0.6744999885559082px"/><path d="M691.9,808.15H701a.67.67,0,0,0,.7-.66v-1.64a.67.67,0,0,0-.66-.7H691.9a.67.67,0,0,0-.7.66v1.64A.85.85,0,0,0,691.9,808.15Z" transform="translate(-21.9 -330.75)" style="fill:none;stroke:#382f2d;stroke-miterlimit:10;stroke-width:0.6744999885559082px"/><path d="M691.9,814.15H701a.67.67,0,0,0,.7-.66v-1.64a.67.67,0,0,0-.66-.7H691.9a.67.67,0,0,0-.7.66v1.64A.85.85,0,0,0,691.9,814.15Z" transform="translate(-21.9 -330.75)" style="fill:none;stroke:#382f2d;stroke-miterlimit:10;stroke-width:0.6744999885559082px"/><path d="M691.9,820.15H701a.67.67,0,0,0,.7-.66v-1.64a.67.67,0,0,0-.66-.7H691.9a.67.67,0,0,0-.7.66v1.64A.85.85,0,0,0,691.9,820.15Z" transform="translate(-21.9 -330.75)" style="fill:none;stroke:#382f2d;stroke-miterlimit:10;stroke-width:0.6744999885559082px"/><path d="M691.9,826.05H701a.67.67,0,0,0,.7-.66v-1.64a.67.67,0,0,0-.66-.7H691.9a.67.67,0,0,0-.7.66v1.64A.85.85,0,0,0,691.9,826.05Z" transform="translate(-21.9 -330.75)" style="fill:none;stroke:#382f2d;stroke-miterlimit:10;stroke-width:0.6744999885559082px"/><path d="M691.9,832.05H701a.67.67,0,0,0,.7-.66v-1.64a.67.67,0,0,0-.66-.7H691.9a.67.67,0,0,0-.7.66v1.64A.85.85,0,0,0,691.9,832.05Z" transform="translate(-21.9 -330.75)" style="fill:none;stroke:#382f2d;stroke-miterlimit:10;stroke-width:0.6744999885559082px"/><rect x="264.8" y="319.5" width="21.2" height="118.4" style="fill:#a7cb64"/><polygon points="624.1 475.8 641.1 480.6 643.6 491.2 643.6 491.6 643.5 492.6 629.7 492.6 627.1 500.4 618.3 500.4 617.8 488 624.1 475.8" style="fill:#a7cb64"/><rect x="365.6" y="382.3" width="58.1" height="10.4" style="fill:#6d863d"/><polygon points="396.2 318.6 396.2 335.8 380.4 343.7 380.4 352.3 380.4 388 380.4 391.1 380.4 426.8 380.4 435.4 396.2 443.4 396.2 460.5 362.5 460.5 362.5 426.8 362.5 391.1 362.5 388 362.5 352.3 362.5 318.6 396.2 318.6" style="fill:#a7cb64"/><polygon points="415.1 218.7 624.1 218.7 677.4 297 677.4 297 677.4 319.3 643.8 319.3 619.2 298.3 420 298.3 395.4 319.3 361.8 319.3 361.8 297 415.1 218.7" style="fill:#6d863d"/><path d="M653.9,620.05h6.3a11.55,11.55,0,0,0-4.2.7,9.78,9.78,0,0,1,6.2,5.5l5,12.3h-6.3l-5-12.3a10.35,10.35,0,0,0-6.2-5.5A14.27,14.27,0,0,1,653.9,620.05Z" transform="translate(-21.9 -330.75)" style="fill:#a7cb64"/><path d="M661,620.05h6.3c4.7,0,8.9,2.5,10.4,6.2l5,12.3h-6.3l-5-12.3C669.8,622.55,665.7,620.05,661,620.05Z" transform="translate(-21.9 -330.75)" style="fill:#a7cb64"/><path d="M673.8,620.05h6.3c4.7,0,8.9,2.5,10.4,6.2l5,12.3h-6.2l-5-12.3C682.7,622.55,678.5,620.05,673.8,620.05Z" transform="translate(-21.9 -330.75)" style="fill:#a7cb64"/><path d="M615.2,567.45a4.12,4.12,0,1,0-.6-5.8A4.21,4.21,0,0,0,615.2,567.45Z" transform="translate(-21.9 -330.75)" style="fill:url(#radial-gradient-15)"/><path d="M560.2,567.45a4.12,4.12,0,1,0-.6-5.8A4.21,4.21,0,0,0,560.2,567.45Z" transform="translate(-21.9 -330.75)" style="fill:url(#radial-gradient-16)"/><path d="M505.2,567.45a4.12,4.12,0,1,0-.6-5.8,4.14,4.14,0,0,0,.6,5.8Z" transform="translate(-21.9 -330.75)" style="fill:url(#radial-gradient-17)"/><path d="M450.2,567.45a4.12,4.12,0,1,0-.6-5.8,4.14,4.14,0,0,0,.6,5.8Z" transform="translate(-21.9 -330.75)" style="fill:url(#radial-gradient-18)"/><path d="M372.4,659.15a4.12,4.12,0,1,0-.6-5.8A4.21,4.21,0,0,0,372.4,659.15Z" transform="translate(-21.9 -330.75)" style="fill:url(#radial-gradient-19)"/><path d="M317.4,659.15a4.12,4.12,0,1,0-.6-5.8A4.21,4.21,0,0,0,317.4,659.15Z" transform="translate(-21.9 -330.75)" style="fill:url(#radial-gradient-20)"/><path d="M372.4,856.15a4.12,4.12,0,1,0-.6-5.8A4.21,4.21,0,0,0,372.4,856.15Z" transform="translate(-21.9 -330.75)" style="fill:url(#radial-gradient-21)"/><path d="M317.4,856.15a4.12,4.12,0,1,0-.6-5.8A4.21,4.21,0,0,0,317.4,856.15Z" transform="translate(-21.9 -330.75)" style="fill:url(#radial-gradient-22)"/><path d="M783.6,662.45a4.12,4.12,0,1,0-5.8.6A4.23,4.23,0,0,0,783.6,662.45Z" transform="translate(-21.9 -330.75)" style="fill:url(#radial-gradient-23)"/><path d="M783.6,717.45a4.12,4.12,0,1,0-5.8.6A4.23,4.23,0,0,0,783.6,717.45Z" transform="translate(-21.9 -330.75)" style="fill:url(#radial-gradient-24)"/><path d="M1042.6,664.05a4.12,4.12,0,1,0-.6-5.8,4.14,4.14,0,0,0,.6,5.8Z" transform="translate(-21.9 -330.75)" style="fill:url(#radial-gradient-25)"/><path d="M987.6,664.05a4.12,4.12,0,1,0-.6-5.8,4.14,4.14,0,0,0,.6,5.8Z" transform="translate(-21.9 -330.75)" style="fill:url(#radial-gradient-26)"/><path d="M939.1,664.05a4.12,4.12,0,1,0-.6-5.8,4,4,0,0,0,.41,5.64Z" transform="translate(-21.9 -330.75)" style="fill:url(#radial-gradient-27)"/><path d="M884,664.05a4.12,4.12,0,1,0-.6-5.8A4.23,4.23,0,0,0,884,664.05Z" transform="translate(-21.9 -330.75)" style="fill:url(#radial-gradient-28)"/><path d="M829,664.05a4.12,4.12,0,1,0-.6-5.8A4.23,4.23,0,0,0,829,664.05Z" transform="translate(-21.9 -330.75)" style="fill:url(#radial-gradient-29)"/><circle cx="629.8" cy="484.4" r="6.1" style="fill:url(#radial-gradient-30)"/><path d="M394.1,712.25a6.05,6.05,0,1,0,6.2,5.9,6,6,0,0,0-6.1-5.9Z" transform="translate(-21.9 -330.75)" style="fill:url(#radial-gradient-31)"/><circle cx="741.8" cy="464.8" r="6.1" style="fill:url(#radial-gradient-32)"/></svg>