<svg id="Layer_1" data-name="Layer 1" xmlns="http://www.w3.org/2000/svg" xmlns:xlink="http://www.w3.org/1999/xlink" viewBox="0 0 1156.2 538.5"><defs><radialGradient id="radial-gradient" cx="-2093.31" cy="-39.23" r="4.88" gradientTransform="translate(1593.52 -897.32) rotate(-47.56)" gradientUnits="userSpaceOnUse"><stop offset="0" stop-color="#fff"/><stop offset="1"/></radialGradient><radialGradient id="radial-gradient-2" cx="-2104.48" cy="-51.44" r="4.88" xlink:href="#radial-gradient"/><radialGradient id="radial-gradient-3" cx="-2105.34" cy="-28.23" r="4.88" xlink:href="#radial-gradient"/><radialGradient id="radial-gradient-4" cx="-2116.51" cy="-40.44" r="4.88" xlink:href="#radial-gradient"/><radialGradient id="radial-gradient-5" cx="-2127.68" cy="-7.8" r="4.88" xlink:href="#radial-gradient"/><radialGradient id="radial-gradient-6" cx="-2138.85" cy="-20.01" r="4.88" xlink:href="#radial-gradient"/><radialGradient id="radial-gradient-7" cx="-2139.71" cy="3.2" r="4.88" xlink:href="#radial-gradient"/><radialGradient id="radial-gradient-8" cx="-2150.88" cy="-9.02" r="4.89" xlink:href="#radial-gradient"/><radialGradient id="radial-gradient-9" cx="970.44" cy="3726.5" r="4.12" gradientTransform="matrix(-0.63, 0.77, -0.77, -0.63, 3764.96, 2199.09)" xlink:href="#radial-gradient"/><radialGradient id="radial-gradient-10" cx="1005.34" cy="3769.03" r="4.12" gradientTransform="matrix(-0.63, 0.77, -0.77, -0.63, 3764.96, 2199.09)" xlink:href="#radial-gradient"/><radialGradient id="radial-gradient-11" cx="1122.7" cy="3601.54" r="4.12" gradientTransform="matrix(-0.63, 0.77, -0.77, -0.63, 3764.96, 2199.09)" xlink:href="#radial-gradient"/><radialGradient id="radial-gradient-12" cx="1157.6" cy="3644.07" r="4.13" gradientTransform="matrix(-0.63, 0.77, -0.77, -0.63, 3764.96, 2199.09)" xlink:href="#radial-gradient"/><radialGradient id="radial-gradient-13" cx="1194.07" cy="3688.52" r="4.13" gradientTransform="matrix(-0.63, 0.77, -0.77, -0.63, 3764.96, 2199.09)" xlink:href="#radial-gradient"/><radialGradient id="radial-gradient-14" cx="1228.98" cy="3731.05" r="4.12" gradientTransform="matrix(-0.63, 0.77, -0.77, -0.63, 3764.96, 2199.09)" xlink:href="#radial-gradient"/><linearGradient id="linear-gradient" x1="-379.5" y1="-216.61" x2="-379.5" y2="-205.81" gradientTransform="matrix(0, 1, 1, 0, 650.75, 968.6)" xlink:href="#radial-gradient"/><linearGradient id="linear-gradient-2" x1="-458.12" y1="-3.61" x2="-458.12" y2="9.71" gradientTransform="matrix(0, 1, 1, 0, 650.75, 1059.37)" xlink:href="#radial-gradient"/><radialGradient id="radial-gradient-15" cx="675.69" cy="3511.96" r="4.12" gradientTransform="matrix(-0.63, 0.77, -0.77, -0.63, 3764.96, 2199.09)" xlink:href="#radial-gradient"/><radialGradient id="radial-gradient-16" cx="710.6" cy="3554.49" r="4.12" gradientTransform="matrix(-0.63, 0.77, -0.77, -0.63, 3764.96, 2199.09)" xlink:href="#radial-gradient"/><radialGradient id="radial-gradient-17" cx="745.5" cy="3597.02" r="4.12" gradientTransform="matrix(-0.63, 0.77, -0.77, -0.63, 3764.96, 2199.09)" xlink:href="#radial-gradient"/><radialGradient id="radial-gradient-18" cx="780.41" cy="3639.55" r="4.12" gradientTransform="matrix(-0.63, 0.77, -0.77, -0.63, 3764.96, 2199.09)" xlink:href="#radial-gradient"/><radialGradient id="radial-gradient-19" cx="900.64" cy="3641.45" r="4.12" gradientTransform="matrix(-0.63, 0.77, -0.77, -0.63, 3764.96, 2199.09)" xlink:href="#radial-gradient"/><radialGradient id="radial-gradient-20" cx="935.53" cy="3683.97" r="4.13" gradientTransform="matrix(-0.63, 0.77, -0.77, -0.63, 3764.96, 2199.09)" xlink:href="#radial-gradient"/><radialGradient id="radial-gradient-21" cx="1052.89" cy="3516.49" r="4.12" gradientTransform="matrix(-0.63, 0.77, -0.77, -0.63, 3764.96, 2199.09)" xlink:href="#radial-gradient"/><radialGradient id="radial-gradient-22" cx="1087.8" cy="3559.01" r="4.12" gradientTransform="matrix(-0.63, 0.77, -0.77, -0.63, 3764.96, 2199.09)" xlink:href="#radial-gradient"/><radialGradient id="radial-gradient-23" cx="765.04" cy="2471.95" r="4.12" gradientTransform="matrix(0.77, 0.63, -0.63, 0.77, 1760.91, -1807.21)" xlink:href="#radial-gradient"/><radialGradient id="radial-gradient-24" cx="799.94" cy="2514.48" r="4.12" gradientTransform="matrix(0.77, 0.63, -0.63, 0.77, 1760.91, -1807.21)" xlink:href="#radial-gradient"/><radialGradient id="radial-gradient-25" cx="409.41" cy="3035.3" r="4.12" gradientTransform="matrix(-0.63, 0.77, -0.77, -0.63, 3764.96, 2199.09)" xlink:href="#radial-gradient"/><radialGradient id="radial-gradient-26" cx="444.32" cy="3077.83" r="4.12" gradientTransform="matrix(-0.63, 0.77, -0.77, -0.63, 3764.96, 2199.09)" xlink:href="#radial-gradient"/><radialGradient id="radial-gradient-27" cx="479.22" cy="3120.36" r="4.13" gradientTransform="matrix(-0.63, 0.77, -0.77, -0.63, 3764.96, 2199.09)" xlink:href="#radial-gradient"/><radialGradient id="radial-gradient-28" cx="514.13" cy="3162.89" r="4.12" gradientTransform="matrix(-0.63, 0.77, -0.77, -0.63, 3764.96, 2199.09)" xlink:href="#radial-gradient"/><radialGradient id="radial-gradient-29" cx="544.91" cy="3200.39" r="4.12" gradientTransform="matrix(-0.63, 0.77, -0.77, -0.63, 3764.96, 2199.09)" xlink:href="#radial-gradient"/><radialGradient id="radial-gradient-30" cx="579.81" cy="3242.92" r="4.12" gradientTransform="matrix(-0.63, 0.77, -0.77, -0.63, 3764.96, 2199.09)" xlink:href="#radial-gradient"/><radialGradient id="radial-gradient-31" cx="614.71" cy="3285.46" r="4.12" gradientTransform="matrix(-0.63, 0.77, -0.77, -0.63, 3764.96, 2199.09)" xlink:href="#radial-gradient"/><radialGradient id="radial-gradient-32" cx="-1056.06" cy="-333.51" r="6.07" gradientTransform="translate(933.88 -580.48) rotate(-91.59)" xlink:href="#radial-gradient"/><radialGradient id="radial-gradient-33" cx="-952.12" cy="-588.14" r="6.07" gradientTransform="translate(959.48 -320.58) rotate(-91.59)" xlink:href="#radial-gradient"/><radialGradient id="radial-gradient-34" cx="-1039.6" cy="-220.99" r="6.08" gradientTransform="translate(933.88 -580.48) rotate(-91.59)" xlink:href="#radial-gradient"/></defs><title>Asphalt paver</title><path d="M131.3,576.6V515.8c0-7.3,5.2-13.2,11.6-13.2h17.4c6.4,0,11.6,5.9,11.6,13.2v60.8c0,7.3-5.2,13.2-11.6,13.2H142.9C136.5,589.8,131.3,583.9,131.3,576.6Zm11.5-69.4c-4.1,0-7.5,3.8-7.5,8.6v60.8c0,4.7,3.4,8.6,7.5,8.6h17.4c4.1,0,7.5-3.8,7.5-8.6V515.8c0-4.7-3.4-8.6-7.5-8.6Z" transform="translate(-25.6 -259.9)" style="fill:#a7cb64"/><path d="M160.3,589.4V528.6c0-7.3,5.2-13.2,11.6-13.2h17.4c6.3,0,11.4,5.7,11.6,12.8l18.7,60.7v.4c0,2.5-1.4,6.2-13.7,10-6.6,2-13.8,3.3-16.6,3.3H171.9C165.5,602.7,160.3,596.7,160.3,589.4Zm36.5-60.3v-.4c0-4.7-3.4-8.6-7.5-8.6H171.9c-4.1,0-7.5,3.8-7.5,8.6v60.8c0,4.7,3.4,8.6,7.5,8.6h17.4a67.47,67.47,0,0,0,15-3c8.1-2.4,10.7-4.7,11.2-5.5Z" transform="translate(-25.6 -259.9)" style="fill:#a7cb64"/><path d="M226.7,597.4c-14.8-4.6-16.5-9.1-16.5-12.1v-.5l22.7-73.5c.2-8.6,6.4-15.5,14-15.5H268c7.7,0,14,7.2,14,16v73.6c0,8.8-6.3,16-14,16H246.9C243.4,601.4,234.7,599.9,226.7,597.4Zm20.2-96c-5,0-9.1,4.7-9.1,10.4v.5l-22.6,73.2c.6,1.1,3.8,3.7,13.5,6.7,7.8,2.3,15.5,3.6,18.1,3.6H268c5,0,9.1-4.7,9.1-10.4V511.8c0-5.7-4.1-10.4-9.1-10.4Z" transform="translate(-25.6 -259.9)" style="fill:#a7cb64"/><polygon points="136.1 501.1 136.1 510.1 6.9 510.1 6.9 518.5 0 518.5 0 510.1 0 509.6 0 501.1 136.1 501.1" style="fill:#aea7a7"/><path d="M69.3,786h31.3a7.7,7.7,0,0,0,7.7-7.7v-77a7.7,7.7,0,0,0-7.7-7.7H69.3a7.7,7.7,0,0,0-7.7,7.7v77A7.64,7.64,0,0,0,69.3,786Z" transform="translate(-25.6 -259.9)" style="fill:#a7cb64"/><path d="M172.6,603.8H117.1a8.82,8.82,0,0,0-6.9,3.3l-19.7,24a9,9,0,0,0-2,5.7v60.5a9,9,0,0,0,9,9h75.2a9,9,0,0,0,9-9V612.8A9.18,9.18,0,0,0,172.6,603.8Z" transform="translate(-25.6 -259.9)" style="fill:#a7cb64"/><path d="M131.1,647.2h25.2a5.38,5.38,0,0,0,5.4-5.4V616.6a5.38,5.38,0,0,0-5.4-5.4H131.1a5.38,5.38,0,0,0-5.4,5.4v25.2A5.38,5.38,0,0,0,131.1,647.2Z" transform="translate(-25.6 -259.9)" style="fill:#6d863d"/><path d="M155.3,617.5a4.88,4.88,0,1,0,.3,6.9A4.89,4.89,0,0,0,155.3,617.5Z" transform="translate(-25.6 -259.9)" style="fill:url(#radial-gradient)"/><path d="M138.7,617.5a4.88,4.88,0,1,0,.3,6.9A4.8,4.8,0,0,0,138.7,617.5Z" transform="translate(-25.6 -259.9)" style="fill:url(#radial-gradient-2)"/><path d="M155.3,633.8a4.88,4.88,0,1,0,.3,6.9A4.89,4.89,0,0,0,155.3,633.8Z" transform="translate(-25.6 -259.9)" style="fill:url(#radial-gradient-3)"/><path d="M138.7,633.8a4.88,4.88,0,1,0,.3,6.9A4.8,4.8,0,0,0,138.7,633.8Z" transform="translate(-25.6 -259.9)" style="fill:url(#radial-gradient-4)"/><path d="M131.1,693.8h25.2a5.38,5.38,0,0,0,5.4-5.4V663.2a5.38,5.38,0,0,0-5.4-5.4H131.1a5.38,5.38,0,0,0-5.4,5.4v25.2A5.38,5.38,0,0,0,131.1,693.8Z" transform="translate(-25.6 -259.9)" style="fill:#6d863d"/><path d="M155.3,664a4.88,4.88,0,1,0,.3,6.9A4.89,4.89,0,0,0,155.3,664Z" transform="translate(-25.6 -259.9)" style="fill:url(#radial-gradient-5)"/><path d="M138.7,664a4.88,4.88,0,1,0,.3,6.9A4.81,4.81,0,0,0,138.7,664Z" transform="translate(-25.6 -259.9)" style="fill:url(#radial-gradient-6)"/><path d="M155.3,680.3a4.88,4.88,0,1,0,.3,6.9A4.89,4.89,0,0,0,155.3,680.3Z" transform="translate(-25.6 -259.9)" style="fill:url(#radial-gradient-7)"/><path d="M138.7,680.3a4.88,4.88,0,1,0,.3,6.9A4.81,4.81,0,0,0,138.7,680.3Z" transform="translate(-25.6 -259.9)" style="fill:url(#radial-gradient-8)"/><path d="M279.1,712.1H187.2V611.4a8.6,8.6,0,0,1,8.6-8.6h75.4a7.85,7.85,0,0,1,7.9,7.9Z" transform="translate(-25.6 -259.9)" style="fill:#a7cb64"/><rect x="177.82" y="359.39" width="59.5" height="2.7" style="fill:#6d863d"/><rect x="177.82" y="365.47" width="59.5" height="2.7" style="fill:#6d863d"/><rect x="177.82" y="371.65" width="59.5" height="2.7" style="fill:#6d863d"/><rect x="177.82" y="377.83" width="59.5" height="2.7" style="fill:#6d863d"/><rect x="177.82" y="383.91" width="59.5" height="2.7" style="fill:#6d863d"/><rect x="177.82" y="390.08" width="59.5" height="2.7" style="fill:#6d863d"/><rect x="177.82" y="396.16" width="59.5" height="2.7" style="fill:#6d863d"/><rect x="177.82" y="402.34" width="59.5" height="2.7" style="fill:#6d863d"/><rect x="177.82" y="408.52" width="59.5" height="2.7" style="fill:#6d863d"/><rect x="177.82" y="414.6" width="59.5" height="2.7" style="fill:#6d863d"/><rect x="177.82" y="420.78" width="59.5" height="2.7" style="fill:#6d863d"/><rect x="177.82" y="426.86" width="59.5" height="2.7" style="fill:#6d863d"/><rect x="177.82" y="433.04" width="59.5" height="2.7" style="fill:#6d863d"/><circle cx="112.7" cy="480.7" r="10.7" style="fill:#6d863d"/><path d="M268.1,613a2.9,2.9,0,1,0,2.9-2.9A3,3,0,0,0,268.1,613Z" transform="translate(-25.6 -259.9)" style="fill:#6d863d"/><path d="M268.1,643.8a2.9,2.9,0,1,0,2.9-2.9A3,3,0,0,0,268.1,643.8Z" transform="translate(-25.6 -259.9)" style="fill:#6d863d"/><path d="M268.1,674.6a2.9,2.9,0,1,0,2.9-2.9A2.9,2.9,0,0,0,268.1,674.6Z" transform="translate(-25.6 -259.9)" style="fill:#6d863d"/><path d="M268.1,705.3a2.9,2.9,0,1,0,2.9-2.9A3,3,0,0,0,268.1,705.3Z" transform="translate(-25.6 -259.9)" style="fill:#6d863d"/><circle cx="169.6" cy="353.1" r="2.9" style="fill:#6d863d"/><circle cx="169.6" cy="383.9" r="2.9" style="fill:#6d863d"/><circle cx="169.6" cy="414.7" r="2.9" style="fill:#6d863d"/><circle cx="169.6" cy="445.4" r="2.9" style="fill:#6d863d"/><path d="M445.4,359.2l-48.8,26.7a1.28,1.28,0,0,1-1.7-.5l-2.1-3.8a1.28,1.28,0,0,1,.5-1.7l48.8-26.7a1.28,1.28,0,0,1,1.7.5l2.1,3.8A1.34,1.34,0,0,1,445.4,359.2Z" transform="translate(-25.6 -259.9)" style="fill:#614f49"/><path d="M442.5,394.5,428,402.4a1.28,1.28,0,0,1-1.7-.5l-14.6-26.8a1.28,1.28,0,0,1,.5-1.7l14.5-7.9a1.28,1.28,0,0,1,1.7.5L443,392.8A1.28,1.28,0,0,1,442.5,394.5Z" transform="translate(-25.6 -259.9)" style="fill:#614f49"/><path d="M437.3,379.6l20.1,6.3,3.7,17.8V406H440l-4.1,13.2H423.7a6.08,6.08,0,0,1-6.1-5.9l-.5-11.7a7.28,7.28,0,0,1,2.4-5.7Z" transform="translate(-25.6 -259.9)" style="fill:#a7cb64"/><rect x="331.1" y="11" width="65.2" height="2.9" style="fill:#faaa28"/><path d="M288.3,287.7v-4.2a15.75,15.75,0,0,1,16-15.5l180.8-8.1c8.9,0,16,8.4,16,18.7v9.1Z" transform="translate(-25.6 -259.9)" style="fill:#a7cb64"/><path d="M266.1,588.3a4.12,4.12,0,1,0-.6-5.8A4.21,4.21,0,0,0,266.1,588.3Z" transform="translate(-25.6 -259.9)" style="fill:url(#radial-gradient-9)"/><path d="M211.1,588.3a4.12,4.12,0,1,0-.6-5.8A4.12,4.12,0,0,0,211.1,588.3Z" transform="translate(-25.6 -259.9)" style="fill:url(#radial-gradient-10)"/><path d="M266.1,785.3a4.12,4.12,0,1,0-.6-5.8A4.21,4.21,0,0,0,266.1,785.3Z" transform="translate(-25.6 -259.9)" style="fill:url(#radial-gradient-11)"/><path d="M211.1,785.3a4.12,4.12,0,1,0-.6-5.8A4.12,4.12,0,0,0,211.1,785.3Z" transform="translate(-25.6 -259.9)" style="fill:url(#radial-gradient-12)"/><path d="M153.6,785.3a4.12,4.12,0,1,0-.6-5.8A4.12,4.12,0,0,0,153.6,785.3Z" transform="translate(-25.6 -259.9)" style="fill:url(#radial-gradient-13)"/><path d="M98.6,785.3a4.12,4.12,0,1,0-.6-5.8A4.12,4.12,0,0,0,98.6,785.3Z" transform="translate(-25.6 -259.9)" style="fill:url(#radial-gradient-14)"/><path d="M716,480.8V411.7a1.9,1.9,0,0,0-1.9-1.9h-9.8a1.9,1.9,0,0,0-1.9,1.9v69.1a1.9,1.9,0,0,0,1.9,1.9h9.8A1.9,1.9,0,0,0,716,480.8Z" transform="translate(-25.6 -259.9)" style="fill:#a7cb64"/><path d="M718.5,564.5V470.8a2.48,2.48,0,0,0-2.5-2.5H702.7a2.48,2.48,0,0,0-2.5,2.5v93.7a2.48,2.48,0,0,0,2.5,2.5H716A2.54,2.54,0,0,0,718.5,564.5Z" transform="translate(-25.6 -259.9)" style="fill:#a7cb64"/><path d="M721.7,478.9v-5.7a1.9,1.9,0,0,0-1.9-1.9H698.7a1.9,1.9,0,0,0-1.9,1.9v5.7a1.9,1.9,0,0,0,1.9,1.9h21.1A2,2,0,0,0,721.7,478.9Z" transform="translate(-25.6 -259.9)" style="fill:#6d863d"/><polygon points="349.8 11.1 458.9 11.1 459.7 14.6 494.6 167.9 494.7 168.4 494.7 216.2 490.2 216.2 490.2 168.9 487.5 157.1 481 128.8 455.3 15.6 349.8 15.6 349.8 11.1" style="fill:#a7cb64"/><path d="M515.2,428.9,480.4,276.1H374.8v-5.7H484.9l35.8,157.3.1.6v48.4h-5.7Zm4.5-.5L484,271.6H376v3.3H481.3l25.9,113.7,9.1,40.2v46.7h3.3Z" transform="translate(-25.6 -259.9)" style="fill:#6d863d"/><path d="M367.7,273.1l-35.4,4.2c-.2,0-.3.1-.3.2L288.2,377.8l15.3,108.9h15.7L303.9,377.8l43.8-100.3c0-.1.2-.2.3-.2l19.7-2.3v-1.9Z" transform="translate(-25.6 -259.9)" style="fill:#6d863d"/><path d="M357.8,271.8,322.4,276c-.2,0-.3.1-.3.2l-42.5,97.2a11.81,11.81,0,0,0-.9,6.4l14.9,105.5h15.7L294,376.5l43.8-100.3c0-.1.2-.2.3-.2l19.7-2.3Z" transform="translate(-25.6 -259.9)" style="fill:#a7cb64"/><path d="M300.6,485.8h89.8a3,3,0,0,0,3-3V474a3,3,0,0,0-3-3H300.6a3,3,0,0,0-3,3v8.8A3.08,3.08,0,0,0,300.6,485.8Z" transform="translate(-25.6 -259.9)" style="fill:#a7cb64"/><polygon points="287.2 318.1 321.8 318.1 321.8 229 272 229 287.2 318.1" style="fill:#6d863d"/><rect x="271.97" y="224.61" width="95.8" height="11.6" style="fill:#6d863d"/><path d="M294.2,584.7v.4h33v-.4h61.3l-21.5-78c-4-14-7.3-26.7-10.2-38-12.1-46.2-18.8-71.6-39.4-71.6H294.3l-2.8,187.6Zm4.1-5.3V410.6h3c10.8,0,12.7,27.5,16,77.5.5,7.3,1,15,1.6,23.2l3.8,68H298.3Zm28.5,0L323,510.9c-.6-8.3-1.1-16-1.6-23.3-3.7-54.9-5.5-82.4-20.1-82.4h-3.1v-2.7h19.1c17.8,0,23.7,22.7,35.6,68,3,11.3,6.3,24,10.3,38.1l19.5,70.9H326.8Z" transform="translate(-25.6 -259.9)" style="fill:#a7cb64"/><rect x="357.43" y="391.69" width="8" height="146.5" style="fill:#aea7a7"/><rect x="59.28" y="512.87" width="304.3" height="20.8" style="fill:#a7cb64"/><path d="M122,573.3H387V715.1H110.2v-130A11.82,11.82,0,0,1,122,573.3Z" transform="translate(-25.6 -259.9)" style="fill:#6d863d"/><path d="M80.1,775.6a14.26,14.26,0,0,1-.7-4.6V701H424.9v74.6Z" transform="translate(-25.6 -259.9)" style="fill:#6d863d"/><path d="M104.9,754.5H328.5V726.3H104.9a2.26,2.26,0,0,0-2.3,2.3v23.6A2.26,2.26,0,0,0,104.9,754.5Z" transform="translate(-25.6 -259.9)" style="fill:#a7cb64"/><path d="M328.4,774.2h0a2.65,2.65,0,0,0,2.6-2.6V680.9a2.65,2.65,0,0,0-2.6-2.6h0a2.65,2.65,0,0,0-2.6,2.6v90.7A2.65,2.65,0,0,0,328.4,774.2Z" transform="translate(-25.6 -259.9)" style="fill:#a7cb64"/><path d="M318.1,635h37.6v5.2H318.1a2.65,2.65,0,0,1-2.6-2.6A2.58,2.58,0,0,1,318.1,635Z" transform="translate(-25.6 -259.9)" style="fill:#a7cb64"/><path d="M318.1,647.3h37.6v5.2H318.1a2.65,2.65,0,0,1-2.6-2.6A2.58,2.58,0,0,1,318.1,647.3Z" transform="translate(-25.6 -259.9)" style="fill:#a7cb64"/><path d="M318.1,659.6h37.6v5.2H318.1a2.65,2.65,0,0,1-2.6-2.6A2.58,2.58,0,0,1,318.1,659.6Z" transform="translate(-25.6 -259.9)" style="fill:#a7cb64"/><circle cx="284.7" cy="480.7" r="10.7" style="fill:#6d863d"/><path d="M357,712.9h0a2.65,2.65,0,0,0,2.6-2.6V619.6A2.65,2.65,0,0,0,357,617h0a2.65,2.65,0,0,0-2.6,2.6v90.7A2.65,2.65,0,0,0,357,712.9Z" transform="translate(-25.6 -259.9)" style="fill:#a7cb64"/><path d="M672.4,551.8H898.6l-16.8-22.6H754.7v2.7H747v-2.7H713.1l-.4.9h-6.9l-.4-.9H689.5a50.66,50.66,0,0,0-17.1,2.8v19.8Zm109-21.7-.1-.3,5.5.3Z" transform="translate(-25.6 -259.9)" style="fill:#6d863d"/><path d="M672.4,537.9H937.1c13.3,0,24.2,4.5,24.2,10.2v2.7H672.4Z" transform="translate(-25.6 -259.9)" style="fill:#a7cb64"/><rect x="362.12" y="298.24" width="315.3" height="214.6" style="fill:#a7cb64"/><path d="M1141.9,668.4v57.7a10.71,10.71,0,0,1-10.7,10.7H702.5V623.2Z" transform="translate(-25.6 -259.9)" style="fill:#6d863d"/><path d="M759.1,736.8V629.3l382.8,39.1v57.7a10.71,10.71,0,0,1-10.7,10.7h-78.7v-43H923.6v43Z" transform="translate(-25.6 -259.9)" style="fill:#a7cb64"/><path d="M443.4,390.5a446.36,446.36,0,0,1,17.4,42.7c11.9,34-10.7,60.3-10.7,60.3l-33.7,55-2.2,10-12.8,12.6a2.64,2.64,0,0,1-3.9-.2l-1.7-2.4,3.9-16.9s25.1-53.1,34-74,6.5-36.7,6.5-36.7L433.5,411l-5.2-13.7Z" transform="translate(-25.6 -259.9)" style="fill:#a7cb64"/><path d="M444.6,390a459.29,459.29,0,0,1,18.2,44.4c11.9,34-10.7,60.3-10.7,60.3l-33.7,55-2.2,10-12.8,12.6a2.64,2.64,0,0,1-3.9-.2l-1.7-2.4,3.9-16.9s25.1-53.1,34-74,6.5-36.7,6.5-36.7l-6.7-29.9-5.9-15.5Z" transform="translate(-25.6 -259.9)" style="fill:#6d863d"/><circle cx="946.5" cy="454.7" r="17.6" style="fill:#382f2d"/><circle cx="946.5" cy="454.67" r="12.3" style="fill:#312527"/><path d="M963.3,714.6a8.8,8.8,0,1,0,8.8-8.8A8.81,8.81,0,0,0,963.3,714.6Z" transform="translate(-25.6 -259.9)" style="fill:#f6f6f6"/><path d="M965.8,714.6a6.3,6.3,0,1,0,6.3-6.3A6.27,6.27,0,0,0,965.8,714.6Z" transform="translate(-25.6 -259.9)" style="fill:#dad1d1"/><path d="M967.4,714.6a4.7,4.7,0,1,0,4.7-4.7A4.69,4.69,0,0,0,967.4,714.6Z" transform="translate(-25.6 -259.9)" style="fill:#f6f6f6"/><rect x="944.81" y="436.38" width="4.2" height="1.5" style="fill:#382f2d"/><rect x="977.67" y="696.15" width="1.5" height="4.2" transform="translate(-37.95 1118.97) rotate(-70)" style="fill:#382f2d"/><rect x="982.96" y="699.31" width="1.5" height="4.2" transform="translate(-211.53 744.17) rotate(-50)" style="fill:#382f2d"/><rect x="986.76" y="704.06" width="1.5" height="4.2" transform="translate(-246.38 328.48) rotate(-30)" style="fill:#382f2d"/><rect x="988.59" y="709.84" width="1.5" height="4.2" transform="translate(-134.23 -77.23) rotate(-10)" style="fill:#382f2d"/><rect x="987.11" y="717.23" width="4.2" height="1.5" transform="translate(84.8 1307.63) rotate(-80)" style="fill:#382f2d"/><rect x="984.91" y="723.01" width="4.2" height="1.5" transform="translate(-158.9 956.74) rotate(-60)" style="fill:#382f2d"/><rect x="980.9" y="727.55" width="4.2" height="1.5" transform="translate(-263.76 542.4) rotate(-40)" style="fill:#382f2d"/><rect x="975.5" y="730.56" width="4.2" height="1.5" transform="translate(-216.76 118.54) rotate(-20)" style="fill:#382f2d"/><rect x="943.9" y="471.5" width="4.2" height="1.5" style="fill:#382f2d"/><rect x="964.96" y="728.84" width="1.5" height="4.2" transform="translate(-77.03 1128.54) rotate(-70)" style="fill:#382f2d"/><rect x="959.72" y="725.74" width="1.5" height="4.2" transform="translate(-240.06 735.88) rotate(-50)" style="fill:#382f2d"/><rect x="955.99" y="720.87" width="1.5" height="4.2" transform="translate(-258.91 315.35) rotate(-30)" style="fill:#382f2d"/><rect x="953.87" y="715.04" width="1.5" height="4.2" transform="translate(-135.6 -83.29) rotate(-10)" style="fill:#382f2d"/><rect x="952.76" y="710.39" width="4.2" height="1.5" transform="translate(63.15 1268.14) rotate(-80)" style="fill:#382f2d"/><rect x="955" y="704.66" width="4.2" height="1.5" transform="translate(-157.96 921.67) rotate(-60)" style="fill:#382f2d"/><rect x="959" y="700.09" width="4.2" height="1.5" transform="translate(-251.24 521.82) rotate(-40)" style="fill:#382f2d"/><rect x="964.37" y="697.17" width="4.2" height="1.5" transform="translate(-206.01 112.72) rotate(-20)" style="fill:#382f2d"/><path d="M644.8,478.7H524l.1-4.9c.1-11.5,7.4-20.8,16.3-20.8h7.9l.2,1.1H552l.2-1.1h16.9v3.1h3.8V453h13.2l.2,1.1H589l-8.2-1.1h55.7Z" transform="translate(-25.6 -259.9)" style="fill:#6d863d"/><path d="M440.5,466.5h-3.4v-23c0-2.7,3.3-5,8-5.7l6.9-5.4,15.2,2,19,28.6H639.4c6.7,0,12.2,5.2,12.2,11.6v3.1H437v-3.1A11.24,11.24,0,0,1,440.5,466.5Z" transform="translate(-25.6 -259.9)" style="fill:#a7cb64"/><path d="M456.8,469.3c0,.4.3.8.6.8h5.7c.3,0,.6-.3.6-.8v-6.9c0-.4-.3-.8-.6-.8h-5.7c-.3,0-.6.3-.6.8Z" transform="translate(-25.6 -259.9)" style="fill:#ed1c24"/><path d="M456.5,469.3v-6.9a.92.92,0,0,1,.9-1h5.7a1,1,0,0,1,.9,1v6.9a.92.92,0,0,1-.9,1h-5.7C456.9,470.4,456.5,469.9,456.5,469.3Zm.9-7.3a.46.46,0,0,0-.4.5v6.9a.46.46,0,0,0,.4.5h5.7a.46.46,0,0,0,.4-.5v-6.9a.46.46,0,0,0-.4-.5Z" transform="translate(-25.6 -259.9)" style="fill:#231f20"/><path d="M448.1,469.3c0,.4.3.8.6.8h5.7c.3,0,.6-.3.6-.8v-6.9c0-.4-.3-.8-.6-.8h-5.7c-.3,0-.6.3-.6.8Z" transform="translate(-25.6 -259.9)" style="fill:#aba9a7"/><path d="M447.9,469.3v-6.9a.92.92,0,0,1,.9-1h5.7a1,1,0,0,1,.9,1v6.9a.92.92,0,0,1-.9,1h-5.7C448.3,470.4,447.9,469.9,447.9,469.3Zm.9-7.3a.46.46,0,0,0-.4.5v6.9a.46.46,0,0,0,.4.5h5.7a.46.46,0,0,0,.4-.5v-6.9a.46.46,0,0,0-.4-.5Z" transform="translate(-25.6 -259.9)" style="fill:#231f20"/><circle cx="1023.1" cy="481.2" r="54.9" style="fill:#382f2d"/><circle cx="1023.1" cy="481.2" r="38.4" style="fill:#312527"/><circle cx="1023.1" cy="481.2" r="27.4" style="fill:#f6f6f6"/><circle cx="1023.1" cy="481.2" r="19.5" style="fill:#dad1d1"/><circle cx="1023.1" cy="481.2" r="14.6" style="fill:#f6f6f6"/><rect x="1017.99" y="424.11" width="13.1" height="4.6" style="fill:#382f2d"/><rect x="1066.38" y="683.61" width="4.6" height="13.1" transform="translate(29.05 1198.46) rotate(-70)" style="fill:#382f2d"/><rect x="1082.65" y="693.39" width="4.6" height="13.1" transform="translate(-174.21 821.28) rotate(-50)" style="fill:#382f2d"/><rect x="1094.5" y="708.43" width="4.6" height="13.1" transform="translate(-236.15 384.3) rotate(-30)" style="fill:#382f2d"/><rect x="1100.47" y="726.36" width="4.6" height="13.1" transform="translate(-136.14 -57.21) rotate(-10)" style="fill:#382f2d"/><rect x="1095.84" y="749.7" width="13.1" height="4.6" transform="translate(144.74 1447.11) rotate(-80)" style="fill:#382f2d"/><rect x="1088.85" y="767.33" width="13.1" height="4.6" transform="translate(-144.43 1073.55) rotate(-60)" style="fill:#382f2d"/><rect x="1076.27" y="781.54" width="13.1" height="4.6" transform="translate(-276.11 619.56) rotate(-40)" style="fill:#382f2d"/><rect x="1059.6" y="790.73" width="13.1" height="4.6" transform="translate(-232.53 152.54) rotate(-20)" style="fill:#382f2d"/><rect x="1015.2" y="533.6" width="13.1" height="4.6" style="fill:#382f2d"/><rect x="1026.48" y="785.45" width="4.6" height="13.1" transform="translate(-92.9 1227.98) rotate(-70)" style="fill:#382f2d"/><rect x="1010.12" y="775.5" width="4.6" height="13.1" transform="translate(-263.05 794.97) rotate(-50)" style="fill:#382f2d"/><rect x="998.32" y="760.7" width="4.6" height="13.1" transform="translate(-275.17 343.22) rotate(-30)" style="fill:#382f2d"/><rect x="992.37" y="742.66" width="4.6" height="13.1" transform="translate(-140.62 -75.74) rotate(-10)" style="fill:#382f2d"/><rect x="988.51" y="727.87" width="13.1" height="4.6" transform="translate(77.55 1323.37) rotate(-80)" style="fill:#382f2d"/><rect x="995.5" y="710.25" width="13.1" height="4.6" transform="translate(-141.67 964.16) rotate(-60)" style="fill:#382f2d"/><rect x="1008.11" y="695.97" width="13.1" height="4.6" transform="translate(-237.05 555.72) rotate(-40)" style="fill:#382f2d"/><rect x="1024.79" y="686.83" width="13.1" height="4.6" transform="translate(-199.09 134.37) rotate(-20)" style="fill:#382f2d"/><path d="M1046.1,716.7a3.1,3.1,0,1,0,3.1-3.1A3.18,3.18,0,0,0,1046.1,716.7Z" transform="translate(-25.6 -259.9)" style="fill:#382f2d"/><circle cx="1039.5" cy="462.99" r="3.1" style="fill:#382f2d"/><path d="M1072.8,734.9a3.1,3.1,0,1,0,3.6,2.5A3.08,3.08,0,0,0,1072.8,734.9Z" transform="translate(-25.6 -259.9)" style="fill:#382f2d"/><path d="M1071.5,752a3.07,3.07,0,1,0,1.1,4.2A3,3,0,0,0,1071.5,752Z" transform="translate(-25.6 -259.9)" style="fill:#382f2d"/><path d="M1059.6,764.4a3,3,0,1,0-1.8,3.9A3.17,3.17,0,0,0,1059.6,764.4Z" transform="translate(-25.6 -259.9)" style="fill:#382f2d"/><path d="M1042.5,766.1a3,3,0,1,0-3.9,1.8A3,3,0,0,0,1042.5,766.1Z" transform="translate(-25.6 -259.9)" style="fill:#382f2d"/><path d="M1028.3,756.4a3.07,3.07,0,1,0-4.2-1.1A3,3,0,0,0,1028.3,756.4Z" transform="translate(-25.6 -259.9)" style="fill:#382f2d"/><path d="M1023.6,739.9a3.1,3.1,0,1,0-2.5-3.6A3.08,3.08,0,0,0,1023.6,739.9Z" transform="translate(-25.6 -259.9)" style="fill:#382f2d"/><circle cx="1007.38" cy="462.38" r="3.1" style="fill:#382f2d"/><circle cx="871.4" cy="481.2" r="54.9" style="fill:#382f2d"/><circle cx="871.4" cy="481.2" r="38.4" style="fill:#312527"/><circle cx="871.4" cy="481.2" r="27.4" style="fill:#f6f6f6"/><circle cx="871.4" cy="481.2" r="19.5" style="fill:#dad1d1"/><circle cx="871.4" cy="481.2" r="14.6" style="fill:#f6f6f6"/><rect x="866.18" y="424.11" width="13.1" height="4.6" style="fill:#382f2d"/><rect x="914.67" y="683.62" width="4.6" height="13.1" transform="translate(-70.79 1055.9) rotate(-70)" style="fill:#382f2d"/><rect x="930.93" y="693.42" width="4.6" height="13.1" transform="translate(-228.44 705.07) rotate(-50)" style="fill:#382f2d"/><rect x="942.71" y="708.38" width="4.6" height="13.1" transform="translate(-256.46 308.4) rotate(-30)" style="fill:#382f2d"/><rect x="948.73" y="726.4" width="4.6" height="13.1" transform="translate(-138.46 -83.56) rotate(-10)" style="fill:#382f2d"/><rect x="944.08" y="749.64" width="13.1" height="4.6" transform="translate(19.4 1297.61) rotate(-80)" style="fill:#382f2d"/><rect x="937.07" y="767.37" width="13.1" height="4.6" transform="translate(-220.35 942.12) rotate(-60)" style="fill:#382f2d"/><rect x="924.49" y="781.57" width="13.1" height="4.6" transform="translate(-311.64 522) rotate(-40)" style="fill:#382f2d"/><rect x="907.8" y="790.74" width="13.1" height="4.6" transform="translate(-241.69 100.63) rotate(-20)" style="fill:#382f2d"/><rect x="863.4" y="533.6" width="13.1" height="4.6" style="fill:#382f2d"/><rect x="874.68" y="785.44" width="4.6" height="13.1" transform="translate(-192.77 1085.33) rotate(-70)" style="fill:#382f2d"/><rect x="858.41" y="775.54" width="4.6" height="13.1" transform="translate(-317.26 678.77) rotate(-50)" style="fill:#382f2d"/><rect x="846.54" y="760.67" width="4.6" height="13.1" transform="translate(-295.49 267.32) rotate(-30)" style="fill:#382f2d"/><rect x="840.61" y="742.72" width="4.6" height="13.1" transform="translate(-142.93 -102.1) rotate(-10)" style="fill:#382f2d"/><rect x="836.75" y="727.92" width="13.1" height="4.6" transform="translate(-47.91 1173.96) rotate(-80)" style="fill:#382f2d"/><rect x="843.76" y="710.21" width="13.1" height="4.6" transform="translate(-217.5 832.73) rotate(-60)" style="fill:#382f2d"/><rect x="856.3" y="696" width="13.1" height="4.6" transform="translate(-272.59 458.14) rotate(-40)" style="fill:#382f2d"/><rect x="872.98" y="686.85" width="13.1" height="4.6" transform="translate(-208.25 82.46) rotate(-20)" style="fill:#382f2d"/><path d="M894.3,716.7a3.1,3.1,0,1,0,3.1-3.1A3.18,3.18,0,0,0,894.3,716.7Z" transform="translate(-25.6 -259.9)" style="fill:#382f2d"/><circle cx="887.78" cy="462.95" r="3.1" style="fill:#382f2d"/><path d="M921.1,734.9a3.1,3.1,0,1,0,3.6,2.5A3.19,3.19,0,0,0,921.1,734.9Z" transform="translate(-25.6 -259.9)" style="fill:#382f2d"/><path d="M919.8,752a3.07,3.07,0,1,0,1.1,4.2A3,3,0,0,0,919.8,752Z" transform="translate(-25.6 -259.9)" style="fill:#382f2d"/><path d="M907.8,764.4a3,3,0,1,0-1.8,3.9A3,3,0,0,0,907.8,764.4Z" transform="translate(-25.6 -259.9)" style="fill:#382f2d"/><path d="M890.7,766.1a3,3,0,1,0-3.9,1.8A3.08,3.08,0,0,0,890.7,766.1Z" transform="translate(-25.6 -259.9)" style="fill:#382f2d"/><path d="M876.5,756.4a3.07,3.07,0,1,0-4.2-1.1A3,3,0,0,0,876.5,756.4Z" transform="translate(-25.6 -259.9)" style="fill:#382f2d"/><path d="M871.8,739.9a3.1,3.1,0,1,0-2.5-3.6A3.08,3.08,0,0,0,871.8,739.9Z" transform="translate(-25.6 -259.9)" style="fill:#382f2d"/><circle cx="855.58" cy="462.4" r="3.1" style="fill:#382f2d"/><circle cx="548.59" cy="662.22" r="131.1" transform="translate(-333.18 321.97) rotate(-45)" style="fill:#1d1715"/><circle cx="522.99" cy="402.32" r="91.8" style="fill:#1d1715"/><circle cx="523" cy="402.25" r="65.5" style="fill:#f6f6f6"/><circle cx="523" cy="402.3" r="46.6" style="fill:#dad1d1"/><circle cx="523" cy="402.25" r="35" style="fill:#f6f6f6"/><rect x="510.7" y="266.16" width="31.3" height="10.9" style="fill:#382f2d"/><rect x="590.9" y="524.86" width="10.9" height="31.3" transform="translate(-141.12 656.15) rotate(-70)" style="fill:#382f2d"/><rect x="629.74" y="548.56" width="10.9" height="31.3" transform="translate(-230.92 428.2) rotate(-50)" style="fill:#382f2d"/><rect x="657.99" y="584.08" width="10.9" height="31.3" transform="translate(-236.59 152.18) rotate(-30)" style="fill:#382f2d"/><rect x="672.52" y="627.1" width="10.9" height="31.3" transform="translate(-126.89 -132.44) rotate(-10)" style="fill:#382f2d"/><rect x="661.18" y="682.77" width="31.3" height="10.9" transform="translate(-144.09 975.31) rotate(-80)" style="fill:#382f2d"/><rect x="644.45" y="724.98" width="31.3" height="10.9" transform="translate(-328.13 676.97) rotate(-60)" style="fill:#382f2d"/><rect x="614.48" y="758.95" width="31.3" height="10.9" transform="translate(-369.53 324.01) rotate(-40)" style="fill:#382f2d"/><rect x="574.58" y="780.72" width="31.3" height="10.9" transform="translate(-258.88 -10.63) rotate(-20)" style="fill:#382f2d"/><rect x="504.1" y="527.6" width="31.3" height="10.9" style="fill:#382f2d"/><rect x="495.41" y="768.3" width="10.9" height="31.3" transform="translate(-432.71 726.6) rotate(-70)" style="fill:#382f2d"/><rect x="456.57" y="744.55" width="10.9" height="31.3" transform="translate(-442.9 365.55) rotate(-50)" style="fill:#382f2d"/><rect x="428.31" y="709.06" width="10.9" height="31.3" transform="translate(-329.85 54.08) rotate(-30)" style="fill:#382f2d"/><rect x="413.88" y="666.03" width="10.9" height="31.3" transform="translate(-137.57 -176.75) rotate(-10)" style="fill:#382f2d"/><rect x="404.85" y="630.86" width="31.3" height="10.9" transform="translate(-304.74 680.06) rotate(-80)" style="fill:#382f2d"/><rect x="421.46" y="588.57" width="31.3" height="10.9" transform="translate(-321.49 415.65) rotate(-60)" style="fill:#382f2d"/><rect x="451.51" y="554.51" width="31.3" height="10.9" transform="translate(-276.25 171.42) rotate(-40)" style="fill:#382f2d"/><rect x="491.38" y="532.76" width="31.3" height="10.9" transform="translate(-179.09 -54.04) rotate(-20)" style="fill:#382f2d"/><path d="M542.3,604.1a7.3,7.3,0,1,0,7.3-7.3A7.21,7.21,0,0,0,542.3,604.1Z" transform="translate(-25.6 -259.9)" style="fill:#382f2d"/><path d="M582.1,614.2a7.31,7.31,0,1,0,10.3-.9A7.22,7.22,0,0,0,582.1,614.2Z" transform="translate(-25.6 -259.9)" style="fill:#382f2d"/><path d="M606.2,647.5a7.32,7.32,0,1,0,8.5,5.9A7.29,7.29,0,0,0,606.2,647.5Z" transform="translate(-25.6 -259.9)" style="fill:#382f2d"/><path d="M603.1,688.4a7.32,7.32,0,1,0,2.7,10A7.34,7.34,0,0,0,603.1,688.4Z" transform="translate(-25.6 -259.9)" style="fill:#382f2d"/><path d="M574.5,717.8a7.34,7.34,0,1,0-4.4,9.4A7.34,7.34,0,0,0,574.5,717.8Z" transform="translate(-25.6 -259.9)" style="fill:#382f2d"/><path d="M533.7,722a7.34,7.34,0,1,0-9.4,4.4A7.43,7.43,0,0,0,533.7,722Z" transform="translate(-25.6 -259.9)" style="fill:#382f2d"/><path d="M499.7,698.9a7.32,7.32,0,1,0-10-2.7A7.34,7.34,0,0,0,499.7,698.9Z" transform="translate(-25.6 -259.9)" style="fill:#382f2d"/><path d="M488.5,659.4a7.32,7.32,0,1,0-5.9-8.5A7.37,7.37,0,0,0,488.5,659.4Z" transform="translate(-25.6 -259.9)" style="fill:#382f2d"/><path d="M505.4,621.9a7.31,7.31,0,1,0,.9-10.3A7.3,7.3,0,0,0,505.4,621.9Z" transform="translate(-25.6 -259.9)" style="fill:#382f2d"/><polygon points="1131.9 424.2 1156.2 319.4 670.6 319.4 670.6 387.4 1131.9 424.2" style="fill:#a7cb64"/><path d="M758.6,631.8c30.2,7.5,61,12.8,91.8,17.4,41.1,6.1,82.3,12.4,123.6,17.4,44.1,5.3,89,4.2,132.3-6.8,21.9-5.6,39.3-20.8,51.2-39.4,7.9-12.3,11.3-26.6,11.4-41.1h12.8l-24.3,104.8L696.1,647.3V612A540.13,540.13,0,0,0,758.6,631.8Z" transform="translate(-25.6 -259.9)" style="fill:#88a84c"/><polygon points="772.3 319.4 772.3 395.5 670.6 387.4 670.6 319.4 772.3 319.4" style="fill:#6d863d"/><polygon points="1129.1 290.1 670.6 290.1 670.6 319.4 1156.2 319.4 1129.1 290.1" style="fill:#6d863d"/><path d="M730.4,670.8V765a1.9,1.9,0,0,0,1.9,1.9h6.6a1.9,1.9,0,0,0,1.9-1.9V670.8a1.9,1.9,0,0,0-1.9-1.9h-6.6A2,2,0,0,0,730.4,670.8Z" transform="translate(-25.6 -259.9)" style="fill:#a7cb64"/><path d="M728.6,558V685.8a2.65,2.65,0,0,0,2.6,2.6h9a2.65,2.65,0,0,0,2.6-2.6V558a2.65,2.65,0,0,0-2.6-2.6h-9A2.65,2.65,0,0,0,728.6,558Z" transform="translate(-25.6 -259.9)" style="fill:#a7cb64"/><path d="M726.1,674v7.8a2.58,2.58,0,0,0,2.6,2.6h13.9a2.58,2.58,0,0,0,2.6-2.6V674a2.58,2.58,0,0,0-2.6-2.6H728.7A2.72,2.72,0,0,0,726.1,674Z" transform="translate(-25.6 -259.9)" style="fill:#a7cb64"/><path d="M702.8,683.4v77.4a1.58,1.58,0,0,0,1.6,1.6h5.4a1.58,1.58,0,0,0,1.6-1.6V683.4a1.58,1.58,0,0,0-1.6-1.6h-5.4A1.58,1.58,0,0,0,702.8,683.4Z" transform="translate(-25.6 -259.9)" style="fill:#a7cb64"/><path d="M701.3,590.7v105a2.05,2.05,0,0,0,2.1,2.1h7.4a2.05,2.05,0,0,0,2.1-2.1v-105a2.05,2.05,0,0,0-2.1-2.1h-7.4A2.05,2.05,0,0,0,701.3,590.7Z" transform="translate(-25.6 -259.9)" style="fill:#a7cb64"/><path d="M699.2,686v6.4a2.05,2.05,0,0,0,2.1,2.1h11.5a2.05,2.05,0,0,0,2.1-2.1V686a2.05,2.05,0,0,0-2.1-2.1H701.3A2.11,2.11,0,0,0,699.2,686Z" transform="translate(-25.6 -259.9)" style="fill:#a7cb64"/><path d="M437.3,568v39.8a2.43,2.43,0,0,0,2.4,2.4h3.6a2.43,2.43,0,0,0,2.4-2.4V568Z" transform="translate(-25.6 -259.9)" style="fill:url(#linear-gradient)"/><path d="M447.3,652.7V597.8a3.33,3.33,0,0,0-3.3-3.3h-4.9a3.33,3.33,0,0,0-3.3,3.3v54.9Z" transform="translate(-25.6 -259.9)" style="fill:#a7cb64"/><path d="M433.8,606.1v-6.3a2.11,2.11,0,0,1,2.1-2.1h11.3a2.11,2.11,0,0,1,2.1,2.1v6.3a2.11,2.11,0,0,1-2.1,2.1H435.9A2.05,2.05,0,0,1,433.8,606.1Z" transform="translate(-25.6 -259.9)" style="fill:#6d863d"/><polygon points="365.6 399.5 691.7 493 671.1 517.7 365.6 430.2 365.6 399.5" style="fill:#6d863d"/><path d="M651.1,558.2v82.6a3.27,3.27,0,0,0,3,3.5h4.4a3.34,3.34,0,0,0,3-3.5V558.2Z" transform="translate(-25.6 -259.9)" style="fill:url(#linear-gradient-2)"/><path d="M663.3,744.9V626.1c0-2.6-1.8-4.8-4.1-4.8h-6c-2.2,0-4.1,2.1-4.1,4.8V744.9Z" transform="translate(-25.6 -259.9)" style="fill:#a7cb64"/><path d="M646.7,638.5v-9.6a2.8,2.8,0,0,1,2.8-2.8h13.6a2.8,2.8,0,0,1,2.8,2.8v9.6a2.8,2.8,0,0,1-2.8,2.8H649.5A2.86,2.86,0,0,1,646.7,638.5Z" transform="translate(-25.6 -259.9)" style="fill:#6d863d"/><polygon points="750.6 455 664.8 455 664.8 526 707.7 526 750.6 502.8 750.6 455" style="fill:#a7cb64"/><path d="M723.5,725.3h9.1a.68.68,0,0,0,.7-.7V723a.68.68,0,0,0-.7-.7h-9.1a.68.68,0,0,0-.7.7v1.6A.68.68,0,0,0,723.5,725.3Z" transform="translate(-25.6 -259.9)" style="fill:none;stroke:#382f2d;stroke-miterlimit:10;stroke-width:0.6744999885559082px"/><path d="M723.5,731.3h9.1a.68.68,0,0,0,.7-.7V729a.68.68,0,0,0-.7-.7h-9.1a.68.68,0,0,0-.7.7v1.6A.68.68,0,0,0,723.5,731.3Z" transform="translate(-25.6 -259.9)" style="fill:none;stroke:#382f2d;stroke-miterlimit:10;stroke-width:0.6744999885559082px"/><path d="M723.5,737.3h9.1a.68.68,0,0,0,.7-.7V735a.68.68,0,0,0-.7-.7h-9.1a.68.68,0,0,0-.7.7v1.6A.68.68,0,0,0,723.5,737.3Z" transform="translate(-25.6 -259.9)" style="fill:none;stroke:#382f2d;stroke-miterlimit:10;stroke-width:0.6744999885559082px"/><path d="M723.5,743.3h9.1a.68.68,0,0,0,.7-.7V741a.68.68,0,0,0-.7-.7h-9.1a.68.68,0,0,0-.7.7v1.6A.68.68,0,0,0,723.5,743.3Z" transform="translate(-25.6 -259.9)" style="fill:none;stroke:#382f2d;stroke-miterlimit:10;stroke-width:0.6744999885559082px"/><path d="M723.5,749.3h9.1a.68.68,0,0,0,.7-.7V747a.68.68,0,0,0-.7-.7h-9.1a.68.68,0,0,0-.7.7v1.6A.68.68,0,0,0,723.5,749.3Z" transform="translate(-25.6 -259.9)" style="fill:none;stroke:#382f2d;stroke-miterlimit:10;stroke-width:0.6744999885559082px"/><path d="M723.5,755.2h9.1a.68.68,0,0,0,.7-.7v-1.6a.68.68,0,0,0-.7-.7h-9.1a.68.68,0,0,0-.7.7v1.6A.68.68,0,0,0,723.5,755.2Z" transform="translate(-25.6 -259.9)" style="fill:none;stroke:#382f2d;stroke-miterlimit:10;stroke-width:0.6744999885559082px"/><path d="M723.5,761.2h9.1a.68.68,0,0,0,.7-.7v-1.6a.68.68,0,0,0-.7-.7h-9.1a.68.68,0,0,0-.7.7v1.6A.68.68,0,0,0,723.5,761.2Z" transform="translate(-25.6 -259.9)" style="fill:none;stroke:#382f2d;stroke-miterlimit:10;stroke-width:0.6744999885559082px"/><path d="M709.6,725.3h9.1a.68.68,0,0,0,.7-.7V723a.68.68,0,0,0-.7-.7h-9.1a.68.68,0,0,0-.7.7v1.6A.68.68,0,0,0,709.6,725.3Z" transform="translate(-25.6 -259.9)" style="fill:none;stroke:#382f2d;stroke-miterlimit:10;stroke-width:0.6744999885559082px"/><path d="M709.6,731.3h9.1a.68.68,0,0,0,.7-.7V729a.68.68,0,0,0-.7-.7h-9.1a.68.68,0,0,0-.7.7v1.6A.68.68,0,0,0,709.6,731.3Z" transform="translate(-25.6 -259.9)" style="fill:none;stroke:#382f2d;stroke-miterlimit:10;stroke-width:0.6744999885559082px"/><path d="M709.6,737.3h9.1a.68.68,0,0,0,.7-.7V735a.68.68,0,0,0-.7-.7h-9.1a.68.68,0,0,0-.7.7v1.6A.68.68,0,0,0,709.6,737.3Z" transform="translate(-25.6 -259.9)" style="fill:none;stroke:#382f2d;stroke-miterlimit:10;stroke-width:0.6744999885559082px"/><path d="M709.6,743.3h9.1a.68.68,0,0,0,.7-.7V741a.68.68,0,0,0-.7-.7h-9.1a.68.68,0,0,0-.7.7v1.6A.68.68,0,0,0,709.6,743.3Z" transform="translate(-25.6 -259.9)" style="fill:none;stroke:#382f2d;stroke-miterlimit:10;stroke-width:0.6744999885559082px"/><path d="M709.6,749.3h9.1a.68.68,0,0,0,.7-.7V747a.68.68,0,0,0-.7-.7h-9.1a.68.68,0,0,0-.7.7v1.6A.68.68,0,0,0,709.6,749.3Z" transform="translate(-25.6 -259.9)" style="fill:none;stroke:#382f2d;stroke-miterlimit:10;stroke-width:0.6744999885559082px"/><path d="M709.6,755.2h9.1a.68.68,0,0,0,.7-.7v-1.6a.68.68,0,0,0-.7-.7h-9.1a.68.68,0,0,0-.7.7v1.6A.68.68,0,0,0,709.6,755.2Z" transform="translate(-25.6 -259.9)" style="fill:none;stroke:#382f2d;stroke-miterlimit:10;stroke-width:0.6744999885559082px"/><path d="M709.6,761.2h9.1a.68.68,0,0,0,.7-.7v-1.6a.68.68,0,0,0-.7-.7h-9.1a.68.68,0,0,0-.7.7v1.6A.68.68,0,0,0,709.6,761.2Z" transform="translate(-25.6 -259.9)" style="fill:none;stroke:#382f2d;stroke-miterlimit:10;stroke-width:0.6744999885559082px"/><path d="M695.6,725.3h9.1a.68.68,0,0,0,.7-.7V723a.68.68,0,0,0-.7-.7h-9.1a.68.68,0,0,0-.7.7v1.6A.84.84,0,0,0,695.6,725.3Z" transform="translate(-25.6 -259.9)" style="fill:none;stroke:#382f2d;stroke-miterlimit:10;stroke-width:0.6744999885559082px"/><path d="M695.6,731.3h9.1a.68.68,0,0,0,.7-.7V729a.68.68,0,0,0-.7-.7h-9.1a.68.68,0,0,0-.7.7v1.6A.84.84,0,0,0,695.6,731.3Z" transform="translate(-25.6 -259.9)" style="fill:none;stroke:#382f2d;stroke-miterlimit:10;stroke-width:0.6744999885559082px"/><path d="M695.6,737.3h9.1a.68.68,0,0,0,.7-.7V735a.68.68,0,0,0-.7-.7h-9.1a.68.68,0,0,0-.7.7v1.6A.84.84,0,0,0,695.6,737.3Z" transform="translate(-25.6 -259.9)" style="fill:none;stroke:#382f2d;stroke-miterlimit:10;stroke-width:0.6744999885559082px"/><path d="M695.6,743.3h9.1a.68.68,0,0,0,.7-.7V741a.68.68,0,0,0-.7-.7h-9.1a.68.68,0,0,0-.7.7v1.6A.84.84,0,0,0,695.6,743.3Z" transform="translate(-25.6 -259.9)" style="fill:none;stroke:#382f2d;stroke-miterlimit:10;stroke-width:0.6744999885559082px"/><path d="M695.6,749.3h9.1a.68.68,0,0,0,.7-.7V747a.68.68,0,0,0-.7-.7h-9.1a.68.68,0,0,0-.7.7v1.6A.84.84,0,0,0,695.6,749.3Z" transform="translate(-25.6 -259.9)" style="fill:none;stroke:#382f2d;stroke-miterlimit:10;stroke-width:0.6744999885559082px"/><path d="M695.6,755.2h9.1a.68.68,0,0,0,.7-.7v-1.6a.68.68,0,0,0-.7-.7h-9.1a.68.68,0,0,0-.7.7v1.6A.84.84,0,0,0,695.6,755.2Z" transform="translate(-25.6 -259.9)" style="fill:none;stroke:#382f2d;stroke-miterlimit:10;stroke-width:0.6744999885559082px"/><path d="M695.6,761.2h9.1a.68.68,0,0,0,.7-.7v-1.6a.68.68,0,0,0-.7-.7h-9.1a.68.68,0,0,0-.7.7v1.6A.84.84,0,0,0,695.6,761.2Z" transform="translate(-25.6 -259.9)" style="fill:none;stroke:#382f2d;stroke-miterlimit:10;stroke-width:0.6744999885559082px"/><rect x="264.8" y="319.5" width="21.2" height="118.4" style="fill:#a7cb64"/><polygon points="624.1 475.8 641.1 480.6 643.6 491.2 643.6 491.6 643.5 492.6 629.7 492.6 627.1 500.4 618.3 500.4 617.8 488 624.1 475.8" style="fill:#a7cb64"/><rect x="365.6" y="382.3" width="58.1" height="10.4" style="fill:#6d863d"/><polygon points="396.2 318.6 396.2 335.8 380.4 343.7 380.4 352.3 380.4 388 380.4 391.1 380.4 426.8 380.4 435.4 396.2 443.4 396.2 460.5 362.5 460.5 362.5 426.8 362.5 391.1 362.5 388 362.5 352.3 362.5 318.6 396.2 318.6" style="fill:#a7cb64"/><polygon points="415.1 218.7 624.1 218.7 677.4 297 677.4 297 677.4 319.3 643.8 319.3 619.2 298.3 420 298.3 395.4 319.3 361.8 319.3 361.8 297 415.1 218.7" style="fill:#6d863d"/><path d="M657.6,549.2h6.3a11.58,11.58,0,0,0-4.2.7,9.77,9.77,0,0,1,6.2,5.5l5,12.3h-6.3l-5-12.3a10.31,10.31,0,0,0-6.2-5.5A14.21,14.21,0,0,1,657.6,549.2Z" transform="translate(-25.6 -259.9)" style="fill:#a7cb64"/><path d="M664.7,549.2H671c4.7,0,8.9,2.5,10.4,6.2l5,12.3h-6.3l-5-12.3C673.5,551.7,669.4,549.2,664.7,549.2Z" transform="translate(-25.6 -259.9)" style="fill:#a7cb64"/><path d="M677.5,549.2h6.3c4.7,0,8.9,2.5,10.4,6.2l5,12.3H693l-5-12.3C686.4,551.7,682.2,549.2,677.5,549.2Z" transform="translate(-25.6 -259.9)" style="fill:#a7cb64"/><path d="M618.9,496.6a4.12,4.12,0,1,0-.6-5.8A4.21,4.21,0,0,0,618.9,496.6Z" transform="translate(-25.6 -259.9)" style="fill:url(#radial-gradient-15)"/><path d="M563.9,496.6a4.12,4.12,0,1,0-.6-5.8A4.21,4.21,0,0,0,563.9,496.6Z" transform="translate(-25.6 -259.9)" style="fill:url(#radial-gradient-16)"/><path d="M508.9,496.6a4.12,4.12,0,1,0-.6-5.8A4.12,4.12,0,0,0,508.9,496.6Z" transform="translate(-25.6 -259.9)" style="fill:url(#radial-gradient-17)"/><path d="M453.9,496.6a4.12,4.12,0,1,0-.6-5.8A4.12,4.12,0,0,0,453.9,496.6Z" transform="translate(-25.6 -259.9)" style="fill:url(#radial-gradient-18)"/><path d="M376.1,588.3a4.12,4.12,0,1,0-.6-5.8A4.21,4.21,0,0,0,376.1,588.3Z" transform="translate(-25.6 -259.9)" style="fill:url(#radial-gradient-19)"/><path d="M321.1,588.3a4.12,4.12,0,1,0-.6-5.8A4.21,4.21,0,0,0,321.1,588.3Z" transform="translate(-25.6 -259.9)" style="fill:url(#radial-gradient-20)"/><path d="M376.1,785.3a4.12,4.12,0,1,0-.6-5.8A4.21,4.21,0,0,0,376.1,785.3Z" transform="translate(-25.6 -259.9)" style="fill:url(#radial-gradient-21)"/><path d="M321.1,785.3a4.12,4.12,0,1,0-.6-5.8A4.21,4.21,0,0,0,321.1,785.3Z" transform="translate(-25.6 -259.9)" style="fill:url(#radial-gradient-22)"/><path d="M787.3,591.6a4.12,4.12,0,1,0-5.8.6A4.23,4.23,0,0,0,787.3,591.6Z" transform="translate(-25.6 -259.9)" style="fill:url(#radial-gradient-23)"/><path d="M787.3,646.6a4.12,4.12,0,1,0-5.8.6A4.23,4.23,0,0,0,787.3,646.6Z" transform="translate(-25.6 -259.9)" style="fill:url(#radial-gradient-24)"/><path d="M1156.3,593.2a4.12,4.12,0,1,0-.6-5.8A4.23,4.23,0,0,0,1156.3,593.2Z" transform="translate(-25.6 -259.9)" style="fill:url(#radial-gradient-25)"/><path d="M1101.3,593.2a4.12,4.12,0,1,0-.6-5.8A4.12,4.12,0,0,0,1101.3,593.2Z" transform="translate(-25.6 -259.9)" style="fill:url(#radial-gradient-26)"/><path d="M1046.3,593.2a4.12,4.12,0,1,0-.6-5.8A4.12,4.12,0,0,0,1046.3,593.2Z" transform="translate(-25.6 -259.9)" style="fill:url(#radial-gradient-27)"/><path d="M991.3,593.2a4.12,4.12,0,1,0-.6-5.8A4.12,4.12,0,0,0,991.3,593.2Z" transform="translate(-25.6 -259.9)" style="fill:url(#radial-gradient-28)"/><path d="M942.8,593.2a4.12,4.12,0,1,0-.6-5.8A4,4,0,0,0,942.8,593.2Z" transform="translate(-25.6 -259.9)" style="fill:url(#radial-gradient-29)"/><path d="M887.7,593.2a4.12,4.12,0,1,0-.6-5.8A4.23,4.23,0,0,0,887.7,593.2Z" transform="translate(-25.6 -259.9)" style="fill:url(#radial-gradient-30)"/><path d="M832.7,593.2a4.12,4.12,0,1,0-.6-5.8A4.23,4.23,0,0,0,832.7,593.2Z" transform="translate(-25.6 -259.9)" style="fill:url(#radial-gradient-31)"/><circle cx="629.8" cy="484.4" r="6.1" style="fill:url(#radial-gradient-32)"/><path d="M397.8,641.4a6.05,6.05,0,1,0,6.2,5.9A6,6,0,0,0,397.8,641.4Z" transform="translate(-25.6 -259.9)" style="fill:url(#radial-gradient-33)"/><circle cx="741.8" cy="464.8" r="6.1" style="fill:url(#radial-gradient-34)"/></svg>