<?xml version="1.0" encoding="utf-8"?>
<!-- Generator: Adobe Illustrator 23.0.1, SVG Export Plug-In . SVG Version: 6.00 Build 0)  -->
<svg version="1.1" id="Layer_1" xmlns="http://www.w3.org/2000/svg" xmlns:xlink="http://www.w3.org/1999/xlink" x="0px" y="0px"
	 viewBox="0 0 1200 1200" style="enable-background:new 0 0 1200 1200;" xml:space="preserve">
<style type="text/css">
	.st0{display:none;}
	.st1{display:inline;}
	.st2{fill:url(#SVGID_1_);}
	.st3{fill:url(#SVGID_2_);}
	.st4{fill:#A7CB64;}
	.st5{fill:#88A84C;}
	.st6{fill:#292B2A;}
	.st7{opacity:0.16;fill:#A7CB64;enable-background:new    ;}
	.st8{fill:#020200;}
	.st9{opacity:0.28;fill:#F5F5F5;enable-background:new    ;}
	.st10{fill:#EC1C24;}
	.st11{fill:#3B3A3A;stroke:#231F20;stroke-width:0.591;stroke-miterlimit:10;}
	.st12{fill:#3B3A3A;stroke:#231F20;stroke-width:0.7742;stroke-miterlimit:10;}
	.st13{fill:#414042;}
	.st14{fill:#070608;}
	.st15{fill:#231F20;}
	.st16{fill:#3D3B3D;}
	.st17{fill:url(#SVGID_3_);}
	.st18{fill:#3B3A3A;}
	.st19{fill:#FFFFFF;stroke:#3D3B3D;stroke-width:0.4286;stroke-miterlimit:10;}
	.st20{fill:url(#SVGID_4_);}
	.st21{fill:url(#SVGID_5_);}
	.st22{fill:url(#SVGID_6_);}
	.st23{fill:url(#SVGID_7_);}
	.st24{fill:url(#SVGID_8_);}
	.st25{fill:url(#SVGID_9_);}
	.st26{fill:url(#SVGID_10_);}
	.st27{fill:url(#SVGID_11_);}
	.st28{fill:url(#SVGID_12_);}
	.st29{fill:url(#SVGID_13_);}
	.st30{fill:url(#SVGID_14_);}
	.st31{fill:url(#SVGID_15_);}
	.st32{fill:url(#SVGID_16_);}
	.st33{fill:url(#SVGID_17_);}
	.st34{fill:url(#SVGID_18_);}
	.st35{fill:url(#SVGID_19_);}
	.st36{fill:url(#SVGID_20_);}
	.st37{fill:#FFB932;stroke:#A97C50;stroke-width:0.36;stroke-miterlimit:10;}
	.st38{fill:#808285;}
	.st39{fill:#6D6E71;}
	.st40{fill:#231F20;stroke:#58595B;stroke-width:0.5758;stroke-miterlimit:10;}
	.st41{fill:url(#SVGID_21_);}
	.st42{fill:url(#SVGID_22_);}
	.st43{fill:url(#SVGID_23_);}
	.st44{fill:url(#SVGID_24_);}
	.st45{fill:url(#SVGID_25_);}
	.st46{fill:url(#SVGID_26_);}
	.st47{fill:url(#SVGID_27_);}
	.st48{fill:url(#SVGID_28_);}
	.st49{fill:url(#SVGID_29_);}
	.st50{fill:none;stroke:#231F20;stroke-width:0.7742;stroke-miterlimit:10;}
	.st51{fill:#403430;}
	.st52{fill:#ED1C24;}
	.st53{fill:#ABA9A7;}
</style>
<g class="st0">
	<path class="st1" d="M944.2,598.3c-1.6,0-2.9,1.3-2.9,2.9c0,1.6,1.3,2.9,2.9,2.9c1.6,0,2.9-1.3,2.9-2.9
		C947.1,599.6,945.8,598.3,944.2,598.3z"/>
	<path class="st1" d="M944.2,598.3c-1.6,0-2.9,1.3-2.9,2.9c0,1.6,1.3,2.9,2.9,2.9c1.6,0,2.9-1.3,2.9-2.9
		C947.1,599.6,945.8,598.3,944.2,598.3z"/>
	<g class="st1">
		<path d="M944.2,599.2c-1.1,0-2,0.9-2,2.1c0,1.1,0.9,2,2.1,2c1.1,0,2-0.9,2-2.1C946.2,600.1,945.3,599.1,944.2,599.2z"/>
		<path d="M942.1,601.2c0-1.1,0.9-2.1,2.1-2.1c1.1,0,2.1,0.9,2.1,2.1c0,1.1-0.9,2.1-2.1,2.1C943.1,603.3,942.1,602.4,942.1,601.2z
			 M946.2,601.2c0-1.1-0.9-2-2.1-2c-1.1,0-2,0.9-2,2.1c0,1.1,0.9,2,2.1,2C945.3,603.2,946.2,602.3,946.2,601.2z"/>
	</g>
	<g class="st1">
		<g>
			<path d="M944.2,599.6c-0.9,0-1.6,0.7-1.6,1.6c0,0.9,0.7,1.6,1.6,1.6c0.9,0,1.6-0.7,1.6-1.6S945,599.6,944.2,599.6z"/>
			<path d="M942.5,601.2c0-0.9,0.7-1.7,1.7-1.7c0.9,0,1.7,0.7,1.7,1.7c0,0.9-0.7,1.7-1.7,1.7C943.3,602.9,942.5,602.2,942.5,601.2z
				 M945.7,601.2c0-0.8-0.7-1.5-1.5-1.5s-1.5,0.7-1.5,1.5s0.7,1.5,1.5,1.5S945.7,602,945.7,601.2z"/>
		</g>
	</g>
</g>
<g class="st0">
	<path class="st1" d="M914.9,598.6c-1.6,0-2.9,1.3-2.9,2.9c0,1.6,1.3,2.9,2.9,2.9c1.6,0,2.9-1.3,2.9-2.9
		C917.8,599.9,916.5,598.6,914.9,598.6z"/>
	<path class="st1" d="M914.9,598.6c-1.6,0-2.9,1.3-2.9,2.9c0,1.6,1.3,2.9,2.9,2.9c1.6,0,2.9-1.3,2.9-2.9
		C917.8,599.9,916.5,598.6,914.9,598.6z"/>
	<g class="st1">
		<path d="M914.9,599.5c-1.1,0-2,0.9-2,2.1c0,1.1,0.9,2,2.1,2c1.1,0,2-0.9,2-2.1C917,600.4,916,599.5,914.9,599.5z"/>
		<path d="M912.8,601.6c0-1.1,0.9-2.1,2.1-2.1c1.1,0,2.1,0.9,2.1,2.1c0,1.1-0.9,2.1-2.1,2.1C913.8,603.6,912.8,602.7,912.8,601.6z
			 M916.9,601.5c0-1.1-0.9-2-2.1-2c-1.1,0-2,0.9-2,2.1c0,1.1,0.9,2,2.1,2C916,603.6,917,602.6,916.9,601.5z"/>
	</g>
	<g class="st1">
		<g>
			<path d="M914.9,599.9c-0.9,0-1.6,0.7-1.6,1.6c0,0.9,0.7,1.6,1.6,1.6c0.9,0,1.6-0.7,1.6-1.6C916.5,600.6,915.7,599.9,914.9,599.9z
				"/>
			<path d="M913.2,601.6c0-0.9,0.7-1.7,1.7-1.7c0.9,0,1.7,0.7,1.7,1.7c0,0.9-0.7,1.7-1.7,1.7C914,603.2,913.2,602.5,913.2,601.6z
				 M916.4,601.5c0-0.8-0.7-1.5-1.5-1.5s-1.5,0.7-1.5,1.5s0.7,1.5,1.5,1.5S916.4,602.3,916.4,601.5z"/>
		</g>
	</g>
</g>
<linearGradient id="SVGID_1_" gradientUnits="userSpaceOnUse" x1="1046.1764" y1="471.15" x2="1054.2302" y2="471.15" gradientTransform="matrix(1 0 0 -1 0 1200)">
	<stop  offset="0" style="stop-color:#231F20"/>
	<stop  offset="0.413" style="stop-color:#252122"/>
	<stop  offset="0.5618" style="stop-color:#2B2729"/>
	<stop  offset="0.6675" style="stop-color:#353334"/>
	<stop  offset="0.7394" style="stop-color:#414042"/>
	<stop  offset="0.7653" style="stop-color:#4D4D4F"/>
	<stop  offset="0.7985" style="stop-color:#555658"/>
	<stop  offset="0.8485" style="stop-color:#58595B"/>
	<stop  offset="0.9212" style="stop-color:#414042"/>
</linearGradient>
<rect x="1046.2" y="690.3" class="st2" width="8.1" height="77.1"/>
<linearGradient id="SVGID_2_" gradientUnits="userSpaceOnUse" x1="1054.2302" y1="486.75" x2="1068.6302" y2="486.75" gradientTransform="matrix(1 0 0 -1 0 1200)">
	<stop  offset="0" style="stop-color:#231F20"/>
	<stop  offset="0.413" style="stop-color:#252122"/>
	<stop  offset="0.5618" style="stop-color:#2B2729"/>
	<stop  offset="0.6675" style="stop-color:#353334"/>
	<stop  offset="0.7394" style="stop-color:#414042"/>
	<stop  offset="0.7653" style="stop-color:#4D4D4F"/>
	<stop  offset="0.7985" style="stop-color:#555658"/>
	<stop  offset="0.8485" style="stop-color:#58595B"/>
	<stop  offset="0.9212" style="stop-color:#414042"/>
</linearGradient>
<rect x="1054.2" y="693.4" class="st3" width="14.4" height="39.7"/>
<g>
	<polygon class="st4" points="405.3,656.2 533.2,702.1 692.1,409.4 584,327.2 	"/>
	<polygon class="st5" points="297.9,574.3 406,656.6 584.7,327.5 456.9,281.7 	"/>
	<path class="st4" d="M312.9,275c0.1,0,0.1,0.1,0.2,0.1l144.2,6.8l-64,117.8l-30.9,57l-64,117.8L214,457.2c0,0,0,0-0.1,0
		c-13.9-7.5-3-54.4,24.3-104.7C265.6,302.1,299,267.4,312.9,275z"/>
	<path class="st5" d="M776.8,526.9c13.7,7.8,2.7,54.5-24.5,104.6c-27.1,49.9-60.2,84.4-74.3,77.6l-144.4-6.8l64-117.8l30.9-57
		l64-117.8L776.8,526.9z"/>
	<path class="st5" d="M194.3,453.4L194.3,453.4c8.7,4.5,19.5,1,23.9-7.7l81.2-157.9c4.5-8.7,1-19.5-7.7-23.9l0,0
		c-8.7-4.5-19.5-1-23.9,7.7l-81.2,157.9C182.2,438.1,185.6,448.9,194.3,453.4z"/>
	<path class="st6" d="M451,670.8v-20.3c0-6.7,8-12.1,17.8-12.1s17.8,5.4,17.8,12.1v20.3H451z"/>
	<path class="st6" d="M651.9,670.8v-20.3c0-6.7,8-12.1,17.8-12.1s17.8,5.4,17.8,12.1v20.3H651.9z"/>
	
		<rect x="736.8" y="471.5" transform="matrix(0.3656 -0.9308 0.9308 0.3656 31.909 1015.4784)" class="st5" width="48.1" height="25.6"/>
	<polygon class="st4" points="714.1,574.4 761.8,593.2 791.1,512.7 743.3,494 	"/>
	<g>
		<path class="st4" d="M735.4,398.4c-11.3,28.6,2.8,61,31.5,72.2c28.6,11.3,61-2.8,72.2-31.5c11.2-28.6-2.8-61-31.5-72.2
			C779,355.7,746.6,369.8,735.4,398.4z"/>
		<path class="st7" d="M818.9,427.2c5.8-14.7,5.4-30.6,0-44.6c14.6,12.6,20.4,33.5,13,52.4c-8.5,21.5-31.2,33.3-53.1,28.6
			C796.5,458.4,811.7,445.4,818.9,427.2z"/>
		
			<rect x="760.8" y="435.1" transform="matrix(0.3656 -0.9308 0.9308 0.3656 51.9615 1011.4681)" class="st4" width="14.4" height="65"/>
	</g>
	<polygon class="st5" points="715.3,667.5 805.7,667.5 767.9,565.4 715.3,565.4 	"/>
	<path class="st8" d="M834,448.8c3.3,1.6,7.1,0.8,8.4-2l4.3-8.7c1.3-2.7-0.3-6.2-3.6-7.9l0,0c-3.3-1.6-7.1-0.8-8.4,2l-4.3,8.7
		C829.1,443.6,830.7,447.1,834,448.8L834,448.8z"/>
	<path class="st6" d="M763.5,667.9v-21.5c0-7.1,5.8-12.9,12.9-12.9c7.1,0,12.9,5.8,12.9,12.9v21.5H763.5z"/>
	<path class="st5" d="M720,578.5c-2.8,6.1,2.1,14.3,10.8,18.3l0,0c8.8,4,18.1,2.2,20.9-3.9l18.3-40.5c2.8-6.1-2.1-14.3-10.8-18.3
		l0,0c-8.8-4-18.1-2.2-20.9,3.9L720,578.5z"/>
	<g>
		<path class="st8" d="M55.8,709.6c-0.1,0.7-0.1,1.5,0,2.2l-0.6,1.1l1,0.2c2.7,6.9,15.9,13.9,32.5,16.7s31.4,0.4,36.1-5.3l1,0.2
			l120.5-152.5l-104.4-17.3l-92.6,93.8L55.8,709.6z M59.4,704.6l2-2.8l-1.3,2.4C59.9,704.2,59.6,704.4,59.4,704.6z"/>
		<polygon class="st9" points="164.1,560 55.8,709.6 49.3,648.6 140.7,556.1 		"/>
	</g>
	<polygon class="st5" points="190.2,675.9 441.1,675.9 192.7,482.4 190.2,462.2 	"/>
	<rect x="153.8" y="396.4" class="st6" width="53.9" height="102.8"/>
	<polygon class="st6" points="155.2,408.5 219.7,408.5 219.7,334 104.6,334 	"/>
	<path class="st6" d="M347,673.2v-18.6c0-6.2,5-11.2,11.2-11.2s11.2,5,11.2,11.2v18.6H347z"/>
	<path class="st6" d="M287.6,673.2v-18.6c0-6.2,5-11.2,11.2-11.2s11.2,5,11.2,11.2v18.6H287.6z"/>
	<path class="st6" d="M228.3,673.2v-18.6c0-6.2,5-11.2,11.2-11.2s11.2,5,11.2,11.2v18.6H228.3z"/>
	<path class="st4" d="M237.5,552.3c-2.9,6.5,2.2,15.1,11.4,19.3l0,0c9.2,4.2,19.1,2.3,22-4.2l19.3-42.7c2.9-6.5-2.2-15.1-11.4-19.2
		l0,0c-9.2-4.2-19.1-2.3-22,4.2L237.5,552.3z"/>
	<rect x="129.7" y="462.2" class="st5" width="62" height="160.2"/>
	<path class="st4" d="M97.8,459.5v7.2v49v193c0,0.3,0,0.6,0,0.8c0,0.1,0,0.2,0,0.4c0,3.4,1.8,6.3,4.2,6.8c0.3,0.1,0.5,0.1,0.8,0.1
		h76.1c0.3,0,0.5,0,0.8-0.1c2.4-0.5,4.2-3.3,4.2-6.8c0-0.1,0-0.2,0-0.4c0-0.3,0-0.6,0-0.8V531c0.4,0.1,0.7,0.1,1.1,0.1
		c6.1,0,11-6.9,11-15.3v-49c0-8.5-4.9-15.3-11-15.3c-1.3,0-2.6,0.3-3.8,0.9c-0.7-0.6-1.5-0.9-2.3-0.9c-2.7,0-5,3.6-5,8.1v7.2v49
		v15.3h-65.1h-1.1V531c0.4,0.1,0.7,0.1,1.1,0.1c6.1,0,11-6.9,11-15.3v-49c0-8.5-4.9-15.3-11-15.3c-1.3,0-2.6,0.3-3.8,0.9
		c-0.7-0.6-1.5-0.9-2.3-0.9C100.1,451.4,97.8,455.1,97.8,459.5z M174,645.7h-66.2v-43.5H174V645.7z M174,703.1h-66.2v-43.5H174
		V703.1z M174,544.9v43.5h-66.2v-43.5H174z"/>
	<g>
		<g>
			<g>
				<path class="st10" d="M107.9,666.2c-5.5,0-10.2,4.5-10.6,10.3l-0.7,11.6c-0.3,5.8,3.8,10.8,9.3,11.4L107.9,666.2z"/>
				<path class="st10" d="M109.5,638.4c-6.7-0.2-12.2,2.4-12.4,5.9l-0.4,7c-0.2,3.5,5,6.7,11.7,7.3L109.5,638.4z"/>
			</g>
			
				<rect x="71.5" y="659.3" transform="matrix(5.650797e-02 -0.9984 0.9984 5.650797e-02 -557.0115 733.6675)" class="st8" width="76.4" height="4.4"/>
		</g>
		<polygon class="st11" points="110.9,699.7 110.9,620.3 116.1,620.3 116.1,610 130.4,610 130.4,713.1 116.1,713.1 116.1,699.7 		
			"/>
		<path class="st12" d="M131.6,714.3v-22.8h33v19.2c0,2.3-0.9,4.6-2.5,6.3L148,732.3h-41.9v-18H131.6z"/>
		<g>
			<rect x="125" y="654.2" class="st12" width="10.5" height="48.6"/>
			<rect x="134" y="649.6" class="st12" width="10.5" height="53.1"/>
		</g>
	</g>
	<rect x="154.2" y="665.8" class="st13" width="967.1" height="76.1"/>
	<path class="st14" d="M485.4,751l0.8-1.1H499l0.7,1.1h62.9v-3.3h14.3v3.3H626l0.6-1.1h10l0.6,1.1h216.4c0.9-5,1-11.1-0.1-16.7
		l-2.2-10.7H395.2l1,27.4H485.4z"/>
	<g>
		<rect x="288.9" y="728.1" class="st15" width="45.3" height="8.8"/>
		<rect x="321.2" y="724.2" class="st15" width="8.7" height="7.8"/>
		<rect x="308.3" y="726.6" class="st15" width="8.7" height="7.8"/>
		<rect x="295.4" y="724.2" class="st15" width="8.7" height="7.8"/>
	</g>
	<g>
		<rect x="300.3" y="741" class="st15" width="25.2" height="2.9"/>
		<rect x="318.2" y="739.8" class="st15" width="4.9" height="2.6"/>
		<rect x="311" y="740.6" class="st15" width="4.9" height="2.6"/>
		<rect x="303.8" y="739.7" class="st15" width="4.9" height="2.6"/>
	</g>
	<g>
		<rect x="300.3" y="746.5" class="st15" width="25.2" height="6.6"/>
		<rect x="318.2" y="743.7" class="st15" width="4.9" height="5.8"/>
		<rect x="311" y="745.5" class="st15" width="4.9" height="5.8"/>
		<rect x="303.8" y="743.6" class="st15" width="4.9" height="5.8"/>
	</g>
	<g>
		<path class="st16" d="M461.7,762.1c0,38.7-31.4,70.1-70.1,70.1s-70.1-31.4-70.1-70.1c0-38.7,31.4-70.1,70.1-70.1
			C430.3,692.1,461.7,723.4,461.7,762.1z"/>
		<path d="M461.7,762.1c0,38.7-31.4,70.1-70.1,70.1s-70.1-31.4-70.1-70.1c0-38.7,31.4-70.1,70.1-70.1
			C430.3,692.1,461.7,723.4,461.7,762.1z"/>
		
			<radialGradient id="SVGID_3_" cx="3635.5798" cy="437.9" r="60.1" gradientTransform="matrix(-1 0 0 -1 4027.1799 1200)" gradientUnits="userSpaceOnUse">
			<stop  offset="0" style="stop-color:#231F20"/>
			<stop  offset="0.413" style="stop-color:#252122"/>
			<stop  offset="0.5618" style="stop-color:#2B2729"/>
			<stop  offset="0.6675" style="stop-color:#353334"/>
			<stop  offset="0.7394" style="stop-color:#414042"/>
			<stop  offset="0.7653" style="stop-color:#4D4D4F"/>
			<stop  offset="0.7985" style="stop-color:#555658"/>
			<stop  offset="0.8485" style="stop-color:#58595B"/>
			<stop  offset="0.9212" style="stop-color:#414042"/>
		</radialGradient>
		<path class="st17" d="M451.7,762.1c0,33.2-26.9,60.1-60.1,60.1s-60.1-26.9-60.1-60.1c0-33.2,26.9-60.1,60.1-60.1
			S451.7,728.9,451.7,762.1z"/>
		<path class="st15" d="M443.2,762.1c0,28.5-23.1,51.6-51.6,51.6S340,790.6,340,762.1s23.1-51.6,51.6-51.6
			C420.1,710.6,443.2,733.7,443.2,762.1z"/>
		<path class="st18" d="M443.2,762.1c0,28.5-23.1,51.6-51.6,51.6S340,790.6,340,762.1s23.1-51.6,51.6-51.6
			C420.1,710.6,443.2,733.7,443.2,762.1z"/>
		<path class="st19" d="M428.1,762.1c0,20.1-16.3,36.4-36.4,36.4s-36.4-16.3-36.4-36.4c0-20.1,16.3-36.4,36.4-36.4
			C411.7,725.7,428.1,742,428.1,762.1z"/>
		<g>
			<g>
				
					<linearGradient id="SVGID_4_" gradientUnits="userSpaceOnUse" x1="3610.28" y1="437.4" x2="3660.8799" y2="437.4" gradientTransform="matrix(-1 0 0 -1 4027.1799 1200)">
					<stop  offset="3.030300e-02" style="stop-color:#6D6E71"/>
					<stop  offset="0.2485" style="stop-color:#BCBEC0"/>
					<stop  offset="0.5212" style="stop-color:#D1D3D4"/>
					<stop  offset="0.6909" style="stop-color:#BCBEC0"/>
					<stop  offset="0.9758" style="stop-color:#58595B"/>
				</linearGradient>
				<path class="st20" d="M416.9,762.6c0,14-11.3,25.3-25.3,25.3s-25.3-11.3-25.3-25.3s11.3-25.3,25.3-25.3S416.9,748.6,416.9,762.6
					z"/>
			</g>
			<g>
				
					<linearGradient id="SVGID_5_" gradientUnits="userSpaceOnUse" x1="3604.5798" y1="454.4" x2="3625.5798" y2="454.4" gradientTransform="matrix(-1 0 0 -1 4027.1799 1200)">
					<stop  offset="3.030300e-02" style="stop-color:#6D6E71"/>
					<stop  offset="0.2485" style="stop-color:#BCBEC0"/>
					<stop  offset="0.5212" style="stop-color:#D1D3D4"/>
					<stop  offset="0.6909" style="stop-color:#BCBEC0"/>
					<stop  offset="0.9758" style="stop-color:#58595B"/>
				</linearGradient>
				<path class="st21" d="M401.6,750l11.4-14.4c4,3.2,7.4,7.3,9.6,11.9l-16.5,8.1C405,753.4,403.5,751.4,401.6,750z"/>
				
					<linearGradient id="SVGID_6_" gradientUnits="userSpaceOnUse" x1="3614.0798" y1="414.3" x2="3631.98" y2="414.3" gradientTransform="matrix(-1 0 0 -1 4027.1799 1200)">
					<stop  offset="3.030300e-02" style="stop-color:#6D6E71"/>
					<stop  offset="0.2485" style="stop-color:#BCBEC0"/>
					<stop  offset="0.5212" style="stop-color:#D1D3D4"/>
					<stop  offset="0.6909" style="stop-color:#BCBEC0"/>
					<stop  offset="0.9758" style="stop-color:#58595B"/>
				</linearGradient>
				<path class="st22" d="M413.1,789.5c-4,3.2-8.8,5.5-13.8,6.7l-4.1-17.9c2.3-0.5,4.6-1.6,6.4-3.1L413.1,789.5z"/>
				
					<linearGradient id="SVGID_7_" gradientUnits="userSpaceOnUse" x1="3645.6411" y1="454.35" x2="3666.6648" y2="454.35" gradientTransform="matrix(-1 0 0 -1 4027.1799 1200)">
					<stop  offset="3.030300e-02" style="stop-color:#6D6E71"/>
					<stop  offset="0.2485" style="stop-color:#BCBEC0"/>
					<stop  offset="0.5212" style="stop-color:#D1D3D4"/>
					<stop  offset="0.6909" style="stop-color:#BCBEC0"/>
					<stop  offset="0.9758" style="stop-color:#58595B"/>
				</linearGradient>
				<path class="st23" d="M377.1,755.6l-16.6-7.9c2.2-4.6,5.5-8.8,9.5-12l11.5,14.3C379.7,751.5,378.1,753.4,377.1,755.6z"/>
				
					<linearGradient id="SVGID_8_" gradientUnits="userSpaceOnUse" x1="3601.0798" y1="429.95" x2="3621.0337" y2="429.95" gradientTransform="matrix(-1 0 0 -1 4027.1799 1200)">
					<stop  offset="3.030300e-02" style="stop-color:#6D6E71"/>
					<stop  offset="0.2485" style="stop-color:#BCBEC0"/>
					<stop  offset="0.5212" style="stop-color:#D1D3D4"/>
					<stop  offset="0.6909" style="stop-color:#BCBEC0"/>
					<stop  offset="0.9758" style="stop-color:#58595B"/>
				</linearGradient>
				<path class="st24" d="M407.7,762.6L407.7,762.6l18.4-0.1v0.1c0,5.2-1.2,10.3-3.4,15l-16.5-8C407.2,767.4,407.7,765,407.7,762.6z
					"/>
				
					<linearGradient id="SVGID_9_" gradientUnits="userSpaceOnUse" x1="3650.0798" y1="429.9" x2="3670.0408" y2="429.9" gradientTransform="matrix(-1 0 0 -1 4027.1799 1200)">
					<stop  offset="3.030300e-02" style="stop-color:#6D6E71"/>
					<stop  offset="0.2485" style="stop-color:#BCBEC0"/>
					<stop  offset="0.5212" style="stop-color:#D1D3D4"/>
					<stop  offset="0.6909" style="stop-color:#BCBEC0"/>
					<stop  offset="0.9758" style="stop-color:#58595B"/>
				</linearGradient>
				<path class="st25" d="M375.5,762.6c0,2.4,0.6,4.8,1.6,7l-16.5,8c-2.3-4.7-3.4-9.7-3.4-14.9L375.5,762.6z"/>
				
					<linearGradient id="SVGID_10_" gradientUnits="userSpaceOnUse" x1="3628.0164" y1="462.5564" x2="3643.3164" y2="462.5564" gradientTransform="matrix(-1 0 0 -1 4027.1799 1200)">
					<stop  offset="3.030300e-02" style="stop-color:#6D6E71"/>
					<stop  offset="0.2485" style="stop-color:#BCBEC0"/>
					<stop  offset="0.5212" style="stop-color:#D1D3D4"/>
					<stop  offset="0.6909" style="stop-color:#BCBEC0"/>
					<stop  offset="0.9758" style="stop-color:#58595B"/>
				</linearGradient>
				<path class="st26" d="M383.8,729c5-1.2,10.3-1.2,15.3-0.1l-4,17.9c-2.3-0.5-4.8-0.5-7.2,0L383.8,729z"/>
				
					<linearGradient id="SVGID_11_" gradientUnits="userSpaceOnUse" x1="3639.1394" y1="414.3" x2="3657.0393" y2="414.3" gradientTransform="matrix(-1 0 0 -1 4027.1799 1200)">
					<stop  offset="3.030300e-02" style="stop-color:#6D6E71"/>
					<stop  offset="0.2485" style="stop-color:#BCBEC0"/>
					<stop  offset="0.5212" style="stop-color:#D1D3D4"/>
					<stop  offset="0.6909" style="stop-color:#BCBEC0"/>
					<stop  offset="0.9758" style="stop-color:#58595B"/>
				</linearGradient>
				<path class="st27" d="M388,778.3l-4.1,17.9c-5-1.1-9.8-3.4-13.8-6.6l11.4-14.4C383.5,776.7,385.7,777.7,388,778.3z"/>
			</g>
		</g>
	</g>
	<g>
		<path class="st16" d="M304.4,762.1c0,38.7-31.4,70.1-70.1,70.1s-70.1-31.4-70.1-70.1c0-38.7,31.4-70.1,70.1-70.1
			C273,692.1,304.4,723.4,304.4,762.1z"/>
		<path d="M304.4,762.1c0,38.7-31.4,70.1-70.1,70.1s-70.1-31.4-70.1-70.1c0-38.7,31.4-70.1,70.1-70.1
			C273,692.1,304.4,723.4,304.4,762.1z"/>
		
			<radialGradient id="SVGID_12_" cx="3792.78" cy="437.9" r="60.1" gradientTransform="matrix(-1 0 0 -1 4027.1799 1200)" gradientUnits="userSpaceOnUse">
			<stop  offset="0" style="stop-color:#231F20"/>
			<stop  offset="0.413" style="stop-color:#252122"/>
			<stop  offset="0.5618" style="stop-color:#2B2729"/>
			<stop  offset="0.6675" style="stop-color:#353334"/>
			<stop  offset="0.7394" style="stop-color:#414042"/>
			<stop  offset="0.7653" style="stop-color:#4D4D4F"/>
			<stop  offset="0.7985" style="stop-color:#555658"/>
			<stop  offset="0.8485" style="stop-color:#58595B"/>
			<stop  offset="0.9212" style="stop-color:#414042"/>
		</radialGradient>
		<path class="st28" d="M294.5,762.1c0,33.2-26.9,60.1-60.1,60.1s-60.1-26.9-60.1-60.1c0-33.2,26.9-60.1,60.1-60.1
			C267.5,702,294.5,728.9,294.5,762.1z"/>
		<path class="st15" d="M285.9,762.1c0,28.5-23.1,51.6-51.6,51.6s-51.6-23.1-51.6-51.6s23.1-51.6,51.6-51.6
			C262.8,710.6,285.9,733.7,285.9,762.1z"/>
		<path class="st18" d="M285.9,762.1c0,28.5-23.1,51.6-51.6,51.6s-51.6-23.1-51.6-51.6s23.1-51.6,51.6-51.6
			C262.8,710.6,285.9,733.7,285.9,762.1z"/>
		<path class="st19" d="M270.8,762.1c0,20.1-16.3,36.4-36.4,36.4S198,782.2,198,762.1c0-20.1,16.3-36.4,36.4-36.4
			C254.5,725.7,270.8,742,270.8,762.1z"/>
		<g>
			<g>
				
					<linearGradient id="SVGID_13_" gradientUnits="userSpaceOnUse" x1="3767.5798" y1="437.4" x2="3818.1799" y2="437.4" gradientTransform="matrix(-1 0 0 -1 4027.1799 1200)">
					<stop  offset="3.030300e-02" style="stop-color:#6D6E71"/>
					<stop  offset="0.2485" style="stop-color:#BCBEC0"/>
					<stop  offset="0.5212" style="stop-color:#D1D3D4"/>
					<stop  offset="0.6909" style="stop-color:#BCBEC0"/>
					<stop  offset="0.9758" style="stop-color:#58595B"/>
				</linearGradient>
				<path class="st29" d="M259.6,762.6c0,14-11.3,25.3-25.3,25.3S209,776.6,209,762.6s11.3-25.3,25.3-25.3S259.6,748.6,259.6,762.6z
					"/>
			</g>
			<g>
				
					<linearGradient id="SVGID_14_" gradientUnits="userSpaceOnUse" x1="3761.8513" y1="454.4" x2="3782.8513" y2="454.4" gradientTransform="matrix(-1 0 0 -1 4027.1799 1200)">
					<stop  offset="3.030300e-02" style="stop-color:#6D6E71"/>
					<stop  offset="0.2485" style="stop-color:#BCBEC0"/>
					<stop  offset="0.5212" style="stop-color:#D1D3D4"/>
					<stop  offset="0.6909" style="stop-color:#BCBEC0"/>
					<stop  offset="0.9758" style="stop-color:#58595B"/>
				</linearGradient>
				<path class="st30" d="M244.3,750l11.4-14.4c4,3.2,7.4,7.3,9.6,11.9l-16.5,8.1C247.8,753.4,246.2,751.4,244.3,750z"/>
				
					<linearGradient id="SVGID_15_" gradientUnits="userSpaceOnUse" x1="3771.3562" y1="414.3" x2="3789.2561" y2="414.3" gradientTransform="matrix(-1 0 0 -1 4027.1799 1200)">
					<stop  offset="3.030300e-02" style="stop-color:#6D6E71"/>
					<stop  offset="0.2485" style="stop-color:#BCBEC0"/>
					<stop  offset="0.5212" style="stop-color:#D1D3D4"/>
					<stop  offset="0.6909" style="stop-color:#BCBEC0"/>
					<stop  offset="0.9758" style="stop-color:#58595B"/>
				</linearGradient>
				<path class="st31" d="M255.8,789.5c-4,3.2-8.8,5.5-13.8,6.7l-4.1-17.9c2.3-0.5,4.6-1.6,6.4-3.1L255.8,789.5z"/>
				
					<linearGradient id="SVGID_16_" gradientUnits="userSpaceOnUse" x1="3802.9272" y1="454.35" x2="3823.9512" y2="454.35" gradientTransform="matrix(-1 0 0 -1 4027.1799 1200)">
					<stop  offset="3.030300e-02" style="stop-color:#6D6E71"/>
					<stop  offset="0.2485" style="stop-color:#BCBEC0"/>
					<stop  offset="0.5212" style="stop-color:#D1D3D4"/>
					<stop  offset="0.6909" style="stop-color:#BCBEC0"/>
					<stop  offset="0.9758" style="stop-color:#58595B"/>
				</linearGradient>
				<path class="st32" d="M219.8,755.6l-16.6-7.9c2.2-4.6,5.5-8.8,9.5-12l11.5,14.3C222.4,751.5,220.8,753.4,219.8,755.6z"/>
				
					<linearGradient id="SVGID_17_" gradientUnits="userSpaceOnUse" x1="3758.3799" y1="429.95" x2="3778.3337" y2="429.95" gradientTransform="matrix(-1 0 0 -1 4027.1799 1200)">
					<stop  offset="3.030300e-02" style="stop-color:#6D6E71"/>
					<stop  offset="0.2485" style="stop-color:#BCBEC0"/>
					<stop  offset="0.5212" style="stop-color:#D1D3D4"/>
					<stop  offset="0.6909" style="stop-color:#BCBEC0"/>
					<stop  offset="0.9758" style="stop-color:#58595B"/>
				</linearGradient>
				<path class="st33" d="M250.4,762.6L250.4,762.6l18.4-0.1v0.1c0,5.2-1.2,10.3-3.4,15l-16.5-8C249.9,767.4,250.4,765,250.4,762.6z
					"/>
				
					<linearGradient id="SVGID_18_" gradientUnits="userSpaceOnUse" x1="3807.3799" y1="429.9" x2="3827.3406" y2="429.9" gradientTransform="matrix(-1 0 0 -1 4027.1799 1200)">
					<stop  offset="3.030300e-02" style="stop-color:#6D6E71"/>
					<stop  offset="0.2485" style="stop-color:#BCBEC0"/>
					<stop  offset="0.5212" style="stop-color:#D1D3D4"/>
					<stop  offset="0.6909" style="stop-color:#BCBEC0"/>
					<stop  offset="0.9758" style="stop-color:#58595B"/>
				</linearGradient>
				<path class="st34" d="M218.2,762.6c0,2.4,0.6,4.8,1.6,7l-16.5,8c-2.3-4.7-3.4-9.7-3.4-14.9L218.2,762.6z"/>
				
					<linearGradient id="SVGID_19_" gradientUnits="userSpaceOnUse" x1="3785.3027" y1="462.5564" x2="3800.6028" y2="462.5564" gradientTransform="matrix(-1 0 0 -1 4027.1799 1200)">
					<stop  offset="3.030300e-02" style="stop-color:#6D6E71"/>
					<stop  offset="0.2485" style="stop-color:#BCBEC0"/>
					<stop  offset="0.5212" style="stop-color:#D1D3D4"/>
					<stop  offset="0.6909" style="stop-color:#BCBEC0"/>
					<stop  offset="0.9758" style="stop-color:#58595B"/>
				</linearGradient>
				<path class="st35" d="M226.6,729c5-1.2,10.3-1.2,15.3-0.1l-4,17.9c-2.3-0.5-4.8-0.5-7.2,0L226.6,729z"/>
				
					<linearGradient id="SVGID_20_" gradientUnits="userSpaceOnUse" x1="3796.4258" y1="414.3" x2="3814.3257" y2="414.3" gradientTransform="matrix(-1 0 0 -1 4027.1799 1200)">
					<stop  offset="3.030300e-02" style="stop-color:#6D6E71"/>
					<stop  offset="0.2485" style="stop-color:#BCBEC0"/>
					<stop  offset="0.5212" style="stop-color:#D1D3D4"/>
					<stop  offset="0.6909" style="stop-color:#BCBEC0"/>
					<stop  offset="0.9758" style="stop-color:#58595B"/>
				</linearGradient>
				<path class="st36" d="M230.8,778.3l-4.1,17.9c-5-1.1-9.8-3.4-13.8-6.6l11.4-14.4C226.2,776.7,228.4,777.7,230.8,778.3z"/>
			</g>
		</g>
	</g>
	<g>
		<rect x="651.9" y="746.8" class="st15" width="203.5" height="8.7"/>
		<rect x="651.8" y="754.4" class="st13" width="222.7" height="8.7"/>
	</g>
	<g>
		<g>
			<g>
				<path d="M695.3,687.1c1.4,0,2.6,1.2,2.6,2.6c0,1.4-1.2,2.6-2.6,2.6c-1.4,0-2.6-1.2-2.6-2.6S693.9,687.1,695.3,687.1z"/>
				<path d="M695.3,687.1c1.4,0,2.6,1.2,2.6,2.6c0,1.4-1.2,2.6-2.6,2.6c-1.4,0-2.6-1.2-2.6-2.6S693.9,687.1,695.3,687.1z"/>
				<g>
					<path d="M695.3,687.9c1,0,1.8,0.8,1.8,1.9c0,1-0.8,1.8-1.9,1.8c-1,0-1.8-0.8-1.8-1.9C693.5,688.7,694.3,687.9,695.3,687.9z"/>
					<path d="M695.3,691.6c-1,0-1.8-0.9-1.8-1.9s0.9-1.8,1.9-1.8s1.8,0.9,1.8,1.9C697.1,690.8,696.3,691.6,695.3,691.6z
						 M695.3,691.5c1,0,1.8-0.8,1.8-1.8s-0.8-1.8-1.8-1.8s-1.8,0.8-1.8,1.8S694.3,691.5,695.3,691.5z"/>
				</g>
				<g>
					<g>
						<path d="M695.3,688.3c0.8,0,1.4,0.6,1.4,1.4c0,0.8-0.6,1.4-1.4,1.4c-0.8,0-1.4-0.6-1.4-1.4
							C693.9,688.9,694.6,688.3,695.3,688.3z"/>
						<path d="M695.3,691.2c-0.8,0-1.5-0.7-1.5-1.5s0.7-1.5,1.5-1.5s1.5,0.7,1.5,1.5C696.8,690.6,696.1,691.2,695.3,691.2z
							 M695.3,691c0.7,0,1.3-0.6,1.3-1.3s-0.6-1.3-1.3-1.3s-1.3,0.6-1.3,1.3S694.6,691,695.3,691z"/>
					</g>
				</g>
			</g>
			<g>
				<path d="M721.4,687.4c1.4,0,2.6,1.2,2.6,2.6c0,1.4-1.2,2.6-2.6,2.6c-1.4,0-2.6-1.2-2.6-2.6C718.8,688.5,720,687.4,721.4,687.4z"
					/>
				<path d="M721.4,687.4c1.4,0,2.6,1.2,2.6,2.6c0,1.4-1.2,2.6-2.6,2.6c-1.4,0-2.6-1.2-2.6-2.6C718.8,688.5,720,687.4,721.4,687.4z"
					/>
				<g>
					<path d="M721.4,688.2c1,0,1.8,0.8,1.8,1.9c0,1-0.8,1.8-1.9,1.8c-1,0-1.8-0.8-1.8-1.9C719.6,689,720.4,688.2,721.4,688.2z"/>
					<path d="M721.4,691.9c-1,0-1.8-0.9-1.8-1.9s0.9-1.8,1.9-1.8s1.8,0.9,1.8,1.9C723.2,691,722.4,691.9,721.4,691.9z M721.4,691.8
						c1,0,1.8-0.8,1.8-1.8s-0.8-1.8-1.8-1.8s-1.8,0.8-1.8,1.8C719.6,691,720.4,691.8,721.4,691.8z"/>
				</g>
				<g>
					<g>
						<path d="M721.4,688.6c0.8,0,1.4,0.6,1.4,1.4c0,0.8-0.6,1.4-1.4,1.4c-0.8,0-1.4-0.6-1.4-1.4C720,689.2,720.6,688.6,721.4,688.6
							z"/>
						<path d="M721.4,691.5c-0.8,0-1.5-0.7-1.5-1.5s0.7-1.5,1.5-1.5s1.5,0.7,1.5,1.5C722.9,690.9,722.2,691.5,721.4,691.5z
							 M721.4,691.3c0.7,0,1.3-0.6,1.3-1.3s-0.6-1.3-1.3-1.3s-1.3,0.6-1.3,1.3C720.1,690.7,720.7,691.3,721.4,691.3z"/>
					</g>
				</g>
			</g>
		</g>
		<g>
			<g>
				<path d="M695.3,708.6c1.4,0,2.6,1.2,2.6,2.6c0,1.4-1.2,2.6-2.6,2.6c-1.4,0-2.6-1.2-2.6-2.6C692.7,709.7,693.9,708.6,695.3,708.6
					z"/>
				<path d="M695.3,708.6c1.4,0,2.6,1.2,2.6,2.6c0,1.4-1.2,2.6-2.6,2.6c-1.4,0-2.6-1.2-2.6-2.6C692.7,709.7,693.9,708.6,695.3,708.6
					z"/>
				<g>
					<path d="M695.3,709.3c1,0,1.8,0.8,1.8,1.9c0,1-0.8,1.8-1.9,1.8c-1,0-1.8-0.8-1.8-1.9C693.5,710.1,694.3,709.3,695.3,709.3z"/>
					<path d="M695.3,713c-1,0-1.8-0.9-1.8-1.9s0.9-1.8,1.9-1.8s1.8,0.9,1.8,1.9C697.1,712.2,696.3,713,695.3,713z M695.3,713
						c1,0,1.8-0.8,1.8-1.8s-0.8-1.8-1.8-1.8s-1.8,0.8-1.8,1.8S694.3,713,695.3,713z"/>
				</g>
				<g>
					<g>
						<path d="M695.3,709.8c0.8,0,1.4,0.6,1.4,1.4c0,0.8-0.6,1.4-1.4,1.4c-0.8,0-1.4-0.6-1.4-1.4
							C693.9,710.4,694.6,709.8,695.3,709.8z"/>
						<path d="M695.3,712.7c-0.8,0-1.5-0.7-1.5-1.5s0.7-1.5,1.5-1.5s1.5,0.7,1.5,1.5S696.1,712.7,695.3,712.7z M695.3,712.5
							c0.7,0,1.3-0.6,1.3-1.3s-0.6-1.3-1.3-1.3s-1.3,0.6-1.3,1.3S694.6,712.5,695.3,712.5z"/>
					</g>
				</g>
			</g>
			<g>
				<path d="M721.4,708.9c1.4,0,2.6,1.2,2.6,2.6c0,1.4-1.2,2.6-2.6,2.6c-1.4,0-2.6-1.2-2.6-2.6C718.8,710,720,708.9,721.4,708.9z"/>
				<path d="M721.4,708.9c1.4,0,2.6,1.2,2.6,2.6c0,1.4-1.2,2.6-2.6,2.6c-1.4,0-2.6-1.2-2.6-2.6C718.8,710,720,708.9,721.4,708.9z"/>
				<g>
					<path d="M721.4,709.6c1,0,1.8,0.8,1.8,1.9c0,1-0.8,1.8-1.9,1.8c-1,0-1.8-0.8-1.8-1.9C719.6,710.4,720.4,709.6,721.4,709.6z"/>
					<path d="M721.4,713.3c-1,0-1.8-0.9-1.8-1.9s0.9-1.8,1.9-1.8s1.8,0.9,1.8,1.9C723.2,712.5,722.4,713.3,721.4,713.3z
						 M721.4,713.3c1,0,1.8-0.8,1.8-1.8s-0.8-1.8-1.8-1.8s-1.8,0.8-1.8,1.8C719.6,712.4,720.4,713.3,721.4,713.3z"/>
				</g>
				<g>
					<g>
						<path d="M721.4,710c0.8,0,1.4,0.6,1.4,1.4c0,0.8-0.6,1.4-1.4,1.4c-0.8,0-1.4-0.6-1.4-1.4C720,710.7,720.6,710,721.4,710z"/>
						<path d="M721.4,713c-0.8,0-1.5-0.7-1.5-1.5s0.7-1.5,1.5-1.5s1.5,0.7,1.5,1.5S722.2,713,721.4,713z M721.4,712.8
							c0.7,0,1.3-0.6,1.3-1.3s-0.6-1.3-1.3-1.3s-1.3,0.6-1.3,1.3C720.1,712.2,720.7,712.8,721.4,712.8z"/>
					</g>
				</g>
			</g>
		</g>
	</g>
	<g>
		<g>
			<g>
				<path d="M585.6,687.1c1.4,0,2.6,1.2,2.6,2.6c0,1.4-1.2,2.6-2.6,2.6c-1.4,0-2.6-1.2-2.6-2.6S584.1,687.1,585.6,687.1z"/>
				<path d="M585.6,687.1c1.4,0,2.6,1.2,2.6,2.6c0,1.4-1.2,2.6-2.6,2.6c-1.4,0-2.6-1.2-2.6-2.6S584.1,687.1,585.6,687.1z"/>
				<g>
					<path d="M585.6,687.9c1,0,1.8,0.8,1.8,1.9c0,1-0.8,1.8-1.9,1.8c-1,0-1.8-0.8-1.8-1.9C583.7,688.7,584.6,687.9,585.6,687.9z"/>
					<path d="M585.5,691.6c-1,0-1.8-0.9-1.8-1.9s0.9-1.8,1.9-1.8s1.8,0.9,1.8,1.9S586.5,691.6,585.5,691.6z M585.5,691.5
						c1,0,1.8-0.8,1.8-1.8s-0.8-1.8-1.8-1.8s-1.8,0.8-1.8,1.8S584.5,691.5,585.5,691.5z"/>
				</g>
				<g>
					<g>
						<path d="M585.6,688.3c0.8,0,1.4,0.6,1.4,1.4c0,0.8-0.6,1.4-1.4,1.4c-0.8,0-1.4-0.6-1.4-1.4
							C584.2,688.9,584.8,688.3,585.6,688.3z"/>
						<path d="M585.5,691.2c-0.8,0-1.5-0.7-1.5-1.5s0.7-1.5,1.5-1.5s1.5,0.7,1.5,1.5C587.1,690.6,586.4,691.2,585.5,691.2z
							 M585.6,691c0.7,0,1.3-0.6,1.3-1.3s-0.6-1.3-1.3-1.3s-1.3,0.6-1.3,1.3C584.2,690.4,584.8,691,585.6,691z"/>
					</g>
				</g>
			</g>
			<g>
				<path d="M611.6,687.4c1.4,0,2.6,1.2,2.6,2.6c0,1.4-1.2,2.6-2.6,2.6c-1.4,0-2.6-1.2-2.6-2.6C609,688.5,610.2,687.4,611.6,687.4z"
					/>
				<path d="M611.6,687.4c1.4,0,2.6,1.2,2.6,2.6c0,1.4-1.2,2.6-2.6,2.6c-1.4,0-2.6-1.2-2.6-2.6C609,688.5,610.2,687.4,611.6,687.4z"
					/>
				<g>
					<path d="M611.6,688.2c1,0,1.8,0.8,1.8,1.9c0,1-0.8,1.8-1.9,1.8c-1,0-1.8-0.8-1.8-1.9C609.8,689,610.6,688.2,611.6,688.2z"/>
					<path d="M611.6,691.9c-1,0-1.8-0.9-1.8-1.9s0.9-1.8,1.9-1.8s1.8,0.9,1.8,1.9C613.5,691,612.6,691.9,611.6,691.9z M611.6,691.8
						c1,0,1.8-0.8,1.8-1.8s-0.8-1.8-1.8-1.8s-1.8,0.8-1.8,1.8S610.6,691.8,611.6,691.8z"/>
				</g>
				<g>
					<g>
						<path d="M611.6,688.6c0.8,0,1.4,0.6,1.4,1.4c0,0.8-0.6,1.4-1.4,1.4c-0.8,0-1.4-0.6-1.4-1.4
							C610.2,689.2,610.9,688.6,611.6,688.6z"/>
						<path d="M611.6,691.5c-0.8,0-1.5-0.7-1.5-1.5s0.7-1.5,1.5-1.5s1.5,0.7,1.5,1.5C613.1,690.9,612.5,691.5,611.6,691.5z
							 M611.6,691.3c0.7,0,1.3-0.6,1.3-1.3s-0.6-1.3-1.3-1.3s-1.3,0.6-1.3,1.3S610.9,691.3,611.6,691.3z"/>
					</g>
				</g>
			</g>
		</g>
		<g>
			<g>
				<path d="M585.6,708.6c1.4,0,2.6,1.2,2.6,2.6c0,1.4-1.2,2.6-2.6,2.6c-1.4,0-2.6-1.2-2.6-2.6C583,709.7,584.1,708.6,585.6,708.6z"
					/>
				<path d="M585.6,708.6c1.4,0,2.6,1.2,2.6,2.6c0,1.4-1.2,2.6-2.6,2.6c-1.4,0-2.6-1.2-2.6-2.6C583,709.7,584.1,708.6,585.6,708.6z"
					/>
				<g>
					<path d="M585.6,709.3c1,0,1.8,0.8,1.8,1.9c0,1-0.8,1.8-1.9,1.8c-1,0-1.8-0.8-1.8-1.9C583.7,710.1,584.6,709.3,585.6,709.3z"/>
					<path d="M585.5,713c-1,0-1.8-0.9-1.8-1.9s0.9-1.8,1.9-1.8s1.8,0.9,1.8,1.9S586.5,713,585.5,713z M585.5,713
						c1,0,1.8-0.8,1.8-1.8s-0.8-1.8-1.8-1.8s-1.8,0.8-1.8,1.8S584.5,713,585.5,713z"/>
				</g>
				<g>
					<g>
						<path d="M585.6,709.8c0.8,0,1.4,0.6,1.4,1.4c0,0.8-0.6,1.4-1.4,1.4c-0.8,0-1.4-0.6-1.4-1.4
							C584.2,710.4,584.8,709.8,585.6,709.8z"/>
						<path d="M585.5,712.7c-0.8,0-1.5-0.7-1.5-1.5s0.7-1.5,1.5-1.5s1.5,0.7,1.5,1.5C587.1,712,586.4,712.7,585.5,712.7z
							 M585.6,712.5c0.7,0,1.3-0.6,1.3-1.3s-0.6-1.3-1.3-1.3s-1.3,0.6-1.3,1.3C584.2,711.9,584.8,712.5,585.6,712.5z"/>
					</g>
				</g>
			</g>
			<g>
				<path d="M611.6,708.9c1.4,0,2.6,1.2,2.6,2.6c0,1.4-1.2,2.6-2.6,2.6c-1.4,0-2.6-1.2-2.6-2.6C609,710,610.2,708.9,611.6,708.9z"/>
				<path d="M611.6,708.9c1.4,0,2.6,1.2,2.6,2.6c0,1.4-1.2,2.6-2.6,2.6c-1.4,0-2.6-1.2-2.6-2.6C609,710,610.2,708.9,611.6,708.9z"/>
				<g>
					<path d="M611.6,709.6c1,0,1.8,0.8,1.8,1.9c0,1-0.8,1.8-1.9,1.8c-1,0-1.8-0.8-1.8-1.9C609.8,710.4,610.6,709.6,611.6,709.6z"/>
					<path d="M611.6,713.3c-1,0-1.8-0.9-1.8-1.9s0.9-1.8,1.9-1.8s1.8,0.9,1.8,1.9S612.6,713.3,611.6,713.3z M611.6,713.3
						c1,0,1.8-0.8,1.8-1.8s-0.8-1.8-1.8-1.8s-1.8,0.8-1.8,1.8C609.8,712.4,610.6,713.3,611.6,713.3z"/>
				</g>
				<g>
					<g>
						<path d="M611.6,710c0.8,0,1.4,0.6,1.4,1.4c0,0.8-0.6,1.4-1.4,1.4c-0.8,0-1.4-0.6-1.4-1.4C610.2,710.7,610.9,710,611.6,710z"/>
						<path d="M611.6,713c-0.8,0-1.5-0.7-1.5-1.5s0.7-1.5,1.5-1.5s1.5,0.7,1.5,1.5S612.5,713,611.6,713z M611.6,712.8
							c0.7,0,1.3-0.6,1.3-1.3s-0.6-1.3-1.3-1.3s-1.3,0.6-1.3,1.3S610.9,712.8,611.6,712.8z"/>
					</g>
				</g>
			</g>
		</g>
	</g>
	<g>
		<g>
			<g>
				<path d="M475.8,687.1c1.4,0,2.6,1.2,2.6,2.6c0,1.4-1.2,2.6-2.6,2.6s-2.6-1.2-2.6-2.6C473.2,688.3,474.4,687.1,475.8,687.1z"/>
				<path d="M475.8,687.1c1.4,0,2.6,1.2,2.6,2.6c0,1.4-1.2,2.6-2.6,2.6s-2.6-1.2-2.6-2.6C473.2,688.3,474.4,687.1,475.8,687.1z"/>
				<g>
					<path d="M475.8,687.9c1,0,1.8,0.8,1.8,1.9c0,1-0.8,1.8-1.9,1.8c-1,0-1.8-0.8-1.8-1.9C474,688.7,474.8,687.9,475.8,687.9z"/>
					<path d="M475.8,691.6c-1,0-1.8-0.9-1.8-1.9s0.9-1.8,1.9-1.8s1.8,0.9,1.8,1.9C477.6,690.8,476.8,691.6,475.8,691.6z
						 M475.8,691.5c1,0,1.8-0.8,1.8-1.8s-0.8-1.8-1.8-1.8s-1.8,0.8-1.8,1.8S474.8,691.5,475.8,691.5z"/>
				</g>
				<g>
					<g>
						<path d="M475.8,688.3c0.8,0,1.4,0.6,1.4,1.4c0,0.8-0.6,1.4-1.4,1.4s-1.4-0.6-1.4-1.4C474.4,688.9,475,688.3,475.8,688.3z"/>
						<path d="M475.8,691.2c-0.8,0-1.5-0.7-1.5-1.5s0.7-1.5,1.5-1.5s1.5,0.7,1.5,1.5C477.3,690.6,476.6,691.2,475.8,691.2z
							 M475.8,691c0.7,0,1.3-0.6,1.3-1.3s-0.6-1.3-1.3-1.3c-0.7,0-1.3,0.6-1.3,1.3S475.1,691,475.8,691z"/>
					</g>
				</g>
			</g>
			<g>
				<path d="M501.9,687.4c1.4,0,2.6,1.2,2.6,2.6c0,1.4-1.2,2.6-2.6,2.6s-2.6-1.2-2.6-2.6C499.3,688.5,500.4,687.4,501.9,687.4z"/>
				<path d="M501.9,687.4c1.4,0,2.6,1.2,2.6,2.6c0,1.4-1.2,2.6-2.6,2.6s-2.6-1.2-2.6-2.6C499.3,688.5,500.4,687.4,501.9,687.4z"/>
				<g>
					<path d="M501.9,688.2c1,0,1.8,0.8,1.8,1.9c0,1-0.8,1.8-1.9,1.8c-1,0-1.8-0.8-1.8-1.9C500,689,500.9,688.2,501.9,688.2z"/>
					<path d="M501.8,691.9c-1,0-1.8-0.9-1.8-1.9s0.9-1.8,1.9-1.8s1.8,0.9,1.8,1.9C503.7,691,502.9,691.9,501.8,691.9z M501.8,691.8
						c1,0,1.8-0.8,1.8-1.8s-0.8-1.8-1.8-1.8S500,689,500,690S500.8,691.8,501.8,691.8z"/>
				</g>
				<g>
					<g>
						<path d="M501.9,688.6c0.8,0,1.4,0.6,1.4,1.4c0,0.8-0.6,1.4-1.4,1.4s-1.4-0.6-1.4-1.4C500.5,689.2,501.1,688.6,501.9,688.6z"/>
						<path d="M501.9,691.5c-0.8,0-1.5-0.7-1.5-1.5s0.7-1.5,1.5-1.5s1.5,0.7,1.5,1.5C503.4,690.9,502.7,691.5,501.9,691.5z
							 M501.9,691.3c0.7,0,1.3-0.6,1.3-1.3s-0.6-1.3-1.3-1.3c-0.7,0-1.3,0.6-1.3,1.3C500.5,690.7,501.1,691.3,501.9,691.3z"/>
					</g>
				</g>
			</g>
		</g>
		<g>
			<g>
				<path d="M475.8,708.6c1.4,0,2.6,1.2,2.6,2.6c0,1.4-1.2,2.6-2.6,2.6s-2.6-1.2-2.6-2.6C473.2,709.7,474.4,708.6,475.8,708.6z"/>
				<path d="M475.8,708.6c1.4,0,2.6,1.2,2.6,2.6c0,1.4-1.2,2.6-2.6,2.6s-2.6-1.2-2.6-2.6C473.2,709.7,474.4,708.6,475.8,708.6z"/>
				<g>
					<path d="M475.8,709.3c1,0,1.8,0.8,1.8,1.9c0,1-0.8,1.8-1.9,1.8c-1,0-1.8-0.8-1.8-1.9C474,710.1,474.8,709.3,475.8,709.3z"/>
					<path d="M475.8,713c-1,0-1.8-0.9-1.8-1.9s0.9-1.8,1.9-1.8s1.8,0.9,1.8,1.9C477.6,712.2,476.8,713,475.8,713z M475.8,713
						c1,0,1.8-0.8,1.8-1.8s-0.8-1.8-1.8-1.8s-1.8,0.8-1.8,1.8S474.8,713,475.8,713z"/>
				</g>
				<g>
					<g>
						<path d="M475.8,709.8c0.8,0,1.4,0.6,1.4,1.4c0,0.8-0.6,1.4-1.4,1.4s-1.4-0.6-1.4-1.4C474.4,710.4,475,709.8,475.8,709.8z"/>
						<path d="M475.8,712.7c-0.8,0-1.5-0.7-1.5-1.5s0.7-1.5,1.5-1.5s1.5,0.7,1.5,1.5S476.6,712.7,475.8,712.7z M475.8,712.5
							c0.7,0,1.3-0.6,1.3-1.3s-0.6-1.3-1.3-1.3c-0.7,0-1.3,0.6-1.3,1.3S475.1,712.5,475.8,712.5z"/>
					</g>
				</g>
			</g>
			<g>
				<path d="M501.9,708.9c1.4,0,2.6,1.2,2.6,2.6c0,1.4-1.2,2.6-2.6,2.6s-2.6-1.2-2.6-2.6C499.3,710,500.4,708.9,501.9,708.9z"/>
				<path d="M501.9,708.9c1.4,0,2.6,1.2,2.6,2.6c0,1.4-1.2,2.6-2.6,2.6s-2.6-1.2-2.6-2.6C499.3,710,500.4,708.9,501.9,708.9z"/>
				<g>
					<path d="M501.9,709.6c1,0,1.8,0.8,1.8,1.9c0,1-0.8,1.8-1.9,1.8c-1,0-1.8-0.8-1.8-1.9C500,710.4,500.9,709.6,501.9,709.6z"/>
					<path d="M501.8,713.3c-1,0-1.8-0.9-1.8-1.9s0.9-1.8,1.9-1.8s1.8,0.9,1.8,1.9C503.7,712.5,502.9,713.3,501.8,713.3z
						 M501.8,713.3c1,0,1.8-0.8,1.8-1.8s-0.8-1.8-1.8-1.8s-1.8,0.8-1.8,1.8C500,712.4,500.8,713.3,501.8,713.3z"/>
				</g>
				<g>
					<g>
						<path d="M501.9,710c0.8,0,1.4,0.6,1.4,1.4c0,0.8-0.6,1.4-1.4,1.4s-1.4-0.6-1.4-1.4C500.5,710.7,501.1,710,501.9,710z"/>
						<path d="M501.9,713c-0.8,0-1.5-0.7-1.5-1.5s0.7-1.5,1.5-1.5s1.5,0.7,1.5,1.5S502.7,713,501.9,713z M501.9,712.8
							c0.7,0,1.3-0.6,1.3-1.3s-0.6-1.3-1.3-1.3c-0.7,0-1.3,0.6-1.3,1.3C500.5,712.2,501.1,712.8,501.9,712.8z"/>
					</g>
				</g>
			</g>
		</g>
	</g>
	<g>
		<g>
			<g>
				<path d="M302.9,687.1c1.4,0,2.6,1.2,2.6,2.6c0,1.4-1.2,2.6-2.6,2.6s-2.6-1.2-2.6-2.6S301.5,687.1,302.9,687.1z"/>
				<path d="M302.9,687.1c1.4,0,2.6,1.2,2.6,2.6c0,1.4-1.2,2.6-2.6,2.6s-2.6-1.2-2.6-2.6S301.5,687.1,302.9,687.1z"/>
				<g>
					<path d="M302.9,687.9c1,0,1.8,0.8,1.8,1.9c0,1-0.8,1.8-1.9,1.8c-1,0-1.8-0.8-1.8-1.9C301.1,688.7,301.9,687.9,302.9,687.9z"/>
					<path d="M302.9,691.6c-1,0-1.8-0.9-1.8-1.9s0.9-1.8,1.9-1.8s1.8,0.9,1.8,1.9C304.7,690.8,303.9,691.6,302.9,691.6z
						 M302.9,691.5c1,0,1.8-0.8,1.8-1.8s-0.8-1.8-1.8-1.8s-1.8,0.8-1.8,1.8S301.9,691.5,302.9,691.5z"/>
				</g>
				<g>
					<g>
						<path d="M302.9,688.3c0.8,0,1.4,0.6,1.4,1.4c0,0.8-0.6,1.4-1.4,1.4s-1.4-0.6-1.4-1.4C301.5,688.9,302.1,688.3,302.9,688.3z"/>
						<path d="M302.9,691.2c-0.8,0-1.5-0.7-1.5-1.5s0.7-1.5,1.5-1.5s1.5,0.7,1.5,1.5C304.4,690.6,303.7,691.2,302.9,691.2z
							 M302.9,691c0.7,0,1.3-0.6,1.3-1.3s-0.6-1.3-1.3-1.3c-0.7,0-1.3,0.6-1.3,1.3S302.2,691,302.9,691z"/>
					</g>
				</g>
			</g>
			<g>
				<path d="M329,687.4c1.4,0,2.6,1.2,2.6,2.6c0,1.4-1.2,2.6-2.6,2.6s-2.6-1.2-2.6-2.6C326.4,688.5,327.5,687.4,329,687.4z"/>
				<path d="M329,687.4c1.4,0,2.6,1.2,2.6,2.6c0,1.4-1.2,2.6-2.6,2.6s-2.6-1.2-2.6-2.6C326.4,688.5,327.5,687.4,329,687.4z"/>
				<g>
					<path d="M329,688.2c1,0,1.8,0.8,1.8,1.9c0,1-0.8,1.8-1.9,1.8c-1,0-1.8-0.8-1.8-1.9C327.1,689,328,688.2,329,688.2z"/>
					<path d="M328.9,691.9c-1,0-1.8-0.9-1.8-1.9s0.9-1.8,1.9-1.8s1.8,0.9,1.8,1.9C330.8,691,329.9,691.9,328.9,691.9z M328.9,691.8
						c1,0,1.8-0.8,1.8-1.8s-0.8-1.8-1.8-1.8s-1.8,0.8-1.8,1.8S327.9,691.8,328.9,691.8z"/>
				</g>
				<g>
					<g>
						<path d="M329,688.6c0.8,0,1.4,0.6,1.4,1.4c0,0.8-0.6,1.4-1.4,1.4s-1.4-0.6-1.4-1.4C327.6,689.2,328.2,688.6,329,688.6z"/>
						<path d="M328.9,691.5c-0.8,0-1.5-0.7-1.5-1.5s0.7-1.5,1.5-1.5s1.5,0.7,1.5,1.5C330.5,690.9,329.8,691.5,328.9,691.5z
							 M329,691.3c0.7,0,1.3-0.6,1.3-1.3s-0.6-1.3-1.3-1.3c-0.7,0-1.3,0.6-1.3,1.3C327.6,690.7,328.2,691.3,329,691.3z"/>
					</g>
				</g>
			</g>
		</g>
		<g>
			<g>
				<path d="M302.9,708.6c1.4,0,2.6,1.2,2.6,2.6c0,1.4-1.2,2.6-2.6,2.6s-2.6-1.2-2.6-2.6C300.3,709.7,301.5,708.6,302.9,708.6z"/>
				<path d="M302.9,708.6c1.4,0,2.6,1.2,2.6,2.6c0,1.4-1.2,2.6-2.6,2.6s-2.6-1.2-2.6-2.6C300.3,709.7,301.5,708.6,302.9,708.6z"/>
				<g>
					<path d="M302.9,709.3c1,0,1.8,0.8,1.8,1.9c0,1-0.8,1.8-1.9,1.8c-1,0-1.8-0.8-1.8-1.9C301.1,710.1,301.9,709.3,302.9,709.3z"/>
					<path d="M302.9,713c-1,0-1.8-0.9-1.8-1.9s0.9-1.8,1.9-1.8s1.8,0.9,1.8,1.9C304.7,712.2,303.9,713,302.9,713z M302.9,713
						c1,0,1.8-0.8,1.8-1.8s-0.8-1.8-1.8-1.8s-1.8,0.8-1.8,1.8S301.9,713,302.9,713z"/>
				</g>
				<g>
					<g>
						<path d="M302.9,709.8c0.8,0,1.4,0.6,1.4,1.4c0,0.8-0.6,1.4-1.4,1.4s-1.4-0.6-1.4-1.4C301.5,710.4,302.1,709.8,302.9,709.8z"/>
						<path d="M302.9,712.7c-0.8,0-1.5-0.7-1.5-1.5s0.7-1.5,1.5-1.5s1.5,0.7,1.5,1.5S303.7,712.7,302.9,712.7z M302.9,712.5
							c0.7,0,1.3-0.6,1.3-1.3s-0.6-1.3-1.3-1.3c-0.7,0-1.3,0.6-1.3,1.3S302.2,712.5,302.9,712.5z"/>
					</g>
				</g>
			</g>
			<g>
				<path d="M329,708.9c1.4,0,2.6,1.2,2.6,2.6c0,1.4-1.2,2.6-2.6,2.6s-2.6-1.2-2.6-2.6C326.4,710,327.5,708.9,329,708.9z"/>
				<path d="M329,708.9c1.4,0,2.6,1.2,2.6,2.6c0,1.4-1.2,2.6-2.6,2.6s-2.6-1.2-2.6-2.6C326.4,710,327.5,708.9,329,708.9z"/>
				<g>
					<path d="M329,709.6c1,0,1.8,0.8,1.8,1.9c0,1-0.8,1.8-1.9,1.8c-1,0-1.8-0.8-1.8-1.9C327.1,710.4,328,709.6,329,709.6z"/>
					<path d="M328.9,713.3c-1,0-1.8-0.9-1.8-1.9s0.9-1.8,1.9-1.8s1.8,0.9,1.8,1.9S329.9,713.3,328.9,713.3z M328.9,713.3
						c1,0,1.8-0.8,1.8-1.8s-0.8-1.8-1.8-1.8s-1.8,0.8-1.8,1.8C327.1,712.4,327.9,713.3,328.9,713.3z"/>
				</g>
				<g>
					<g>
						<path d="M329,710c0.8,0,1.4,0.6,1.4,1.4c0,0.8-0.6,1.4-1.4,1.4s-1.4-0.6-1.4-1.4C327.6,710.7,328.2,710,329,710z"/>
						<path d="M328.9,713c-0.8,0-1.5-0.7-1.5-1.5s0.7-1.5,1.5-1.5s1.5,0.7,1.5,1.5C330.5,712.3,329.8,713,328.9,713z M329,712.8
							c0.7,0,1.3-0.6,1.3-1.3s-0.6-1.3-1.3-1.3c-0.7,0-1.3,0.6-1.3,1.3C327.6,712.2,328.2,712.8,329,712.8z"/>
					</g>
				</g>
			</g>
		</g>
	</g>
	<path class="st5" d="M478.5,740.7c1.2,0,2.5-0.5,3.4-1.4c2.1-2,2.3-5.5,0.4-7.7l-43.4-51.3H181.6l-24.7,44.3
		c-1.5,2.6-0.7,6,1.8,7.5c2.4,1.6,5.6,0.7,7-1.9l21.7-38.9h246.9l40.3,47.7C475.7,740.1,477.1,740.7,478.5,740.7z"/>
	<g>
		<g>
			<rect x="653.5" y="724" class="st5" width="141.2" height="48.3"/>
			<polygon class="st5" points="671.9,704 780.7,704 780.7,709.3 794.7,709.3 794.7,724 653.5,724 653.5,709.3 671.9,709.3 			"/>
		</g>
		<g>
			<g>
				<rect x="797.1" y="730.8" class="st5" width="49.1" height="41.5"/>
				<rect x="816.4" y="764" class="st5" width="10.6" height="1.1"/>
			</g>
			<g>
				<g>
					<path class="st5" d="M822.1,755.4c0,0.3,0.1,0.5,0.3,0.5h2.6c0.2,0,0.3-0.2,0.3-0.5V751c0-0.3-0.1-0.5-0.3-0.5h-2.6
						c-0.2,0-0.3,0.2-0.3,0.5V755.4z"/>
					<path class="st5" d="M822,755.4V751c0-0.4,0.2-0.7,0.4-0.7h2.6c0.2,0,0.4,0.3,0.4,0.7v4.4c0,0.4-0.2,0.7-0.4,0.7h-2.6
						C822.1,756.1,822,755.8,822,755.4z M822.4,750.7c-0.1,0-0.2,0.1-0.2,0.3v4.4c0,0.2,0.1,0.3,0.2,0.3h2.6c0.1,0,0.2-0.1,0.2-0.3
						V751c0-0.2-0.1-0.3-0.2-0.3H822.4z"/>
				</g>
				<g>
					<path class="st5" d="M818.1,755.4c0,0.3,0.1,0.5,0.3,0.5h2.6c0.2,0,0.3-0.2,0.3-0.5V751c0-0.3-0.1-0.5-0.3-0.5h-2.6
						c-0.2,0-0.3,0.2-0.3,0.5V755.4z"/>
					<path class="st5" d="M818,755.4V751c0-0.4,0.2-0.7,0.4-0.7h2.6c0.2,0,0.4,0.3,0.4,0.7v4.4c0,0.4-0.2,0.7-0.4,0.7h-2.6
						C818.2,756.1,818,755.8,818,755.4z M818.4,750.7c-0.1,0-0.2,0.1-0.2,0.3v4.4c0,0.2,0.1,0.3,0.2,0.3h2.6c0.1,0,0.2-0.1,0.2-0.3
						V751c0-0.2-0.1-0.3-0.2-0.3H818.4z"/>
				</g>
			</g>
		</g>
	</g>
	<path class="st4" d="M860.3,439l14.4-25.5c0.6-1,1.4-1.9,2.4-2.5l21.8-13.7c2.4-1.5,5.2-2,8-1.3c22.9,5.6,132.3,33.4,179.1,63.8
		c4.8,3.1-82.9-19.9-91.4-21L860.3,439z"/>
	<path class="st37" d="M860.3,458.1l0.2-15.6c0-2.3,3.6-4.1,8.1-4.1c2,0,3.9,0.4,5.4,1l14.5,6.6c1.7,0.8,2.7,1.9,2.7,3.1v9H860.3z"
		/>
	<polygon points="867.2,775.2 1128.2,778.6 1145.7,610.4 867.2,610.4 	"/>
	<path class="st15" d="M870.6,716.5c2.8,0,5-2.3,5-5.2s-2.3-5.2-5-5.2c-23.8,0-30.6-8.6-30.9-13.2V462.5c0-25.7-34.1-30.8-35.5-31
		c-2.8-0.4-5.3,1.6-5.7,4.5s1.5,5.5,4.3,5.9c0.4,0.1,26.8,4.1,26.8,20.6V693C829.6,693.9,830.1,716.5,870.6,716.5z"/>
	<rect x="818.6" y="467" class="st38" width="31.2" height="213.8"/>
	<rect x="842" y="467" class="st39" width="7.8" height="213.8"/>
	<rect x="818.6" y="623.3" class="st40" width="31.2" height="10.7"/>
	<rect x="818.6" y="498.4" class="st40" width="31.2" height="10.7"/>
	<path class="st16" d="M1046.5,762.1c0,38.7-31.4,70.1-70.1,70.1c-38.7,0-70.1-31.4-70.1-70.1c0-38.7,31.4-70.1,70.1-70.1
		C1015.2,692.1,1046.5,723.4,1046.5,762.1z"/>
	<path d="M1046.5,762.1c0,38.7-31.4,70.1-70.1,70.1c-38.7,0-70.1-31.4-70.1-70.1c0-38.7,31.4-70.1,70.1-70.1
		C1015.2,692.1,1046.5,723.4,1046.5,762.1z"/>
	
		<radialGradient id="SVGID_21_" cx="3050.6799" cy="437.9" r="60.1" gradientTransform="matrix(-1 0 0 -1 4027.1799 1200)" gradientUnits="userSpaceOnUse">
		<stop  offset="0" style="stop-color:#231F20"/>
		<stop  offset="0.413" style="stop-color:#252122"/>
		<stop  offset="0.5618" style="stop-color:#2B2729"/>
		<stop  offset="0.6675" style="stop-color:#353334"/>
		<stop  offset="0.7394" style="stop-color:#414042"/>
		<stop  offset="0.7653" style="stop-color:#4D4D4F"/>
		<stop  offset="0.7985" style="stop-color:#555658"/>
		<stop  offset="0.8485" style="stop-color:#58595B"/>
		<stop  offset="0.9212" style="stop-color:#414042"/>
	</radialGradient>
	<path class="st41" d="M1036.6,762.1c0,33.2-26.9,60.1-60.1,60.1c-33.2,0-60.1-26.9-60.1-60.1c0-33.2,26.9-60.1,60.1-60.1
		C1009.7,702,1036.6,728.9,1036.6,762.1z"/>
	<path class="st15" d="M1028.1,762.1c0,28.5-23.1,51.6-51.6,51.6s-51.6-23.1-51.6-51.6s23.1-51.6,51.6-51.6
		C1005,710.6,1028.1,733.7,1028.1,762.1z"/>
	<path class="st18" d="M1028.1,762.1c0,28.5-23.1,51.6-51.6,51.6s-51.6-23.1-51.6-51.6s23.1-51.6,51.6-51.6
		C1005,710.6,1028.1,733.7,1028.1,762.1z"/>
	<path class="st19" d="M1012.9,762.1c0,20.1-16.3,36.4-36.4,36.4c-20.1,0-36.4-16.3-36.4-36.4c0-20.1,16.3-36.4,36.4-36.4
		C996.6,725.7,1012.9,742,1012.9,762.1z"/>
	<g>
		<g>
			
				<linearGradient id="SVGID_22_" gradientUnits="userSpaceOnUse" x1="3025.3799" y1="437.4" x2="3075.98" y2="437.4" gradientTransform="matrix(-1 0 0 -1 4027.1799 1200)">
				<stop  offset="3.030300e-02" style="stop-color:#6D6E71"/>
				<stop  offset="0.2485" style="stop-color:#BCBEC0"/>
				<stop  offset="0.5212" style="stop-color:#D1D3D4"/>
				<stop  offset="0.6909" style="stop-color:#BCBEC0"/>
				<stop  offset="0.9758" style="stop-color:#58595B"/>
			</linearGradient>
			<path class="st42" d="M1001.8,762.6c0,14-11.3,25.3-25.3,25.3s-25.3-11.3-25.3-25.3s11.3-25.3,25.3-25.3
				C990.4,737.3,1001.8,748.6,1001.8,762.6z"/>
		</g>
		<g>
			
				<linearGradient id="SVGID_23_" gradientUnits="userSpaceOnUse" x1="3019.7104" y1="454.4" x2="3040.7104" y2="454.4" gradientTransform="matrix(-1 0 0 -1 4027.1799 1200)">
				<stop  offset="3.030300e-02" style="stop-color:#6D6E71"/>
				<stop  offset="0.2485" style="stop-color:#BCBEC0"/>
				<stop  offset="0.5212" style="stop-color:#D1D3D4"/>
				<stop  offset="0.6909" style="stop-color:#BCBEC0"/>
				<stop  offset="0.9758" style="stop-color:#58595B"/>
			</linearGradient>
			<path class="st43" d="M986.5,750l11.4-14.4c4,3.2,7.4,7.3,9.6,11.9l-16.5,8.1C989.9,753.4,988.3,751.4,986.5,750z"/>
			
				<linearGradient id="SVGID_24_" gradientUnits="userSpaceOnUse" x1="3029.2156" y1="414.3" x2="3047.1155" y2="414.3" gradientTransform="matrix(-1 0 0 -1 4027.1799 1200)">
				<stop  offset="3.030300e-02" style="stop-color:#6D6E71"/>
				<stop  offset="0.2485" style="stop-color:#BCBEC0"/>
				<stop  offset="0.5212" style="stop-color:#D1D3D4"/>
				<stop  offset="0.6909" style="stop-color:#BCBEC0"/>
				<stop  offset="0.9758" style="stop-color:#58595B"/>
			</linearGradient>
			<path class="st44" d="M998,789.5c-4,3.2-8.8,5.5-13.8,6.7l-4.1-17.9c2.3-0.5,4.6-1.6,6.4-3.1L998,789.5z"/>
			
				<linearGradient id="SVGID_25_" gradientUnits="userSpaceOnUse" x1="3060.7864" y1="454.35" x2="3081.8103" y2="454.35" gradientTransform="matrix(-1 0 0 -1 4027.1799 1200)">
				<stop  offset="3.030300e-02" style="stop-color:#6D6E71"/>
				<stop  offset="0.2485" style="stop-color:#BCBEC0"/>
				<stop  offset="0.5212" style="stop-color:#D1D3D4"/>
				<stop  offset="0.6909" style="stop-color:#BCBEC0"/>
				<stop  offset="0.9758" style="stop-color:#58595B"/>
			</linearGradient>
			<path class="st45" d="M961.9,755.6l-16.6-7.9c2.2-4.6,5.5-8.8,9.5-12l11.5,14.3C964.5,751.5,963,753.4,961.9,755.6z"/>
			
				<linearGradient id="SVGID_26_" gradientUnits="userSpaceOnUse" x1="3016.2407" y1="429.95" x2="3036.1946" y2="429.95" gradientTransform="matrix(-1 0 0 -1 4027.1799 1200)">
				<stop  offset="3.030300e-02" style="stop-color:#6D6E71"/>
				<stop  offset="0.2485" style="stop-color:#BCBEC0"/>
				<stop  offset="0.5212" style="stop-color:#D1D3D4"/>
				<stop  offset="0.6909" style="stop-color:#BCBEC0"/>
				<stop  offset="0.9758" style="stop-color:#58595B"/>
			</linearGradient>
			<path class="st46" d="M992.6,762.6L992.6,762.6l18.4-0.1v0.1c0,5.2-1.2,10.3-3.4,15l-16.5-8C992,767.4,992.6,765,992.6,762.6z"/>
			
				<linearGradient id="SVGID_27_" gradientUnits="userSpaceOnUse" x1="3065.2217" y1="429.9" x2="3085.1824" y2="429.9" gradientTransform="matrix(-1 0 0 -1 4027.1799 1200)">
				<stop  offset="3.030300e-02" style="stop-color:#6D6E71"/>
				<stop  offset="0.2485" style="stop-color:#BCBEC0"/>
				<stop  offset="0.5212" style="stop-color:#D1D3D4"/>
				<stop  offset="0.6909" style="stop-color:#BCBEC0"/>
				<stop  offset="0.9758" style="stop-color:#58595B"/>
			</linearGradient>
			<path class="st47" d="M960.4,762.6c0,2.4,0.6,4.8,1.6,7l-16.5,8c-2.3-4.7-3.4-9.7-3.4-14.9L960.4,762.6z"/>
			
				<linearGradient id="SVGID_28_" gradientUnits="userSpaceOnUse" x1="3043.1621" y1="462.5564" x2="3058.4622" y2="462.5564" gradientTransform="matrix(-1 0 0 -1 4027.1799 1200)">
				<stop  offset="3.030300e-02" style="stop-color:#6D6E71"/>
				<stop  offset="0.2485" style="stop-color:#BCBEC0"/>
				<stop  offset="0.5212" style="stop-color:#D1D3D4"/>
				<stop  offset="0.6909" style="stop-color:#BCBEC0"/>
				<stop  offset="0.9758" style="stop-color:#58595B"/>
			</linearGradient>
			<path class="st48" d="M968.7,729c5-1.2,10.3-1.2,15.3-0.1l-4,17.9c-2.3-0.5-4.8-0.5-7.2,0L968.7,729z"/>
			
				<linearGradient id="SVGID_29_" gradientUnits="userSpaceOnUse" x1="3054.2798" y1="414.3" x2="3072.1799" y2="414.3" gradientTransform="matrix(-1 0 0 -1 4027.1799 1200)">
				<stop  offset="3.030300e-02" style="stop-color:#6D6E71"/>
				<stop  offset="0.2485" style="stop-color:#BCBEC0"/>
				<stop  offset="0.5212" style="stop-color:#D1D3D4"/>
				<stop  offset="0.6909" style="stop-color:#BCBEC0"/>
				<stop  offset="0.9758" style="stop-color:#58595B"/>
			</linearGradient>
			<path class="st49" d="M972.9,778.3l-4.1,17.9c-5-1.1-9.8-3.4-13.8-6.6l11.4-14.4C968.3,776.7,970.6,777.7,972.9,778.3z"/>
		</g>
	</g>
	<path class="st5" d="M860.3,439c0.2-0.1,0.4-0.2,0.7-0.2h133.5c0.1,0,0.2,0,0.3,0l87.3,19.5c3.6,0.8,6.7,3.1,8.4,6.3l58.7,105.8
		c1.3,2.3,1.9,5,1.8,7.6l-6.5,131.1c0,0.8-0.7,1.4-1.5,1.4h-69l-0.7-0.5c-11-24.2-35.4-41.1-63.8-41.1c-3.2,0-6.4,0.2-9.5,0.7
		c-0.1,0-0.1,0-0.2,0h-129c-4.8,0-8.9-3-10.5-7.2V439z"/>
	<path class="st50" d="M1131.4,691.8l6.8-113.7c0.1-2.2-0.4-4.3-1.5-6.2l-56.9-95.5c-2-3.3-5.5-5.3-9.3-5.3h-81.9
		c-6,0-10.9,4.9-10.9,10.9v164.2c0,6.1,5,11,11.2,10.9c22-0.6,70.3,2.5,87.2,38.9c1.8,3.8,5.6,6.2,9.8,6.2h34.7
		C1126.3,702,1131.1,697.5,1131.4,691.8z"/>
	<path class="st51" d="M990.1,569.4v-85.9h73.1c3.9,0,7.5,2.1,9.6,5.4l53,88.9l0,0c-0.2,4-3.8,7-7.8,6.5L990.1,569.4z"/>
	<line class="st50" x1="1072.7" y1="488.9" x2="1072.7" y2="578.2"/>
	<path class="st15" d="M994.4,584.4h23c1.7,0,3.1-1.4,3.1-3.1l0,0c0-1.7-1.4-3.1-3.1-3.1h-23c-1.7,0-3.1,1.4-3.1,3.1l0,0
		C991.3,583,992.7,584.4,994.4,584.4z"/>
	<path class="st51" d="M894.6,562.5h59.1c1.9,0,3.4-1.5,3.4-3.4v-84.6c0-1.9-1.5-3.4-3.4-3.4h-59.1c-1.9,0-3.4,1.5-3.4,3.4V559
		C891.2,560.9,892.7,562.5,894.6,562.5z"/>
	<path class="st4" d="M860.3,686.8c0-3.1,2.6-5.5,5.7-5.5c0,0,0,0,0.1,0h129.1c0.1,0,0.1,0,0.2,0c3.1-0.4,6.3-0.7,9.5-0.7
		c28.3,0,52.7,16.8,63.8,41.1l0.7,0.5h74.1l-12.7,56.4c-2.9,13-14.5,22.2-27.8,22.2h-52.6v-35.3c0-40.6-32.9-73.5-73.5-73.5l0,0
		c-40.6,0-73.5,32.9-73.5,73.5v35.3h-43.1L860.3,686.8L860.3,686.8z"/>
	<path class="st4" d="M896.5,576.2h8.2c-1.9,0-3.8,0.3-5.4,0.8c3.7,1.1,6.7,3.3,8.1,6.1l6.6,13.7h-8.2l-6.6-13.7
		c-1.4-2.8-4.4-5.1-8.1-6.1C892.7,576.5,894.6,576.2,896.5,576.2z"/>
	<path class="st4" d="M905.7,576.2h8.2c6.1,0,11.5,2.8,13.5,6.9l6.6,13.7h-8.2l-6.6-13.7C917.2,579,911.8,576.2,905.7,576.2z"/>
	<path class="st4" d="M922.4,576.2h8.2c6.1,0,11.5,2.8,13.5,6.9l6.6,13.7h-8.2l-6.6-13.7C933.9,579,928.5,576.2,922.4,576.2z"/>
	<path class="st5" d="M1121,751.7v3.9c0-0.9-0.6-1.8-1.6-2.6c-2.3,1.8-7,3.2-13,3.8l-28.9,3.1V756l28.9-3.1c6-0.6,10.6-2.1,13-3.8
		C1120.5,749.9,1121,750.8,1121,751.7z"/>
	<path class="st5" d="M1121,756v3.9c0,2.9-5.9,5.5-14.6,6.4l-28.9,3.1v-3.9l28.9-3.1C1115.2,761.5,1121,758.9,1121,756z"/>
	<path class="st5" d="M1121,764v3.9c0,2.9-5.9,5.5-14.6,6.4l-28.9,3.1v-3.9l28.9-3.1C1115.2,769.4,1121,766.9,1121,764z"/>
	<g>
		<path class="st52" d="M892,657.1c0,0.5,0.3,0.9,0.7,0.9h6.4c0.4,0,0.7-0.4,0.7-0.9v-7.7c0-0.5-0.3-0.9-0.7-0.9h-6.4
			c-0.4,0-0.7,0.4-0.7,0.9V657.1z"/>
		<path class="st15" d="M891.7,657.1v-7.7c0-0.6,0.4-1.2,1-1.2h6.4c0.5,0,1,0.5,1,1.2v7.7c0,0.6-0.4,1.2-1,1.2h-6.4
			C892.2,658.3,891.7,657.8,891.7,657.1z M892.7,648.9c-0.2,0-0.4,0.2-0.4,0.5v7.7c0,0.3,0.2,0.5,0.4,0.5h6.4c0.2,0,0.4-0.2,0.4-0.5
			v-7.7c0-0.3-0.2-0.5-0.4-0.5H892.7z"/>
	</g>
	<g>
		<path class="st53" d="M882.3,657.1c0,0.5,0.3,0.9,0.7,0.9h6.4c0.4,0,0.7-0.4,0.7-0.9v-7.7c0-0.5-0.3-0.9-0.7-0.9H883
			c-0.4,0-0.7,0.4-0.7,0.9V657.1z"/>
		<path class="st15" d="M882.1,657.1v-7.7c0-0.6,0.4-1.2,1-1.2h6.4c0.5,0,1,0.5,1,1.2v7.7c0,0.6-0.4,1.2-1,1.2H883
			C882.5,658.3,882.1,657.8,882.1,657.1z M883,648.9c-0.2,0-0.4,0.2-0.4,0.5v7.7c0,0.3,0.2,0.5,0.4,0.5h6.4c0.2,0,0.4-0.2,0.4-0.5
			v-7.7c0-0.3-0.2-0.5-0.4-0.5H883z"/>
	</g>
</g>
</svg>
