<svg id="Layer_1" data-name="Layer 1" xmlns="http://www.w3.org/2000/svg" xmlns:xlink="http://www.w3.org/1999/xlink" viewBox="0 0 1154 597.33"><defs><linearGradient id="linear-gradient" x1="1044.19" y1="489.08" x2="1052.63" y2="489.08" gradientUnits="userSpaceOnUse"><stop offset="0" stop-color="#231f20"/><stop offset="0.41" stop-color="#252122"/><stop offset="0.56" stop-color="#2b2729"/><stop offset="0.67" stop-color="#353334"/><stop offset="0.74" stop-color="#414042"/><stop offset="0.77" stop-color="#4d4d4f"/><stop offset="0.8" stop-color="#555658"/><stop offset="0.85" stop-color="#58595b"/><stop offset="0.92" stop-color="#414042"/></linearGradient><linearGradient id="linear-gradient-2" x1="1052.63" y1="472.74" x2="1067.71" y2="472.74" xlink:href="#linear-gradient"/><radialGradient id="radial-gradient" cx="3647.63" cy="825.24" r="62.95" gradientTransform="matrix(-1, 0, 0, 1, 4029.18, 0)" xlink:href="#linear-gradient"/><linearGradient id="linear-gradient-3" x1="3621.13" y1="825.76" x2="3674.13" y2="825.76" gradientTransform="matrix(-1, 0, 0, 1, 4029.18, 0)" gradientUnits="userSpaceOnUse"><stop offset="0.03" stop-color="#6d6e71"/><stop offset="0.25" stop-color="#bcbec0"/><stop offset="0.52" stop-color="#d1d3d4"/><stop offset="0.69" stop-color="#bcbec0"/><stop offset="0.98" stop-color="#58595b"/></linearGradient><linearGradient id="linear-gradient-4" x1="3615.16" y1="807.96" x2="3637.16" y2="807.96" xlink:href="#linear-gradient-3"/><linearGradient id="linear-gradient-5" x1="3625.11" y1="849.96" x2="3643.86" y2="849.96" xlink:href="#linear-gradient-3"/><linearGradient id="linear-gradient-6" x1="3658.17" y1="808.01" x2="3680.19" y2="808.01" xlink:href="#linear-gradient-3"/><linearGradient id="linear-gradient-7" x1="3611.5" y1="833.57" x2="3632.4" y2="833.57" xlink:href="#linear-gradient-3"/><linearGradient id="linear-gradient-8" x1="3662.82" y1="833.62" x2="3683.73" y2="833.62" xlink:href="#linear-gradient-3"/><linearGradient id="linear-gradient-9" x1="3639.71" y1="799.41" x2="3655.74" y2="799.41" xlink:href="#linear-gradient-3"/><linearGradient id="linear-gradient-10" x1="3651.36" y1="849.96" x2="3670.11" y2="849.96" xlink:href="#linear-gradient-3"/><radialGradient id="radial-gradient-2" cx="3812.29" cy="825.24" r="62.95" gradientTransform="matrix(-1, 0, 0, 1, 4029.18, 0)" xlink:href="#linear-gradient"/><linearGradient id="linear-gradient-11" x1="3785.9" y1="825.76" x2="3838.9" y2="825.76" xlink:href="#linear-gradient-3"/><linearGradient id="linear-gradient-12" x1="3779.9" y1="807.96" x2="3801.89" y2="807.96" xlink:href="#linear-gradient-3"/><linearGradient id="linear-gradient-13" x1="3789.85" y1="849.96" x2="3808.6" y2="849.96" xlink:href="#linear-gradient-3"/><linearGradient id="linear-gradient-14" x1="3822.92" y1="808.01" x2="3844.95" y2="808.01" xlink:href="#linear-gradient-3"/><linearGradient id="linear-gradient-15" x1="3776.26" y1="833.57" x2="3797.16" y2="833.57" xlink:href="#linear-gradient-3"/><linearGradient id="linear-gradient-16" x1="3827.59" y1="833.62" x2="3848.5" y2="833.62" xlink:href="#linear-gradient-3"/><linearGradient id="linear-gradient-17" x1="3804.46" y1="799.41" x2="3820.49" y2="799.41" xlink:href="#linear-gradient-3"/><linearGradient id="linear-gradient-18" x1="3816.11" y1="849.96" x2="3834.86" y2="849.96" xlink:href="#linear-gradient-3"/><radialGradient id="radial-gradient-3" cx="3034.97" cy="825.24" r="62.95" gradientTransform="matrix(-1, 0, 0, 1, 4029.18, 0)" xlink:href="#linear-gradient"/><linearGradient id="linear-gradient-19" x1="3008.47" y1="825.76" x2="3061.47" y2="825.76" xlink:href="#linear-gradient-3"/><linearGradient id="linear-gradient-20" x1="3002.53" y1="807.96" x2="3024.53" y2="807.96" xlink:href="#linear-gradient-3"/><linearGradient id="linear-gradient-21" x1="3012.49" y1="849.96" x2="3031.24" y2="849.96" xlink:href="#linear-gradient-3"/><linearGradient id="linear-gradient-22" x1="3045.56" y1="808.01" x2="3067.58" y2="808.01" xlink:href="#linear-gradient-3"/><linearGradient id="linear-gradient-23" x1="2998.9" y1="833.57" x2="3019.8" y2="833.57" xlink:href="#linear-gradient-3"/><linearGradient id="linear-gradient-24" x1="3050.21" y1="833.62" x2="3071.11" y2="833.62" xlink:href="#linear-gradient-3"/><linearGradient id="linear-gradient-25" x1="3027.1" y1="799.41" x2="3043.12" y2="799.41" xlink:href="#linear-gradient-3"/><linearGradient id="linear-gradient-26" x1="3038.74" y1="849.96" x2="3057.49" y2="849.96" xlink:href="#linear-gradient-3"/></defs><title>concrete mixer</title><rect x="1044.21" y="448.7" width="8.48" height="80.76" style="fill:url(#linear-gradient)"/><rect x="1052.59" y="451.94" width="15.08" height="41.58" style="fill:url(#linear-gradient-2)"/><polygon points="372.9 412.98 506.87 461.06 673.31 154.47 560.08 68.36 372.9 412.98" style="fill:#a7cb64"/><polygon points="260.4 327.19 373.63 413.4 560.81 68.68 426.94 20.7 260.4 327.19" style="fill:#88a84c"/><path d="M299.11,315c.11,0,.11.1.21.1l151,7.13-67,123.39L351,505.34l-67,123.39-88.4-122.86h-.11c-14.56-7.86-3.14-57,25.46-109.67S284.55,307.06,299.11,315Z" transform="translate(-23 -301.33)" style="fill:#a7cb64"/><path d="M785,578.88c14.35,8.17,2.83,57.08-25.66,109.56-28.39,52.27-63.06,88.41-77.83,81.28L530.29,762.6l67-123.39,32.37-59.71,67-123.39Z" transform="translate(-23 -301.33)" style="fill:#88a84c"/><path d="M174.88,501.89h0a18.6,18.6,0,0,0,25-8.07L285,328.43a18.59,18.59,0,0,0-8.07-25h0a18.59,18.59,0,0,0-25,8.07L166.82,476.85A18.74,18.74,0,0,0,174.88,501.89Z" transform="translate(-23 -301.33)" style="fill:#88a84c"/><path d="M443.77,729.61V708.34c0-7,8.38-12.67,18.64-12.67s18.65,5.65,18.65,12.67v21.27Z" transform="translate(-23 -301.33)" style="fill:#292b2a"/><path d="M654.2,729.61V708.34c0-7,8.38-12.67,18.65-12.67s18.64,5.65,18.64,12.67v21.27Z" transform="translate(-23 -301.33)" style="fill:#292b2a"/><rect x="743.14" y="520.89" width="50.38" height="26.82" transform="translate(-32.87 752.77) rotate(-68.56)" style="fill:#88a84c"/><polygon points="696.35 327.3 746.32 346.99 777.01 262.67 726.94 243.08 696.35 327.3" style="fill:#a7cb64"/><path d="M741.66,444.28a58.35,58.35,0,1,0,75.63-33A58.24,58.24,0,0,0,741.66,444.28Z" transform="translate(-23 -301.33)" style="fill:#a7cb64"/><path d="M829.13,474.44a64.24,64.24,0,0,0,0-46.71,48.87,48.87,0,0,1-42,84.84A64.68,64.68,0,0,0,829.13,474.44Z" transform="translate(-23 -301.33)" style="fill:#a7cb64;opacity:0.1599999964237213;isolation:isolate"/><rect x="768.25" y="482.68" width="15.08" height="68.09" transform="translate(-11.79 748.57) rotate(-68.56)" style="fill:#a7cb64"/><polygon points="697.61 424.81 792.3 424.81 752.71 317.87 697.61 317.87 697.61 424.81" style="fill:#88a84c"/><path d="M844.94,497.07c3.46,1.67,7.44.84,8.8-2.1l4.51-9.11c1.36-2.83-.32-6.49-3.77-8.27h0c-3.46-1.68-7.44-.84-8.8,2.09l-4.51,9.11c-1.36,2.83.32,6.5,3.77,8.28Z" transform="translate(-23 -301.33)" style="fill:#020200"/><path d="M771.1,726.57V704.05a13.51,13.51,0,0,1,27,0v22.52Z" transform="translate(-23 -301.33)" style="fill:#292b2a"/><path d="M725.53,632.92c-2.93,6.39,2.2,15,11.32,19.17h0c9.21,4.19,18.95,2.31,21.89-4.08l19.17-42.42c2.93-6.39-2.2-15-11.32-19.17h0c-9.21-4.19-19-2.31-21.89,4.08Z" transform="translate(-23 -301.33)" style="fill:#88a84c"/><path d="M29.81,770.25a8.06,8.06,0,0,0,0,2.3l-.63,1.15,1.05.21c2.83,7.23,16.65,14.56,34,17.5s32.89.41,37.81-5.56l1,.21L229.35,626.33,120,608.2,23,706.46ZM33.58,765l2.09-2.93-1.36,2.51A1.32,1.32,0,0,0,33.58,765Z" transform="translate(-23 -301.33)" style="fill:#020200"/><polygon points="120.25 312.21 6.81 468.91 0 405.02 95.74 308.13 120.25 312.21" style="fill:#f5f5f5;opacity:0.2800000011920929;isolation:isolate"/><polygon points="147.59 433.61 410.4 433.61 150.21 230.93 147.59 209.77 147.59 433.61" style="fill:#88a84c"/><rect x="109.46" y="140.85" width="56.46" height="107.68" style="fill:#292b2a"/><polygon points="110.93 153.52 178.49 153.52 178.49 75.49 57.92 75.49 110.93 153.52" style="fill:#292b2a"/><path d="M334.83,732.12V712.64a11.73,11.73,0,0,1,23.46,0v19.48Z" transform="translate(-23 -301.33)" style="fill:#292b2a"/><path d="M272.61,732.12V712.64a11.73,11.73,0,0,1,23.46,0v19.48Z" transform="translate(-23 -301.33)" style="fill:#292b2a"/><path d="M210.5,732.12V712.64a11.73,11.73,0,0,1,23.46,0v19.48Z" transform="translate(-23 -301.33)" style="fill:#292b2a"/><path d="M220.13,605.48c-3,6.81,2.31,15.82,11.94,20.22h0c9.64,4.4,20,2.41,23.05-4.4l20.21-44.73c3-6.81-2.3-15.82-11.94-20.11h0c-9.63-4.4-20-2.41-23,4.4Z" transform="translate(-23 -301.33)" style="fill:#a7cb64"/><rect x="84.22" y="209.77" width="64.94" height="167.8" style="fill:#88a84c"/><path d="M73.8,508.28V770.56c0,3.56,1.89,6.6,4.4,7.12a2.21,2.21,0,0,0,.84.11h79.71a2.21,2.21,0,0,0,.84-.11c2.51-.52,4.4-3.45,4.4-7.12V583.17a4.08,4.08,0,0,0,1.15.11c6.39,0,11.52-7.23,11.52-16V515.92c0-8.9-5.13-16-11.52-16a8.88,8.88,0,0,0-4,.94,3.67,3.67,0,0,0-2.41-.94c-2.83,0-5.24,3.77-5.24,8.48v74.9H84.17v-.11a4.08,4.08,0,0,0,1.15.11c6.39,0,11.53-7.23,11.53-16V515.92c0-8.9-5.14-16-11.53-16a8.88,8.88,0,0,0-4,.94,3.67,3.67,0,0,0-2.41-.94C76.21,499.79,73.8,503.67,73.8,508.28Zm79.82,195H84.28V657.75h69.34Zm0,60.13H84.28V717.87h69.34Zm0-165.71v45.56H84.28V597.73Z" transform="translate(-23 -301.33)" style="fill:#a7cb64"/><path d="M84.38,724.79a11.4,11.4,0,0,0-11.1,10.79l-.74,12.15a11.25,11.25,0,0,0,9.75,11.94Z" transform="translate(-23 -301.33)" style="fill:#ec1c24"/><path d="M86.06,695.67c-7-.21-12.78,2.51-13,6.18l-.42,7.33c-.21,3.67,5.24,7,12.25,7.65Z" transform="translate(-23 -301.33)" style="fill:#ec1c24"/><rect x="46.18" y="717.58" width="80.03" height="4.61" transform="translate(-660.42 463.93) rotate(-86.76)" style="fill:#020200"/><polygon points="64.52 458.54 64.52 375.38 69.97 375.38 69.97 364.59 84.95 364.59 84.95 472.58 69.97 472.58 69.97 458.54 64.52 458.54" style="fill:#3b3a3a;stroke:#231f20;stroke-miterlimit:10;stroke-width:0.5910000205039978px"/><path d="M109.21,775.17V751.29h34.56V771.4a9.71,9.71,0,0,1-2.62,6.6l-14.77,16H82.5V775.17Z" transform="translate(-23 -301.33)" style="fill:#3b3a3a;stroke:#231f20;stroke-miterlimit:10;stroke-width:0.7742000222206116px"/><rect x="79.29" y="410.88" width="11" height="50.91" style="fill:#3b3a3a;stroke:#231f20;stroke-miterlimit:10;stroke-width:0.7742000222206116px"/><rect x="88.72" y="406.07" width="11" height="55.62" style="fill:#3b3a3a;stroke:#231f20;stroke-miterlimit:10;stroke-width:0.7742000222206116px"/><rect x="109.88" y="423.03" width="1013" height="79.71" style="fill:#414042"/><path d="M479.8,813.61l.84-1.15H494l.74,1.15h65.88v-3.45h15v3.45h51.43l.63-1.15h10.47l.63,1.15H865.47a49,49,0,0,0-.1-17.49l-2.31-11.21H385.32l1,28.7Z" transform="translate(-23 -301.33)" style="fill:#070608"/><rect x="250.97" y="488.29" width="47.45" height="9.22" style="fill:#231f20"/><rect x="284.8" y="484.21" width="9.11" height="8.17" style="fill:#231f20"/><rect x="271.29" y="486.72" width="9.11" height="8.17" style="fill:#231f20"/><rect x="257.78" y="484.21" width="9.11" height="8.17" style="fill:#231f20"/><rect x="262.91" y="501.8" width="26.4" height="3.04" style="fill:#231f20"/><rect x="281.66" y="500.55" width="5.13" height="2.72" style="fill:#231f20"/><rect x="274.12" y="501.38" width="5.13" height="2.72" style="fill:#231f20"/><rect x="266.58" y="500.44" width="5.13" height="2.72" style="fill:#231f20"/><rect x="262.91" y="507.56" width="26.4" height="6.91" style="fill:#231f20"/><rect x="281.66" y="504.63" width="5.13" height="6.08" style="fill:#231f20"/><rect x="274.12" y="506.52" width="5.13" height="6.08" style="fill:#231f20"/><rect x="266.58" y="504.53" width="5.13" height="6.08" style="fill:#231f20"/><path d="M455,825.24a73.43,73.43,0,1,1-73.42-73.43A73.45,73.45,0,0,1,455,825.24Z" transform="translate(-23 -301.33)" style="fill:#3d3b3d"/><path d="M455,825.24a73.43,73.43,0,1,1-73.42-73.43A73.45,73.45,0,0,1,455,825.24Z" transform="translate(-23 -301.33)"/><path d="M444.5,825.24a63,63,0,1,1-62.95-63A62.95,62.95,0,0,1,444.5,825.24Z" transform="translate(-23 -301.33)" style="fill:url(#radial-gradient)"/><path d="M435.6,825.24a54.05,54.05,0,1,1-54.05-54A54.05,54.05,0,0,1,435.6,825.24Z" transform="translate(-23 -301.33)" style="fill:#231f20"/><path d="M435.6,825.24a54.05,54.05,0,1,1-54.05-54A54.05,54.05,0,0,1,435.6,825.24Z" transform="translate(-23 -301.33)" style="fill:#3b3a3a"/><path d="M419.78,825.24a38.13,38.13,0,1,1-38.13-38.13A38.14,38.14,0,0,1,419.78,825.24Z" transform="translate(-23 -301.33)" style="fill:#fff;stroke:#3d3b3d;stroke-miterlimit:10;stroke-width:0.428600013256073px"/><path d="M408.05,825.76a26.5,26.5,0,1,1-26.5-26.5A26.46,26.46,0,0,1,408.05,825.76Z" transform="translate(-23 -301.33)" style="fill:url(#linear-gradient-3)"/><path d="M392,812.56,404,797.48A36.31,36.31,0,0,1,414,810l-17.29,8.48A16.29,16.29,0,0,0,392,812.56Z" transform="translate(-23 -301.33)" style="fill:url(#linear-gradient-4)"/><path d="M404.07,853.94a37.26,37.26,0,0,1-14.46,7l-4.29-18.75A16.06,16.06,0,0,0,392,839Z" transform="translate(-23 -301.33)" style="fill:url(#linear-gradient-5)"/><path d="M366.36,818.43,349,810.16a36.23,36.23,0,0,1,9.95-12.57l12.05,15A17,17,0,0,0,366.36,818.43Z" transform="translate(-23 -301.33)" style="fill:url(#linear-gradient-6)"/><path d="M398.41,825.76h0l19.27-.1v.1a36.94,36.94,0,0,1-3.56,15.71l-17.28-8.38A17.66,17.66,0,0,0,398.41,825.76Z" transform="translate(-23 -301.33)" style="fill:url(#linear-gradient-7)"/><path d="M364.68,825.76a17.78,17.78,0,0,0,1.68,7.33l-17.29,8.38a35.22,35.22,0,0,1-3.56-15.6Z" transform="translate(-23 -301.33)" style="fill:url(#linear-gradient-8)"/><path d="M373.38,790.57a36,36,0,0,1,16-.11l-4.19,18.75a18.41,18.41,0,0,0-7.54,0Z" transform="translate(-23 -301.33)" style="fill:url(#linear-gradient-9)"/><path d="M377.78,842.21,373.48,861A35.43,35.43,0,0,1,359,854L371,839A19.43,19.43,0,0,0,377.78,842.21Z" transform="translate(-23 -301.33)" style="fill:url(#linear-gradient-10)"/><path d="M290.21,825.24a73.43,73.43,0,1,1-73.43-73.43A73.45,73.45,0,0,1,290.21,825.24Z" transform="translate(-23 -301.33)" style="fill:#3d3b3d"/><path d="M290.21,825.24a73.43,73.43,0,1,1-73.43-73.43A73.45,73.45,0,0,1,290.21,825.24Z" transform="translate(-23 -301.33)"/><path d="M279.84,825.24a63,63,0,1,1-62.95-63A62.95,62.95,0,0,1,279.84,825.24Z" transform="translate(-23 -301.33)" style="fill:url(#radial-gradient-2)"/><path d="M270.83,825.24a54.05,54.05,0,1,1-54-54A54.05,54.05,0,0,1,270.83,825.24Z" transform="translate(-23 -301.33)" style="fill:#231f20"/><path d="M270.83,825.24a54.05,54.05,0,1,1-54-54A54.05,54.05,0,0,1,270.83,825.24Z" transform="translate(-23 -301.33)" style="fill:#3b3a3a"/><path d="M255,825.24a38.13,38.13,0,1,1-38.12-38.13A38.13,38.13,0,0,1,255,825.24Z" transform="translate(-23 -301.33)" style="fill:#fff;stroke:#3d3b3d;stroke-miterlimit:10;stroke-width:0.428600013256073px"/><path d="M243.28,825.76a26.5,26.5,0,1,1-26.5-26.5A26.46,26.46,0,0,1,243.28,825.76Z" transform="translate(-23 -301.33)" style="fill:url(#linear-gradient-11)"/><path d="M227.26,812.56l11.94-15.08A36.16,36.16,0,0,1,249.25,810L232,818.43A15.31,15.31,0,0,0,227.26,812.56Z" transform="translate(-23 -301.33)" style="fill:url(#linear-gradient-12)"/><path d="M239.3,853.94a37.29,37.29,0,0,1-14.45,7l-4.3-18.75a16.15,16.15,0,0,0,6.71-3.25Z" transform="translate(-23 -301.33)" style="fill:url(#linear-gradient-13)"/><path d="M201.59,818.43l-17.39-8.27a36.37,36.37,0,0,1,10-12.57l12,15A17.13,17.13,0,0,0,201.59,818.43Z" transform="translate(-23 -301.33)" style="fill:url(#linear-gradient-14)"/><path d="M233.64,825.76h0l19.28-.1v.1a37.09,37.09,0,0,1-3.56,15.71l-17.29-8.38A17.66,17.66,0,0,0,233.64,825.76Z" transform="translate(-23 -301.33)" style="fill:url(#linear-gradient-15)"/><path d="M199.92,825.76a17.76,17.76,0,0,0,1.67,7.33l-17.28,8.38a35.08,35.08,0,0,1-3.56-15.6Z" transform="translate(-23 -301.33)" style="fill:url(#linear-gradient-16)"/><path d="M208.72,790.57a36,36,0,0,1,16-.11l-4.19,18.75a18.41,18.41,0,0,0-7.54,0Z" transform="translate(-23 -301.33)" style="fill:url(#linear-gradient-17)"/><path d="M213.11,842.21,208.82,861A35.47,35.47,0,0,1,194.36,854L206.31,839A17.86,17.86,0,0,0,213.11,842.21Z" transform="translate(-23 -301.33)" style="fill:url(#linear-gradient-18)"/><rect x="631.2" y="507.88" width="213.16" height="9.11" style="fill:#231f20"/><rect x="631.1" y="515.84" width="233.27" height="9.11" style="fill:#414042"/><path d="M699.66,746.68a2.73,2.73,0,1,1-2.72,2.72A2.77,2.77,0,0,1,699.66,746.68Z" transform="translate(-23 -301.33)"/><path d="M699.66,746.68a2.73,2.73,0,1,1-2.72,2.72A2.77,2.77,0,0,1,699.66,746.68Z" transform="translate(-23 -301.33)"/><path d="M699.66,747.52a1.94,1.94,0,1,1-2,1.88A2,2,0,0,1,699.66,747.52Z" transform="translate(-23 -301.33)"/><path d="M699.66,751.39a1.94,1.94,0,1,1,2-1.88A2,2,0,0,1,699.66,751.39Zm0-.1a1.89,1.89,0,1,0-1.89-1.89A1.88,1.88,0,0,0,699.66,751.29Z" transform="translate(-23 -301.33)"/><path d="M699.66,747.94a1.47,1.47,0,1,1-1.47,1.46A1.5,1.5,0,0,1,699.66,747.94Z" transform="translate(-23 -301.33)"/><path d="M699.66,751a1.57,1.57,0,1,1,1.57-1.57A1.53,1.53,0,0,1,699.66,751Zm0-.21a1.36,1.36,0,1,0-1.36-1.36A1.38,1.38,0,0,0,699.66,750.76Z" transform="translate(-23 -301.33)"/><path d="M727,747a2.73,2.73,0,1,1-2.72,2.73A2.71,2.71,0,0,1,727,747Z" transform="translate(-23 -301.33)"/><path d="M727,747a2.73,2.73,0,1,1-2.72,2.73A2.71,2.71,0,0,1,727,747Z" transform="translate(-23 -301.33)"/><path d="M727,747.83a1.94,1.94,0,1,1-2,1.89A2,2,0,0,1,727,747.83Z" transform="translate(-23 -301.33)"/><path d="M727,751.71a1.94,1.94,0,1,1,2-1.89A2.14,2.14,0,0,1,727,751.71Zm0-.11a1.89,1.89,0,1,0-1.89-1.88A1.87,1.87,0,0,0,727,751.6Z" transform="translate(-23 -301.33)"/><path d="M727,748.25a1.47,1.47,0,1,1-1.47,1.47A1.44,1.44,0,0,1,727,748.25Z" transform="translate(-23 -301.33)"/><path d="M727,751.29a1.57,1.57,0,1,1,1.57-1.57A1.54,1.54,0,0,1,727,751.29Zm0-.21a1.36,1.36,0,1,0-1.36-1.36A1.39,1.39,0,0,0,727,751.08Z" transform="translate(-23 -301.33)"/><path d="M699.66,769.2a2.73,2.73,0,1,1-2.72,2.72A2.7,2.7,0,0,1,699.66,769.2Z" transform="translate(-23 -301.33)"/><path d="M699.66,769.2a2.73,2.73,0,1,1-2.72,2.72A2.7,2.7,0,0,1,699.66,769.2Z" transform="translate(-23 -301.33)"/><path d="M699.66,769.93a1.94,1.94,0,1,1-2,1.89A2,2,0,0,1,699.66,769.93Z" transform="translate(-23 -301.33)"/><path d="M699.66,773.81a1.94,1.94,0,1,1,2-1.89A2,2,0,0,1,699.66,773.81Zm0,0a1.89,1.89,0,1,0-1.89-1.89A1.88,1.88,0,0,0,699.66,773.81Z" transform="translate(-23 -301.33)"/><path d="M699.66,770.46a1.47,1.47,0,1,1-1.47,1.46A1.5,1.5,0,0,1,699.66,770.46Z" transform="translate(-23 -301.33)"/><path d="M699.66,773.49a1.57,1.57,0,1,1,1.57-1.57A1.61,1.61,0,0,1,699.66,773.49Zm0-.21a1.36,1.36,0,1,0-1.36-1.36A1.38,1.38,0,0,0,699.66,773.28Z" transform="translate(-23 -301.33)"/><path d="M727,769.51a2.73,2.73,0,1,1-2.72,2.73A2.71,2.71,0,0,1,727,769.51Z" transform="translate(-23 -301.33)"/><path d="M727,769.51a2.73,2.73,0,1,1-2.72,2.73A2.71,2.71,0,0,1,727,769.51Z" transform="translate(-23 -301.33)"/><path d="M727,770.25a1.94,1.94,0,1,1-2,1.88A2,2,0,0,1,727,770.25Z" transform="translate(-23 -301.33)"/><path d="M727,774.12a1.94,1.94,0,1,1,2-1.88A2,2,0,0,1,727,774.12Zm0,0a1.89,1.89,0,1,0-1.89-1.88A2,2,0,0,0,727,774.12Z" transform="translate(-23 -301.33)"/><path d="M727,770.67a1.47,1.47,0,1,1-1.47,1.46A1.5,1.5,0,0,1,727,770.67Z" transform="translate(-23 -301.33)"/><path d="M727,773.81a1.57,1.57,0,1,1,1.57-1.57A1.61,1.61,0,0,1,727,773.81Zm0-.21a1.36,1.36,0,1,0-1.36-1.36A1.39,1.39,0,0,0,727,773.6Z" transform="translate(-23 -301.33)"/><path d="M584.75,746.68A2.73,2.73,0,1,1,582,749.4,2.7,2.7,0,0,1,584.75,746.68Z" transform="translate(-23 -301.33)"/><path d="M584.75,746.68A2.73,2.73,0,1,1,582,749.4,2.7,2.7,0,0,1,584.75,746.68Z" transform="translate(-23 -301.33)"/><path d="M584.75,747.52a1.94,1.94,0,1,1-2,1.88A2,2,0,0,1,584.75,747.52Z" transform="translate(-23 -301.33)"/><path d="M584.65,751.39a1.94,1.94,0,1,1,2-1.88A2,2,0,0,1,584.65,751.39Zm0-.1a1.89,1.89,0,1,0-1.89-1.89A1.87,1.87,0,0,0,584.65,751.29Z" transform="translate(-23 -301.33)"/><path d="M584.75,747.94a1.47,1.47,0,1,1-1.46,1.46A1.43,1.43,0,0,1,584.75,747.94Z" transform="translate(-23 -301.33)"/><path d="M584.65,751a1.57,1.57,0,1,1,1.57-1.57A1.43,1.43,0,0,1,584.65,751Zm.1-.21a1.36,1.36,0,1,0-1.36-1.36A1.26,1.26,0,0,0,584.75,750.76Z" transform="translate(-23 -301.33)"/><path d="M612,747a2.73,2.73,0,1,1-2.73,2.73A2.71,2.71,0,0,1,612,747Z" transform="translate(-23 -301.33)"/><path d="M612,747a2.73,2.73,0,1,1-2.73,2.73A2.71,2.71,0,0,1,612,747Z" transform="translate(-23 -301.33)"/><path d="M612,747.83a1.94,1.94,0,1,1-2,1.89A2,2,0,0,1,612,747.83Z" transform="translate(-23 -301.33)"/><path d="M612,751.71a1.94,1.94,0,1,1,2-1.89A2,2,0,0,1,612,751.71Zm0-.11a1.89,1.89,0,1,0-1.89-1.88A1.87,1.87,0,0,0,612,751.6Z" transform="translate(-23 -301.33)"/><path d="M612,748.25a1.47,1.47,0,1,1-1.47,1.47A1.5,1.5,0,0,1,612,748.25Z" transform="translate(-23 -301.33)"/><path d="M612,751.29a1.57,1.57,0,1,1,1.57-1.57A1.49,1.49,0,0,1,612,751.29Zm0-.21a1.36,1.36,0,1,0-1.36-1.36A1.39,1.39,0,0,0,612,751.08Z" transform="translate(-23 -301.33)"/><path d="M584.75,769.2a2.73,2.73,0,1,1-2.72,2.72A2.64,2.64,0,0,1,584.75,769.2Z" transform="translate(-23 -301.33)"/><path d="M584.75,769.2a2.73,2.73,0,1,1-2.72,2.72A2.64,2.64,0,0,1,584.75,769.2Z" transform="translate(-23 -301.33)"/><path d="M584.75,769.93a1.94,1.94,0,1,1-2,1.89A2,2,0,0,1,584.75,769.93Z" transform="translate(-23 -301.33)"/><path d="M584.65,773.81a1.94,1.94,0,1,1,2-1.89A2,2,0,0,1,584.65,773.81Zm0,0a1.89,1.89,0,1,0-1.89-1.89A1.87,1.87,0,0,0,584.65,773.81Z" transform="translate(-23 -301.33)"/><path d="M584.75,770.46a1.47,1.47,0,1,1-1.46,1.46A1.43,1.43,0,0,1,584.75,770.46Z" transform="translate(-23 -301.33)"/><path d="M584.65,773.49a1.57,1.57,0,1,1,1.57-1.57A1.48,1.48,0,0,1,584.65,773.49Zm.1-.21a1.36,1.36,0,1,0-1.36-1.36A1.26,1.26,0,0,0,584.75,773.28Z" transform="translate(-23 -301.33)"/><path d="M612,769.51a2.73,2.73,0,1,1-2.73,2.73A2.71,2.71,0,0,1,612,769.51Z" transform="translate(-23 -301.33)"/><path d="M612,769.51a2.73,2.73,0,1,1-2.73,2.73A2.71,2.71,0,0,1,612,769.51Z" transform="translate(-23 -301.33)"/><path d="M612,770.25a1.94,1.94,0,1,1-2,1.88A2,2,0,0,1,612,770.25Z" transform="translate(-23 -301.33)"/><path d="M612,774.12a1.94,1.94,0,1,1,2-1.88A2,2,0,0,1,612,774.12Zm0,0a1.89,1.89,0,1,0-1.89-1.88A2,2,0,0,0,612,774.12Z" transform="translate(-23 -301.33)"/><path d="M612,770.67a1.47,1.47,0,0,1,0,2.93,1.44,1.44,0,0,1-1.47-1.47A1.57,1.57,0,0,1,612,770.67Z" transform="translate(-23 -301.33)"/><path d="M612,773.81a1.57,1.57,0,1,1,1.57-1.57A1.54,1.54,0,0,1,612,773.81Zm0-.21a1.36,1.36,0,1,0-1.36-1.36A1.39,1.39,0,0,0,612,773.6Z" transform="translate(-23 -301.33)"/><path d="M469.74,746.68A2.73,2.73,0,1,1,467,749.4,2.78,2.78,0,0,1,469.74,746.68Z" transform="translate(-23 -301.33)"/><path d="M469.74,746.68A2.73,2.73,0,1,1,467,749.4,2.78,2.78,0,0,1,469.74,746.68Z" transform="translate(-23 -301.33)"/><path d="M469.74,747.52a1.94,1.94,0,1,1-2,1.88A2.05,2.05,0,0,1,469.74,747.52Z" transform="translate(-23 -301.33)"/><path d="M469.74,751.39a1.94,1.94,0,1,1,2-1.88A2,2,0,0,1,469.74,751.39Zm0-.1a1.89,1.89,0,1,0-1.88-1.89A1.88,1.88,0,0,0,469.74,751.29Z" transform="translate(-23 -301.33)"/><path d="M469.74,747.94a1.47,1.47,0,1,1-1.46,1.46A1.43,1.43,0,0,1,469.74,747.94Z" transform="translate(-23 -301.33)"/><path d="M469.74,751a1.57,1.57,0,1,1,1.57-1.57A1.53,1.53,0,0,1,469.74,751Zm0-.21a1.36,1.36,0,1,0-1.36-1.36A1.37,1.37,0,0,0,469.74,750.76Z" transform="translate(-23 -301.33)"/><path d="M497.08,747a2.73,2.73,0,1,1-2.72,2.73A2.65,2.65,0,0,1,497.08,747Z" transform="translate(-23 -301.33)"/><path d="M497.08,747a2.73,2.73,0,1,1-2.72,2.73A2.65,2.65,0,0,1,497.08,747Z" transform="translate(-23 -301.33)"/><path d="M497.08,747.83a1.94,1.94,0,1,1-2,1.89A2,2,0,0,1,497.08,747.83Z" transform="translate(-23 -301.33)"/><path d="M497,751.71a1.94,1.94,0,1,1,2-1.89A2,2,0,0,1,497,751.71Zm0-.11a1.89,1.89,0,1,0-1.89-1.88A1.88,1.88,0,0,0,497,751.6Z" transform="translate(-23 -301.33)"/><path d="M497.08,748.25a1.47,1.47,0,1,1-1.47,1.47A1.44,1.44,0,0,1,497.08,748.25Z" transform="translate(-23 -301.33)"/><path d="M497.08,751.29a1.57,1.57,0,1,1,1.57-1.57A1.54,1.54,0,0,1,497.08,751.29Zm0-.21a1.36,1.36,0,1,0-1.36-1.36A1.26,1.26,0,0,0,497.08,751.08Z" transform="translate(-23 -301.33)"/><path d="M469.74,769.2a2.73,2.73,0,1,1-2.72,2.72A2.7,2.7,0,0,1,469.74,769.2Z" transform="translate(-23 -301.33)"/><path d="M469.74,769.2a2.73,2.73,0,1,1-2.72,2.72A2.7,2.7,0,0,1,469.74,769.2Z" transform="translate(-23 -301.33)"/><path d="M469.74,769.93a1.94,1.94,0,1,1-2,1.89A2.05,2.05,0,0,1,469.74,769.93Z" transform="translate(-23 -301.33)"/><path d="M469.74,773.81a1.94,1.94,0,1,1,2-1.89A2,2,0,0,1,469.74,773.81Zm0,0a1.89,1.89,0,1,0-1.88-1.89A1.88,1.88,0,0,0,469.74,773.81Z" transform="translate(-23 -301.33)"/><path d="M469.74,770.46a1.47,1.47,0,1,1-1.46,1.46A1.43,1.43,0,0,1,469.74,770.46Z" transform="translate(-23 -301.33)"/><path d="M469.74,773.49a1.57,1.57,0,1,1,1.57-1.57A1.61,1.61,0,0,1,469.74,773.49Zm0-.21a1.36,1.36,0,1,0-1.36-1.36A1.37,1.37,0,0,0,469.74,773.28Z" transform="translate(-23 -301.33)"/><path d="M497.08,769.51a2.73,2.73,0,1,1-2.72,2.73A2.65,2.65,0,0,1,497.08,769.51Z" transform="translate(-23 -301.33)"/><path d="M497.08,769.51a2.73,2.73,0,1,1-2.72,2.73A2.65,2.65,0,0,1,497.08,769.51Z" transform="translate(-23 -301.33)"/><path d="M497.08,770.25a1.94,1.94,0,1,1-2,1.88A2,2,0,0,1,497.08,770.25Z" transform="translate(-23 -301.33)"/><path d="M497,774.12a1.94,1.94,0,1,1,2-1.88A1.9,1.9,0,0,1,497,774.12Zm0,0a1.89,1.89,0,1,0-1.89-1.88A2,2,0,0,0,497,774.12Z" transform="translate(-23 -301.33)"/><path d="M497.08,770.67a1.47,1.47,0,1,1-1.47,1.46A1.5,1.5,0,0,1,497.08,770.67Z" transform="translate(-23 -301.33)"/><path d="M497.08,773.81a1.57,1.57,0,1,1,1.57-1.57A1.61,1.61,0,0,1,497.08,773.81Zm0-.21a1.36,1.36,0,1,0-1.36-1.36A1.26,1.26,0,0,0,497.08,773.6Z" transform="translate(-23 -301.33)"/><path d="M288.64,746.68a2.73,2.73,0,1,1-2.73,2.72A2.78,2.78,0,0,1,288.64,746.68Z" transform="translate(-23 -301.33)"/><path d="M288.64,746.68a2.73,2.73,0,1,1-2.73,2.72A2.78,2.78,0,0,1,288.64,746.68Z" transform="translate(-23 -301.33)"/><path d="M288.64,747.52a1.94,1.94,0,1,1-2,1.88A2,2,0,0,1,288.64,747.52Z" transform="translate(-23 -301.33)"/><path d="M288.64,751.39a1.94,1.94,0,1,1,2-1.88A2.05,2.05,0,0,1,288.64,751.39Zm0-.1a1.89,1.89,0,1,0-1.89-1.89A1.88,1.88,0,0,0,288.64,751.29Z" transform="translate(-23 -301.33)"/><path d="M288.64,747.94a1.47,1.47,0,1,1-1.47,1.46A1.42,1.42,0,0,1,288.64,747.94Z" transform="translate(-23 -301.33)"/><path d="M288.64,751a1.57,1.57,0,1,1,1.57-1.57A1.54,1.54,0,0,1,288.64,751Zm0-.21a1.36,1.36,0,1,0-1.37-1.36A1.38,1.38,0,0,0,288.64,750.76Z" transform="translate(-23 -301.33)"/><path d="M316,747a2.73,2.73,0,1,1-2.73,2.73A2.65,2.65,0,0,1,316,747Z" transform="translate(-23 -301.33)"/><path d="M316,747a2.73,2.73,0,1,1-2.73,2.73A2.65,2.65,0,0,1,316,747Z" transform="translate(-23 -301.33)"/><path d="M316,747.83a1.94,1.94,0,1,1-2,1.89A2,2,0,0,1,316,747.83Z" transform="translate(-23 -301.33)"/><path d="M315.87,751.71a1.94,1.94,0,1,1,2-1.89A2,2,0,0,1,315.87,751.71Zm0-.11a1.89,1.89,0,1,0-1.89-1.88A1.88,1.88,0,0,0,315.87,751.6Z" transform="translate(-23 -301.33)"/><path d="M316,748.25a1.47,1.47,0,1,1-1.47,1.47A1.43,1.43,0,0,1,316,748.25Z" transform="translate(-23 -301.33)"/><path d="M315.87,751.29a1.57,1.57,0,1,1,1.57-1.57A1.43,1.43,0,0,1,315.87,751.29Zm.11-.21a1.36,1.36,0,1,0-1.37-1.36A1.27,1.27,0,0,0,316,751.08Z" transform="translate(-23 -301.33)"/><path d="M288.64,769.2a2.73,2.73,0,1,1-2.73,2.72A2.71,2.71,0,0,1,288.64,769.2Z" transform="translate(-23 -301.33)"/><path d="M288.64,769.2a2.73,2.73,0,1,1-2.73,2.72A2.71,2.71,0,0,1,288.64,769.2Z" transform="translate(-23 -301.33)"/><path d="M288.64,769.93a1.94,1.94,0,1,1-2,1.89A2,2,0,0,1,288.64,769.93Z" transform="translate(-23 -301.33)"/><path d="M288.64,773.81a1.94,1.94,0,1,1,2-1.89A2.05,2.05,0,0,1,288.64,773.81Zm0,0a1.89,1.89,0,1,0-1.89-1.89A1.88,1.88,0,0,0,288.64,773.81Z" transform="translate(-23 -301.33)"/><path d="M288.64,770.46a1.47,1.47,0,1,1-1.47,1.46A1.43,1.43,0,0,1,288.64,770.46Z" transform="translate(-23 -301.33)"/><path d="M288.64,773.49a1.57,1.57,0,1,1,1.57-1.57A1.61,1.61,0,0,1,288.64,773.49Zm0-.21a1.36,1.36,0,1,0-1.37-1.36A1.38,1.38,0,0,0,288.64,773.28Z" transform="translate(-23 -301.33)"/><path d="M316,769.51a2.73,2.73,0,1,1-2.73,2.73A2.65,2.65,0,0,1,316,769.51Z" transform="translate(-23 -301.33)"/><path d="M316,769.51a2.73,2.73,0,1,1-2.73,2.73A2.65,2.65,0,0,1,316,769.51Z" transform="translate(-23 -301.33)"/><path d="M316,770.25a1.94,1.94,0,1,1-2,1.88A2,2,0,0,1,316,770.25Z" transform="translate(-23 -301.33)"/><path d="M315.87,774.12a1.94,1.94,0,1,1,2-1.88A2,2,0,0,1,315.87,774.12Zm0,0a1.89,1.89,0,1,0-1.89-1.88A2,2,0,0,0,315.87,774.12Z" transform="translate(-23 -301.33)"/><path d="M316,770.67a1.47,1.47,0,1,1-1.47,1.46A1.5,1.5,0,0,1,316,770.67Z" transform="translate(-23 -301.33)"/><path d="M315.87,773.81a1.57,1.57,0,1,1,1.57-1.57A1.48,1.48,0,0,1,315.87,773.81Zm.11-.21a1.36,1.36,0,1,0-1.37-1.36A1.27,1.27,0,0,0,316,773.6Z" transform="translate(-23 -301.33)"/><path d="M472.57,802.82a5.16,5.16,0,0,0,3.56-1.46,6,6,0,0,0,.42-8.07l-45.46-53.73H161.58L135.71,786a5.81,5.81,0,0,0,1.88,7.85,5.09,5.09,0,0,0,7.33-2l22.73-40.74H426.27l42.22,50A5.81,5.81,0,0,0,472.57,802.82Z" transform="translate(-23 -301.33)" style="fill:#88a84c"/><rect x="632.88" y="484" width="147.9" height="50.59" style="fill:#88a84c"/><polygon points="652.15 463.05 766.11 463.05 766.11 468.6 780.78 468.6 780.78 484 632.88 484 632.88 468.6 652.15 468.6 652.15 463.05" style="fill:#88a84c"/><rect x="783.29" y="491.12" width="51.43" height="43.47" style="fill:#88a84c"/><rect x="803.51" y="525.89" width="11.1" height="1.15" style="fill:#88a84c"/><path d="M832.48,818.22c0,.32.1.52.31.52h2.73c.21,0,.31-.2.31-.52v-4.61c0-.31-.1-.52-.31-.52h-2.73c-.21,0-.31.21-.31.52Z" transform="translate(-23 -301.33)" style="fill:#88a84c"/><path d="M832.37,818.22v-4.61c0-.42.21-.73.42-.73h2.73c.21,0,.42.31.42.73v4.61c0,.42-.21.73-.42.73h-2.73C832.48,819,832.37,818.64,832.37,818.22Zm.42-4.92c-.1,0-.21.1-.21.31v4.61c0,.21.11.32.21.32h2.73c.1,0,.21-.11.21-.32v-4.61c0-.21-.11-.31-.21-.31Z" transform="translate(-23 -301.33)" style="fill:#88a84c"/><path d="M828.29,818.22c0,.32.1.52.31.52h2.73c.21,0,.31-.2.31-.52v-4.61c0-.31-.1-.52-.31-.52H828.6c-.21,0-.31.21-.31.52Z" transform="translate(-23 -301.33)" style="fill:#88a84c"/><path d="M828.18,818.22v-4.61c0-.42.21-.73.42-.73h2.73c.21,0,.42.31.42.73v4.61c0,.42-.21.73-.42.73H828.6C828.39,819,828.18,818.64,828.18,818.22Zm.42-4.92c-.1,0-.21.1-.21.31v4.61c0,.21.11.32.21.32h2.73c.1,0,.21-.11.21-.32v-4.61c0-.21-.11-.31-.21-.31Z" transform="translate(-23 -301.33)" style="fill:#88a84c"/><path d="M872.49,486.8l15.09-26.71a7.5,7.5,0,0,1,2.51-2.62l22.83-14.35a10.72,10.72,0,0,1,8.38-1.36c24,5.87,138.58,35,187.6,66.83,5,3.25-86.83-20.84-95.73-22Z" transform="translate(-23 -301.33)" style="fill:#a7cb64"/><path d="M872.49,506.81l.21-16.34c0-2.41,3.77-4.29,8.49-4.29a15.51,15.51,0,0,1,5.65,1L902,494.14c1.78.83,2.83,2,2.83,3.24v9.43Z" transform="translate(-23 -301.33)" style="fill:#ffb932;stroke:#a97c50;stroke-miterlimit:10;stroke-width:0.36000001430511475px"/><polygon points="856.72 537.63 1130.11 541.19 1148.44 365 856.72 365 856.72 537.63"/><path d="M883.28,777.47a5.3,5.3,0,0,0,5.24-5.44,5.37,5.37,0,0,0-5.24-5.45c-24.93,0-32-9-32.37-13.83V511.42c0-26.92-35.71-32.26-37.18-32.47a5.31,5.31,0,0,0-6,4.71,5.38,5.38,0,0,0,4.5,6.18c.42.11,28.07,4.3,28.07,21.58V752.86C840.33,753.8,840.86,777.47,883.28,777.47Z" transform="translate(-23 -301.33)" style="fill:#231f20"/><rect x="805.81" y="214.8" width="32.68" height="223.95" style="fill:#808285"/><rect x="830.32" y="214.8" width="8.17" height="223.95" style="fill:#6d6e71"/><rect x="805.81" y="378.52" width="32.68" height="11.21" style="fill:#231f20;stroke:#58595b;stroke-miterlimit:10;stroke-width:0.5758000016212463px"/><rect x="805.81" y="247.69" width="32.68" height="11.21" style="fill:#231f20;stroke:#58595b;stroke-miterlimit:10;stroke-width:0.5758000016212463px"/><path d="M1067.53,825.24a73.43,73.43,0,1,1-73.43-73.43A73.45,73.45,0,0,1,1067.53,825.24Z" transform="translate(-23 -301.33)" style="fill:#3d3b3d"/><path d="M1067.53,825.24a73.43,73.43,0,1,1-73.43-73.43A73.45,73.45,0,0,1,1067.53,825.24Z" transform="translate(-23 -301.33)"/><path d="M1057.16,825.24a63,63,0,1,1-63-63A62.95,62.95,0,0,1,1057.16,825.24Z" transform="translate(-23 -301.33)" style="fill:url(#radial-gradient-3)"/><path d="M1048.26,825.24a54,54,0,1,1-54-54A54.05,54.05,0,0,1,1048.26,825.24Z" transform="translate(-23 -301.33)" style="fill:#231f20"/><path d="M1048.26,825.24a54,54,0,1,1-54-54A54.05,54.05,0,0,1,1048.26,825.24Z" transform="translate(-23 -301.33)" style="fill:#3b3a3a"/><path d="M1032.33,825.24a38.13,38.13,0,1,1-38.12-38.13A38.13,38.13,0,0,1,1032.33,825.24Z" transform="translate(-23 -301.33)" style="fill:#fff;stroke:#3d3b3d;stroke-miterlimit:10;stroke-width:0.428600013256073px"/><path d="M1020.71,825.76a26.5,26.5,0,1,1-26.5-26.5A26.46,26.46,0,0,1,1020.71,825.76Z" transform="translate(-23 -301.33)" style="fill:url(#linear-gradient-19)"/><path d="M1004.68,812.56l11.94-15.08A36.31,36.31,0,0,1,1026.68,810l-17.29,8.48A17.42,17.42,0,0,0,1004.68,812.56Z" transform="translate(-23 -301.33)" style="fill:url(#linear-gradient-20)"/><path d="M1016.73,853.94a37.26,37.26,0,0,1-14.46,7L998,842.21a16.06,16.06,0,0,0,6.7-3.25Z" transform="translate(-23 -301.33)" style="fill:url(#linear-gradient-21)"/><path d="M978.91,818.43l-17.38-8.27a36.23,36.23,0,0,1,10-12.57l12,15A18.56,18.56,0,0,0,978.91,818.43Z" transform="translate(-23 -301.33)" style="fill:url(#linear-gradient-22)"/><path d="M1011.07,825.76h0l19.27-.1v.1a36.94,36.94,0,0,1-3.56,15.71l-17.28-8.38A19.59,19.59,0,0,0,1011.07,825.76Z" transform="translate(-23 -301.33)" style="fill:url(#linear-gradient-23)"/><path d="M977.34,825.76a17.78,17.78,0,0,0,1.68,7.33l-17.28,8.38a35.09,35.09,0,0,1-3.57-15.6Z" transform="translate(-23 -301.33)" style="fill:url(#linear-gradient-24)"/><path d="M986,790.57a36,36,0,0,1,16-.11l-4.19,18.75a18.41,18.41,0,0,0-7.54,0Z" transform="translate(-23 -301.33)" style="fill:url(#linear-gradient-25)"/><path d="M990.44,842.21,986.14,861A35.43,35.43,0,0,1,971.69,854L983.63,839A18.63,18.63,0,0,0,990.44,842.21Z" transform="translate(-23 -301.33)" style="fill:url(#linear-gradient-26)"/><path d="M872.49,486.8a1.57,1.57,0,0,1,.73-.21h140.16L1104.82,507a13.2,13.2,0,0,1,8.8,6.6l61.48,110.82a15.14,15.14,0,0,1,1.89,8l-6.81,137.32a1.52,1.52,0,0,1-1.57,1.47h-72.28l-.73-.52a73.39,73.39,0,0,0-66.83-43,62,62,0,0,0-9.95.73H883.49a11.77,11.77,0,0,1-11-7.54v-234Z" transform="translate(-23 -301.33)" style="fill:#88a84c"/><path d="M1156.46,751.6l7.12-119.09A11.71,11.71,0,0,0,1162,626l-59.6-100a11.38,11.38,0,0,0-9.74-5.55h-85.79a11.45,11.45,0,0,0-11.42,11.41v172a11.46,11.46,0,0,0,11.74,11.42c23-.63,73.63,2.61,91.33,40.74a11.35,11.35,0,0,0,10.27,6.5h36.35A11.71,11.71,0,0,0,1156.46,751.6Z" transform="translate(-23 -301.33)" style="fill:none;stroke:#231f20;stroke-miterlimit:10;stroke-width:0.7742000222206116px"/><path d="M1008.45,623.39v-90H1085a12,12,0,0,1,10.06,5.65l55.51,93.12h0a7.27,7.27,0,0,1-8.17,6.81Z" transform="translate(-23 -301.33)" style="fill:#403430"/><line x1="1071.97" y1="237.74" x2="1071.97" y2="331.28" style="fill:none;stroke:#231f20;stroke-miterlimit:10;stroke-width:0.7742000222206116px"/><path d="M1013,639.1h24.09a3.26,3.26,0,0,0,3.25-3.24h0a3.27,3.27,0,0,0-3.25-3.25H1013a3.27,3.27,0,0,0-3.25,3.25h0A3.26,3.26,0,0,0,1013,639.1Z" transform="translate(-23 -301.33)" style="fill:#231f20"/><path d="M908.42,616.17h61.9a3.55,3.55,0,0,0,3.57-3.57V524a3.54,3.54,0,0,0-3.57-3.56h-61.9a3.53,3.53,0,0,0-3.56,3.56V612.5A3.62,3.62,0,0,0,908.42,616.17Z" transform="translate(-23 -301.33)" style="fill:#403430"/><path d="M872.49,746.36a5.86,5.86,0,0,1,6-5.76H1014a77.93,77.93,0,0,1,10-.73,73.44,73.44,0,0,1,66.83,43l.74.53h77.61l-13.3,59.07a29.82,29.82,0,0,1-29.12,23.26h-55.1v-37a77,77,0,0,0-77-77h0a77,77,0,0,0-77,77v37H872.49V746.36Z" transform="translate(-23 -301.33)" style="fill:#a7cb64"/><path d="M910.41,630.52H919a19.58,19.58,0,0,0-5.66.83c3.88,1.16,7,3.46,8.49,6.39l6.91,14.35h-8.59l-6.91-14.35a13.27,13.27,0,0,0-8.49-6.39A19.58,19.58,0,0,1,910.41,630.52Z" transform="translate(-23 -301.33)" style="fill:#a7cb64"/><path d="M920.05,630.52h8.59c6.39,0,12,2.93,14.14,7.22l6.91,14.35H941.1l-6.91-14.35C932.09,633.45,926.44,630.52,920.05,630.52Z" transform="translate(-23 -301.33)" style="fill:#a7cb64"/><path d="M937.54,630.52h8.59c6.39,0,12,2.93,14.14,7.22l6.91,14.35h-8.59l-6.91-14.35C949.58,633.45,943.93,630.52,937.54,630.52Z" transform="translate(-23 -301.33)" style="fill:#a7cb64"/><path d="M1145.56,814.35v4.08a3.71,3.71,0,0,0-1.67-2.72c-2.41,1.88-7.33,3.35-13.62,4L1100,822.93v-4.08l30.27-3.25c6.29-.63,11.11-2.2,13.62-4A3.44,3.44,0,0,1,1145.56,814.35Z" transform="translate(-23 -301.33)" style="fill:#88a84c"/><path d="M1145.56,818.85v4.08c0,3-6.18,5.77-15.29,6.71L1100,832.89V828.8l30.27-3.25C1139.49,824.61,1145.56,821.89,1145.56,818.85Z" transform="translate(-23 -301.33)" style="fill:#88a84c"/><path d="M1145.56,827.23v4.08c0,3-6.18,5.77-15.29,6.71L1100,841.27v-4.09l30.27-3.25C1139.49,832.89,1145.56,830.27,1145.56,827.23Z" transform="translate(-23 -301.33)" style="fill:#88a84c"/><path d="M905.7,715.26c0,.52.31.94.73.94h6.7a.85.85,0,0,0,.74-.94v-8.07a.85.85,0,0,0-.74-.94h-6.7c-.42,0-.73.42-.73.94Z" transform="translate(-23 -301.33)" style="fill:#ed1c24"/><path d="M905.38,715.26v-8.07a1.18,1.18,0,0,1,1-1.26h6.7a1.18,1.18,0,0,1,1,1.26v8.07a1.17,1.17,0,0,1-1,1.25h-6.7A1.18,1.18,0,0,1,905.38,715.26Zm1-8.59a.48.48,0,0,0-.42.52v8.07a.48.48,0,0,0,.42.52h6.7a.48.48,0,0,0,.42-.52v-8.07a.48.48,0,0,0-.42-.52Z" transform="translate(-23 -301.33)" style="fill:#231f20"/><path d="M895.54,715.26c0,.52.31.94.73.94H903a.85.85,0,0,0,.74-.94v-8.07a.85.85,0,0,0-.74-.94h-6.7c-.42,0-.73.42-.73.94Z" transform="translate(-23 -301.33)" style="fill:#aba9a7"/><path d="M895.33,715.26v-8.07a1.18,1.18,0,0,1,1-1.26h6.71a1.18,1.18,0,0,1,1,1.26v8.07a1.16,1.16,0,0,1-1,1.25h-6.81C895.75,716.51,895.33,716,895.33,715.26Zm.94-8.59a.48.48,0,0,0-.42.52v8.07a.48.48,0,0,0,.42.52H903a.48.48,0,0,0,.42-.52v-8.07a.48.48,0,0,0-.42-.52Z" transform="translate(-23 -301.33)" style="fill:#231f20"/></svg>