<svg id="Layer_1" data-name="Layer 1" xmlns="http://www.w3.org/2000/svg" xmlns:xlink="http://www.w3.org/1999/xlink" viewBox="0 0 1152.01 450.45"><defs><linearGradient id="linear-gradient" x1="1111.36" y1="554.9" x2="1120.42" y2="554.9" gradientTransform="translate(1165.61 889.15) rotate(180)" gradientUnits="userSpaceOnUse"><stop offset="0" stop-color="#231f20"/><stop offset="0.41" stop-color="#252122"/><stop offset="0.56" stop-color="#2b2729"/><stop offset="0.67" stop-color="#353334"/><stop offset="0.74" stop-color="#414042"/><stop offset="0.77" stop-color="#4d4d4f"/><stop offset="0.8" stop-color="#555658"/><stop offset="0.85" stop-color="#58595b"/><stop offset="0.92" stop-color="#414042"/></linearGradient><linearGradient id="linear-gradient-2" x1="1120.42" y1="572.35" x2="1136.59" y2="572.35" xlink:href="#linear-gradient"/><radialGradient id="radial-gradient" cx="3671.39" cy="517.4" r="67.6" gradientTransform="translate(4016.39 1200) rotate(180)" xlink:href="#linear-gradient"/><linearGradient id="linear-gradient-3" x1="3636.49" y1="536.1" x2="3660.09" y2="536.1" gradientTransform="translate(4016.39 1200) rotate(180)" gradientUnits="userSpaceOnUse"><stop offset="0.03" stop-color="#6d6e71"/><stop offset="0.25" stop-color="#bcbec0"/><stop offset="0.52" stop-color="#d1d3d4"/><stop offset="0.69" stop-color="#bcbec0"/><stop offset="0.98" stop-color="#58595b"/></linearGradient><linearGradient id="linear-gradient-4" x1="3647.19" y1="491" x2="3667.29" y2="491" xlink:href="#linear-gradient-3"/><linearGradient id="linear-gradient-5" x1="3682.67" y1="535.9" x2="3706.29" y2="535.9" xlink:href="#linear-gradient-3"/><linearGradient id="linear-gradient-6" x1="3632.59" y1="508.55" x2="3655.01" y2="508.55" xlink:href="#linear-gradient-3"/><linearGradient id="linear-gradient-7" x1="3687.65" y1="508.5" x2="3710.08" y2="508.5" xlink:href="#linear-gradient-3"/><linearGradient id="linear-gradient-8" x1="3662.86" y1="545.14" x2="3680.06" y2="545.14" xlink:href="#linear-gradient-3"/><linearGradient id="linear-gradient-9" x1="3675.36" y1="491" x2="3695.47" y2="491" xlink:href="#linear-gradient-3"/><radialGradient id="radial-gradient-2" cx="3848.09" cy="517.4" r="67.6" gradientTransform="translate(4016.39 1200) rotate(180)" xlink:href="#linear-gradient"/><linearGradient id="linear-gradient-10" x1="3813.29" y1="536.1" x2="3836.89" y2="536.1" xlink:href="#linear-gradient-3"/><linearGradient id="linear-gradient-11" x1="3823.95" y1="491" x2="3844.05" y2="491" xlink:href="#linear-gradient-3"/><linearGradient id="linear-gradient-12" x1="3859.43" y1="535.9" x2="3883.06" y2="535.9" xlink:href="#linear-gradient-3"/><linearGradient id="linear-gradient-13" x1="3809.39" y1="508.55" x2="3831.81" y2="508.55" xlink:href="#linear-gradient-3"/><linearGradient id="linear-gradient-14" x1="3864.42" y1="508.5" x2="3886.85" y2="508.5" xlink:href="#linear-gradient-3"/><linearGradient id="linear-gradient-15" x1="3839.62" y1="545.14" x2="3856.82" y2="545.14" xlink:href="#linear-gradient-3"/><linearGradient id="linear-gradient-16" x1="3852.12" y1="491" x2="3872.23" y2="491" xlink:href="#linear-gradient-3"/><radialGradient id="radial-gradient-3" cx="3047.49" cy="517.4" r="67.6" gradientTransform="translate(4016.39 1200) rotate(180)" xlink:href="#linear-gradient"/><linearGradient id="linear-gradient-17" x1="3012.63" y1="536.1" x2="3036.23" y2="536.1" xlink:href="#linear-gradient-3"/><linearGradient id="linear-gradient-18" x1="3023.31" y1="491" x2="3043.41" y2="491" xlink:href="#linear-gradient-3"/><linearGradient id="linear-gradient-19" x1="3058.79" y1="535.9" x2="3082.42" y2="535.9" xlink:href="#linear-gradient-3"/><linearGradient id="linear-gradient-20" x1="3008.73" y1="508.55" x2="3031.16" y2="508.55" xlink:href="#linear-gradient-3"/><linearGradient id="linear-gradient-21" x1="3063.79" y1="508.5" x2="3086.22" y2="508.5" xlink:href="#linear-gradient-3"/><linearGradient id="linear-gradient-22" x1="3038.99" y1="545.14" x2="3056.19" y2="545.14" xlink:href="#linear-gradient-3"/><linearGradient id="linear-gradient-23" x1="3051.49" y1="491" x2="3071.6" y2="491" xlink:href="#linear-gradient-3"/></defs><title>Flat Bed Truck</title><path d="M1163.3,574.8a12.13,12.13,0,0,1,11.9,11.6l.7,13.1a12.21,12.21,0,0,1-10.5,12.9Z" transform="translate(-23.91 -310.85)" style="fill:#ec1c24"/><path d="M1161.5,543.6c7.6-.2,13.7,2.7,14,6.6l.4,7.9c.2,4-5.6,7.5-13.1,8.2Z" transform="translate(-23.91 -310.85)" style="fill:#ec1c24"/><rect x="1158.8" y="526.6" width="5" height="85.9" transform="translate(-54.24 -244.32) rotate(-3.24)" style="fill:#020200"/><path d="M862.3,355.3h223.1V333.7a18.52,18.52,0,0,0-18.5-18.5H871.5a9.18,9.18,0,0,0-9.2,9.2Z" transform="translate(-23.91 -310.85)" style="fill:#a7cb64"/><polygon points="5.69 301.55 5.69 212.25 11.49 212.25 11.49 200.85 27.59 200.85 27.59 316.65 11.49 316.65 11.49 301.55 5.69 301.55" style="fill:#3b3a3a;stroke:#231f20;stroke-miterlimit:10;stroke-width:0.5910000205039978px"/><path d="M52.9,628.9V603.3H90v21.5a10.42,10.42,0,0,1-2.8,7.1L71.4,649.1H24.3V628.9Z" transform="translate(-23.91 -310.85)" style="fill:#3b3a3a;stroke:#231f20;stroke-miterlimit:10;stroke-width:0.7742000222206116px"/><rect x="21.5" y="250.45" width="11.8" height="54.6" style="fill:#3b3a3a;stroke:#231f20;stroke-miterlimit:10;stroke-width:0.7742000222206116px"/><rect x="31.58" y="245.23" width="11.8" height="59.7" style="fill:#3b3a3a;stroke:#231f20;stroke-miterlimit:10;stroke-width:0.7742000222206116px"/><polygon points="846.19 375.55 846.19 201.25 1135.29 201.25 1117.19 375.55 846.19 375.55"/><rect x="54.23" y="263.4" width="1086.9" height="85.5" style="fill:#86a250"/><rect x="29.06" y="224.17" width="754" height="58.2" style="fill:#86a250"/><rect x="423.19" y="256.58" width="345" height="11.2" style="fill:#a7cb64"/><rect x="423.19" y="232.51" width="345" height="11.2" style="fill:#a7cb64"/><rect x="45.16" y="256.58" width="345" height="11.2" style="fill:#a7cb64"/><rect x="45.16" y="232.51" width="345" height="11.2" style="fill:#a7cb64"/><path d="M450.4,670l.9-1.3h14.4l.8,1.3h70.7v-3.7h16.1V670h55.2l.7-1.3h11.3l.7,1.3H864.4a51.15,51.15,0,0,0-.1-18.7l-2.4-12H349.1l1.2,30.8H450.4Z" transform="translate(-23.91 -310.85)" style="fill:#a7cb64"/><rect x="45.19" y="290.95" width="9.1" height="86.6" style="fill:url(#linear-gradient)"/><rect x="205.71" y="333.51" width="50.9" height="9.9" style="fill:#a7cb64"/><rect x="241.99" y="329.1" width="9.8" height="8.7" style="fill:#86a250"/><rect x="227.44" y="331.9" width="9.8" height="8.7" style="fill:#86a250"/><rect x="212.95" y="329.15" width="9.8" height="8.7" style="fill:#86a250"/><rect x="218.53" y="348.07" width="28.3" height="3.3" style="fill:#a7cb64"/><rect x="238.67" y="346.51" width="5.5" height="2.9" style="fill:#86a250"/><rect x="230.52" y="347.51" width="5.5" height="2.9" style="fill:#86a250"/><rect x="222.52" y="346.56" width="5.5" height="2.9" style="fill:#86a250"/><rect x="218.55" y="354.19" width="28.3" height="7.4" style="fill:#a7cb64"/><rect x="238.63" y="350.88" width="5.5" height="6.5" style="fill:#86a250"/><rect x="230.53" y="353.03" width="5.5" height="6.5" style="fill:#86a250"/><rect x="222.49" y="350.92" width="5.5" height="6.5" style="fill:#86a250"/><polygon points="28.99 339.15 45.19 339.15 45.19 294.45 28.99 294.45 28.99 339.15" style="fill:url(#linear-gradient-2)"/><path d="M423.8,682.6A78.75,78.75,0,1,1,345,603.9,78.74,78.74,0,0,1,423.8,682.6Z" transform="translate(-23.91 -310.85)" style="fill:#3d3b3d"/><path d="M423.8,682.6A78.75,78.75,0,1,1,345,603.9,78.74,78.74,0,0,1,423.8,682.6Z" transform="translate(-23.91 -310.85)"/><path d="M412.6,682.6A67.6,67.6,0,1,1,345,615,67.64,67.64,0,0,1,412.6,682.6Z" transform="translate(-23.91 -310.85)" style="fill:url(#radial-gradient)"/><path d="M403,682.6a58,58,0,1,1-58-58A58,58,0,0,1,403,682.6Z" transform="translate(-23.91 -310.85)" style="fill:#231f20"/><path d="M403,682.6a58,58,0,1,1-58-58A58,58,0,0,1,403,682.6Z" transform="translate(-23.91 -310.85)" style="fill:#3b3a3a"/><path d="M386,682.6a41,41,0,1,1-41-41A41,41,0,0,1,386,682.6Z" transform="translate(-23.91 -310.85)" style="fill:#fff;stroke:#3d3b3d;stroke-miterlimit:10;stroke-width:0.428600013256073px"/><path d="M373.5,683.1a28.4,28.4,0,1,1-28.4-28.4A28.38,28.38,0,0,1,373.5,683.1Z" transform="translate(-23.91 -310.85)" style="fill:#f6f6f6"/><path d="M356.3,668.9l12.8-16.2a39,39,0,0,1,10.8,13.4l-18.6,9A18.76,18.76,0,0,0,356.3,668.9Z" transform="translate(-23.91 -310.85)" style="fill:url(#linear-gradient-3)"/><path d="M369.2,713.3a39.24,39.24,0,0,1-15.5,7.5l-4.6-20.1a17.91,17.91,0,0,0,7.2-3.5Z" transform="translate(-23.91 -310.85)" style="fill:url(#linear-gradient-4)"/><path d="M328.7,675.3l-18.6-8.9a39.1,39.1,0,0,1,10.7-13.5L333.7,669A18.16,18.16,0,0,0,328.7,675.3Z" transform="translate(-23.91 -310.85)" style="fill:url(#linear-gradient-5)"/><path d="M363.2,683.1V683h20.6v.1a39,39,0,0,1-3.8,16.8l-18.6-9A19,19,0,0,0,363.2,683.1Z" transform="translate(-23.91 -310.85)" style="fill:url(#linear-gradient-6)"/><path d="M326.9,683.1a17.2,17.2,0,0,0,1.8,7.8l-18.6,9a37.66,37.66,0,0,1-3.9-16.8Z" transform="translate(-23.91 -310.85)" style="fill:url(#linear-gradient-7)"/><path d="M336.3,645.3a39.92,39.92,0,0,1,17.2-.1L349,665.4a18.45,18.45,0,0,0-8.1,0Z" transform="translate(-23.91 -310.85)" style="fill:url(#linear-gradient-8)"/><path d="M341,700.7l-4.6,20.1a40.11,40.11,0,0,1-15.6-7.4l12.9-16.2A19,19,0,0,0,341,700.7Z" transform="translate(-23.91 -310.85)" style="fill:url(#linear-gradient-9)"/><path d="M247,682.6a78.75,78.75,0,1,1-78.8-78.7A78.74,78.74,0,0,1,247,682.6Z" transform="translate(-23.91 -310.85)" style="fill:#3d3b3d"/><path d="M247,682.6a78.75,78.75,0,1,1-78.8-78.7A78.74,78.74,0,0,1,247,682.6Z" transform="translate(-23.91 -310.85)"/><path d="M235.9,682.6A67.6,67.6,0,1,1,168.3,615,67.64,67.64,0,0,1,235.9,682.6Z" transform="translate(-23.91 -310.85)" style="fill:url(#radial-gradient-2)"/><path d="M226.3,682.6a58,58,0,1,1-58-58A58,58,0,0,1,226.3,682.6Z" transform="translate(-23.91 -310.85)" style="fill:#231f20"/><path d="M226.3,682.6a58,58,0,1,1-58-58A58,58,0,0,1,226.3,682.6Z" transform="translate(-23.91 -310.85)" style="fill:#3b3a3a"/><path d="M209.2,682.6a41,41,0,1,1-41-41A41,41,0,0,1,209.2,682.6Z" transform="translate(-23.91 -310.85)" style="fill:#fff;stroke:#3d3b3d;stroke-miterlimit:10;stroke-width:0.428600013256073px"/><path d="M196.7,683.1a28.4,28.4,0,1,1-28.4-28.4A28.38,28.38,0,0,1,196.7,683.1Z" transform="translate(-23.91 -310.85)" style="fill:#f6f6f6"/><path d="M179.5,668.9l12.8-16.2a39,39,0,0,1,10.8,13.4l-18.6,9A17.59,17.59,0,0,0,179.5,668.9Z" transform="translate(-23.91 -310.85)" style="fill:url(#linear-gradient-10)"/><path d="M192.4,713.3a39.24,39.24,0,0,1-15.5,7.5l-4.6-20.1a17.91,17.91,0,0,0,7.2-3.5Z" transform="translate(-23.91 -310.85)" style="fill:url(#linear-gradient-11)"/><path d="M151.9,675.3l-18.6-8.9A39.1,39.1,0,0,1,144,652.9L157,669A17.34,17.34,0,0,0,151.9,675.3Z" transform="translate(-23.91 -310.85)" style="fill:url(#linear-gradient-12)"/><path d="M186.4,683.1V683H207v.1a39,39,0,0,1-3.8,16.8l-18.6-9A17.5,17.5,0,0,0,186.4,683.1Z" transform="translate(-23.91 -310.85)" style="fill:url(#linear-gradient-13)"/><path d="M150.2,683.1a17.2,17.2,0,0,0,1.8,7.8l-18.6,9a37.66,37.66,0,0,1-3.9-16.8Z" transform="translate(-23.91 -310.85)" style="fill:url(#linear-gradient-14)"/><path d="M159.6,645.3a39.92,39.92,0,0,1,17.2-.1l-4.5,20.2a18.45,18.45,0,0,0-8.1,0Z" transform="translate(-23.91 -310.85)" style="fill:url(#linear-gradient-15)"/><path d="M164.3,700.7l-4.6,20.1a40.11,40.11,0,0,1-15.6-7.4L157,697.2A17.69,17.69,0,0,0,164.3,700.7Z" transform="translate(-23.91 -310.85)" style="fill:url(#linear-gradient-16)"/><rect x="613.71" y="354.57" width="228.7" height="9.8" style="fill:#a7cb64"/><rect x="613.71" y="362.96" width="250.2" height="9.8" style="fill:#a7cb64"/><path d="M686.4,598.3a2.9,2.9,0,1,1-2.9,2.9A2.9,2.9,0,0,1,686.4,598.3Z" transform="translate(-23.91 -310.85)"/><path d="M686.4,598.3a2.9,2.9,0,1,1-2.9,2.9A2.9,2.9,0,0,1,686.4,598.3Z" transform="translate(-23.91 -310.85)"/><path d="M686.4,599.2a2.05,2.05,0,1,1-2.1,2A2,2,0,0,1,686.4,599.2Z" transform="translate(-23.91 -310.85)"/><path d="M686.3,603.3a2.1,2.1,0,1,1,2.1-2.1A2.05,2.05,0,0,1,686.3,603.3Zm0-.1a2.05,2.05,0,1,0-2-2.1A2,2,0,0,0,686.3,603.2Z" transform="translate(-23.91 -310.85)"/><path d="M686.4,599.6a1.6,1.6,0,1,1-1.6,1.6A1.58,1.58,0,0,1,686.4,599.6Z" transform="translate(-23.91 -310.85)"/><path d="M686.4,602.9a1.7,1.7,0,1,1,1.7-1.7A1.69,1.69,0,0,1,686.4,602.9Zm0-.2a1.5,1.5,0,1,0-1.5-1.5A1.47,1.47,0,0,0,686.4,602.7Z" transform="translate(-23.91 -310.85)"/><path d="M715.7,598.6a2.9,2.9,0,1,1-2.9,2.9A2.84,2.84,0,0,1,715.7,598.6Z" transform="translate(-23.91 -310.85)"/><path d="M715.7,598.6a2.9,2.9,0,1,1-2.9,2.9A2.84,2.84,0,0,1,715.7,598.6Z" transform="translate(-23.91 -310.85)"/><path d="M715.7,599.5a2.05,2.05,0,1,1-2.1,2A2,2,0,0,1,715.7,599.5Z" transform="translate(-23.91 -310.85)"/><path d="M715.6,603.6a2.1,2.1,0,1,1,2.1-2.1A2.05,2.05,0,0,1,715.6,603.6Zm0,0a2.05,2.05,0,1,0-2-2.1A2.09,2.09,0,0,0,715.6,603.6Z" transform="translate(-23.91 -310.85)"/><path d="M715.7,599.9a1.6,1.6,0,1,1-1.6,1.6A1.58,1.58,0,0,1,715.7,599.9Z" transform="translate(-23.91 -310.85)"/><path d="M715.7,603.2a1.7,1.7,0,1,1,1.7-1.7A1.69,1.69,0,0,1,715.7,603.2Zm0-.2a1.5,1.5,0,1,0-1.5-1.5A1.47,1.47,0,0,0,715.7,603Z" transform="translate(-23.91 -310.85)"/><path d="M686.4,622.4a2.9,2.9,0,1,1-2.9,2.9A2.9,2.9,0,0,1,686.4,622.4Z" transform="translate(-23.91 -310.85)"/><path d="M686.4,622.4a2.9,2.9,0,1,1-2.9,2.9A2.9,2.9,0,0,1,686.4,622.4Z" transform="translate(-23.91 -310.85)"/><path d="M686.4,623.3a2.05,2.05,0,1,1-2.1,2A2,2,0,0,1,686.4,623.3Z" transform="translate(-23.91 -310.85)"/><path d="M686.3,627.4a2.1,2.1,0,1,1,2.1-2.1A2.05,2.05,0,0,1,686.3,627.4Zm0,0a2.05,2.05,0,1,0-2-2.1A2.16,2.16,0,0,0,686.3,627.4Z" transform="translate(-23.91 -310.85)"/><path d="M686.4,623.7a1.6,1.6,0,1,1-1.6,1.6A1.58,1.58,0,0,1,686.4,623.7Z" transform="translate(-23.91 -310.85)"/><path d="M686.4,627a1.7,1.7,0,1,1,1.7-1.7A1.69,1.69,0,0,1,686.4,627Zm0-.2a1.5,1.5,0,1,0-1.5-1.5A1.47,1.47,0,0,0,686.4,626.8Z" transform="translate(-23.91 -310.85)"/><path d="M715.7,622.7a2.9,2.9,0,1,1-2.9,2.9A2.84,2.84,0,0,1,715.7,622.7Z" transform="translate(-23.91 -310.85)"/><path d="M715.7,622.7a2.9,2.9,0,1,1-2.9,2.9A2.84,2.84,0,0,1,715.7,622.7Z" transform="translate(-23.91 -310.85)"/><path d="M715.7,623.6a2.05,2.05,0,1,1-2.1,2A2,2,0,0,1,715.7,623.6Z" transform="translate(-23.91 -310.85)"/><path d="M715.6,627.7a2.1,2.1,0,1,1,2.1-2.1A2.05,2.05,0,0,1,715.6,627.7Zm0,0a2.05,2.05,0,1,0-2-2.1A2.09,2.09,0,0,0,715.6,627.7Z" transform="translate(-23.91 -310.85)"/><path d="M715.7,624.1a1.6,1.6,0,1,1-1.6,1.6A1.47,1.47,0,0,1,715.7,624.1Z" transform="translate(-23.91 -310.85)"/><path d="M715.7,627.3a1.7,1.7,0,1,1,1.7-1.7A1.63,1.63,0,0,1,715.7,627.3Zm0-.2a1.5,1.5,0,1,0-1.5-1.5A1.47,1.47,0,0,0,715.7,627.1Z" transform="translate(-23.91 -310.85)"/><path d="M563,598.3a2.9,2.9,0,1,1-2.9,2.9A2.9,2.9,0,0,1,563,598.3Z" transform="translate(-23.91 -310.85)"/><path d="M563,598.3a2.9,2.9,0,1,1-2.9,2.9A2.9,2.9,0,0,1,563,598.3Z" transform="translate(-23.91 -310.85)"/><path d="M563,599.2a2.05,2.05,0,1,1-2.1,2A2.09,2.09,0,0,1,563,599.2Z" transform="translate(-23.91 -310.85)"/><path d="M563,603.3a2.1,2.1,0,1,1,2.1-2.1A2.11,2.11,0,0,1,563,603.3Zm0-.1a2.05,2.05,0,1,0-2-2.1A2,2,0,0,0,563,603.2Z" transform="translate(-23.91 -310.85)"/><path d="M563,599.6a1.6,1.6,0,1,1-1.6,1.6A1.64,1.64,0,0,1,563,599.6Z" transform="translate(-23.91 -310.85)"/><path d="M563,602.9a1.7,1.7,0,1,1,1.7-1.7A1.69,1.69,0,0,1,563,602.9Zm0-.2a1.5,1.5,0,1,0-1.5-1.5A1.54,1.54,0,0,0,563,602.7Z" transform="translate(-23.91 -310.85)"/><path d="M592.3,598.6a2.9,2.9,0,1,1-2.9,2.9A2.9,2.9,0,0,1,592.3,598.6Z" transform="translate(-23.91 -310.85)"/><path d="M592.3,598.6a2.9,2.9,0,1,1-2.9,2.9A2.9,2.9,0,0,1,592.3,598.6Z" transform="translate(-23.91 -310.85)"/><path d="M592.3,599.5a2.05,2.05,0,1,1-2.1,2A2.09,2.09,0,0,1,592.3,599.5Z" transform="translate(-23.91 -310.85)"/><path d="M592.3,603.6a2.1,2.1,0,1,1,2.1-2.1A2.11,2.11,0,0,1,592.3,603.6Zm0,0a2.05,2.05,0,1,0-2-2.1A2,2,0,0,0,592.3,603.6Z" transform="translate(-23.91 -310.85)"/><path d="M592.3,599.9a1.6,1.6,0,1,1-1.6,1.6A1.64,1.64,0,0,1,592.3,599.9Z" transform="translate(-23.91 -310.85)"/><path d="M592.3,603.2a1.7,1.7,0,1,1,1.7-1.7A1.69,1.69,0,0,1,592.3,603.2Zm0-.2a1.5,1.5,0,1,0-1.5-1.5A1.54,1.54,0,0,0,592.3,603Z" transform="translate(-23.91 -310.85)"/><path d="M563,622.4a2.9,2.9,0,1,1-2.9,2.9A2.9,2.9,0,0,1,563,622.4Z" transform="translate(-23.91 -310.85)"/><path d="M563,622.4a2.9,2.9,0,1,1-2.9,2.9A2.9,2.9,0,0,1,563,622.4Z" transform="translate(-23.91 -310.85)"/><path d="M563,623.3a2.05,2.05,0,1,1-2.1,2A2.16,2.16,0,0,1,563,623.3Z" transform="translate(-23.91 -310.85)"/><path d="M563,627.4a2.1,2.1,0,1,1,2.1-2.1A2.11,2.11,0,0,1,563,627.4Zm0,0a2.05,2.05,0,1,0-2-2.1A2.09,2.09,0,0,0,563,627.4Z" transform="translate(-23.91 -310.85)"/><path d="M563,623.7a1.6,1.6,0,1,1-1.6,1.6A1.64,1.64,0,0,1,563,623.7Z" transform="translate(-23.91 -310.85)"/><path d="M563,627a1.7,1.7,0,1,1,1.7-1.7A1.69,1.69,0,0,1,563,627Zm0-.2a1.5,1.5,0,1,0-1.5-1.5A1.54,1.54,0,0,0,563,626.8Z" transform="translate(-23.91 -310.85)"/><path d="M592.3,622.7a2.9,2.9,0,1,1-2.9,2.9A2.9,2.9,0,0,1,592.3,622.7Z" transform="translate(-23.91 -310.85)"/><path d="M592.3,622.7a2.9,2.9,0,1,1-2.9,2.9A2.9,2.9,0,0,1,592.3,622.7Z" transform="translate(-23.91 -310.85)"/><path d="M592.3,623.6a2.05,2.05,0,1,1-2.1,2A2.09,2.09,0,0,1,592.3,623.6Z" transform="translate(-23.91 -310.85)"/><path d="M592.3,627.7a2.1,2.1,0,1,1,2.1-2.1A2.11,2.11,0,0,1,592.3,627.7Zm0,0a2.05,2.05,0,1,0-2-2.1A2,2,0,0,0,592.3,627.7Z" transform="translate(-23.91 -310.85)"/><path d="M592.3,624.1a1.6,1.6,0,1,1-1.6,1.6A1.52,1.52,0,0,1,592.3,624.1Z" transform="translate(-23.91 -310.85)"/><path d="M592.3,627.3a1.7,1.7,0,1,1,1.7-1.7A1.63,1.63,0,0,1,592.3,627.3Zm0-.2a1.5,1.5,0,1,0-1.5-1.5A1.54,1.54,0,0,0,592.3,627.1Z" transform="translate(-23.91 -310.85)"/><path d="M439.7,598.3a2.9,2.9,0,1,1-2.9,2.9A2.84,2.84,0,0,1,439.7,598.3Z" transform="translate(-23.91 -310.85)"/><path d="M439.7,598.3a2.9,2.9,0,1,1-2.9,2.9A2.84,2.84,0,0,1,439.7,598.3Z" transform="translate(-23.91 -310.85)"/><path d="M439.7,599.2a2.05,2.05,0,1,1-2.1,2A2,2,0,0,1,439.7,599.2Z" transform="translate(-23.91 -310.85)"/><path d="M439.6,603.3a2.1,2.1,0,1,1,2.1-2.1A2.05,2.05,0,0,1,439.6,603.3Zm0-.1a2.05,2.05,0,1,0-2-2.1A2,2,0,0,0,439.6,603.2Z" transform="translate(-23.91 -310.85)"/><path d="M439.7,599.6a1.6,1.6,0,1,1-1.6,1.6A1.58,1.58,0,0,1,439.7,599.6Z" transform="translate(-23.91 -310.85)"/><path d="M439.6,602.9a1.7,1.7,0,1,1,1.7-1.7A1.58,1.58,0,0,1,439.6,602.9Zm.1-.2a1.5,1.5,0,1,0-1.5-1.5A1.47,1.47,0,0,0,439.7,602.7Z" transform="translate(-23.91 -310.85)"/><path d="M469,598.6a2.9,2.9,0,1,1-2.9,2.9A2.84,2.84,0,0,1,469,598.6Z" transform="translate(-23.91 -310.85)"/><path d="M469,598.6a2.9,2.9,0,1,1-2.9,2.9A2.84,2.84,0,0,1,469,598.6Z" transform="translate(-23.91 -310.85)"/><path d="M469,599.5a2.05,2.05,0,1,1-2.1,2A2,2,0,0,1,469,599.5Z" transform="translate(-23.91 -310.85)"/><path d="M468.9,603.6a2.1,2.1,0,1,1,2.1-2.1A2.05,2.05,0,0,1,468.9,603.6Zm0,0a2.05,2.05,0,1,0-2-2.1A2.09,2.09,0,0,0,468.9,603.6Z" transform="translate(-23.91 -310.85)"/><path d="M469,599.9a1.6,1.6,0,1,1-1.6,1.6A1.58,1.58,0,0,1,469,599.9Z" transform="translate(-23.91 -310.85)"/><path d="M468.9,603.2a1.7,1.7,0,1,1,1.7-1.7A1.58,1.58,0,0,1,468.9,603.2Zm0-.2a1.5,1.5,0,1,0-1.5-1.5A1.61,1.61,0,0,0,468.9,603Z" transform="translate(-23.91 -310.85)"/><path d="M439.7,622.4a2.9,2.9,0,1,1-2.9,2.9A2.84,2.84,0,0,1,439.7,622.4Z" transform="translate(-23.91 -310.85)"/><path d="M439.7,622.4a2.9,2.9,0,1,1-2.9,2.9A2.84,2.84,0,0,1,439.7,622.4Z" transform="translate(-23.91 -310.85)"/><path d="M439.7,623.3a2.05,2.05,0,1,1-2.1,2A2,2,0,0,1,439.7,623.3Z" transform="translate(-23.91 -310.85)"/><path d="M439.6,627.4a2.1,2.1,0,1,1,2.1-2.1A2.05,2.05,0,0,1,439.6,627.4Zm0,0a2.05,2.05,0,1,0-2-2.1A2.16,2.16,0,0,0,439.6,627.4Z" transform="translate(-23.91 -310.85)"/><path d="M439.7,623.7a1.6,1.6,0,1,1-1.6,1.6A1.58,1.58,0,0,1,439.7,623.7Z" transform="translate(-23.91 -310.85)"/><path d="M439.6,627a1.7,1.7,0,1,1,1.7-1.7A1.58,1.58,0,0,1,439.6,627Zm.1-.2a1.5,1.5,0,1,0-1.5-1.5A1.47,1.47,0,0,0,439.7,626.8Z" transform="translate(-23.91 -310.85)"/><path d="M469,622.7a2.9,2.9,0,1,1-2.9,2.9A2.84,2.84,0,0,1,469,622.7Z" transform="translate(-23.91 -310.85)"/><path d="M469,622.7a2.9,2.9,0,1,1-2.9,2.9A2.84,2.84,0,0,1,469,622.7Z" transform="translate(-23.91 -310.85)"/><path d="M469,623.6a2.05,2.05,0,1,1-2.1,2A2,2,0,0,1,469,623.6Z" transform="translate(-23.91 -310.85)"/><path d="M468.9,627.7a2.1,2.1,0,1,1,2.1-2.1A2.05,2.05,0,0,1,468.9,627.7Zm0,0a2.05,2.05,0,1,0-2-2.1A2.09,2.09,0,0,0,468.9,627.7Z" transform="translate(-23.91 -310.85)"/><path d="M469,624.1a1.6,1.6,0,1,1-1.6,1.6A1.47,1.47,0,0,1,469,624.1Z" transform="translate(-23.91 -310.85)"/><path d="M468.9,627.3a1.7,1.7,0,1,1,1.7-1.7A1.53,1.53,0,0,1,468.9,627.3Zm0-.2a1.5,1.5,0,1,0-1.5-1.5A1.61,1.61,0,0,0,468.9,627.1Z" transform="translate(-23.91 -310.85)"/><path d="M245.3,622.4a2.9,2.9,0,1,1-2.9,2.9A2.9,2.9,0,0,1,245.3,622.4Z" transform="translate(-23.91 -310.85)"/><path d="M245.3,622.4a2.9,2.9,0,1,1-2.9,2.9A2.9,2.9,0,0,1,245.3,622.4Z" transform="translate(-23.91 -310.85)"/><path d="M245.3,623.3a2.05,2.05,0,1,1-2.1,2A2.16,2.16,0,0,1,245.3,623.3Z" transform="translate(-23.91 -310.85)"/><path d="M245.3,627.4a2.1,2.1,0,1,1,2.1-2.1A2.11,2.11,0,0,1,245.3,627.4Zm0,0a2.05,2.05,0,1,0-2-2.1A2.16,2.16,0,0,0,245.3,627.4Z" transform="translate(-23.91 -310.85)"/><path d="M245.4,623.7a1.6,1.6,0,1,1-1.6,1.6A1.58,1.58,0,0,1,245.4,623.7Z" transform="translate(-23.91 -310.85)"/><path d="M245.3,627a1.7,1.7,0,1,1,1.7-1.7A1.63,1.63,0,0,1,245.3,627Zm0-.2a1.5,1.5,0,1,0-1.5-1.5A1.61,1.61,0,0,0,245.3,626.8Z" transform="translate(-23.91 -310.85)"/><path d="M274.6,622.7a2.9,2.9,0,1,1-2.9,2.9A2.9,2.9,0,0,1,274.6,622.7Z" transform="translate(-23.91 -310.85)"/><path d="M274.6,622.7a2.9,2.9,0,1,1-2.9,2.9A2.9,2.9,0,0,1,274.6,622.7Z" transform="translate(-23.91 -310.85)"/><path d="M274.6,623.6a2.05,2.05,0,1,1-2.1,2A2.16,2.16,0,0,1,274.6,623.6Z" transform="translate(-23.91 -310.85)"/><path d="M274.6,627.7a2.1,2.1,0,1,1,2.1-2.1A2.11,2.11,0,0,1,274.6,627.7Zm0,0a2.05,2.05,0,1,0-2-2.1A2.09,2.09,0,0,0,274.6,627.7Z" transform="translate(-23.91 -310.85)"/><path d="M274.7,624.1a1.6,1.6,0,1,1-1.6,1.6A1.47,1.47,0,0,1,274.7,624.1Z" transform="translate(-23.91 -310.85)"/><path d="M274.6,627.3a1.7,1.7,0,1,1,1.7-1.7A1.58,1.58,0,0,1,274.6,627.3Zm0-.2a1.5,1.5,0,1,0-1.5-1.5A1.54,1.54,0,0,0,274.6,627.1Z" transform="translate(-23.91 -310.85)"/><path d="M442.7,658.5a5.44,5.44,0,0,0,3.9-1.6,6.35,6.35,0,0,0,.4-8.7l-48.8-57.7H109.1L81.3,640.3a6.56,6.56,0,0,0,2,8.5,5.6,5.6,0,0,0,7.9-2.1L115.6,603H393.1l45.3,53.6A5.56,5.56,0,0,0,442.7,658.5Z" transform="translate(-23.91 -310.85)" style="fill:#a7cb64"/><path d="M873.2,631.3a5.9,5.9,0,0,0,0-11.8c-26.7,0-34.4-9.7-34.8-14.8V345.8c0-28.9-38.3-34.6-39.9-34.9a5.86,5.86,0,0,0-1.6,11.6c.4.1,30.1,4.6,30.1,23.2v259C827.2,605.9,827.7,631.3,873.2,631.3Z" transform="translate(-23.91 -310.85)" style="fill:#231f20"/><rect x="790.85" y="40.04" width="35" height="240.3" style="fill:#808285"/><rect x="817.11" y="40.04" width="8.8" height="240.3" style="fill:#6d6e71"/><rect x="790.85" y="215.84" width="35" height="12" style="fill:#231f20;stroke:#58595b;stroke-miterlimit:10;stroke-width:0.5758000016212463px"/><rect x="790.85" y="75.4" width="35" height="12" style="fill:#231f20;stroke:#58595b;stroke-miterlimit:10;stroke-width:0.5758000016212463px"/><path d="M1080.4,341.2l.3.1a14.58,14.58,0,0,1,9.5,7.1l72.9,118.9a17,17,0,0,1,2,8.6l-7.3,147.3a1.64,1.64,0,0,1-1.6,1.6h-77.5l-.8-.6a78.72,78.72,0,0,0-71.7-46.1,94.55,94.55,0,0,0-10.7.7H874.1a12.51,12.51,0,0,1-11.8-8.1V344.1a2.9,2.9,0,0,1,2.9-2.9Z" transform="translate(-23.91 -310.85)" style="fill:#86a250"/><path d="M1143.2,603.5l7.6-127.8a12.35,12.35,0,0,0-1.7-7l-64-107.3a12.26,12.26,0,0,0-10.5-6H982.5a12.18,12.18,0,0,0-12.2,12.2V552.1a12.21,12.21,0,0,0,12.6,12.2c24.7-.7,79,2.8,98,43.7a12,12,0,0,0,11,6.9H1131A12.09,12.09,0,0,0,1143.2,603.5Z" transform="translate(-23.91 -310.85)" style="fill:none;stroke:#231f20;stroke-miterlimit:10;stroke-width:0.7742000222206116px"/><path d="M984.3,466V369.5h82.1a12.34,12.34,0,0,1,10.7,6.1l59.5,99.9h0a7.86,7.86,0,0,1-8.7,7.3Z" transform="translate(-23.91 -310.85)" style="fill:#403430"/><line x1="1053.29" y1="64.65" x2="1053.29" y2="165.05" style="fill:none;stroke:#231f20;stroke-miterlimit:10;stroke-width:0.7742000222206116px"/><path d="M989.2,482.8H1015a3.37,3.37,0,0,0,3.4-3.4h0a3.37,3.37,0,0,0-3.4-3.4H989.2a3.37,3.37,0,0,0-3.4,3.4h0A3.31,3.31,0,0,0,989.2,482.8Z" transform="translate(-23.91 -310.85)" style="fill:#fff"/><path d="M1131.6,709.7H1052V686.4a82.62,82.62,0,0,0-82.6-82.6h0a82.62,82.62,0,0,0-82.6,82.6v23.3H876.3a14.08,14.08,0,0,1-14.1-14.1V597.9a6.08,6.08,0,0,1,6.2-6.1H990.2a74.94,74.94,0,0,1,10.7-.7,78.72,78.72,0,0,1,71.7,46.1l.8.6h83.3l-14.3,63.4h0A11.12,11.12,0,0,1,1131.6,709.7Z" transform="translate(-23.91 -310.85)" style="fill:#a7cb64"/><path d="M1131.5,655.4v4.4a4.08,4.08,0,0,0-1.8-2.9c-2.6,2-7.8,3.6-14.6,4.3l-32.5,3.5v-4.4l32.5-3.5c6.7-.7,12-2.3,14.6-4.3A3.78,3.78,0,0,1,1131.5,655.4Z" transform="translate(-23.91 -310.85)" style="fill:#86a250"/><path d="M1131.5,660.3v4.4c0,3.3-6.6,6.1-16.4,7.2l-32.5,3.5V671l32.5-3.5C1124.9,666.5,1131.5,663.6,1131.5,660.3Z" transform="translate(-23.91 -310.85)" style="fill:#86a250"/><path d="M1131.5,669.2v4.4c0,3.3-6.6,6.1-16.4,7.2l-32.5,3.5v-4.4l32.5-3.5C1124.9,675.4,1131.5,672.5,1131.5,669.2Z" transform="translate(-23.91 -310.85)" style="fill:#86a250"/><path d="M922.5,564.6a1,1,0,0,0,.8,1h7.2a.92.92,0,0,0,.8-1v-8.7a1,1,0,0,0-.8-1h-7.2a.92.92,0,0,0-.8,1Z" transform="translate(-23.91 -310.85)" style="fill:#ed1c24"/><path d="M922.2,564.6v-8.7a1.23,1.23,0,0,1,1.1-1.3h7.2a1.23,1.23,0,0,1,1.1,1.3v8.7a1.23,1.23,0,0,1-1.1,1.3h-7.2A1.16,1.16,0,0,1,922.2,564.6Zm1-9.3a.56.56,0,0,0-.5.6v8.7a.56.56,0,0,0,.5.6h7.2a.56.56,0,0,0,.5-.6v-8.7a.56.56,0,0,0-.5-.6Z" transform="translate(-23.91 -310.85)" style="fill:#231f20"/><path d="M911.6,564.6a1,1,0,0,0,.8,1h7.2a.92.92,0,0,0,.8-1v-8.7a1,1,0,0,0-.8-1h-7.2a.92.92,0,0,0-.8,1Z" transform="translate(-23.91 -310.85)" style="fill:#aba9a7"/><path d="M911.3,564.6v-8.7a1.23,1.23,0,0,1,1.1-1.3h7.2a1.23,1.23,0,0,1,1.1,1.3v8.7a1.23,1.23,0,0,1-1.1,1.3h-7.2A1.23,1.23,0,0,1,911.3,564.6Zm1.1-9.3a.56.56,0,0,0-.5.6v8.7a.56.56,0,0,0,.5.6h7.2a.56.56,0,0,0,.5-.6v-8.7a.56.56,0,0,0-.5-.6Z" transform="translate(-23.91 -310.85)" style="fill:#231f20"/><path d="M1047.7,682.6a78.75,78.75,0,1,1-78.8-78.7A78.74,78.74,0,0,1,1047.7,682.6Z" transform="translate(-23.91 -310.85)" style="fill:#3d3b3d"/><path d="M1047.7,682.6a78.75,78.75,0,1,1-78.8-78.7A78.74,78.74,0,0,1,1047.7,682.6Z" transform="translate(-23.91 -310.85)"/><path d="M1036.5,682.6A67.6,67.6,0,1,1,968.9,615,67.64,67.64,0,0,1,1036.5,682.6Z" transform="translate(-23.91 -310.85)" style="fill:url(#radial-gradient-3)"/><path d="M1026.9,682.6a58,58,0,1,1-58-58A58,58,0,0,1,1026.9,682.6Z" transform="translate(-23.91 -310.85)" style="fill:#231f20"/><path d="M1026.9,682.6a58,58,0,1,1-58-58A58,58,0,0,1,1026.9,682.6Z" transform="translate(-23.91 -310.85)" style="fill:#3b3a3a"/><path d="M1009.9,682.6a41,41,0,1,1-41-41A41,41,0,0,1,1009.9,682.6Z" transform="translate(-23.91 -310.85)" style="fill:#fff;stroke:#3d3b3d;stroke-miterlimit:10;stroke-width:0.428600013256073px"/><path d="M997.3,683.1a28.4,28.4,0,1,1-28.4-28.4A28.38,28.38,0,0,1,997.3,683.1Z" transform="translate(-23.91 -310.85)" style="fill:#f6f6f6"/><path d="M980.1,668.9l12.8-16.2a39,39,0,0,1,10.8,13.4l-18.6,9A16.56,16.56,0,0,0,980.1,668.9Z" transform="translate(-23.91 -310.85)" style="fill:url(#linear-gradient-17)"/><path d="M993.1,713.3a39.24,39.24,0,0,1-15.5,7.5L973,700.7a17.91,17.91,0,0,0,7.2-3.5Z" transform="translate(-23.91 -310.85)" style="fill:url(#linear-gradient-18)"/><path d="M952.6,675.3,934,666.4a39.1,39.1,0,0,1,10.7-13.5L957.6,669A17.08,17.08,0,0,0,952.6,675.3Z" transform="translate(-23.91 -310.85)" style="fill:url(#linear-gradient-19)"/><path d="M987,683.1V683h20.6v.1a39,39,0,0,1-3.8,16.8l-18.6-9A17.5,17.5,0,0,0,987,683.1Z" transform="translate(-23.91 -310.85)" style="fill:url(#linear-gradient-20)"/><path d="M950.8,683.1a17.2,17.2,0,0,0,1.8,7.8l-18.6,9a37.66,37.66,0,0,1-3.9-16.8Z" transform="translate(-23.91 -310.85)" style="fill:url(#linear-gradient-21)"/><path d="M960.2,645.3a39.92,39.92,0,0,1,17.2-.1l-4.5,20.2a18.45,18.45,0,0,0-8.1,0Z" transform="translate(-23.91 -310.85)" style="fill:url(#linear-gradient-22)"/><path d="M964.9,700.7l-4.6,20.1a40.11,40.11,0,0,1-15.6-7.4l12.9-16.2A19,19,0,0,0,964.9,700.7Z" transform="translate(-23.91 -310.85)" style="fill:url(#linear-gradient-23)"/><rect x="615.48" y="328.93" width="158.7" height="54.3" style="fill:#86a250"/><polygon points="636.19 306.45 758.49 306.45 758.49 312.35 774.19 312.35 774.19 328.95 615.49 328.95 615.49 312.35 636.19 312.35 636.19 306.45" style="fill:#a7cb64"/><rect x="776.89" y="336.55" width="55.2" height="46.7" style="fill:#86a250"/><rect x="798.49" y="373.85" width="11.9" height="1.2" style="fill:#86a250"/><path d="M828.8,675c0,.3.1.5.3.5H832c.2,0,.3-.2.3-.5v-4.9c0-.3-.1-.5-.3-.5h-2.9c-.2,0-.3.2-.3.5Z" transform="translate(-23.91 -310.85)" style="fill:#ed1c24"/><path d="M828.7,675v-4.9c0-.4.2-.8.4-.8H832c.2,0,.4.3.4.8V675c0,.4-.2.8-.4.8h-2.9C828.9,675.8,828.7,675.5,828.7,675Zm.4-5.3c-.1,0-.2.2-.2.3v4.9c0,.2.1.3.2.3H832c.1,0,.2-.2.2-.3V670c0-.2-.1-.3-.2-.3Z" transform="translate(-23.91 -310.85)" style="fill:#231f20"/><path d="M824.4,675c0,.3.1.5.3.5h2.9c.2,0,.3-.2.3-.5v-4.9c0-.3-.1-.5-.3-.5h-2.9c-.2,0-.3.2-.3.5Z" transform="translate(-23.91 -310.85)" style="fill:#aba9a7"/><path d="M824.3,675v-4.9c0-.4.2-.8.4-.8h2.9c.2,0,.4.3.4.8V675c0,.4-.2.8-.4.8h-2.9C824.5,675.8,824.3,675.5,824.3,675Zm.4-5.3c-.1,0-.2.2-.2.3v4.9c0,.2.1.3.2.3h2.9c.1,0,.2-.2.2-.3V670c0-.2-.1-.3-.2-.3Z" transform="translate(-23.91 -310.85)" style="fill:#231f20"/><path d="M886.3,358.7h9.2a20,20,0,0,0-6.1.9c4.2,1.2,7.5,3.7,9.1,6.9l7.4,15.4h-9.2l-7.4-15.4c-1.5-3.2-4.9-5.7-9.1-6.9A23.62,23.62,0,0,1,886.3,358.7Z" transform="translate(-23.91 -310.85)" style="fill:#a7cb64"/><path d="M896.7,358.7h9.2c6.9,0,13,3.1,15.2,7.8l7.4,15.4h-9.2l-7.4-15.4C909.6,361.9,903.5,358.7,896.7,358.7Z" transform="translate(-23.91 -310.85)" style="fill:#a7cb64"/><path d="M915.4,358.7h9.2c6.9,0,13,3.1,15.2,7.8l7.4,15.4H938l-7.4-15.4C928.4,361.9,922.3,358.7,915.4,358.7Z" transform="translate(-23.91 -310.85)" style="fill:#a7cb64"/></svg>