<svg id="Layer_1" data-name="Layer 1" xmlns="http://www.w3.org/2000/svg" xmlns:xlink="http://www.w3.org/1999/xlink" viewBox="0 0 1130.5 591.7"><defs><linearGradient id="linear-gradient" x1="139.18" y1="1557.77" x2="139.18" y2="1583.62" gradientTransform="matrix(0, 1, 1, 0, -1423.38, 230.22)" gradientUnits="userSpaceOnUse"><stop offset="0" stop-color="#fff"/><stop offset="1"/></linearGradient><radialGradient id="radial-gradient" cx="-1887.22" cy="339.46" r="6.19" gradientTransform="matrix(-0.79, -0.61, -0.61, 0.79, -628.85, -768.74)" xlink:href="#linear-gradient"/><radialGradient id="radial-gradient-2" cx="-1972.9" cy="274.04" r="6.19" gradientTransform="matrix(-0.79, -0.61, -0.61, 0.79, -628.85, -768.74)" xlink:href="#linear-gradient"/><radialGradient id="radial-gradient-3" cx="-2058.58" cy="208.63" r="6.2" gradientTransform="matrix(-0.79, -0.61, -0.61, 0.79, -628.85, -768.74)" xlink:href="#linear-gradient"/><radialGradient id="radial-gradient-4" cx="-2144.25" cy="143.22" r="6.2" gradientTransform="matrix(-0.79, -0.61, -0.61, 0.79, -628.85, -768.74)" xlink:href="#linear-gradient"/><radialGradient id="radial-gradient-5" cx="-2229.93" cy="77.81" r="6.2" gradientTransform="matrix(-0.79, -0.61, -0.61, 0.79, -628.85, -768.74)" xlink:href="#linear-gradient"/><radialGradient id="radial-gradient-6" cx="-1762.91" cy="156.65" r="6.2" gradientTransform="matrix(-0.79, -0.61, -0.61, 0.79, -628.85, -768.74)" xlink:href="#linear-gradient"/><radialGradient id="radial-gradient-7" cx="-2135.83" cy="-226.49" r="3.29" gradientTransform="matrix(0.5, -0.86, -0.86, -0.5, 1258.86, -1569.12)" xlink:href="#linear-gradient"/><radialGradient id="radial-gradient-8" cx="-2181.32" cy="-261.22" r="3.29" gradientTransform="matrix(0.5, -0.86, -0.86, -0.5, 1258.86, -1569.12)" xlink:href="#linear-gradient"/><radialGradient id="radial-gradient-9" cx="-2226.82" cy="-295.95" r="3.29" gradientTransform="matrix(0.5, -0.86, -0.86, -0.5, 1258.86, -1569.12)" xlink:href="#linear-gradient"/><radialGradient id="radial-gradient-10" cx="-1920.93" cy="383.61" r="6.19" gradientTransform="matrix(-0.79, -0.61, -0.61, 0.79, -628.85, -768.74)" xlink:href="#linear-gradient"/><radialGradient id="radial-gradient-11" cx="-2006.61" cy="318.2" r="6.2" gradientTransform="matrix(-0.79, -0.61, -0.61, 0.79, -628.85, -768.74)" xlink:href="#linear-gradient"/><radialGradient id="radial-gradient-12" cx="-2092.3" cy="252.79" r="6.2" gradientTransform="matrix(-0.79, -0.61, -0.61, 0.79, -628.85, -768.74)" xlink:href="#linear-gradient"/><radialGradient id="radial-gradient-13" cx="-2177.97" cy="187.38" r="6.2" gradientTransform="matrix(-0.79, -0.61, -0.61, 0.79, -628.85, -768.74)" xlink:href="#linear-gradient"/><radialGradient id="radial-gradient-14" cx="-2249.98" cy="104.08" r="6.2" gradientTransform="matrix(-0.79, -0.61, -0.61, 0.79, -628.85, -768.74)" xlink:href="#linear-gradient"/><radialGradient id="radial-gradient-15" cx="-2280.63" cy="53.53" r="6.19" gradientTransform="matrix(-0.79, -0.61, -0.61, 0.79, -628.85, -768.74)" xlink:href="#linear-gradient"/></defs><title>Road Rollar</title><path d="M571.3,486.3h-101A5.34,5.34,0,0,1,465,481V463.4a5.34,5.34,0,0,1,5.3-5.3h101a5.34,5.34,0,0,1,5.3,5.3V481A5.34,5.34,0,0,1,571.3,486.3Z" transform="translate(-34.7 -230.7)" style="fill:#1a1b20"/><circle cx="904.89" cy="633.91" r="182.2" transform="translate(-217.91 594.82) rotate(-45)" style="fill:#d5cccc"/><path d="M904.9,822.4c-104,0-188.5-84.6-188.5-188.5S801,445.4,904.9,445.4s188.5,84.6,188.5,188.5S1008.9,822.4,904.9,822.4Zm0-364.3c-96.9,0-175.8,78.9-175.8,175.8S808,809.7,904.9,809.7s175.8-78.9,175.8-175.8S1001.8,458.1,904.9,458.1Z" transform="translate(-34.7 -230.7)" style="fill:#d5cccc"/><circle cx="870.19" cy="403.21" r="160.9" style="fill:#312527"/><circle cx="870.19" cy="403.21" r="152" style="fill:#f6f6f6"/><circle cx="904.89" cy="633.91" r="143.3" transform="translate(-217.9 594.82) rotate(-45)" style="fill:#f6f6f6;opacity:0.6000000238418579;isolation:isolate"/><path d="M968.8,495.9a172.84,172.84,0,0,1,35,25.1c28.3,26,40.5,64.6,42.2,101.9a109.32,109.32,0,0,1-12.4,55.5,107.63,107.63,0,0,1-29.8,46.4,108,108,0,0,1-46.4,29.8A108.3,108.3,0,0,1,901.9,767c-39,0-73.7-16.3-101.9-42.2s-40.5-64.6-42.2-101.9a109.32,109.32,0,0,1,12.4-55.5,131.76,131.76,0,0,1,5.6-14,151.92,151.92,0,1,0,193-57.5Z" transform="translate(-34.7 -230.7)" style="fill:#dad1d1;opacity:0.6000000238418579;isolation:isolate"/><path d="M639.7,548.2c.7-1.5,1.4-2.9,2.1-4.4H613.2l-3.6-55.9c-.6-6.8-1.1-13.1-1.5-19-3.5-44.9-5.3-67.4-19.3-67.4h-3v-2.2h18.3c17.1,0,22.8,18.6,34.1,55.5,2.8,9.2,6,19.7,9.9,31.1L659,519.5c1-1.1,2-2.2,3.1-3.2l-10.3-31.9c-3.8-11.4-7-21.8-9.8-31-11.6-37.7-18-58.5-37.8-58.5H582l-2.7,153.4h2.6v.3h31.6v-.3h26.2Zm-53.9-4.4V405.9h2.9c10.4,0,12.2,22.5,15.4,63.3.5,5.9,1,12.3,1.5,19l3.6,55.6Z" transform="translate(-34.7 -230.7)" style="fill:#a7cb64"/><path d="M681,358.6l-64.4,35.3a1.44,1.44,0,0,1-1.8-.5l-3.1-5.6a1.44,1.44,0,0,1,.5-1.8l64.4-35.3a1.44,1.44,0,0,1,1.8.5l3.1,5.6A1.44,1.44,0,0,1,681,358.6Z" transform="translate(-34.7 -230.7)" style="fill:#231f20"/><path d="M677.2,404.8l-19.6,10.7a1.44,1.44,0,0,1-1.8-.5l-19.5-35.7a1.44,1.44,0,0,1,.5-1.8l19.6-10.7a1.44,1.44,0,0,1,1.8.5L677.7,403A1.37,1.37,0,0,1,677.2,404.8Z" transform="translate(-34.7 -230.7)" style="fill:#231f20"/><path d="M515,243.6l-49.7,5.9a.45.45,0,0,0-.4.3l-61.6,141,21.6,153h22l-21.5-153,61.6-141c.1-.2.2-.3.4-.3l27.7-3.3v-2.6Z" transform="translate(-34.7 -230.7)" style="fill:#88a84c"/><polygon points="732 362.1 484.8 350.5 484.8 461.6 732 470.6 732 362.1" style="fill:#a7cb64"/><path d="M691.2,402.9c-3-2.5-8.7-2.3-13.4.5l-25.2,15.1,5.8,57.7-28,18.8v54.3l2.1,4.8L759,477.6Z" transform="translate(-34.7 -230.7)" style="fill:#a7cb64"/><path d="M702.7,632.9l-2.8-.3L685,627.3l-32.5,2-40.8,28.2H590.9v39.8H702.7Z" transform="translate(-34.7 -230.7)" style="fill:#88a84c"/><path d="M627.2,642.4l-56-3.3v9.7h36.7v8.9H571.2v3.7h36.7v8.9H571.2V674h36.7v8.9H571.2v3.7h36.7v8.9H571.2v6.2h13.9c10.7,0,20.8-.4,29.4-1.1a13.86,13.86,0,0,0,12.7-13.9V642.4Z" transform="translate(-34.7 -230.7)" style="fill:#a7cb64"/><path d="M142,405.1V333.7a1.79,1.79,0,0,1,1.8-1.8h16.6a1.79,1.79,0,0,1,1.8,1.8v71.4a1.79,1.79,0,0,1-1.8,1.8H143.8A1.79,1.79,0,0,1,142,405.1Z" transform="translate(-34.7 -230.7)" style="fill:url(#linear-gradient)"/><path d="M138.4,491.3V394.5a2.43,2.43,0,0,1,2.4-2.4h22.5a2.43,2.43,0,0,1,2.4,2.4v96.8a2.43,2.43,0,0,1-2.4,2.4H140.8A2.43,2.43,0,0,1,138.4,491.3Z" transform="translate(-34.7 -230.7)" style="fill:#1a1b20"/><path d="M133.6,400h0a4.91,4.91,0,0,1,4.9-4.9h27.2a4.91,4.91,0,0,1,4.9,4.9h0a4.91,4.91,0,0,1-4.9,4.9H138.5A4.84,4.84,0,0,1,133.6,400Z" transform="translate(-34.7 -230.7)" style="fill:#1a1b20"/><path d="M419.6,370.8,34.7,507.8V617.9a14.65,14.65,0,0,0,8.9,13.5l168.6,72.3H565.5A11.5,11.5,0,0,0,577,692.2V548.5H469.2Z" transform="translate(-34.7 -230.7)" style="fill:#a7cb64"/><polygon points="615.6 478.3 615.6 382 681.1 333.9 1111.1 360.6 1130.5 436.5 975.6 495.6 615.6 478.3" style="fill:#88a84c"/><polygon points="1111.1 360.6 1058.5 357.3 1058.5 382.5 744.3 382.5 744.3 337.8 681.1 333.9 615.6 382 615.6 406.5 1122.8 406.5 1111.1 360.6" style="fill:#a7cb64"/><path d="M371.3,389.9l16.1,42.7L313.1,585H89.3a30.31,30.31,0,0,1-27.5-17.5L34.7,509.6" transform="translate(-34.7 -230.7)" style="fill:#88a84c"/><rect x="556.6" y="13.7" width="8.7" height="1.8" style="fill:#faaa28"/><rect x="556.6" y="15.5" width="8.7" height="4.1" style="fill:#faaa28"/><rect x="464.9" y="15.5" width="91.7" height="4.1" style="fill:#faaa28"/><path d="M567.8,470.9H493l-18.9-69.2a14.74,14.74,0,0,0-18-9.1l-32.8,9.5,50.1,146.3h84.1l25.4-53A16.87,16.87,0,0,0,567.8,470.9Z" transform="translate(-34.7 -230.7)" style="fill:#88a84c"/><path d="M292.5,462.8a.82.82,0,0,0,.8.9h6.9a.88.88,0,0,0,.8-.9v-7.7a.82.82,0,0,0-.8-.9h-6.9a.88.88,0,0,0-.8.9Z" transform="translate(-34.7 -230.7)" style="fill:#ed1c24"/><path d="M292.3,462.8v-7.7a1.2,1.2,0,0,1,1.1-1.2h6.9a1.13,1.13,0,0,1,1.1,1.2v7.7a1.2,1.2,0,0,1-1.1,1.2h-6.9A1.13,1.13,0,0,1,292.3,462.8Zm1-8.3a.47.47,0,0,0-.5.5v7.7a.47.47,0,0,0,.5.5h6.9a.47.47,0,0,0,.5-.5V455a.47.47,0,0,0-.5-.5Z" transform="translate(-34.7 -230.7)" style="fill:#231f20"/><path d="M282,462.8a.82.82,0,0,0,.8.9h6.9a.88.88,0,0,0,.8-.9v-7.7a.82.82,0,0,0-.8-.9h-6.9a.88.88,0,0,0-.8.9Z" transform="translate(-34.7 -230.7)" style="fill:#aba9a7"/><path d="M281.7,462.8v-7.7a1.2,1.2,0,0,1,1.1-1.2h6.9a1.13,1.13,0,0,1,1.1,1.2v7.7a1.2,1.2,0,0,1-1.1,1.2h-6.9A1.2,1.2,0,0,1,281.7,462.8Zm1.1-8.3a.47.47,0,0,0-.5.5v7.7a.47.47,0,0,0,.5.5h6.9a.47.47,0,0,0,.5-.5V455a.47.47,0,0,0-.5-.5Z" transform="translate(-34.7 -230.7)" style="fill:#231f20"/><path d="M1062.5,602.8a1,1,0,0,0,1,1.1h8.8a1.1,1.1,0,0,0,1-1.1v-9.9a1,1,0,0,0-1-1.1h-8.8a1.1,1.1,0,0,0-1,1.1Z" transform="translate(-34.7 -230.7)" style="fill:#ed1c24"/><path d="M1062.2,602.8v-9.9a1.44,1.44,0,0,1,1.3-1.5h8.8a1.44,1.44,0,0,1,1.3,1.5v9.9a1.44,1.44,0,0,1-1.3,1.5h-8.8A1.44,1.44,0,0,1,1062.2,602.8Zm1.3-10.6a.67.67,0,0,0-.6.7v9.9a.67.67,0,0,0,.6.7h8.8a.67.67,0,0,0,.6-.7v-9.9a.67.67,0,0,0-.6-.7Z" transform="translate(-34.7 -230.7)" style="fill:#231f20"/><path d="M1049.1,602.8a1,1,0,0,0,1,1.1h8.8a1.1,1.1,0,0,0,1-1.1v-9.9a1,1,0,0,0-1-1.1h-8.8a1.1,1.1,0,0,0-1,1.1Z" transform="translate(-34.7 -230.7)" style="fill:#aba9a7"/><path d="M1048.8,602.8v-9.9a1.44,1.44,0,0,1,1.3-1.5h8.8a1.44,1.44,0,0,1,1.3,1.5v9.9a1.44,1.44,0,0,1-1.3,1.5h-8.8A1.44,1.44,0,0,1,1048.8,602.8Zm1.3-10.6a.67.67,0,0,0-.6.7v9.9a.67.67,0,0,0,.6.7h8.8a.67.67,0,0,0,.6-.7v-9.9a.67.67,0,0,0-.6-.7Z" transform="translate(-34.7 -230.7)" style="fill:#231f20"/><path d="M645.1,562H473.8L403.7,373.5a9.59,9.59,0,0,1,18-6.6l65.4,176H639l104.8-72.1a9.57,9.57,0,1,1,10.8,15.8Z" transform="translate(-34.7 -230.7)" style="fill:#88a84c"/><path d="M501.1,241.7l-49.7,5.9a.45.45,0,0,0-.4.3L391.3,384.6a16.61,16.61,0,0,0-1.2,9.1L411,542h22L411.5,389l61.6-141c.1-.2.2-.3.4-.3l27.7-3.3v-2.7Z" transform="translate(-34.7 -230.7)" style="fill:#a7cb64"/><path d="M403.4,269.8V264c0-12.1,10.1-21.9,22.6-21.9l254.2-11.4c12.5,0,22.6,11.8,22.6,26.3v12.8Z" transform="translate(-34.7 -230.7)" style="fill:#a7cb64"/><path d="M157.5,514.7V498.5a.9.9,0,0,1,.9-.9h3.5a.9.9,0,0,1,.9.9v16.2a.9.9,0,0,1-.9.9h-3.5C157.9,515.7,157.5,515.2,157.5,514.7Z" transform="translate(-34.7 -230.7)" style="fill:#a7cb64"/><path d="M146.8,514.7V498.5a.9.9,0,0,1,.9-.9h3.5a.9.9,0,0,1,.9.9v16.2a.9.9,0,0,1-.9.9h-3.5C147.2,515.7,146.8,515.2,146.8,514.7Z" transform="translate(-34.7 -230.7)" style="fill:#a7cb64"/><path d="M136,514.7V498.5a.9.9,0,0,1,.9-.9h3.5a.9.9,0,0,1,.9.9v16.2a.9.9,0,0,1-.9.9H137A.87.87,0,0,1,136,514.7Z" transform="translate(-34.7 -230.7)" style="fill:#a7cb64"/><path d="M125.3,514.7V498.5a.9.9,0,0,1,.9-.9h3.5a.9.9,0,0,1,.9.9v16.2a.9.9,0,0,1-.9.9h-3.5C125.7,515.7,125.3,515.2,125.3,514.7Z" transform="translate(-34.7 -230.7)" style="fill:#a7cb64"/><path d="M114.5,514.7V498.5a.9.9,0,0,1,.9-.9h3.5a.9.9,0,0,1,.9.9v16.2a.9.9,0,0,1-.9.9h-3.5C115,515.7,114.5,515.2,114.5,514.7Z" transform="translate(-34.7 -230.7)" style="fill:#a7cb64"/><path d="M103.8,514.7V498.5a.9.9,0,0,1,.9-.9h3.5a.9.9,0,0,1,.9.9v16.2a.9.9,0,0,1-.9.9h-3.5C104.2,515.7,103.8,515.2,103.8,514.7Z" transform="translate(-34.7 -230.7)" style="fill:#a7cb64"/><path d="M93,514.7V498.5a.9.9,0,0,1,.9-.9h3.5a.9.9,0,0,1,.9.9v16.2a.9.9,0,0,1-.9.9H94A.92.92,0,0,1,93,514.7Z" transform="translate(-34.7 -230.7)" style="fill:#a7cb64"/><path d="M157.5,538.9V522.7a.9.9,0,0,1,.9-.9h3.5a.9.9,0,0,1,.9.9v16.2a.9.9,0,0,1-.9.9h-3.5A.9.9,0,0,1,157.5,538.9Z" transform="translate(-34.7 -230.7)" style="fill:#a7cb64"/><path d="M146.8,538.9V522.7a.9.9,0,0,1,.9-.9h3.5a.9.9,0,0,1,.9.9v16.2a.9.9,0,0,1-.9.9h-3.5A.9.9,0,0,1,146.8,538.9Z" transform="translate(-34.7 -230.7)" style="fill:#a7cb64"/><path d="M136,538.9V522.7a.9.9,0,0,1,.9-.9h3.5a.9.9,0,0,1,.9.9v16.2a.9.9,0,0,1-.9.9H137A.92.92,0,0,1,136,538.9Z" transform="translate(-34.7 -230.7)" style="fill:#a7cb64"/><path d="M125.3,538.9V522.7a.9.9,0,0,1,.9-.9h3.5a.9.9,0,0,1,.9.9v16.2a.9.9,0,0,1-.9.9h-3.5A.9.9,0,0,1,125.3,538.9Z" transform="translate(-34.7 -230.7)" style="fill:#a7cb64"/><path d="M114.5,538.9V522.7a.9.9,0,0,1,.9-.9h3.5a.9.9,0,0,1,.9.9v16.2a.9.9,0,0,1-.9.9h-3.5A1,1,0,0,1,114.5,538.9Z" transform="translate(-34.7 -230.7)" style="fill:#a7cb64"/><path d="M103.8,538.9V522.7a.9.9,0,0,1,.9-.9h3.5a.9.9,0,0,1,.9.9v16.2a.9.9,0,0,1-.9.9h-3.5A.9.9,0,0,1,103.8,538.9Z" transform="translate(-34.7 -230.7)" style="fill:#a7cb64"/><path d="M93,538.9V522.7a.9.9,0,0,1,.9-.9h3.5a.9.9,0,0,1,.9.9v16.2a.9.9,0,0,1-.9.9H94A1,1,0,0,1,93,538.9Z" transform="translate(-34.7 -230.7)" style="fill:#a7cb64"/><path d="M157.5,563.1V546.9a.9.9,0,0,1,.9-.9h3.5a.9.9,0,0,1,.9.9v16.2a.9.9,0,0,1-.9.9h-3.5A.9.9,0,0,1,157.5,563.1Z" transform="translate(-34.7 -230.7)" style="fill:#a7cb64"/><path d="M146.8,563.1V546.9a.9.9,0,0,1,.9-.9h3.5a.9.9,0,0,1,.9.9v16.2a.9.9,0,0,1-.9.9h-3.5A.9.9,0,0,1,146.8,563.1Z" transform="translate(-34.7 -230.7)" style="fill:#a7cb64"/><path d="M136,563.1V546.9a.9.9,0,0,1,.9-.9h3.5a.9.9,0,0,1,.9.9v16.2a.9.9,0,0,1-.9.9H137A.92.92,0,0,1,136,563.1Z" transform="translate(-34.7 -230.7)" style="fill:#a7cb64"/><path d="M125.3,563.1V546.9a.9.9,0,0,1,.9-.9h3.5a.9.9,0,0,1,.9.9v16.2a.9.9,0,0,1-.9.9h-3.5A.9.9,0,0,1,125.3,563.1Z" transform="translate(-34.7 -230.7)" style="fill:#a7cb64"/><path d="M114.5,563.1V546.9a.9.9,0,0,1,.9-.9h3.5a.9.9,0,0,1,.9.9v16.2a.9.9,0,0,1-.9.9h-3.5A1,1,0,0,1,114.5,563.1Z" transform="translate(-34.7 -230.7)" style="fill:#a7cb64"/><path d="M103.8,563.1V546.9a.9.9,0,0,1,.9-.9h3.5a.9.9,0,0,1,.9.9v16.2a.9.9,0,0,1-.9.9h-3.5A.9.9,0,0,1,103.8,563.1Z" transform="translate(-34.7 -230.7)" style="fill:#a7cb64"/><path d="M93,563.1V546.9a.9.9,0,0,1,.9-.9h3.5a.9.9,0,0,1,.9.9v16.2a.9.9,0,0,1-.9.9H94A1,1,0,0,1,93,563.1Z" transform="translate(-34.7 -230.7)" style="fill:#a7cb64"/><path d="M660.2,642.5a6.21,6.21,0,1,1,1.2,8.7A6.22,6.22,0,0,1,660.2,642.5Z" transform="translate(-34.7 -230.7)" style="fill:url(#radial-gradient)"/><path d="M768,642.5a6.21,6.21,0,1,1,1.2,8.7A6.13,6.13,0,0,1,768,642.5Z" transform="translate(-34.7 -230.7)" style="fill:url(#radial-gradient-2)"/><path d="M875.8,642.5a6.21,6.21,0,1,1,1.2,8.7A6.13,6.13,0,0,1,875.8,642.5Z" transform="translate(-34.7 -230.7)" style="fill:url(#radial-gradient-3)"/><path d="M983.6,642.5a6.21,6.21,0,1,1,1.2,8.7A6.13,6.13,0,0,1,983.6,642.5Z" transform="translate(-34.7 -230.7)" style="fill:url(#radial-gradient-4)"/><path d="M1091.4,642.5a6.21,6.21,0,1,1,1.2,8.7A6.13,6.13,0,0,1,1091.4,642.5Z" transform="translate(-34.7 -230.7)" style="fill:url(#radial-gradient-5)"/><path d="M672.3,421.7a6.21,6.21,0,1,1,1.2,8.7A6.31,6.31,0,0,1,672.3,421.7Z" transform="translate(-34.7 -230.7)" style="fill:url(#radial-gradient-6)"/><path d="M384,388.8a3.29,3.29,0,1,1-4.5,1.2A3.27,3.27,0,0,1,384,388.8Z" transform="translate(-34.7 -230.7)" style="fill:url(#radial-gradient-7)"/><path d="M391.2,445.6a3.29,3.29,0,1,1-4.5,1.2A3.27,3.27,0,0,1,391.2,445.6Z" transform="translate(-34.7 -230.7)" style="fill:url(#radial-gradient-8)"/><path d="M398.4,502.4a3.29,3.29,0,1,1-4.5,1.2A3.27,3.27,0,0,1,398.4,502.4Z" transform="translate(-34.7 -230.7)" style="fill:url(#radial-gradient-9)"/><path d="M660.2,698a6.21,6.21,0,1,1,1.2,8.7A6.22,6.22,0,0,1,660.2,698Z" transform="translate(-34.7 -230.7)" style="fill:url(#radial-gradient-10)"/><path d="M768,698a6.21,6.21,0,1,1,1.2,8.7A6.13,6.13,0,0,1,768,698Z" transform="translate(-34.7 -230.7)" style="fill:url(#radial-gradient-11)"/><path d="M875.8,698a6.21,6.21,0,1,1,1.2,8.7A6.13,6.13,0,0,1,875.8,698Z" transform="translate(-34.7 -230.7)" style="fill:url(#radial-gradient-12)"/><path d="M983.6,698a6.21,6.21,0,1,1,1.2,8.7A6.13,6.13,0,0,1,983.6,698Z" transform="translate(-34.7 -230.7)" style="fill:url(#radial-gradient-13)"/><path d="M1091.4,675.5a6.21,6.21,0,1,1,1.2,8.7A6.13,6.13,0,0,1,1091.4,675.5Z" transform="translate(-34.7 -230.7)" style="fill:url(#radial-gradient-14)"/><path d="M1146.4,653.9a6.21,6.21,0,1,1,1.2,8.7A6.11,6.11,0,0,1,1146.4,653.9Z" transform="translate(-34.7 -230.7)" style="fill:url(#radial-gradient-15)"/><circle cx="299.3" cy="429.9" r="155.7" style="fill:#382f2d"/><circle cx="299.3" cy="429.9" r="136.4" style="fill:#312527"/><circle cx="299.3" cy="429.9" r="77.8" style="fill:#f6f6f6"/><circle cx="299.3" cy="429.9" r="55.4" style="fill:#d5cccc"/><circle cx="299.28" cy="429.94" r="41.5" style="fill:#f6f6f6"/><rect x="276.8" y="268.1" width="37.2" height="13" style="fill:#382f2d"/><rect x="258.68" y="509.5" width="37.2" height="13" transform="translate(-194.45 -104.76) rotate(-20)" style="fill:#382f2d"/><rect x="212.63" y="537.69" width="37.2" height="13" transform="translate(-330.41 45.26) rotate(-40)" style="fill:#382f2d"/><rect x="179.03" y="579.88" width="37.2" height="13" transform="translate(-443.7 233.63) rotate(-60)" style="fill:#382f2d"/><rect x="161.8" y="630.99" width="37.2" height="13" transform="translate(-513.43 473.79) rotate(-80)" style="fill:#382f2d"/><rect x="175.24" y="672.85" width="13" height="37.2" transform="matrix(0.98, -0.17, 0.17, 0.98, -151.98, -188.65)" style="fill:#382f2d"/><rect x="195" y="723.04" width="13" height="37.2" transform="translate(-378.53 -30.58) rotate(-30)" style="fill:#382f2d"/><rect x="230.71" y="763.55" width="13" height="37.2" transform="translate(-549.11 230.38) rotate(-50)" style="fill:#382f2d"/><rect x="278.05" y="789.31" width="13" height="37.2" transform="translate(-606.65 568.3) rotate(-70)" style="fill:#382f2d"/><rect x="284.68" y="578.68" width="37.2" height="13" style="fill:#382f2d"/><rect x="372.23" y="798.67" width="37.2" height="13" transform="translate(-286.5 -48.48) rotate(-20)" style="fill:#382f2d"/><rect x="418.24" y="770.67" width="37.2" height="13" transform="translate(-432.07 231.95) rotate(-40)" style="fill:#382f2d"/><rect x="451.92" y="728.42" width="37.2" height="13" transform="translate(-435.9 544.23) rotate(-60)" style="fill:#382f2d"/><rect x="469.06" y="677.32" width="37.2" height="13" transform="translate(-305.14 814.67) rotate(-80)" style="fill:#382f2d"/><rect x="479.83" y="611.18" width="13" height="37.2" transform="translate(-136.65 -136.71) rotate(-10)" style="fill:#382f2d"/><rect x="460.12" y="561" width="13" height="37.2" transform="translate(-261.99 80.27) rotate(-30)" style="fill:#382f2d"/><rect x="424.35" y="520.58" width="13" height="37.2" transform="translate(-293.83 291.92) rotate(-50)" style="fill:#382f2d"/><rect x="377" y="494.79" width="13" height="37.2" transform="translate(-264.79 467.49) rotate(-70)" style="fill:#382f2d"/><path d="M340.9,597.5a8,8,0,1,1-8-8A8,8,0,0,1,340.9,597.5Z" transform="translate(-34.7 -230.7)" style="fill:#382f2d"/><path d="M297.6,608.4a8,8,0,1,1-11.2-1A8,8,0,0,1,297.6,608.4Z" transform="translate(-34.7 -230.7)" style="fill:#382f2d"/><path d="M271.5,644.6a8,8,0,1,1-9.2,6.5A7.92,7.92,0,0,1,271.5,644.6Z" transform="translate(-34.7 -230.7)" style="fill:#382f2d"/><path d="M274.8,689.1a8,8,0,1,1-2.9,10.9A8,8,0,0,1,274.8,689.1Z" transform="translate(-34.7 -230.7)" style="fill:#382f2d"/><path d="M305.9,721.1a8,8,0,1,1,4.8,10.2A7.94,7.94,0,0,1,305.9,721.1Z" transform="translate(-34.7 -230.7)" style="fill:#382f2d"/><path d="M350.3,725.6a8,8,0,1,1,10.2,4.8A8.1,8.1,0,0,1,350.3,725.6Z" transform="translate(-34.7 -230.7)" style="fill:#382f2d"/><path d="M387.2,700.5a8,8,0,1,1,10.9-2.9A8,8,0,0,1,387.2,700.5Z" transform="translate(-34.7 -230.7)" style="fill:#382f2d"/><path d="M399.3,657.6a8,8,0,1,1,6.5-9.2A8,8,0,0,1,399.3,657.6Z" transform="translate(-34.7 -230.7)" style="fill:#382f2d"/><path d="M381,616.9a8,8,0,1,1-1-11.2A7.85,7.85,0,0,1,381,616.9Z" transform="translate(-34.7 -230.7)" style="fill:#382f2d"/><path d="M562.5,689.6H505a4.8,4.8,0,0,1-4.8-4.8V589.7a4.8,4.8,0,0,1,4.8-4.8h57.6a4.8,4.8,0,0,1,4.8,4.8v95.1A4.89,4.89,0,0,1,562.5,689.6Z" transform="translate(-34.7 -230.7)" style="fill:#88a84c"/></svg>