<?xml version="1.0" encoding="utf-8"?>
<!-- Generator: Adobe Illustrator 23.0.1, SVG Export Plug-In . SVG Version: 6.00 Build 0)  -->
<svg version="1.1" id="Layer_1" xmlns="http://www.w3.org/2000/svg" xmlns:xlink="http://www.w3.org/1999/xlink" x="0px" y="0px"
	 viewBox="0 0 1200 1200" style="enable-background:new 0 0 1200 1200;" xml:space="preserve">
<style type="text/css">
	.st0{display:none;}
	.st1{display:inline;}
	.st2{fill:url(#SVGID_1_);}
	.st3{fill:#1A1B20;}
	.st4{fill:url(#SVGID_2_);}
	.st5{fill:#88A84C;}
	.st6{fill:#A7CB64;}
	.st7{fill:none;stroke:#414042;stroke-width:1.8778;stroke-miterlimit:10;}
	.st8{fill:#414042;}
	.st9{fill:url(#SVGID_3_);}
	.st10{fill:url(#SVGID_4_);}
	.st11{fill:#403430;}
	.st12{fill:#312527;stroke:#414042;stroke-width:0.95;stroke-miterlimit:10;}
	.st13{fill:#312527;stroke:#414042;stroke-width:1.2105;stroke-miterlimit:10;}
	.st14{fill:#939598;}
	.st15{fill:url(#SVGID_5_);}
	.st16{fill:#414042;stroke:#3D3B3D;stroke-width:0.4;stroke-miterlimit:10;}
	.st17{fill:#231F20;}
	.st18{fill:#3B3A3A;}
	.st19{fill:url(#SVGID_6_);}
	.st20{fill:#414042;stroke:#3D3B3D;stroke-width:9.794500e-02;stroke-miterlimit:10;}
	.st21{fill:url(#SVGID_7_);}
	.st22{fill:none;stroke:#3B3A3A;stroke-width:4.517;stroke-miterlimit:10;}
	.st23{fill:#58595B;}
	.st24{fill:#3D3B3D;}
	.st25{fill:url(#SVGID_8_);}
	.st26{fill:#414042;stroke:#3D3B3D;stroke-width:8.377800e-02;stroke-miterlimit:10;}
	.st27{fill:url(#SVGID_9_);}
	.st28{fill:url(#SVGID_10_);}
	.st29{fill:url(#SVGID_11_);}
	.st30{fill:url(#SVGID_12_);}
	.st31{fill:url(#SVGID_13_);}
	.st32{fill:url(#SVGID_14_);}
	.st33{fill:url(#SVGID_15_);}
	.st34{fill:url(#SVGID_16_);}
	.st35{fill:url(#SVGID_17_);}
	.st36{fill:url(#SVGID_18_);}
	.st37{fill:#ED1C24;}
	.st38{fill:#ABA9A7;}
</style>
<g class="st0">
	<path class="st1" d="M944.2,598.3c-1.6,0-2.9,1.3-2.9,2.9c0,1.6,1.3,2.9,2.9,2.9c1.6,0,2.9-1.3,2.9-2.9
		C947.1,599.6,945.8,598.3,944.2,598.3z"/>
	<path class="st1" d="M944.2,598.3c-1.6,0-2.9,1.3-2.9,2.9c0,1.6,1.3,2.9,2.9,2.9c1.6,0,2.9-1.3,2.9-2.9
		C947.1,599.6,945.8,598.3,944.2,598.3z"/>
	<g class="st1">
		<path d="M944.2,599.2c-1.1,0-2,0.9-2,2.1c0,1.1,0.9,2,2.1,2c1.1,0,2-0.9,2-2.1C946.2,600.1,945.3,599.1,944.2,599.2z"/>
		<path d="M942.1,601.2c0-1.1,0.9-2.1,2.1-2.1c1.1,0,2.1,0.9,2.1,2.1c0,1.1-0.9,2.1-2.1,2.1C943.1,603.3,942.1,602.4,942.1,601.2z
			 M946.2,601.2c0-1.1-0.9-2-2.1-2c-1.1,0-2,0.9-2,2.1c0,1.1,0.9,2,2.1,2C945.3,603.2,946.2,602.3,946.2,601.2z"/>
	</g>
	<g class="st1">
		<g>
			<path d="M944.2,599.6c-0.9,0-1.6,0.7-1.6,1.6c0,0.9,0.7,1.6,1.6,1.6c0.9,0,1.6-0.7,1.6-1.6S945,599.6,944.2,599.6z"/>
			<path d="M942.5,601.2c0-0.9,0.7-1.7,1.7-1.7c0.9,0,1.7,0.7,1.7,1.7c0,0.9-0.7,1.7-1.7,1.7C943.3,602.9,942.5,602.2,942.5,601.2z
				 M945.7,601.2c0-0.8-0.7-1.5-1.5-1.5s-1.5,0.7-1.5,1.5s0.7,1.5,1.5,1.5S945.7,602,945.7,601.2z"/>
		</g>
	</g>
</g>
<g class="st0">
	<path class="st1" d="M914.9,598.6c-1.6,0-2.9,1.3-2.9,2.9c0,1.6,1.3,2.9,2.9,2.9c1.6,0,2.9-1.3,2.9-2.9
		C917.8,599.9,916.5,598.6,914.9,598.6z"/>
	<path class="st1" d="M914.9,598.6c-1.6,0-2.9,1.3-2.9,2.9c0,1.6,1.3,2.9,2.9,2.9c1.6,0,2.9-1.3,2.9-2.9
		C917.8,599.9,916.5,598.6,914.9,598.6z"/>
	<g class="st1">
		<path d="M914.9,599.5c-1.1,0-2,0.9-2,2.1c0,1.1,0.9,2,2.1,2c1.1,0,2-0.9,2-2.1C917,600.4,916,599.5,914.9,599.5z"/>
		<path d="M912.8,601.6c0-1.1,0.9-2.1,2.1-2.1c1.1,0,2.1,0.9,2.1,2.1c0,1.1-0.9,2.1-2.1,2.1C913.8,603.6,912.8,602.7,912.8,601.6z
			 M916.9,601.5c0-1.1-0.9-2-2.1-2c-1.1,0-2,0.9-2,2.1c0,1.1,0.9,2,2.1,2C916,603.6,917,602.6,916.9,601.5z"/>
	</g>
	<g class="st1">
		<g>
			<path d="M914.9,599.9c-0.9,0-1.6,0.7-1.6,1.6c0,0.9,0.7,1.6,1.6,1.6c0.9,0,1.6-0.7,1.6-1.6C916.5,600.6,915.7,599.9,914.9,599.9z
				"/>
			<path d="M913.2,601.6c0-0.9,0.7-1.7,1.7-1.7c0.9,0,1.7,0.7,1.7,1.7c0,0.9-0.7,1.7-1.7,1.7C914,603.2,913.2,602.5,913.2,601.6z
				 M916.4,601.5c0-0.8-0.7-1.5-1.5-1.5s-1.5,0.7-1.5,1.5s0.7,1.5,1.5,1.5S916.4,602.3,916.4,601.5z"/>
		</g>
	</g>
</g>
<g>
	
		<linearGradient id="SVGID_1_" gradientUnits="userSpaceOnUse" x1="1730.7045" y1="2853.2202" x2="1730.7045" y2="2860.8086" gradientTransform="matrix(1 0 0 -1 -1231.1045 3365.3784)">
		<stop  offset="0" style="stop-color:#FFFFFF"/>
		<stop  offset="1" style="stop-color:#000000"/>
	</linearGradient>
	<path class="st2" d="M514.7,509.9h-30.2c-0.5,0-0.8-0.4-0.8-0.8v-4.3c0-0.5,0.4-0.8,0.8-0.8h30.2c0.5,0,0.8,0.4,0.8,0.8v4.3
		C515.5,509.5,515.2,509.9,514.7,509.9z"/>
	<path class="st3" d="M551.3,511h-41c-0.6,0-1.1-0.5-1.1-1.1v-5.8c0-0.6,0.5-1.1,1.1-1.1h41c0.6,0,1.1,0.5,1.1,1.1v5.8
		C552.4,510.5,551.9,511,551.3,511z"/>
	<path class="st3" d="M513.8,512.4h-2.5c-0.5,0-0.9-0.4-0.9-0.9v-9.2c0-0.5,0.4-0.9,0.9-0.9h2.5c0.5,0,0.9,0.4,0.9,0.9v9.2
		C514.7,512,514.3,512.4,513.8,512.4z"/>
	
		<linearGradient id="SVGID_2_" gradientUnits="userSpaceOnUse" x1="-243.4086" y1="2932.0364" x2="-243.4086" y2="2948.3083" gradientTransform="matrix(-2.6723 1.0301 0.5054 1.3112 -1357.5662 -3183.9199)">
		<stop  offset="0" style="stop-color:#FFFFFF"/>
		<stop  offset="1" style="stop-color:#000000"/>
	</linearGradient>
	<path class="st4" d="M677.9,454.4l198.6-76.6c2-0.8,4.3,0.2,5.1,2.3l3.6,9.4c0.8,2-0.2,4.3-2.3,5.1l-198.6,76.6
		c-2,0.8-4.3-0.2-5.1-2.3l-3.6-9.4C674.9,457.4,675.9,455.2,677.9,454.4z"/>
	<path class="st5" d="M439.6,542.8L708.9,439c2.7-1.1,5.8,0.3,6.9,3.1l4.9,12.7c1.1,2.7-0.3,5.8-3.1,6.9L448.3,565.5
		c-2.7,1.1-5.8-0.3-6.9-3.1l-4.9-12.7C435.5,547,436.9,543.9,439.6,542.8z"/>
	<path class="st6" d="M681.9,444.9l17.1-6.6c2.7-1.1,5.8,0.3,6.9,3l8,20.7c1.1,2.7-0.3,5.8-3,6.9l-17.1,6.6c-2.7,1.1-5.8-0.3-6.9-3
		l-8-20.7C677.8,449,679.2,445.9,681.9,444.9z"/>
	<polygon class="st6" points="975,298.8 335.1,298.8 376.6,384.4 975,384.4 1005.2,384.4 1005.2,360.6 	"/>
	<path class="st5" d="M805.6,305.2h84.8c2.4,0,4.8,0.8,6.7,2.2l69.4,49.8c3,2.2,4.8,5.7,4.8,9.4l0,0c0,5-3.2,9.4-7.9,11l-118.2,39.3
		c-5.8,1.9-12.1-1-14.4-6.6l-36-89.1C791.8,313.5,797.4,305.2,805.6,305.2z"/>
	<path class="st6" d="M534.1,482h27c0.8,0,1.5,0.2,2.1,0.7l22.1,15.8c1,0.7,1.5,1.8,1.5,3l0,0c0,1.6-1,3-2.5,3.5l-37.6,12.5
		c-1.8,0.6-3.8-0.3-4.6-2.1l-11.4-28.3C529.7,484.7,531.4,482,534.1,482z"/>
	<circle class="st6" cx="842.6" cy="343.4" r="24.5"/>
	<circle class="st6" cx="899.4" cy="351.9" r="16.1"/>
	<rect x="1125.7" y="423.8" class="st7" width="39.2" height="189.5"/>
	<polygon class="st5" points="1085.3,384.4 1114.1,384.4 1114.1,373.3 1084,311.5 1055.1,311.5 1085.3,373.3 	"/>
	<rect x="1065.9" y="317.8" class="st6" width="15.8" height="4.1"/>
	<rect x="1090.6" y="378.6" class="st6" width="15.8" height="4.1"/>
	<polygon class="st6" points="1056.8,384.4 1085.7,384.4 1085.7,367 1055.5,305.2 1026.7,305.2 1056.8,367 	"/>
	<rect x="1037.5" y="311.5" class="st5" width="15.8" height="4.1"/>
	<rect x="1062.2" y="372.3" class="st5" width="15.8" height="4.1"/>
	<polygon class="st5" points="1003.3,298.8 974.4,298.8 1004.6,360.6 1004.6,384.4 1033.5,384.4 1033.5,360.6 	"/>
	<rect x="985.3" y="305.2" class="st6" width="15.8" height="4.1"/>
	<rect x="1009.9" y="365.9" class="st6" width="15.8" height="4.1"/>
	<polygon class="st5" points="1028.5,298.8 999.6,298.8 1029.8,360.6 1029.8,384.4 1058.7,384.4 1058.7,360.6 	"/>
	<rect x="1010.5" y="305.2" class="st6" width="15.8" height="4.1"/>
	<rect x="1035.2" y="365.9" class="st6" width="15.8" height="4.1"/>
	<polygon class="st6" points="1081.7,311.2 1098.5,311.2 1145.4,338.6 1145.4,441.6 1139.1,441.6 1103.2,384.9 1103.2,352.3 	"/>
	<path class="st5" d="M1153.4,355.9l-0.1-18.8c0-1.5-1.2-2.8-2.7-2.8l-23.8-1.3c-2-0.1-3.5,1.9-2.9,3.8l6.8,19.9
		c0.2,0.6,0.6,1.1,1,1.4l4.7,3.4v47.8h17V355.9L1153.4,355.9z"/>
	<path class="st6" d="M1163.1,413.4l-0.8-14.5c-0.1-1-0.9-1.7-1.8-1.7l-12.1-0.1V397h-6.9v6.4c-9.7,1.7-17,10.2-17,20.3
		c0,11.4,9.3,20.7,20.7,20.7s20.7-9.3,20.7-20.7C1165.9,420,1164.9,416.5,1163.1,413.4z"/>
	<path class="st6" d="M1154,423.6c0,4.9-3.9,8.8-8.8,8.8s-8.8-3.9-8.8-8.8s3.9-8.8,8.8-8.8S1154,418.8,1154,423.6z"/>
	<path class="st5" d="M1145.2,435.2c-6.4,0-11.6-5.2-11.6-11.6s5.2-11.6,11.6-11.6s11.6,5.2,11.6,11.6
		C1156.8,430,1151.6,435.2,1145.2,435.2z M1145.2,417.6c-3.3,0-6,2.7-6,6s2.7,6,6,6s6-2.7,6-6
		C1151.2,420.3,1148.6,417.6,1145.2,417.6z"/>
	<path class="st5" d="M1138.6,666.7V680c0,0.9-0.4,1.8-1,2.4l-13.3,12.3c-0.7,0.6-1,1.5-1,2.4v12c0,0.9,0.3,1.7,0.9,2.3l12.4,12.4
		c0.6,0.6,1.4,0.9,2.3,0.9h10.5c0.9,0,1.7-0.3,2.3-0.9l12.4-12.4c0.6-0.6,0.9-1.4,0.9-2.3v-12.2c0-0.8,0.3-1.6,0.8-2.2l2.1-2.3
		c0.8-0.9,1-2.2,0.6-3.4l0,0c-0.9-2.1-3.6-2.7-5.3-1l-3.1,3.1c-0.2,0.2-0.5,0.5-0.6,0.8l-6.3,12.5c-0.5,1.1-1.7,1.8-2.9,1.8h-7.4
		c-1.8,0-3.2-1.4-3.2-3.2v-7.6c0-0.9,0.3-1.7,0.9-2.3l11.3-11.3c0.6-0.6,0.9-1.4,0.9-2.3v-12.8c0-1.8-1.4-3.2-3.2-3.2h-7.8
		C1140,663.5,1138.6,664.9,1138.6,666.7z"/>
	<path class="st5" d="M1149.4,725.2h-10.5c-1,0-2-0.4-2.7-1.1l-12.4-12.4c-0.7-0.7-1.1-1.7-1.1-2.7v-12c0-1,0.4-2,1.2-2.8l13.3-12.3
		c0.5-0.5,0.9-1.2,0.9-2v-13.3c0-2.1,1.7-3.8,3.8-3.8h7.8c2.1,0,3.8,1.7,3.8,3.8v12.9c0,1-0.4,2-1.1,2.7l-11.3,11.3
		c-0.5,0.5-0.8,1.2-0.8,1.9v7.6c0,1.5,1.2,2.7,2.7,2.7h7.4c1,0,2-0.6,2.4-1.5l6.3-12.5c0.2-0.4,0.4-0.7,0.7-1l3.1-3.1
		c0.9-0.9,2.2-1.3,3.4-1c1.2,0.2,2.3,1.1,2.7,2.2c0.6,1.3,0.3,2.9-0.7,4l-2.1,2.3c-0.4,0.5-0.7,1.1-0.7,1.8v12.2c0,1-0.4,2-1.1,2.7
		l-12.4,12.4C1151.3,724.9,1150.4,725.2,1149.4,725.2z M1141.8,664c-1.5,0-2.7,1.2-2.7,2.7V680c0,1-0.4,2-1.2,2.8l-13.3,12.3
		c-0.5,0.5-0.9,1.2-0.9,2v12c0,0.7,0.3,1.4,0.8,1.9l12.4,12.4c0.5,0.5,1.2,0.8,1.9,0.8h10.5c0.7,0,1.4-0.3,1.9-0.8l12.4-12.4
		c0.5-0.5,0.8-1.2,0.8-1.9v-12.2c0-0.9,0.3-1.8,1-2.5l2.1-2.3c0.7-0.8,0.9-1.9,0.5-2.8c-0.4-0.8-1.1-1.4-2-1.6
		c-0.9-0.2-1.8,0.1-2.4,0.7l-3.1,3.1c-0.2,0.2-0.4,0.4-0.5,0.7l-6.3,12.5c-0.6,1.3-1.9,2.1-3.4,2.1h-7.4c-2.1,0-3.8-1.7-3.8-3.8
		v-7.6c0-1,0.4-2,1.1-2.7l11.3-11.3c0.5-0.5,0.8-1.2,0.8-1.9v-12.9c0-1.5-1.2-2.7-2.7-2.7h-7.8V664z"/>
	<path class="st6" d="M1173.6,614.7l-11.2-19.7c-2.1-3.7-6.1-6-10.3-6h-4.1c-0.2,0-0.3,0-0.5,0c-1.5,0.3-2.9,0.3-4.4,0
		c-0.2,0-0.3,0-0.5,0h-4.1c-4.3,0-8.2,2.3-10.3,6l-11.2,19.7c-1.8,3.1-2,6.9-0.7,10.2l17.7,45.3c0.2,0.4,0.4,0.8,0.8,1.1l0,0
		c1.6,3.1,4.7,5,8.2,5h4.8c3.4,0,6.6-1.9,8.2-5l0,0c0.3-0.3,0.6-0.7,0.8-1.1l17.7-45.3C1175.6,621.6,1175.4,617.8,1173.6,614.7z"/>
	<path class="st5" d="M1147.6,676.8h-4.8c-3.6,0-6.9-2-8.6-5.2c-0.4-0.3-0.6-0.7-0.8-1.2l-17.7-45.3c-1.4-3.5-1.1-7.4,0.8-10.7
		l11.2-19.7c2.2-3.9,6.3-6.3,10.8-6.3h4.1c0.2,0,0.4,0,0.6,0.1c1.4,0.3,2.8,0.3,4.2,0c0.2,0,0.4-0.1,0.6-0.1h4.1
		c4.5,0,8.6,2.4,10.8,6.3l11.2,19.7c1.9,3.3,2.1,7.2,0.8,10.7l-17.7,45.3c-0.2,0.5-0.5,0.9-0.8,1.2
		C1154.6,674.8,1151.3,676.8,1147.6,676.8z M1138.4,589.5c-4.1,0-7.9,2.2-9.9,5.7l-11.2,19.7c-1.7,3-2,6.6-0.7,9.8l17.7,45.3
		c0.1,0.3,0.3,0.6,0.6,0.9l0.1,0.2c1.5,2.9,4.4,4.7,7.7,4.7h4.8c3.3,0,6.2-1.8,7.7-4.7l0.1-0.2c0.3-0.2,0.5-0.5,0.6-0.9l17.7-45.3
		c1.3-3.2,1-6.8-0.7-9.8l-11.2-19.7c-2-3.5-5.8-5.7-9.9-5.7h-4.1c-0.1,0-0.3,0-0.4,0c-1.5,0.3-3.1,0.3-4.6,0c-0.1,0-0.3,0-0.4,0
		H1138.4z"/>
	<rect x="1142.6" y="602.9" class="st5" width="5.3" height="21"/>
	<path class="st5" d="M1148.4,624.4h-6.4v-22h6.4V624.4z M1143.1,623.3h4.2v-19.9h-4.2V623.3z"/>
	<circle class="st5" cx="1145.2" cy="662.8" r="7.3"/>
	<path class="st5" d="M1145.2,671.5c-4.8,0-8.7-3.9-8.7-8.7s3.9-8.7,8.7-8.7c4.8,0,8.7,3.9,8.7,8.7
		C1153.9,667.6,1150,671.5,1145.2,671.5z M1145.2,656.9c-3.2,0-5.9,2.6-5.9,5.9c0,3.2,2.6,5.9,5.9,5.9s5.9-2.6,5.9-5.9
		C1151.1,659.6,1148.5,656.9,1145.2,656.9z"/>
	<rect x="1132.8" y="581.1" class="st8" width="24.8" height="16.9"/>
	<path class="st5" d="M1158.2,598.5h-25.9v-18h25.9V598.5z M1133.4,597.4h23.8v-15.8h-23.8V597.4z"/>
	
		<radialGradient id="SVGID_3_" cx="-826.067" cy="-3021.5874" r="3.874" gradientTransform="matrix(2.770000e-02 -0.9996 -0.9996 -2.770000e-02 -1858.6091 -320.5768)" gradientUnits="userSpaceOnUse">
		<stop  offset="0" style="stop-color:#FFFFFF"/>
		<stop  offset="1" style="stop-color:#000000"/>
	</radialGradient>
	<path class="st9" d="M1139,585c2.1,0.1,3.8,1.8,3.8,4c-0.1,2.1-1.8,3.8-4,3.8c-2.1-0.1-3.8-1.8-3.8-4
		C1135.1,586.6,1136.9,584.9,1139,585z"/>
	
		<radialGradient id="SVGID_4_" cx="-825.7148" cy="-3034.2964" r="3.8714" gradientTransform="matrix(2.770000e-02 -0.9996 -0.9996 -2.770000e-02 -1858.6091 -320.5768)" gradientUnits="userSpaceOnUse">
		<stop  offset="0" style="stop-color:#FFFFFF"/>
		<stop  offset="1" style="stop-color:#000000"/>
	</radialGradient>
	<path class="st10" d="M1151.7,585c2.1,0.1,3.8,1.8,3.8,4c-0.1,2.1-1.8,3.8-4,3.8c-2.1-0.1-3.8-1.8-3.8-4
		C1147.8,586.6,1149.6,584.9,1151.7,585z"/>
	<path class="st5" d="M169.3,283.2h143.2c14,0,27.3,6.2,36,16.8l69.8,85.4c6.6,8.1,10.2,18.1,10.2,28.3v38.8
		c0,16.9-14.1,30.5-31.5,30.5H132.5V318.8C132.5,299.2,149,283.2,169.3,283.2z"/>
	<rect x="146.9" y="420.1" class="st11" width="142.6" height="49.1"/>
	<path class="st11" d="M289.5,410.5V297.2H169.3c-12.3,0-22.3,9.7-22.3,21.6v91.7H289.5z"/>
	<path class="st11" d="M407,394.1l-69.8-85.4c-6-7.3-15-11.6-24.7-11.6h-13.2v172h97.6c9.4,0,17.1-7.4,17.1-16.6v-38.8
		C414.1,406.7,411.5,399.7,407,394.1z"/>
	<rect x="290.4" y="675.9" class="st12" width="123.8" height="13.3"/>
	<rect x="273.5" y="661.4" class="st13" width="157.8" height="16.9"/>
	<path class="st14" d="M608.4,704.9H90.6c-30.1,0-54.6,24.5-54.6,54.6s24.5,54.6,54.6,54.6h517.8c30.1,0,54.6-24.5,54.6-54.6
		C662.9,729.4,638.5,704.9,608.4,704.9z"/>
	<path d="M158,759.8c0-4.5,2.4-8.5,6-10.7c-0.6-3.8-1.6-7.4-2.8-10.9c-4.2-0.1-8.3-2.3-10.6-6.3s-2.2-8.7-0.1-12.4
		c-2.4-2.9-5-5.5-7.9-7.9c-3.7,2.1-8.5,2.2-12.4-0.1c-4-2.3-6.3-6.5-6.3-10.8c-3.4-1.3-7-2.2-10.7-2.9c-2.2,3.7-6.2,6.3-10.8,6.3
		c-4.6,0-8.7-2.5-10.9-6.3c-3.7,0.6-7.3,1.6-10.7,2.9c0,4.3-2.3,8.5-6.3,10.8s-8.7,2.2-12.4,0.1c-2.9,2.4-5.5,5.1-7.9,7.9
		c2.1,3.7,2.2,8.4-0.1,12.4c-2.3,3.9-6.4,6.2-10.6,6.3c-1.3,3.5-2.2,7.2-2.8,10.9c3.6,2.2,6,6.2,6,10.7s-2.3,8.4-5.9,10.6
		c0.7,3.8,1.7,7.5,3,11c4.1,0.2,8.1,2.4,10.3,6.3c2.2,3.8,2.2,8.3,0.3,11.9c2.5,2.9,5.2,5.7,8.2,8.1c3.6-1.8,8.1-1.8,11.9,0.3
		c3.8,2.2,6,6,6.3,10.1c3.6,1.3,7.3,2.3,11.2,3c2.3-3.4,6.1-5.6,10.4-5.6s8.2,2.2,10.4,5.6c3.9-0.6,7.6-1.6,11.2-3
		c0.3-4,2.5-7.9,6.3-10.1c3.8-2.2,8.3-2.2,11.9-0.4c3-2.4,5.7-5.2,8.2-8.1c-1.8-3.7-1.9-8.1,0.3-11.9c2.2-3.8,6.2-6.1,10.3-6.3
		c1.3-3.5,2.3-7.2,3-11C160.4,768.2,158,764.3,158,759.8z M102.3,813.2c-29.7,0-53.7-24-53.7-53.7s24-53.7,53.7-53.7
		s53.7,24,53.7,53.7C156,789.1,132,813.2,102.3,813.2z"/>
	
		<radialGradient id="SVGID_5_" cx="2208.8362" cy="440.5" r="53.7" gradientTransform="matrix(1 0 0 -1 -2106.5361 1200)" gradientUnits="userSpaceOnUse">
		<stop  offset="0" style="stop-color:#231F20"/>
		<stop  offset="0.413" style="stop-color:#252122"/>
		<stop  offset="0.5618" style="stop-color:#2B2729"/>
		<stop  offset="0.6675" style="stop-color:#353334"/>
		<stop  offset="0.7394" style="stop-color:#414042"/>
		<stop  offset="0.7653" style="stop-color:#4D4D4F"/>
		<stop  offset="0.7985" style="stop-color:#555658"/>
		<stop  offset="0.8485" style="stop-color:#58595B"/>
		<stop  offset="0.9212" style="stop-color:#414042"/>
	</radialGradient>
	<path class="st15" d="M102.3,705.8c-29.7,0-53.7,24-53.7,53.7s24,53.7,53.7,53.7s53.7-24,53.7-53.7S132,705.8,102.3,705.8z
		 M102.3,792c-18,0-32.5-14.6-32.5-32.5c0-18,14.6-32.5,32.5-32.5c18,0,32.5,14.6,32.5,32.5S120.3,792,102.3,792z"/>
	<path class="st16" d="M102.3,726.9c-18,0-32.5,14.6-32.5,32.5c0,18,14.6,32.5,32.5,32.5c18,0,32.5-14.6,32.5-32.5
		S120.3,726.9,102.3,726.9z"/>
	<path class="st17" d="M148.4,759.5c0,25.4-20.6,46.1-46.1,46.1c-25.4,0-46.1-20.6-46.1-46.1c0-25.4,20.6-46.1,46.1-46.1
		C127.7,713.4,148.4,734,148.4,759.5z"/>
	<path class="st18" d="M148.4,759.5c0,25.4-20.6,46.1-46.1,46.1c-25.4,0-46.1-20.6-46.1-46.1c0-25.4,20.6-46.1,46.1-46.1
		C127.7,713.4,148.4,734,148.4,759.5z"/>
	<path class="st17" d="M124.9,759.9c0,12.5-10.1,22.6-22.6,22.6s-22.6-10.1-22.6-22.6s10.1-22.6,22.6-22.6
		C114.8,737.3,124.9,747.4,124.9,759.9z"/>
	<path class="st17" d="M111.2,748.6l10.2-12.9c3.6,2.9,6.6,6.6,8.6,10.7l-14.8,7.2C114.3,751.6,112.9,749.9,111.2,748.6z"/>
	<path class="st17" d="M121.5,783.9c-3.6,2.9-7.9,4.9-12.3,6l-3.6-16c2.1-0.5,4.1-1.4,5.7-2.8L121.5,783.9z"/>
	<path class="st17" d="M89.3,753.6l-14.8-7.1c2-4.1,4.9-7.8,8.5-10.7l10.3,12.8C91.6,750,90.3,751.7,89.3,753.6z"/>
	<path class="st17" d="M116.7,759.9L116.7,759.9l16.4-0.1v0.1c0,4.7-1,9.2-3,13.4l-14.8-7.1C116.2,764.1,116.7,762,116.7,759.9z"/>
	<path class="st17" d="M87.9,759.9c0,2.2,0.5,4.3,1.4,6.2l-14.7,7.1c-2-4.2-3.1-8.7-3.1-13.3H87.9z"/>
	<path class="st17" d="M95.4,729.9c4.5-1,9.2-1,13.7,0l-3.6,16c-2.1-0.5-4.3-0.5-6.4,0L95.4,729.9z"/>
	<path class="st17" d="M99.1,773.9l-3.6,16c-4.5-1-8.7-3-12.4-5.9l10.2-12.8C95,772.4,97,773.4,99.1,773.9z"/>
	
		<linearGradient id="SVGID_6_" gradientUnits="userSpaceOnUse" x1="179.4823" y1="3627.7617" x2="179.4823" y2="3646.5317" gradientTransform="matrix(-4.489659e-11 1 1 4.489659e-11 -3529.9133 230.2219)">
		<stop  offset="0" style="stop-color:#FFFFFF"/>
		<stop  offset="1" style="stop-color:#000000"/>
	</linearGradient>
	<path class="st19" d="M103.4,435.2v-51c0-0.9,0.8-1.7,1.7-1.7h11.3c0.9,0,1.7,0.8,1.7,1.7v51c0,0.9-0.8,1.7-1.7,1.7h-11.3
		C104.2,437,103.4,436.2,103.4,435.2z"/>
	<path class="st3" d="M100.8,497.7v-69.2c0-1.3,1-2.3,2.3-2.3h15.3c1.3,0,2.3,1,2.3,2.3v69.2c0,1.3-1,2.3-2.3,2.3h-15.3
		C101.8,500,100.8,498.9,100.8,497.7z"/>
	<path class="st3" d="M97.3,432L97.3,432c0-2,1.6-3.6,3.6-3.6h19.8c2,0,3.6,1.6,3.6,3.6l0,0c0,2-1.6,3.6-3.6,3.6h-19.8
		C98.9,435.5,97.3,433.9,97.3,432z"/>
	<path class="st6" d="M218.1,668.5H87.3c-10.2,0-18.5-8.3-18.5-18.5V498.3c0-17.4,14.1-31.5,31.5-31.5h117.8V668.5z"/>
	<path class="st6" d="M471.8,545.5v-41.3c0-7.3,5.9-13.2,13.2-13.2l0,0c7.3,0,13.2,5.9,13.2,13.2v41.3c0,7.3-5.9,13.2-13.2,13.2l0,0
		C477.7,558.7,471.8,552.8,471.8,545.5z"/>
	<path d="M187.1,802.6c0-1.1,0.6-2.1,1.5-2.6c-0.2-0.9-0.4-1.8-0.7-2.7c-1,0-2-0.6-2.6-1.5c-0.6-1-0.5-2.1,0-3
		c-0.6-0.7-1.2-1.4-1.9-1.9c-0.9,0.5-2.1,0.5-3,0c-1-0.6-1.5-1.6-1.5-2.7c-0.8-0.3-1.7-0.5-2.6-0.7c-0.5,0.9-1.5,1.5-2.7,1.5
		c-1.1,0-2.1-0.6-2.7-1.5c-0.9,0.2-1.8,0.4-2.6,0.7c0,1.1-0.6,2.1-1.5,2.7c-1,0.6-2.1,0.5-3,0c-0.7,0.6-1.3,1.2-1.9,1.9
		c0.5,0.9,0.5,2.1,0,3c-0.6,1-1.6,1.5-2.6,1.5c-0.3,0.9-0.5,1.8-0.7,2.7c0.9,0.5,1.5,1.5,1.5,2.6s-0.6,2.1-1.4,2.6
		c0.2,0.9,0.4,1.8,0.7,2.7c1,0,2,0.6,2.5,1.5s0.5,2,0.1,2.9c0.6,0.7,1.3,1.4,2,2c0.9-0.4,2-0.5,2.9,0.1c0.9,0.5,1.5,1.5,1.5,2.5
		c0.9,0.3,1.8,0.6,2.7,0.7c0.6-0.8,1.5-1.4,2.6-1.4s2,0.5,2.6,1.4c0.9-0.2,1.9-0.4,2.7-0.7c0.1-1,0.6-1.9,1.5-2.5
		c0.9-0.5,2-0.5,2.9-0.1c0.7-0.6,1.4-1.3,2-2c-0.5-0.9-0.5-2,0.1-2.9c0.5-0.9,1.5-1.5,2.5-1.5c0.3-0.9,0.6-1.8,0.7-2.7
		C187.7,804.6,187.1,803.7,187.1,802.6z M173.4,815.6c-7.3,0-13.1-5.9-13.1-13.1c0-7.3,5.9-13.1,13.1-13.1c7.3,0,13.1,5.9,13.1,13.1
		C186.6,809.8,180.7,815.6,173.4,815.6z"/>
	<path class="st20" d="M173.4,794.5c-4.4,0-8,3.6-8,8s3.6,8,8,8s8-3.6,8-8S177.8,794.5,173.4,794.5z"/>
	<path class="st17" d="M184.7,802.5c0,6.2-5.1,11.3-11.3,11.3s-11.3-5.1-11.3-11.3s5.1-11.3,11.3-11.3
		C179.7,791.2,184.7,796.3,184.7,802.5z"/>
	<path d="M238.6,802.6c0-1.1,0.6-2.1,1.5-2.6c-0.2-0.9-0.4-1.8-0.7-2.7c-1,0-2-0.6-2.6-1.5c-0.6-1-0.5-2.1,0-3
		c-0.6-0.7-1.2-1.4-1.9-1.9c-0.9,0.5-2.1,0.5-3,0c-1-0.6-1.5-1.6-1.5-2.7c-0.8-0.3-1.7-0.5-2.6-0.7c-0.5,0.9-1.5,1.5-2.7,1.5
		s-2.1-0.6-2.7-1.5c-0.9,0.2-1.8,0.4-2.6,0.7c0,1.1-0.6,2.1-1.5,2.7c-1,0.6-2.1,0.5-3,0c-0.7,0.6-1.3,1.2-1.9,1.9
		c0.5,0.9,0.5,2.1,0,3c-0.6,1-1.6,1.5-2.6,1.5c-0.3,0.9-0.5,1.8-0.7,2.7c0.9,0.5,1.5,1.5,1.5,2.6s-0.6,2.1-1.4,2.6
		c0.2,0.9,0.4,1.8,0.7,2.7c1,0,2,0.6,2.5,1.5s0.5,2,0.1,2.9c0.6,0.7,1.3,1.4,2,2c0.9-0.4,2-0.5,2.9,0.1c0.9,0.5,1.5,1.5,1.5,2.5
		c0.9,0.3,1.8,0.6,2.7,0.7c0.6-0.8,1.5-1.4,2.6-1.4s2,0.5,2.6,1.4c0.9-0.2,1.9-0.4,2.7-0.7c0.1-1,0.6-1.9,1.5-2.5
		c0.9-0.5,2-0.5,2.9-0.1c0.7-0.6,1.4-1.3,2-2c-0.5-0.9-0.5-2,0.1-2.9c0.5-0.9,1.5-1.5,2.5-1.5c0.3-0.9,0.6-1.8,0.7-2.7
		C239.1,804.6,238.6,803.7,238.6,802.6z M224.9,815.6c-7.3,0-13.1-5.9-13.1-13.1c0-7.3,5.9-13.1,13.1-13.1c7.3,0,13.1,5.9,13.1,13.1
		C238.1,809.8,232.2,815.6,224.9,815.6z"/>
	<path class="st20" d="M224.9,794.5c-4.4,0-8,3.6-8,8s3.6,8,8,8s8-3.6,8-8S229.3,794.5,224.9,794.5z"/>
	<path class="st17" d="M236.2,802.5c0,6.2-5.1,11.3-11.3,11.3s-11.3-5.1-11.3-11.3s5.1-11.3,11.3-11.3
		C231.1,791.2,236.2,796.3,236.2,802.5z"/>
	<path d="M290,802.6c0-1.1,0.6-2.1,1.5-2.6c-0.2-0.9-0.4-1.8-0.7-2.7c-1,0-2-0.6-2.6-1.5c-0.6-1-0.5-2.1,0-3
		c-0.6-0.7-1.2-1.4-1.9-1.9c-0.9,0.5-2.1,0.5-3,0c-1-0.6-1.5-1.6-1.5-2.7c-0.8-0.3-1.7-0.5-2.6-0.7c-0.5,0.9-1.5,1.5-2.7,1.5
		c-1.1,0-2.1-0.6-2.7-1.5c-0.9,0.2-1.8,0.4-2.6,0.7c0,1.1-0.6,2.1-1.5,2.7c-1,0.6-2.1,0.5-3,0c-0.7,0.6-1.3,1.2-1.9,1.9
		c0.5,0.9,0.5,2.1,0,3c-0.6,1-1.6,1.5-2.6,1.5c-0.3,0.9-0.5,1.8-0.7,2.7c0.9,0.5,1.5,1.5,1.5,2.6s-0.6,2.1-1.4,2.6
		c0.2,0.9,0.4,1.8,0.7,2.7c1,0,2,0.6,2.5,1.5s0.5,2,0.1,2.9c0.6,0.7,1.3,1.4,2,2c0.9-0.4,2-0.5,2.9,0.1c0.9,0.5,1.5,1.5,1.5,2.5
		c0.9,0.3,1.8,0.6,2.7,0.7c0.6-0.8,1.5-1.4,2.6-1.4s2,0.5,2.6,1.4c0.9-0.2,1.9-0.4,2.7-0.7c0.1-1,0.6-1.9,1.5-2.5
		c0.9-0.5,2-0.5,2.9-0.1c0.7-0.6,1.4-1.3,2-2c-0.5-0.9-0.5-2,0.1-2.9c0.5-0.9,1.5-1.5,2.5-1.5c0.3-0.9,0.6-1.8,0.7-2.7
		C290.6,804.6,290,803.7,290,802.6z M276.4,815.6c-7.3,0-13.1-5.9-13.1-13.1c0-7.3,5.9-13.1,13.1-13.1c7.3,0,13.1,5.9,13.1,13.1
		C289.5,809.8,283.7,815.6,276.4,815.6z"/>
	<path class="st20" d="M276.4,794.5c-4.4,0-8,3.6-8,8s3.6,8,8,8s8-3.6,8-8S280.8,794.5,276.4,794.5z"/>
	<path class="st17" d="M287.7,802.5c0,6.2-5.1,11.3-11.3,11.3c-6.2,0-11.3-5.1-11.3-11.3s5.1-11.3,11.3-11.3
		S287.7,796.3,287.7,802.5z"/>
	<path d="M341.5,802.6c0-1.1,0.6-2.1,1.5-2.6c-0.2-0.9-0.4-1.8-0.7-2.7c-1,0-2-0.6-2.6-1.5c-0.6-1-0.5-2.1,0-3
		c-0.6-0.7-1.2-1.4-1.9-1.9c-0.9,0.5-2.1,0.5-3,0c-1-0.6-1.5-1.6-1.5-2.7c-0.8-0.3-1.7-0.5-2.6-0.7c-0.5,0.9-1.5,1.5-2.7,1.5
		c-1.1,0-2.1-0.6-2.7-1.5c-0.9,0.2-1.8,0.4-2.6,0.7c0,1.1-0.6,2.1-1.5,2.7c-1,0.6-2.1,0.5-3,0c-0.7,0.6-1.3,1.2-1.9,1.9
		c0.5,0.9,0.5,2.1,0,3c-0.6,1-1.6,1.5-2.6,1.5c-0.3,0.9-0.5,1.8-0.7,2.7c0.9,0.5,1.5,1.5,1.5,2.6s-0.6,2.1-1.4,2.6
		c0.2,0.9,0.4,1.8,0.7,2.7c1,0,2,0.6,2.5,1.5s0.5,2,0.1,2.9c0.6,0.7,1.3,1.4,2,2c0.9-0.4,2-0.5,2.9,0.1c0.9,0.5,1.5,1.5,1.5,2.5
		c0.9,0.3,1.8,0.6,2.7,0.7c0.6-0.8,1.5-1.4,2.6-1.4s2,0.5,2.6,1.4c0.9-0.2,1.9-0.4,2.7-0.7c0.1-1,0.6-1.9,1.5-2.5
		c0.9-0.5,2-0.5,2.9-0.1c0.7-0.6,1.4-1.3,2-2c-0.5-0.9-0.5-2,0.1-2.9c0.5-0.9,1.5-1.5,2.5-1.5c0.3-0.9,0.6-1.8,0.7-2.7
		C342.1,804.6,341.5,803.7,341.5,802.6z M327.9,815.6c-7.3,0-13.1-5.9-13.1-13.1c0-7.3,5.9-13.1,13.1-13.1c7.3,0,13.1,5.9,13.1,13.1
		C341,809.8,335.1,815.6,327.9,815.6z"/>
	<path class="st20" d="M327.9,794.5c-4.4,0-8,3.6-8,8s3.6,8,8,8s8-3.6,8-8C335.8,798.1,332.3,794.5,327.9,794.5z"/>
	<path class="st17" d="M339.2,802.5c0,6.2-5.1,11.3-11.3,11.3c-6.2,0-11.3-5.1-11.3-11.3s5.1-11.3,11.3-11.3
		S339.2,796.3,339.2,802.5z"/>
	<path d="M393,802.6c0-1.1,0.6-2.1,1.5-2.6c-0.2-0.9-0.4-1.8-0.7-2.7c-1,0-2-0.6-2.6-1.5c-0.6-1-0.5-2.1,0-3
		c-0.6-0.7-1.2-1.4-1.9-1.9c-0.9,0.5-2.1,0.5-3,0c-1-0.6-1.5-1.6-1.5-2.7c-0.8-0.3-1.7-0.5-2.6-0.7c-0.5,0.9-1.5,1.5-2.7,1.5
		c-1.1,0-2.1-0.6-2.7-1.5c-0.9,0.2-1.8,0.4-2.6,0.7c0,1.1-0.6,2.1-1.5,2.7c-1,0.6-2.1,0.5-3,0c-0.7,0.6-1.3,1.2-1.9,1.9
		c0.5,0.9,0.5,2.1,0,3c-0.6,1-1.6,1.5-2.6,1.5c-0.3,0.9-0.5,1.8-0.7,2.7c0.9,0.5,1.5,1.5,1.5,2.6s-0.6,2.1-1.4,2.6
		c0.2,0.9,0.4,1.8,0.7,2.7c1,0,2,0.6,2.5,1.5s0.5,2,0.1,2.9c0.6,0.7,1.3,1.4,2,2c0.9-0.4,2-0.5,2.9,0.1c0.9,0.5,1.5,1.5,1.5,2.5
		c0.9,0.3,1.8,0.6,2.7,0.7c0.6-0.8,1.5-1.4,2.6-1.4s2,0.5,2.6,1.4c0.9-0.2,1.9-0.4,2.7-0.7c0.1-1,0.6-1.9,1.5-2.5
		c0.9-0.5,2-0.5,2.9-0.1c0.7-0.6,1.4-1.3,2-2c-0.5-0.9-0.5-2,0.1-2.9c0.5-0.9,1.5-1.5,2.5-1.5c0.3-0.9,0.6-1.8,0.7-2.7
		C393.6,804.6,393,803.7,393,802.6z M379.4,815.6c-7.3,0-13.1-5.9-13.1-13.1c0-7.3,5.9-13.1,13.1-13.1c7.3,0,13.1,5.9,13.1,13.1
		C392.5,809.8,386.6,815.6,379.4,815.6z"/>
	<path class="st20" d="M379.4,794.5c-4.4,0-8,3.6-8,8s3.6,8,8,8s8-3.6,8-8C387.3,798.1,383.8,794.5,379.4,794.5z"/>
	<path class="st17" d="M390.6,802.5c0,6.2-5.1,11.3-11.3,11.3c-6.2,0-11.3-5.1-11.3-11.3s5.1-11.3,11.3-11.3
		C385.6,791.2,390.6,796.3,390.6,802.5z"/>
	<path d="M444.5,802.6c0-1.1,0.6-2.1,1.5-2.6c-0.2-0.9-0.4-1.8-0.7-2.7c-1,0-2-0.6-2.6-1.5c-0.6-1-0.5-2.1,0-3
		c-0.6-0.7-1.2-1.4-1.9-1.9c-0.9,0.5-2.1,0.5-3,0c-1-0.6-1.5-1.6-1.5-2.7c-0.8-0.3-1.7-0.5-2.6-0.7c-0.5,0.9-1.5,1.5-2.7,1.5
		c-1.1,0-2.1-0.6-2.7-1.5c-0.9,0.2-1.8,0.4-2.6,0.7c0,1.1-0.6,2.1-1.5,2.7c-1,0.6-2.1,0.5-3,0c-0.7,0.6-1.3,1.2-1.9,1.9
		c0.5,0.9,0.5,2.1,0,3c-0.6,1-1.6,1.5-2.6,1.5c-0.3,0.9-0.5,1.8-0.7,2.7c0.9,0.5,1.5,1.5,1.5,2.6s-0.6,2.1-1.4,2.6
		c0.2,0.9,0.4,1.8,0.7,2.7c1,0,2,0.6,2.5,1.5s0.5,2,0.1,2.9c0.6,0.7,1.3,1.4,2,2c0.9-0.4,2-0.5,2.9,0.1c0.9,0.5,1.5,1.5,1.5,2.5
		c0.9,0.3,1.8,0.6,2.7,0.7c0.6-0.8,1.5-1.4,2.6-1.4s2,0.5,2.6,1.4c0.9-0.2,1.9-0.4,2.7-0.7c0.1-1,0.6-1.9,1.5-2.5
		c0.9-0.5,2-0.5,2.9-0.1c0.7-0.6,1.4-1.3,2-2c-0.5-0.9-0.5-2,0.1-2.9c0.5-0.9,1.5-1.5,2.5-1.5c0.3-0.9,0.6-1.8,0.7-2.7
		C445.1,804.6,444.5,803.7,444.5,802.6z M430.8,815.6c-7.3,0-13.1-5.9-13.1-13.1c0-7.3,5.9-13.1,13.1-13.1c7.3,0,13.1,5.9,13.1,13.1
		C444,809.8,438.1,815.6,430.8,815.6z"/>
	<path class="st20" d="M430.8,794.5c-4.4,0-8,3.6-8,8s3.6,8,8,8s8-3.6,8-8S435.2,794.5,430.8,794.5z"/>
	<path class="st17" d="M442.1,802.5c0,6.2-5.1,11.3-11.3,11.3c-6.2,0-11.3-5.1-11.3-11.3s5.1-11.3,11.3-11.3
		C437.1,791.2,442.1,796.3,442.1,802.5z"/>
	<path d="M496,802.6c0-1.1,0.6-2.1,1.5-2.6c-0.2-0.9-0.4-1.8-0.7-2.7c-1,0-2-0.6-2.6-1.5c-0.6-1-0.5-2.1,0-3
		c-0.6-0.7-1.2-1.4-1.9-1.9c-0.9,0.5-2.1,0.5-3,0c-1-0.6-1.5-1.6-1.5-2.7c-0.8-0.3-1.7-0.5-2.6-0.7c-0.5,0.9-1.5,1.5-2.7,1.5
		c-1.1,0-2.1-0.6-2.7-1.5c-0.9,0.2-1.8,0.4-2.6,0.7c0,1.1-0.6,2.1-1.5,2.7c-1,0.6-2.1,0.5-3,0c-0.7,0.6-1.3,1.2-1.9,1.9
		c0.5,0.9,0.5,2.1,0,3c-0.6,1-1.6,1.5-2.6,1.5c-0.3,0.9-0.5,1.8-0.7,2.7c0.9,0.5,1.5,1.5,1.5,2.6s-0.6,2.1-1.4,2.6
		c0.2,0.9,0.4,1.8,0.7,2.7c1,0,2,0.6,2.5,1.5s0.5,2,0.1,2.9c0.6,0.7,1.3,1.4,2,2c0.9-0.4,2-0.5,2.9,0.1c0.9,0.5,1.5,1.5,1.5,2.5
		c0.9,0.3,1.8,0.6,2.7,0.7c0.6-0.8,1.5-1.4,2.6-1.4s2,0.5,2.6,1.4c0.9-0.2,1.9-0.4,2.7-0.7c0.1-1,0.6-1.9,1.5-2.5
		c0.9-0.5,2-0.5,2.9-0.1c0.7-0.6,1.4-1.3,2-2c-0.5-0.9-0.5-2,0.1-2.9c0.5-0.9,1.5-1.5,2.5-1.5c0.3-0.9,0.6-1.8,0.7-2.7
		C496.5,804.6,496,803.7,496,802.6z M482.3,815.6c-7.3,0-13.1-5.9-13.1-13.1c0-7.3,5.9-13.1,13.1-13.1c7.3,0,13.1,5.9,13.1,13.1
		C495.5,809.8,489.6,815.6,482.3,815.6z"/>
	<path class="st20" d="M482.3,794.5c-4.4,0-8,3.6-8,8s3.6,8,8,8s8-3.6,8-8S486.7,794.5,482.3,794.5z"/>
	<path class="st17" d="M493.6,802.5c0,6.2-5.1,11.3-11.3,11.3c-6.2,0-11.3-5.1-11.3-11.3s5.1-11.3,11.3-11.3
		S493.6,796.3,493.6,802.5z"/>
	<path d="M547.4,802.6c0-1.1,0.6-2.1,1.5-2.6c-0.2-0.9-0.4-1.8-0.7-2.7c-1,0-2-0.6-2.6-1.5c-0.6-1-0.5-2.1,0-3
		c-0.6-0.7-1.2-1.4-1.9-1.9c-0.9,0.5-2.1,0.5-3,0c-1-0.6-1.5-1.6-1.5-2.7c-0.8-0.3-1.7-0.5-2.6-0.7c-0.5,0.9-1.5,1.5-2.7,1.5
		c-1.1,0-2.1-0.6-2.7-1.5c-0.9,0.2-1.8,0.4-2.6,0.7c0,1.1-0.6,2.1-1.5,2.7c-1,0.6-2.1,0.5-3,0c-0.7,0.6-1.3,1.2-1.9,1.9
		c0.5,0.9,0.5,2.1,0,3c-0.6,1-1.6,1.5-2.6,1.5c-0.3,0.9-0.5,1.8-0.7,2.7c0.9,0.5,1.5,1.5,1.5,2.6s-0.6,2.1-1.4,2.6
		c0.2,0.9,0.4,1.8,0.7,2.7c1,0,2,0.6,2.5,1.5s0.5,2,0.1,2.9c0.6,0.7,1.3,1.4,2,2c0.9-0.4,2-0.5,2.9,0.1c0.9,0.5,1.5,1.5,1.5,2.5
		c0.9,0.3,1.8,0.6,2.7,0.7c0.6-0.8,1.5-1.4,2.6-1.4s2,0.5,2.6,1.4c0.9-0.2,1.9-0.4,2.7-0.7c0.1-1,0.6-1.9,1.5-2.5
		c0.9-0.5,2-0.5,2.9-0.1c0.7-0.6,1.4-1.3,2-2c-0.5-0.9-0.5-2,0.1-2.9c0.5-0.9,1.5-1.5,2.5-1.5c0.3-0.9,0.6-1.8,0.7-2.7
		C548,804.6,547.4,803.7,547.4,802.6z M533.8,815.6c-7.3,0-13.1-5.9-13.1-13.1c0-7.3,5.9-13.1,13.1-13.1c7.3,0,13.1,5.9,13.1,13.1
		C546.9,809.8,541.1,815.6,533.8,815.6z"/>
	<path class="st20" d="M533.8,794.5c-4.4,0-8,3.6-8,8s3.6,8,8,8s8-3.6,8-8S538.2,794.5,533.8,794.5z"/>
	<path class="st17" d="M545.1,802.5c0,6.2-5.1,11.3-11.3,11.3s-11.3-5.1-11.3-11.3s5.1-11.3,11.3-11.3S545.1,796.3,545.1,802.5z"/>
	
		<radialGradient id="SVGID_7_" cx="2713.936" cy="439.6" r="53.7" gradientTransform="matrix(1 0 0 -1 -2106.5361 1200)" gradientUnits="userSpaceOnUse">
		<stop  offset="0" style="stop-color:#231F20"/>
		<stop  offset="0.413" style="stop-color:#252122"/>
		<stop  offset="0.5618" style="stop-color:#2B2729"/>
		<stop  offset="0.6675" style="stop-color:#353334"/>
		<stop  offset="0.7394" style="stop-color:#414042"/>
		<stop  offset="0.7653" style="stop-color:#4D4D4F"/>
		<stop  offset="0.7985" style="stop-color:#555658"/>
		<stop  offset="0.8485" style="stop-color:#58595B"/>
		<stop  offset="0.9212" style="stop-color:#414042"/>
	</radialGradient>
	<path class="st21" d="M607.4,706.7c-29.7,0-53.7,24-53.7,53.7s24,53.7,53.7,53.7s53.7-24,53.7-53.7
		C661.1,730.7,637.1,706.7,607.4,706.7z M607.4,792.9c-18,0-32.5-14.6-32.5-32.5c0-18,14.6-32.5,32.5-32.5c18,0,32.5,14.6,32.5,32.5
		C639.9,778.4,625.4,792.9,607.4,792.9z"/>
	<path class="st18" d="M653.5,760.4c0,25.4-20.6,46.1-46.1,46.1c-25.4,0-46.1-20.6-46.1-46.1c0-25.4,20.6-46.1,46.1-46.1
		C632.9,714.3,653.5,735,653.5,760.4z"/>
	<path class="st22" d="M632.5,828h-566c-24.5,0-44.4-19.9-44.4-44.4v-48.2c0-24.5,19.9-44.4,44.4-44.4h566
		c24.5,0,44.4,19.9,44.4,44.4v48.2C676.9,808.1,657,828,632.5,828z"/>
	<rect x="158" y="725.9" class="st23" width="395.7" height="66.8"/>
	<polygon class="st23" points="518.3,708.6 383.2,708.6 328.5,708.6 193.4,708.6 158,725.9 328.5,725.9 383.2,725.9 553.7,725.9 	
		"/>
	<polygon class="st13" points="293.1,741.7 278.1,741.7 271.2,749 263.6,749 232.4,749 229.7,749 198.5,749 190.9,749 184,741.7 
		168.9,741.7 168.9,757.3 198.5,757.3 229.7,757.3 232.4,757.3 263.6,757.3 293.1,757.3 	"/>
	<polygon class="st13" points="537.7,741.7 522.6,741.7 515.7,749 508.1,749 476.9,749 474.2,749 443,749 435.4,749 428.5,741.7 
		413.5,741.7 413.5,757.3 443,757.3 474.2,757.3 476.9,757.3 508.1,757.3 537.7,757.3 	"/>
	<path class="st13" d="M292.6,756.8h121.1c2.4-2.4,5.7-3.9,9.3-3.9c7.2,0,13.1,5.9,13.1,13.1c0,7.2-5.9,13.1-13.1,13.1
		c-3.5,0-6.8-1.4-9.1-3.7H292.6c-5.1,0-9.3-4.2-9.3-9.3l0,0C283.3,761,287.5,756.8,292.6,756.8z"/>
	<path class="st24" d="M436.5,766c0,7.2-5.9,13.1-13.1,13.1s-13.1-5.9-13.1-13.1c0-7.2,5.9-13.1,13.1-13.1
		C430.7,752.9,436.5,758.7,436.5,766z"/>
	<path d="M436.5,766c0,7.2-5.9,13.1-13.1,13.1s-13.1-5.9-13.1-13.1c0-7.2,5.9-13.1,13.1-13.1C430.7,752.9,436.5,758.7,436.5,766z"/>
	
		<radialGradient id="SVGID_8_" cx="497.6911" cy="434.0007" r="11.2537" gradientTransform="matrix(-1 0 0 -1 921.1121 1200)" gradientUnits="userSpaceOnUse">
		<stop  offset="0" style="stop-color:#231F20"/>
		<stop  offset="0.413" style="stop-color:#252122"/>
		<stop  offset="0.5618" style="stop-color:#2B2729"/>
		<stop  offset="0.6675" style="stop-color:#353334"/>
		<stop  offset="0.7394" style="stop-color:#414042"/>
		<stop  offset="0.7653" style="stop-color:#4D4D4F"/>
		<stop  offset="0.7985" style="stop-color:#555658"/>
		<stop  offset="0.8485" style="stop-color:#58595B"/>
		<stop  offset="0.9212" style="stop-color:#414042"/>
	</radialGradient>
	<path class="st25" d="M434.7,766c0,6.2-5,11.2-11.2,11.2s-11.2-5-11.2-11.2s5-11.2,11.2-11.2C429.6,754.7,434.7,759.8,434.7,766z"
		/>
	<path class="st17" d="M433.1,766c0,5.3-4.3,9.6-9.7,9.6c-5.3,0-9.6-4.3-9.6-9.6s4.3-9.6,9.6-9.6C428.7,756.3,433.1,760.7,433.1,766
		z"/>
	<path class="st18" d="M433.1,766c0,5.3-4.3,9.6-9.7,9.6c-5.3,0-9.6-4.3-9.6-9.6s4.3-9.6,9.6-9.6C428.7,756.3,433.1,760.7,433.1,766
		z"/>
	<path class="st26" d="M430.2,766c0,3.8-3,6.8-6.8,6.8s-6.8-3.1-6.8-6.8c0-3.8,3.1-6.8,6.8-6.8C427.2,759.2,430.2,762.2,430.2,766z"
		/>
	<path class="st17" d="M428.2,766.1c0,2.6-2.1,4.7-4.7,4.7s-4.7-2.1-4.7-4.7c0-2.6,2.1-4.7,4.7-4.7
		C426,761.3,428.2,763.5,428.2,766.1z"/>
	<path class="st17" d="M425.3,763.7l2.1-2.7c0.8,0.6,1.4,1.4,1.8,2.2l-3.1,1.5C425.9,764.3,425.6,764,425.3,763.7z"/>
	<path class="st17" d="M427.4,771.1c-0.8,0.6-1.6,1-2.6,1.2L424,769c0.4-0.1,0.9-0.3,1.2-0.6L427.4,771.1z"/>
	<path class="st17" d="M420.7,764.8l-3.1-1.5c0.4-0.9,1-1.6,1.8-2.2l2.1,2.7C421.2,764,420.9,764.4,420.7,764.8z"/>
	<path class="st17" d="M426.4,766.1L426.4,766.1h3.4l0,0c0,1-0.2,1.9-0.6,2.8l-3.1-1.5C426.3,767,426.4,766.5,426.4,766.1z"/>
	<path class="st17" d="M420.4,766.1c0,0.5,0.1,0.9,0.3,1.3l-3.1,1.5c-0.4-0.9-0.6-1.8-0.6-2.8H420.4z"/>
	<path class="st17" d="M422,759.8c0.9-0.2,1.9-0.2,2.9,0l-0.8,3.4c-0.4-0.1-0.9-0.1-1.3,0L422,759.8z"/>
	<path class="st17" d="M422.8,769l-0.8,3.3c-0.9-0.2-1.8-0.6-2.6-1.2l2.1-2.7C421.9,768.7,422.3,768.9,422.8,769z"/>
	<path class="st5" d="M192.9,505.9h-61.8c-19.2,0-34.8,15.8-34.8,35.2v57.7c0,19.4,15.6,35.2,34.8,35.2h61.8V505.9z"/>
	<path class="st23" d="M608.4,691H90.6c-37.8,0-68.5,30.7-68.5,68.5S52.8,828,90.6,828h517.8c37.8,0,68.5-30.7,68.5-68.5
		C676.9,721.7,646.1,691,608.4,691z M608.4,814.1H90.6c-30.1,0-54.6-24.5-54.6-54.6s24.5-54.6,54.6-54.6h517.8
		c30.1,0,54.6,24.5,54.6,54.6C662.9,789.6,638.5,814.1,608.4,814.1z"/>
	<path class="st5" d="M467.3,542.7c-1.5,0-2.8-1.2-2.8-2.8v-45c0-5.1-3-9.8-7.7-11.9l-63.7-28.4c-6.7-3-11-9.7-11-17v-47.4
		c0-7.2-5.8-13-13-13h-40.9c-3.7,0-7.2,1.6-9.7,4.3L246.8,459c-1,1.1-2.8,1.2-3.9,0.2c-1.1-1-1.2-2.8-0.2-3.9l71.7-77.6
		c3.5-3.9,8.5-6.1,13.8-6.1h40.9c10.3,0,18.6,8.3,18.6,18.6v47.4c0,5.1,3,9.8,7.7,11.9l63.7,28.4c6.7,3,11,9.7,11,17v45
		C470.1,541.5,468.9,542.7,467.3,542.7z"/>
	
		<radialGradient id="SVGID_9_" cx="112.3143" cy="3921.0015" r="3.773" gradientTransform="matrix(-0.773 0.6344 0.6344 0.773 -2194.418 -2602.2939)" gradientUnits="userSpaceOnUse">
		<stop  offset="0" style="stop-color:#FFFFFF"/>
		<stop  offset="1" style="stop-color:#000000"/>
	</radialGradient>
	<path class="st27" d="M203.3,502.3c-1.3-1.6-1.1-4,0.5-5.3s4-1.1,5.3,0.5s1.1,4-0.5,5.3C207,504.1,204.7,503.9,203.3,502.3z"/>
	
		<radialGradient id="SVGID_10_" cx="144.2328" cy="3959.8933" r="3.7699" gradientTransform="matrix(-0.773 0.6344 0.6344 0.773 -2194.418 -2602.2939)" gradientUnits="userSpaceOnUse">
		<stop  offset="0" style="stop-color:#FFFFFF"/>
		<stop  offset="1" style="stop-color:#000000"/>
	</radialGradient>
	<path class="st28" d="M203.3,552.6c-1.3-1.6-1.1-4,0.5-5.3s4-1.1,5.3,0.5s1.1,4-0.5,5.3C207,554.4,204.7,554.2,203.3,552.6z"/>
	
		<radialGradient id="SVGID_11_" cx="176.1512" cy="3998.7852" r="3.77" gradientTransform="matrix(-0.773 0.6344 0.6344 0.773 -2194.418 -2602.2939)" gradientUnits="userSpaceOnUse">
		<stop  offset="0" style="stop-color:#FFFFFF"/>
		<stop  offset="1" style="stop-color:#000000"/>
	</radialGradient>
	<path class="st29" d="M203.3,602.9c-1.3-1.6-1.1-4,0.5-5.3s4-1.1,5.3,0.5s1.1,4-0.5,5.3C207,604.8,204.7,604.5,203.3,602.9z"/>
	
		<radialGradient id="SVGID_12_" cx="208.0696" cy="4037.677" r="3.7699" gradientTransform="matrix(-0.773 0.6344 0.6344 0.773 -2194.418 -2602.2939)" gradientUnits="userSpaceOnUse">
		<stop  offset="0" style="stop-color:#FFFFFF"/>
		<stop  offset="1" style="stop-color:#000000"/>
	</radialGradient>
	<path class="st30" d="M203.3,653.2c-1.3-1.6-1.1-4,0.5-5.3s4-1.1,5.3,0.5s1.1,4-0.5,5.3C207,655.1,204.7,654.8,203.3,653.2z"/>
	
		<radialGradient id="SVGID_13_" cx="460.2887" cy="1837.4757" r="3.7699" gradientTransform="matrix(-0.6344 -0.773 -0.773 0.6344 2345.7949 -498.3816)" gradientUnits="userSpaceOnUse">
		<stop  offset="0" style="stop-color:#FFFFFF"/>
		<stop  offset="1" style="stop-color:#000000"/>
	</radialGradient>
	<path class="st31" d="M631,308.6c1.6-1.3,4-1.1,5.3,0.5s1.1,4-0.5,5.3s-4,1.1-5.3-0.5S629.4,309.9,631,308.6z"/>
	
		<radialGradient id="SVGID_14_" cx="492.2071" cy="1876.3663" r="3.7702" gradientTransform="matrix(-0.6344 -0.773 -0.773 0.6344 2345.7949 -498.3816)" gradientUnits="userSpaceOnUse">
		<stop  offset="0" style="stop-color:#FFFFFF"/>
		<stop  offset="1" style="stop-color:#000000"/>
	</radialGradient>
	<path class="st32" d="M580.7,308.6c1.6-1.3,4-1.1,5.3,0.5s1.1,4-0.5,5.3s-4,1.1-5.3-0.5S579.1,309.9,580.7,308.6z"/>
	
		<radialGradient id="SVGID_15_" cx="524.1295" cy="1915.2593" r="3.7679" gradientTransform="matrix(-0.6344 -0.773 -0.773 0.6344 2345.7949 -498.3816)" gradientUnits="userSpaceOnUse">
		<stop  offset="0" style="stop-color:#FFFFFF"/>
		<stop  offset="1" style="stop-color:#000000"/>
	</radialGradient>
	<path class="st33" d="M530.4,308.6c1.6-1.3,4-1.1,5.3,0.5s1.1,4-0.5,5.3s-4,1.1-5.3-0.5C528.6,312.3,528.8,309.9,530.4,308.6z"/>
	
		<radialGradient id="SVGID_16_" cx="556.04" cy="1954.151" r="3.7718" gradientTransform="matrix(-0.6344 -0.773 -0.773 0.6344 2345.7949 -498.3816)" gradientUnits="userSpaceOnUse">
		<stop  offset="0" style="stop-color:#FFFFFF"/>
		<stop  offset="1" style="stop-color:#000000"/>
	</radialGradient>
	<path class="st34" d="M480.1,308.6c1.6-1.3,4-1.1,5.3,0.5s1.1,4-0.5,5.3s-4,1.1-5.3-0.5C478.2,312.3,478.5,309.9,480.1,308.6z"/>
	
		<radialGradient id="SVGID_17_" cx="393.1732" cy="1755.7001" r="3.7719" gradientTransform="matrix(-0.6344 -0.773 -0.773 0.6344 2345.7949 -498.3816)" gradientUnits="userSpaceOnUse">
		<stop  offset="0" style="stop-color:#FFFFFF"/>
		<stop  offset="1" style="stop-color:#000000"/>
	</radialGradient>
	<path class="st35" d="M736.8,308.6c1.6-1.3,4-1.1,5.3,0.5s1.1,4-0.5,5.3s-4,1.1-5.3-0.5S735.2,309.9,736.8,308.6z"/>
	
		<radialGradient id="SVGID_18_" cx="425.0988" cy="1794.5823" r="3.7695" gradientTransform="matrix(-0.6344 -0.773 -0.773 0.6344 2345.7949 -498.3816)" gradientUnits="userSpaceOnUse">
		<stop  offset="0" style="stop-color:#FFFFFF"/>
		<stop  offset="1" style="stop-color:#000000"/>
	</radialGradient>
	<path class="st36" d="M686.5,308.6c1.6-1.3,4-1.1,5.3,0.5s1.1,4-0.5,5.3s-4,1.1-5.3-0.5S684.9,309.9,686.5,308.6z"/>
	<rect x="217.3" y="467.5" class="st6" width="142" height="201"/>
	<path class="st5" d="M330.9,634.1h-87.4c-7.7,0-13.9-6.2-13.9-13.9V518.3c0-7.7,6.2-13.9,13.9-13.9h87.4c7.7,0,13.9,6.2,13.9,13.9
		v101.9C344.8,627.9,338.6,634.1,330.9,634.1z"/>
	<path class="st6" d="M281.9,530.1h-27c-1,0-1.8-0.8-1.8-1.8v-3.4c0-1,0.8-1.8,1.8-1.8h27c1,0,1.8,0.8,1.8,1.8v3.4
		C283.7,529.3,282.9,530.1,281.9,530.1z"/>
	<path class="st6" d="M281.9,544.4h-27c-1,0-1.8-0.8-1.8-1.8v-3.4c0-1,0.8-1.8,1.8-1.8h27c1,0,1.8,0.8,1.8,1.8v3.4
		C283.7,543.5,282.9,544.4,281.9,544.4z"/>
	<path class="st6" d="M281.9,558.6h-27c-1,0-1.8-0.8-1.8-1.8v-3.4c0-1,0.8-1.8,1.8-1.8h27c1,0,1.8,0.8,1.8,1.8v3.4
		C283.7,557.7,282.9,558.6,281.9,558.6z"/>
	<path class="st6" d="M281.9,572.8h-27c-1,0-1.8-0.8-1.8-1.8v-3.4c0-1,0.8-1.8,1.8-1.8h27c1,0,1.8,0.8,1.8,1.8v3.4
		C283.7,572,282.9,572.8,281.9,572.8z"/>
	<path class="st6" d="M281.9,587h-27c-1,0-1.8-0.8-1.8-1.8v-3.4c0-1,0.8-1.8,1.8-1.8h27c1,0,1.8,0.8,1.8,1.8v3.4
		C283.7,586.2,282.9,587,281.9,587z"/>
	<path class="st6" d="M281.9,601.2h-27c-1,0-1.8-0.8-1.8-1.8V596c0-1,0.8-1.8,1.8-1.8h27c1,0,1.8,0.8,1.8,1.8v3.4
		C283.7,600.4,282.9,601.2,281.9,601.2z"/>
	<path class="st6" d="M281.9,615.4h-27c-1,0-1.8-0.8-1.8-1.8v-3.4c0-1,0.8-1.8,1.8-1.8h27c1,0,1.8,0.8,1.8,1.8v3.4
		C283.7,614.6,282.9,615.4,281.9,615.4z"/>
	<path class="st6" d="M322.8,530.1h-27c-1,0-1.8-0.8-1.8-1.8v-3.4c0-1,0.8-1.8,1.8-1.8h27c1,0,1.8,0.8,1.8,1.8v3.4
		C324.6,529.3,323.8,530.1,322.8,530.1z"/>
	<path class="st6" d="M322.8,544.4h-27c-1,0-1.8-0.8-1.8-1.8v-3.4c0-1,0.8-1.8,1.8-1.8h27c1,0,1.8,0.8,1.8,1.8v3.4
		C324.6,543.5,323.8,544.4,322.8,544.4z"/>
	<path class="st6" d="M322.8,558.6h-27c-1,0-1.8-0.8-1.8-1.8v-3.4c0-1,0.8-1.8,1.8-1.8h27c1,0,1.8,0.8,1.8,1.8v3.4
		C324.6,557.7,323.8,558.6,322.8,558.6z"/>
	<path class="st6" d="M322.8,572.8h-27c-1,0-1.8-0.8-1.8-1.8v-3.4c0-1,0.8-1.8,1.8-1.8h27c1,0,1.8,0.8,1.8,1.8v3.4
		C324.6,572,323.8,572.8,322.8,572.8z"/>
	<path class="st6" d="M322.8,587h-27c-1,0-1.8-0.8-1.8-1.8v-3.4c0-1,0.8-1.8,1.8-1.8h27c1,0,1.8,0.8,1.8,1.8v3.4
		C324.6,586.2,323.8,587,322.8,587z"/>
	<path class="st6" d="M322.8,601.2h-27c-1,0-1.8-0.8-1.8-1.8V596c0-1,0.8-1.8,1.8-1.8h27c1,0,1.8,0.8,1.8,1.8v3.4
		C324.6,600.4,323.8,601.2,322.8,601.2z"/>
	<path class="st6" d="M322.8,615.4h-27c-1,0-1.8-0.8-1.8-1.8v-3.4c0-1,0.8-1.8,1.8-1.8h27c1,0,1.8,0.8,1.8,1.8v3.4
		C324.6,614.6,323.8,615.4,322.8,615.4z"/>
	<path class="st5" d="M424,468.2V448c-3.5-2.2-7.7-3.5-12.1-3.5h-11.3l-0.3,1.2h-4.9l-0.3-1.2h-24v3.4h-5.5v-3.4h-90.1l-9.9,23.7
		H424z M346.7,445.3l-0.1,0.4h-3.8L346.7,445.3z"/>
	<path class="st5" d="M424,468.2v-12.7H236.3c-9.4,0-17,5.6-17.1,12.7H424z"/>
	<path class="st6" d="M359.3,468.6H407c13.6,0,26.4,6.2,34.8,16.8l67.6,85.4c6.4,8.1,9.9,18.1,9.9,28.3v38.8
		c0,16.9-13.7,30.5-30.5,30.5H359.3V468.6z"/>
	<path class="st5" d="M386.9,338.2l24,28.3c2,2.3,4.8,3.6,7.9,3.6l0,0c3.7,0,7.2-2,9-5.3l25.5-45.4c3.2-5.7,0.4-12.9-5.8-14.9
		l-6.8-2.2c-1.8-0.6-3.8-0.7-5.6-0.2l-48.7,11.8c-7.3,1.8-10.3,10.5-5.7,16.4L386.9,338.2z"/>
	<path class="st5" d="M428.1,506h-7.8c1.8,0,3.6,0.3,5.1,0.8c-3.5,1.2-6.3,3.6-7.6,6.7l-6.2,15.1h7.8l6.2-15.1
		c1.3-3.1,4.1-5.5,7.6-6.7C431.7,506.3,429.9,506,428.1,506z"/>
	<path class="st5" d="M419.4,506h-7.8c-5.8,0-10.9,3-12.8,7.6l-6.2,15.1h7.8l6.2-15.1C408.5,509,413.6,506,419.4,506z"/>
	<path class="st5" d="M403.6,506h-7.8c-5.8,0-10.9,3-12.8,7.6l-6.2,15.1h7.8l6.2-15.1C392.7,509,397.8,506,403.6,506z"/>
	<path class="st37" d="M391.9,650.1c0,0.4-0.2,0.7-0.6,0.7h-5c-0.3,0-0.6-0.3-0.6-0.7V644c0-0.4,0.2-0.7,0.6-0.7h5
		c0.3,0,0.6,0.3,0.6,0.7V650.1z"/>
	<path class="st17" d="M391.4,651.1h-5c-0.4,0-0.8-0.4-0.8-0.9V644c0-0.5,0.3-0.9,0.8-0.9h5c0.4,0,0.8,0.4,0.8,0.9v6.1
		C392.1,650.7,391.8,651.1,391.4,651.1z M386.3,643.6c-0.2,0-0.3,0.2-0.3,0.4v6.1c0,0.2,0.2,0.4,0.3,0.4h5c0.2,0,0.3-0.2,0.3-0.4
		V644c0-0.2-0.2-0.4-0.3-0.4H386.3z"/>
	<path class="st38" d="M399.6,650.1c0,0.4-0.2,0.7-0.6,0.7h-5c-0.3,0-0.6-0.3-0.6-0.7V644c0-0.4,0.2-0.7,0.6-0.7h5
		c0.3,0,0.6,0.3,0.6,0.7V650.1z"/>
	<path class="st17" d="M399,651.1h-5c-0.4,0-0.8-0.4-0.8-0.9V644c0-0.5,0.3-0.9,0.8-0.9h5c0.4,0,0.8,0.4,0.8,0.9v6.1
		C399.8,650.7,399.5,651.1,399,651.1z M394,643.6c-0.2,0-0.3,0.2-0.3,0.4v6.1c0,0.2,0.2,0.4,0.3,0.4h5c0.2,0,0.3-0.2,0.3-0.4V644
		c0-0.2-0.2-0.4-0.3-0.4H394z"/>
	<path class="st6" d="M445.4,277.7c-0.2-4.5-4.4-7.7-8.8-6.6l-4.8,1.2c-1.3,0.3-2.5,1-3.4,1.9l-24.2,24.5c-3.6,3.7-2.3,9.9,2.6,11.7
		l2,0.7h17c11.4,0,20.6-9.5,20.1-20.9L445.4,277.7z M434,290.5c-3.9,0-7-3.2-7-7c0-3.9,3.2-7,7-7c3.9,0,7,3.2,7,7
		C441.1,287.3,437.9,290.5,434,290.5z"/>
</g>
</svg>
