<?xml version="1.0" encoding="utf-8"?>
<!-- Generator: Adobe Illustrator 23.0.1, SVG Export Plug-In . SVG Version: 6.00 Build 0)  -->
<svg version="1.1" id="Layer_1" xmlns="http://www.w3.org/2000/svg" xmlns:xlink="http://www.w3.org/1999/xlink" x="0px" y="0px"
	 viewBox="0 0 1200 1200" style="enable-background:new 0 0 1200 1200;" xml:space="preserve">
<style type="text/css">
	.st0{display:none;}
	.st1{display:inline;}
	.st2{fill:#88A84C;}
	.st3{fill:#A7CB64;}
	.st4{fill:#414042;}
	.st5{fill:#231F20;}
	.st6{fill:#808285;}
	.st7{fill:#6D6E71;}
	.st8{fill:#231F20;stroke:#58595B;stroke-width:0.5758;stroke-miterlimit:10;}
	.st9{fill:#070608;}
	.st10{fill:#EC1C24;}
	.st11{fill:#020200;}
	.st12{fill:#3B3A3A;stroke:#231F20;stroke-width:0.591;stroke-miterlimit:10;}
	.st13{fill:#3B3A3A;stroke:#231F20;stroke-width:0.7742;stroke-miterlimit:10;}
	.st14{fill:#3D3B3D;}
	.st15{fill:url(#SVGID_1_);}
	.st16{fill:#3B3A3A;}
	.st17{fill:#FFFFFF;stroke:#3D3B3D;stroke-width:0.4286;stroke-miterlimit:10;}
	.st18{fill:url(#SVGID_2_);}
	.st19{fill:url(#SVGID_3_);}
	.st20{fill:url(#SVGID_4_);}
	.st21{fill:url(#SVGID_5_);}
	.st22{fill:url(#SVGID_6_);}
	.st23{fill:url(#SVGID_7_);}
	.st24{fill:url(#SVGID_8_);}
	.st25{fill:url(#SVGID_9_);}
	.st26{fill:url(#SVGID_10_);}
	.st27{fill:url(#SVGID_11_);}
	.st28{fill:url(#SVGID_12_);}
	.st29{fill:url(#SVGID_13_);}
	.st30{fill:url(#SVGID_14_);}
	.st31{fill:url(#SVGID_15_);}
	.st32{fill:url(#SVGID_16_);}
	.st33{fill:url(#SVGID_17_);}
	.st34{fill:url(#SVGID_18_);}
	.st35{fill:url(#SVGID_19_);}
	.st36{fill:url(#SVGID_20_);}
	.st37{fill:url(#SVGID_21_);}
	.st38{fill:url(#SVGID_22_);}
	.st39{fill:url(#SVGID_23_);}
	.st40{fill:url(#SVGID_24_);}
	.st41{fill:url(#SVGID_25_);}
	.st42{fill:url(#SVGID_26_);}
	.st43{fill:url(#SVGID_27_);}
	.st44{fill:none;stroke:#231F20;stroke-width:0.7742;stroke-miterlimit:10;}
	.st45{fill:#403430;}
	.st46{fill:#ED1C24;}
	.st47{fill:#ABA9A7;}
	.st48{fill:#414042;stroke:#070608;stroke-width:0.7229;stroke-miterlimit:10;}
	.st49{fill:#070608;stroke:#414042;stroke-width:0.7229;stroke-miterlimit:10;}
	.st50{fill:url(#SVGID_28_);}
	.st51{fill:url(#SVGID_29_);}
	.st52{fill:url(#SVGID_30_);}
	.st53{fill:url(#SVGID_31_);}
	.st54{fill:url(#SVGID_32_);}
	.st55{fill:url(#SVGID_33_);}
	.st56{fill:url(#SVGID_34_);}
	.st57{fill:url(#SVGID_35_);}
	.st58{fill:url(#SVGID_36_);}
	.st59{fill:url(#SVGID_37_);}
	.st60{fill:url(#SVGID_38_);}
	.st61{fill:url(#SVGID_39_);}
	.st62{fill:url(#SVGID_40_);}
	.st63{fill:url(#SVGID_41_);}
	.st64{fill:url(#SVGID_42_);}
	.st65{fill:url(#SVGID_43_);}
	.st66{fill:url(#SVGID_44_);}
	.st67{fill:url(#SVGID_45_);}
	.st68{fill:url(#SVGID_46_);}
	.st69{fill:url(#SVGID_47_);}
	.st70{fill:url(#SVGID_48_);}
	.st71{fill:url(#SVGID_49_);}
	.st72{fill:url(#SVGID_50_);}
	.st73{fill:url(#SVGID_51_);}
	.st74{fill:url(#SVGID_52_);}
	.st75{fill:url(#SVGID_53_);}
	.st76{fill:url(#SVGID_54_);}
	.st77{opacity:0.1;}
</style>
<g class="st0">
	<path class="st1" d="M944.2,598.3c-1.6,0-2.9,1.3-2.9,2.9c0,1.6,1.3,2.9,2.9,2.9c1.6,0,2.9-1.3,2.9-2.9
		C947.1,599.6,945.8,598.3,944.2,598.3z"/>
	<path class="st1" d="M944.2,598.3c-1.6,0-2.9,1.3-2.9,2.9c0,1.6,1.3,2.9,2.9,2.9c1.6,0,2.9-1.3,2.9-2.9
		C947.1,599.6,945.8,598.3,944.2,598.3z"/>
	<g class="st1">
		<path d="M944.2,599.2c-1.1,0-2,0.9-2,2.1c0,1.1,0.9,2,2.1,2c1.1,0,2-0.9,2-2.1C946.2,600.1,945.3,599.1,944.2,599.2z"/>
		<path d="M942.1,601.2c0-1.1,0.9-2.1,2.1-2.1c1.1,0,2.1,0.9,2.1,2.1c0,1.1-0.9,2.1-2.1,2.1C943.1,603.3,942.1,602.4,942.1,601.2z
			 M946.2,601.2c0-1.1-0.9-2-2.1-2c-1.1,0-2,0.9-2,2.1c0,1.1,0.9,2,2.1,2C945.3,603.2,946.2,602.3,946.2,601.2z"/>
	</g>
	<g class="st1">
		<g>
			<path d="M944.2,599.6c-0.9,0-1.6,0.7-1.6,1.6c0,0.9,0.7,1.6,1.6,1.6c0.9,0,1.6-0.7,1.6-1.6S945,599.6,944.2,599.6z"/>
			<path d="M942.5,601.2c0-0.9,0.7-1.7,1.7-1.7c0.9,0,1.7,0.7,1.7,1.7c0,0.9-0.7,1.7-1.7,1.7C943.3,602.9,942.5,602.2,942.5,601.2z
				 M945.7,601.2c0-0.8-0.7-1.5-1.5-1.5s-1.5,0.7-1.5,1.5s0.7,1.5,1.5,1.5S945.7,602,945.7,601.2z"/>
		</g>
	</g>
</g>
<g class="st0">
	<path class="st1" d="M914.9,598.6c-1.6,0-2.9,1.3-2.9,2.9c0,1.6,1.3,2.9,2.9,2.9c1.6,0,2.9-1.3,2.9-2.9
		C917.8,599.9,916.5,598.6,914.9,598.6z"/>
	<path class="st1" d="M914.9,598.6c-1.6,0-2.9,1.3-2.9,2.9c0,1.6,1.3,2.9,2.9,2.9c1.6,0,2.9-1.3,2.9-2.9
		C917.8,599.9,916.5,598.6,914.9,598.6z"/>
	<g class="st1">
		<path d="M914.9,599.5c-1.1,0-2,0.9-2,2.1c0,1.1,0.9,2,2.1,2c1.1,0,2-0.9,2-2.1C917,600.4,916,599.5,914.9,599.5z"/>
		<path d="M912.8,601.6c0-1.1,0.9-2.1,2.1-2.1c1.1,0,2.1,0.9,2.1,2.1c0,1.1-0.9,2.1-2.1,2.1C913.8,603.6,912.8,602.7,912.8,601.6z
			 M916.9,601.5c0-1.1-0.9-2-2.1-2c-1.1,0-2,0.9-2,2.1c0,1.1,0.9,2,2.1,2C916,603.6,917,602.6,916.9,601.5z"/>
	</g>
	<g class="st1">
		<g>
			<path d="M914.9,599.9c-0.9,0-1.6,0.7-1.6,1.6c0,0.9,0.7,1.6,1.6,1.6c0.9,0,1.6-0.7,1.6-1.6C916.5,600.6,915.7,599.9,914.9,599.9z
				"/>
			<path d="M913.2,601.6c0-0.9,0.7-1.7,1.7-1.7c0.9,0,1.7,0.7,1.7,1.7c0,0.9-0.7,1.7-1.7,1.7C914,603.2,913.2,602.5,913.2,601.6z
				 M916.4,601.5c0-0.8-0.7-1.5-1.5-1.5s-1.5,0.7-1.5,1.5s0.7,1.5,1.5,1.5S916.4,602.3,916.4,601.5z"/>
		</g>
	</g>
</g>
<polygon points="772.1,620.5 773.5,620.5 781.9,620.5 783.2,620.5 790.4,626.3 790.4,640.2 781.9,640.2 773.5,640.2 765,640.2 
	765,626.3 "/>
<g>
	<polygon class="st2" points="685.8,445 749.5,445 749.5,449 757.6,449 757.6,459.9 675,459.9 675,449 685.8,449 	"/>
	<polygon class="st2" points="685.8,437.6 749.5,437.6 749.5,441.6 757.6,441.6 757.6,452.4 675,452.4 675,441.6 685.8,441.6 	"/>
</g>
<g>
	<polygon class="st2" points="255.4,445 319.1,445 319.1,449 327.3,449 327.3,459.9 244.6,459.9 244.6,449 255.4,449 	"/>
	<polygon class="st2" points="255.4,437.6 319.1,437.6 319.1,441.6 327.3,441.6 327.3,452.4 244.6,452.4 244.6,441.6 255.4,441.6 	
		"/>
</g>
<path class="st3" d="M50.3,539.8c0,2.3,0.1,4.7,0.2,6.9c1.9,42.8,20.8,76.4,44,76.4v0.3h795.3V623c0.9,0.1,1.9,0.1,2.8,0.1
	c12.7,0,24.3-8.5,32.9-22.3c1.8-2.9,3.5-6,5-9.4c2.1-4.5,3.8-9.3,5.3-14.4c0.9-3,1.7-6.2,2.3-9.4c1.8-8.7,2.8-18.1,2.8-27.8
	c0-46-21.7-83.4-48.4-83.4c-1,0-1.9,0.1-2.8,0.1v-0.1H94.4c-19.5,0-36.1,23.9-41.9,57.1c-0.5,3.1-1,6.2-1.3,9.4
	c-0.5,4.7-0.8,9.5-0.9,14.4C50.3,538.1,50.3,539,50.3,539.8z"/>
<polygon class="st4" points="982.8,639.2 982.8,672.4 654.5,672.4 654.5,649 690.4,639.2 "/>
<polygon class="st3" points="978.9,503.2 1072.2,503.2 978.9,477.4 978.9,477.4 "/>
<path class="st3" d="M978.8,476.9l8.5-28.5l12.2-10.5c0,0,73.9,27.8,102.1,68.3c2.6,3.7-23.4,0.4-28-1L978.8,476.9z"/>
<path class="st4" d="M764.5,637.9c34.8-10.2,71.9-12.1,71.9-12.1l9,7.6l0.2,10.4h-81.1L764.5,637.9L764.5,637.9z"/>
<path class="st3" d="M979.1,503.2l0.1-18.6c0-2.7,2-4.9,4.4-4.9c1.1,0,2.1,0.4,2.9,1.2l7.8,7.8c0.9,0.9,1.5,2.3,1.5,3.7v10.7
	L979.1,503.2L979.1,503.2z"/>
<polygon points="982.8,675.1 1123.3,677 1132.7,586.4 982.8,586.4 "/>
<g>
	<path class="st5" d="M984.7,643.5c1.5,0,2.7-1.3,2.7-2.8c0-1.6-1.2-2.8-2.7-2.8c-12.8,0-16.5-4.6-16.6-7.1v-124
		c0-13.8-18.3-16.6-19.1-16.7c-1.5-0.2-2.8,0.9-3.1,2.4c-0.2,1.5,0.8,3,2.3,3.2c0.2,0,14.4,2.2,14.4,11.1v124.1
		C962.6,631.3,962.9,643.5,984.7,643.5z"/>
	<rect x="956.6" y="509.2" class="st6" width="16.8" height="115.1"/>
	<rect x="969.2" y="509.2" class="st7" width="4.2" height="115.1"/>
	<rect x="956.6" y="593.3" class="st8" width="16.8" height="5.8"/>
	<rect x="956.6" y="526.1" class="st8" width="16.8" height="5.8"/>
</g>
<path class="st9" d="M446.3,662.1l0.3-0.6h5.5l0.3,0.6h26.8v-1.8h6.1v1.8h21l0.3-0.6h4.3l0.3,0.6h92.4c0.4-2.7,0.4-6,0-9l-0.9-5.8
	H407.8l0.4,14.7L446.3,662.1L446.3,662.1z"/>
<path class="st9" d="M92.2,662.1l0.3-0.6H98l0.3,0.6h26.8v-1.8h6.1v1.8h21l0.3-0.6h4.3l0.3,0.6h92.4c0.4-2.7,0.4-6,0-9l-0.9-5.8
	H53.7l0.4,14.7L92.2,662.1L92.2,662.1z"/>
<g>
	<g>
		<g>
			<path class="st10" d="M1144,616.5c3,0,5.5,2.4,5.7,5.5l0.4,6.3c0.2,3.1-2.1,5.8-5,6.2L1144,616.5z"/>
			<path class="st10" d="M1143.1,601.5c3.6-0.1,6.6,1.3,6.7,3.2l0.2,3.8c0.1,1.9-2.7,3.6-6.3,3.9L1143.1,601.5z"/>
		</g>
		
			<rect x="1141.8" y="593.4" transform="matrix(0.9984 -5.650593e-02 5.650593e-02 0.9984 -32.8656 65.5672)" class="st11" width="2.4" height="41.1"/>
	</g>
	<polygon class="st12" points="1142.4,634.4 1142.4,591.7 1139.6,591.7 1139.6,586.2 1131.9,586.2 1131.9,641.7 1139.6,641.7 
		1139.6,634.4 	"/>
	<path class="st13" d="M1131.2,642.3V630h-17.8v10.3c0,1.3,0.5,2.5,1.3,3.4l7.6,8.2h22.6v-9.7L1131.2,642.3L1131.2,642.3z"/>
	<g>
		<rect x="1129.1" y="610" class="st13" width="5.7" height="26.1"/>
		<rect x="1124.2" y="607.5" class="st13" width="5.7" height="28.6"/>
	</g>
</g>
<g>
	<path class="st14" d="M1079.4,668.1c0,20.8-16.9,37.7-37.7,37.7c-20.8,0-37.7-16.9-37.7-37.7s16.9-37.7,37.7-37.7
		C1062.5,630.4,1079.4,647.2,1079.4,668.1z"/>
	<path d="M1079.4,668.1c0,20.8-16.9,37.7-37.7,37.7c-20.8,0-37.7-16.9-37.7-37.7s16.9-37.7,37.7-37.7
		C1062.5,630.4,1079.4,647.2,1079.4,668.1z"/>
	
		<radialGradient id="SVGID_1_" cx="2971.1392" cy="531.9" r="32.3518" gradientTransform="matrix(-1 0 0 -1 4012.7393 1200)" gradientUnits="userSpaceOnUse">
		<stop  offset="0" style="stop-color:#231F20"/>
		<stop  offset="0.413" style="stop-color:#252122"/>
		<stop  offset="0.5618" style="stop-color:#2B2729"/>
		<stop  offset="0.6675" style="stop-color:#353334"/>
		<stop  offset="0.7394" style="stop-color:#414042"/>
		<stop  offset="0.7653" style="stop-color:#4D4D4F"/>
		<stop  offset="0.7985" style="stop-color:#555658"/>
		<stop  offset="0.8485" style="stop-color:#58595B"/>
		<stop  offset="0.9212" style="stop-color:#414042"/>
	</radialGradient>
	<path class="st15" d="M1074,668.1c0,17.9-14.5,32.4-32.4,32.4s-32.4-14.5-32.4-32.4s14.5-32.4,32.4-32.4
		C1059.5,635.7,1074,650.2,1074,668.1z"/>
	<path class="st5" d="M1069.4,668.1c0,15.3-12.4,27.8-27.8,27.8c-15.3,0-27.8-12.4-27.8-27.8c0-15.3,12.4-27.8,27.8-27.8
		S1069.4,652.7,1069.4,668.1z"/>
	<path class="st16" d="M1069.4,668.1c0,15.3-12.4,27.8-27.8,27.8c-15.3,0-27.8-12.4-27.8-27.8c0-15.3,12.4-27.8,27.8-27.8
		S1069.4,652.7,1069.4,668.1z"/>
	<path class="st17" d="M1061.3,668.1c0,10.8-8.8,19.6-19.6,19.6c-10.8,0-19.6-8.8-19.6-19.6s8.8-19.6,19.6-19.6
		S1061.3,657.2,1061.3,668.1z"/>
	<g>
		<g>
			
				<linearGradient id="SVGID_2_" gradientUnits="userSpaceOnUse" x1="2957.4822" y1="531.7" x2="2984.6821" y2="531.7" gradientTransform="matrix(-1 0 0 -1 4012.7393 1200)">
				<stop  offset="3.030300e-02" style="stop-color:#6D6E71"/>
				<stop  offset="0.2485" style="stop-color:#BCBEC0"/>
				<stop  offset="0.5212" style="stop-color:#D1D3D4"/>
				<stop  offset="0.6909" style="stop-color:#BCBEC0"/>
				<stop  offset="0.9758" style="stop-color:#58595B"/>
			</linearGradient>
			<path class="st18" d="M1055.3,668.3c0,7.5-6.1,13.6-13.6,13.6s-13.6-6.1-13.6-13.6s6.1-13.6,13.6-13.6
				C1049.2,654.7,1055.3,660.8,1055.3,668.3z"/>
		</g>
		<g>
			
				<linearGradient id="SVGID_3_" gradientUnits="userSpaceOnUse" x1="2954.4053" y1="540.95" x2="2965.7051" y2="540.95" gradientTransform="matrix(-1 0 0 -1 4012.7393 1200)">
				<stop  offset="3.030300e-02" style="stop-color:#6D6E71"/>
				<stop  offset="0.2485" style="stop-color:#BCBEC0"/>
				<stop  offset="0.5212" style="stop-color:#D1D3D4"/>
				<stop  offset="0.6909" style="stop-color:#BCBEC0"/>
				<stop  offset="0.9758" style="stop-color:#58595B"/>
			</linearGradient>
			<path class="st19" d="M1047,661.5l6.1-7.8c2.2,1.7,4,3.9,5.2,6.4l-8.9,4.3C1048.9,663.4,1048,662.3,1047,661.5z"/>
			
				<linearGradient id="SVGID_4_" gradientUnits="userSpaceOnUse" x1="2959.5212" y1="519.25" x2="2969.1487" y2="519.25" gradientTransform="matrix(-1 0 0 -1 4012.7393 1200)">
				<stop  offset="3.030300e-02" style="stop-color:#6D6E71"/>
				<stop  offset="0.2485" style="stop-color:#BCBEC0"/>
				<stop  offset="0.5212" style="stop-color:#D1D3D4"/>
				<stop  offset="0.6909" style="stop-color:#BCBEC0"/>
				<stop  offset="0.9758" style="stop-color:#58595B"/>
			</linearGradient>
			<path class="st20" d="M1053.2,682.8c-2.2,1.7-4.7,3-7.4,3.6l-2.2-9.6c1.2-0.3,2.4-0.9,3.5-1.7L1053.2,682.8z"/>
			
				<linearGradient id="SVGID_5_" gradientUnits="userSpaceOnUse" x1="2976.5139" y1="540.8" x2="2987.8296" y2="540.8" gradientTransform="matrix(-1 0 0 -1 4012.7393 1200)">
				<stop  offset="3.030300e-02" style="stop-color:#6D6E71"/>
				<stop  offset="0.2485" style="stop-color:#BCBEC0"/>
				<stop  offset="0.5212" style="stop-color:#D1D3D4"/>
				<stop  offset="0.6909" style="stop-color:#BCBEC0"/>
				<stop  offset="0.9758" style="stop-color:#58595B"/>
			</linearGradient>
			<path class="st21" d="M1033.8,664.6l-8.9-4.3c1.2-2.5,3-4.7,5.1-6.5l6.2,7.7C1035.2,662.4,1034.4,663.4,1033.8,664.6z"/>
			
				<linearGradient id="SVGID_6_" gradientUnits="userSpaceOnUse" x1="2952.5391" y1="527.75" x2="2963.2788" y2="527.75" gradientTransform="matrix(-1 0 0 -1 4012.7393 1200)">
				<stop  offset="3.030300e-02" style="stop-color:#6D6E71"/>
				<stop  offset="0.2485" style="stop-color:#BCBEC0"/>
				<stop  offset="0.5212" style="stop-color:#D1D3D4"/>
				<stop  offset="0.6909" style="stop-color:#BCBEC0"/>
				<stop  offset="0.9758" style="stop-color:#58595B"/>
			</linearGradient>
			<path class="st22" d="M1050.3,668.3L1050.3,668.3l9.9-0.1v0.1c0,2.8-0.6,5.5-1.8,8l-8.9-4.3
				C1050,670.9,1050.3,669.6,1050.3,668.3z"/>
			
				<linearGradient id="SVGID_7_" gradientUnits="userSpaceOnUse" x1="2978.9011" y1="527.65" x2="2989.6448" y2="527.65" gradientTransform="matrix(-1 0 0 -1 4012.7393 1200)">
				<stop  offset="3.030300e-02" style="stop-color:#6D6E71"/>
				<stop  offset="0.2485" style="stop-color:#BCBEC0"/>
				<stop  offset="0.5212" style="stop-color:#D1D3D4"/>
				<stop  offset="0.6909" style="stop-color:#BCBEC0"/>
				<stop  offset="0.9758" style="stop-color:#58595B"/>
			</linearGradient>
			<path class="st23" d="M1033,668.3c0,1.3,0.3,2.6,0.9,3.8l-8.9,4.3c-1.2-2.5-1.8-5.2-1.9-8L1033,668.3z"/>
			
				<linearGradient id="SVGID_8_" gradientUnits="userSpaceOnUse" x1="2967.0276" y1="545.175" x2="2975.2705" y2="545.175" gradientTransform="matrix(-1 0 0 -1 4012.7393 1200)">
				<stop  offset="3.030300e-02" style="stop-color:#6D6E71"/>
				<stop  offset="0.2485" style="stop-color:#BCBEC0"/>
				<stop  offset="0.5212" style="stop-color:#D1D3D4"/>
				<stop  offset="0.6909" style="stop-color:#BCBEC0"/>
				<stop  offset="0.9758" style="stop-color:#58595B"/>
			</linearGradient>
			<path class="st24" d="M1037.5,650.2c2.7-0.6,5.6-0.6,8.2,0l-2.2,9.7c-1.3-0.3-2.6-0.3-3.9,0L1037.5,650.2z"/>
			
				<linearGradient id="SVGID_9_" gradientUnits="userSpaceOnUse" x1="2973.0146" y1="519.25" x2="2982.6448" y2="519.25" gradientTransform="matrix(-1 0 0 -1 4012.7393 1200)">
				<stop  offset="3.030300e-02" style="stop-color:#6D6E71"/>
				<stop  offset="0.2485" style="stop-color:#BCBEC0"/>
				<stop  offset="0.5212" style="stop-color:#D1D3D4"/>
				<stop  offset="0.6909" style="stop-color:#BCBEC0"/>
				<stop  offset="0.9758" style="stop-color:#58595B"/>
			</linearGradient>
			<path class="st25" d="M1039.7,676.8l-2.2,9.6c-2.7-0.6-5.3-1.8-7.4-3.6l6.2-7.7C1037.3,675.9,1038.5,676.5,1039.7,676.8z"/>
		</g>
	</g>
</g>
<g>
	<path class="st14" d="M845.8,668.1c0,20.8-16.9,37.7-37.7,37.7s-37.7-16.9-37.7-37.7s16.9-37.7,37.7-37.7
		C828.9,630.4,845.8,647.2,845.8,668.1z"/>
	<path d="M845.8,668.1c0,20.8-16.9,37.7-37.7,37.7s-37.7-16.9-37.7-37.7s16.9-37.7,37.7-37.7C828.9,630.4,845.8,647.2,845.8,668.1z"
		/>
	
		<radialGradient id="SVGID_10_" cx="3204.7393" cy="531.9" r="32.3559" gradientTransform="matrix(-1 0 0 -1 4012.7393 1200)" gradientUnits="userSpaceOnUse">
		<stop  offset="0" style="stop-color:#231F20"/>
		<stop  offset="0.413" style="stop-color:#252122"/>
		<stop  offset="0.5618" style="stop-color:#2B2729"/>
		<stop  offset="0.6675" style="stop-color:#353334"/>
		<stop  offset="0.7394" style="stop-color:#414042"/>
		<stop  offset="0.7653" style="stop-color:#4D4D4F"/>
		<stop  offset="0.7985" style="stop-color:#555658"/>
		<stop  offset="0.8485" style="stop-color:#58595B"/>
		<stop  offset="0.9212" style="stop-color:#414042"/>
	</radialGradient>
	<path class="st26" d="M840.4,668.1c0,17.9-14.5,32.4-32.4,32.4s-32.4-14.5-32.4-32.4s14.5-32.4,32.4-32.4
		C825.9,635.7,840.4,650.2,840.4,668.1z"/>
	<path class="st5" d="M835.8,668.1c0,15.3-12.4,27.8-27.8,27.8c-15.3,0-27.8-12.4-27.8-27.8c0-15.3,12.4-27.8,27.8-27.8
		C823.4,640.3,835.8,652.7,835.8,668.1z"/>
	<path class="st16" d="M835.8,668.1c0,15.3-12.4,27.8-27.8,27.8c-15.3,0-27.8-12.4-27.8-27.8c0-15.3,12.4-27.8,27.8-27.8
		C823.4,640.3,835.8,652.7,835.8,668.1z"/>
	<path class="st17" d="M827.7,668.1c0,10.8-8.8,19.6-19.6,19.6s-19.6-8.8-19.6-19.6s8.8-19.6,19.6-19.6S827.7,657.2,827.7,668.1z"/>
	<g>
		<g>
			
				<linearGradient id="SVGID_11_" gradientUnits="userSpaceOnUse" x1="3191.0903" y1="531.7" x2="3218.2903" y2="531.7" gradientTransform="matrix(-1 0 0 -1 4012.7393 1200)">
				<stop  offset="3.030300e-02" style="stop-color:#6D6E71"/>
				<stop  offset="0.2485" style="stop-color:#BCBEC0"/>
				<stop  offset="0.5212" style="stop-color:#D1D3D4"/>
				<stop  offset="0.6909" style="stop-color:#BCBEC0"/>
				<stop  offset="0.9758" style="stop-color:#58595B"/>
			</linearGradient>
			<path class="st27" d="M821.6,668.3c0,7.5-6.1,13.6-13.6,13.6s-13.6-6.1-13.6-13.6s6.1-13.6,13.6-13.6
				C815.6,654.7,821.6,660.8,821.6,668.3z"/>
		</g>
		<g>
			
				<linearGradient id="SVGID_12_" gradientUnits="userSpaceOnUse" x1="3188.0134" y1="540.95" x2="3199.3135" y2="540.95" gradientTransform="matrix(-1 0 0 -1 4012.7393 1200)">
				<stop  offset="3.030300e-02" style="stop-color:#6D6E71"/>
				<stop  offset="0.2485" style="stop-color:#BCBEC0"/>
				<stop  offset="0.5212" style="stop-color:#D1D3D4"/>
				<stop  offset="0.6909" style="stop-color:#BCBEC0"/>
				<stop  offset="0.9758" style="stop-color:#58595B"/>
			</linearGradient>
			<path class="st28" d="M813.4,661.5l6.1-7.8c2.2,1.7,4,3.9,5.2,6.4l-8.9,4.3C815.3,663.4,814.4,662.3,813.4,661.5z"/>
			
				<linearGradient id="SVGID_13_" gradientUnits="userSpaceOnUse" x1="3193.1292" y1="519.25" x2="3202.7568" y2="519.25" gradientTransform="matrix(-1 0 0 -1 4012.7393 1200)">
				<stop  offset="3.030300e-02" style="stop-color:#6D6E71"/>
				<stop  offset="0.2485" style="stop-color:#BCBEC0"/>
				<stop  offset="0.5212" style="stop-color:#D1D3D4"/>
				<stop  offset="0.6909" style="stop-color:#BCBEC0"/>
				<stop  offset="0.9758" style="stop-color:#58595B"/>
			</linearGradient>
			<path class="st29" d="M819.6,682.8c-2.2,1.7-4.7,3-7.4,3.6l-2.2-9.6c1.2-0.3,2.4-0.9,3.5-1.7L819.6,682.8z"/>
			
				<linearGradient id="SVGID_14_" gradientUnits="userSpaceOnUse" x1="3210.1218" y1="540.8" x2="3221.4377" y2="540.8" gradientTransform="matrix(-1 0 0 -1 4012.7393 1200)">
				<stop  offset="3.030300e-02" style="stop-color:#6D6E71"/>
				<stop  offset="0.2485" style="stop-color:#BCBEC0"/>
				<stop  offset="0.5212" style="stop-color:#D1D3D4"/>
				<stop  offset="0.6909" style="stop-color:#BCBEC0"/>
				<stop  offset="0.9758" style="stop-color:#58595B"/>
			</linearGradient>
			<path class="st30" d="M800.2,664.6l-8.9-4.3c1.2-2.5,3-4.7,5.1-6.5l6.2,7.7C801.6,662.4,800.8,663.4,800.2,664.6z"/>
			
				<linearGradient id="SVGID_15_" gradientUnits="userSpaceOnUse" x1="3186.1392" y1="527.75" x2="3196.8792" y2="527.75" gradientTransform="matrix(-1 0 0 -1 4012.7393 1200)">
				<stop  offset="3.030300e-02" style="stop-color:#6D6E71"/>
				<stop  offset="0.2485" style="stop-color:#BCBEC0"/>
				<stop  offset="0.5212" style="stop-color:#D1D3D4"/>
				<stop  offset="0.6909" style="stop-color:#BCBEC0"/>
				<stop  offset="0.9758" style="stop-color:#58595B"/>
			</linearGradient>
			<path class="st31" d="M816.7,668.3L816.7,668.3l9.9-0.1v0.1c0,2.8-0.6,5.5-1.8,8l-8.9-4.3C816.4,670.9,816.7,669.6,816.7,668.3z"
				/>
			
				<linearGradient id="SVGID_16_" gradientUnits="userSpaceOnUse" x1="3212.509" y1="527.65" x2="3223.2527" y2="527.65" gradientTransform="matrix(-1 0 0 -1 4012.7393 1200)">
				<stop  offset="3.030300e-02" style="stop-color:#6D6E71"/>
				<stop  offset="0.2485" style="stop-color:#BCBEC0"/>
				<stop  offset="0.5212" style="stop-color:#D1D3D4"/>
				<stop  offset="0.6909" style="stop-color:#BCBEC0"/>
				<stop  offset="0.9758" style="stop-color:#58595B"/>
			</linearGradient>
			<path class="st32" d="M799.4,668.3c0,1.3,0.3,2.6,0.9,3.8l-8.9,4.3c-1.2-2.5-1.8-5.2-1.9-8L799.4,668.3z"/>
			
				<linearGradient id="SVGID_17_" gradientUnits="userSpaceOnUse" x1="3200.6392" y1="545.175" x2="3208.8821" y2="545.175" gradientTransform="matrix(-1 0 0 -1 4012.7393 1200)">
				<stop  offset="3.030300e-02" style="stop-color:#6D6E71"/>
				<stop  offset="0.2485" style="stop-color:#BCBEC0"/>
				<stop  offset="0.5212" style="stop-color:#D1D3D4"/>
				<stop  offset="0.6909" style="stop-color:#BCBEC0"/>
				<stop  offset="0.9758" style="stop-color:#58595B"/>
			</linearGradient>
			<path class="st33" d="M803.9,650.2c2.7-0.6,5.6-0.6,8.2,0l-2.2,9.7c-1.3-0.3-2.6-0.3-3.9,0L803.9,650.2z"/>
			
				<linearGradient id="SVGID_18_" gradientUnits="userSpaceOnUse" x1="3206.6226" y1="519.25" x2="3216.2527" y2="519.25" gradientTransform="matrix(-1 0 0 -1 4012.7393 1200)">
				<stop  offset="3.030300e-02" style="stop-color:#6D6E71"/>
				<stop  offset="0.2485" style="stop-color:#BCBEC0"/>
				<stop  offset="0.5212" style="stop-color:#D1D3D4"/>
				<stop  offset="0.6909" style="stop-color:#BCBEC0"/>
				<stop  offset="0.9758" style="stop-color:#58595B"/>
			</linearGradient>
			<path class="st34" d="M806.1,676.8l-2.2,9.6c-2.7-0.6-5.3-1.8-7.4-3.6l6.2-7.7C803.7,675.9,804.9,676.5,806.1,676.8z"/>
		</g>
	</g>
</g>
<g>
	<path class="st14" d="M760.5,668.1c0,20.8-16.9,37.7-37.7,37.7s-37.7-16.9-37.7-37.7s16.9-37.7,37.7-37.7
		C743.6,630.4,760.5,647.2,760.5,668.1z"/>
	<path d="M760.5,668.1c0,20.8-16.9,37.7-37.7,37.7s-37.7-16.9-37.7-37.7s16.9-37.7,37.7-37.7C743.6,630.4,760.5,647.2,760.5,668.1z"
		/>
	
		<radialGradient id="SVGID_19_" cx="3290.0393" cy="531.9" r="32.3535" gradientTransform="matrix(-1 0 0 -1 4012.7393 1200)" gradientUnits="userSpaceOnUse">
		<stop  offset="0" style="stop-color:#231F20"/>
		<stop  offset="0.413" style="stop-color:#252122"/>
		<stop  offset="0.5618" style="stop-color:#2B2729"/>
		<stop  offset="0.6675" style="stop-color:#353334"/>
		<stop  offset="0.7394" style="stop-color:#414042"/>
		<stop  offset="0.7653" style="stop-color:#4D4D4F"/>
		<stop  offset="0.7985" style="stop-color:#555658"/>
		<stop  offset="0.8485" style="stop-color:#58595B"/>
		<stop  offset="0.9212" style="stop-color:#414042"/>
	</radialGradient>
	<path class="st35" d="M755.1,668.1c0,17.9-14.5,32.4-32.4,32.4s-32.4-14.5-32.4-32.4s14.5-32.4,32.4-32.4
		C740.6,635.7,755.1,650.2,755.1,668.1z"/>
	<path class="st5" d="M750.5,668.1c0,15.3-12.4,27.8-27.8,27.8c-15.3,0-27.8-12.4-27.8-27.8c0-15.3,12.4-27.8,27.8-27.8
		S750.5,652.7,750.5,668.1z"/>
	<path class="st16" d="M750.5,668.1c0,15.3-12.4,27.8-27.8,27.8c-15.3,0-27.8-12.4-27.8-27.8c0-15.3,12.4-27.8,27.8-27.8
		S750.5,652.7,750.5,668.1z"/>
	<path class="st17" d="M742.4,668.1c0,10.8-8.8,19.6-19.6,19.6s-19.6-8.8-19.6-19.6s8.8-19.6,19.6-19.6
		C733.6,648.5,742.4,657.2,742.4,668.1z"/>
	<g>
		<g>
			
				<linearGradient id="SVGID_20_" gradientUnits="userSpaceOnUse" x1="3276.3857" y1="531.7" x2="3303.5857" y2="531.7" gradientTransform="matrix(-1 0 0 -1 4012.7393 1200)">
				<stop  offset="3.030300e-02" style="stop-color:#6D6E71"/>
				<stop  offset="0.2485" style="stop-color:#BCBEC0"/>
				<stop  offset="0.5212" style="stop-color:#D1D3D4"/>
				<stop  offset="0.6909" style="stop-color:#BCBEC0"/>
				<stop  offset="0.9758" style="stop-color:#58595B"/>
			</linearGradient>
			<path class="st36" d="M736.4,668.3c0,7.5-6.1,13.6-13.6,13.6s-13.6-6.1-13.6-13.6s6.1-13.6,13.6-13.6
				C730.3,654.7,736.4,660.8,736.4,668.3z"/>
		</g>
		<g>
			
				<linearGradient id="SVGID_21_" gradientUnits="userSpaceOnUse" x1="3273.3086" y1="540.95" x2="3284.6086" y2="540.95" gradientTransform="matrix(-1 0 0 -1 4012.7393 1200)">
				<stop  offset="3.030300e-02" style="stop-color:#6D6E71"/>
				<stop  offset="0.2485" style="stop-color:#BCBEC0"/>
				<stop  offset="0.5212" style="stop-color:#D1D3D4"/>
				<stop  offset="0.6909" style="stop-color:#BCBEC0"/>
				<stop  offset="0.9758" style="stop-color:#58595B"/>
			</linearGradient>
			<path class="st37" d="M728.1,661.5l6.1-7.8c2.2,1.7,4,3.9,5.2,6.4l-8.9,4.3C730,663.4,729.1,662.3,728.1,661.5z"/>
			
				<linearGradient id="SVGID_22_" gradientUnits="userSpaceOnUse" x1="3278.4246" y1="519.25" x2="3288.0522" y2="519.25" gradientTransform="matrix(-1 0 0 -1 4012.7393 1200)">
				<stop  offset="3.030300e-02" style="stop-color:#6D6E71"/>
				<stop  offset="0.2485" style="stop-color:#BCBEC0"/>
				<stop  offset="0.5212" style="stop-color:#D1D3D4"/>
				<stop  offset="0.6909" style="stop-color:#BCBEC0"/>
				<stop  offset="0.9758" style="stop-color:#58595B"/>
			</linearGradient>
			<path class="st38" d="M734.3,682.8c-2.2,1.7-4.7,3-7.4,3.6l-2.2-9.6c1.2-0.3,2.4-0.9,3.5-1.7L734.3,682.8z"/>
			
				<linearGradient id="SVGID_23_" gradientUnits="userSpaceOnUse" x1="3295.4172" y1="540.8" x2="3306.7329" y2="540.8" gradientTransform="matrix(-1 0 0 -1 4012.7393 1200)">
				<stop  offset="3.030300e-02" style="stop-color:#6D6E71"/>
				<stop  offset="0.2485" style="stop-color:#BCBEC0"/>
				<stop  offset="0.5212" style="stop-color:#D1D3D4"/>
				<stop  offset="0.6909" style="stop-color:#BCBEC0"/>
				<stop  offset="0.9758" style="stop-color:#58595B"/>
			</linearGradient>
			<path class="st39" d="M714.9,664.6l-8.9-4.3c1.2-2.5,3-4.7,5.1-6.5l6.2,7.7C716.3,662.4,715.5,663.4,714.9,664.6z"/>
			
				<linearGradient id="SVGID_24_" gradientUnits="userSpaceOnUse" x1="3271.4392" y1="527.75" x2="3282.1792" y2="527.75" gradientTransform="matrix(-1 0 0 -1 4012.7393 1200)">
				<stop  offset="3.030300e-02" style="stop-color:#6D6E71"/>
				<stop  offset="0.2485" style="stop-color:#BCBEC0"/>
				<stop  offset="0.5212" style="stop-color:#D1D3D4"/>
				<stop  offset="0.6909" style="stop-color:#BCBEC0"/>
				<stop  offset="0.9758" style="stop-color:#58595B"/>
			</linearGradient>
			<path class="st40" d="M731.4,668.3L731.4,668.3l9.9-0.1v0.1c0,2.8-0.6,5.5-1.8,8l-8.9-4.3C731.1,670.9,731.4,669.6,731.4,668.3z"
				/>
			
				<linearGradient id="SVGID_25_" gradientUnits="userSpaceOnUse" x1="3297.8044" y1="527.65" x2="3308.5481" y2="527.65" gradientTransform="matrix(-1 0 0 -1 4012.7393 1200)">
				<stop  offset="3.030300e-02" style="stop-color:#6D6E71"/>
				<stop  offset="0.2485" style="stop-color:#BCBEC0"/>
				<stop  offset="0.5212" style="stop-color:#D1D3D4"/>
				<stop  offset="0.6909" style="stop-color:#BCBEC0"/>
				<stop  offset="0.9758" style="stop-color:#58595B"/>
			</linearGradient>
			<path class="st41" d="M714.1,668.3c0,1.3,0.3,2.6,0.9,3.8l-8.9,4.3c-1.2-2.5-1.8-5.2-1.9-8L714.1,668.3z"/>
			
				<linearGradient id="SVGID_26_" gradientUnits="userSpaceOnUse" x1="3285.9392" y1="545.175" x2="3294.1821" y2="545.175" gradientTransform="matrix(-1 0 0 -1 4012.7393 1200)">
				<stop  offset="3.030300e-02" style="stop-color:#6D6E71"/>
				<stop  offset="0.2485" style="stop-color:#BCBEC0"/>
				<stop  offset="0.5212" style="stop-color:#D1D3D4"/>
				<stop  offset="0.6909" style="stop-color:#BCBEC0"/>
				<stop  offset="0.9758" style="stop-color:#58595B"/>
			</linearGradient>
			<path class="st42" d="M718.6,650.2c2.7-0.6,5.6-0.6,8.2,0l-2.2,9.7c-1.3-0.3-2.6-0.3-3.9,0L718.6,650.2z"/>
			
				<linearGradient id="SVGID_27_" gradientUnits="userSpaceOnUse" x1="3291.918" y1="519.25" x2="3301.5481" y2="519.25" gradientTransform="matrix(-1 0 0 -1 4012.7393 1200)">
				<stop  offset="3.030300e-02" style="stop-color:#6D6E71"/>
				<stop  offset="0.2485" style="stop-color:#BCBEC0"/>
				<stop  offset="0.5212" style="stop-color:#D1D3D4"/>
				<stop  offset="0.6909" style="stop-color:#BCBEC0"/>
				<stop  offset="0.9758" style="stop-color:#58595B"/>
			</linearGradient>
			<path class="st43" d="M720.8,676.8l-2.2,9.6c-2.7-0.6-5.3-1.8-7.4-3.6l6.2-7.7C718.4,675.9,719.6,676.5,720.8,676.8z"/>
		</g>
	</g>
</g>
<g>
	<rect x="872.6" y="642.2" class="st2" width="76" height="36.8"/>
	<polygon class="st2" points="882.5,626.9 941,626.9 941,630.9 948.5,630.9 948.5,642.2 872.6,642.2 872.6,630.9 882.5,630.9 	"/>
</g>
<g>
	<rect x="861.8" y="652.9" class="st5" width="4.7" height="22"/>
	<rect x="865.8" y="650.8" class="st4" width="4.7" height="24.1"/>
</g>
<g>
	<g>
		<rect x="949.8" y="647.3" class="st2" width="26.4" height="31.6"/>
		<rect x="960.2" y="672.6" class="st2" width="5.7" height="0.8"/>
	</g>
	<g>
		<g>
			<path class="st2" d="M963.3,666c0,0.2,0.1,0.4,0.2,0.4h1.4c0.1,0,0.2-0.2,0.2-0.4v-3.4c0-0.2-0.1-0.4-0.2-0.4h-1.4
				c-0.1,0-0.2,0.2-0.2,0.4V666z"/>
			<path class="st2" d="M963.2,666v-3.4c0-0.3,0.1-0.5,0.2-0.5h1.4c0.1,0,0.2,0.2,0.2,0.5v3.4c0,0.3-0.1,0.5-0.2,0.5h-1.4
				C963.3,666.5,963.2,666.3,963.2,666z M963.4,662.5c-0.1,0-0.1,0.1-0.1,0.2v3.4c0,0.1,0,0.2,0.1,0.2h1.4c0.1,0,0.1-0.1,0.1-0.2
				v-3.4c0-0.1,0-0.2-0.1-0.2H963.4z"/>
		</g>
		<g>
			<path class="st2" d="M961.1,666c0,0.2,0.1,0.4,0.2,0.4h1.4c0.1,0,0.2-0.2,0.2-0.4v-3.4c0-0.2-0.1-0.4-0.2-0.4h-1.4
				c-0.1,0-0.2,0.2-0.2,0.4V666z"/>
			<path class="st2" d="M961.1,666v-3.4c0-0.3,0.1-0.5,0.2-0.5h1.4c0.1,0,0.2,0.2,0.2,0.5v3.4c0,0.3-0.1,0.5-0.2,0.5h-1.4
				C961.2,666.5,961.1,666.3,961.1,666z M961.3,662.5c-0.1,0-0.1,0.1-0.1,0.2v3.4c0,0.1,0,0.2,0.1,0.2h1.4c0.1,0,0.1-0.1,0.1-0.2
				v-3.4c0-0.1,0-0.2-0.1-0.2H961.3z"/>
		</g>
	</g>
</g>
<path class="st2" d="M979.1,494.2c0.1-0.1,0.2-0.1,0.4-0.1h71.9c0.1,0,0.1,0,0.2,0l47,10.5c1.9,0.4,3.6,1.7,4.5,3.4l31.6,56.9
	c0.7,1.3,1,2.7,1,4.1l-3.5,70.5c0,0.4-0.4,0.7-0.8,0.7h-37.1l-0.4-0.3c-5.9-13-19.1-22.1-34.3-22.1c-1.7,0-3.4,0.1-5.1,0.4h-0.1
	h-69.5c-2.6,0-4.8-1.6-5.7-3.9L979.1,494.2L979.1,494.2z"/>
<path class="st44" d="M1125,630.2l3.6-61.2c0.1-1.2-0.2-2.3-0.8-3.3l-30.6-51.4c-1.1-1.8-3-2.9-5-2.9h-44.1c-3.2,0-5.9,2.6-5.9,5.9
	v88.4c0,3.3,2.7,5.9,6,5.9c11.8-0.3,37.8,1.3,47,20.9c0.9,2,3,3.3,5.3,3.3h18.7C1122.3,635.7,1124.9,633.3,1125,630.2z"/>
<path class="st45" d="M1049,564.3v-46.2h39.3c2.1,0,4.1,1.1,5.1,2.9l28.5,47.8l0,0c-0.1,2.2-2,3.8-4.2,3.5L1049,564.3z"/>
<line class="st44" x1="1093.5" y1="521" x2="1093.5" y2="569.1"/>
<path class="st5" d="M1051.3,572.4h12.4c0.9,0,1.6-0.7,1.6-1.6l0,0c0-0.9-0.7-1.6-1.6-1.6h-12.4c-0.9,0-1.6,0.7-1.6,1.6l0,0
	C1049.7,571.7,1050.4,572.4,1051.3,572.4z"/>
<path class="st45" d="M999.2,560.6h28.6c1.9,0,3.4-1.5,3.4-3.4v-42.3c0-1.9-1.5-3.4-3.4-3.4h-28.6c-1.9,0-3.4,1.5-3.4,3.4v42.3
	C995.7,559.1,997.3,560.6,999.2,560.6z"/>
<path class="st3" d="M979.1,627.5c0-1.7,1.4-3,3.1-2.9l0,0h69.5h0.1c1.7-0.2,3.4-0.4,5.1-0.4c15.3,0,28.4,9.1,34.3,22.1l0.4,0.3
	h39.9l-6.8,30.4c-1.6,7-7.8,12-15,12h-28.3v-19c0-21.8-17.7-39.6-39.6-39.6l0,0c-21.8,0-39.6,17.7-39.6,39.6v19H979v-61.5H979.1z"/>
<g>
	<path class="st3" d="M998.6,568h4.4c-1,0-2,0.1-2.9,0.4c2,0.6,3.6,1.8,4.3,3.3l3.5,7.4h-4.4l-3.5-7.4c-0.7-1.5-2.3-2.7-4.3-3.3
		C996.6,568.1,997.6,568,998.6,568z"/>
	<path class="st3" d="M1003.5,568h4.4c3.3,0,6.2,1.5,7.3,3.7l3.5,7.4h-4.4l-3.5-7.4C1009.8,569.5,1006.8,568,1003.5,568z"/>
	<path class="st3" d="M1012.5,568h4.4c3.3,0,6.2,1.5,7.3,3.7l3.5,7.4h-4.4l-3.5-7.4C1018.8,569.5,1015.8,568,1012.5,568z"/>
</g>
<g>
	<path class="st2" d="M1119.5,662.5v2.1c0-0.5-0.3-1-0.9-1.4c-1.2,1-3.7,1.7-7,2.1L1096,667v-2.1l15.6-1.7c3.2-0.3,5.7-1.1,7-2.1
		C1119.1,661.5,1119.5,662,1119.5,662.5z"/>
	<path class="st2" d="M1119.5,664.8v2.1c0,1.6-3.2,2.9-7.8,3.4L1096,672v-2.1l15.6-1.7C1116.3,667.7,1119.5,666.4,1119.5,664.8z"/>
	<path class="st2" d="M1119.5,669.1v2.1c0,1.6-3.2,2.9-7.8,3.4l-15.6,1.7v-2.1l15.6-1.7C1116.3,672,1119.5,670.6,1119.5,669.1z"/>
</g>
<g>
	<g>
		<path class="st46" d="M996.2,611.6c0,0.3,0.2,0.5,0.4,0.5h3.4c0.2,0,0.4-0.2,0.4-0.5v-4.2c0-0.3-0.2-0.5-0.4-0.5h-3.4
			c-0.2,0-0.4,0.2-0.4,0.5V611.6z"/>
		<path class="st5" d="M996,611.6v-4.2c0-0.3,0.2-0.6,0.5-0.6h3.4c0.3,0,0.5,0.3,0.5,0.6v4.2c0,0.3-0.2,0.6-0.5,0.6h-3.4
			C996.3,612.2,996,611.9,996,611.6z M996.6,607.1c-0.1,0-0.2,0.1-0.2,0.3v4.2c0,0.2,0.1,0.3,0.2,0.3h3.4c0.1,0,0.2-0.1,0.2-0.3
			v-4.2c0-0.2-0.1-0.3-0.2-0.3H996.6z"/>
	</g>
	<g>
		<path class="st47" d="M991,611.6c0,0.3,0.2,0.5,0.4,0.5h3.4c0.2,0,0.4-0.2,0.4-0.5v-4.2c0-0.3-0.2-0.5-0.4-0.5h-3.4
			c-0.2,0-0.4,0.2-0.4,0.5V611.6z"/>
		<path class="st5" d="M990.8,611.6v-4.2c0-0.3,0.2-0.6,0.5-0.6h3.4c0.3,0,0.5,0.3,0.5,0.6v4.2c0,0.3-0.2,0.6-0.5,0.6h-3.4
			C991.1,612.2,990.8,611.9,990.8,611.6z M991.4,607.1c-0.1,0-0.2,0.1-0.2,0.3v4.2c0,0.2,0.1,0.3,0.2,0.3h3.4c0.1,0,0.2-0.1,0.2-0.3
			v-4.2c0-0.2-0.1-0.3-0.2-0.3H991.4z"/>
	</g>
</g>
<g>
	<polygon points="594.2,673.5 594.2,670.7 599.1,666.9 606.8,666.9 611.7,670.7 611.7,673.5 	"/>
	<rect x="599.5" y="634" width="7.7" height="32.9"/>
</g>
<polygon class="st48" points="688.9,623.4 688.9,636.3 616.2,650.3 435.8,650.3 421.1,664.6 147.8,664.6 132.8,650 50.3,650 
	50.3,623.4 "/>
<polygon class="st49" points="688.9,623.4 688.9,636.3 616.2,650.3 606.4,650.3 606.4,623.4 "/>
<g>
	<path class="st14" d="M409.7,668.1c0,20.8-16.9,37.7-37.7,37.7c-20.8,0-37.7-16.9-37.7-37.7s16.9-37.7,37.7-37.7
		C392.9,630.4,409.7,647.2,409.7,668.1z"/>
	<path d="M409.7,668.1c0,20.8-16.9,37.7-37.7,37.7c-20.8,0-37.7-16.9-37.7-37.7s16.9-37.7,37.7-37.7
		C392.9,630.4,409.7,647.2,409.7,668.1z"/>
	
		<radialGradient id="SVGID_28_" cx="3640.7393" cy="531.9" r="32.3584" gradientTransform="matrix(-1 0 0 -1 4012.7393 1200)" gradientUnits="userSpaceOnUse">
		<stop  offset="0" style="stop-color:#231F20"/>
		<stop  offset="0.413" style="stop-color:#252122"/>
		<stop  offset="0.5618" style="stop-color:#2B2729"/>
		<stop  offset="0.6675" style="stop-color:#353334"/>
		<stop  offset="0.7394" style="stop-color:#414042"/>
		<stop  offset="0.7653" style="stop-color:#4D4D4F"/>
		<stop  offset="0.7985" style="stop-color:#555658"/>
		<stop  offset="0.8485" style="stop-color:#58595B"/>
		<stop  offset="0.9212" style="stop-color:#414042"/>
	</radialGradient>
	<path class="st50" d="M404.4,668.1c0,17.9-14.5,32.4-32.4,32.4s-32.4-14.5-32.4-32.4s14.5-32.4,32.4-32.4
		C389.9,635.7,404.4,650.2,404.4,668.1z"/>
	<path class="st5" d="M399.8,668.1c0,15.3-12.4,27.8-27.8,27.8c-15.3,0-27.8-12.4-27.8-27.8c0-15.3,12.4-27.8,27.8-27.8
		S399.8,652.7,399.8,668.1z"/>
	<path class="st16" d="M399.8,668.1c0,15.3-12.4,27.8-27.8,27.8c-15.3,0-27.8-12.4-27.8-27.8c0-15.3,12.4-27.8,27.8-27.8
		S399.8,652.7,399.8,668.1z"/>
	<path class="st17" d="M391.6,668.1c0,10.8-8.8,19.6-19.6,19.6c-10.8,0-19.6-8.8-19.6-19.6s8.8-19.6,19.6-19.6
		C382.9,648.5,391.6,657.2,391.6,668.1z"/>
	<g>
		<g>
			
				<linearGradient id="SVGID_29_" gradientUnits="userSpaceOnUse" x1="3627.0957" y1="531.7" x2="3654.2957" y2="531.7" gradientTransform="matrix(-1 0 0 -1 4012.7393 1200)">
				<stop  offset="3.030300e-02" style="stop-color:#6D6E71"/>
				<stop  offset="0.2485" style="stop-color:#BCBEC0"/>
				<stop  offset="0.5212" style="stop-color:#D1D3D4"/>
				<stop  offset="0.6909" style="stop-color:#BCBEC0"/>
				<stop  offset="0.9758" style="stop-color:#58595B"/>
			</linearGradient>
			<path class="st51" d="M385.6,668.3c0,7.5-6.1,13.6-13.6,13.6s-13.6-6.1-13.6-13.6s6.1-13.6,13.6-13.6
				C379.6,654.7,385.6,660.8,385.6,668.3z"/>
		</g>
		<g>
			
				<linearGradient id="SVGID_30_" gradientUnits="userSpaceOnUse" x1="3624.0186" y1="540.95" x2="3635.3186" y2="540.95" gradientTransform="matrix(-1 0 0 -1 4012.7393 1200)">
				<stop  offset="3.030300e-02" style="stop-color:#6D6E71"/>
				<stop  offset="0.2485" style="stop-color:#BCBEC0"/>
				<stop  offset="0.5212" style="stop-color:#D1D3D4"/>
				<stop  offset="0.6909" style="stop-color:#BCBEC0"/>
				<stop  offset="0.9758" style="stop-color:#58595B"/>
			</linearGradient>
			<path class="st52" d="M377.4,661.5l6.1-7.8c2.2,1.7,4,3.9,5.2,6.4l-8.9,4.3C379.3,663.4,378.4,662.3,377.4,661.5z"/>
			
				<linearGradient id="SVGID_31_" gradientUnits="userSpaceOnUse" x1="3629.1392" y1="519.25" x2="3638.7666" y2="519.25" gradientTransform="matrix(-1 0 0 -1 4012.7393 1200)">
				<stop  offset="3.030300e-02" style="stop-color:#6D6E71"/>
				<stop  offset="0.2485" style="stop-color:#BCBEC0"/>
				<stop  offset="0.5212" style="stop-color:#D1D3D4"/>
				<stop  offset="0.6909" style="stop-color:#BCBEC0"/>
				<stop  offset="0.9758" style="stop-color:#58595B"/>
			</linearGradient>
			<path class="st53" d="M383.6,682.8c-2.2,1.7-4.7,3-7.4,3.6l-2.2-9.6c1.2-0.3,2.4-0.9,3.5-1.7L383.6,682.8z"/>
			
				<linearGradient id="SVGID_32_" gradientUnits="userSpaceOnUse" x1="3646.1272" y1="540.8" x2="3657.4429" y2="540.8" gradientTransform="matrix(-1 0 0 -1 4012.7393 1200)">
				<stop  offset="3.030300e-02" style="stop-color:#6D6E71"/>
				<stop  offset="0.2485" style="stop-color:#BCBEC0"/>
				<stop  offset="0.5212" style="stop-color:#D1D3D4"/>
				<stop  offset="0.6909" style="stop-color:#BCBEC0"/>
				<stop  offset="0.9758" style="stop-color:#58595B"/>
			</linearGradient>
			<path class="st54" d="M364.2,664.6l-8.9-4.3c1.2-2.5,3-4.7,5.1-6.5l6.2,7.7C365.6,662.4,364.8,663.4,364.2,664.6z"/>
			
				<linearGradient id="SVGID_33_" gradientUnits="userSpaceOnUse" x1="3622.1511" y1="527.75" x2="3632.8909" y2="527.75" gradientTransform="matrix(-1 0 0 -1 4012.7393 1200)">
				<stop  offset="3.030300e-02" style="stop-color:#6D6E71"/>
				<stop  offset="0.2485" style="stop-color:#BCBEC0"/>
				<stop  offset="0.5212" style="stop-color:#D1D3D4"/>
				<stop  offset="0.6909" style="stop-color:#BCBEC0"/>
				<stop  offset="0.9758" style="stop-color:#58595B"/>
			</linearGradient>
			<path class="st55" d="M380.7,668.3L380.7,668.3l9.9-0.1v0.1c0,2.8-0.6,5.5-1.8,8l-8.9-4.3C380.4,670.9,380.7,669.6,380.7,668.3z"
				/>
			
				<linearGradient id="SVGID_34_" gradientUnits="userSpaceOnUse" x1="3648.5144" y1="527.65" x2="3659.2581" y2="527.65" gradientTransform="matrix(-1 0 0 -1 4012.7393 1200)">
				<stop  offset="3.030300e-02" style="stop-color:#6D6E71"/>
				<stop  offset="0.2485" style="stop-color:#BCBEC0"/>
				<stop  offset="0.5212" style="stop-color:#D1D3D4"/>
				<stop  offset="0.6909" style="stop-color:#BCBEC0"/>
				<stop  offset="0.9758" style="stop-color:#58595B"/>
			</linearGradient>
			<path class="st56" d="M363.4,668.3c0,1.3,0.3,2.6,0.9,3.8l-8.9,4.3c-1.2-2.5-1.8-5.2-1.9-8L363.4,668.3z"/>
			
				<linearGradient id="SVGID_35_" gradientUnits="userSpaceOnUse" x1="3636.6392" y1="545.175" x2="3644.8821" y2="545.175" gradientTransform="matrix(-1 0 0 -1 4012.7393 1200)">
				<stop  offset="3.030300e-02" style="stop-color:#6D6E71"/>
				<stop  offset="0.2485" style="stop-color:#BCBEC0"/>
				<stop  offset="0.5212" style="stop-color:#D1D3D4"/>
				<stop  offset="0.6909" style="stop-color:#BCBEC0"/>
				<stop  offset="0.9758" style="stop-color:#58595B"/>
			</linearGradient>
			<path class="st57" d="M367.9,650.2c2.7-0.6,5.6-0.6,8.2,0l-2.2,9.7c-1.3-0.3-2.6-0.3-3.9,0L367.9,650.2z"/>
			
				<linearGradient id="SVGID_36_" gradientUnits="userSpaceOnUse" x1="3642.6279" y1="519.25" x2="3652.2581" y2="519.25" gradientTransform="matrix(-1 0 0 -1 4012.7393 1200)">
				<stop  offset="3.030300e-02" style="stop-color:#6D6E71"/>
				<stop  offset="0.2485" style="stop-color:#BCBEC0"/>
				<stop  offset="0.5212" style="stop-color:#D1D3D4"/>
				<stop  offset="0.6909" style="stop-color:#BCBEC0"/>
				<stop  offset="0.9758" style="stop-color:#58595B"/>
			</linearGradient>
			<path class="st58" d="M370.1,676.8l-2.2,9.6c-2.7-0.6-5.3-1.8-7.4-3.6l6.2-7.7C367.7,675.9,368.9,676.5,370.1,676.8z"/>
		</g>
	</g>
</g>
<g>
	<path class="st14" d="M322.1,668.1c0,20.8-16.9,37.7-37.7,37.7c-20.8,0-37.7-16.9-37.7-37.7s16.9-37.7,37.7-37.7
		C305.3,630.4,322.1,647.2,322.1,668.1z"/>
	<path d="M322.1,668.1c0,20.8-16.9,37.7-37.7,37.7c-20.8,0-37.7-16.9-37.7-37.7s16.9-37.7,37.7-37.7
		C305.3,630.4,322.1,647.2,322.1,668.1z"/>
	
		<radialGradient id="SVGID_37_" cx="3728.3394" cy="531.9" r="32.357" gradientTransform="matrix(-1 0 0 -1 4012.7393 1200)" gradientUnits="userSpaceOnUse">
		<stop  offset="0" style="stop-color:#231F20"/>
		<stop  offset="0.413" style="stop-color:#252122"/>
		<stop  offset="0.5618" style="stop-color:#2B2729"/>
		<stop  offset="0.6675" style="stop-color:#353334"/>
		<stop  offset="0.7394" style="stop-color:#414042"/>
		<stop  offset="0.7653" style="stop-color:#4D4D4F"/>
		<stop  offset="0.7985" style="stop-color:#555658"/>
		<stop  offset="0.8485" style="stop-color:#58595B"/>
		<stop  offset="0.9212" style="stop-color:#414042"/>
	</radialGradient>
	<path class="st59" d="M316.8,668.1c0,17.9-14.5,32.4-32.4,32.4S252,686,252,668.1s14.5-32.4,32.4-32.4
		C302.3,635.7,316.8,650.2,316.8,668.1z"/>
	<path class="st5" d="M312.2,668.1c0,15.3-12.4,27.8-27.8,27.8c-15.3,0-27.8-12.4-27.8-27.8c0-15.3,12.4-27.8,27.8-27.8
		C299.8,640.3,312.2,652.7,312.2,668.1z"/>
	<path class="st16" d="M312.2,668.1c0,15.3-12.4,27.8-27.8,27.8c-15.3,0-27.8-12.4-27.8-27.8c0-15.3,12.4-27.8,27.8-27.8
		C299.8,640.3,312.2,652.7,312.2,668.1z"/>
	<path class="st17" d="M304,668.1c0,10.8-8.8,19.6-19.6,19.6c-10.8,0-19.6-8.8-19.6-19.6s8.8-19.6,19.6-19.6
		C295.3,648.5,304,657.2,304,668.1z"/>
	<g>
		<g>
			
				<linearGradient id="SVGID_38_" gradientUnits="userSpaceOnUse" x1="3714.6926" y1="531.7" x2="3741.8926" y2="531.7" gradientTransform="matrix(-1 0 0 -1 4012.7393 1200)">
				<stop  offset="3.030300e-02" style="stop-color:#6D6E71"/>
				<stop  offset="0.2485" style="stop-color:#BCBEC0"/>
				<stop  offset="0.5212" style="stop-color:#D1D3D4"/>
				<stop  offset="0.6909" style="stop-color:#BCBEC0"/>
				<stop  offset="0.9758" style="stop-color:#58595B"/>
			</linearGradient>
			<path class="st60" d="M298,668.3c0,7.5-6.1,13.6-13.6,13.6s-13.6-6.1-13.6-13.6s6.1-13.6,13.6-13.6
				C292,654.7,298,660.8,298,668.3z"/>
		</g>
		<g>
			
				<linearGradient id="SVGID_39_" gradientUnits="userSpaceOnUse" x1="3711.6157" y1="540.95" x2="3722.9158" y2="540.95" gradientTransform="matrix(-1 0 0 -1 4012.7393 1200)">
				<stop  offset="3.030300e-02" style="stop-color:#6D6E71"/>
				<stop  offset="0.2485" style="stop-color:#BCBEC0"/>
				<stop  offset="0.5212" style="stop-color:#D1D3D4"/>
				<stop  offset="0.6909" style="stop-color:#BCBEC0"/>
				<stop  offset="0.9758" style="stop-color:#58595B"/>
			</linearGradient>
			<path class="st61" d="M289.8,661.5l6.1-7.8c2.2,1.7,4,3.9,5.2,6.4l-8.9,4.3C291.7,663.4,290.8,662.3,289.8,661.5z"/>
			
				<linearGradient id="SVGID_40_" gradientUnits="userSpaceOnUse" x1="3716.7393" y1="519.25" x2="3726.3667" y2="519.25" gradientTransform="matrix(-1 0 0 -1 4012.7393 1200)">
				<stop  offset="3.030300e-02" style="stop-color:#6D6E71"/>
				<stop  offset="0.2485" style="stop-color:#BCBEC0"/>
				<stop  offset="0.5212" style="stop-color:#D1D3D4"/>
				<stop  offset="0.6909" style="stop-color:#BCBEC0"/>
				<stop  offset="0.9758" style="stop-color:#58595B"/>
			</linearGradient>
			<path class="st62" d="M296,682.8c-2.2,1.7-4.7,3-7.4,3.6l-2.2-9.6c1.2-0.3,2.4-0.9,3.5-1.7L296,682.8z"/>
			
				<linearGradient id="SVGID_41_" gradientUnits="userSpaceOnUse" x1="3733.7241" y1="540.8" x2="3745.04" y2="540.8" gradientTransform="matrix(-1 0 0 -1 4012.7393 1200)">
				<stop  offset="3.030300e-02" style="stop-color:#6D6E71"/>
				<stop  offset="0.2485" style="stop-color:#BCBEC0"/>
				<stop  offset="0.5212" style="stop-color:#D1D3D4"/>
				<stop  offset="0.6909" style="stop-color:#BCBEC0"/>
				<stop  offset="0.9758" style="stop-color:#58595B"/>
			</linearGradient>
			<path class="st63" d="M276.6,664.6l-8.9-4.3c1.2-2.5,3-4.7,5.1-6.5l6.2,7.7C278,662.4,277.2,663.4,276.6,664.6z"/>
			
				<linearGradient id="SVGID_42_" gradientUnits="userSpaceOnUse" x1="3709.7393" y1="527.75" x2="3720.4792" y2="527.75" gradientTransform="matrix(-1 0 0 -1 4012.7393 1200)">
				<stop  offset="3.030300e-02" style="stop-color:#6D6E71"/>
				<stop  offset="0.2485" style="stop-color:#BCBEC0"/>
				<stop  offset="0.5212" style="stop-color:#D1D3D4"/>
				<stop  offset="0.6909" style="stop-color:#BCBEC0"/>
				<stop  offset="0.9758" style="stop-color:#58595B"/>
			</linearGradient>
			<path class="st64" d="M293.1,668.3L293.1,668.3l9.9-0.1v0.1c0,2.8-0.6,5.5-1.8,8l-8.9-4.3C292.8,670.9,293.1,669.6,293.1,668.3z"
				/>
			
				<linearGradient id="SVGID_43_" gradientUnits="userSpaceOnUse" x1="3736.1116" y1="527.65" x2="3746.855" y2="527.65" gradientTransform="matrix(-1 0 0 -1 4012.7393 1200)">
				<stop  offset="3.030300e-02" style="stop-color:#6D6E71"/>
				<stop  offset="0.2485" style="stop-color:#BCBEC0"/>
				<stop  offset="0.5212" style="stop-color:#D1D3D4"/>
				<stop  offset="0.6909" style="stop-color:#BCBEC0"/>
				<stop  offset="0.9758" style="stop-color:#58595B"/>
			</linearGradient>
			<path class="st65" d="M275.8,668.3c0,1.3,0.3,2.6,0.9,3.8l-8.9,4.3c-1.2-2.5-1.8-5.2-1.9-8L275.8,668.3z"/>
			
				<linearGradient id="SVGID_44_" gradientUnits="userSpaceOnUse" x1="3724.2393" y1="545.175" x2="3732.4822" y2="545.175" gradientTransform="matrix(-1 0 0 -1 4012.7393 1200)">
				<stop  offset="3.030300e-02" style="stop-color:#6D6E71"/>
				<stop  offset="0.2485" style="stop-color:#BCBEC0"/>
				<stop  offset="0.5212" style="stop-color:#D1D3D4"/>
				<stop  offset="0.6909" style="stop-color:#BCBEC0"/>
				<stop  offset="0.9758" style="stop-color:#58595B"/>
			</linearGradient>
			<path class="st66" d="M280.3,650.2c2.7-0.6,5.6-0.6,8.2,0l-2.2,9.7c-1.3-0.3-2.6-0.3-3.9,0L280.3,650.2z"/>
			
				<linearGradient id="SVGID_45_" gradientUnits="userSpaceOnUse" x1="3730.2249" y1="519.25" x2="3739.8552" y2="519.25" gradientTransform="matrix(-1 0 0 -1 4012.7393 1200)">
				<stop  offset="3.030300e-02" style="stop-color:#6D6E71"/>
				<stop  offset="0.2485" style="stop-color:#BCBEC0"/>
				<stop  offset="0.5212" style="stop-color:#D1D3D4"/>
				<stop  offset="0.6909" style="stop-color:#BCBEC0"/>
				<stop  offset="0.9758" style="stop-color:#58595B"/>
			</linearGradient>
			<path class="st67" d="M282.5,676.8l-2.2,9.6c-2.7-0.6-5.3-1.8-7.4-3.6l6.2-7.7C280.1,675.9,281.3,676.5,282.5,676.8z"/>
		</g>
	</g>
</g>
<g>
	<path class="st14" d="M234.6,668.1c0,20.8-16.9,37.7-37.7,37.7s-37.7-16.9-37.7-37.7s16.9-37.7,37.7-37.7
		C217.7,630.4,234.6,647.2,234.6,668.1z"/>
	<path d="M234.6,668.1c0,20.8-16.9,37.7-37.7,37.7s-37.7-16.9-37.7-37.7s16.9-37.7,37.7-37.7C217.7,630.4,234.6,647.2,234.6,668.1z"
		/>
	
		<radialGradient id="SVGID_46_" cx="3815.9392" cy="531.9" r="32.3556" gradientTransform="matrix(-1 0 0 -1 4012.7393 1200)" gradientUnits="userSpaceOnUse">
		<stop  offset="0" style="stop-color:#231F20"/>
		<stop  offset="0.413" style="stop-color:#252122"/>
		<stop  offset="0.5618" style="stop-color:#2B2729"/>
		<stop  offset="0.6675" style="stop-color:#353334"/>
		<stop  offset="0.7394" style="stop-color:#414042"/>
		<stop  offset="0.7653" style="stop-color:#4D4D4F"/>
		<stop  offset="0.7985" style="stop-color:#555658"/>
		<stop  offset="0.8485" style="stop-color:#58595B"/>
		<stop  offset="0.9212" style="stop-color:#414042"/>
	</radialGradient>
	<path class="st68" d="M229.2,668.1c0,17.9-14.5,32.4-32.4,32.4s-32.4-14.5-32.4-32.4s14.5-32.4,32.4-32.4
		C214.7,635.7,229.2,650.2,229.2,668.1z"/>
	<path class="st5" d="M224.6,668.1c0,15.3-12.4,27.8-27.8,27.8c-15.3,0-27.8-12.4-27.8-27.8c0-15.3,12.4-27.8,27.8-27.8
		S224.6,652.7,224.6,668.1z"/>
	<path class="st16" d="M224.6,668.1c0,15.3-12.4,27.8-27.8,27.8c-15.3,0-27.8-12.4-27.8-27.8c0-15.3,12.4-27.8,27.8-27.8
		S224.6,652.7,224.6,668.1z"/>
	<path class="st17" d="M216.5,668.1c0,10.8-8.8,19.6-19.6,19.6s-19.6-8.8-19.6-19.6s8.8-19.6,19.6-19.6S216.5,657.2,216.5,668.1z"/>
	<g>
		<g>
			
				<linearGradient id="SVGID_47_" gradientUnits="userSpaceOnUse" x1="3802.2898" y1="531.7" x2="3829.4897" y2="531.7" gradientTransform="matrix(-1 0 0 -1 4012.7393 1200)">
				<stop  offset="3.030300e-02" style="stop-color:#6D6E71"/>
				<stop  offset="0.2485" style="stop-color:#BCBEC0"/>
				<stop  offset="0.5212" style="stop-color:#D1D3D4"/>
				<stop  offset="0.6909" style="stop-color:#BCBEC0"/>
				<stop  offset="0.9758" style="stop-color:#58595B"/>
			</linearGradient>
			<path class="st69" d="M210.4,668.3c0,7.5-6.1,13.6-13.6,13.6s-13.6-6.1-13.6-13.6s6.1-13.6,13.6-13.6
				C204.4,654.7,210.4,660.8,210.4,668.3z"/>
		</g>
		<g>
			
				<linearGradient id="SVGID_48_" gradientUnits="userSpaceOnUse" x1="3799.2126" y1="540.95" x2="3810.5127" y2="540.95" gradientTransform="matrix(-1 0 0 -1 4012.7393 1200)">
				<stop  offset="3.030300e-02" style="stop-color:#6D6E71"/>
				<stop  offset="0.2485" style="stop-color:#BCBEC0"/>
				<stop  offset="0.5212" style="stop-color:#D1D3D4"/>
				<stop  offset="0.6909" style="stop-color:#BCBEC0"/>
				<stop  offset="0.9758" style="stop-color:#58595B"/>
			</linearGradient>
			<path class="st70" d="M202.2,661.5l6.1-7.8c2.2,1.7,4,3.9,5.2,6.4l-8.9,4.3C204.1,663.4,203.2,662.3,202.2,661.5z"/>
			
				<linearGradient id="SVGID_49_" gradientUnits="userSpaceOnUse" x1="3804.3286" y1="519.25" x2="3813.9561" y2="519.25" gradientTransform="matrix(-1 0 0 -1 4012.7393 1200)">
				<stop  offset="3.030300e-02" style="stop-color:#6D6E71"/>
				<stop  offset="0.2485" style="stop-color:#BCBEC0"/>
				<stop  offset="0.5212" style="stop-color:#D1D3D4"/>
				<stop  offset="0.6909" style="stop-color:#BCBEC0"/>
				<stop  offset="0.9758" style="stop-color:#58595B"/>
			</linearGradient>
			<path class="st71" d="M208.4,682.8c-2.2,1.7-4.7,3-7.4,3.6l-2.2-9.6c1.2-0.3,2.4-0.9,3.5-1.7L208.4,682.8z"/>
			
				<linearGradient id="SVGID_50_" gradientUnits="userSpaceOnUse" x1="3821.3213" y1="540.8" x2="3832.637" y2="540.8" gradientTransform="matrix(-1 0 0 -1 4012.7393 1200)">
				<stop  offset="3.030300e-02" style="stop-color:#6D6E71"/>
				<stop  offset="0.2485" style="stop-color:#BCBEC0"/>
				<stop  offset="0.5212" style="stop-color:#D1D3D4"/>
				<stop  offset="0.6909" style="stop-color:#BCBEC0"/>
				<stop  offset="0.9758" style="stop-color:#58595B"/>
			</linearGradient>
			<path class="st72" d="M189,664.6l-8.9-4.3c1.2-2.5,3-4.7,5.1-6.5l6.2,7.7C190.4,662.4,189.6,663.4,189,664.6z"/>
			
				<linearGradient id="SVGID_51_" gradientUnits="userSpaceOnUse" x1="3797.3394" y1="527.75" x2="3808.0793" y2="527.75" gradientTransform="matrix(-1 0 0 -1 4012.7393 1200)">
				<stop  offset="3.030300e-02" style="stop-color:#6D6E71"/>
				<stop  offset="0.2485" style="stop-color:#BCBEC0"/>
				<stop  offset="0.5212" style="stop-color:#D1D3D4"/>
				<stop  offset="0.6909" style="stop-color:#BCBEC0"/>
				<stop  offset="0.9758" style="stop-color:#58595B"/>
			</linearGradient>
			<path class="st73" d="M205.5,668.3L205.5,668.3l9.9-0.1v0.1c0,2.8-0.6,5.5-1.8,8l-8.9-4.3C205.2,670.9,205.5,669.6,205.5,668.3z"
				/>
			
				<linearGradient id="SVGID_52_" gradientUnits="userSpaceOnUse" x1="3823.7085" y1="527.65" x2="3834.4521" y2="527.65" gradientTransform="matrix(-1 0 0 -1 4012.7393 1200)">
				<stop  offset="3.030300e-02" style="stop-color:#6D6E71"/>
				<stop  offset="0.2485" style="stop-color:#BCBEC0"/>
				<stop  offset="0.5212" style="stop-color:#D1D3D4"/>
				<stop  offset="0.6909" style="stop-color:#BCBEC0"/>
				<stop  offset="0.9758" style="stop-color:#58595B"/>
			</linearGradient>
			<path class="st74" d="M188.2,668.3c0,1.3,0.3,2.6,0.9,3.8l-8.9,4.3c-1.2-2.5-1.8-5.2-1.9-8L188.2,668.3z"/>
			
				<linearGradient id="SVGID_53_" gradientUnits="userSpaceOnUse" x1="3811.8394" y1="545.175" x2="3820.082" y2="545.175" gradientTransform="matrix(-1 0 0 -1 4012.7393 1200)">
				<stop  offset="3.030300e-02" style="stop-color:#6D6E71"/>
				<stop  offset="0.2485" style="stop-color:#BCBEC0"/>
				<stop  offset="0.5212" style="stop-color:#D1D3D4"/>
				<stop  offset="0.6909" style="stop-color:#BCBEC0"/>
				<stop  offset="0.9758" style="stop-color:#58595B"/>
			</linearGradient>
			<path class="st75" d="M192.7,650.2c2.7-0.6,5.6-0.6,8.2,0l-2.2,9.7c-1.3-0.3-2.6-0.3-3.9,0L192.7,650.2z"/>
			
				<linearGradient id="SVGID_54_" gradientUnits="userSpaceOnUse" x1="3817.822" y1="519.25" x2="3827.4521" y2="519.25" gradientTransform="matrix(-1 0 0 -1 4012.7393 1200)">
				<stop  offset="3.030300e-02" style="stop-color:#6D6E71"/>
				<stop  offset="0.2485" style="stop-color:#BCBEC0"/>
				<stop  offset="0.5212" style="stop-color:#D1D3D4"/>
				<stop  offset="0.6909" style="stop-color:#BCBEC0"/>
				<stop  offset="0.9758" style="stop-color:#58595B"/>
			</linearGradient>
			<path class="st76" d="M194.9,676.8l-2.2,9.6c-2.7-0.6-5.3-1.8-7.4-3.6l6.2-7.7C192.5,675.9,193.7,676.5,194.9,676.8z"/>
		</g>
	</g>
</g>
<g class="st77">
	<path class="st5" d="M50.3,539.8c0,2.3,0.1,4.7,0.2,6.9h303.4l54.1,54.1h517.4c1.8-2.9,3.5-6,5-9.4H411.9l-54.1-54.1H50.3
		C50.3,538.1,50.3,539,50.3,539.8z"/>
	<path class="st5" d="M51.2,522.9h302.7L408,577h527.8c0.9-3,1.7-6.2,2.3-9.4H411.9l-54.1-54.1H52.5C52,516.5,51.5,519.7,51.2,522.9
		z"/>
</g>
<g>
	<g>
		<g>
			<g>
				<path d="M583.2,630.3c0.8,0,1.4,0.6,1.4,1.4c0,0.8-0.6,1.4-1.4,1.4c-0.8,0-1.4-0.6-1.4-1.4C581.8,630.9,582.4,630.3,583.2,630.3
					z"/>
				<path d="M583.2,630.3c0.8,0,1.4,0.6,1.4,1.4c0,0.8-0.6,1.4-1.4,1.4c-0.8,0-1.4-0.6-1.4-1.4C581.8,630.9,582.4,630.3,583.2,630.3
					z"/>
				<g>
					<path d="M583.2,630.7c0.5,0,1,0.5,1,1s-0.5,1-1,1s-1-0.5-1-1C582.2,631.1,582.6,630.7,583.2,630.7z"/>
					<path d="M583.2,632.7c-0.5,0-1-0.5-1-1s0.5-1,1-1s1,0.5,1,1S583.7,632.7,583.2,632.7z M583.2,632.6c0.5,0,1-0.4,1-1
						c0-0.5-0.4-1-1-1c-0.5,0-1,0.4-1,1C582.2,632.2,582.6,632.6,583.2,632.6z"/>
				</g>
				<g>
					<g>
						<path d="M583.2,630.9c0.4,0,0.8,0.3,0.8,0.8c0,0.4-0.3,0.8-0.8,0.8c-0.4,0-0.8-0.3-0.8-0.8S582.8,630.9,583.2,630.9z"/>
						<path d="M583.2,632.5c-0.4,0-0.8-0.4-0.8-0.8c0-0.4,0.4-0.8,0.8-0.8c0.4,0,0.8,0.4,0.8,0.8S583.6,632.5,583.2,632.5z
							 M583.2,632.4c0.4,0,0.7-0.3,0.7-0.7s-0.3-0.7-0.7-0.7s-0.7,0.3-0.7,0.7C582.5,632,582.8,632.4,583.2,632.4z"/>
					</g>
				</g>
			</g>
			<g>
				<path d="M597.2,630.4c0.8,0,1.4,0.6,1.4,1.4c0,0.8-0.6,1.4-1.4,1.4s-1.4-0.6-1.4-1.4S596.4,630.4,597.2,630.4z"/>
				<path d="M597.2,630.4c0.8,0,1.4,0.6,1.4,1.4c0,0.8-0.6,1.4-1.4,1.4s-1.4-0.6-1.4-1.4S596.4,630.4,597.2,630.4z"/>
				<g>
					<path d="M597.2,630.8c0.5,0,1,0.5,1,1s-0.5,1-1,1s-1-0.5-1-1S596.7,630.8,597.2,630.8z"/>
					<path d="M597.2,632.8c-0.5,0-1-0.5-1-1s0.5-1,1-1s1,0.5,1,1C598.2,632.4,597.7,632.8,597.2,632.8z M597.2,632.8
						c0.5,0,1-0.4,1-1c0-0.5-0.4-1-1-1c-0.5,0-1,0.4-1,1C596.2,632.3,596.7,632.8,597.2,632.8z"/>
				</g>
				<g>
					<g>
						<path d="M597.2,631c0.4,0,0.8,0.3,0.8,0.8c0,0.4-0.3,0.8-0.8,0.8c-0.4,0-0.8-0.3-0.8-0.8C596.5,631.4,596.8,631,597.2,631z"/>
						<path d="M597.2,632.6c-0.4,0-0.8-0.4-0.8-0.8c0-0.4,0.4-0.8,0.8-0.8c0.4,0,0.8,0.4,0.8,0.8C598,632.3,597.6,632.6,597.2,632.6
							z M597.2,632.5c0.4,0,0.7-0.3,0.7-0.7s-0.3-0.7-0.7-0.7s-0.7,0.3-0.7,0.7S596.8,632.5,597.2,632.5z"/>
					</g>
				</g>
			</g>
		</g>
		<g>
			<g>
				<path d="M583.2,641.8c0.8,0,1.4,0.6,1.4,1.4c0,0.8-0.6,1.4-1.4,1.4c-0.8,0-1.4-0.6-1.4-1.4C581.8,642.4,582.4,641.8,583.2,641.8
					z"/>
				<path d="M583.2,641.8c0.8,0,1.4,0.6,1.4,1.4c0,0.8-0.6,1.4-1.4,1.4c-0.8,0-1.4-0.6-1.4-1.4C581.8,642.4,582.4,641.8,583.2,641.8
					z"/>
				<g>
					<path d="M583.2,642.2c0.5,0,1,0.5,1,1s-0.5,1-1,1s-1-0.5-1-1C582.2,642.6,582.6,642.2,583.2,642.2z"/>
					<path d="M583.2,644.2c-0.5,0-1-0.5-1-1s0.5-1,1-1s1,0.5,1,1C584.2,643.8,583.7,644.2,583.2,644.2z M583.2,644.2
						c0.5,0,1-0.4,1-1c0-0.5-0.4-1-1-1c-0.5,0-1,0.4-1,1C582.2,643.7,582.6,644.2,583.2,644.2z"/>
				</g>
				<g>
					<g>
						<path d="M583.2,642.4c0.4,0,0.8,0.3,0.8,0.8c0,0.4-0.3,0.8-0.8,0.8c-0.4,0-0.8-0.3-0.8-0.8
							C582.4,642.8,582.8,642.4,583.2,642.4z"/>
						<path d="M583.2,644c-0.4,0-0.8-0.4-0.8-0.8c0-0.4,0.4-0.8,0.8-0.8c0.4,0,0.8,0.4,0.8,0.8C584,643.7,583.6,644,583.2,644z
							 M583.2,643.9c0.4,0,0.7-0.3,0.7-0.7s-0.3-0.7-0.7-0.7s-0.7,0.3-0.7,0.7C582.5,643.6,582.8,643.9,583.2,643.9z"/>
					</g>
				</g>
			</g>
			<g>
				<path d="M597.2,642c0.8,0,1.4,0.6,1.4,1.4c0,0.8-0.6,1.4-1.4,1.4c-0.8,0-1.4-0.6-1.4-1.4S596.4,642,597.2,642z"/>
				<path d="M597.2,642c0.8,0,1.4,0.6,1.4,1.4c0,0.8-0.6,1.4-1.4,1.4c-0.8,0-1.4-0.6-1.4-1.4S596.4,642,597.2,642z"/>
				<g>
					<path d="M597.2,642.4c0.5,0,1,0.5,1,1s-0.5,1-1,1s-1-0.5-1-1C596.2,642.8,596.7,642.4,597.2,642.4z"/>
					<path d="M597.2,644.4c-0.5,0-1-0.5-1-1s0.5-1,1-1s1,0.5,1,1S597.7,644.4,597.2,644.4z M597.2,644.3c0.5,0,1-0.4,1-1
						c0-0.5-0.4-1-1-1c-0.5,0-1,0.4-1,1C596.2,643.9,596.7,644.3,597.2,644.3z"/>
				</g>
				<g>
					<g>
						<path d="M597.2,642.6c0.4,0,0.8,0.3,0.8,0.8c0,0.4-0.3,0.8-0.8,0.8c-0.4,0-0.8-0.3-0.8-0.8
							C596.5,642.9,596.8,642.6,597.2,642.6z"/>
						<path d="M597.2,644.2c-0.4,0-0.8-0.4-0.8-0.8c0-0.4,0.4-0.8,0.8-0.8c0.4,0,0.8,0.4,0.8,0.8S597.6,644.2,597.2,644.2z
							 M597.2,644.1c0.4,0,0.7-0.3,0.7-0.7s-0.3-0.7-0.7-0.7s-0.7,0.3-0.7,0.7C596.5,643.7,596.8,644.1,597.2,644.1z"/>
					</g>
				</g>
			</g>
		</g>
	</g>
	<g>
		<g>
			<g>
				<path d="M512.9,630.3c0.8,0,1.4,0.6,1.4,1.4c0,0.8-0.6,1.4-1.4,1.4c-0.8,0-1.4-0.6-1.4-1.4C511.5,630.9,512.1,630.3,512.9,630.3
					z"/>
				<path d="M512.9,630.3c0.8,0,1.4,0.6,1.4,1.4c0,0.8-0.6,1.4-1.4,1.4c-0.8,0-1.4-0.6-1.4-1.4C511.5,630.9,512.1,630.3,512.9,630.3
					z"/>
				<g>
					<path d="M512.9,630.7c0.5,0,1,0.5,1,1s-0.5,1-1,1s-1-0.5-1-1C511.9,631.1,512.4,630.7,512.9,630.7z"/>
					<path d="M512.9,632.7c-0.5,0-1-0.5-1-1s0.5-1,1-1s1,0.5,1,1S513.4,632.7,512.9,632.7z M512.9,632.6c0.5,0,1-0.4,1-1
						c0-0.5-0.4-1-1-1c-0.5,0-1,0.4-1,1C511.9,632.2,512.3,632.6,512.9,632.6z"/>
				</g>
				<g>
					<g>
						<path d="M512.9,630.9c0.4,0,0.8,0.3,0.8,0.8c0,0.4-0.3,0.8-0.8,0.8c-0.4,0-0.8-0.3-0.8-0.8
							C512.1,631.2,512.5,630.9,512.9,630.9z"/>
						<path d="M512.9,632.5c-0.4,0-0.8-0.4-0.8-0.8c0-0.4,0.4-0.8,0.8-0.8c0.4,0,0.8,0.4,0.8,0.8S513.3,632.5,512.9,632.5z
							 M512.9,632.4c0.4,0,0.7-0.3,0.7-0.7s-0.3-0.7-0.7-0.7s-0.7,0.3-0.7,0.7C512.2,632,512.5,632.4,512.9,632.4z"/>
					</g>
				</g>
			</g>
			<g>
				<path d="M526.9,630.4c0.8,0,1.4,0.6,1.4,1.4c0,0.8-0.6,1.4-1.4,1.4c-0.8,0-1.4-0.6-1.4-1.4S526.2,630.4,526.9,630.4z"/>
				<path d="M526.9,630.4c0.8,0,1.4,0.6,1.4,1.4c0,0.8-0.6,1.4-1.4,1.4c-0.8,0-1.4-0.6-1.4-1.4S526.2,630.4,526.9,630.4z"/>
				<g>
					<path d="M526.9,630.8c0.5,0,1,0.5,1,1s-0.5,1-1,1s-1-0.5-1-1S526.4,630.8,526.9,630.8z"/>
					<path d="M526.9,632.8c-0.5,0-1-0.5-1-1s0.5-1,1-1s1,0.5,1,1C527.9,632.4,527.5,632.8,526.9,632.8z M526.9,632.8
						c0.5,0,1-0.4,1-1c0-0.5-0.4-1-1-1c-0.5,0-1,0.4-1,1C525.9,632.3,526.4,632.8,526.9,632.8z"/>
				</g>
				<g>
					<g>
						<path d="M526.9,631c0.4,0,0.8,0.3,0.8,0.8c0,0.4-0.3,0.8-0.8,0.8c-0.4,0-0.8-0.3-0.8-0.8C526.2,631.4,526.5,631,526.9,631z"/>
						<path d="M526.9,632.6c-0.4,0-0.8-0.4-0.8-0.8c0-0.4,0.4-0.8,0.8-0.8c0.4,0,0.8,0.4,0.8,0.8
							C527.7,632.3,527.4,632.6,526.9,632.6z M526.9,632.5c0.4,0,0.7-0.3,0.7-0.7s-0.3-0.7-0.7-0.7s-0.7,0.3-0.7,0.7
							S526.5,632.5,526.9,632.5z"/>
					</g>
				</g>
			</g>
		</g>
		<g>
			<g>
				<path d="M512.9,641.8c0.8,0,1.4,0.6,1.4,1.4c0,0.8-0.6,1.4-1.4,1.4c-0.8,0-1.4-0.6-1.4-1.4C511.5,642.4,512.1,641.8,512.9,641.8
					z"/>
				<path d="M512.9,641.8c0.8,0,1.4,0.6,1.4,1.4c0,0.8-0.6,1.4-1.4,1.4c-0.8,0-1.4-0.6-1.4-1.4C511.5,642.4,512.1,641.8,512.9,641.8
					z"/>
				<g>
					<path d="M512.9,642.2c0.5,0,1,0.5,1,1s-0.5,1-1,1s-1-0.5-1-1C511.9,642.6,512.4,642.2,512.9,642.2z"/>
					<path d="M512.9,644.2c-0.5,0-1-0.5-1-1s0.5-1,1-1s1,0.5,1,1C513.9,643.8,513.4,644.2,512.9,644.2z M512.9,644.2
						c0.5,0,1-0.4,1-1c0-0.5-0.4-1-1-1c-0.5,0-1,0.4-1,1C511.9,643.7,512.3,644.2,512.9,644.2z"/>
				</g>
				<g>
					<g>
						<path d="M512.9,642.4c0.4,0,0.8,0.3,0.8,0.8c0,0.4-0.3,0.8-0.8,0.8c-0.4,0-0.8-0.3-0.8-0.8
							C512.1,642.8,512.5,642.4,512.9,642.4z"/>
						<path d="M512.9,644c-0.4,0-0.8-0.4-0.8-0.8c0-0.4,0.4-0.8,0.8-0.8c0.4,0,0.8,0.4,0.8,0.8C513.7,643.7,513.3,644,512.9,644z
							 M512.9,643.9c0.4,0,0.7-0.3,0.7-0.7s-0.3-0.7-0.7-0.7s-0.7,0.3-0.7,0.7C512.2,643.6,512.5,643.9,512.9,643.9z"/>
					</g>
				</g>
			</g>
			<g>
				<path d="M526.9,642c0.8,0,1.4,0.6,1.4,1.4c0,0.8-0.6,1.4-1.4,1.4c-0.8,0-1.4-0.6-1.4-1.4S526.2,642,526.9,642z"/>
				<path d="M526.9,642c0.8,0,1.4,0.6,1.4,1.4c0,0.8-0.6,1.4-1.4,1.4c-0.8,0-1.4-0.6-1.4-1.4S526.2,642,526.9,642z"/>
				<g>
					<path d="M526.9,642.4c0.5,0,1,0.5,1,1s-0.5,1-1,1s-1-0.5-1-1C525.9,642.8,526.4,642.4,526.9,642.4z"/>
					<path d="M526.9,644.4c-0.5,0-1-0.5-1-1s0.5-1,1-1s1,0.5,1,1S527.5,644.4,526.9,644.4z M526.9,644.3c0.5,0,1-0.4,1-1
						c0-0.5-0.4-1-1-1c-0.5,0-1,0.4-1,1C525.9,643.9,526.4,644.3,526.9,644.3z"/>
				</g>
				<g>
					<g>
						<path d="M526.9,642.6c0.4,0,0.8,0.3,0.8,0.8c0,0.4-0.3,0.8-0.8,0.8c-0.4,0-0.8-0.3-0.8-0.8
							C526.2,642.9,526.5,642.6,526.9,642.6z"/>
						<path d="M526.9,644.2c-0.4,0-0.8-0.4-0.8-0.8c0-0.4,0.4-0.8,0.8-0.8c0.4,0,0.8,0.4,0.8,0.8S527.4,644.2,526.9,644.2z
							 M526.9,644.1c0.4,0,0.7-0.3,0.7-0.7s-0.3-0.7-0.7-0.7s-0.7,0.3-0.7,0.7C526.2,643.7,526.5,644.1,526.9,644.1z"/>
					</g>
				</g>
			</g>
		</g>
	</g>
	<g>
		<g>
			<g>
				<path d="M442.6,630.3c0.8,0,1.4,0.6,1.4,1.4c0,0.8-0.6,1.4-1.4,1.4s-1.4-0.6-1.4-1.4C441.2,630.9,441.9,630.3,442.6,630.3z"/>
				<path d="M442.6,630.3c0.8,0,1.4,0.6,1.4,1.4c0,0.8-0.6,1.4-1.4,1.4s-1.4-0.6-1.4-1.4C441.2,630.9,441.9,630.3,442.6,630.3z"/>
				<g>
					<path d="M442.6,630.7c0.5,0,1,0.5,1,1s-0.5,1-1,1s-1-0.5-1-1C441.6,631.1,442.1,630.7,442.6,630.7z"/>
					<path d="M442.6,632.7c-0.5,0-1-0.5-1-1s0.5-1,1-1s1,0.5,1,1S443.2,632.7,442.6,632.7z M442.6,632.6c0.5,0,1-0.4,1-1
						c0-0.5-0.4-1-1-1c-0.5,0-1,0.4-1,1C441.6,632.2,442.1,632.6,442.6,632.6z"/>
				</g>
				<g>
					<g>
						<path d="M442.6,630.9c0.4,0,0.8,0.3,0.8,0.8c0,0.4-0.3,0.8-0.8,0.8c-0.4,0-0.8-0.3-0.8-0.8
							C441.9,631.2,442.2,630.9,442.6,630.9z"/>
						<path d="M442.6,632.5c-0.4,0-0.8-0.4-0.8-0.8c0-0.4,0.4-0.8,0.8-0.8s0.8,0.4,0.8,0.8S443.1,632.5,442.6,632.5z M442.6,632.4
							c0.4,0,0.7-0.3,0.7-0.7s-0.3-0.7-0.7-0.7c-0.4,0-0.7,0.3-0.7,0.7C441.9,632,442.2,632.4,442.6,632.4z"/>
					</g>
				</g>
			</g>
			<g>
				<path d="M456.7,630.4c0.8,0,1.4,0.6,1.4,1.4c0,0.8-0.6,1.4-1.4,1.4s-1.4-0.6-1.4-1.4C455.3,631,455.9,630.4,456.7,630.4z"/>
				<path d="M456.7,630.4c0.8,0,1.4,0.6,1.4,1.4c0,0.8-0.6,1.4-1.4,1.4s-1.4-0.6-1.4-1.4C455.3,631,455.9,630.4,456.7,630.4z"/>
				<g>
					<path d="M456.7,630.8c0.5,0,1,0.5,1,1s-0.5,1-1,1s-1-0.5-1-1S456.1,630.8,456.7,630.8z"/>
					<path d="M456.6,632.8c-0.5,0-1-0.5-1-1s0.5-1,1-1s1,0.5,1,1C457.6,632.4,457.2,632.8,456.6,632.8z M456.6,632.8
						c0.5,0,1-0.4,1-1c0-0.5-0.4-1-1-1c-0.5,0-1,0.4-1,1C455.7,632.3,456.1,632.8,456.6,632.8z"/>
				</g>
				<g>
					<g>
						<path d="M456.7,631c0.4,0,0.8,0.3,0.8,0.8c0,0.4-0.3,0.8-0.8,0.8c-0.4,0-0.8-0.3-0.8-0.8C455.9,631.4,456.2,631,456.7,631z"/>
						<path d="M456.7,632.6c-0.4,0-0.8-0.4-0.8-0.8c0-0.4,0.4-0.8,0.8-0.8s0.8,0.4,0.8,0.8C457.5,632.3,457.1,632.6,456.7,632.6z
							 M456.7,632.5c0.4,0,0.7-0.3,0.7-0.7s-0.3-0.7-0.7-0.7c-0.4,0-0.7,0.3-0.7,0.7C455.9,632.2,456.3,632.5,456.7,632.5z"/>
					</g>
				</g>
			</g>
		</g>
		<g>
			<g>
				<path d="M442.6,641.8c0.8,0,1.4,0.6,1.4,1.4c0,0.8-0.6,1.4-1.4,1.4s-1.4-0.6-1.4-1.4C441.2,642.4,441.9,641.8,442.6,641.8z"/>
				<path d="M442.6,641.8c0.8,0,1.4,0.6,1.4,1.4c0,0.8-0.6,1.4-1.4,1.4s-1.4-0.6-1.4-1.4C441.2,642.4,441.9,641.8,442.6,641.8z"/>
				<g>
					<path d="M442.6,642.2c0.5,0,1,0.5,1,1s-0.5,1-1,1s-1-0.5-1-1C441.6,642.6,442.1,642.2,442.6,642.2z"/>
					<path d="M442.6,644.2c-0.5,0-1-0.5-1-1s0.5-1,1-1s1,0.5,1,1C443.6,643.8,443.2,644.2,442.6,644.2z M442.6,644.2
						c0.5,0,1-0.4,1-1c0-0.5-0.4-1-1-1c-0.5,0-1,0.4-1,1C441.6,643.7,442.1,644.2,442.6,644.2z"/>
				</g>
				<g>
					<g>
						<path d="M442.6,642.4c0.4,0,0.8,0.3,0.8,0.8c0,0.4-0.3,0.8-0.8,0.8c-0.4,0-0.8-0.3-0.8-0.8
							C441.9,642.8,442.2,642.4,442.6,642.4z"/>
						<path d="M442.6,644c-0.4,0-0.8-0.4-0.8-0.8c0-0.4,0.4-0.8,0.8-0.8s0.8,0.4,0.8,0.8C443.4,643.7,443.1,644,442.6,644z
							 M442.6,643.9c0.4,0,0.7-0.3,0.7-0.7s-0.3-0.7-0.7-0.7c-0.4,0-0.7,0.3-0.7,0.7C441.9,643.6,442.2,643.9,442.6,643.9z"/>
					</g>
				</g>
			</g>
			<g>
				<path d="M456.7,642c0.8,0,1.4,0.6,1.4,1.4c0,0.8-0.6,1.4-1.4,1.4s-1.4-0.6-1.4-1.4C455.3,642.6,455.9,642,456.7,642z"/>
				<path d="M456.7,642c0.8,0,1.4,0.6,1.4,1.4c0,0.8-0.6,1.4-1.4,1.4s-1.4-0.6-1.4-1.4C455.3,642.6,455.9,642,456.7,642z"/>
				<g>
					<path d="M456.7,642.4c0.5,0,1,0.5,1,1s-0.5,1-1,1s-1-0.5-1-1C455.7,642.8,456.1,642.4,456.7,642.4z"/>
					<path d="M456.6,644.4c-0.5,0-1-0.5-1-1s0.5-1,1-1s1,0.5,1,1S457.2,644.4,456.6,644.4z M456.6,644.3c0.5,0,1-0.4,1-1
						c0-0.5-0.4-1-1-1c-0.5,0-1,0.4-1,1C455.7,643.9,456.1,644.3,456.6,644.3z"/>
				</g>
				<g>
					<g>
						<path d="M456.7,642.6c0.4,0,0.8,0.3,0.8,0.8c0,0.4-0.3,0.8-0.8,0.8c-0.4,0-0.8-0.3-0.8-0.8
							C455.9,642.9,456.2,642.6,456.7,642.6z"/>
						<path d="M456.7,644.2c-0.4,0-0.8-0.4-0.8-0.8c0-0.4,0.4-0.8,0.8-0.8s0.8,0.4,0.8,0.8S457.1,644.2,456.7,644.2z M456.7,644.1
							c0.4,0,0.7-0.3,0.7-0.7s-0.3-0.7-0.7-0.7c-0.4,0-0.7,0.3-0.7,0.7C455.9,643.7,456.3,644.1,456.7,644.1z"/>
					</g>
				</g>
			</g>
		</g>
	</g>
</g>
<g>
	<g>
		<g>
			<g>
				<path d="M132.9,630.3c0.8,0,1.4,0.6,1.4,1.4c0,0.8-0.6,1.4-1.4,1.4c-0.8,0-1.4-0.6-1.4-1.4C131.5,630.9,132.1,630.3,132.9,630.3
					z"/>
				<path d="M132.9,630.3c0.8,0,1.4,0.6,1.4,1.4c0,0.8-0.6,1.4-1.4,1.4c-0.8,0-1.4-0.6-1.4-1.4C131.5,630.9,132.1,630.3,132.9,630.3
					z"/>
				<g>
					<path d="M132.9,630.7c0.5,0,1,0.5,1,1s-0.5,1-1,1s-1-0.5-1-1C131.9,631.1,132.3,630.7,132.9,630.7z"/>
					<path d="M132.9,632.7c-0.5,0-1-0.5-1-1s0.5-1,1-1s1,0.5,1,1S133.4,632.7,132.9,632.7z M132.9,632.6c0.5,0,1-0.4,1-1
						c0-0.5-0.4-1-1-1c-0.5,0-1,0.4-1,1C131.9,632.2,132.3,632.6,132.9,632.6z"/>
				</g>
				<g>
					<g>
						<path d="M132.9,630.9c0.4,0,0.8,0.3,0.8,0.8c0,0.4-0.3,0.8-0.8,0.8c-0.4,0-0.8-0.3-0.8-0.8
							C132.1,631.2,132.5,630.9,132.9,630.9z"/>
						<path d="M132.9,632.5c-0.4,0-0.8-0.4-0.8-0.8c0-0.4,0.4-0.8,0.8-0.8c0.4,0,0.8,0.4,0.8,0.8S133.3,632.5,132.9,632.5z
							 M132.9,632.4c0.4,0,0.7-0.3,0.7-0.7s-0.3-0.7-0.7-0.7s-0.7,0.3-0.7,0.7C132.2,632,132.5,632.4,132.9,632.4z"/>
					</g>
				</g>
			</g>
			<g>
				<path d="M146.9,630.4c0.8,0,1.4,0.6,1.4,1.4c0,0.8-0.6,1.4-1.4,1.4s-1.4-0.6-1.4-1.4S146.2,630.4,146.9,630.4z"/>
				<path d="M146.9,630.4c0.8,0,1.4,0.6,1.4,1.4c0,0.8-0.6,1.4-1.4,1.4s-1.4-0.6-1.4-1.4S146.2,630.4,146.9,630.4z"/>
				<g>
					<path d="M146.9,630.8c0.5,0,1,0.5,1,1s-0.5,1-1,1s-1-0.5-1-1S146.4,630.8,146.9,630.8z"/>
					<path d="M146.9,632.8c-0.5,0-1-0.5-1-1s0.5-1,1-1s1,0.5,1,1C147.9,632.4,147.4,632.8,146.9,632.8z M146.9,632.8
						c0.5,0,1-0.4,1-1c0-0.5-0.4-1-1-1c-0.5,0-1,0.4-1,1C145.9,632.3,146.4,632.8,146.9,632.8z"/>
				</g>
				<g>
					<g>
						<path d="M146.9,631c0.4,0,0.8,0.3,0.8,0.8c0,0.4-0.3,0.8-0.8,0.8c-0.4,0-0.8-0.3-0.8-0.8C146.2,631.4,146.5,631,146.9,631z"/>
						<path d="M146.9,632.6c-0.4,0-0.8-0.4-0.8-0.8c0-0.4,0.4-0.8,0.8-0.8c0.4,0,0.8,0.4,0.8,0.8
							C147.7,632.3,147.4,632.6,146.9,632.6z M146.9,632.5c0.4,0,0.7-0.3,0.7-0.7s-0.3-0.7-0.7-0.7s-0.7,0.3-0.7,0.7
							S146.5,632.5,146.9,632.5z"/>
					</g>
				</g>
			</g>
		</g>
		<g>
			<g>
				<path d="M132.9,641.8c0.8,0,1.4,0.6,1.4,1.4c0,0.8-0.6,1.4-1.4,1.4c-0.8,0-1.4-0.6-1.4-1.4C131.5,642.4,132.1,641.8,132.9,641.8
					z"/>
				<path d="M132.9,641.8c0.8,0,1.4,0.6,1.4,1.4c0,0.8-0.6,1.4-1.4,1.4c-0.8,0-1.4-0.6-1.4-1.4C131.5,642.4,132.1,641.8,132.9,641.8
					z"/>
				<g>
					<path d="M132.9,642.2c0.5,0,1,0.5,1,1s-0.5,1-1,1s-1-0.5-1-1C131.9,642.6,132.3,642.2,132.9,642.2z"/>
					<path d="M132.9,644.2c-0.5,0-1-0.5-1-1s0.5-1,1-1s1,0.5,1,1C133.9,643.8,133.4,644.2,132.9,644.2z M132.9,644.2
						c0.5,0,1-0.4,1-1c0-0.5-0.4-1-1-1c-0.5,0-1,0.4-1,1C131.9,643.7,132.3,644.2,132.9,644.2z"/>
				</g>
				<g>
					<g>
						<path d="M132.9,642.4c0.4,0,0.8,0.3,0.8,0.8c0,0.4-0.3,0.8-0.8,0.8c-0.4,0-0.8-0.3-0.8-0.8
							C132.1,642.8,132.5,642.4,132.9,642.4z"/>
						<path d="M132.9,644c-0.4,0-0.8-0.4-0.8-0.8c0-0.4,0.4-0.8,0.8-0.8c0.4,0,0.8,0.4,0.8,0.8C133.7,643.7,133.3,644,132.9,644z
							 M132.9,643.9c0.4,0,0.7-0.3,0.7-0.7s-0.3-0.7-0.7-0.7s-0.7,0.3-0.7,0.7C132.2,643.6,132.5,643.9,132.9,643.9z"/>
					</g>
				</g>
			</g>
			<g>
				<path d="M146.9,642c0.8,0,1.4,0.6,1.4,1.4c0,0.8-0.6,1.4-1.4,1.4c-0.8,0-1.4-0.6-1.4-1.4S146.2,642,146.9,642z"/>
				<path d="M146.9,642c0.8,0,1.4,0.6,1.4,1.4c0,0.8-0.6,1.4-1.4,1.4c-0.8,0-1.4-0.6-1.4-1.4S146.2,642,146.9,642z"/>
				<g>
					<path d="M146.9,642.4c0.5,0,1,0.5,1,1s-0.5,1-1,1s-1-0.5-1-1C145.9,642.8,146.4,642.4,146.9,642.4z"/>
					<path d="M146.9,644.4c-0.5,0-1-0.5-1-1s0.5-1,1-1s1,0.5,1,1S147.4,644.4,146.9,644.4z M146.9,644.3c0.5,0,1-0.4,1-1
						c0-0.5-0.4-1-1-1c-0.5,0-1,0.4-1,1C145.9,643.9,146.4,644.3,146.9,644.3z"/>
				</g>
				<g>
					<g>
						<path d="M146.9,642.6c0.4,0,0.8,0.3,0.8,0.8c0,0.4-0.3,0.8-0.8,0.8c-0.4,0-0.8-0.3-0.8-0.8
							C146.2,642.9,146.5,642.6,146.9,642.6z"/>
						<path d="M146.9,644.2c-0.4,0-0.8-0.4-0.8-0.8c0-0.4,0.4-0.8,0.8-0.8c0.4,0,0.8,0.4,0.8,0.8S147.4,644.2,146.9,644.2z
							 M146.9,644.1c0.4,0,0.7-0.3,0.7-0.7s-0.3-0.7-0.7-0.7s-0.7,0.3-0.7,0.7C146.2,643.7,146.5,644.1,146.9,644.1z"/>
					</g>
				</g>
			</g>
		</g>
	</g>
	<g>
		<g>
			<g>
				<path d="M62.6,630.3c0.8,0,1.4,0.6,1.4,1.4c0,0.8-0.6,1.4-1.4,1.4c-0.8,0-1.4-0.6-1.4-1.4C61.2,630.9,61.8,630.3,62.6,630.3z"/>
				<path d="M62.6,630.3c0.8,0,1.4,0.6,1.4,1.4c0,0.8-0.6,1.4-1.4,1.4c-0.8,0-1.4-0.6-1.4-1.4C61.2,630.9,61.8,630.3,62.6,630.3z"/>
				<g>
					<path d="M62.6,630.7c0.5,0,1,0.5,1,1s-0.5,1-1,1s-1-0.5-1-1C61.6,631.1,62.1,630.7,62.6,630.7z"/>
					<path d="M62.6,632.7c-0.5,0-1-0.5-1-1s0.5-1,1-1s1,0.5,1,1S63.1,632.7,62.6,632.7z M62.6,632.6c0.5,0,1-0.4,1-1
						c0-0.5-0.4-1-1-1c-0.5,0-1,0.4-1,1C61.6,632.2,62.1,632.6,62.6,632.6z"/>
				</g>
				<g>
					<g>
						<path d="M62.6,630.9c0.4,0,0.8,0.3,0.8,0.8c0,0.4-0.3,0.8-0.8,0.8c-0.4,0-0.8-0.3-0.8-0.8C61.9,631.2,62.2,630.9,62.6,630.9z"
							/>
						<path d="M62.6,632.5c-0.4,0-0.8-0.4-0.8-0.8c0-0.4,0.4-0.8,0.8-0.8c0.4,0,0.8,0.4,0.8,0.8C63.4,632.1,63.1,632.5,62.6,632.5z
							 M62.6,632.4c0.4,0,0.7-0.3,0.7-0.7S63,631,62.6,631s-0.7,0.3-0.7,0.7C61.9,632,62.2,632.4,62.6,632.4z"/>
					</g>
				</g>
			</g>
			<g>
				<path d="M76.6,630.4c0.8,0,1.4,0.6,1.4,1.4c0,0.8-0.6,1.4-1.4,1.4s-1.4-0.6-1.4-1.4S75.9,630.4,76.6,630.4z"/>
				<path d="M76.6,630.4c0.8,0,1.4,0.6,1.4,1.4c0,0.8-0.6,1.4-1.4,1.4s-1.4-0.6-1.4-1.4S75.9,630.4,76.6,630.4z"/>
				<g>
					<path d="M76.6,630.8c0.5,0,1,0.5,1,1s-0.5,1-1,1s-1-0.5-1-1C75.7,631.3,76.1,630.8,76.6,630.8z"/>
					<path d="M76.6,632.8c-0.5,0-1-0.5-1-1s0.5-1,1-1s1,0.5,1,1C77.6,632.4,77.2,632.8,76.6,632.8z M76.6,632.8c0.5,0,1-0.4,1-1
						c0-0.5-0.4-1-1-1c-0.5,0-1,0.4-1,1C75.7,632.3,76.1,632.8,76.6,632.8z"/>
				</g>
				<g>
					<g>
						<path d="M76.7,631c0.4,0,0.8,0.3,0.8,0.8c0,0.4-0.3,0.8-0.8,0.8c-0.4,0-0.8-0.3-0.8-0.8C75.9,631.4,76.2,631,76.7,631z"/>
						<path d="M76.6,632.6c-0.4,0-0.8-0.4-0.8-0.8c0-0.4,0.4-0.8,0.8-0.8s0.8,0.4,0.8,0.8C77.5,632.3,77.1,632.6,76.6,632.6z
							 M76.6,632.5c0.4,0,0.7-0.3,0.7-0.7s-0.3-0.7-0.7-0.7c-0.4,0-0.7,0.3-0.7,0.7S76.2,632.5,76.6,632.5z"/>
					</g>
				</g>
			</g>
		</g>
		<g>
			<g>
				<path d="M62.6,641.8c0.8,0,1.4,0.6,1.4,1.4c0,0.8-0.6,1.4-1.4,1.4c-0.8,0-1.4-0.6-1.4-1.4C61.2,642.4,61.8,641.8,62.6,641.8z"/>
				<path d="M62.6,641.8c0.8,0,1.4,0.6,1.4,1.4c0,0.8-0.6,1.4-1.4,1.4c-0.8,0-1.4-0.6-1.4-1.4C61.2,642.4,61.8,641.8,62.6,641.8z"/>
				<g>
					<path d="M62.6,642.2c0.5,0,1,0.5,1,1s-0.5,1-1,1s-1-0.5-1-1C61.6,642.6,62.1,642.2,62.6,642.2z"/>
					<path d="M62.6,644.2c-0.5,0-1-0.5-1-1s0.5-1,1-1s1,0.5,1,1C63.6,643.8,63.1,644.2,62.6,644.2z M62.6,644.2c0.5,0,1-0.4,1-1
						c0-0.5-0.4-1-1-1c-0.5,0-1,0.4-1,1C61.6,643.7,62.1,644.2,62.6,644.2z"/>
				</g>
				<g>
					<g>
						<path d="M62.6,642.4c0.4,0,0.8,0.3,0.8,0.8c0,0.4-0.3,0.8-0.8,0.8c-0.4,0-0.8-0.3-0.8-0.8C61.9,642.8,62.2,642.4,62.6,642.4z"
							/>
						<path d="M62.6,644c-0.4,0-0.8-0.4-0.8-0.8c0-0.4,0.4-0.8,0.8-0.8c0.4,0,0.8,0.4,0.8,0.8C63.4,643.7,63.1,644,62.6,644z
							 M62.6,643.9c0.4,0,0.7-0.3,0.7-0.7s-0.3-0.7-0.7-0.7s-0.7,0.3-0.7,0.7C61.9,643.6,62.2,643.9,62.6,643.9z"/>
					</g>
				</g>
			</g>
			<g>
				<path d="M76.6,642c0.8,0,1.4,0.6,1.4,1.4c0,0.8-0.6,1.4-1.4,1.4s-1.4-0.6-1.4-1.4S75.9,642,76.6,642z"/>
				<path d="M76.6,642c0.8,0,1.4,0.6,1.4,1.4c0,0.8-0.6,1.4-1.4,1.4s-1.4-0.6-1.4-1.4S75.9,642,76.6,642z"/>
				<g>
					<path d="M76.6,642.4c0.5,0,1,0.5,1,1s-0.5,1-1,1s-1-0.5-1-1C75.7,642.8,76.1,642.4,76.6,642.4z"/>
					<path d="M76.6,644.4c-0.5,0-1-0.5-1-1s0.5-1,1-1s1,0.5,1,1S77.2,644.4,76.6,644.4z M76.6,644.3c0.5,0,1-0.4,1-1
						c0-0.5-0.4-1-1-1c-0.5,0-1,0.4-1,1C75.7,643.9,76.1,644.3,76.6,644.3z"/>
				</g>
				<g>
					<g>
						<path d="M76.7,642.6c0.4,0,0.8,0.3,0.8,0.8c0,0.4-0.3,0.8-0.8,0.8c-0.4,0-0.8-0.3-0.8-0.8C75.9,642.9,76.2,642.6,76.7,642.6z"
							/>
						<path d="M76.6,644.2c-0.4,0-0.8-0.4-0.8-0.8c0-0.4,0.4-0.8,0.8-0.8s0.8,0.4,0.8,0.8C77.5,643.8,77.1,644.2,76.6,644.2z
							 M76.6,644.1c0.4,0,0.7-0.3,0.7-0.7s-0.3-0.7-0.7-0.7c-0.4,0-0.7,0.3-0.7,0.7C75.9,643.7,76.2,644.1,76.6,644.1z"/>
					</g>
				</g>
			</g>
		</g>
	</g>
</g>
</svg>
