<?xml version="1.0" encoding="utf-8"?>
<!-- Generator: Adobe Illustrator 23.0.1, SVG Export Plug-In . SVG Version: 6.00 Build 0)  -->
<svg version="1.1" id="Layer_1" xmlns="http://www.w3.org/2000/svg" xmlns:xlink="http://www.w3.org/1999/xlink" x="0px" y="0px"
	 viewBox="0 0 1154 597.3" style="enable-background:new 0 0 1154 597.3;" xml:space="preserve">
<style type="text/css">
	.st0{fill:url(#SVGID_1_);}
	.st1{fill:url(#SVGID_2_);}
	.st2{fill:#A7CB64;}
	.st3{fill:#88A84C;}
	.st4{fill:#292B2A;}
	.st5{opacity:0.16;fill:#A7CB64;enable-background:new    ;}
	.st6{fill:#020200;}
	.st7{opacity:0.28;fill:#F5F5F5;enable-background:new    ;}
	.st8{fill:#EC1C24;}
	.st9{fill:#3B3A3A;stroke:#231F20;stroke-width:0.591;stroke-miterlimit:10;}
	.st10{fill:#3B3A3A;stroke:#231F20;stroke-width:0.7742;stroke-miterlimit:10;}
	.st11{fill:#414042;}
	.st12{fill:#070608;}
	.st13{fill:#231F20;}
	.st14{fill:#3D3B3D;}
	.st15{fill:url(#SVGID_3_);}
	.st16{fill:#3B3A3A;}
	.st17{fill:#FFFFFF;stroke:#3D3B3D;stroke-width:0.4286;stroke-miterlimit:10;}
	.st18{fill:url(#SVGID_4_);}
	.st19{fill:url(#SVGID_5_);}
	.st20{fill:url(#SVGID_6_);}
	.st21{fill:url(#SVGID_7_);}
	.st22{fill:url(#SVGID_8_);}
	.st23{fill:url(#SVGID_9_);}
	.st24{fill:url(#SVGID_10_);}
	.st25{fill:url(#SVGID_11_);}
	.st26{fill:url(#SVGID_12_);}
	.st27{fill:url(#SVGID_13_);}
	.st28{fill:url(#SVGID_14_);}
	.st29{fill:url(#SVGID_15_);}
	.st30{fill:url(#SVGID_16_);}
	.st31{fill:url(#SVGID_17_);}
	.st32{fill:url(#SVGID_18_);}
	.st33{fill:url(#SVGID_19_);}
	.st34{fill:url(#SVGID_20_);}
	.st35{fill:#FFB932;stroke:#A97C50;stroke-width:0.36;stroke-miterlimit:10;}
	.st36{fill:#808285;}
	.st37{fill:#6D6E71;}
	.st38{fill:#231F20;stroke:#58595B;stroke-width:0.5758;stroke-miterlimit:10;}
	.st39{fill:url(#SVGID_21_);}
	.st40{fill:url(#SVGID_22_);}
	.st41{fill:url(#SVGID_23_);}
	.st42{fill:url(#SVGID_24_);}
	.st43{fill:url(#SVGID_25_);}
	.st44{fill:url(#SVGID_26_);}
	.st45{fill:url(#SVGID_27_);}
	.st46{fill:url(#SVGID_28_);}
	.st47{fill:url(#SVGID_29_);}
	.st48{fill:none;stroke:#231F20;stroke-width:0.7742;stroke-miterlimit:10;}
	.st49{fill:#403430;}
	.st50{fill:#ED1C24;}
	.st51{fill:#ABA9A7;}
</style>
<title>concrete mixer</title>
<linearGradient id="SVGID_1_" gradientUnits="userSpaceOnUse" x1="1044.1899" y1="110.92" x2="1052.63" y2="110.92" gradientTransform="matrix(1 0 0 -1 0 600)">
	<stop  offset="0" style="stop-color:#231F20"/>
	<stop  offset="0.41" style="stop-color:#252122"/>
	<stop  offset="0.56" style="stop-color:#2B2729"/>
	<stop  offset="0.67" style="stop-color:#353334"/>
	<stop  offset="0.74" style="stop-color:#414042"/>
	<stop  offset="0.77" style="stop-color:#4D4D4F"/>
	<stop  offset="0.8" style="stop-color:#555658"/>
	<stop  offset="0.85" style="stop-color:#58595B"/>
	<stop  offset="0.92" style="stop-color:#414042"/>
</linearGradient>
<rect x="1044.2" y="448.7" class="st0" width="8.5" height="80.8"/>
<linearGradient id="SVGID_2_" gradientUnits="userSpaceOnUse" x1="1052.63" y1="127.27" x2="1067.71" y2="127.27" gradientTransform="matrix(1 0 0 -1 0 600)">
	<stop  offset="0" style="stop-color:#231F20"/>
	<stop  offset="0.41" style="stop-color:#252122"/>
	<stop  offset="0.56" style="stop-color:#2B2729"/>
	<stop  offset="0.67" style="stop-color:#353334"/>
	<stop  offset="0.74" style="stop-color:#414042"/>
	<stop  offset="0.77" style="stop-color:#4D4D4F"/>
	<stop  offset="0.8" style="stop-color:#555658"/>
	<stop  offset="0.85" style="stop-color:#58595B"/>
	<stop  offset="0.92" style="stop-color:#414042"/>
</linearGradient>
<rect x="1052.6" y="451.9" class="st1" width="15.1" height="41.6"/>
<polygon class="st2" points="372.9,413 506.9,461.1 673.3,154.5 560.1,68.4 "/>
<polygon class="st3" points="260.4,327.2 373.6,413.4 560.8,68.7 426.9,20.7 "/>
<path class="st2" d="M276.1,13.7c0.1,0,0.1,0.1,0.2,0.1l151,7.1l-67,123.4L328,204l-67,123.4l-88.4-122.9h-0.1
	c-14.6-7.9-3.1-57,25.5-109.7S261.5,5.7,276.1,13.7z"/>
<path class="st3" d="M762,277.6c14.3,8.2,2.8,57.1-25.7,109.6c-28.4,52.3-63.1,88.4-77.8,81.3l-151.2-7.1l67-123.4l32.4-59.7
	l67-123.4L762,277.6z"/>
<path class="st3" d="M151.9,200.6L151.9,200.6c9.1,4.7,20.3,1.1,25-8.1L262,27.1c4.7-9.1,1.1-20.3-8.1-25l0,0
	c-9.1-4.7-20.3-1.1-25,8.1l-85.1,165.4C139.2,184.7,142.8,195.8,151.9,200.6z"/>
<path class="st4" d="M420.8,428.3V407c0-7,8.4-12.7,18.6-12.7s18.6,5.7,18.6,12.7v21.3L420.8,428.3z"/>
<path class="st4" d="M631.2,428.3V407c0-7,8.4-12.7,18.7-12.7s18.6,5.7,18.6,12.7v21.3L631.2,428.3z"/>
<rect x="720.1" y="219.5" transform="matrix(0.3655 -0.9308 0.9308 0.3655 256.0826 841.5021)" class="st3" width="50.4" height="26.8"/>
<polygon class="st2" points="696.3,327.3 746.3,347 777,262.7 726.9,243.1 "/>
<path class="st2" d="M718.7,143c-11.8,30,3,63.9,33,75.6c30,11.8,63.9-3,75.6-33c11.8-30-3-63.9-33-75.6c0,0,0,0,0,0
	c-29.9-11.8-63.7,2.9-75.6,32.8C718.7,142.8,718.7,142.9,718.7,143z"/>
<path class="st5" d="M806.1,173.1c5.9-15,5.9-31.7,0-46.7c20.4,17.6,22.7,48.5,5.1,68.9c-11.6,13.5-29.7,19.6-47.1,15.9
	C783.3,205.7,798.7,191.6,806.1,173.1z"/>
<rect x="745.2" y="181.3" transform="matrix(0.3655 -0.9308 0.9308 0.3655 277.1604 837.2884)" class="st2" width="15.1" height="68.1"/>
<polygon class="st3" points="697.6,424.8 792.3,424.8 752.7,317.9 697.6,317.9 "/>
<path class="st6" d="M821.9,195.7c3.5,1.7,7.4,0.8,8.8-2.1l4.5-9.1c1.4-2.8-0.3-6.5-3.8-8.3l0,0c-3.5-1.7-7.4-0.8-8.8,2.1l-4.5,9.1
	C816.8,190.3,818.5,194,821.9,195.7z"/>
<path class="st4" d="M748.1,425.2v-22.5c0.3-7.5,6.6-13.3,14-13c7.1,0.3,12.7,5.9,13,13v22.5H748.1z"/>
<path class="st3" d="M702.5,331.6c-2.9,6.4,2.2,15,11.3,19.2l0,0c9.2,4.2,19,2.3,21.9-4.1l19.2-42.4c2.9-6.4-2.2-15-11.3-19.2l0,0
	c-9.2-4.2-19-2.3-21.9,4.1L702.5,331.6z"/>
<path class="st6" d="M6.8,468.9c-0.1,0.8-0.1,1.5,0,2.3l-0.6,1.2l1,0.2c2.8,7.2,16.6,14.6,34,17.5s32.9,0.4,37.8-5.6l1,0.2
	L206.4,325L97,306.9L0,405.1L6.8,468.9z M10.6,463.7l2.1-2.9l-1.4,2.5C11,463.3,10.8,463.5,10.6,463.7z"/>
<polygon class="st7" points="120.3,312.2 6.8,468.9 0,405 95.7,308.1 "/>
<polygon class="st3" points="147.6,433.6 410.4,433.6 150.2,230.9 147.6,209.8 "/>
<rect x="109.5" y="140.9" class="st4" width="56.5" height="107.7"/>
<polygon class="st4" points="110.9,153.5 178.5,153.5 178.5,75.5 57.9,75.5 "/>
<path class="st4" d="M311.8,430.8v-19.5c0-6.5,5.3-11.7,11.7-11.7c6.5,0,11.7,5.2,11.7,11.7v19.5H311.8z"/>
<path class="st4" d="M249.6,430.8v-19.5c0-6.5,5.3-11.7,11.7-11.7c6.5,0,11.7,5.2,11.7,11.7v19.5H249.6z"/>
<path class="st4" d="M187.5,430.8v-19.5c0-6.5,5.3-11.7,11.7-11.7c6.5,0,11.7,5.2,11.7,11.7v19.5H187.5z"/>
<path class="st2" d="M197.1,304.1c-3,6.8,2.3,15.8,11.9,20.2l0,0c9.6,4.4,20,2.4,23.1-4.4l20.2-44.7c3-6.8-2.3-15.8-11.9-20.1l0,0
	c-9.6-4.4-20-2.4-23,4.4L197.1,304.1z"/>
<rect x="84.2" y="209.8" class="st3" width="64.9" height="167.8"/>
<path class="st2" d="M50.8,207v262.3c0,3.6,1.9,6.6,4.4,7.1c0.3,0.1,0.6,0.1,0.8,0.1h79.7c0.3,0,0.6,0,0.8-0.1
	c2.5-0.5,4.4-3.5,4.4-7.1V281.8c0.4,0.1,0.8,0.1,1.1,0.1c6.4,0,11.5-7.2,11.5-16v-51.4c0-8.9-5.1-16-11.5-16c-1.4,0-2.8,0.3-4,0.9
	c-0.7-0.6-1.5-0.9-2.4-0.9c-2.8,0-5.2,3.8-5.2,8.5V282H61.2v-0.1c0.4,0.1,0.8,0.1,1.2,0.1c6.4,0,11.5-7.2,11.5-16v-51.4
	c0-8.9-5.1-16-11.5-16c-1.4,0-2.8,0.3-4,0.9c-0.7-0.6-1.5-0.9-2.4-0.9C53.2,198.5,50.8,202.3,50.8,207z M130.6,402H61.3v-45.5h69.3
	V402z M130.6,462.1H61.3v-45.5h69.3V462.1z M130.6,296.4v45.6H61.3v-45.5L130.6,296.4z"/>
<path class="st8" d="M61.4,423.5c-5.9,0.1-10.8,4.8-11.1,10.8l-0.7,12.2c-0.4,5.9,3.9,11.2,9.8,11.9L61.4,423.5z"/>
<path class="st8" d="M63.1,394.3c-7-0.2-12.8,2.5-13,6.2l-0.4,7.3c-0.2,3.7,5.2,7,12.3,7.7L63.1,394.3z"/>
<rect x="23.2" y="416.3" transform="matrix(5.651850e-02 -0.9984 0.9984 5.651850e-02 -358.2758 457.9882)" class="st6" width="80" height="4.6"/>
<polygon class="st9" points="64.5,458.5 64.5,375.4 70,375.4 70,364.6 84.9,364.6 84.9,472.6 70,472.6 70,458.5 "/>
<path class="st10" d="M86.2,473.8V450h34.6v20.1c0,2.5-0.9,4.8-2.6,6.6l-14.8,16H59.5v-18.8H86.2z"/>
<rect x="79.3" y="410.9" class="st10" width="11" height="50.9"/>
<rect x="88.7" y="406.1" class="st10" width="11" height="55.6"/>
<rect x="109.9" y="423" class="st11" width="1013" height="79.7"/>
<path class="st12" d="M456.8,512.3l0.8-1.2H471l0.7,1.2h65.9v-3.5h15v3.5H604l0.6-1.2h10.5l0.6,1.2h226.7c1-5.8,1-11.7-0.1-17.5
	l-2.3-11.2H362.3l1,28.7H456.8z"/>
<rect x="251" y="488.3" class="st13" width="47.5" height="9.2"/>
<rect x="284.8" y="484.2" class="st13" width="9.1" height="8.2"/>
<rect x="271.3" y="486.7" class="st13" width="9.1" height="8.2"/>
<rect x="257.8" y="484.2" class="st13" width="9.1" height="8.2"/>
<rect x="262.9" y="501.8" class="st13" width="26.4" height="3"/>
<rect x="281.7" y="500.5" class="st13" width="5.1" height="2.7"/>
<rect x="274.1" y="501.4" class="st13" width="5.1" height="2.7"/>
<rect x="266.6" y="500.4" class="st13" width="5.1" height="2.7"/>
<rect x="262.9" y="507.6" class="st13" width="26.4" height="6.9"/>
<rect x="281.7" y="504.6" class="st13" width="5.1" height="6.1"/>
<rect x="274.1" y="506.5" class="st13" width="5.1" height="6.1"/>
<rect x="266.6" y="504.5" class="st13" width="5.1" height="6.1"/>
<path class="st14" d="M432,523.9c0,40.6-32.9,73.4-73.4,73.4s-73.4-32.9-73.4-73.4c0-40.6,32.9-73.4,73.4-73.4c0,0,0,0,0,0
	C399.1,450.5,432,483.4,432,523.9z"/>
<path d="M432,523.9c0,40.6-32.9,73.4-73.4,73.4s-73.4-32.9-73.4-73.4c0-40.6,32.9-73.4,73.4-73.4c0,0,0,0,0,0
	C399.1,450.5,432,483.4,432,523.9z"/>
<radialGradient id="SVGID_3_" cx="3603.6799" cy="-225.24" r="62.925" gradientTransform="matrix(-1 0 0 -1 3962.1799 298.67)" gradientUnits="userSpaceOnUse">
	<stop  offset="0" style="stop-color:#231F20"/>
	<stop  offset="0.41" style="stop-color:#252122"/>
	<stop  offset="0.56" style="stop-color:#2B2729"/>
	<stop  offset="0.67" style="stop-color:#353334"/>
	<stop  offset="0.74" style="stop-color:#414042"/>
	<stop  offset="0.77" style="stop-color:#4D4D4F"/>
	<stop  offset="0.8" style="stop-color:#555658"/>
	<stop  offset="0.85" style="stop-color:#58595B"/>
	<stop  offset="0.92" style="stop-color:#414042"/>
</radialGradient>
<path class="st15" d="M421.5,523.9c0,34.8-28.2,63-63,63c-34.8,0-63-28.2-63-63s28.2-63,63-63c0,0,0,0,0,0
	C393.3,460.9,421.5,489.1,421.5,523.9C421.5,523.9,421.5,523.9,421.5,523.9z"/>
<path class="st13" d="M412.6,523.9c0,29.9-24.1,54.1-54,54.1s-54.1-24.1-54.1-54c0-29.9,24.1-54.1,54-54.1c0,0,0,0,0,0
	C388.4,469.9,412.6,494.1,412.6,523.9z"/>
<path class="st16" d="M412.6,523.9c0,29.9-24.1,54.1-54,54.1s-54.1-24.1-54.1-54c0-29.9,24.1-54.1,54-54.1c0,0,0,0,0,0
	C388.4,469.9,412.6,494.1,412.6,523.9z"/>
<path class="st17" d="M396.8,523.9c0,21.1-17.1,38.1-38.1,38.1s-38.1-17.1-38.1-38.1c0-21.1,17.1-38.1,38.1-38.1
	C379.7,485.8,396.8,502.9,396.8,523.9z"/>
<linearGradient id="SVGID_4_" gradientUnits="userSpaceOnUse" x1="3577.1299" y1="-225.76" x2="3630.1299" y2="-225.76" gradientTransform="matrix(-1 0 0 -1 3962.1799 298.67)">
	<stop  offset="3.000000e-02" style="stop-color:#6D6E71"/>
	<stop  offset="0.25" style="stop-color:#BCBEC0"/>
	<stop  offset="0.52" style="stop-color:#D1D3D4"/>
	<stop  offset="0.69" style="stop-color:#BCBEC0"/>
	<stop  offset="0.98" style="stop-color:#58595B"/>
</linearGradient>
<path class="st18" d="M385,524.4c0,14.6-11.9,26.5-26.5,26.5S332,539.1,332,524.4c0-14.6,11.9-26.5,26.5-26.5l0,0
	C373.2,497.9,385,509.7,385,524.4C385.1,524.4,385.1,524.4,385,524.4z"/>
<linearGradient id="SVGID_5_" gradientUnits="userSpaceOnUse" x1="3571.1799" y1="-207.98" x2="3593.1799" y2="-207.98" gradientTransform="matrix(-1 0 0 -1 3962.1799 298.67)">
	<stop  offset="3.000000e-02" style="stop-color:#6D6E71"/>
	<stop  offset="0.25" style="stop-color:#BCBEC0"/>
	<stop  offset="0.52" style="stop-color:#D1D3D4"/>
	<stop  offset="0.69" style="stop-color:#BCBEC0"/>
	<stop  offset="0.98" style="stop-color:#58595B"/>
</linearGradient>
<path class="st19" d="M369,511.2l12-15.1c4.2,3.4,7.6,7.7,10,12.5l-17.3,8.5C372.6,514.8,371,512.8,369,511.2z"/>
<linearGradient id="SVGID_6_" gradientUnits="userSpaceOnUse" x1="3581.1099" y1="-249.97" x2="3599.8599" y2="-249.97" gradientTransform="matrix(-1 0 0 -1 3962.1799 298.67)">
	<stop  offset="3.000000e-02" style="stop-color:#6D6E71"/>
	<stop  offset="0.25" style="stop-color:#BCBEC0"/>
	<stop  offset="0.52" style="stop-color:#D1D3D4"/>
	<stop  offset="0.69" style="stop-color:#BCBEC0"/>
	<stop  offset="0.98" style="stop-color:#58595B"/>
</linearGradient>
<path class="st20" d="M381.1,552.6c-4.3,3.4-9.2,5.7-14.5,7l-4.3-18.8c2.4-0.5,4.7-1.6,6.7-3.2L381.1,552.6z"/>
<linearGradient id="SVGID_7_" gradientUnits="userSpaceOnUse" x1="3614.1799" y1="-208.01" x2="3636.1799" y2="-208.01" gradientTransform="matrix(-1 0 0 -1 3962.1799 298.67)">
	<stop  offset="3.000000e-02" style="stop-color:#6D6E71"/>
	<stop  offset="0.25" style="stop-color:#BCBEC0"/>
	<stop  offset="0.52" style="stop-color:#D1D3D4"/>
	<stop  offset="0.69" style="stop-color:#BCBEC0"/>
	<stop  offset="0.98" style="stop-color:#58595B"/>
</linearGradient>
<path class="st21" d="M343.4,517.1l-17.4-8.3c2.3-4.9,5.7-9.2,10-12.6l12,15C346,512.8,344.5,514.8,343.4,517.1z"/>
<linearGradient id="SVGID_8_" gradientUnits="userSpaceOnUse" x1="3567.5" y1="-233.565" x2="3588.3999" y2="-233.565" gradientTransform="matrix(-1 0 0 -1 3962.1799 298.67)">
	<stop  offset="3.000000e-02" style="stop-color:#6D6E71"/>
	<stop  offset="0.25" style="stop-color:#BCBEC0"/>
	<stop  offset="0.52" style="stop-color:#D1D3D4"/>
	<stop  offset="0.69" style="stop-color:#BCBEC0"/>
	<stop  offset="0.98" style="stop-color:#58595B"/>
</linearGradient>
<path class="st22" d="M375.4,524.4L375.4,524.4l19.3-0.1v0.1c0,5.4-1.2,10.8-3.6,15.7l-17.3-8.4C374.9,529.5,375.4,527,375.4,524.4z
	"/>
<linearGradient id="SVGID_9_" gradientUnits="userSpaceOnUse" x1="3618.8198" y1="-233.615" x2="3639.73" y2="-233.615" gradientTransform="matrix(-1 0 0 -1 3962.1799 298.67)">
	<stop  offset="3.000000e-02" style="stop-color:#6D6E71"/>
	<stop  offset="0.25" style="stop-color:#BCBEC0"/>
	<stop  offset="0.52" style="stop-color:#D1D3D4"/>
	<stop  offset="0.69" style="stop-color:#BCBEC0"/>
	<stop  offset="0.98" style="stop-color:#58595B"/>
</linearGradient>
<path class="st23" d="M341.7,524.4c0,2.5,0.6,5,1.7,7.3l-17.3,8.4c-2.4-4.9-3.6-10.2-3.6-15.6L341.7,524.4z"/>
<linearGradient id="SVGID_10_" gradientUnits="userSpaceOnUse" x1="3595.71" y1="-199.412" x2="3611.74" y2="-199.412" gradientTransform="matrix(-1 0 0 -1 3962.1799 298.67)">
	<stop  offset="3.000000e-02" style="stop-color:#6D6E71"/>
	<stop  offset="0.25" style="stop-color:#BCBEC0"/>
	<stop  offset="0.52" style="stop-color:#D1D3D4"/>
	<stop  offset="0.69" style="stop-color:#BCBEC0"/>
	<stop  offset="0.98" style="stop-color:#58595B"/>
</linearGradient>
<path class="st24" d="M350.4,489.2c5.3-1.2,10.7-1.3,16-0.1l-4.2,18.8c-2.5-0.5-5.1-0.5-7.5,0L350.4,489.2z"/>
<linearGradient id="SVGID_11_" gradientUnits="userSpaceOnUse" x1="3607.3601" y1="-250" x2="3626.1101" y2="-250" gradientTransform="matrix(-1 0 0 -1 3962.1799 298.67)">
	<stop  offset="3.000000e-02" style="stop-color:#6D6E71"/>
	<stop  offset="0.25" style="stop-color:#BCBEC0"/>
	<stop  offset="0.52" style="stop-color:#D1D3D4"/>
	<stop  offset="0.69" style="stop-color:#BCBEC0"/>
	<stop  offset="0.98" style="stop-color:#58595B"/>
</linearGradient>
<path class="st25" d="M354.8,540.9l-4.3,18.8c-5.3-1.2-10.3-3.6-14.5-7l12-15C350,539.2,352.3,540.3,354.8,540.9z"/>
<path class="st14" d="M267.2,523.9c0,40.6-32.9,73.4-73.4,73.4s-73.4-32.9-73.4-73.4c0-40.6,32.9-73.4,73.4-73.4h0
	C234.3,450.5,267.2,483.4,267.2,523.9z"/>
<path d="M267.2,523.9c0,40.6-32.9,73.4-73.4,73.4s-73.4-32.9-73.4-73.4c0-40.6,32.9-73.4,73.4-73.4h0
	C234.3,450.5,267.2,483.4,267.2,523.9z"/>
<radialGradient id="SVGID_12_" cx="3768.3398" cy="-225.24" r="62.9251" gradientTransform="matrix(-1 0 0 -1 3962.1799 298.67)" gradientUnits="userSpaceOnUse">
	<stop  offset="0" style="stop-color:#231F20"/>
	<stop  offset="0.41" style="stop-color:#252122"/>
	<stop  offset="0.56" style="stop-color:#2B2729"/>
	<stop  offset="0.67" style="stop-color:#353334"/>
	<stop  offset="0.74" style="stop-color:#414042"/>
	<stop  offset="0.77" style="stop-color:#4D4D4F"/>
	<stop  offset="0.8" style="stop-color:#555658"/>
	<stop  offset="0.85" style="stop-color:#58595B"/>
	<stop  offset="0.92" style="stop-color:#414042"/>
</radialGradient>
<path class="st26" d="M256.8,523.9c0,34.8-28.2,63-63,63c-34.8,0-63-28.2-63-63s28.2-63,63-63c0,0,0,0,0,0
	C228.7,460.9,256.8,489.1,256.8,523.9C256.8,523.9,256.8,523.9,256.8,523.9z"/>
<path class="st13" d="M247.8,523.9c0,29.9-24.1,54.1-54,54.1c-29.9,0-54.1-24.1-54.1-54c0-29.9,24.1-54.1,54-54.1c0,0,0.1,0,0.1,0
	C223.6,469.9,247.8,494.1,247.8,523.9z"/>
<path class="st16" d="M247.8,523.9c0,29.9-24.1,54.1-54,54.1c-29.9,0-54.1-24.1-54.1-54c0-29.9,24.1-54.1,54-54.1c0,0,0.1,0,0.1,0
	C223.6,469.9,247.8,494.1,247.8,523.9z"/>
<path class="st17" d="M232,523.9c0,21.1-17.1,38.1-38.1,38.1s-38.1-17.1-38.1-38.1c0-21.1,17.1-38.1,38.1-38.1c0,0,0,0,0,0
	C214.9,485.8,232,502.9,232,523.9z"/>
<linearGradient id="SVGID_13_" gradientUnits="userSpaceOnUse" x1="3741.8999" y1="-225.76" x2="3794.8999" y2="-225.76" gradientTransform="matrix(-1 0 0 -1 3962.1799 298.67)">
	<stop  offset="3.000000e-02" style="stop-color:#6D6E71"/>
	<stop  offset="0.25" style="stop-color:#BCBEC0"/>
	<stop  offset="0.52" style="stop-color:#D1D3D4"/>
	<stop  offset="0.69" style="stop-color:#BCBEC0"/>
	<stop  offset="0.98" style="stop-color:#58595B"/>
</linearGradient>
<path class="st27" d="M220.3,524.4c0,14.6-11.9,26.5-26.5,26.5s-26.5-11.9-26.5-26.5c0-14.6,11.9-26.5,26.5-26.5l0,0
	C208.4,497.9,220.3,509.7,220.3,524.4C220.3,524.4,220.3,524.4,220.3,524.4z"/>
<linearGradient id="SVGID_14_" gradientUnits="userSpaceOnUse" x1="3735.8999" y1="-207.955" x2="3757.8899" y2="-207.955" gradientTransform="matrix(-1 0 0 -1 3962.1799 298.67)">
	<stop  offset="3.000000e-02" style="stop-color:#6D6E71"/>
	<stop  offset="0.25" style="stop-color:#BCBEC0"/>
	<stop  offset="0.52" style="stop-color:#D1D3D4"/>
	<stop  offset="0.69" style="stop-color:#BCBEC0"/>
	<stop  offset="0.98" style="stop-color:#58595B"/>
</linearGradient>
<path class="st28" d="M204.3,511.2l11.9-15.1c4.2,3.4,7.7,7.6,10.1,12.5l-17.3,8.4C207.9,514.8,206.3,512.8,204.3,511.2z"/>
<linearGradient id="SVGID_15_" gradientUnits="userSpaceOnUse" x1="3745.8501" y1="-249.94" x2="3764.6001" y2="-249.94" gradientTransform="matrix(-1 0 0 -1 3962.1799 298.67)">
	<stop  offset="3.000000e-02" style="stop-color:#6D6E71"/>
	<stop  offset="0.25" style="stop-color:#BCBEC0"/>
	<stop  offset="0.52" style="stop-color:#D1D3D4"/>
	<stop  offset="0.69" style="stop-color:#BCBEC0"/>
	<stop  offset="0.98" style="stop-color:#58595B"/>
</linearGradient>
<path class="st29" d="M216.3,552.6c-4.3,3.4-9.2,5.7-14.4,7l-4.3-18.8c2.5-0.5,4.8-1.7,6.7-3.3L216.3,552.6z"/>
<linearGradient id="SVGID_16_" gradientUnits="userSpaceOnUse" x1="3778.9199" y1="-208.01" x2="3800.95" y2="-208.01" gradientTransform="matrix(-1 0 0 -1 3962.1799 298.67)">
	<stop  offset="3.000000e-02" style="stop-color:#6D6E71"/>
	<stop  offset="0.25" style="stop-color:#BCBEC0"/>
	<stop  offset="0.52" style="stop-color:#D1D3D4"/>
	<stop  offset="0.69" style="stop-color:#BCBEC0"/>
	<stop  offset="0.98" style="stop-color:#58595B"/>
</linearGradient>
<path class="st30" d="M178.6,517.1l-17.4-8.3c2.4-4.9,5.8-9.2,10-12.6l12,15C181.3,512.8,179.7,514.8,178.6,517.1z"/>
<linearGradient id="SVGID_17_" gradientUnits="userSpaceOnUse" x1="3732.26" y1="-233.565" x2="3753.1599" y2="-233.565" gradientTransform="matrix(-1 0 0 -1 3962.1799 298.67)">
	<stop  offset="3.000000e-02" style="stop-color:#6D6E71"/>
	<stop  offset="0.25" style="stop-color:#BCBEC0"/>
	<stop  offset="0.52" style="stop-color:#D1D3D4"/>
	<stop  offset="0.69" style="stop-color:#BCBEC0"/>
	<stop  offset="0.98" style="stop-color:#58595B"/>
</linearGradient>
<path class="st31" d="M210.6,524.4L210.6,524.4l19.3-0.1v0.1c0,5.4-1.2,10.8-3.6,15.7l-17.3-8.4C210.1,529.5,210.6,527,210.6,524.4z
	"/>
<linearGradient id="SVGID_18_" gradientUnits="userSpaceOnUse" x1="3783.5898" y1="-233.615" x2="3804.4998" y2="-233.615" gradientTransform="matrix(-1 0 0 -1 3962.1799 298.67)">
	<stop  offset="3.000000e-02" style="stop-color:#6D6E71"/>
	<stop  offset="0.25" style="stop-color:#BCBEC0"/>
	<stop  offset="0.52" style="stop-color:#D1D3D4"/>
	<stop  offset="0.69" style="stop-color:#BCBEC0"/>
	<stop  offset="0.98" style="stop-color:#58595B"/>
</linearGradient>
<path class="st32" d="M176.9,524.4c0,2.5,0.6,5,1.7,7.3l-17.3,8.4c-2.4-4.9-3.6-10.2-3.6-15.6L176.9,524.4z"/>
<linearGradient id="SVGID_19_" gradientUnits="userSpaceOnUse" x1="3760.46" y1="-199.412" x2="3776.49" y2="-199.412" gradientTransform="matrix(-1 0 0 -1 3962.1799 298.67)">
	<stop  offset="3.000000e-02" style="stop-color:#6D6E71"/>
	<stop  offset="0.25" style="stop-color:#BCBEC0"/>
	<stop  offset="0.52" style="stop-color:#D1D3D4"/>
	<stop  offset="0.69" style="stop-color:#BCBEC0"/>
	<stop  offset="0.98" style="stop-color:#58595B"/>
</linearGradient>
<path class="st33" d="M185.7,489.2c5.3-1.2,10.7-1.3,16-0.1l-4.2,18.8c-2.5-0.5-5.1-0.5-7.5,0L185.7,489.2z"/>
<linearGradient id="SVGID_20_" gradientUnits="userSpaceOnUse" x1="3772.1101" y1="-250" x2="3790.8601" y2="-250" gradientTransform="matrix(-1 0 0 -1 3962.1799 298.67)">
	<stop  offset="3.000000e-02" style="stop-color:#6D6E71"/>
	<stop  offset="0.25" style="stop-color:#BCBEC0"/>
	<stop  offset="0.52" style="stop-color:#D1D3D4"/>
	<stop  offset="0.69" style="stop-color:#BCBEC0"/>
	<stop  offset="0.98" style="stop-color:#58595B"/>
</linearGradient>
<path class="st34" d="M190.1,540.9l-4.3,18.8c-5.3-1.2-10.2-3.6-14.5-7l11.9-15C185.3,539.2,187.6,540.3,190.1,540.9z"/>
<rect x="631.2" y="507.9" class="st13" width="213.2" height="9.1"/>
<rect x="631.1" y="515.8" class="st11" width="233.3" height="9.1"/>
<path d="M676.7,445.4c1.5,0,2.7,1.2,2.7,2.7s-1.2,2.7-2.7,2.7s-2.7-1.2-2.7-2.7c0,0,0,0,0,0C674,446.6,675.2,445.4,676.7,445.4z"/>
<path d="M676.7,445.4c1.5,0,2.7,1.2,2.7,2.7s-1.2,2.7-2.7,2.7s-2.7-1.2-2.7-2.7c0,0,0,0,0,0C674,446.6,675.2,445.4,676.7,445.4z"/>
<path d="M676.7,446.2c1.1,0,1.9,0.9,1.9,2c0,1.1-0.9,1.9-2,1.9c-1.1,0-1.9-0.9-1.9-2C674.7,447,675.6,446.2,676.7,446.2z"/>
<path d="M676.7,450.1c-1.1,0-1.9-0.9-1.9-2c0-1.1,0.9-1.9,2-1.9c1.1,0,1.9,0.9,1.9,2C678.6,449.2,677.7,450.1,676.7,450.1z
	 M676.7,450c1,0,1.9-0.8,1.9-1.9c0-1-0.8-1.9-1.9-1.9c-1,0-1.9,0.8-1.9,1.9C674.8,449.1,675.6,450,676.7,450
	C676.6,450,676.7,450,676.7,450L676.7,450z"/>
<path d="M676.7,446.6c0.8,0,1.5,0.7,1.5,1.5c0,0.8-0.7,1.5-1.5,1.5c-0.8,0-1.5-0.7-1.5-1.5c0,0,0,0,0,0
	C675.2,447.3,675.9,446.6,676.7,446.6z"/>
<path d="M676.7,449.7c-0.9,0-1.6-0.7-1.6-1.6s0.7-1.6,1.6-1.6s1.6,0.7,1.6,1.6C678.3,448.9,677.6,449.6,676.7,449.7
	C676.7,449.7,676.7,449.7,676.7,449.7z M676.7,449.5c0.8,0,1.4-0.6,1.4-1.4c0-0.8-0.6-1.4-1.4-1.4c-0.8,0-1.4,0.6-1.4,1.4l0,0
	C675.3,448.8,675.9,449.4,676.7,449.5L676.7,449.5z"/>
<path d="M704,445.7c1.5,0,2.7,1.2,2.7,2.7c0,1.5-1.2,2.7-2.7,2.7c-1.5,0-2.7-1.2-2.7-2.7c0,0,0,0,0,0
	C701.3,446.9,702.5,445.7,704,445.7C704,445.7,704,445.7,704,445.7z"/>
<path d="M704,445.7c1.5,0,2.7,1.2,2.7,2.7c0,1.5-1.2,2.7-2.7,2.7c-1.5,0-2.7-1.2-2.7-2.7c0,0,0,0,0,0
	C701.3,446.9,702.5,445.7,704,445.7C704,445.7,704,445.7,704,445.7z"/>
<path d="M704,446.5c1.1,0,1.9,0.9,1.9,2c0,1.1-0.9,1.9-2,1.9c-1.1,0-1.9-0.9-1.9-2C702.1,447.3,702.9,446.5,704,446.5z"/>
<path d="M704,450.4c-1.1,0-1.9-0.9-1.9-2c0-1.1,0.9-1.9,2-1.9c1.1,0,1.9,0.9,1.9,2C705.9,449.5,705,450.3,704,450.4z M704,450.3
	c1,0,1.9-0.8,1.9-1.9c0-1-0.8-1.9-1.9-1.9c-1,0-1.9,0.8-1.9,1.9c0,0,0,0,0,0C702.1,449.4,702.9,450.3,704,450.3
	C704,450.3,704,450.3,704,450.3L704,450.3z"/>
<path d="M704,446.9c0.8,0,1.5,0.7,1.5,1.5s-0.7,1.5-1.5,1.5c-0.8,0-1.5-0.7-1.5-1.5v0C702.5,447.6,703.1,446.9,704,446.9
	C704,446.9,704,446.9,704,446.9z"/>
<path d="M704,450c-0.9,0-1.6-0.7-1.6-1.6s0.7-1.6,1.6-1.6s1.6,0.7,1.6,1.6C705.6,449.2,704.9,449.9,704,450C704,450,704,450,704,450
	z M704,449.7c0.8,0,1.4-0.6,1.4-1.4c0-0.8-0.6-1.4-1.4-1.4c-0.8,0-1.4,0.6-1.4,1.4l0,0C702.7,449.1,703.3,449.7,704,449.7L704,449.7
	z"/>
<path d="M676.7,467.9c1.5,0,2.7,1.2,2.7,2.7s-1.2,2.7-2.7,2.7s-2.7-1.2-2.7-2.7c0,0,0,0,0,0C673.9,469.1,675.1,467.9,676.7,467.9
	C676.6,467.9,676.6,467.9,676.7,467.9z"/>
<path d="M676.7,467.9c1.5,0,2.7,1.2,2.7,2.7s-1.2,2.7-2.7,2.7s-2.7-1.2-2.7-2.7c0,0,0,0,0,0C673.9,469.1,675.1,467.9,676.7,467.9
	C676.6,467.9,676.6,467.9,676.7,467.9z"/>
<path d="M676.7,468.6c1.1,0,1.9,0.9,1.9,2c0,1.1-0.9,1.9-2,1.9c-1.1,0-1.9-0.9-1.9-2C674.7,469.4,675.6,468.6,676.7,468.6z"/>
<path d="M676.7,472.5c-1.1,0-1.9-0.9-1.9-2c0-1.1,0.9-1.9,2-1.9c1.1,0,1.9,0.9,1.9,2C678.6,471.7,677.7,472.5,676.7,472.5z
	 M676.7,472.5c1,0,1.9-0.8,1.9-1.9c0-1-0.8-1.9-1.9-1.9c-1,0-1.9,0.8-1.9,1.9C674.8,471.6,675.6,472.5,676.7,472.5
	C676.6,472.5,676.7,472.5,676.7,472.5z"/>
<path d="M676.7,469.1c0.8,0,1.5,0.7,1.5,1.5c0,0.8-0.7,1.5-1.5,1.5c-0.8,0-1.5-0.7-1.5-1.5c0,0,0,0,0,0
	C675.2,469.8,675.9,469.1,676.7,469.1z"/>
<path d="M676.7,472.2c-0.9,0-1.6-0.7-1.6-1.6s0.7-1.6,1.6-1.6s1.6,0.7,1.6,1.6C678.2,471.4,677.5,472.1,676.7,472.2z M676.7,471.9
	c0.8,0,1.4-0.6,1.4-1.4c0-0.8-0.6-1.4-1.4-1.4c-0.8,0-1.4,0.6-1.4,1.4l0,0C675.3,471.3,675.9,471.9,676.7,471.9L676.7,471.9z"/>
<path d="M704,468.2c1.5,0,2.7,1.2,2.7,2.7c0,1.5-1.2,2.7-2.7,2.7c-1.5,0-2.7-1.2-2.7-2.7c0,0,0,0,0,0
	C701.3,469.4,702.5,468.2,704,468.2C704,468.2,704,468.2,704,468.2z"/>
<path d="M704,468.2c1.5,0,2.7,1.2,2.7,2.7c0,1.5-1.2,2.7-2.7,2.7c-1.5,0-2.7-1.2-2.7-2.7c0,0,0,0,0,0
	C701.3,469.4,702.5,468.2,704,468.2C704,468.2,704,468.2,704,468.2z"/>
<path d="M704,468.9c1.1,0,1.9,0.9,1.9,2c0,1.1-0.9,1.9-2,1.9c-1.1,0-1.9-0.9-1.9-2C702.1,469.7,702.9,468.9,704,468.9z"/>
<path d="M704,472.8c-1.1,0-1.9-0.9-1.9-2c0-1.1,0.9-1.9,2-1.9c1.1,0,1.9,0.9,1.9,2C705.9,472,705.1,472.8,704,472.8z M704,472.8
	c1,0,1.9-0.8,1.9-1.9c0-1-0.8-1.9-1.9-1.9c-1,0-1.9,0.8-1.9,1.9c0,0,0,0,0,0C702.2,471.9,703,472.7,704,472.8z"/>
<path d="M704,469.3c0.8,0,1.5,0.7,1.5,1.5c0,0.8-0.7,1.5-1.5,1.5c-0.8,0-1.5-0.7-1.5-1.5c0,0,0,0,0,0
	C702.6,470,703.2,469.4,704,469.3z"/>
<path d="M704,472.5c-0.9,0-1.6-0.7-1.6-1.6s0.7-1.6,1.6-1.6s1.6,0.7,1.6,1.6C705.5,471.8,704.9,472.5,704,472.5z M704,472.3
	c0.8,0,1.4-0.6,1.4-1.4c0-0.8-0.6-1.4-1.4-1.4c-0.8,0-1.4,0.6-1.4,1.4l0,0C702.7,471.7,703.3,472.3,704,472.3z"/>
<path d="M561.8,445.4c1.5,0,2.7,1.2,2.7,2.7s-1.2,2.7-2.7,2.7c-1.5,0-2.7-1.2-2.7-2.7C559,446.6,560.2,445.4,561.8,445.4
	C561.7,445.3,561.7,445.3,561.8,445.4z"/>
<path d="M561.8,445.4c1.5,0,2.7,1.2,2.7,2.7s-1.2,2.7-2.7,2.7c-1.5,0-2.7-1.2-2.7-2.7C559,446.6,560.2,445.4,561.8,445.4
	C561.7,445.3,561.7,445.3,561.8,445.4z"/>
<path d="M561.8,446.2c1.1,0,1.9,0.9,1.9,2c0,1.1-0.9,1.9-2,1.9c-1.1,0-1.9-0.9-1.9-2C559.8,447,560.7,446.2,561.8,446.2z"/>
<path d="M561.7,450.1c-1.1,0-1.9-0.9-1.9-2c0-1.1,0.9-1.9,2-1.9c1.1,0,1.9,0.9,1.9,2C563.6,449.2,562.7,450.1,561.7,450.1z
	 M561.7,450c1,0,1.9-0.8,1.9-1.9c0-1-0.8-1.9-1.9-1.9c-1,0-1.9,0.8-1.9,1.9C559.7,449.1,560.6,449.9,561.7,450
	C561.6,450,561.6,450,561.7,450L561.7,450z"/>
<path d="M561.8,446.6c0.8,0,1.5,0.6,1.5,1.5s-0.6,1.5-1.5,1.5s-1.5-0.6-1.5-1.5c0,0,0,0,0,0C560.3,447.3,560.9,446.6,561.8,446.6
	C561.7,446.6,561.7,446.6,561.8,446.6z"/>
<path d="M561.7,449.7c-0.9,0-1.6-0.7-1.6-1.6s0.7-1.6,1.6-1.6s1.6,0.7,1.6,1.6c0.1,0.8-0.5,1.5-1.3,1.6
	C561.8,449.7,561.7,449.7,561.7,449.7z M561.8,449.5c0.8,0,1.4-0.6,1.4-1.4c0-0.8-0.6-1.4-1.4-1.4c-0.8,0-1.4,0.6-1.4,1.4l0,0
	c0,0.7,0.5,1.3,1.2,1.3C561.6,449.4,561.7,449.4,561.8,449.5L561.8,449.5z"/>
<path d="M589,445.7c1.5,0,2.7,1.2,2.7,2.7c0,1.5-1.2,2.7-2.7,2.7c-1.5,0-2.7-1.2-2.7-2.7c0,0,0,0,0,0
	C586.3,446.9,587.5,445.7,589,445.7C589,445.7,589,445.7,589,445.7z"/>
<path d="M589,445.7c1.5,0,2.7,1.2,2.7,2.7c0,1.5-1.2,2.7-2.7,2.7c-1.5,0-2.7-1.2-2.7-2.7c0,0,0,0,0,0
	C586.3,446.9,587.5,445.7,589,445.7C589,445.7,589,445.7,589,445.7z"/>
<path d="M589,446.5c1.1,0,1.9,0.9,1.9,2c0,1.1-0.9,1.9-2,1.9c-1.1,0-1.9-0.9-1.9-2C587.1,447.3,587.9,446.5,589,446.5z"/>
<path d="M589,450.4c-1.1,0-1.9-0.9-1.9-2c0-1.1,0.9-1.9,2-1.9c1.1,0,1.9,0.9,1.9,2C590.9,449.6,590.1,450.4,589,450.4z M589,450.3
	c1,0,1.9-0.8,1.9-1.9c0-1-0.8-1.9-1.9-1.9c-1,0-1.9,0.8-1.9,1.9c0,0,0,0,0,0C587.1,449.4,587.9,450.3,589,450.3
	C589,450.3,589,450.3,589,450.3L589,450.3z"/>
<path d="M589,446.9c0.8,0,1.5,0.7,1.5,1.5s-0.7,1.5-1.5,1.5c-0.8,0-1.5-0.7-1.5-1.5v0C587.5,447.6,588.2,446.9,589,446.9z"/>
<path d="M589,450c-0.9,0-1.6-0.7-1.6-1.6s0.7-1.6,1.6-1.6s1.6,0.7,1.6,1.6c0,0.8-0.6,1.5-1.4,1.6C589.1,450,589.1,450,589,450z
	 M589,449.7c0.8,0,1.4-0.6,1.4-1.4c0-0.8-0.6-1.4-1.4-1.4c-0.8,0-1.4,0.6-1.4,1.4l0,0C587.7,449.1,588.3,449.7,589,449.7L589,449.7z
	"/>
<path d="M561.8,467.9c1.5,0,2.7,1.2,2.7,2.7s-1.2,2.7-2.7,2.7s-2.7-1.2-2.7-2.7c0,0,0,0,0,0c0-1.5,1.1-2.7,2.6-2.7
	C561.6,467.9,561.7,467.9,561.8,467.9z"/>
<path d="M561.8,467.9c1.5,0,2.7,1.2,2.7,2.7s-1.2,2.7-2.7,2.7s-2.7-1.2-2.7-2.7c0,0,0,0,0,0c0-1.5,1.1-2.7,2.6-2.7
	C561.6,467.9,561.7,467.9,561.8,467.9z"/>
<path d="M561.8,468.6c1.1,0,1.9,0.9,1.9,2c0,1.1-0.9,1.9-2,1.9c-1.1,0-1.9-0.9-1.9-2C559.8,469.4,560.7,468.6,561.8,468.6z"/>
<path d="M561.7,472.5c-1.1,0-1.9-0.9-1.9-2c0-1.1,0.9-1.9,2-1.9c1.1,0,1.9,0.9,1.9,2C563.6,471.7,562.7,472.5,561.7,472.5z
	 M561.7,472.5c1,0,1.9-0.8,1.9-1.9c0-1-0.8-1.9-1.9-1.9c-1,0-1.9,0.8-1.9,1.9C559.7,471.6,560.6,472.5,561.7,472.5
	C561.6,472.5,561.6,472.5,561.7,472.5z"/>
<path d="M561.8,469.1c0.8,0,1.5,0.6,1.5,1.5s-0.6,1.5-1.5,1.5s-1.5-0.6-1.5-1.5c0,0,0,0,0,0C560.3,469.8,560.9,469.1,561.8,469.1
	C561.7,469.1,561.7,469.1,561.8,469.1z"/>
<path d="M561.7,472.2c-0.9,0-1.6-0.7-1.6-1.6s0.7-1.6,1.6-1.6s1.6,0.7,1.6,1.6c0.1,0.8-0.6,1.5-1.4,1.6
	C561.8,472.2,561.7,472.2,561.7,472.2z M561.8,471.9c0.8,0,1.4-0.6,1.4-1.4c0-0.8-0.6-1.4-1.4-1.4c-0.8,0-1.4,0.6-1.4,1.4l0,0
	c-0.1,0.7,0.5,1.3,1.2,1.4C561.6,472,561.7,472,561.8,471.9L561.8,471.9z"/>
<path d="M589,468.2c1.5,0,2.7,1.2,2.7,2.7c0,1.5-1.2,2.7-2.7,2.7c-1.5,0-2.7-1.2-2.7-2.7c0,0,0,0,0,0
	C586.3,469.4,587.5,468.2,589,468.2C589,468.2,589,468.2,589,468.2z"/>
<path d="M589,468.2c1.5,0,2.7,1.2,2.7,2.7c0,1.5-1.2,2.7-2.7,2.7c-1.5,0-2.7-1.2-2.7-2.7c0,0,0,0,0,0
	C586.3,469.4,587.5,468.2,589,468.2C589,468.2,589,468.2,589,468.2z"/>
<path d="M589,468.9c1.1,0,1.9,0.9,1.9,2c0,1.1-0.9,1.9-2,1.9c-1.1,0-1.9-0.9-1.9-2C587.1,469.7,587.9,468.9,589,468.9z"/>
<path d="M589,472.8c-1.1,0-1.9-0.9-1.9-2c0-1.1,0.9-1.9,2-1.9c1.1,0,1.9,0.9,1.9,2C590.9,472,590.1,472.8,589,472.8z M589,472.8
	c1,0,1.9-0.8,1.9-1.9c0-1-0.8-1.9-1.9-1.9c-1,0-1.9,0.8-1.9,1.9c0,0,0,0,0,0C587.2,471.9,588,472.7,589,472.8z"/>
<path d="M589,469.3c0.8,0.1,1.4,0.8,1.3,1.6c-0.1,0.7-0.6,1.3-1.3,1.3c-0.8,0-1.5-0.6-1.5-1.4c0,0,0,0,0-0.1
	C587.6,470,588.2,469.4,589,469.3z"/>
<path d="M589,472.5c-0.9,0-1.6-0.7-1.6-1.6s0.7-1.6,1.6-1.6s1.6,0.7,1.6,1.6C590.6,471.8,589.9,472.5,589,472.5
	C589,472.5,589,472.5,589,472.5z M589,472.3c0.8,0,1.4-0.6,1.4-1.4c0-0.8-0.6-1.4-1.4-1.4c-0.8,0-1.4,0.6-1.4,1.4l0,0
	C587.7,471.7,588.3,472.3,589,472.3z"/>
<path d="M446.7,445.4c1.5,0,2.7,1.2,2.7,2.7s-1.2,2.7-2.7,2.7c-1.5,0-2.7-1.2-2.7-2.7C444,446.6,445.2,445.4,446.7,445.4z"/>
<path d="M446.7,445.4c1.5,0,2.7,1.2,2.7,2.7s-1.2,2.7-2.7,2.7c-1.5,0-2.7-1.2-2.7-2.7C444,446.6,445.2,445.4,446.7,445.4z"/>
<path d="M446.7,446.2c1.1,0,1.9,0.9,1.9,2s-0.9,1.9-2,1.9c-1.1,0-1.9-0.9-1.9-2C444.8,447,445.7,446.2,446.7,446.2z"/>
<path d="M446.7,450.1c-1.1,0-1.9-0.9-1.9-2s0.9-1.9,2-1.9c1.1,0,1.9,0.9,1.9,2C448.7,449.2,447.8,450.1,446.7,450.1z M446.7,450
	c1,0,1.9-0.8,1.9-1.9c0-1-0.8-1.9-1.9-1.9c-1,0-1.9,0.8-1.9,1.9c0,0,0,0,0,0C444.9,449.1,445.7,450,446.7,450
	C446.7,450,446.7,450,446.7,450L446.7,450z"/>
<path d="M446.7,446.6c0.8,0,1.5,0.6,1.5,1.5c0,0.8-0.6,1.5-1.5,1.5c-0.8,0-1.5-0.6-1.5-1.5c0,0,0,0,0,0
	C445.3,447.3,445.9,446.6,446.7,446.6C446.7,446.6,446.7,446.6,446.7,446.6z"/>
<path d="M446.7,449.7c-0.9,0-1.6-0.7-1.6-1.6c0-0.9,0.7-1.6,1.6-1.6c0.9,0,1.6,0.7,1.6,1.6C448.3,448.9,447.7,449.6,446.7,449.7
	C446.8,449.7,446.8,449.7,446.7,449.7z M446.7,449.5c0.8,0,1.4-0.6,1.4-1.4s-0.6-1.4-1.4-1.4c-0.8,0-1.4,0.6-1.4,1.4l0,0
	C445.4,448.8,446,449.4,446.7,449.5L446.7,449.5z"/>
<path d="M474.1,445.7c1.5,0,2.7,1.2,2.7,2.7c0,1.5-1.2,2.7-2.7,2.7c-1.5,0-2.7-1.2-2.7-2.7c0,0,0,0,0,0c0-1.5,1.1-2.7,2.6-2.7
	C474,445.7,474,445.7,474.1,445.7z"/>
<path d="M474.1,445.7c1.5,0,2.7,1.2,2.7,2.7c0,1.5-1.2,2.7-2.7,2.7c-1.5,0-2.7-1.2-2.7-2.7c0,0,0,0,0,0c0-1.5,1.1-2.7,2.6-2.7
	C474,445.7,474,445.7,474.1,445.7z"/>
<path d="M474.1,446.5c1.1,0,1.9,0.9,1.9,2c0,1.1-0.9,1.9-2,1.9c-1.1,0-1.9-0.9-1.9-2C472.1,447.3,473,446.5,474.1,446.5z"/>
<path d="M474,450.4c-1.1,0-1.9-0.9-1.9-2c0-1.1,0.9-1.9,2-1.9c1.1,0,1.9,0.9,1.9,2C475.9,449.6,475.1,450.4,474,450.4z M474,450.3
	c1,0,1.9-0.8,1.9-1.9c0-1-0.8-1.9-1.9-1.9c-1,0-1.9,0.8-1.9,1.9c0,0,0,0,0,0C472.1,449.4,473,450.3,474,450.3
	C474,450.3,474,450.3,474,450.3L474,450.3z"/>
<path d="M474.1,446.9c0.8,0,1.5,0.7,1.5,1.5c0,0.8-0.7,1.5-1.5,1.5s-1.5-0.7-1.5-1.5l0,0C472.6,447.6,473.2,446.9,474.1,446.9
	C474,446.9,474.1,446.9,474.1,446.9z"/>
<path d="M474.1,450c-0.9,0-1.6-0.7-1.6-1.6c0-0.9,0.7-1.6,1.6-1.6c0.9,0,1.6,0.7,1.6,1.6C475.7,449.2,475,449.9,474.1,450
	C474.1,450,474.1,450,474.1,450z M474.1,449.7c0.8,0,1.4-0.6,1.4-1.4s-0.6-1.4-1.4-1.4c-0.8,0-1.4,0.6-1.4,1.4l0,0
	c-0.1,0.7,0.5,1.3,1.2,1.4C473.9,449.8,474,449.8,474.1,449.7L474.1,449.7z"/>
<path d="M446.7,467.9c1.5,0,2.7,1.2,2.7,2.7c0,1.5-1.2,2.7-2.7,2.7s-2.7-1.2-2.7-2.7c0,0,0,0,0,0C444,469.1,445.2,467.9,446.7,467.9
	C446.7,467.9,446.7,467.9,446.7,467.9z"/>
<path d="M446.7,467.9c1.5,0,2.7,1.2,2.7,2.7c0,1.5-1.2,2.7-2.7,2.7s-2.7-1.2-2.7-2.7c0,0,0,0,0,0C444,469.1,445.2,467.9,446.7,467.9
	C446.7,467.9,446.7,467.9,446.7,467.9z"/>
<path d="M446.7,468.6c1.1,0,1.9,0.9,1.9,2c0,1.1-0.9,1.9-2,1.9c-1.1,0-1.9-0.9-1.9-2C444.8,469.4,445.7,468.6,446.7,468.6z"/>
<path d="M446.7,472.5c-1.1,0-1.9-0.9-1.9-2c0-1.1,0.9-1.9,2-1.9c1.1,0,1.9,0.9,1.9,2C448.7,471.7,447.8,472.5,446.7,472.5z
	 M446.7,472.5c1,0,1.9-0.8,1.9-1.9c0-1-0.8-1.9-1.9-1.9c-1,0-1.9,0.8-1.9,1.9c0,0,0,0,0,0C444.9,471.6,445.7,472.5,446.7,472.5
	C446.7,472.5,446.7,472.5,446.7,472.5z"/>
<path d="M446.7,469.1c0.8,0,1.5,0.6,1.5,1.5c0,0.8-0.6,1.5-1.5,1.5c-0.8,0-1.5-0.6-1.5-1.5c0,0,0,0,0,0
	C445.3,469.8,445.9,469.1,446.7,469.1C446.7,469.1,446.7,469.1,446.7,469.1z"/>
<path d="M446.7,472.2c-0.9,0-1.6-0.7-1.6-1.6c0-0.9,0.7-1.6,1.6-1.6c0.9,0,1.6,0.7,1.6,1.6C448.3,471.4,447.6,472.1,446.7,472.2z
	 M446.7,471.9c0.8,0,1.4-0.6,1.4-1.4s-0.6-1.4-1.4-1.4c-0.8,0-1.4,0.6-1.4,1.4l0,0C445.4,471.3,446,471.9,446.7,471.9L446.7,471.9z"
	/>
<path d="M474.1,468.2c1.5,0,2.7,1.2,2.7,2.7c0,1.5-1.2,2.7-2.7,2.7c-1.5,0-2.7-1.2-2.7-2.7c0,0,0,0,0,0c0-1.5,1.1-2.7,2.6-2.7
	C474,468.2,474,468.2,474.1,468.2z"/>
<path d="M474.1,468.2c1.5,0,2.7,1.2,2.7,2.7c0,1.5-1.2,2.7-2.7,2.7c-1.5,0-2.7-1.2-2.7-2.7c0,0,0,0,0,0c0-1.5,1.1-2.7,2.6-2.7
	C474,468.2,474,468.2,474.1,468.2z"/>
<path d="M474.1,468.9c1.1,0,1.9,0.9,1.9,2s-0.9,1.9-2,1.9c-1.1,0-1.9-0.9-1.9-2C472.1,469.7,473,468.9,474.1,468.9z"/>
<path d="M474,472.8c-1.1,0-1.9-0.9-1.9-2s0.9-1.9,2-1.9c1.1,0,1.9,0.9,1.9,2C476,472,475.1,472.8,474,472.8
	C474.1,472.8,474,472.8,474,472.8z M474,472.8c1,0,1.9-0.8,1.9-1.9c0-1-0.8-1.9-1.9-1.9c-1,0-1.9,0.8-1.9,1.9c0,0,0,0,0,0
	C472.2,471.9,473,472.7,474,472.8z"/>
<path d="M474.1,469.3c0.8,0,1.5,0.7,1.5,1.5c0,0.8-0.7,1.5-1.5,1.5s-1.5-0.7-1.5-1.5c0,0,0,0,0,0C472.6,470,473.3,469.4,474.1,469.3
	z"/>
<path d="M474.1,472.5c-0.9,0-1.6-0.7-1.6-1.6c0-0.9,0.7-1.6,1.6-1.6c0.9,0,1.6,0.7,1.6,1.6C475.6,471.8,474.9,472.5,474.1,472.5z
	 M474.1,472.3c0.8,0,1.4-0.6,1.4-1.4s-0.6-1.4-1.4-1.4c-0.8,0-1.4,0.6-1.4,1.4l0,0c-0.1,0.7,0.5,1.3,1.2,1.4
	C473.9,472.3,474,472.3,474.1,472.3z"/>
<path d="M265.6,445.4c1.5,0,2.7,1.2,2.7,2.7c0,1.5-1.2,2.7-2.7,2.7c-1.5,0-2.7-1.2-2.7-2.7c0,0,0,0,0,0
	C262.9,446.6,264.1,445.4,265.6,445.4z"/>
<path d="M265.6,445.4c1.5,0,2.7,1.2,2.7,2.7c0,1.5-1.2,2.7-2.7,2.7c-1.5,0-2.7-1.2-2.7-2.7c0,0,0,0,0,0
	C262.9,446.6,264.1,445.4,265.6,445.4z"/>
<path d="M265.6,446.2c1.1,0,1.9,0.9,1.9,2s-0.9,1.9-2,1.9c-1.1,0-1.9-0.9-1.9-2C263.7,447,264.6,446.2,265.6,446.2z"/>
<path d="M265.6,450.1c-1.1,0-1.9-0.9-1.9-2s0.9-1.9,2-1.9c1.1,0,1.9,0.9,1.9,2C267.6,449.2,266.7,450,265.6,450.1z M265.6,450
	c1,0,1.9-0.8,1.9-1.9s-0.8-1.9-1.9-1.9c-1,0-1.9,0.8-1.9,1.9C263.7,449.1,264.6,450,265.6,450C265.6,450,265.6,450,265.6,450
	L265.6,450z"/>
<path d="M265.6,446.6c0.8,0,1.5,0.7,1.5,1.5c0,0.8-0.7,1.5-1.5,1.5s-1.5-0.7-1.5-1.5c0,0,0,0,0,0
	C264.1,447.3,264.8,446.6,265.6,446.6C265.6,446.6,265.6,446.6,265.6,446.6z"/>
<path d="M265.6,449.7c-0.9,0-1.6-0.7-1.6-1.6c0-0.9,0.7-1.6,1.6-1.6c0.9,0,1.6,0.7,1.6,1.6C267.2,449,266.6,449.7,265.6,449.7
	C265.7,449.7,265.7,449.7,265.6,449.7z M265.6,449.5c0.8,0,1.4-0.6,1.3-1.4c0-0.8-0.6-1.4-1.4-1.3c-0.7,0-1.4,0.6-1.4,1.4
	C264.3,448.8,264.9,449.4,265.6,449.5L265.6,449.5z"/>
<path d="M293,445.7c1.5,0,2.7,1.2,2.7,2.7c0,1.5-1.2,2.7-2.7,2.7c-1.5,0-2.7-1.2-2.7-2.7l0,0c0-1.5,1.1-2.7,2.6-2.7
	C292.9,445.7,292.9,445.7,293,445.7z"/>
<path d="M293,445.7c1.5,0,2.7,1.2,2.7,2.7c0,1.5-1.2,2.7-2.7,2.7c-1.5,0-2.7-1.2-2.7-2.7l0,0c0-1.5,1.1-2.7,2.6-2.7
	C292.9,445.7,292.9,445.7,293,445.7z"/>
<path d="M293,446.5c1.1,0,1.9,0.9,1.9,2c0,1.1-0.9,1.9-2,1.9c-1.1,0-1.9-0.9-1.9-2C291.1,447.3,291.9,446.5,293,446.5z"/>
<path d="M292.9,450.4c-1.1,0-1.9-0.9-1.9-2c0-1.1,0.9-1.9,2-1.9c1.1,0,1.9,0.9,1.9,2C294.8,449.6,293.9,450.4,292.9,450.4z
	 M292.9,450.3c1,0,1.9-0.8,1.9-1.9c0-1-0.8-1.9-1.9-1.9c-1,0-1.9,0.8-1.9,1.9c0,0,0,0,0,0C291,449.4,291.8,450.3,292.9,450.3
	C292.9,450.3,292.9,450.3,292.9,450.3L292.9,450.3z"/>
<path d="M293,446.9c0.8,0,1.5,0.7,1.5,1.5c0,0.8-0.7,1.5-1.5,1.5s-1.5-0.7-1.5-1.5l0,0C291.5,447.6,292.1,446.9,293,446.9
	C292.9,446.9,293,446.9,293,446.9z"/>
<path d="M292.9,450c-0.9,0-1.6-0.7-1.6-1.6c0-0.9,0.7-1.6,1.6-1.6c0.9,0,1.6,0.7,1.6,1.6c0.1,0.8-0.5,1.5-1.3,1.6
	C293.1,450,293,450,292.9,450z M293,449.7c0.8,0,1.4-0.6,1.3-1.4c0-0.8-0.6-1.4-1.4-1.3c-0.7,0-1.4,0.6-1.4,1.4
	c-0.1,0.7,0.5,1.3,1.2,1.4C292.9,449.8,292.9,449.8,293,449.7L293,449.7z"/>
<path d="M265.6,467.9c1.5,0,2.7,1.2,2.7,2.7c0,1.5-1.2,2.7-2.7,2.7c-1.5,0-2.7-1.2-2.7-2.7c0,0,0,0,0,0
	C262.9,469.1,264.1,467.9,265.6,467.9C265.6,467.9,265.6,467.9,265.6,467.9z"/>
<path d="M265.6,467.9c1.5,0,2.7,1.2,2.7,2.7c0,1.5-1.2,2.7-2.7,2.7c-1.5,0-2.7-1.2-2.7-2.7c0,0,0,0,0,0
	C262.9,469.1,264.1,467.9,265.6,467.9C265.6,467.9,265.6,467.9,265.6,467.9z"/>
<path d="M265.6,468.6c1.1,0,1.9,0.9,1.9,2c0,1.1-0.9,1.9-2,1.9c-1.1,0-1.9-0.9-1.9-2C263.7,469.4,264.6,468.6,265.6,468.6z"/>
<path d="M265.6,472.5c-1.1,0-1.9-0.9-1.9-2c0-1.1,0.9-1.9,2-1.9c1.1,0,1.9,0.9,1.9,2C267.6,471.6,266.7,472.5,265.6,472.5z
	 M265.6,472.5c1,0,1.9-0.8,1.9-1.9s-0.8-1.9-1.9-1.9c-1,0-1.9,0.8-1.9,1.9C263.7,471.6,264.6,472.5,265.6,472.5
	C265.6,472.5,265.6,472.5,265.6,472.5z"/>
<path d="M265.6,469.1c0.8,0,1.5,0.7,1.5,1.5c0,0.8-0.7,1.5-1.5,1.5s-1.5-0.7-1.5-1.5c0,0,0,0,0,0
	C264.2,469.8,264.8,469.1,265.6,469.1C265.6,469.1,265.6,469.1,265.6,469.1z"/>
<path d="M265.6,472.2c-0.9,0-1.6-0.7-1.6-1.6c0-0.9,0.7-1.6,1.6-1.6c0.9,0,1.6,0.7,1.6,1.6C267.2,471.4,266.5,472.1,265.6,472.2z
	 M265.6,471.9c0.8,0,1.4-0.6,1.3-1.4c0-0.8-0.6-1.4-1.4-1.3c-0.7,0-1.4,0.6-1.4,1.4C264.3,471.3,264.9,471.9,265.6,471.9
	L265.6,471.9z"/>
<path d="M293,468.2c1.5,0,2.7,1.2,2.7,2.7c0,1.5-1.2,2.7-2.7,2.7c-1.5,0-2.7-1.2-2.7-2.7l0,0c0-1.5,1.1-2.7,2.6-2.7
	C292.9,468.2,292.9,468.2,293,468.2z"/>
<path d="M293,468.2c1.5,0,2.7,1.2,2.7,2.7c0,1.5-1.2,2.7-2.7,2.7c-1.5,0-2.7-1.2-2.7-2.7l0,0c0-1.5,1.1-2.7,2.6-2.7
	C292.9,468.2,292.9,468.2,293,468.2z"/>
<path d="M293,468.9c1.1,0,1.9,0.9,1.9,2s-0.9,1.9-2,1.9c-1.1,0-1.9-0.9-1.9-2C291.1,469.7,291.9,468.9,293,468.9z"/>
<path d="M292.9,472.8c-1.1,0-1.9-0.9-1.9-2s0.9-1.9,2-1.9c1.1,0,1.9,0.9,1.9,2C294.8,472,293.9,472.8,292.9,472.8z M292.9,472.8
	c1,0,1.9-0.8,1.9-1.9c0-1-0.8-1.9-1.9-1.9c-1,0-1.9,0.8-1.9,1.9c0,0,0,0,0,0C291,471.9,291.9,472.7,292.9,472.8z"/>
<path d="M293,469.3c0.8,0,1.5,0.7,1.5,1.5c0,0.8-0.7,1.5-1.5,1.5s-1.5-0.7-1.5-1.5c0,0,0,0,0,0C291.6,470,292.2,469.4,293,469.3z"/>
<path d="M292.9,472.5c-0.9,0-1.6-0.7-1.6-1.6c0-0.9,0.7-1.6,1.6-1.6c0.9,0,1.6,0.7,1.6,1.6c0.1,0.8-0.6,1.5-1.4,1.6
	C293,472.5,292.9,472.5,292.9,472.5z M293,472.3c0.8,0,1.4-0.6,1.3-1.4c0-0.8-0.6-1.4-1.4-1.3c-0.7,0-1.4,0.6-1.4,1.4
	c-0.1,0.7,0.5,1.3,1.2,1.4C292.9,472.3,292.9,472.3,293,472.3L293,472.3z"/>
<path class="st3" d="M449.6,501.5c1.3,0,2.6-0.5,3.6-1.5c2.2-2.2,2.4-5.7,0.4-8.1l-45.5-53.7H138.6l-25.9,46.4
	c-1.6,2.7-0.8,6.2,1.9,7.8c2.4,1.5,5.5,0.9,7-1.5c0.1-0.2,0.2-0.3,0.3-0.5l22.7-40.7h258.6l42.2,50
	C446.6,500.9,448,501.5,449.6,501.5z"/>
<rect x="632.9" y="484" class="st3" width="147.9" height="50.6"/>
<polygon class="st3" points="652.2,463 766.1,463 766.1,468.6 780.8,468.6 780.8,484 632.9,484 632.9,468.6 652.2,468.6 "/>
<rect x="783.3" y="491.1" class="st3" width="51.4" height="43.5"/>
<rect x="803.5" y="525.9" class="st3" width="11.1" height="1.2"/>
<path class="st3" d="M809.5,516.9c0,0.3,0.1,0.5,0.3,0.5h2.7c0.2,0,0.3-0.2,0.3-0.5v-4.6c0-0.3-0.1-0.5-0.3-0.5h-2.7
	c-0.2,0-0.3,0.2-0.3,0.5V516.9z"/>
<path class="st3" d="M809.4,516.9v-4.6c0-0.4,0.2-0.7,0.4-0.7h2.7c0.2,0,0.4,0.3,0.4,0.7v4.6c0,0.4-0.2,0.7-0.4,0.7h-2.7
	C809.5,517.7,809.4,517.3,809.4,516.9z M809.8,512c-0.1,0-0.2,0.1-0.2,0.3v4.6c0,0.2,0.1,0.3,0.2,0.3h2.7c0.1,0,0.2-0.1,0.2-0.3
	v-4.6c0-0.2-0.1-0.3-0.2-0.3H809.8z"/>
<path class="st3" d="M805.3,516.9c0,0.3,0.1,0.5,0.3,0.5h2.7c0.2,0,0.3-0.2,0.3-0.5v-4.6c0-0.3-0.1-0.5-0.3-0.5h-2.7
	c-0.2,0-0.3,0.2-0.3,0.5V516.9z"/>
<path class="st3" d="M805.2,516.9v-4.6c0-0.4,0.2-0.7,0.4-0.7h2.7c0.2,0,0.4,0.3,0.4,0.7v4.6c0,0.4-0.2,0.7-0.4,0.7h-2.7
	C805.4,517.7,805.2,517.3,805.2,516.9z M805.6,512c-0.1,0-0.2,0.1-0.2,0.3v4.6c0,0.2,0.1,0.3,0.2,0.3h2.7c0.1,0,0.2-0.1,0.2-0.3
	v-4.6c0-0.2-0.1-0.3-0.2-0.3H805.6z"/>
<path class="st2" d="M849.5,185.5l15.1-26.7c0.6-1.1,1.5-2,2.5-2.6l22.8-14.4c2.5-1.6,5.5-2.1,8.4-1.4c24,5.9,138.6,35,187.6,66.8
	c5,3.3-86.8-20.8-95.7-22L849.5,185.5z"/>
<path class="st35" d="M849.5,205.5l0.2-16.3c0-2.4,3.8-4.3,8.5-4.3c1.9,0,3.8,0.3,5.7,1l15.2,7c1.8,0.8,2.8,2,2.8,3.2v9.4H849.5z"/>
<polygon points="856.7,537.6 1130.1,541.2 1148.4,365 856.7,365 "/>
<path class="st13" d="M860.3,476.1c2.9,0,5.3-2.4,5.2-5.4c0,0,0-0.1,0-0.1c0-2.9-2.3-5.4-5.2-5.5c-24.9,0-32-9-32.4-13.8V210.1
	c0-26.9-35.7-32.3-37.2-32.5c-2.9-0.4-5.6,1.6-6,4.5c0,0.1,0,0.1,0,0.2c-0.5,2.9,1.5,5.7,4.4,6.2c0,0,0,0,0.1,0
	c0.4,0.1,28.1,4.3,28.1,21.6v241.4C817.3,452.5,817.9,476.1,860.3,476.1z"/>
<rect x="805.8" y="214.8" class="st36" width="32.7" height="223.9"/>
<rect x="830.3" y="214.8" class="st37" width="8.2" height="223.9"/>
<rect x="805.8" y="378.5" class="st38" width="32.7" height="11.2"/>
<rect x="805.8" y="247.7" class="st38" width="32.7" height="11.2"/>
<path class="st14" d="M1044.5,523.9c0,40.6-32.9,73.4-73.4,73.4s-73.4-32.9-73.4-73.4c0-40.6,32.9-73.4,73.4-73.4l0,0
	C1011.6,450.5,1044.5,483.4,1044.5,523.9z"/>
<path d="M1044.5,523.9c0,40.6-32.9,73.4-73.4,73.4s-73.4-32.9-73.4-73.4c0-40.6,32.9-73.4,73.4-73.4l0,0
	C1011.6,450.5,1044.5,483.4,1044.5,523.9z"/>
<radialGradient id="SVGID_21_" cx="2991.02" cy="-225.24" r="62.9251" gradientTransform="matrix(-1 0 0 -1 3962.1799 298.67)" gradientUnits="userSpaceOnUse">
	<stop  offset="0" style="stop-color:#231F20"/>
	<stop  offset="0.41" style="stop-color:#252122"/>
	<stop  offset="0.56" style="stop-color:#2B2729"/>
	<stop  offset="0.67" style="stop-color:#353334"/>
	<stop  offset="0.74" style="stop-color:#414042"/>
	<stop  offset="0.77" style="stop-color:#4D4D4F"/>
	<stop  offset="0.8" style="stop-color:#555658"/>
	<stop  offset="0.85" style="stop-color:#58595B"/>
	<stop  offset="0.92" style="stop-color:#414042"/>
</radialGradient>
<path class="st39" d="M1034.2,523.9c0,34.8-28.2,63-63,63s-63-28.2-63-63s28.2-63,63-63c34.8,0,63,28.1,63,62.9
	C1034.2,523.8,1034.2,523.9,1034.2,523.9z"/>
<path class="st13" d="M1025.3,523.9c0,29.8-24.2,54-54,54s-54-24.2-54-54c0-29.8,24.2-54,54-54
	C1001.1,469.9,1025.2,494.1,1025.3,523.9z"/>
<path class="st16" d="M1025.3,523.9c0,29.8-24.2,54-54,54s-54-24.2-54-54c0-29.8,24.2-54,54-54
	C1001.1,469.9,1025.2,494.1,1025.3,523.9z"/>
<path class="st17" d="M1009.3,523.9c0,21.1-17.1,38.1-38.1,38.1s-38.1-17.1-38.1-38.1c0-21.1,17.1-38.1,38.1-38.1c0,0,0,0,0,0
	C992.3,485.8,1009.3,502.9,1009.3,523.9z"/>
<linearGradient id="SVGID_22_" gradientUnits="userSpaceOnUse" x1="2964.47" y1="-225.76" x2="3017.47" y2="-225.76" gradientTransform="matrix(-1 0 0 -1 3962.1799 298.67)">
	<stop  offset="3.000000e-02" style="stop-color:#6D6E71"/>
	<stop  offset="0.25" style="stop-color:#BCBEC0"/>
	<stop  offset="0.52" style="stop-color:#D1D3D4"/>
	<stop  offset="0.69" style="stop-color:#BCBEC0"/>
	<stop  offset="0.98" style="stop-color:#58595B"/>
</linearGradient>
<path class="st40" d="M997.7,524.4c0,14.6-11.9,26.5-26.5,26.5s-26.5-11.9-26.5-26.5c0-14.6,11.9-26.5,26.5-26.5l0,0
	C985.8,497.9,997.7,509.7,997.7,524.4C997.7,524.4,997.7,524.4,997.7,524.4z"/>
<linearGradient id="SVGID_23_" gradientUnits="userSpaceOnUse" x1="2958.53" y1="-207.98" x2="2980.53" y2="-207.98" gradientTransform="matrix(-1 0 0 -1 3962.1799 298.67)">
	<stop  offset="3.000000e-02" style="stop-color:#6D6E71"/>
	<stop  offset="0.25" style="stop-color:#BCBEC0"/>
	<stop  offset="0.52" style="stop-color:#D1D3D4"/>
	<stop  offset="0.69" style="stop-color:#BCBEC0"/>
	<stop  offset="0.98" style="stop-color:#58595B"/>
</linearGradient>
<path class="st41" d="M981.7,511.2l11.9-15.1c4.2,3.4,7.7,7.6,10.1,12.5l-17.3,8.5C985.3,514.9,983.7,512.8,981.7,511.2z"/>
<linearGradient id="SVGID_24_" gradientUnits="userSpaceOnUse" x1="2968.49" y1="-249.95" x2="2987.24" y2="-249.95" gradientTransform="matrix(-1 0 0 -1 3962.1799 298.67)">
	<stop  offset="3.000000e-02" style="stop-color:#6D6E71"/>
	<stop  offset="0.25" style="stop-color:#BCBEC0"/>
	<stop  offset="0.52" style="stop-color:#D1D3D4"/>
	<stop  offset="0.69" style="stop-color:#BCBEC0"/>
	<stop  offset="0.98" style="stop-color:#58595B"/>
</linearGradient>
<path class="st42" d="M993.7,552.6c-4.3,3.4-9.2,5.7-14.5,7l-4.3-18.7c2.5-0.5,4.8-1.7,6.7-3.3L993.7,552.6z"/>
<linearGradient id="SVGID_25_" gradientUnits="userSpaceOnUse" x1="3001.5601" y1="-208.01" x2="3023.5601" y2="-208.01" gradientTransform="matrix(-1 0 0 -1 3962.1799 298.67)">
	<stop  offset="3.000000e-02" style="stop-color:#6D6E71"/>
	<stop  offset="0.25" style="stop-color:#BCBEC0"/>
	<stop  offset="0.52" style="stop-color:#D1D3D4"/>
	<stop  offset="0.69" style="stop-color:#BCBEC0"/>
	<stop  offset="0.98" style="stop-color:#58595B"/>
</linearGradient>
<path class="st43" d="M955.9,517.1l-17.4-8.3c2.4-4.9,5.8-9.2,10-12.6l12,15C958.6,512.9,957,514.9,955.9,517.1z"/>
<linearGradient id="SVGID_26_" gradientUnits="userSpaceOnUse" x1="2954.8999" y1="-233.565" x2="2975.8" y2="-233.565" gradientTransform="matrix(-1 0 0 -1 3962.1799 298.67)">
	<stop  offset="3.000000e-02" style="stop-color:#6D6E71"/>
	<stop  offset="0.25" style="stop-color:#BCBEC0"/>
	<stop  offset="0.52" style="stop-color:#D1D3D4"/>
	<stop  offset="0.69" style="stop-color:#BCBEC0"/>
	<stop  offset="0.98" style="stop-color:#58595B"/>
</linearGradient>
<path class="st44" d="M988.1,524.4L988.1,524.4l19.3-0.1v0.1c0,5.4-1.2,10.8-3.6,15.7l-17.3-8.4C987.5,529.4,988,527,988.1,524.4z"
	/>
<linearGradient id="SVGID_27_" gradientUnits="userSpaceOnUse" x1="3006.21" y1="-233.615" x2="3027.1101" y2="-233.615" gradientTransform="matrix(-1 0 0 -1 3962.1799 298.67)">
	<stop  offset="3.000000e-02" style="stop-color:#6D6E71"/>
	<stop  offset="0.25" style="stop-color:#BCBEC0"/>
	<stop  offset="0.52" style="stop-color:#D1D3D4"/>
	<stop  offset="0.69" style="stop-color:#BCBEC0"/>
	<stop  offset="0.98" style="stop-color:#58595B"/>
</linearGradient>
<path class="st45" d="M954.3,524.4c0,2.5,0.6,5,1.7,7.3l-17.3,8.4c-2.4-4.9-3.6-10.2-3.6-15.6L954.3,524.4z"/>
<linearGradient id="SVGID_28_" gradientUnits="userSpaceOnUse" x1="2983.1001" y1="-199.412" x2="2999.1201" y2="-199.412" gradientTransform="matrix(-1 0 0 -1 3962.1799 298.67)">
	<stop  offset="3.000000e-02" style="stop-color:#6D6E71"/>
	<stop  offset="0.25" style="stop-color:#BCBEC0"/>
	<stop  offset="0.52" style="stop-color:#D1D3D4"/>
	<stop  offset="0.69" style="stop-color:#BCBEC0"/>
	<stop  offset="0.98" style="stop-color:#58595B"/>
</linearGradient>
<path class="st46" d="M963,489.2c5.3-1.2,10.7-1.3,16-0.1l-4.2,18.8c-2.5-0.5-5.1-0.5-7.5,0L963,489.2z"/>
<linearGradient id="SVGID_29_" gradientUnits="userSpaceOnUse" x1="2994.74" y1="-250" x2="3013.49" y2="-250" gradientTransform="matrix(-1 0 0 -1 3962.1799 298.67)">
	<stop  offset="3.000000e-02" style="stop-color:#6D6E71"/>
	<stop  offset="0.25" style="stop-color:#BCBEC0"/>
	<stop  offset="0.52" style="stop-color:#D1D3D4"/>
	<stop  offset="0.69" style="stop-color:#BCBEC0"/>
	<stop  offset="0.98" style="stop-color:#58595B"/>
</linearGradient>
<path class="st47" d="M967.4,540.9l-4.3,18.8c-5.3-1.2-10.2-3.6-14.5-7l11.9-15C962.7,539.2,965,540.3,967.4,540.9z"/>
<path class="st3" d="M849.5,185.5c0.2-0.1,0.5-0.2,0.7-0.2h140.2l91.4,20.4c3.8,0.8,7,3.2,8.8,6.6l61.5,110.8c1.4,2.4,2,5.2,1.9,8
	l-6.8,137.3c0,0.8-0.7,1.5-1.6,1.5c0,0,0,0,0,0h-72.3l-0.7-0.5c-11.9-26.2-38-43-66.8-43c-3.3,0-6.7,0.2-10,0.7H860.5
	c-4.9,0-9.2-3-11-7.5V185.5L849.5,185.5z"/>
<path class="st48" d="M1133.5,450.3l7.1-119.1c0.1-2.3-0.4-4.5-1.6-6.5l-59.6-100c-2-3.4-5.7-5.5-9.7-5.5h-85.8
	c-6.3,0-11.4,5.1-11.4,11.4v172c0,6.3,5.2,11.4,11.5,11.4c0.1,0,0.2,0,0.2,0c23-0.6,73.6,2.6,91.3,40.7c1.9,4,5.9,6.5,10.3,6.5h36.3
	C1128.2,461,1133.1,456.3,1133.5,450.3z"/>
<path class="st49" d="M985.5,322.1v-90h76.5c4.1,0,7.9,2.2,10.1,5.7l55.5,93.1l0,0c-0.2,4-3.7,7.1-7.7,6.9c-0.2,0-0.3,0-0.5,0
	L985.5,322.1z"/>
<line class="st48" x1="1072" y1="237.7" x2="1072" y2="331.3"/>
<path class="st13" d="M990,337.8h24.1c1.8,0,3.2-1.5,3.3-3.2l0,0c0-1.8-1.5-3.2-3.3-3.3H990c-1.8,0-3.2,1.5-3.3,3.3l0,0
	C986.8,336.3,988.2,337.8,990,337.8z"/>
<path class="st49" d="M885.4,314.8h61.9c2,0,3.6-1.6,3.6-3.5c0,0,0,0,0,0v-88.6c0-2-1.6-3.5-3.5-3.6c0,0,0,0-0.1,0h-61.9
	c-1.9,0-3.5,1.6-3.6,3.5c0,0,0,0,0,0.1v88.5C881.8,313.2,883.4,314.8,885.4,314.8z"/>
<path class="st2" d="M849.5,445c0.1-3.2,2.7-5.8,6-5.8c0,0,0,0,0,0H991c3.3-0.5,6.7-0.7,10-0.7c28.8,0,54.9,16.8,66.8,43l0.7,0.5
	h77.6l-13.3,59.1c-3.1,13.6-15.2,23.3-29.1,23.3h-55.1v-37c0-42.5-34.5-77-77-77l0,0c-42.5,0-77,34.5-77,77v37h-45.2V445z"/>
<path class="st2" d="M887.4,329.2h8.6c-1.9,0-3.8,0.3-5.7,0.8c3.9,1.2,7,3.5,8.5,6.4l6.9,14.3h-8.6l-6.9-14.3
	c-1.8-3.2-4.9-5.5-8.5-6.4C883.6,329.5,885.5,329.2,887.4,329.2z"/>
<path class="st2" d="M897,329.2h8.6c6.4,0,12,2.9,14.1,7.2l6.9,14.3h-8.6l-6.9-14.3C909.1,332.1,903.4,329.2,897,329.2z"/>
<path class="st2" d="M914.5,329.2h8.6c6.4,0,12,2.9,14.1,7.2l6.9,14.3h-8.6l-6.9-14.3C926.6,332.1,920.9,329.2,914.5,329.2z"/>
<path class="st3" d="M1122.6,513v4.1c-0.1-1.1-0.7-2.1-1.7-2.7c-2.4,1.9-7.3,3.3-13.6,4l-30.3,3.2v-4.1l30.3-3.3
	c6.3-0.6,11.1-2.2,13.6-4C1121.9,510.9,1122.5,511.9,1122.6,513z"/>
<path class="st3" d="M1122.6,517.5v4.1c0,3-6.2,5.8-15.3,6.7l-30.3,3.3v-4.1l30.3-3.3C1116.5,523.3,1122.6,520.6,1122.6,517.5z"/>
<path class="st3" d="M1122.6,525.9v4.1c0,3-6.2,5.8-15.3,6.7l-30.3,3.3v-4.1l30.3-3.3C1116.5,531.6,1122.6,528.9,1122.6,525.9z"/>
<path class="st50" d="M882.7,413.9c0,0.5,0.3,0.9,0.7,0.9h6.7c0.5-0.1,0.8-0.5,0.7-0.9v-8.1c0.1-0.5-0.3-0.9-0.7-0.9h-6.7
	c-0.4,0-0.7,0.4-0.7,0.9V413.9z"/>
<path class="st13" d="M882.4,413.9v-8.1c0-0.6,0.4-1.2,1-1.3h6.7c0.6,0.1,1,0.6,1,1.3v8.1c0,0.6-0.4,1.2-1,1.3h-6.7
	C882.8,415.1,882.3,414.5,882.4,413.9z M883.4,405.3c-0.3,0-0.4,0.3-0.4,0.5v8.1c0,0.3,0.2,0.5,0.4,0.5h6.7c0.3,0,0.4-0.3,0.4-0.5
	v-8.1c0-0.3-0.2-0.5-0.4-0.5H883.4z"/>
<path class="st51" d="M872.5,413.9c0,0.5,0.3,0.9,0.7,0.9h6.7c0.5-0.1,0.8-0.5,0.7-0.9v-8.1c0.1-0.5-0.3-0.9-0.7-0.9h-6.7
	c-0.4,0-0.7,0.4-0.7,0.9L872.5,413.9z"/>
<path class="st13" d="M872.3,413.9v-8.1c0-0.6,0.4-1.2,1-1.3h6.7c0.6,0.1,1,0.6,1,1.3v8.1c0.1,0.6-0.4,1.2-1,1.3h-6.8
	C872.8,415.2,872.3,414.7,872.3,413.9z M873.3,405.3c-0.3,0-0.4,0.3-0.4,0.5v8.1c0,0.3,0.2,0.5,0.4,0.5h6.7c0.3,0,0.4-0.3,0.4-0.5
	v-8.1c0-0.3-0.2-0.5-0.4-0.5H873.3z"/>
</svg>
