<?xml version="1.0" encoding="utf-8"?>
<!-- Generator: Adobe Illustrator 23.0.1, SVG Export Plug-In . SVG Version: 6.00 Build 0)  -->
<svg version="1.1" id="Layer_1" xmlns="http://www.w3.org/2000/svg" xmlns:xlink="http://www.w3.org/1999/xlink" x="0px" y="0px"
	 viewBox="0 0 1155.9 559.4" style="enable-background:new 0 0 1155.9 559.4;" xml:space="preserve">
<style type="text/css">
	.st0{fill:url(#SVGID_1_);}
	.st1{fill:#1A1B20;}
	.st2{fill:url(#SVGID_2_);}
	.st3{fill:#88A84C;}
	.st4{fill:#A7CB64;}
	.st5{fill:none;stroke:#414042;stroke-width:1.8778;stroke-miterlimit:10;}
	.st6{fill:#414042;}
	.st7{fill:url(#SVGID_3_);}
	.st8{fill:url(#SVGID_4_);}
	.st9{fill:#403430;}
	.st10{fill:#312527;stroke:#414042;stroke-width:0.95;stroke-miterlimit:10;}
	.st11{fill:#312527;stroke:#414042;stroke-width:1.2105;stroke-miterlimit:10;}
	.st12{fill:#939598;}
	.st13{fill:url(#SVGID_5_);}
	.st14{fill:#414042;stroke:#3D3B3D;stroke-width:0.4;stroke-miterlimit:10;}
	.st15{fill:#231F20;}
	.st16{fill:#3B3A3A;}
	.st17{fill:url(#SVGID_6_);}
	.st18{fill:#414042;stroke:#3D3B3D;stroke-width:9.794500e-02;stroke-miterlimit:10;}
	.st19{fill:url(#SVGID_7_);}
	.st20{fill:none;stroke:#3B3A3A;stroke-width:4.517;stroke-miterlimit:10;}
	.st21{fill:#58595B;}
	.st22{fill:#3D3B3D;}
	.st23{fill:url(#SVGID_8_);}
	.st24{fill:#414042;stroke:#3D3B3D;stroke-width:8.377800e-02;stroke-miterlimit:10;}
	.st25{fill:url(#SVGID_9_);}
	.st26{fill:url(#SVGID_10_);}
	.st27{fill:url(#SVGID_11_);}
	.st28{fill:url(#SVGID_12_);}
	.st29{fill:url(#SVGID_13_);}
	.st30{fill:url(#SVGID_14_);}
	.st31{fill:url(#SVGID_15_);}
	.st32{fill:url(#SVGID_16_);}
	.st33{fill:url(#SVGID_17_);}
	.st34{fill:url(#SVGID_18_);}
	.st35{fill:#ED1C24;}
	.st36{fill:#ABA9A7;}
	.st37{opacity:0.1;fill:#1B1B19;enable-background:new    ;}
</style>
<title>crane</title>
<g>
	
		<linearGradient id="SVGID_1_" gradientUnits="userSpaceOnUse" x1="1740.2698" y1="-980.6615" x2="1740.2698" y2="-987.2375" gradientTransform="matrix(1 0 0 1 -1253.16 1207.0698)">
		<stop  offset="0" style="stop-color:#FFFFFF"/>
		<stop  offset="1" style="stop-color:#000000"/>
	</linearGradient>
	<path class="st0" d="M501.1,224.4h-27.9c-0.4,0-0.7-0.3-0.7-0.7l0,0V220c0-0.3,0.3-0.7,0.7-0.7l0,0h27.9c0.4,0,0.7,0.3,0.7,0.7l0,0
		v3.7C501.9,224.2,501.5,224.4,501.1,224.4C501.2,224.4,501.2,224.4,501.1,224.4z"/>
	<path class="st1" d="M535,225.4h-37.9c-0.6,0-1-0.4-1-1v-5c0-0.5,0.5-1,1-1H535c0.6,0,1,0.4,1,1v5C535.9,225,535.6,225.4,535,225.4
		z"/>
	<path class="st1" d="M500.2,226.6h-2.3c-0.5,0-0.8-0.3-0.8-0.8l0,0v-8c0-0.4,0.4-0.8,0.8-0.8l0,0h2.3c0.5,0,0.8,0.3,0.8,0.8l0,0v8
		C501.1,226.3,500.7,226.6,500.2,226.6L500.2,226.6z"/>
	
		<linearGradient id="SVGID_2_" gradientUnits="userSpaceOnUse" x1="-204.6806" y1="-2190.9502" x2="-204.6806" y2="-2208.9397" gradientTransform="matrix(-2.67 1.03 -0.51 -1.31 -923.11 -2524.25)">
		<stop  offset="0" style="stop-color:#FFFFFF"/>
		<stop  offset="1" style="stop-color:#000000"/>
	</linearGradient>
	<path class="st2" d="M652,176.3L835.6,110c1.8-0.7,4,0.2,4.7,1.9v0.1l3.3,8.1c0.7,1.7-0.2,3.7-2,4.4h-0.1l-183.6,66.4
		c-1.8,0.7-4-0.2-4.7-1.9v-0.1l-3.3-8.1C649.2,179,650.1,177,652,176.3z"/>
	<path class="st3" d="M431.7,252.9L680.6,163c2.5-1,5.4,0.3,6.4,2.6c0,0,0,0,0,0.1l4.5,11c1,2.3-0.3,5-2.8,6c0,0,0,0-0.1,0
		l-248.9,89.9c-2.5,1-5.4-0.3-6.4-2.6c0,0,0,0,0-0.1l-4.5-11C427.9,256.6,429.1,253.9,431.7,252.9z"/>
	<path class="st4" d="M655.7,168.1l15.8-5.7c2.5-1,5.4,0.3,6.4,2.6l7.4,17.9c1,2.3-0.3,5-2.8,6l-15.8,5.7c-2.5,1-5.4-0.3-6.4-2.6
		l-7.4-17.9C652,171.8,653.2,169.1,655.7,168.1L655.7,168.1z"/>
	<polygon class="st4" points="926.8,41.5 335.1,41.5 373.5,115.7 926.8,115.7 954.7,115.7 954.7,95.1 	"/>
	<path class="st3" d="M770.1,47.1h78.4c2.2,0,4.4,0.7,6.2,1.9l64.2,43.1c2.8,1.9,4.4,4.9,4.4,8.1l0,0c0,4.3-3,8.1-7.3,9.5
		l-109.4,34.1c-5.4,1.6-11.2-0.9-13.3-5.7l-33.3-77.2c-2.2-5.2,0.6-11.1,6.1-13.2C767.5,47.3,768.8,47.1,770.1,47.1z"/>
	<path class="st4" d="M519.1,200.3h25c0.7,0,1.4,0.2,1.9,0.6l20.4,13.7c0.9,0.6,1.4,1.6,1.4,2.6l0,0c0,1.4-0.9,2.6-2.3,3L530.7,231
		c-1.7,0.5-3.5-0.3-4.3-1.8L516,204.7c-0.7-1.6,0.1-3.5,1.8-4.2C518.2,200.3,518.6,200.3,519.1,200.3z"/>
	<ellipse class="st4" cx="804.4" cy="80.2" rx="22.7" ry="21.2"/>
	<ellipse class="st4" cx="856.9" cy="87.5" rx="14.9" ry="13.9"/>
	<rect x="1066.1" y="149.8" class="st5" width="36.2" height="164.2"/>
	<polygon class="st3" points="1028.8,115.7 1055.4,115.7 1055.4,106.1 1027.6,52.5 1000.9,52.5 1028.8,106.1 	"/>
	<rect x="1010.8" y="58" class="st4" width="14.6" height="3.6"/>
	<rect x="1033.7" y="110.7" class="st4" width="14.6" height="3.6"/>
	<polygon class="st4" points="1002.4,115.7 1029.2,115.7 1029.2,100.6 1001.2,47.1 974.6,47.1 1002.4,100.6 	"/>
	<rect x="984.6" y="52.5" class="st3" width="14.6" height="3.6"/>
	<rect x="1007.4" y="105.2" class="st3" width="14.6" height="3.6"/>
	<polygon class="st3" points="953,41.5 926.2,41.5 954.2,95.1 954.2,115.7 980.9,115.7 980.9,95.1 	"/>
	<rect x="936.3" y="47.1" class="st4" width="14.6" height="3.6"/>
	<rect x="959.1" y="99.7" class="st4" width="14.6" height="3.6"/>
	<polygon class="st3" points="976.3,41.5 949.5,41.5 977.5,95.1 977.5,115.7 1004.2,115.7 1004.2,95.1 	"/>
	<rect x="959.6" y="47.1" class="st4" width="14.6" height="3.6"/>
	<rect x="982.5" y="99.7" class="st4" width="14.6" height="3.6"/>
	<polygon class="st4" points="1025.5,52.3 1041,52.3 1084.4,76 1084.4,165.3 1078.5,165.3 1045.3,116.1 1045.3,87.9 	"/>
	<path class="st3" d="M1091.7,91l-0.1-16.3c0-1.3-1.1-2.4-2.5-2.4l-22-1.1c-1.5,0-2.8,1-2.8,2.4c0,0.3,0,0.5,0.1,0.9l6.3,17.2
		c0.2,0.5,0.5,0.9,0.9,1.2l4.3,2.9v41.4h15.7V91z"/>
	<path class="st4" d="M1100.7,140.8l-0.7-12.6c-0.1-0.8-0.8-1.5-1.7-1.5l-11.2-0.1v-0.1h-6.4v5.5c-10.4,1.8-17.3,11.1-15.3,20.9
		c1.9,9.7,11.8,16.2,22.3,14.4c9.1-1.6,15.7-9,15.6-17.7C1103.2,146.6,1102.4,143.5,1100.7,140.8z"/>
	<path class="st4" d="M1092.2,149.7c0,4.2-3.6,7.6-8.1,7.6c-4.5,0-8.1-3.4-8.1-7.6s3.6-7.6,8.1-7.6
		C1088.5,142,1092.2,145.4,1092.2,149.7C1092.3,149.6,1092.3,149.7,1092.2,149.7z"/>
	<path class="st3" d="M1084.1,159.7c-5.9,0-10.7-4.5-10.7-10.1s4.8-10.1,10.7-10.1s10.7,4.5,10.7,10.1
		C1094.9,155.2,1090.1,159.7,1084.1,159.7L1084.1,159.7z M1084.1,144.5c-3.1,0-5.5,2.3-5.5,5.2s2.5,5.2,5.5,5.2s5.5-2.3,5.5-5.2
		C1089.7,146.8,1087.2,144.5,1084.1,144.5C1084.2,144.5,1084.2,144.5,1084.1,144.5L1084.1,144.5z"/>
	<path class="st3" d="M1078.1,360.3v11.5c0,0.8-0.4,1.6-0.9,2.1l-12.3,10.7c-0.6,0.5-0.9,1.3-0.9,2.1V397c0,0.8,0.3,1.5,0.8,2
		l11.5,10.7c0.6,0.5,1.3,0.8,2.1,0.8h9.7c0.8,0,1.6-0.3,2.1-0.8l11.5-10.7c0.6-0.5,0.8-1.2,0.8-2v-10.6c0-0.7,0.3-1.4,0.7-1.9l1.9-2
		c0.7-0.8,0.9-1.9,0.6-2.9l0,0c-0.6-1.4-2.4-2.1-3.9-1.5c-0.4,0.2-0.7,0.3-1,0.6l-2.9,2.7c-0.3,0.2-0.5,0.4-0.6,0.7l-5.8,10.8
		c-0.5,1-1.6,1.6-2.7,1.6h-6.8c-1.6,0-3-1.2-3-2.7v-0.1v-6.6c0-0.8,0.3-1.5,0.8-2l10.4-9.8c0.6-0.5,0.8-1.2,0.8-2v-11.1
		c0-1.5-1.3-2.8-2.9-2.8h-0.1h-7.2C1079.4,357.5,1078.1,358.7,1078.1,360.3C1078,360.3,1078,360.3,1078.1,360.3z"/>
	<path class="st3" d="M1088,411h-9.7c-0.9,0-1.8-0.3-2.5-1l-11.5-10.7c-0.6-0.6-1-1.5-1-2.3v-10.4c0-1,0.4-1.8,1.1-2.4l12.3-10.7
		c0.6-0.4,0.8-1,0.8-1.7v-11.5c0-1.8,1.6-3.3,3.5-3.3l0,0h7.2c1.9,0,3.5,1.5,3.5,3.3l0,0v11.2c0,0.9-0.4,1.7-1,2.3l-10.4,9.8
		c-0.5,0.4-0.7,1-0.7,1.6v6.6c0,1.3,1.1,2.3,2.5,2.3l0,0h6.8c0.9,0,1.8-0.5,2.2-1.3l5.8-10.8c0.2-0.3,0.4-0.6,0.6-0.9l2.9-2.7
		c1.4-1.3,3.6-1.2,4.9,0.1c0.3,0.3,0.6,0.6,0.7,1c0.6,1.2,0.3,2.5-0.6,3.5l-1.9,2c-0.4,0.4-0.6,1-0.6,1.6V397c0,0.9-0.4,1.7-1,2.3
		l-11.5,10.7C1089.8,410.7,1088.9,411,1088,411z M1080.9,357.9c-1.4,0-2.5,1-2.5,2.3l0,0v11.5c0,1-0.4,1.8-1.1,2.4l-12.3,10.7
		c-0.6,0.4-0.8,1-0.8,1.7V397c0,0.6,0.3,1.2,0.7,1.6l11.5,10.7c0.5,0.4,1.1,0.7,1.8,0.7h9.7c0.6,0,1.3-0.3,1.8-0.7l11.5-10.7
		c0.5-0.4,0.7-1,0.7-1.6v-10.6c0-0.8,0.3-1.6,0.9-2.2l1.9-2c0.6-0.7,0.8-1.6,0.5-2.4c-0.4-0.7-1-1.2-1.8-1.4
		c-0.8-0.2-1.7,0.1-2.2,0.6l-2.9,2.7c-0.2,0.2-0.4,0.3-0.5,0.6l-5.8,10.8c-0.6,1.1-1.8,1.8-3.1,1.8h-6.8c-1.9,0-3.5-1.5-3.5-3.3l0,0
		v-6.6c0-0.9,0.4-1.7,1-2.3l10.4-9.8c0.5-0.4,0.7-1,0.7-1.6v-11.2c0-1.3-1.1-2.3-2.5-2.3l0,0L1080.9,357.9L1080.9,357.9
		L1080.9,357.9z"/>
	<path class="st4" d="M1110.4,315.2l-10.4-17.1c-1.9-3.2-5.5-5.2-9.5-5.2h-4.3c-1.4,0.3-2.7,0.3-4.1,0h-4.3c-4,0-7.6,2-9.5,5.2
		l-10.4,17.1c-1.7,2.7-1.8,6-0.6,8.8l16.4,39.2c0.2,0.3,0.4,0.7,0.7,1l0,0c1.5,2.7,4.3,4.3,7.6,4.3h4.4c3.2,0,6.1-1.6,7.6-4.3l0,0
		c0.3-0.3,0.6-0.6,0.7-1l16.4-39.2C1112.3,321.1,1112,317.9,1110.4,315.2z"/>
	<path class="st3" d="M1086.4,369h-4.4c-3.3,0-6.4-1.7-8-4.5c-0.4-0.3-0.6-0.6-0.7-1l-16.4-39.2c-1.3-3-1-6.4,0.7-9.3l10.4-17.1
		c2-3.4,5.8-5.5,10-5.5h3.8c0.2,0,0.4,0,0.6,0.1c1.3,0.3,2.6,0.3,3.9,0c0.2,0,0.4-0.1,0.6-0.1h3.8c4.2,0,8,2.1,10,5.5l10.4,17.1
		c1.8,2.9,1.9,6.2,0.7,9.3l-16.4,39.2c-0.2,0.3-0.5,0.8-0.7,1C1092.9,367.3,1089.7,369,1086.4,369z M1077.9,293.4
		c-3.8,0-7.3,1.9-9.2,4.9l-10.4,17.1c-1.6,2.6-1.8,5.7-0.6,8.5l16.4,39.2c0.1,0.3,0.3,0.6,0.6,0.8l0.1,0.2c1.4,2.5,4.2,4.1,7.1,4.1
		h4.4c3,0,5.7-1.6,7.1-4.1l0.1-0.2c0.3-0.2,0.5-0.4,0.6-0.8l16.4-39.2c1.2-2.8,0.9-5.9-0.6-8.5l-10.4-17.1c-1.8-3-5.4-4.9-9.2-4.9
		h-4.2c-1.4,0.3-2.9,0.3-4.3,0H1077.9L1077.9,293.4z"/>
	<rect x="1081.8" y="305" class="st3" width="4.9" height="18.2"/>
	<path class="st3" d="M1087,323.6h-5.9v-19.1h5.9V323.6z M1082.1,322.7h3.9v-17.2h-3.9V322.7z"/>
	<ellipse class="st3" cx="1084.2" cy="356.9" rx="6.8" ry="6.3"/>
	<path class="st3" d="M1084.1,364.4c-4.4,0-8-3.4-8-7.5c0-4.2,3.6-7.5,8-7.5c4.4,0,8,3.4,8,7.5l0,0
		C1092.1,361.1,1088.6,364.4,1084.1,364.4z M1084.1,351.8c-3.1,0-5.5,2.3-5.5,5.1c0,2.9,2.4,5.1,5.5,5.1c3,0,5.5-2.3,5.5-5v-0.1
		C1089.5,354.1,1087.1,351.8,1084.1,351.8z"/>
	<rect x="1072.7" y="286.1" class="st6" width="22.9" height="14.6"/>
	<path class="st3" d="M1096.1,301.2h-23.9v-15.6h23.9V301.2z M1073.2,300.2h22v-13.7h-22V300.2z"/>
	
		<radialGradient id="SVGID_3_" cx="-1528.969" cy="4284.1865" r="3.87" gradientTransform="matrix(2.565727e-02 -0.8661 0.9243 2.404082e-02 -2842.4399 -1134.1664)" gradientUnits="userSpaceOnUse">
		<stop  offset="0" style="stop-color:#FFFFFF"/>
		<stop  offset="1" style="stop-color:#000000"/>
	</radialGradient>
	<path class="st7" d="M1078.3,289.5c2,0.1,3.6,1.6,3.5,3.5s-1.7,3.4-3.7,3.3c-2-0.1-3.6-1.6-3.5-3.5
		C1074.7,291,1076.4,289.5,1078.3,289.5L1078.3,289.5z"/>
	
		<radialGradient id="SVGID_4_" cx="-1528.609" cy="4296.8965" r="3.87" gradientTransform="matrix(2.565727e-02 -0.8661 0.9243 2.404082e-02 -2842.4399 -1134.1664)" gradientUnits="userSpaceOnUse">
		<stop  offset="0" style="stop-color:#FFFFFF"/>
		<stop  offset="1" style="stop-color:#000000"/>
	</radialGradient>
	<path class="st8" d="M1090.1,289.5c2,0.1,3.6,1.6,3.5,3.5s-1.7,3.4-3.7,3.3c-2-0.1-3.6-1.6-3.5-3.5
		C1086.5,291,1088.1,289.5,1090.1,289.5L1090.1,289.5z"/>
	<path class="st3" d="M181.7,28h132.4c12.9,0,25.1,5.3,33.3,14.6l64.5,74c6.1,6.9,9.4,15.6,9.4,24.5v33.6c0,14.6-13,26.4-29.1,26.4
		H147.7V58.9C147.7,41.9,163,28,181.7,28z"/>
	<rect x="161.1" y="146.6" class="st9" width="131.9" height="42.5"/>
	<path class="st9" d="M292.8,138.3V40.1H181.7c-11.4,0-20.6,8.4-20.6,18.7v79.5H292.8z"/>
	<path class="st9" d="M401.5,124.1l-64.5-74c-5.6-6.4-14-10.1-22.8-10.1h-12.2v149h90.2c8.6,0.1,15.7-6.3,15.8-14.4v-33.6
		C407.9,134.9,405.7,129,401.5,124.1z"/>
	<rect x="293.8" y="368.3" class="st10" width="114.5" height="11.5"/>
	<rect x="278.1" y="355.7" class="st11" width="145.9" height="14.6"/>
	<path class="st12" d="M587.7,393.4H109c-27.9,0-50.5,21.1-50.5,47.3c0,26.2,22.6,47.3,50.5,47.3h478.8c27.9,0,50.5-21.1,50.5-47.3
		C638.3,414.6,615.6,393.4,587.7,393.4L587.7,393.4z"/>
	<path d="M171.3,441c0-3.8,2.1-7.3,5.5-9.3c-0.6-3.2-1.5-6.4-2.6-9.4c-6.5-0.2-11.5-5.1-11.4-11.2c0-1.7,0.6-3.5,1.5-5
		c-2.2-2.5-4.6-4.8-7.3-6.8c-5.6,2.9-12.7,1-15.8-4.2c-0.9-1.6-1.5-3.4-1.5-5.2c-3.2-1.1-6.6-2-9.9-2.5c-3.1,5.2-10.2,7-15.7,4.1
		c-1.8-1-3.3-2.3-4.3-4.1c-3.4,0.5-6.7,1.4-9.9,2.5c-0.1,6.1-5.4,10.8-11.7,10.8c-1.9,0-3.8-0.5-5.5-1.4c-2.7,2.1-5.1,4.3-7.3,6.8
		c2,3.4,1.9,7.5-0.1,10.7c-2,3.3-5.7,5.4-9.8,5.5c-1.2,3-2,6.2-2.6,9.4c3.4,2,5.5,5.5,5.5,9.3c0,3.7-2,7.2-5.5,9.2
		c0.6,3.2,1.6,6.4,2.8,9.5c4,0.2,7.6,2.3,9.5,5.5s2.1,7,0.3,10.3c2.3,2.5,4.8,4.9,7.6,7c3.5-1.6,7.6-1.5,11,0.3
		c3.4,1.8,5.5,5.1,5.8,8.8c3.3,1.1,6.8,2,10.4,2.6c2.1-3,5.7-4.9,9.6-4.9c3.9,0,7.5,1.8,9.6,4.9c3.5-0.5,7-1.4,10.4-2.6
		c0.3-3.6,2.5-6.9,5.8-8.8c3.3-1.8,7.5-2,11-0.3c2.8-2.1,5.3-4.5,7.6-7c-1.8-3.3-1.7-7.1,0.3-10.3c2-3.2,5.5-5.3,9.5-5.5
		c1.2-3.1,2.1-6.3,2.8-9.5C173.4,448.1,171.2,444.7,171.3,441z M119.8,487.2c-27.5,0-49.7-20.8-49.7-46.5s22.2-46.5,49.7-46.5
		s49.7,20.8,49.7,46.5C169.5,466.3,147.3,487.2,119.8,487.2C119.8,487.2,119.8,487.2,119.8,487.2z"/>
	
		<radialGradient id="SVGID_5_" cx="82.5" cy="465.5166" r="53.7" gradientTransform="matrix(0.9247 0 0 0.8664 43.5324 37.3573)" gradientUnits="userSpaceOnUse">
		<stop  offset="0" style="stop-color:#231F20"/>
		<stop  offset="0.41" style="stop-color:#252122"/>
		<stop  offset="0.56" style="stop-color:#2B2729"/>
		<stop  offset="0.67" style="stop-color:#353334"/>
		<stop  offset="0.74" style="stop-color:#414042"/>
		<stop  offset="0.77" style="stop-color:#4D4D4F"/>
		<stop  offset="0.8" style="stop-color:#555658"/>
		<stop  offset="0.85" style="stop-color:#58595B"/>
		<stop  offset="0.92" style="stop-color:#414042"/>
	</radialGradient>
	<path class="st13" d="M119.8,394.2c-27.5,0-49.7,20.8-49.7,46.5c0,25.7,22.2,46.5,49.7,46.5s49.7-20.8,49.7-46.5
		C169.5,415,147.3,394.2,119.8,394.2C119.8,394.2,119.8,394.2,119.8,394.2z M119.8,468.9c-16.6,0-30.1-12.6-30.1-28.2
		s13.5-28.2,30.1-28.2s30.1,12.6,30.1,28.2S136.4,468.9,119.8,468.9L119.8,468.9z"/>
	<path class="st14" d="M119.8,412.4c-16.6,0-30.1,12.6-30.1,28.2c0,15.5,13.4,28.2,30.1,28.2s30.1-12.6,30.1-28.2
		C149.9,425.1,136.4,412.4,119.8,412.4L119.8,412.4z"/>
	<path class="st15" d="M162.4,440.7c0,22.1-19,39.9-42.6,39.9s-42.6-17.8-42.6-39.9s19-39.9,42.6-39.9l0,0
		C143.3,400.8,162.4,418.7,162.4,440.7z"/>
	<path class="st16" d="M162.4,440.7c0,22.1-19,39.9-42.6,39.9s-42.6-17.8-42.6-39.9s19-39.9,42.6-39.9l0,0
		C143.3,400.8,162.4,418.7,162.4,440.7z"/>
	<path class="st15" d="M140.7,441c0,10.8-9.3,19.6-20.9,19.6s-20.9-8.8-20.9-19.6s9.3-19.6,20.9-19.6l0,0
		C131.3,421.5,140.6,430.2,140.7,441L140.7,441z"/>
	<path class="st15" d="M128,431.2l9.4-11.2c3.3,2.5,6,5.6,8,9.3l-13.7,6.2C130.9,433.8,129.6,432.4,128,431.2z"/>
	<path class="st15" d="M137.6,461.8c-3.3,2.5-7.2,4.2-11.4,5.2l-3.3-13.9c1.9-0.4,3.8-1.2,5.3-2.4L137.6,461.8z"/>
	<path class="st15" d="M107.8,435.6l-13.7-6.2c1.8-3.6,4.5-6.8,7.9-9.3l9.5,11.1C109.9,432.5,108.6,433.9,107.8,435.6z"/>
	<path class="st15" d="M133.1,441L133.1,441l15.2-0.1v0.1c0,4-0.9,8-2.8,11.6l-13.7-6.2C132.6,444.8,133,442.9,133.1,441z"/>
	<path class="st15" d="M106.5,441c0,1.8,0.5,3.7,1.3,5.4l-13.6,6.2c-1.8-3.6-2.9-7.5-2.9-11.5L106.5,441L106.5,441z"/>
	<path class="st15" d="M113.4,415c4.2-0.9,8.5-0.9,12.7,0l-3.3,13.9c-1.9-0.4-4-0.4-5.9,0L113.4,415z"/>
	<path class="st15" d="M116.9,453.2l-3.3,13.9c-4.2-0.9-8.1-2.6-11.5-5.1l9.4-11.1C113.1,452,114.9,452.7,116.9,453.2z"/>
	
		<linearGradient id="SVGID_6_" gradientUnits="userSpaceOnUse" x1="823.7072" y1="-2507.637" x2="823.7072" y2="-2524.9932" gradientTransform="matrix(6.123234e-17 1 -1 6.123234e-17 -2391.97 -686.09)">
		<stop  offset="0" style="stop-color:#FFFFFF"/>
		<stop  offset="1" style="stop-color:#000000"/>
	</linearGradient>
	<path class="st17" d="M120.8,159.7v-44.2c0-0.8,0.7-1.5,1.6-1.5h10.4c0.8,0,1.6,0.7,1.6,1.5v44.2c0,0.8-0.7,1.5-1.6,1.5h-10.4
		C121.6,161.2,120.8,160.6,120.8,159.7C120.7,159.8,120.7,159.8,120.8,159.7z"/>
	<path class="st1" d="M118.3,213.9v-60c0-1,0.9-2,2-2h0.1h14.1c1.1,0,2.1,0.9,2.1,1.9v0.1v60c0,1-0.9,2-2,2h-0.1h-14.1
		C119.4,215.9,118.4,215,118.3,213.9z"/>
	<path class="st1" d="M115.2,156.9L115.2,156.9c0-1.7,1.5-3.1,3.3-3.1l0,0h18.3c1.8,0,3.3,1.4,3.3,3.1l0,0l0,0
		c0,1.7-1.5,3.1-3.3,3.1l0,0h-18.3C116.7,160.1,115.2,158.7,115.2,156.9z"/>
	<path class="st4" d="M226.9,361.8H105.9c-9.4,0-17.1-7.2-17.1-16V214.4c0-15.1,13-27.3,29.1-27.3h108.9V361.8z"/>
	<path class="st4" d="M461.4,255.3v-35.8c0-6.3,5.5-11.4,12.2-11.4l0,0l0,0c6.8,0,12.2,5.1,12.2,11.4l0,0v35.8
		c0,6.3-5.5,11.4-12.2,11.4l0,0l0,0C466.9,266.7,461.4,261.6,461.4,255.3L461.4,255.3z"/>
	<path d="M198.2,478c0-1,0.6-1.8,1.4-2.3c-0.2-0.8-0.4-1.6-0.6-2.3c-1,0-1.8-0.5-2.4-1.3c-0.6-0.8-0.6-1.8,0-2.6
		c-0.6-0.6-1.1-1.1-1.8-1.6c-0.8,0.4-1.9,0.4-2.8,0c-0.9-0.5-1.4-1.4-1.4-2.3c-0.7-0.3-1.6-0.4-2.4-0.6c-0.6,0.9-1.5,1.3-2.5,1.3
		c-1,0-1.9-0.5-2.5-1.3c-0.8,0.2-1.7,0.3-2.4,0.6c0,1-0.6,1.8-1.4,2.3c-0.8,0.5-1.9,0.5-2.8,0c-0.6,0.5-1.2,1-1.8,1.6
		c0.5,0.8,0.5,1.8,0,2.6c-0.5,0.8-1.4,1.3-2.4,1.3c-0.3,0.8-0.5,1.6-0.6,2.3c0.8,0.4,1.4,1.3,1.4,2.3c0,0.9-0.5,1.7-1.3,2.3
		c0.2,0.8,0.4,1.6,0.6,2.3c0.9,0,1.8,0.5,2.3,1.3s0.5,1.7,0.1,2.5c0.6,0.6,1.2,1.2,1.8,1.7c0.8-0.4,1.8-0.3,2.7,0.1
		c0.8,0.4,1.4,1.3,1.4,2.2c0.8,0.3,1.7,0.5,2.5,0.6c0.6-0.8,1.5-1.2,2.4-1.2c1,0,1.8,0.4,2.4,1.2c0.8-0.2,1.7-0.3,2.5-0.6
		c0.1-0.9,0.6-1.6,1.4-2.2c0.8-0.4,1.8-0.4,2.7-0.1c0.6-0.5,1.3-1.1,1.8-1.7c-0.5-0.8-0.5-1.7,0.1-2.5c0.5-0.8,1.4-1.3,2.3-1.3
		c0.3-0.8,0.6-1.6,0.6-2.3C198.8,479.9,198.2,479,198.2,478z M185.6,489.3c-6.7,0-12.1-5.1-12.1-11.4c0-6.2,5.5-11.4,12.1-11.4
		s12.1,5.1,12.1,11.4l0,0C197.7,484.2,192.2,489.3,185.6,489.3L185.6,489.3z"/>
	<path class="st18" d="M185.6,471c-4.1,0-7.4,3.1-7.4,6.9s3.3,6.9,7.4,6.9c4.1,0,7.4-3.1,7.4-6.9S189.6,471,185.6,471z"/>
	<path class="st15" d="M196,477.9c0,5.4-4.7,9.8-10.4,9.8c-5.7,0-10.4-4.4-10.4-9.8s4.7-9.8,10.4-9.8l0,0
		C191.3,468.2,195.9,472.6,196,477.9z"/>
	<path d="M245.9,478c0-1,0.6-1.8,1.4-2.3c-0.2-0.8-0.4-1.6-0.6-2.3c-1,0-1.8-0.5-2.4-1.3c-0.6-0.8-0.6-1.8,0-2.6
		c-0.6-0.6-1.1-1.1-1.8-1.6c-0.8,0.4-1.9,0.4-2.8,0c-0.9-0.5-1.4-1.4-1.4-2.3c-0.7-0.3-1.6-0.4-2.4-0.6c-0.6,0.9-1.5,1.3-2.5,1.3
		c-1,0-1.9-0.5-2.5-1.3c-0.8,0.2-1.7,0.3-2.4,0.6c0,1-0.6,1.8-1.4,2.3c-0.8,0.5-1.9,0.5-2.8,0c-0.6,0.5-1.2,1-1.8,1.6
		c0.5,0.8,0.5,1.8,0,2.6c-0.5,0.8-1.4,1.3-2.4,1.3c-0.3,0.8-0.5,1.6-0.6,2.3c0.8,0.4,1.4,1.3,1.4,2.3c0,0.9-0.5,1.7-1.3,2.3
		c0.2,0.8,0.4,1.6,0.6,2.3c0.9,0,1.8,0.5,2.3,1.3s0.5,1.7,0.1,2.5c0.6,0.6,1.2,1.2,1.8,1.7c0.8-0.4,1.8-0.3,2.7,0.1
		c0.8,0.4,1.4,1.3,1.4,2.2c0.8,0.3,1.7,0.5,2.5,0.6c0.6-0.8,1.5-1.2,2.4-1.2s1.8,0.4,2.4,1.2c0.8-0.2,1.7-0.3,2.5-0.6
		c0.1-0.9,0.6-1.6,1.4-2.2c0.8-0.4,1.8-0.4,2.7-0.1c0.6-0.5,1.3-1.1,1.8-1.7c-0.5-0.8-0.5-1.7,0.1-2.5c0.5-0.8,1.4-1.3,2.3-1.3
		c0.3-0.8,0.6-1.6,0.6-2.3C246.3,479.9,245.8,479,245.9,478z M233.2,489.3c-6.7,0-12.1-5.1-12.1-11.4c0-6.2,5.5-11.4,12.1-11.4
		c6.7,0,12.1,5.1,12.1,11.4l0,0C245.3,484.2,239.8,489.3,233.2,489.3L233.2,489.3z"/>
	<path class="st18" d="M233.2,471c-4.1,0-7.4,3.1-7.4,6.9s3.3,6.9,7.4,6.9c4.1,0,7.4-3.1,7.4-6.9S237.3,471,233.2,471z"/>
	<path class="st15" d="M243.6,477.9c0,5.4-4.7,9.8-10.4,9.8s-10.4-4.4-10.4-9.8s4.7-9.8,10.4-9.8l0,0
		C238.9,468.2,243.5,472.6,243.6,477.9z"/>
	<path d="M293.3,478c0-1,0.6-1.8,1.4-2.3c-0.2-0.8-0.4-1.6-0.6-2.3c-1,0-1.8-0.5-2.4-1.3c-0.6-0.8-0.6-1.8,0-2.6
		c-0.6-0.6-1.1-1.1-1.8-1.6c-0.8,0.4-1.9,0.4-2.8,0c-0.9-0.5-1.4-1.4-1.4-2.3c-0.7-0.3-1.6-0.4-2.4-0.6c-0.6,0.9-1.5,1.3-2.5,1.3
		s-1.9-0.5-2.5-1.3c-0.8,0.2-1.7,0.3-2.4,0.6c0,1-0.6,1.8-1.4,2.3c-0.8,0.5-1.9,0.5-2.8,0c-0.6,0.5-1.2,1-1.8,1.6
		c0.5,0.8,0.5,1.8,0,2.6c-0.5,0.8-1.4,1.3-2.4,1.3c-0.3,0.8-0.5,1.6-0.6,2.3c0.8,0.4,1.4,1.3,1.4,2.3c0,0.9-0.5,1.7-1.3,2.3
		c0.2,0.8,0.4,1.6,0.6,2.3c0.9,0,1.8,0.5,2.3,1.3s0.5,1.7,0.1,2.5c0.6,0.6,1.2,1.2,1.8,1.7c0.8-0.4,1.8-0.3,2.7,0.1
		c0.8,0.4,1.4,1.3,1.4,2.2c0.8,0.3,1.7,0.5,2.5,0.6c0.6-0.8,1.5-1.2,2.4-1.2c1,0,1.8,0.4,2.4,1.2c0.8-0.2,1.7-0.3,2.5-0.6
		c0.1-0.9,0.6-1.6,1.4-2.2c0.8-0.4,1.8-0.4,2.7-0.1c0.6-0.5,1.3-1.1,1.8-1.7c-0.5-0.8-0.5-1.7,0.1-2.5c0.5-0.8,1.4-1.3,2.3-1.3
		c0.3-0.8,0.6-1.6,0.6-2.3C293.9,479.9,293.4,479,293.3,478z M280.7,489.3c-6.7,0-12.1-5.1-12.1-11.4c0-6.2,5.5-11.4,12.1-11.4
		c6.7,0,12.1,5.1,12.1,11.4l0,0C292.9,484.2,287.5,489.3,280.7,489.3C280.8,489.3,280.8,489.3,280.7,489.3z"/>
	<path class="st18" d="M280.7,471c-4.1,0-7.4,3.1-7.4,6.9s3.3,6.9,7.4,6.9c4.1,0,7.4-3.1,7.4-6.9S284.9,471,280.7,471z"/>
	<path class="st15" d="M291.3,477.9c0,5.4-4.7,9.8-10.4,9.8c-5.7,0-10.4-4.4-10.4-9.8s4.7-9.8,10.4-9.8l0,0
		C286.5,468.2,291.2,472.6,291.3,477.9z"/>
	<path d="M340.9,478c0-1,0.6-1.8,1.4-2.3c-0.2-0.8-0.4-1.6-0.6-2.3c-1,0-1.8-0.5-2.4-1.3c-0.6-0.8-0.6-1.8,0-2.6
		c-0.6-0.6-1.1-1.1-1.8-1.6c-0.8,0.4-1.9,0.4-2.8,0c-0.9-0.5-1.4-1.4-1.4-2.3c-0.7-0.3-1.6-0.4-2.4-0.6c-0.6,0.9-1.5,1.3-2.5,1.3
		c-1,0-1.9-0.5-2.5-1.3c-0.8,0.2-1.7,0.3-2.4,0.6c0,1-0.6,1.8-1.4,2.3c-0.8,0.5-1.9,0.5-2.8,0c-0.6,0.5-1.2,1-1.8,1.6
		c0.5,0.8,0.5,1.8,0,2.6c-0.5,0.8-1.4,1.3-2.4,1.3c-0.3,0.8-0.5,1.6-0.6,2.3c0.8,0.4,1.4,1.3,1.4,2.3c0,0.9-0.5,1.7-1.3,2.3
		c0.2,0.8,0.4,1.6,0.6,2.3c0.9,0,1.8,0.5,2.3,1.3s0.5,1.7,0.1,2.5c0.6,0.6,1.2,1.2,1.8,1.7c0.8-0.4,1.8-0.3,2.7,0.1
		c0.8,0.4,1.4,1.3,1.4,2.2c0.8,0.3,1.7,0.5,2.5,0.6c0.6-0.8,1.5-1.2,2.4-1.2c1,0,1.8,0.4,2.4,1.2c0.8-0.2,1.7-0.3,2.5-0.6
		c0.1-0.9,0.6-1.6,1.4-2.2c0.8-0.4,1.8-0.4,2.7-0.1c0.6-0.5,1.3-1.1,1.8-1.7c-0.5-0.8-0.5-1.7,0.1-2.5c0.5-0.8,1.4-1.3,2.3-1.3
		c0.3-0.8,0.6-1.6,0.6-2.3C341.6,479.9,341,479,340.9,478z M328.3,489.3c-6.7,0-12.1-5.1-12.1-11.4c0-6.2,5.5-11.4,12.1-11.4
		c6.7,0,12.1,5.1,12.1,11.4l0,0C340.5,484.2,335.1,489.3,328.3,489.3C328.4,489.3,328.4,489.3,328.3,489.3z"/>
	<path class="st18" d="M328.3,471c-4.1,0-7.4,3.1-7.4,6.9s3.3,6.9,7.4,6.9s7.4-3.1,7.4-6.9S332.5,471,328.3,471z"/>
	<path class="st15" d="M338.9,477.9c0,5.4-4.7,9.8-10.4,9.8s-10.4-4.4-10.4-9.8s4.7-9.8,10.4-9.8l0,0
		C334.2,468.2,338.8,472.6,338.9,477.9z"/>
	<path d="M388.5,478c0-1,0.6-1.8,1.4-2.3c-0.2-0.8-0.4-1.6-0.6-2.3c-1,0-1.8-0.5-2.4-1.3c-0.6-0.8-0.6-1.8,0-2.6
		c-0.6-0.6-1.1-1.1-1.8-1.6c-0.8,0.4-1.9,0.4-2.8,0c-0.9-0.5-1.4-1.4-1.4-2.3c-0.7-0.3-1.6-0.4-2.4-0.6c-0.6,0.9-1.5,1.3-2.5,1.3
		s-1.9-0.5-2.5-1.3c-0.8,0.2-1.7,0.3-2.4,0.6c0,1-0.6,1.8-1.4,2.3c-0.8,0.5-1.9,0.5-2.8,0c-0.6,0.5-1.2,1-1.8,1.6
		c0.5,0.8,0.5,1.8,0,2.6c-0.5,0.8-1.4,1.3-2.4,1.3c-0.3,0.8-0.5,1.6-0.6,2.3c0.8,0.4,1.4,1.3,1.4,2.3c0,0.9-0.5,1.7-1.3,2.3
		c0.2,0.8,0.4,1.6,0.6,2.3c0.9,0,1.8,0.5,2.3,1.3s0.5,1.7,0.1,2.5c0.6,0.6,1.2,1.2,1.8,1.7c0.8-0.4,1.8-0.3,2.7,0.1
		c0.8,0.4,1.4,1.3,1.4,2.2c0.8,0.3,1.7,0.5,2.5,0.6c0.6-0.8,1.5-1.2,2.4-1.2c1,0,1.8,0.4,2.4,1.2c0.8-0.2,1.7-0.3,2.5-0.6
		c0.1-0.9,0.6-1.6,1.4-2.2c0.8-0.4,1.8-0.4,2.7-0.1c0.6-0.5,1.3-1.1,1.8-1.7c-0.5-0.8-0.5-1.7,0.1-2.5c0.5-0.8,1.4-1.3,2.3-1.3
		c0.3-0.8,0.6-1.6,0.6-2.3C389.2,479.9,388.6,479,388.5,478z M376,489.3c-6.7,0-12.1-5.1-12.1-11.4c0-6.2,5.5-11.4,12.1-11.4
		s12.1,5.1,12.1,11.4l0,0C388.2,484.2,382.7,489.3,376,489.3C376,489.3,376,489.3,376,489.3z"/>
	<path class="st18" d="M376,471c-4.1,0-7.4,3.1-7.4,6.9s3.3,6.9,7.4,6.9s7.4-3.1,7.4-6.9S380.1,471,376,471z"/>
	<path class="st15" d="M386.4,477.9c0,5.4-4.7,9.8-10.4,9.8c-5.7,0-10.4-4.4-10.4-9.8s4.7-9.8,10.4-9.8l0,0
		C381.7,468.2,386.3,472.6,386.4,477.9z"/>
	<path d="M436.2,478c0-1,0.6-1.8,1.4-2.3c-0.2-0.8-0.4-1.6-0.6-2.3c-1,0-1.8-0.5-2.4-1.3c-0.6-0.8-0.6-1.8,0-2.6
		c-0.6-0.6-1.1-1.1-1.8-1.6c-0.8,0.4-1.9,0.4-2.8,0c-0.9-0.5-1.4-1.4-1.4-2.3c-0.7-0.3-1.6-0.4-2.4-0.6c-0.6,0.9-1.5,1.3-2.5,1.3
		s-1.9-0.5-2.5-1.3c-0.8,0.2-1.7,0.3-2.4,0.6c0,1-0.6,1.8-1.4,2.3c-0.8,0.5-1.9,0.5-2.8,0c-0.6,0.5-1.2,1-1.8,1.6
		c0.5,0.8,0.5,1.8,0,2.6c-0.5,0.8-1.4,1.3-2.4,1.3c-0.3,0.8-0.5,1.6-0.6,2.3c0.8,0.4,1.4,1.3,1.4,2.3c0,0.9-0.5,1.7-1.3,2.3
		c0.2,0.8,0.4,1.6,0.6,2.3c0.9,0,1.8,0.5,2.3,1.3s0.5,1.7,0.1,2.5c0.6,0.6,1.2,1.2,1.8,1.7c0.8-0.4,1.8-0.3,2.7,0.1
		c0.8,0.4,1.4,1.3,1.4,2.2c0.8,0.3,1.7,0.5,2.5,0.6c0.6-0.8,1.5-1.2,2.4-1.2c1,0,1.8,0.4,2.4,1.2c0.8-0.2,1.7-0.3,2.5-0.6
		c0.1-0.9,0.6-1.6,1.4-2.2c0.8-0.4,1.8-0.4,2.7-0.1c0.6-0.5,1.3-1.1,1.8-1.7c-0.5-0.8-0.5-1.7,0.1-2.5c0.5-0.8,1.4-1.3,2.3-1.3
		c0.3-0.8,0.6-1.6,0.6-2.3C436.8,479.9,436.2,479,436.2,478z M423.5,489.3c-6.7,0-12.1-5.1-12.1-11.4c0-6.2,5.5-11.4,12.1-11.4
		c6.7,0,12.1,5.1,12.1,11.4l0,0C435.7,484.2,430.2,489.3,423.5,489.3C423.6,489.3,423.6,489.3,423.5,489.3z"/>
	<path class="st18" d="M423.5,471c-4.1,0-7.4,3.1-7.4,6.9s3.3,6.9,7.4,6.9c4.1,0,7.4-3.1,7.4-6.9S427.6,471,423.5,471z"/>
	<path class="st15" d="M434,477.9c0,5.4-4.7,9.8-10.4,9.8c-5.7,0-10.4-4.4-10.4-9.8s4.7-9.8,10.4-9.8l0,0
		C429.3,468.2,433.9,472.6,434,477.9z"/>
	<path d="M483.8,478c0-1,0.6-1.8,1.4-2.3c-0.2-0.8-0.4-1.6-0.6-2.3c-1,0-1.8-0.5-2.4-1.3c-0.6-0.8-0.6-1.8,0-2.6
		c-0.6-0.6-1.1-1.1-1.8-1.6c-0.8,0.4-1.9,0.4-2.8,0c-0.9-0.5-1.4-1.4-1.4-2.3c-0.7-0.3-1.6-0.4-2.4-0.6c-0.6,0.9-1.5,1.3-2.5,1.3
		s-1.9-0.5-2.5-1.3c-0.8,0.2-1.7,0.3-2.4,0.6c0,1-0.6,1.8-1.4,2.3c-0.8,0.5-1.9,0.5-2.8,0c-0.6,0.5-1.2,1-1.8,1.6
		c0.5,0.8,0.5,1.8,0,2.6c-0.5,0.8-1.4,1.3-2.4,1.3c-0.3,0.8-0.5,1.6-0.6,2.3c0.8,0.4,1.4,1.3,1.4,2.3c0,0.9-0.5,1.7-1.3,2.3
		c0.2,0.8,0.4,1.6,0.6,2.3c0.9,0,1.8,0.5,2.3,1.3s0.5,1.7,0.1,2.5c0.6,0.6,1.2,1.2,1.8,1.7c0.8-0.4,1.8-0.3,2.7,0.1
		c0.8,0.4,1.4,1.3,1.4,2.2c0.8,0.3,1.7,0.5,2.5,0.6c0.6-0.8,1.5-1.2,2.4-1.2c1,0,1.8,0.4,2.4,1.2c0.8-0.2,1.7-0.3,2.5-0.6
		c0.1-0.9,0.6-1.6,1.4-2.2c0.8-0.4,1.8-0.4,2.7-0.1c0.6-0.5,1.3-1.1,1.8-1.7c-0.5-0.8-0.5-1.7,0.1-2.5c0.5-0.8,1.4-1.3,2.3-1.3
		c0.3-0.8,0.6-1.6,0.6-2.3C484.4,479.9,483.8,479,483.8,478z M471.1,489.3c-6.7,0-12.1-5.1-12.1-11.4c0-6.2,5.5-11.4,12.1-11.4
		c6.7,0,12.1,5.1,12.1,11.4l0,0C483.3,484.2,477.9,489.3,471.1,489.3C471.2,489.3,471.2,489.3,471.1,489.3L471.1,489.3z"/>
	<path class="st18" d="M471.2,471c-4.1,0-7.4,3.1-7.4,6.9s3.3,6.9,7.4,6.9c4.1,0,7.4-3.1,7.4-6.9S475.3,471,471.2,471z"/>
	<path class="st15" d="M481.6,477.9c0,5.4-4.7,9.8-10.4,9.8c-5.7,0-10.4-4.4-10.4-9.8s4.7-9.8,10.4-9.8l0,0
		C476.9,468.2,481.6,472.6,481.6,477.9z"/>
	<path d="M531.3,478c0-1,0.6-1.8,1.4-2.3c-0.2-0.8-0.4-1.6-0.6-2.3c-1,0-1.8-0.5-2.4-1.3c-0.6-0.8-0.6-1.8,0-2.6
		c-0.6-0.6-1.1-1.1-1.8-1.6c-0.8,0.4-1.9,0.4-2.8,0c-0.9-0.5-1.4-1.4-1.4-2.3c-0.7-0.3-1.6-0.4-2.4-0.6c-0.6,0.9-1.5,1.3-2.5,1.3
		c-1,0-1.9-0.5-2.5-1.3c-0.8,0.2-1.7,0.3-2.4,0.6c0,1-0.6,1.8-1.4,2.3c-0.8,0.5-1.9,0.5-2.8,0c-0.6,0.5-1.2,1-1.8,1.6
		c0.5,0.8,0.5,1.8,0,2.6c-0.5,0.8-1.4,1.3-2.4,1.3c-0.3,0.8-0.5,1.6-0.6,2.3c0.8,0.4,1.4,1.3,1.4,2.3c0,0.9-0.5,1.7-1.3,2.3
		c0.2,0.8,0.4,1.6,0.6,2.3c0.9,0,1.8,0.5,2.3,1.3s0.5,1.7,0.1,2.5c0.6,0.6,1.2,1.2,1.8,1.7c0.8-0.4,1.8-0.3,2.7,0.1
		c0.8,0.4,1.4,1.3,1.4,2.2c0.8,0.3,1.7,0.5,2.5,0.6c0.6-0.8,1.5-1.2,2.4-1.2c1,0,1.8,0.4,2.4,1.2c0.8-0.2,1.7-0.3,2.5-0.6
		c0.1-0.9,0.6-1.6,1.4-2.2c0.8-0.4,1.8-0.4,2.7-0.1c0.6-0.5,1.3-1.1,1.8-1.7c-0.5-0.8-0.5-1.7,0.1-2.5c0.5-0.8,1.4-1.3,2.3-1.3
		c0.3-0.8,0.6-1.6,0.6-2.3C531.9,479.9,531.4,479,531.3,478z M518.7,489.3c-6.7,0-12.1-5.1-12.1-11.4s5.5-11.4,12.1-11.4
		c6.7,0,12.1,5.1,12.1,11.4l0,0C530.9,484.2,525.5,489.3,518.7,489.3C518.8,489.3,518.8,489.3,518.7,489.3z"/>
	<path class="st18" d="M518.7,471c-4.1,0-7.4,3.1-7.4,6.9s3.3,6.9,7.4,6.9s7.4-3.1,7.4-6.9S522.9,471,518.7,471z"/>
	<path class="st15" d="M529.3,477.9c0,5.4-4.7,9.8-10.4,9.8s-10.4-4.4-10.4-9.8s4.7-9.8,10.4-9.8l0,0
		C524.6,468.2,529.2,472.6,529.3,477.9z"/>
	
		<radialGradient id="SVGID_7_" cx="2694.0898" cy="466.4167" r="53.7" gradientTransform="matrix(0.9247 0 0 0.8664 43.5324 37.3573)" gradientUnits="userSpaceOnUse">
		<stop  offset="0" style="stop-color:#231F20"/>
		<stop  offset="0.41" style="stop-color:#252122"/>
		<stop  offset="0.56" style="stop-color:#2B2729"/>
		<stop  offset="0.67" style="stop-color:#353334"/>
		<stop  offset="0.74" style="stop-color:#414042"/>
		<stop  offset="0.77" style="stop-color:#4D4D4F"/>
		<stop  offset="0.8" style="stop-color:#555658"/>
		<stop  offset="0.85" style="stop-color:#58595B"/>
		<stop  offset="0.92" style="stop-color:#414042"/>
	</radialGradient>
	<path class="st19" d="M586.8,394.9c-27.5,0-49.7,20.8-49.7,46.5c0,25.7,22.2,46.5,49.7,46.5s49.7-20.8,49.7-46.5
		C636.4,415.8,614.2,394.9,586.8,394.9C586.9,394.9,586.9,394.9,586.8,394.9z M586.8,469.6c-16.6,0-30.1-12.6-30.1-28.2
		c0-15.5,13.5-28.2,30.1-28.2s30.1,12.6,30.1,28.2l0,0C616.8,457.1,603.4,469.6,586.8,469.6z"/>
	<path class="st16" d="M629.5,441.5c0,22.1-19,39.9-42.6,39.9c-23.6,0-42.6-17.8-42.6-39.9c0-22.1,19-39.9,42.6-39.9l0,0
		C610.4,401.5,629.4,419.5,629.5,441.5z"/>
	<path class="st20" d="M610.1,500H86.7c-22.7,0-41.1-17.2-41.1-38.5v-41.8c0-21.2,18.4-38.5,41.1-38.5h523.4
		c22.7,0,41.1,17.2,41.1,38.5v41.8C651.1,482.8,632.7,500,610.1,500z"/>
	<rect x="171.3" y="411.6" class="st21" width="365.9" height="57.9"/>
	<polygon class="st21" points="504.5,396.6 379.6,396.6 329,396.6 204.1,396.6 171.3,411.6 329,411.6 379.6,411.6 537.2,411.6 	"/>
	<polygon class="st11" points="296.2,425.3 282.4,425.3 276,431.6 269,431.6 240.1,431.6 237.6,431.6 208.8,431.6 201.7,431.6 
		195.4,425.3 181.4,425.3 181.4,438.8 208.8,438.8 237.6,438.8 240.1,438.8 269,438.8 296.2,438.8 	"/>
	<polygon class="st11" points="522.4,425.3 508.5,425.3 502.1,431.6 495.1,431.6 466.2,431.6 463.7,431.6 434.9,431.6 427.8,431.6 
		421.5,425.3 407.6,425.3 407.6,438.8 434.9,438.8 463.7,438.8 466.2,438.8 495.1,438.8 522.4,438.8 	"/>
	<path class="st11" d="M295.8,438.4h112c4.7-4.4,12.4-4.5,17.1-0.1c4.7,4.4,4.8,11.6,0.1,16c-2.3,2.2-5.4,3.4-8.6,3.4
		c-3.1,0-6.2-1.1-8.4-3.2H295.8c-4.7,0-8.6-3.6-8.6-8.1l0,0C287.2,442,291,438.4,295.8,438.4z"/>
	<path class="st22" d="M428.8,446.3c0,6.2-5.5,11.4-12.1,11.4c-6.7,0-12.1-5.1-12.1-11.4S410,435,416.6,435l0,0
		C423.4,435,428.8,440.1,428.8,446.3z"/>
	<path d="M428.8,446.3c0,6.2-5.5,11.4-12.1,11.4c-6.7,0-12.1-5.1-12.1-11.4S410,435,416.6,435l0,0
		C423.4,435,428.8,440.1,428.8,446.3z"/>
	
		<radialGradient id="SVGID_8_" cx="413.48" cy="1430.3267" r="11.2602" gradientTransform="matrix(-0.9247 0 0 0.8664 799.0443 -792.9475)" gradientUnits="userSpaceOnUse">
		<stop  offset="0" style="stop-color:#231F20"/>
		<stop  offset="0.41" style="stop-color:#252122"/>
		<stop  offset="0.56" style="stop-color:#2B2729"/>
		<stop  offset="0.67" style="stop-color:#353334"/>
		<stop  offset="0.74" style="stop-color:#414042"/>
		<stop  offset="0.77" style="stop-color:#4D4D4F"/>
		<stop  offset="0.8" style="stop-color:#555658"/>
		<stop  offset="0.85" style="stop-color:#58595B"/>
		<stop  offset="0.92" style="stop-color:#414042"/>
	</radialGradient>
	<path class="st23" d="M427.2,446.3c0,5.4-4.6,9.7-10.4,9.7c-5.7,0-10.4-4.3-10.4-9.7s4.6-9.7,10.4-9.7
		C422.5,436.6,427.1,441,427.2,446.3L427.2,446.3z"/>
	<path class="st15" d="M425.7,446.3c0,4.6-4,8.4-8.9,8.4c-4.9,0-9-3.7-9-8.3c0-4.6,4-8.4,8.9-8.4C421.6,438,425.6,441.6,425.7,446.3
		C425.6,446.3,425.6,446.3,425.7,446.3z"/>
	<path class="st16" d="M425.7,446.3c0,4.6-4,8.4-8.9,8.4c-4.9,0-9-3.7-9-8.3c0-4.6,4-8.4,8.9-8.4C421.6,438,425.6,441.6,425.7,446.3
		C425.6,446.3,425.6,446.3,425.7,446.3z"/>
	<path class="st24" d="M423,446.3c0,3.3-2.8,5.9-6.3,5.9s-6.3-2.6-6.3-5.9c0-3.3,2.8-5.9,6.3-5.9l0,0C420.2,440.4,423,443,423,446.3
		C423,446.2,423,446.3,423,446.3z"/>
	<path class="st15" d="M421.2,446.4c0,2.3-1.9,4.1-4.3,4.1s-4.3-1.8-4.3-4.1s1.9-4.1,4.3-4.1C419.1,442.3,421.1,444.2,421.2,446.4
		L421.2,446.4z"/>
	<path class="st15" d="M418.5,444.3l1.9-2.3c0.7,0.5,1.3,1.1,1.7,1.9l-2.9,1.3C419,444.9,418.8,444.6,418.5,444.3z"/>
	<path class="st15" d="M420.3,450.7c-0.7,0.5-1.6,0.9-2.4,1l-0.7-2.9c0.4-0.1,0.8-0.3,1.1-0.5L420.3,450.7z"/>
	<path class="st15" d="M414.2,445.3l-2.9-1.3c0.4-0.8,0.9-1.4,1.7-1.9l1.9,2.3C414.6,444.7,414.3,444.9,414.2,445.3z"/>
	<path class="st15" d="M419.4,446.4h3.1c0,0.9-0.2,1.6-0.6,2.4l-2.9-1.3C419.3,447.2,419.4,446.8,419.4,446.4z"/>
	<path class="st15" d="M413.9,446.4c0,0.4,0.1,0.8,0.3,1.1l-2.9,1.3c-0.4-0.8-0.6-1.6-0.6-2.4H413.9z"/>
	<path class="st15" d="M415.3,441c0.9-0.2,1.8-0.2,2.7,0l-0.7,2.9c-0.4-0.1-0.8-0.1-1.2,0L415.3,441z"/>
	<path class="st15" d="M416.1,448.9l-0.7,2.9c-0.8-0.2-1.7-0.5-2.4-1l1.9-2.3C415.3,448.7,415.7,448.8,416.1,448.9z"/>
	<path class="st3" d="M203.6,221h-57.1c-17.8,0.1-32.3,13.8-32.2,30.5l0,0v50c-0.1,16.7,14.3,30.4,32.2,30.5l0,0h57.1V221z"/>
	<path class="st21" d="M587.7,381.3H109c-35,0-63.3,26.6-63.3,59.4S74,500,109,500h478.8c35,0,63.3-26.6,63.3-59.4
		S622.8,381.3,587.7,381.3z M587.7,488H109c-27.9,0-50.5-21.1-50.5-47.3c0-26.2,22.6-47.3,50.5-47.3h478.8
		c27.9,0,50.5,21.1,50.5,47.3C638.3,466.9,615.6,488,587.7,488L587.7,488z"/>
	<path class="st3" d="M457.3,252.9c-1.4,0-2.6-1.1-2.6-2.4v-39c0-4.4-2.8-8.5-7.1-10.3l-58.9-24.6c-6.2-2.6-10.2-8.4-10.2-14.7
		v-41.1c0-6.2-5.4-11.3-12-11.3l0,0h-37.8c-3.4,0-6.7,1.4-9,3.7l-66.3,67.1c-0.9,1-2.6,1-3.6,0.2c-1-0.9-1.1-2.4-0.2-3.4l0,0
		l66.3-67.2c3.2-3.4,7.9-5.3,12.8-5.3h37.8c9.5,0,17.2,7.2,17.2,16v0.1v41.1c0,4.4,2.8,8.5,7.1,10.3l58.9,24.6
		c6.2,2.6,10.2,8.4,10.2,14.7v39c0.1,1.3-1,2.4-2.4,2.4C457.4,252.9,457.3,252.9,457.3,252.9z"/>
	
		<radialGradient id="SVGID_9_" cx="459.8164" cy="-3263.3079" r="3.77" gradientTransform="matrix(-0.712 0.5458 -0.5825 -0.6671 -1368.5779 -2220.0378)" gradientUnits="userSpaceOnUse">
		<stop  offset="0" style="stop-color:#FFFFFF"/>
		<stop  offset="1" style="stop-color:#000000"/>
	</radialGradient>
	<path class="st25" d="M213.1,217.8c-1.2-1.4-1-3.5,0.5-4.6c1.5-1.1,3.7-1,4.9,0.4c1.2,1.4,1,3.5-0.5,4.6
		C216.5,219.4,214.4,219.2,213.1,217.8z"/>
	
		<radialGradient id="SVGID_10_" cx="491.7364" cy="-3302.198" r="3.77" gradientTransform="matrix(-0.712 0.5458 -0.5825 -0.6671 -1368.5779 -2220.0378)" gradientUnits="userSpaceOnUse">
		<stop  offset="0" style="stop-color:#FFFFFF"/>
		<stop  offset="1" style="stop-color:#000000"/>
	</radialGradient>
	<path class="st26" d="M213.1,261.4c-1.2-1.4-1-3.5,0.5-4.6c1.5-1.1,3.7-1,4.9,0.4c1.2,1.4,1,3.5-0.5,4.6
		C216.5,263,214.4,262.8,213.1,261.4z"/>
	
		<radialGradient id="SVGID_11_" cx="523.6564" cy="-3341.0879" r="3.77" gradientTransform="matrix(-0.712 0.5458 -0.5825 -0.6671 -1368.5779 -2220.0378)" gradientUnits="userSpaceOnUse">
		<stop  offset="0" style="stop-color:#FFFFFF"/>
		<stop  offset="1" style="stop-color:#000000"/>
	</radialGradient>
	<path class="st27" d="M213.1,305c-1.2-1.4-1-3.5,0.5-4.6c1.5-1.1,3.7-1,4.9,0.4c1.2,1.4,1,3.5-0.5,4.6
		C216.6,306.6,214.4,306.5,213.1,305C213.2,305.1,213.2,305,213.1,305z"/>
	
		<radialGradient id="SVGID_12_" cx="555.5665" cy="-3379.9778" r="3.77" gradientTransform="matrix(-0.712 0.5458 -0.5825 -0.6671 -1368.5779 -2220.0378)" gradientUnits="userSpaceOnUse">
		<stop  offset="0" style="stop-color:#FFFFFF"/>
		<stop  offset="1" style="stop-color:#000000"/>
	</radialGradient>
	<path class="st28" d="M213.1,348.6c-1.2-1.4-1-3.5,0.5-4.6c1.5-1.1,3.7-1,4.9,0.4c1.2,1.4,1,3.5-0.5,4.6
		C216.6,350.2,214.4,350.1,213.1,348.6C213.2,348.7,213.2,348.6,213.1,348.6z"/>
	
		<radialGradient id="SVGID_13_" cx="-124.0179" cy="-1024.9764" r="3.77" gradientTransform="matrix(-0.5825 -0.6671 0.712 -0.5458 1272.0101 -591.0963)" gradientUnits="userSpaceOnUse">
		<stop  offset="0" style="stop-color:#FFFFFF"/>
		<stop  offset="1" style="stop-color:#000000"/>
	</radialGradient>
	<path class="st29" d="M608.7,50c1.5-1.1,3.7-1,4.9,0.4s1,3.5-0.5,4.6c-1.5,1.1-3.7,1-4.9-0.4C606.9,53.2,607.2,51.1,608.7,50z"/>
	
		<radialGradient id="SVGID_14_" cx="-92.0979" cy="-1063.8665" r="3.77" gradientTransform="matrix(-0.5825 -0.6671 0.712 -0.5458 1272.0101 -591.0963)" gradientUnits="userSpaceOnUse">
		<stop  offset="0" style="stop-color:#FFFFFF"/>
		<stop  offset="1" style="stop-color:#000000"/>
	</radialGradient>
	<path class="st30" d="M562.1,50c1.5-1.1,3.7-1,4.9,0.4c1.2,1.4,1,3.5-0.5,4.6c-1.5,1.1-3.7,1-4.9-0.4S560.7,51.1,562.1,50z"/>
	
		<radialGradient id="SVGID_15_" cx="-60.1779" cy="-1102.7565" r="3.77" gradientTransform="matrix(-0.5825 -0.6671 0.712 -0.5458 1272.0101 -591.0963)" gradientUnits="userSpaceOnUse">
		<stop  offset="0" style="stop-color:#FFFFFF"/>
		<stop  offset="1" style="stop-color:#000000"/>
	</radialGradient>
	<path class="st31" d="M515.6,50c1.5-1.1,3.7-1,4.9,0.4s1,3.5-0.5,4.6c-1.5,1.1-3.7,1-4.9-0.4S514.2,51.1,515.6,50z"/>
	
		<radialGradient id="SVGID_16_" cx="-28.2679" cy="-1141.6565" r="3.77" gradientTransform="matrix(-0.5825 -0.6671 0.712 -0.5458 1272.0101 -591.0963)" gradientUnits="userSpaceOnUse">
		<stop  offset="0" style="stop-color:#FFFFFF"/>
		<stop  offset="1" style="stop-color:#000000"/>
	</radialGradient>
	<path class="st32" d="M469.2,50c1.5-1.1,3.7-1,4.9,0.4c1.2,1.4,1,3.5-0.5,4.6c-1.5,1.1-3.7,1-4.9-0.4
		C467.4,53.2,467.6,51.2,469.2,50C469.1,50,469.1,50,469.2,50z"/>
	
		<radialGradient id="SVGID_17_" cx="-191.1279" cy="-943.2064" r="3.77" gradientTransform="matrix(-0.5825 -0.6671 0.712 -0.5458 1272.0101 -591.0963)" gradientUnits="userSpaceOnUse">
		<stop  offset="0" style="stop-color:#FFFFFF"/>
		<stop  offset="1" style="stop-color:#000000"/>
	</radialGradient>
	<path class="st33" d="M706.4,50c1.5-1.1,3.7-1,4.9,0.4s1,3.5-0.5,4.6c-1.5,1.1-3.7,1-4.9-0.4C704.8,53.2,705.1,51.1,706.4,50z"/>
	
		<radialGradient id="SVGID_18_" cx="-159.2079" cy="-982.0864" r="3.77" gradientTransform="matrix(-0.5825 -0.6671 0.712 -0.5458 1272.0101 -591.0963)" gradientUnits="userSpaceOnUse">
		<stop  offset="0" style="stop-color:#FFFFFF"/>
		<stop  offset="1" style="stop-color:#000000"/>
	</radialGradient>
	<path class="st34" d="M660,50c1.5-1.1,3.7-1,4.9,0.4s1,3.5-0.5,4.6c-1.5,1.1-3.7,1-4.9-0.4C658.3,53.2,658.5,51.1,660,50z"/>
	<rect x="226.2" y="187.7" class="st4" width="131.3" height="174.2"/>
	<path class="st3" d="M331.1,332h-80.8c-7.1,0-12.9-5.4-12.9-12c0,0,0,0,0-0.1v-88.3c0-6.7,5.7-12,12.8-12c0,0,0,0,0.1,0h80.8
		c7.1,0,12.9,5.4,12.9,12c0,0,0,0,0,0.1V320C344.1,326.7,338.3,332,331.1,332C331.2,332,331.2,332,331.1,332z"/>
	<path class="st4" d="M285.8,241.9h-25c-0.9,0-1.7-0.7-1.7-1.6l0,0v-2.9c0-0.9,0.7-1.6,1.7-1.6l0,0h25c0.9,0,1.7,0.7,1.7,1.6l0,0
		v2.9C287.6,241.2,286.8,241.9,285.8,241.9C285.9,241.9,285.9,241.9,285.8,241.9z"/>
	<path class="st4" d="M285.8,254.3h-25c-0.9,0-1.7-0.7-1.7-1.6l0,0v-2.9c0-0.9,0.7-1.6,1.7-1.6l0,0h25c0.9,0,1.7,0.7,1.7,1.6l0,0
		v2.9C287.5,253.6,286.7,254.3,285.8,254.3z"/>
	<path class="st4" d="M285.8,266.6h-25c-0.9,0-1.7-0.7-1.7-1.6l0,0v-2.9c0-0.9,0.7-1.6,1.7-1.6l0,0h25c0.9,0,1.7,0.7,1.7,1.6l0,0
		v2.9C287.5,265.9,286.7,266.6,285.8,266.6z"/>
	<path class="st4" d="M285.8,278.9h-25c-0.9,0-1.7-0.7-1.7-1.6l0,0v-2.9c0-0.9,0.7-1.6,1.7-1.6l0,0h25c0.9,0,1.7,0.7,1.7,1.6l0,0
		v2.9C287.6,278.2,286.8,278.9,285.8,278.9C285.9,278.9,285.9,278.9,285.8,278.9z"/>
	<path class="st4" d="M285.8,291.2h-25c-0.9,0-1.7-0.7-1.7-1.6l0,0v-2.9c0-0.9,0.7-1.6,1.7-1.6l0,0h25c0.9,0,1.7,0.7,1.7,1.6l0,0
		v2.9C287.6,290.5,286.8,291.2,285.8,291.2C285.9,291.2,285.9,291.2,285.8,291.2z"/>
	<path class="st4" d="M285.8,303.5h-25c-0.9,0-1.7-0.7-1.7-1.6l0,0V299c0-0.9,0.7-1.6,1.7-1.6l0,0h25c0.9,0,1.7,0.7,1.7,1.6l0,0v2.9
		C287.6,302.8,286.8,303.5,285.8,303.5C285.9,303.5,285.9,303.5,285.8,303.5z"/>
	<path class="st4" d="M285.8,315.8h-25c-0.9,0-1.7-0.7-1.7-1.6l0,0v-2.9c0-0.9,0.7-1.6,1.7-1.6l0,0h25c0.9,0,1.7,0.7,1.7,1.6l0,0
		v2.9C287.6,315.1,286.8,315.8,285.8,315.8C285.9,315.8,285.9,315.8,285.8,315.8z"/>
	<path class="st4" d="M323.6,241.9h-25c-0.9,0-1.7-0.7-1.7-1.6l0,0v-2.9c0-0.9,0.7-1.6,1.7-1.6l0,0h25c0.9,0,1.7,0.7,1.7,1.6l0,0
		v2.9C325.3,241.2,324.5,241.9,323.6,241.9C323.7,241.9,323.6,241.9,323.6,241.9z"/>
	<path class="st4" d="M323.6,254.3h-25c-0.9,0-1.7-0.7-1.7-1.6l0,0v-2.9c0-0.9,0.7-1.6,1.7-1.6l0,0h25c0.9,0,1.7,0.7,1.7,1.6l0,0
		v2.9C325.3,253.6,324.5,254.3,323.6,254.3z"/>
	<path class="st4" d="M323.6,266.6h-25c-0.9,0-1.7-0.7-1.7-1.6l0,0v-2.9c0-0.9,0.7-1.6,1.7-1.6l0,0h25c0.9,0,1.7,0.7,1.7,1.6l0,0
		v2.9C325.3,265.9,324.5,266.6,323.6,266.6z"/>
	<path class="st4" d="M323.6,278.9h-25c-0.9,0-1.7-0.7-1.7-1.6l0,0v-2.9c0-0.9,0.7-1.6,1.7-1.6l0,0h25c0.9,0,1.7,0.7,1.7,1.6l0,0
		v2.9C325.4,278.2,324.6,278.9,323.6,278.9C323.7,278.9,323.7,278.9,323.6,278.9z"/>
	<path class="st4" d="M323.6,291.2h-25c-0.9,0-1.7-0.7-1.7-1.6l0,0v-2.9c0-0.9,0.7-1.6,1.7-1.6l0,0h25c0.9,0,1.7,0.7,1.7,1.6l0,0
		v2.9C325.3,290.5,324.5,291.2,323.6,291.2C323.7,291.2,323.6,291.2,323.6,291.2z"/>
	<path class="st4" d="M323.6,303.5h-25c-0.9,0-1.7-0.7-1.7-1.6l0,0V299c0-0.9,0.7-1.6,1.7-1.6l0,0h25c0.9,0,1.7,0.7,1.7,1.6l0,0v2.9
		C325.3,302.8,324.5,303.5,323.6,303.5C323.7,303.5,323.6,303.5,323.6,303.5z"/>
	<path class="st4" d="M323.6,315.8h-25c-0.9,0-1.7-0.7-1.7-1.6l0,0v-2.9c0-0.9,0.7-1.6,1.7-1.6l0,0h25c0.9,0,1.7,0.7,1.7,1.6l0,0
		v2.9C325.4,315.1,324.6,315.8,323.6,315.8C323.7,315.8,323.7,315.8,323.6,315.8z"/>
	<path class="st3" d="M417.2,188.3v-17.5c-3.3-2-7.2-3-11.2-3h-10.4l-0.3,1h-4.5l-0.3-1h-22.2v2.9h-5.1v-2.9h-83.3l-9.2,20.5H417.2z
		 M345.7,168.5l-0.1,0.3h-3.5L345.7,168.5z"/>
	<path class="st3" d="M417.2,188.3v-11H243.6c-8.7,0-15.7,4.9-15.8,11H417.2z"/>
	<path class="st4" d="M357.5,188.6h44.1c12.6,0,24.4,5.4,32.2,14.6l62.5,74c5.9,7,9.2,15.6,9.2,24.5v33.6
		c0,14.6-12.6,26.4-28.2,26.4l0,0H357.5V188.6z"/>
	<path class="st3" d="M382.9,75.7l22.2,24.5c1.8,2,4.5,3.1,7.3,3.1l0,0c3.4,0,6.7-1.7,8.3-4.6l23.6-39.3c2.6-4.3,0.9-9.8-3.6-12.2
		c-0.6-0.3-1.1-0.5-1.8-0.7l-6.3-1.9c-1.7-0.5-3.5-0.6-5.2-0.2l-45,10.2c-5.1,1.2-8.2,6.1-7,10.8c0.3,1.2,0.9,2.3,1.8,3.4
		L382.9,75.7z"/>
	<path class="st3" d="M421.1,221.1h-7.2c1.6,0,3.2,0.3,4.7,0.7c-3.1,1-5.6,3-7,5.8l-5.7,13.1h7.2l5.7-13.1c1.4-2.8,3.9-4.9,7-5.8
		C424.2,221.3,422.7,221.1,421.1,221.1z"/>
	<path class="st3" d="M412.9,221.1h-7.2c-5.4,0-10.1,2.6-11.8,6.6l-5.7,13.1h7.2l5.7-13.1C402.9,223.7,407.7,221.1,412.9,221.1z"/>
	<path class="st3" d="M398.4,221.1h-7.2c-5.4,0-10.1,2.6-11.8,6.6l-5.7,13.1h7.2l5.7-13.1C388.3,223.7,393,221.1,398.4,221.1z"/>
	<path class="st35" d="M387.5,345.9c0,0.3-0.2,0.6-0.6,0.6h-4.6c-0.4,0-0.6-0.3-0.6-0.6v-5.3c0-0.3,0.2-0.6,0.6-0.6h4.6
		c0.4,0,0.6,0.3,0.6,0.6V345.9z"/>
	<path class="st15" d="M387.1,346.8h-4.6c-0.5,0-0.7-0.3-0.7-0.8v-5.4c0-0.4,0.3-0.8,0.6-0.8c0,0,0,0,0.1,0h4.6
		c0.5,0,0.7,0.3,0.7,0.8v5.3C387.8,346.4,387.4,346.8,387.1,346.8z M382.3,340.3c-0.2,0-0.3,0.2-0.3,0.3v5.3c0,0.2,0.1,0.3,0.3,0.3
		h4.6c0.2,0,0.3-0.2,0.3-0.3v-5.3c0-0.2-0.1-0.3-0.3-0.3H382.3z"/>
	<path class="st36" d="M394.7,345.9c0,0.3-0.2,0.6-0.6,0.6h-4.6c-0.4,0-0.6-0.3-0.6-0.6v-5.3c0-0.3,0.2-0.6,0.6-0.6h4.6
		c0.4,0,0.6,0.3,0.6,0.6V345.9z"/>
	<path class="st15" d="M394.1,346.8h-4.6c-0.5,0-0.7-0.3-0.7-0.8v-5.4c0-0.4,0.3-0.8,0.6-0.8c0,0,0,0,0.1,0h4.6
		c0.5,0,0.7,0.3,0.7,0.8v5.3C394.8,346.4,394.5,346.8,394.1,346.8z M389.5,340.3c-0.2,0-0.3,0.2-0.3,0.3v5.3c0,0.2,0.1,0.3,0.3,0.3
		h4.6c0.2,0,0.3-0.2,0.3-0.3v-5.3c0-0.2-0.1-0.3-0.3-0.3H389.5z"/>
	<path class="st4" d="M437,23.2c-0.1-3.4-3.1-6.1-6.8-5.9c-0.5,0-0.9,0.1-1.4,0.2l-4.3,1c-1.2,0.3-2.3,0.9-3.1,1.6L399,41.4
		c-2.6,2.4-2.5,6.3,0.1,8.8c0.6,0.6,1.5,1.1,2.3,1.4l1.8,0.6H419c10.3,0,18.6-7.8,18.6-17.4c0-0.3,0-0.4,0-0.7L437,23.2z
		 M426.4,34.3c-3.6,0-6.5-2.7-6.5-6.1s2.9-6.1,6.5-6.1s6.5,2.7,6.5,6.1S430,34.3,426.4,34.3z"/>
</g>
<path class="st37" d="M15.5,518.9c0,14.6,154.1,26.5,344.3,26.5S704,533.5,704,518.9s-154.1-26.5-344.3-26.5S15.5,504.2,15.5,518.9z
	"/>
</svg>
