<?xml version="1.0" encoding="utf-8"?>
<!-- Generator: Adobe Illustrator 23.0.1, SVG Export Plug-In . SVG Version: 6.00 Build 0)  -->
<svg version="1.1" id="Layer_1" xmlns="http://www.w3.org/2000/svg" xmlns:xlink="http://www.w3.org/1999/xlink" x="0px" y="0px"
	 viewBox="0 0 1192.9 554.2" style="enable-background:new 0 0 1192.9 554.2;" xml:space="preserve">
<style type="text/css">
	.st0{opacity:0.1;fill:#1B1B19;enable-background:new    ;}
	.st1{fill:url(#SVGID_1_);}
	.st2{fill:#88A84C;}
	.st3{fill:#A7CB64;}
	.st4{fill:#FFB932;stroke:#A97C50;stroke-width:0.6625;stroke-miterlimit:10;}
	.st5{fill:#ED1C24;}
	.st6{fill:#231F20;}
	.st7{fill:#ABA9A7;}
	.st8{opacity:0.93;fill:#403430;enable-background:new    ;}
	.st9{fill:url(#SVGID_2_);}
	.st10{fill:#1A1B20;}
	.st11{fill:url(#SVGID_3_);}
	.st12{fill:url(#SVGID_4_);}
	.st13{fill:#403430;}
	.st14{fill:#382F2D;}
	.st15{fill:#312527;}
	.st16{fill:#F6F6F6;}
	.st17{fill:#DAD1D1;}
	.st18{fill:none;}
</style>
<path class="st0" d="M39.3,509.4c0,13.6,236.6,24.7,528.4,24.7s528.4-11.1,528.4-24.7c0-13.6-236.6-24.7-528.4-24.7
	S39.3,495.7,39.3,509.4z"/>
<title>Front and backhoe loader</title>
<radialGradient id="SVGID_1_" cx="-2674.2864" cy="-336.6967" r="6.314" gradientTransform="matrix(0.98 0.22 0.22 -0.98 2757.0601 617.88)" gradientUnits="userSpaceOnUse">
	<stop  offset="0" style="stop-color:#FFFFFF"/>
	<stop  offset="1" style="stop-color:#000000"/>
</radialGradient>
<path class="st1" d="M80.5,362c-0.8,3.4-4.2,5.5-7.6,4.7c-3.4-0.8-5.5-4.2-4.7-7.6c0.8-3.4,4.1-5.5,7.5-4.7
	C79.1,355.2,81.2,358.5,80.5,362C80.5,361.9,80.5,361.9,80.5,362z"/>
<path class="st2" d="M98.6,363l-13.1,74.7c-0.2,1.1-1,1.9-2,2.3c-1.4,0.7-2.9,1-4.4,1c-0.6,0-1.1,0-1.7-0.1
	c-2.7-0.4-4.8-1.5-5.1-3.1l-7.9-82.4c-0.1-0.9,0.2-1.8,1-2.3l7.4-6.1c1.6-1.4,4.6-1.9,7.3-1.4c1,0.2,1.9,0.4,2.8,0.8l7.5,3.7
	c0.5,0.3,0.9,0.5,1.3,0.8l2.8,2.4c0.3,0.3,0.6,0.6,0.8,1l3.3,7.7C98.6,362.2,98.6,362.6,98.6,363z"/>
<path class="st2" d="M95.3,362.1l-13.2,75.6c-0.3,1-1,1.9-2,2.3c-0.9,0.4-1.8,0.7-2.8,0.8c-2.7-0.4-4.8-1.5-5.1-3.1l-7.9-82.4
	c-0.1-0.9,0.2-1.8,1-2.3l7.4-6.1c1.6-1.4,4.6-1.9,7.3-1.4l6.9,3.4c0.5,0.3,0.9,0.5,1.3,0.8l2.8,2.5c0.3,0.3,0.6,0.7,0.8,1.1l3.4,7.8
	C95.3,361.4,95.4,361.7,95.3,362.1z"/>
<path class="st3" d="M72.6,363.1c-1.2-4.7,1.7-9.4,6.4-10.5c0,0,0,0,0,0h0.1c4.7-1.1,9.4,1.8,10.6,6.5c1.1,4.7-1.7,9.4-6.4,10.5
	h-0.1C78.6,370.7,73.8,367.8,72.6,363.1z"/>
<path class="st3" d="M213.3,31.4c-7-6.4-17.9-5.9-24.3,1.1c-6.4,7-5.9,17.9,1.1,24.3c7,6.4,17.9,5.9,24.3-1.1
	C220.8,48.7,220.3,37.8,213.3,31.4C213.3,31.4,213.3,31.4,213.3,31.4z"/>
<rect x="260.6" y="286.8" class="st3" width="22.6" height="66.7"/>
<polygon class="st2" points="62.3,386.6 80.7,394.4 167.9,208.9 143,198.2 "/>
<path class="st3" d="M252.4,347.9c0.6-0.1,1.3-0.2,1.9-0.2l10.2-4.4l22.2,1.7l27.9,23.4h14.2v33.1h-76.6L252.4,347.9L252.4,347.9z"
	/>
<path class="st3" d="M304,355.8l38.4-2.8v8h-25.1v7.4h25.2v3.1h-25.1v7.4h25.1v3.1h-25.1v7.4h25.1v3.1h-25.1v7.4h25.1v5.2H333
	c-9.7,0.1-19.3-0.6-28.9-2.1L304,355.8z"/>
<path class="st2" d="M926.6,416l48.1-35.3c4.2-3.1,10-2.2,13.1,2l3.2,4.4c3.1,4.2,2.2,10-2,13.1L936.2,439
	C934.1,430.9,930.9,423.2,926.6,416z"/>
<polygon class="st2" points="663,334.8 636.2,126 402.6,126 375.8,352.9 656.5,352.9 "/>
<path class="st3" d="M348.9,316l11.3-50.5c2.5-11.3,12.5-19.3,24-19.3h7.2L412.9,382l17,33.2h-81.1V316z"/>
<path class="st3" d="M602.3,128H463.6l0.1-5.6c0.2-13.2,8.5-23.9,18.6-23.9h9.1l0.3,1.3h4l0.3-1.3h19.5v3.5h4.5v-3.5H535l0.2,1.3
	h3.1l-9.5-1.3h64L602.3,128z"/>
<path class="st2" d="M748.9,414l-0.8-3.2h-13.8l-0.8,3.2h-67.6v-9.4h-15.4v9.4h-52.7l-0.6-3.2h-10.8l-0.6,3.2H353.3
	c-1.1-15.8-1-31.7,0.1-47.5l2.3-30.4h489.9l-0.2,14.7c-0.5,35-29.5,63.1-64.9,63.1L748.9,414L748.9,414z"/>
<path class="st4" d="M420.9,184.3"/>
<path class="st2" d="M398,113.9h-3.9V87.5c0-3.1,3.7-5.8,9.1-6.6l7.8-6.2l17.3,2.3l21.6,32.9h174.4c7.7,0,13.9,5.9,13.9,13.2v3.6
	H394v-3.6C394,119.7,395.5,116.3,398,113.9z"/>
<path class="st5" d="M615.2,322.4c0,0.4,0.3,0.8,0.7,0.9h6.6c0.4-0.1,0.8-0.5,0.7-0.9v-7.9c0-0.4-0.3-0.8-0.7-0.9H616
	c-0.4,0.1-0.8,0.5-0.7,0.9L615.2,322.4z"/>
<path class="st6" d="M615,322.4v-7.9c0-0.6,0.4-1.1,1-1.2h6.6c0.6,0.1,1,0.6,1,1.2v7.9c0,0.6-0.4,1.1-1,1.2H616
	C615.4,323.6,614.9,323,615,322.4z M616,314c-0.3,0-0.5,0.3-0.5,0.5v7.9c0,0.3,0.2,0.5,0.5,0.5h6.6c0.3,0,0.5-0.3,0.5-0.5v-7.9
	c0-0.3-0.2-0.5-0.5-0.5H616z"/>
<path class="st7" d="M605.2,322.4c0,0.4,0.3,0.8,0.7,0.9h6.6c0.4-0.1,0.8-0.5,0.7-0.9v-7.9c0-0.4-0.3-0.8-0.7-0.9H606
	c-0.4,0.1-0.8,0.5-0.7,0.9V322.4z"/>
<path class="st6" d="M605,322.4v-7.9c0-0.6,0.4-1.1,1-1.2h6.6c0.6,0.1,1,0.6,1,1.2v7.9c0,0.6-0.4,1.1-1,1.2H606
	C605.4,323.5,604.9,323,605,322.4z M606,314c-0.3,0-0.5,0.3-0.5,0.5v7.9c0,0.3,0.2,0.5,0.5,0.5h6.6c0.3,0,0.5-0.3,0.5-0.5v-7.9
	c0-0.3-0.2-0.5-0.5-0.5H606z"/>
<polygon class="st3" points="410.5,356.6 579.6,356.6 579.2,357.5 844.1,357.5 856,281.9 644.1,227.3 619,126 393.9,126 
	367.5,352.9 414.6,352.9 "/>
<path class="st8" d="M527.3,139.4h50.3c11.7,0,21.9,6.2,24.9,15.1l35.8,91.8l-7.5,5.7H527.3V139.4z"/>
<path class="st2" d="M667.2,216.9c0.1,0,0.3,0,0.4,0.1c5.5,0.7,10.9,1.6,16.3,2.4s10.8,1.7,16.2,2.8c21.5,3.9,42.8,8.5,63.9,13.6
	c37.7,9.3,74.8,20.3,111.5,32.6l10.6-8.6c12.6-10.1,31-8.1,41.1,4.5c0,0,0,0,0,0l0,0l0,0c10.1,12.6,8.1,31-4.5,41.1c0,0,0,0,0,0l0,0
	l-9,7.3c10.2,25.9,19.6,52.2,28.2,78.7c5.8,17.8,11,35.9,15.8,54.2c1.2,4.6,2.3,9.2,3.4,13.8l1.6,6.9l1.5,6.9c0,0.1,0,0.2,0.1,0.3
	c1.4,6.8-7.6,10.7-11.4,5c-0.1-0.1-0.1-0.2-0.2-0.3l-4.1-5.9l-3.9-5.9c-2.6-4-5.1-7.9-7.7-12c-10.1-16-19.6-32.2-28.6-48.6
	c-16.4-29.6-31.3-59.8-45.3-90.4c-37.8-12.4-75.1-26.2-111.9-42c-20-8.6-39.7-17.7-59.3-27.5c-4.9-2.4-9.7-5-14.6-7.5
	c-4.9-2.6-9.6-5.1-14.5-7.8c-0.1-0.1-0.2-0.1-0.3-0.2C655.7,226.6,659.3,215.9,667.2,216.9z"/>
<path class="st3" d="M885.3,279.8c-1.1,10.1,6.2,19.2,16.3,20.3c10.1,1.1,19.2-6.2,20.3-16.3c1.1-10.1-6.2-19.2-16.3-20.3
	c0,0,0,0,0,0l0,0C895.4,262.4,886.4,269.7,885.3,279.8z"/>
<path class="st2" d="M324,452.9v-31.5c0-4,0.5-8,1.5-11.9v-6.4l1.2-0.3v-4l-1.2-0.3v-19.5h3.4v-4.4h-3.3v-15.1l1.2-0.2v-3.1
	l-1.2-0.2v-63.9h27.9v108.4c3.2,5.3,5,12.6,5,20.7v31.5h5v22.3H319v-22.3L324,452.9z"/>
<path class="st3" d="M737,421v-19.1c0-2.4,0.2-4.8,0.5-7.2v-3.9l0.5-0.2v-2.4l-0.5-0.2v-11.8h1.3v-2.7h-1.3v-9.2l0.5-0.1v-1.9
	l-0.5-0.1v-38.6h10.6v65.8c1.3,4,2,8.3,1.9,12.5V421h1.9v13.5H735V421L737,421z"/>
<linearGradient id="SVGID_2_" gradientUnits="userSpaceOnUse" x1="-1885.2666" y1="2224.2429" x2="-1885.2666" y2="2236.0964" gradientTransform="matrix(0.42 -1.18 -1.1 -0.39 3357.6599 -1046)">
	<stop  offset="0" style="stop-color:#FFFFFF"/>
	<stop  offset="1" style="stop-color:#000000"/>
</linearGradient>
<path class="st9" d="M135.3,232.9L82.5,382.2c-0.4,1.2-1.7,1.8-2.8,1.4c0,0,0,0,0,0l0,0l-6-2.2c-1.2-0.4-1.8-1.6-1.5-2.8
	c0,0,0,0,0-0.1l0,0l52.8-149.4c0.4-1.2,1.7-1.8,2.8-1.4c0,0,0,0,0,0l0,0l6,2.2C135.1,230.4,135.7,231.7,135.3,232.9
	C135.3,232.8,135.3,232.8,135.3,232.9L135.3,232.9z"/>
<path class="st10" d="M199.7,56.5L128.2,259c-0.6,1.6-2.3,2.4-3.9,1.9l-8.2-2.9c-1.6-0.6-2.4-2.3-1.9-3.9l71.6-202.6
	c0.6-1.6,2.3-2.4,3.9-1.9l8.2,2.9C199.5,53.2,200.3,54.9,199.7,56.5z"/>
<path class="st10" d="M137.9,239.5l-4.9,13.8c-0.6,1.8-2.6,2.7-4.3,2.1l-12.4-4.4c-1.8-0.6-2.7-2.6-2.1-4.3l4.9-13.8
	c0.6-1.8,2.6-2.7,4.3-2.1l12.4,4.4C137.6,235.8,138.5,237.7,137.9,239.5z"/>
<path class="st2" d="M147.1,387.8l-83.6-22.9c-1.3-0.5-2.3-1.4-2.8-2.7c-0.8-1.7-1.3-3.5-1.4-5.4c-0.1-0.7-0.1-1.4,0-2.1
	c0.2-3.2,1.5-5.5,3.2-5.8l91.2-1.2c1.1,0,2.1,0.6,2.8,1.4l7.6,9.5c1.6,2.1,2.4,5.7,2.2,8.8c-0.1,1.1-0.3,2.2-0.8,3.2l-3.8,8.5
	c-0.2,0.5-0.5,0.9-0.8,1.4l-2.7,3c-0.3,0.3-0.7,0.6-1.2,0.8l-8.6,3.1C148,387.8,147.5,387.9,147.1,387.8z"/>
<path class="st2" d="M147.9,384l-84.7-23.1c-1.3-0.5-2.3-1.5-2.9-2.7c-0.6-1.1-1-2.2-1.2-3.4c0.2-3.2,1.5-5.5,3.2-5.8l91.2-1.2
	c1.1,0,2.1,0.6,2.8,1.4l7.6,9.5c1.6,2.1,2.4,5.7,2.2,8.8l-3.5,7.8c-0.2,0.5-0.5,1-0.9,1.4l-2.7,3.1c-0.3,0.3-0.7,0.6-1.2,0.8
	l-8.8,3.1C148.8,384.1,148.3,384.2,147.9,384z"/>
<ellipse transform="matrix(0.1989 -0.98 0.98 0.1989 -237.1355 440.9927)" class="st3" cx="151.2" cy="365.5" rx="10.3" ry="10.3"/>
<path class="st2" d="M119.7,476.9h-9.9c-9.5,0-17.3-7.3-18.1-16.8l-2-7.8l-5.4-16.6l-1-3.9l-6.9-23.6l3.6-1.9l10.6,20.4l123.7-92.4
	l5.6-22h4.1V339l-0.2,106.9C190.1,533.5,119.7,476.9,119.7,476.9z"/>
<path class="st3" d="M121.6,483.8h-9.9c-9.5,0-17.4-7.3-18.1-16.8l-2-7.8l-5.4-16.6l-1-3.9l-6.9-23.7l3.6-1.9l10.6,20.4l123.6-92.6
	l5.6-22h4.1v26.8l-0.2,107.1C192,540.6,121.6,483.8,121.6,483.8z"/>
<path class="st2" d="M127.7,488.2c6,0.5,12,0.5,17.9,0.2c19.5-1,35.7-7.6,50-20.5c13.9-12.7,19.9-31.6,20.8-49.9
	c0.8-17.6-8.4-37.7-20.5-50c-2.2-2.2-4.5-4.2-6.9-6l27.5-20.5l5.6-22h4.1l-0.3,133.6C197.9,525,145.4,499.4,127.7,488.2z"/>
<path class="st3" d="M968.9,411.6l52.7,14.2c0.8,0.3,1.9-0.2,2.9-1.1c1.2-1.1,2.2-2.4,2.9-3.8c0.3-0.5,0.5-1.1,0.7-1.6
	c0.9-2.6,0.8-5-0.4-5.9l-49.8-36.7c-0.8-0.5-1.7-0.4-2.4,0.1l-8.6,4.8c-1.9,1.1-3.7,3.6-4.6,6.3c-0.4,1-0.5,2-0.5,3l-0.3,8.4
	c0,0.5,0,1,0.1,1.4l0.9,3.4c0.1,0.4,0.3,0.8,0.5,1.1l5.1,5.9C968.2,411.4,968.5,411.6,968.9,411.6z"/>
<path class="st2" d="M969.6,408.3l53.5,14.5c0.8,0.3,1.9-0.2,3-1.1c0.8-0.6,1.4-1.4,2-2.3c0.9-2.6,0.8-5-0.4-5.9l-49.8-36.7
	c-0.8-0.5-1.7-0.4-2.4,0.1l-8.6,4.8c-1.9,1.1-3.7,3.6-4.6,6.3l-0.3,7.7c0,0.5,0,1,0.2,1.4l0.9,3.5c0.1,0.4,0.3,0.8,0.5,1.1l5.2,5.9
	C969,408,969.3,408.2,969.6,408.3z"/>
<path class="st3" d="M977.7,382.9c-5.1,0.1-9.1,4.4-9,9.5c0.1,5.1,4.4,9.1,9.5,9c5.1-0.1,9.1-4.4,9-9.5c-0.1-5-4.2-9.1-9.3-9H977.7z
	"/>
<path class="st3" d="M967.5,475.1l43.8-32.7c0.7-0.5,1-1.6,1-3c-0.1-1.6-0.5-3.2-1.3-4.6c-0.2-0.5-0.5-1.1-0.9-1.5
	c-1.5-2.3-3.4-3.8-4.9-3.4l-59.6,16.6c-0.8,0.3-1.4,1.1-1.4,2l-1.6,9.7c-0.4,2.2,0.5,5.1,2.1,7.5c0.5,0.9,1.2,1.6,2,2.3l6.4,5.3
	c0.4,0.3,0.8,0.6,1.2,0.8l3.2,1.4c0.4,0.2,0.8,0.3,1.2,0.3l7.7-0.4C966.8,475.4,967.2,475.3,967.5,475.1z"/>
<path class="st3" d="M965.2,472.4l44.4-33.1c0.7-0.5,1-1.6,1-3c0-1-0.2-2-0.5-3c-1.5-2.3-3.4-3.8-4.9-3.4l-59.6,16.6
	c-0.8,0.3-1.4,1.1-1.4,2l-1.6,9.7c-0.4,2.2,0.5,5.1,2.1,7.5l5.9,5c0.4,0.3,0.8,0.6,1.3,0.8l3.3,1.4c0.4,0.2,0.8,0.3,1.2,0.3l7.9-0.5
	C964.6,472.7,965,472.6,965.2,472.4z"/>
<radialGradient id="SVGID_3_" cx="-1583.868" cy="-402.3228" r="9.2233" gradientTransform="matrix(-0.24 -0.97 0.97 -0.24 966 -1177.26)" gradientUnits="userSpaceOnUse">
	<stop  offset="0" style="stop-color:#FFFFFF"/>
	<stop  offset="1" style="stop-color:#000000"/>
</radialGradient>
<path class="st11" d="M957.9,450.2c-5.3,0-9.6,4.4-9.6,9.7c0,5.3,4.4,9.6,9.7,9.6c5.3,0,9.6-4.4,9.6-9.7
	C967.5,454.5,963.2,450.3,957.9,450.2L957.9,450.2z"/>
<path class="st2" d="M998,393.8l-3.7-5.9c-3.5-5.6-2.1-12.9,3.2-16.8l3.9-4.1l7.8-9.3l1.9-2l11.4-12.8l2.4,1.4l-8.1,13.8l100.2,39
	l15-4.8l1.5,2.4l-10.5,6.6l-5.2,3.2l-63.2,39.3C990.6,456.3,998,393.8,998,393.8z"/>
<path class="st3" d="M994.6,397.5l-3.7-5.9c-3.5-5.6-2.1-12.9,3.2-16.8l3.9-4.1l7.8-9.3l1.9-2l11.4-12.8l2.4,1.4l-8.1,13.8l100.2,39
	l15-4.8l1.5,2.4l-10.5,6.6l-5.2,3.2l-63.2,39.3C987,460,994.6,397.5,994.6,397.5z"/>
<path class="st2" d="M994.3,402.7c1.9,3.7,4.1,7.2,6.5,10.6c7.7,11.1,17.7,18.3,30.6,22c12.6,3.5,26,0.1,37.1-6.1
	c10.7-6,19.2-18.8,22-30.6c0.5-2.1,0.8-4.2,1-6.3l22.2,8.6l15-4.8l1.5,2.4l-79,49.1C998.4,457.8,994.2,417.4,994.3,402.7z"/>
<linearGradient id="SVGID_4_" gradientUnits="userSpaceOnUse" x1="911.8155" y1="-439.0623" x2="911.8155" y2="-418.8593" gradientTransform="matrix(-0.82 0.26 -0.26 -0.82 1499.24 -290.69)">
	<stop  offset="0" style="stop-color:#FFFFFF"/>
	<stop  offset="1" style="stop-color:#000000"/>
</linearGradient>
<path class="st12" d="M816.2,313.6l94.1-29.6c1-0.3,1.6-1.4,1.3-2.4c0,0,0,0,0,0v-0.1l-2.9-9.2c-0.3-1-1.4-1.6-2.4-1.3c0,0,0,0,0,0
	h-0.1l-94,29.6c-1,0.3-1.7,1.3-1.4,2.4c0,0,0,0.1,0,0.1v0.1l2.9,9.2c0.3,1,1.4,1.6,2.4,1.3L816.2,313.6z"/>
<path class="st10" d="M704.3,351.4l127.5-40.2c1.4-0.4,2.2-1.9,1.8-3.4c0,0,0,0,0-0.1l-4-12.5c-0.4-1.4-1.9-2.2-3.4-1.8h-0.1
	l-127.5,40.2c-1.4,0.4-2.2,1.9-1.8,3.4c0,0,0,0,0,0.1l4,12.5C701.4,351,702.9,351.8,704.3,351.4z"/>
<path class="st10" d="M821.1,318l7.7-2.4c1.4-0.5,2.2-1.9,1.8-3.3l-5.9-18.7c-0.5-1.4-1.9-2.2-3.3-1.8l-7.7,2.4
	c-1.4,0.5-2.2,1.9-1.8,3.3l5.9,18.7c0.4,1.4,1.8,2.2,3.2,1.8H821.1z"/>
<path class="st2" d="M667.3,457.5v-25c0-12.8,7.7-23.2,17.2-23.2l0,0c9.5,0,17.2,10.4,17.2,23.2v25h5v17.7h-44.5v-17.7H667.3z"/>
<path class="st2" d="M659.1,197.5v180.1c0,4.6,0.6,9.2,1.7,13.6l7.9,29.9h32.9l10.4-14c6.7-8.9,10.2-21.3,9.7-33.9
	C720,323.1,710.4,197.5,659.1,197.5z"/>
<path class="st3" d="M686.2,216.9c-4.3-5.7-12.4-6.8-18.1-2.4c-5.7,4.3-6.8,12.4-2.4,18.1c4.3,5.7,12.4,6.8,18.1,2.4
	C689.4,230.7,690.5,222.6,686.2,216.9C686.2,216.9,686.2,216.9,686.2,216.9z"/>
<path class="st5" d="M414.6,117.2c0,0.4,0.3,0.8,0.7,0.9h6.6c0.4-0.1,0.8-0.5,0.7-0.9v-7.9c0-0.4-0.3-0.8-0.7-0.9h-6.5
	c-0.4,0.1-0.8,0.5-0.7,0.9L414.6,117.2z"/>
<path class="st6" d="M414.4,117.2v-7.9c0-0.6,0.4-1.1,1-1.2h6.6c0.6,0.1,1,0.6,1,1.2v7.9c0,0.6-0.4,1.1-1,1.2h-6.5
	C414.8,118.4,414.3,117.8,414.4,117.2z M415.4,108.8c-0.3,0-0.5,0.3-0.5,0.5v7.9c0,0.3,0.2,0.5,0.5,0.5h6.6c0.3,0,0.5-0.3,0.5-0.5
	v-7.9c0-0.3-0.2-0.5-0.5-0.5H415.4z"/>
<path class="st7" d="M404.7,117.2c0,0.4,0.3,0.8,0.7,0.9h6.6c0.4-0.1,0.8-0.5,0.7-0.9v-7.9c0-0.4-0.3-0.8-0.7-0.9h-6.5
	c-0.4,0.1-0.8,0.5-0.7,0.9L404.7,117.2z"/>
<path class="st6" d="M404.5,117.2v-7.9c0-0.6,0.4-1.1,1-1.2h6.6c0.6,0.1,1,0.6,1,1.2v7.9c0,0.6-0.4,1.1-1,1.2h-6.5
	C404.9,118.4,404.4,117.8,404.5,117.2z M405.5,108.8c-0.3,0-0.5,0.3-0.5,0.5v7.9c0,0.3,0.2,0.5,0.5,0.5h6.6c0.3,0,0.5-0.3,0.5-0.5
	v-7.9c0-0.3-0.2-0.5-0.5-0.5H405.5z"/>
<path class="st2" d="M607.7,257.9h30.7v30.7h-12.6c-3.2,0-6.2-1.3-8.4-3.5l-6.2-6.2c-2.2-2.2-3.5-5.2-3.5-8.4L607.7,257.9
	L607.7,257.9z"/>
<rect x="417" y="139.3" class="st13" width="92.2" height="112.6"/>
<path class="st3" d="M224.1,78.7l4.3-31.5c0.2-1.5,0.2-3-0.1-4.5l-2-11.3c-0.2-1.4-0.7-2.7-1.3-4l-8.7-17.6c1.8,1.3,3.3,3,4.3,5
	l9.5,19c0.6,1.2,1,2.5,1.3,3.9l1.9,11.1c0.3,1.5,0.3,2.9,0.1,4.4l-4.2,31c-0.2,1.4-0.5,2.7-4.3,4l-69.2,156.3l-4.5,0.5L223,82.6
	C223.5,81.4,223.9,80.1,224.1,78.7z"/>
<polygon class="st2" points="268.5,320 268.5,348.9 250.7,348.9 191.4,67.5 200,14.3 217.3,14.3 239.4,60.1 311.7,265.2 
	311.7,292.3 282.1,301.7 "/>
<polygon class="st3" points="139.4,241 138.3,241 122.2,185.4 172.3,35.9 135.1,185.4 "/>
<path class="st2" d="M172.3,35.9c0.8-3.2,2.6-6,5.2-7.9l22.8-17.6c4.7-3.7,11.2-3.9,16.1-0.5L222,21v64.1l-69,155.9h-13.5l-4.3-55.7
	L172.3,35.9z"/>
<circle class="st14" cx="824.6" cy="441.3" r="63"/>
<circle class="st15" cx="824.6" cy="441.3" r="44"/>
<circle class="st16" cx="824.6" cy="441.3" r="31.4"/>
<circle class="st17" cx="824.5" cy="441.3" r="22.4"/>
<circle class="st16" cx="824.6" cy="441.3" r="16.8"/>
<rect x="818.7" y="375.9" class="st14" width="15" height="5.2"/>
<rect x="844.9" y="375.3" transform="matrix(0.342 -0.9397 0.9397 0.342 197.909 1048.3184)" class="st14" width="5.2" height="15"/>
<rect x="863.6" y="386.7" transform="matrix(0.6428 -0.766 0.766 0.6428 7.4425 804.3859)" class="st14" width="5.2" height="15"/>
<rect x="877.1" y="403.8" transform="matrix(0.866 -0.5 0.5 0.866 -87.8194 494.9785)" class="st14" width="5.2" height="15"/>
<rect x="884.1" y="424.4" transform="matrix(0.9848 -0.1736 0.1736 0.9848 -61.5321 160.5446)" class="st14" width="5.2" height="15"/>
<rect x="878.6" y="451.2" transform="matrix(0.1736 -0.9848 0.9848 0.1736 285.3221 1247.6733)" class="st14" width="15" height="5.2"/>
<rect x="870.7" y="471.5" transform="matrix(0.5 -0.866 0.866 0.5 28.5017 997.5789)" class="st14" width="15" height="5.2"/>
<rect x="857.2" y="493.1" transform="matrix(0.769 -0.6392 0.6392 0.769 -117.1349 667.2437)" class="st14" width="15.1" height="5.2"/>
<rect x="837.1" y="498.2" transform="matrix(0.9397 -0.342 0.342 0.9397 -120.367 319.0705)" class="st14" width="15" height="5.2"/>
<rect x="815.5" y="501.5" class="st14" width="15" height="5.2"/>
<rect x="799.1" y="492.3" transform="matrix(0.342 -0.9397 0.9397 0.342 57.8268 1082.1838)" class="st14" width="5.2" height="15"/>
<rect x="780.3" y="480.8" transform="matrix(0.6428 -0.766 0.766 0.6428 -94.4187 774.2224)" class="st14" width="5.2" height="15"/>
<rect x="766.8" y="463.8" transform="matrix(0.866 -0.5 0.5 0.866 -132.5768 447.8741)" class="st14" width="5.2" height="15"/>
<rect x="759.8" y="443.2" transform="matrix(0.9848 -0.1736 0.1736 0.9848 -66.6885 139.2469)" class="st14" width="5.2" height="15"/>
<rect x="755.5" y="426.3" transform="matrix(0.1736 -0.9848 0.9848 0.1736 208.146 1105.8939)" class="st14" width="15" height="5.2"/>
<rect x="763.5" y="406" transform="matrix(0.5 -0.866 0.866 0.5 31.664 871.974)" class="st14" width="15" height="5.2"/>
<rect x="778.9" y="394.4" transform="matrix(0.769 -0.6392 0.6392 0.769 -72.121 594.4115)" class="st14" width="15.1" height="5.2"/>
<rect x="797" y="379.1" transform="matrix(0.9397 -0.342 0.342 0.9397 -82.0296 298.1938)" class="st14" width="15" height="5.2"/>
<path class="st14" d="M821.6,413.4c0,1.9,1.6,3.5,3.5,3.5c1.9,0,3.5-1.6,3.5-3.5c0-1.9-1.6-3.5-3.5-3.5c-1.9,0-3.5,1.5-3.5,3.4
	c0,0,0,0,0,0V413.4z"/>
<path class="st14" d="M840.7,418.3c-1.2,1.5-1,3.7,0.4,5c1.5,1.2,3.7,1,5-0.4c1.2-1.5,1-3.7-0.4-5l0,0
	C844.2,416.6,842,416.7,840.7,418.3L840.7,418.3z"/>
<path class="st14" d="M852.3,434.2c-1.9,0.3-3.2,2.1-2.9,4.1c0.3,1.9,2.1,3.2,4.1,2.9c1.9-0.3,3.2-2.1,2.9-4
	C855.9,435.2,854.2,433.9,852.3,434.2z"/>
<path class="st14" d="M850.8,453.9c-1.7-1-3.8-0.4-4.8,1.3c-1,1.7-0.4,3.8,1.3,4.8c1.7,1,3.8,0.4,4.8-1.3l0,0
	C853,457,852.4,454.9,850.8,453.9z"/>
<path class="st14" d="M837,468.1c-0.7-1.8-2.7-2.7-4.5-2.1c-1.8,0.7-2.7,2.7-2.1,4.5c0.7,1.8,2.7,2.7,4.5,2.1
	C836.7,471.9,837.7,469.9,837,468.1L837,468.1z"/>
<path class="st14" d="M817.4,470c0.7-1.8-0.3-3.8-2.1-4.5c-1.8-0.7-3.8,0.3-4.5,2.1c-0.7,1.8,0.3,3.8,2.1,4.5
	C814.7,472.7,816.7,471.8,817.4,470z"/>
<path class="st14" d="M801,459c1.7-0.9,2.2-3,1.3-4.7c0,0,0,0,0,0l0-0.1c-1-1.6-3.2-2.1-4.8-1.1c-1.5,1-2,3-1.2,4.6
	C797.3,459.3,799.4,459.9,801,459z"/>
<path class="st14" d="M795.7,440c1.9,0.3,3.7-1,4-2.9c0.3-1.9-1-3.7-2.9-4c-1.9-0.3-3.7,1-4,2.9C792.5,437.8,793.8,439.6,795.7,440
	C795.7,440,795.7,440,795.7,440z"/>
<path class="st14" d="M803.8,421.9c1.2,1.5,3.5,1.7,5,0.5c1.5-1.2,1.7-3.5,0.5-5c-1.2-1.5-3.5-1.7-5-0.5l0,0
	C802.8,418.2,802.6,420.4,803.8,421.9L803.8,421.9z"/>
<polygon class="st3" points="362.6,340.6 408.2,267.4 581.8,266.7 631.2,355.1 362.6,356.2 "/>
<path class="st2" d="M622.3,340.7c1,0,1.9-0.6,2.7-1.9c1.7-3.3,1.8-7.2,0.3-10.5l-34-69.8H389.3L370,318.7
	c-1.2,3.5-0.5,8.1,1.4,10.3s4.4,1,5.5-2.6l29.9-53h170.2l42.3,64.9C620.1,339.9,621.2,340.7,622.3,340.7z"/>
<polygon class="st2" points="658.9,390.1 355.3,390.1 354.9,389.4 354.9,332 658.9,332 "/>
<circle class="st14" cx="497.6" cy="387.4" r="114.9"/>
<circle class="st15" cx="497.6" cy="387.4" r="100.6"/>
<circle class="st16" cx="497.6" cy="387.4" r="57.4"/>
<ellipse transform="matrix(0.9733 -0.2297 0.2297 0.9733 -75.6825 124.6665)" class="st17" cx="497.6" cy="387.4" rx="40.9" ry="40.9"/>
<circle class="st16" cx="497.6" cy="387.4" r="30.6"/>
<rect x="486.7" y="268" class="st14" width="27.5" height="9.5"/>
<rect x="534.7" y="266.9" transform="matrix(0.342 -0.9397 0.9397 0.342 91.2731 691.5866)" class="st14" width="9.5" height="27.5"/>
<rect x="568.7" y="287.7" transform="matrix(0.6428 -0.766 0.766 0.6428 -26.0426 546.9816)" class="st14" width="9.5" height="27.5"/>
<rect x="593.5" y="318.8" transform="matrix(0.866 -0.5 0.5 0.866 -86.1115 343.6766)" class="st14" width="9.5" height="27.5"/>
<rect x="606.2" y="356.6" transform="matrix(0.9848 -0.1736 0.1736 0.9848 -55.0199 111.7258)" class="st14" width="9.5" height="27.5"/>
<rect x="596.2" y="405.3" transform="matrix(0.1736 -0.9848 0.9848 0.1736 100.1586 939.5714)" class="st14" width="27.5" height="9.5"/>
<rect x="581.7" y="442.4" transform="matrix(0.5 -0.866 0.866 0.5 -89.5069 739.2389)" class="st14" width="27.5" height="9.5"/>
<rect x="555.2" y="476.6" transform="matrix(0.769 -0.6392 0.6392 0.769 -176.3159 474.8619)" class="st14" width="27.5" height="9.6"/>
<rect x="520.4" y="491.2" transform="matrix(0.9397 -0.342 0.342 0.9397 -137.4263 212.584)" class="st14" width="27.5" height="9.5"/>
<rect x="481" y="497.2" class="st14" width="27.5" height="9.5"/>
<rect x="450.9" y="480.3" transform="matrix(0.342 -0.9397 0.9397 0.342 -164.3788 753.2765)" class="st14" width="9.5" height="27.5"/>
<rect x="416.9" y="459.5" transform="matrix(0.6428 -0.766 0.766 0.6428 -211.8873 492.0806)" class="st14" width="9.5" height="27.5"/>
<rect x="392.2" y="428.4" transform="matrix(0.866 -0.5 0.5 0.866 -167.9059 257.7217)" class="st14" width="9.5" height="27.5"/>
<rect x="379.5" y="390.6" transform="matrix(0.9848 -0.1736 0.1736 0.9848 -64.3827 72.8704)" class="st14" width="9.5" height="27.5"/>
<rect x="371.6" y="359.9" transform="matrix(0.1736 -0.9848 0.9848 0.1736 -40.7649 680.8067)" class="st14" width="27.5" height="9.5"/>
<rect x="386" y="322.8" transform="matrix(0.5 -0.866 0.866 0.5 -83.8104 509.9863)" class="st14" width="27.5" height="9.5"/>
<rect x="412.3" y="296.3" transform="matrix(0.769 -0.6392 0.6392 0.769 -94.0754 341.8479)" class="st14" width="27.5" height="9.6"/>
<rect x="447.4" y="273.9" transform="matrix(0.9397 -0.342 0.342 0.9397 -67.4864 174.5235)" class="st14" width="27.5" height="9.5"/>
<path class="st14" d="M492.6,340.7c0,3.2,2.6,5.9,5.9,5.9s5.9-2.6,5.9-5.9c0-3.2-2.6-5.9-5.9-5.9l0,0
	C495.2,334.9,492.6,337.5,492.6,340.7z"/>
<path class="st14" d="M524.5,348.8c-2.1,2.5-1.8,6.2,0.7,8.3c2.5,2.1,6.2,1.8,8.3-0.7s1.8-6.2-0.7-8.3c0,0,0,0,0,0l0,0
	C530.3,346,526.7,346.3,524.5,348.8C524.6,348.8,524.6,348.8,524.5,348.8L524.5,348.8z"/>
<path class="st14" d="M543.7,375.5c-3.2,0.6-5.3,3.6-4.8,6.8c0.6,3.2,3.6,5.3,6.8,4.8c3.2-0.6,5.3-3.6,4.8-6.8
	C550,377,546.9,374.9,543.7,375.5z"/>
<path class="st14" d="M541.3,408.3c-2.8-1.6-6.4-0.7-8,2.2c-1.6,2.8-0.7,6.4,2.2,8c2.8,1.6,6.4,0.7,8-2.2c0,0,0,0,0,0l0,0
	c1.6-2.8,0.7-6.3-2.1-8L541.3,408.3z"/>
<path class="st14" d="M518.4,431.9c-1.1-3.1-4.5-4.6-7.6-3.5c-3.1,1.1-4.6,4.5-3.5,7.6c1.1,3.1,4.5,4.6,7.6,3.5c0,0,0,0,0,0l0,0
	C517.9,438.3,519.4,435,518.4,431.9z"/>
<path class="st14" d="M485.7,435.3c1.1-3.1-0.5-6.4-3.5-7.6c-3.1-1.1-6.4,0.5-7.6,3.5c-1.1,3.1,0.5,6.4,3.5,7.6c0,0,0,0,0,0l0,0
	C481.2,439.9,484.5,438.3,485.7,435.3z"/>
<path class="st14" d="M458.4,416.7c2.8-1.6,3.8-5.2,2.2-8c-1.6-2.8-5.2-3.8-8-2.2c-2.8,1.6-3.8,5.2-2.2,8c0,0,0,0,0,0l0,0
	c1.6,2.8,5.1,3.8,7.9,2.2c0,0,0,0,0,0L458.4,416.7z"/>
<path class="st14" d="M449.4,385.1c3.2,0.6,6.3-1.6,6.8-4.8c0.6-3.2-1.6-6.3-4.8-6.8c-3.2-0.6-6.3,1.6-6.8,4.8
	C444.1,381.5,446.2,384.5,449.4,385.1z"/>
<path class="st14" d="M462.9,355c2.1,2.5,5.8,2.8,8.3,0.7c2.5-2.1,2.8-5.8,0.7-8.3c-2.1-2.5-5.8-2.8-8.3-0.7c0,0,0,0,0,0l0,0
	C461.2,348.9,460.9,352.5,462.9,355z"/>
<line class="st18" x1="649.4" y1="228.7" x2="649.4" y2="228.7"/>
<rect x="647.2" y="228.7" class="st2" width="1.1" height="102.1"/>
</svg>
