<?xml version="1.0" encoding="utf-8"?>
<!-- Generator: Adobe Illustrator 23.0.1, SVG Export Plug-In . SVG Version: 6.00 Build 0)  -->
<svg version="1.1" id="Layer_1" xmlns="http://www.w3.org/2000/svg" xmlns:xlink="http://www.w3.org/1999/xlink" x="0px" y="0px"
	 viewBox="0 0 1147.2 466.8" style="enable-background:new 0 0 1147.2 466.8;" xml:space="preserve">
<style type="text/css">
	.st0{opacity:0.1;fill:#1B1B19;enable-background:new    ;}
	.st1{fill:#231F20;}
	.st2{fill:#808285;}
	.st3{fill:#6D6E71;}
	.st4{fill:#231F20;stroke:#58595B;stroke-width:0.4127;stroke-miterlimit:10;}
	.st5{fill:#88A84C;}
	.st6{fill:#A7CB64;}
	.st7{fill:#AEA7A7;}
	.st8{fill:#3D3B3D;}
	.st9{fill:url(#SVGID_1_);}
	.st10{fill:#3B3A3A;}
	.st11{fill:#FFFFFF;stroke:#3D3B3D;stroke-width:0.4286;stroke-miterlimit:10;}
	.st12{fill:url(#SVGID_2_);}
	.st13{fill:url(#SVGID_3_);}
	.st14{fill:url(#SVGID_4_);}
	.st15{fill:url(#SVGID_5_);}
	.st16{fill:url(#SVGID_6_);}
	.st17{fill:#403430;}
	.st18{fill:#ED1C24;}
	.st19{fill:#ABA9A7;}
	.st20{opacity:0.1;fill:#58595B;enable-background:new    ;}
	.st21{fill:url(#SVGID_7_);}
	.st22{fill:url(#SVGID_8_);}
	.st23{fill:url(#SVGID_9_);}
	.st24{fill:#B3B3B3;}
	.st25{fill:#F5F5F5;}
	.st26{fill:#808080;}
	.st27{fill:url(#SVGID_10_);}
	.st28{fill:#FFFFFF;}
	.st29{fill:url(#SVGID_11_);}
</style>
<path class="st0" d="M40.8,426.3c0,14.6,243.5,26.5,544,26.5s544-11.9,544-26.5s-243.5-26.5-544-26.5S40.8,411.6,40.8,426.3z"/>
<title>Dump Truck</title>
<g>
	<path class="st1" d="M737,264.4c2.1,0.2,3.8-1.4,3.9-3.3c0.2-1.9-1.4-3.7-3.4-3.8l0,0H737c-18.6,0-23.8-5.8-24.1-8.9V91.7
		c0-17.4-26.6-21-27.7-21.1c-2.1-0.4-4,1-4.4,3c-0.2,2,1.3,3.8,3.4,4l0,0l0,0c0.3,0,20.9,2.8,20.9,14.1v156.7
		C705,249,705.4,264.4,737,264.4z"/>
	<rect x="696.4" y="94.7" class="st2" width="24.3" height="145.4"/>
	<rect x="714.7" y="94.7" class="st3" width="6.1" height="145.4"/>
	<rect x="696.4" y="201.1" class="st4" width="24.3" height="7.3"/>
	<rect x="696.4" y="116.2" class="st4" width="24.3" height="7.3"/>
	<rect x="108.4" y="269.4" class="st5" width="996.7" height="76.3"/>
	<rect x="120.8" y="257.7" class="st5" width="569.6" height="24.9"/>
	<polygon class="st5" points="768.3,54.8 866,54.8 866,58.9 878.6,58.9 878.6,70.1 751.8,70.1 751.8,58.9 768.3,58.9 	"/>
	<polygon class="st6" points="768.3,47.2 866,47.2 866,51.3 878.6,51.3 878.6,62.4 751.8,62.4 751.8,51.3 768.3,51.3 	"/>
	<path class="st6" d="M430.6,354.8l0.7-1.2h10.5l0.6,1.2h51.4v-3.3h11.7v3.3h40.2l0.5-1.2h8.2l0.5,1.2h176.9
		c0.8-5.6,0.8-11.1-0.1-16.7l-1.8-10.7H356.9l0.8,27.5L430.6,354.8L430.6,354.8z"/>
	<rect x="121.5" y="72.4" class="st6" width="531.1" height="191.6"/>
	<rect x="121.5" y="218.9" class="st5" width="531.1" height="8.6"/>
	<rect x="121.5" y="247.4" class="st5" width="531.1" height="4.3"/>
	<rect x="600.3" y="83.8" class="st5" width="20.6" height="125.1"/>
	<rect x="562.5" y="83.8" class="st5" width="20.6" height="125.1"/>
	<rect x="525" y="83.8" class="st5" width="20.6" height="125.1"/>
	<rect x="487.3" y="83.8" class="st5" width="20.6" height="125.1"/>
	<rect x="449.6" y="83.8" class="st5" width="20.6" height="125.1"/>
	<rect x="412" y="83.8" class="st5" width="20.6" height="125.1"/>
	<rect x="374.4" y="83.8" class="st5" width="20.6" height="125.1"/>
	<rect x="336.7" y="83.8" class="st5" width="20.6" height="125.1"/>
	<rect x="299.1" y="83.8" class="st5" width="20.6" height="125.1"/>
	<rect x="261.5" y="83.8" class="st5" width="20.6" height="125.1"/>
	<rect x="223.8" y="83.8" class="st5" width="20.6" height="125.1"/>
	<rect x="186.2" y="83.8" class="st5" width="20.6" height="125.1"/>
	<rect x="148.6" y="83.8" class="st5" width="20.6" height="125.1"/>
	<path class="st6" d="M108.5,304.5h13V54.1H98v240.2C98,300,102.7,304.5,108.5,304.5L108.5,304.5z"/>
	<rect x="60.2" y="54" class="st6" width="39.5" height="217.1"/>
	<path class="st5" d="M650.8,272.5h39.5V68.1c0-7-5.8-12.7-13-12.7l0,0h-26.7L650.8,272.5L650.8,272.5z"/>
	<rect x="100.1" y="294" class="st7" width="8.3" height="108.6"/>
	<rect x="247.4" y="331.9" class="st5" width="46.6" height="8.9"/>
	<rect x="280.5" y="328" class="st5" width="9" height="7.8"/>
	<rect x="267.2" y="330.4" class="st5" width="9" height="7.8"/>
	<rect x="253.9" y="328" class="st5" width="9" height="7.8"/>
	<polygon class="st6" points="43.7,242.9 43.7,75.6 48.1,75.6 48.1,54.1 60.2,54.1 60.2,271.2 48.1,271.2 48.1,242.9 	"/>
	<path class="st7" d="M61.4,272.5v-22.9h34.1v19.3c0,2.4-0.9,4.6-2.5,6.3l-14.5,15.3H35.3v-18L61.4,272.5L61.4,272.5z"/>
	<rect x="85.3" y="297.1" class="st7" width="14.8" height="39.8"/>
	<ellipse class="st5" cx="79.7" cy="74.8" rx="10.5" ry="10.2"/>
	<path class="st5" d="M69.2,216.7c0,5.7,4.7,10.2,10.5,10.2c5.8,0,10.5-4.6,10.5-10.2s-4.7-10.2-10.5-10.2
		C73.9,206.5,69.2,211.1,69.2,216.7L69.2,216.7z"/>
	<path class="st5" d="M1111.9,320.8l-5.5-93.2c0,0,2.7-20.2-35.7-28.8c-38.4-8.7-143.5-33.5-143.5-33.5l-27.7-77.6H725v277.6h176.2
		v-15.9h210.7V320.8z"/>
	<polygon class="st7" points="1098.2,318.9 1098.2,349.3 923.6,349.3 923.6,365.2 718,365.2 718,318.9 	"/>
	<path class="st8" d="M425.4,366c0.1,38.8-32.3,70.3-72.2,70.4c-39.9,0.1-72.3-31.4-72.4-70.2s32.3-70.3,72.2-70.4h0.1
		C393,295.9,425.3,327.3,425.4,366L425.4,366z"/>
	<path d="M425.4,366c0.1,38.8-32.3,70.3-72.2,70.4c-39.9,0.1-72.3-31.4-72.4-70.2s32.3-70.3,72.2-70.4h0.1
		C393,295.9,425.3,327.3,425.4,366L425.4,366z"/>
	
		<radialGradient id="SVGID_1_" cx="3537.26" cy="1775.1422" r="66.09" gradientTransform="matrix(-0.9385 0 0 0.9126 3672.8232 -1253.9482)" gradientUnits="userSpaceOnUse">
		<stop  offset="0" style="stop-color:#231F20"/>
		<stop  offset="0.41" style="stop-color:#252122"/>
		<stop  offset="0.56" style="stop-color:#2B2729"/>
		<stop  offset="0.67" style="stop-color:#353334"/>
		<stop  offset="0.74" style="stop-color:#414042"/>
		<stop  offset="0.77" style="stop-color:#4D4D4F"/>
		<stop  offset="0.8" style="stop-color:#555658"/>
		<stop  offset="0.85" style="stop-color:#58595B"/>
		<stop  offset="0.92" style="stop-color:#414042"/>
	</radialGradient>
	<path class="st9" d="M415.2,366c0,33.3-27.7,60.2-61.9,60.2s-61.9-26.9-61.9-60.2s27.7-60.2,61.9-60.2l0,0l0,0
		C387.5,305.8,415.2,332.7,415.2,366z"/>
	<path class="st1" d="M406.4,366c0,28.6-23.7,51.7-53.1,51.7c-29.4,0-53.2-23.1-53.2-51.7s23.7-51.7,53.1-51.7
		S406.4,337.5,406.4,366L406.4,366z"/>
	<path class="st10" d="M406.4,366c0,28.6-23.7,51.7-53.1,51.7c-29.4,0-53.2-23.1-53.2-51.7s23.7-51.7,53.1-51.7
		S406.4,337.5,406.4,366L406.4,366z"/>
	<path class="st11" d="M390.7,366c0,20.2-16.8,36.5-37.5,36.5c-20.7,0-37.5-16.3-37.5-36.5s16.8-36.5,37.5-36.5
		C373.9,329.5,390.7,345.9,390.7,366z"/>
	
		<linearGradient id="SVGID_2_" gradientUnits="userSpaceOnUse" x1="3490.9402" y1="1745.7838" x2="3512.5906" y2="1745.7838" gradientTransform="matrix(-1 0 0 1 3876.0601 -1396.4)">
		<stop  offset="3.000000e-02" style="stop-color:#6D6E71"/>
		<stop  offset="0.25" style="stop-color:#BCBEC0"/>
		<stop  offset="0.52" style="stop-color:#D1D3D4"/>
		<stop  offset="0.69" style="stop-color:#BCBEC0"/>
		<stop  offset="0.98" style="stop-color:#58595B"/>
	</linearGradient>
	<path class="st12" d="M363.5,353.8l11.7-14.4c4.1,3.2,7.5,7.3,9.9,12l-17,8C367,357.2,365.4,355.3,363.5,353.8z"/>
	
		<linearGradient id="SVGID_3_" gradientUnits="userSpaceOnUse" x1="3515.1147" y1="1737.7129" x2="3530.8809" y2="1737.7129" gradientTransform="matrix(-1 0 0 1 3876.0601 -1396.4)">
		<stop  offset="3.000000e-02" style="stop-color:#6D6E71"/>
		<stop  offset="0.25" style="stop-color:#BCBEC0"/>
		<stop  offset="0.52" style="stop-color:#D1D3D4"/>
		<stop  offset="0.69" style="stop-color:#BCBEC0"/>
		<stop  offset="0.98" style="stop-color:#58595B"/>
	</linearGradient>
	<path class="st13" d="M345.2,332.8c5.2-1.2,10.6-1.2,15.8-0.1l-4.1,18c-2.4-0.5-5-0.5-7.4,0L345.2,332.8z"/>
	<path class="st8" d="M263.3,366c0.1,38.8-32.3,70.3-72.2,70.4c-39.9,0.1-72.3-31.4-72.4-70.2c-0.1-38.8,32.3-70.3,72.2-70.4h0.1
		C230.9,295.9,263.2,327.3,263.3,366z"/>
	<path d="M263.3,366c0.1,38.8-32.3,70.3-72.2,70.4c-39.9,0.1-72.3-31.4-72.4-70.2c-0.1-38.8,32.3-70.3,72.2-70.4h0.1
		C230.9,295.9,263.2,327.3,263.3,366z"/>
	
		<radialGradient id="SVGID_4_" cx="3860.8601" cy="-398.1422" r="66" gradientTransform="matrix(0.9385 0 0 -0.9126 -14.2507 -157.0084)" gradientUnits="userSpaceOnUse">
		<stop  offset="0" style="stop-color:#231F20"/>
		<stop  offset="0.41" style="stop-color:#252122"/>
		<stop  offset="0.56" style="stop-color:#2B2729"/>
		<stop  offset="0.67" style="stop-color:#353334"/>
		<stop  offset="0.74" style="stop-color:#414042"/>
		<stop  offset="0.77" style="stop-color:#4D4D4F"/>
		<stop  offset="0.8" style="stop-color:#555658"/>
		<stop  offset="0.85" style="stop-color:#58595B"/>
		<stop  offset="0.92" style="stop-color:#414042"/>
	</radialGradient>
	<path class="st14" d="M253,366c0,33.3-27.7,60.2-61.9,60.2s-61.9-26.9-61.9-60.2s27.7-60.2,61.9-60.2l0,0l0,0
		C225.3,305.8,253,332.7,253,366z"/>
	<path class="st1" d="M244.2,366c0,28.6-23.7,51.7-53.1,51.7s-53.2-23.1-53.2-51.7s23.7-51.7,53.1-51.7S244.2,337.5,244.2,366
		L244.2,366z"/>
	<path class="st10" d="M244.2,366c0,28.6-23.7,51.7-53.1,51.7s-53.2-23.1-53.2-51.7s23.7-51.7,53.1-51.7S244.2,337.5,244.2,366
		L244.2,366z"/>
	<path class="st11" d="M228.6,366c0,20.2-16.8,36.5-37.5,36.5s-37.5-16.3-37.5-36.5s16.8-36.5,37.5-36.5S228.6,345.9,228.6,366z"/>
	
		<linearGradient id="SVGID_5_" gradientUnits="userSpaceOnUse" x1="3653.0308" y1="1745.7838" x2="3674.6904" y2="1745.7838" gradientTransform="matrix(-1 0 0 1 3876.0601 -1396.4)">
		<stop  offset="3.000000e-02" style="stop-color:#6D6E71"/>
		<stop  offset="0.25" style="stop-color:#BCBEC0"/>
		<stop  offset="0.52" style="stop-color:#D1D3D4"/>
		<stop  offset="0.69" style="stop-color:#BCBEC0"/>
		<stop  offset="0.98" style="stop-color:#58595B"/>
	</linearGradient>
	<path class="st15" d="M201.4,353.8l11.7-14.4c4.1,3.2,7.5,7.3,9.9,12l-17,8C204.9,357.2,203.4,355.4,201.4,353.8z"/>
	
		<linearGradient id="SVGID_6_" gradientUnits="userSpaceOnUse" x1="3677.2056" y1="1737.7129" x2="3692.9905" y2="1737.7129" gradientTransform="matrix(-1 0 0 1 3876.0601 -1396.4)">
		<stop  offset="3.000000e-02" style="stop-color:#6D6E71"/>
		<stop  offset="0.25" style="stop-color:#BCBEC0"/>
		<stop  offset="0.52" style="stop-color:#D1D3D4"/>
		<stop  offset="0.69" style="stop-color:#BCBEC0"/>
		<stop  offset="0.98" style="stop-color:#58595B"/>
	</linearGradient>
	<path class="st16" d="M183.1,332.8c5.2-1.2,10.6-1.2,15.8-0.1l-4.1,18c-2.4-0.5-5-0.5-7.4,0L183.1,332.8z"/>
	<rect x="45" y="323.1" class="st7" width="10.9" height="48.7"/>
	<rect x="35.6" y="323.2" class="st7" width="10.9" height="53.3"/>
	<path class="st17" d="M888.4,168.2l36.8-2.5l-27.7-74.6h-24.6c-7.9,0-13.8,6.8-12.2,14l11.2,50.6
		C873.8,163.1,880.6,168.2,888.4,168.2z"/>
	<path class="st6" d="M730.2,91.1h182.7V80.9c0-7-5.9-12.8-13.1-12.8h-163c-3.7,0-6.6,2.8-6.6,6.4V91.1z"/>
	<polygon class="st6" points="666.9,246.9 666.9,96.2 670.4,96.2 670.4,76.8 680.4,76.8 680.4,272.5 670.4,272.5 670.4,246.9 	"/>
	<polygon class="st6" points="660.1,246.9 660.1,96.2 663.7,96.2 663.7,76.8 673.6,76.8 673.6,272.5 663.7,272.5 663.7,246.9 	"/>
	<polygon class="st6" points="650.8,54.7 729.2,10.4 823,10.4 838.2,34.5 738.1,34.5 690.4,72.4 672.5,72.4 670.7,72.4 121.4,72.4 
		121.4,54.7 	"/>
	<rect x="730.6" y="317.5" class="st5" width="142.9" height="49.1"/>
	<polygon class="st5" points="749.3,297.1 859.5,297.1 859.5,302.5 873.6,302.5 873.6,317.5 730.7,317.5 730.7,302.5 749.3,302.5 	
		"/>
	<path class="st6" d="M860.5,180c11.9,0.7,23.8,1.7,35.8,2.8c19.5,2.2,38.9,4.7,58.3,8s38.6,7.2,57.8,11.4l28.8,6.4
		c9.6,2.1,19.2,4.1,28.4,7.9c4.7,1.9,9,4.4,13,7.4c4.1,3.1,7.6,6.9,10.4,11.2c0.7,1.1,1.4,2.2,2,3.4l1.7,3.6c1,2.5,1.9,4.9,2.6,7.5
		c1.6,5,2.8,10.2,3.8,15.4c3.9,20.9,4.3,42.3,8.3,63.2h-0.1c-4-20.9-4.5-42.3-8.5-63.2c-0.9-5.2-2.3-10.4-3.8-15.4
		c-0.8-2.6-1.7-4.9-2.6-7.4l-1.7-3.5c-0.6-1.2-1.3-2.2-2-3.3c-2.8-4.2-6.3-7.9-10.3-11c-3.9-2.9-8.4-5.4-13-7.2
		c-9.1-3.8-18.8-5.7-28.3-7.8l-28.8-6.3c-19.2-4.1-38.5-7.9-57.8-11.1c-19.3-3.2-38.8-5.7-58.3-7.8c-11.8-1.1-23.7-2.1-35.6-2.8
		L860.5,180L860.5,180z"/>
	<path class="st6" d="M884.1,167c11.8,1.4,23.7,2.9,35.5,4.7c19.3,3.1,38.7,6.8,57.8,11c19.1,4.3,38.2,9.1,57.2,14.3l28.4,7.8
		c8.4,2.4,17,4.6,25.2,8c-0.2,0.2-0.3,0.5-0.4,0.6c-8.1-3.5-16.5-5.6-25-7.8l-28.4-7.8c-19-5.1-38-9.9-57.2-14.1
		s-38.4-7.7-57.7-10.8c-11.7-1.7-23.6-3.3-35.4-4.7V167z"/>
	<path class="st17" d="M860.5,168.2l-13.6-49.6c-1.8-6.6-8-11.1-14.9-11.1h-59.8c-5.6,0-10.2,4.5-10.2,9.9v45.3c0,4.8,4,8.8,9,8.8
		h30.6c6.1,0,11.7,2.9,15.2,7.8l7.6,10.8h25.9c5.7,0,10.3-4.5,10.3-10L860.5,168.2L860.5,168.2z"/>
	<path class="st5" d="M770.9,171.5h30.6c6.1,0,11.7,2.9,15.2,7.8l7.6,10.8h25.9c5.7,0,10.3-4.5,10.3-10l0,0v92.4
		c0,9.2-5.1,16.7-11.3,16.7h-75.8c-6.2,0-11.3-7.5-11.3-16.7V164.5C763,168.6,766.6,171.5,770.9,171.5z"/>
	<polygon class="st6" points="825.7,276.3 847.6,276.3 847.6,277.7 850.4,277.7 850.4,281.4 822,281.4 822,277.7 825.7,277.7 	"/>
	<polygon class="st6" points="825.7,273.9 847.6,273.9 847.6,275.1 850.4,275.1 850.4,278.9 822,278.9 822,275.1 825.7,275.1 	"/>
	<path class="st18" d="M778.4,268.8c0,0.5,0.3,0.8,0.7,0.8h6.7c0.5,0,0.8-0.4,0.8-0.8v-7.8c0-0.5-0.3-0.8-0.7-0.8h-6.7
		c-0.5,0-0.8,0.4-0.8,0.8V268.8z"/>
	<path class="st1" d="M778.1,268.8v-7.8c0-0.6,0.4-1.1,1-1.2h6.6c0.7,0.1,1,0.5,1,1.2v7.8c0,0.6-0.4,1.1-1,1.2h-6.6
		C778.5,269.9,778.1,269.5,778.1,268.8z M779,260.5c-0.3,0-0.5,0.3-0.5,0.5v7.8c0,0.3,0.2,0.5,0.5,0.5h6.6c0.3,0,0.5-0.3,0.5-0.5
		v-7.8c0-0.3-0.2-0.5-0.5-0.5H779z"/>
	<path class="st19" d="M768.3,268.8c0,0.5,0.3,0.8,0.7,0.8h6.7c0.5,0,0.8-0.4,0.8-0.8v-7.8c0-0.5-0.3-0.8-0.7-0.8h-6.7
		c-0.5,0-0.8,0.4-0.8,0.8V268.8z"/>
	<path class="st1" d="M768.1,268.8v-7.8c0-0.6,0.4-1.1,1-1.2h6.6c0.7,0.1,1,0.5,1,1.2v7.8c0,0.6-0.4,1.1-1,1.2h-6.6
		C768.6,270,768.1,269.5,768.1,268.8C768.1,268.9,768.1,268.9,768.1,268.8C768.1,268.9,768.1,268.8,768.1,268.8z M769.1,260.5
		c-0.3,0-0.5,0.3-0.5,0.5v7.8c0,0.3,0.2,0.5,0.5,0.5h6.6c0.3,0,0.5-0.3,0.5-0.5v-7.8c0-0.3-0.2-0.5-0.5-0.5H769.1z"/>
	<path class="st1" d="M1091.6,338l-21.5-49.2c-3.7-8.4-11.3-13.8-19.7-13.9l-88.4-1.1c-6.9-0.1-13.4,3.4-17.6,9.3l-50.3,70.6h197.5
		V338z"/>
	<path class="st20" d="M1078.8,341.3v-0.8l-20.5-46.9c-1.6-3.7-4.8-6.2-8.1-6.2l-88.4-1.1c-2.6,0-5.1,1.5-6.9,3.9l121.2,51
		L1078.8,341.3L1078.8,341.3z"/>
	<path class="st8" d="M1076.1,366c0.1,38.8-32.3,70.3-72.2,70.4c-39.9,0.1-72.3-31.4-72.4-70.2s32.3-70.3,72.2-70.4h0.1
		C1043.8,295.9,1076.1,327.3,1076.1,366z"/>
	<path d="M1076.1,366c0.1,38.8-32.3,70.3-72.2,70.4c-39.9,0.1-72.3-31.4-72.4-70.2s32.3-70.3,72.2-70.4h0.1
		C1043.8,295.9,1076.1,327.3,1076.1,366z"/>
	
		<radialGradient id="SVGID_7_" cx="2994.6599" cy="-398.1422" r="66" gradientTransform="matrix(0.9385 0 0 -0.9126 -14.2507 -157.0084)" gradientUnits="userSpaceOnUse">
		<stop  offset="0" style="stop-color:#231F20"/>
		<stop  offset="0.41" style="stop-color:#252122"/>
		<stop  offset="0.56" style="stop-color:#2B2729"/>
		<stop  offset="0.67" style="stop-color:#353334"/>
		<stop  offset="0.74" style="stop-color:#414042"/>
		<stop  offset="0.77" style="stop-color:#4D4D4F"/>
		<stop  offset="0.8" style="stop-color:#555658"/>
		<stop  offset="0.85" style="stop-color:#58595B"/>
		<stop  offset="0.92" style="stop-color:#414042"/>
	</radialGradient>
	<path class="st21" d="M1065.9,366c0,33.3-27.7,60.2-61.9,60.2S942,399.3,942,366s27.7-60.2,61.9-60.2l0,0l0,0
		C1038.2,305.8,1065.9,332.7,1065.9,366z"/>
	<path class="st1" d="M1057.1,366c0,28.6-23.7,51.7-53.1,51.7c-29.4,0-53.2-23.1-53.2-51.7s23.7-51.7,53.1-51.7l0,0l0,0
		C1033.3,314.4,1057,337.5,1057.1,366z"/>
	<path class="st10" d="M1057.1,366c0,28.6-23.7,51.7-53.1,51.7c-29.4,0-53.2-23.1-53.2-51.7s23.7-51.7,53.1-51.7l0,0l0,0
		C1033.3,314.4,1057,337.5,1057.1,366z"/>
	<path class="st11" d="M1041.5,366c0,20.2-16.8,36.5-37.5,36.5s-37.5-16.3-37.5-36.5s16.8-36.5,37.5-36.5S1041.5,345.9,1041.5,366z"
		/>
	
		<linearGradient id="SVGID_8_" gradientUnits="userSpaceOnUse" x1="2840.1658" y1="1745.7838" x2="2861.8252" y2="1745.7838" gradientTransform="matrix(-1 0 0 1 3876.0601 -1396.4)">
		<stop  offset="3.000000e-02" style="stop-color:#6D6E71"/>
		<stop  offset="0.25" style="stop-color:#BCBEC0"/>
		<stop  offset="0.52" style="stop-color:#D1D3D4"/>
		<stop  offset="0.69" style="stop-color:#BCBEC0"/>
		<stop  offset="0.98" style="stop-color:#58595B"/>
	</linearGradient>
	<path class="st22" d="M1014.2,353.8l11.7-14.4c4.1,3.2,7.5,7.3,9.9,12l-17,8C1017.8,357.2,1016.2,355.3,1014.2,353.8z"/>
	
		<linearGradient id="SVGID_9_" gradientUnits="userSpaceOnUse" x1="2864.3311" y1="1737.7129" x2="2880.116" y2="1737.7129" gradientTransform="matrix(-1 0 0 1 3876.0601 -1396.4)">
		<stop  offset="3.000000e-02" style="stop-color:#6D6E71"/>
		<stop  offset="0.25" style="stop-color:#BCBEC0"/>
		<stop  offset="0.52" style="stop-color:#D1D3D4"/>
		<stop  offset="0.69" style="stop-color:#BCBEC0"/>
		<stop  offset="0.98" style="stop-color:#58595B"/>
	</linearGradient>
	<path class="st23" d="M995.9,332.8c5.2-1.2,10.6-1.2,15.8-0.1l-4.1,18c-2.4-0.5-5-0.5-7.4,0L995.9,332.8z"/>
	<path class="st6" d="M63.6,225.9c0.3-0.3,0.7-0.5,1-0.7c-2.3-10.4-6.4-16-9.5-18.8c-0.3,0.3-0.7,0.5-1,0.6
		C57.3,209.7,61.3,215.2,63.6,225.9z"/>
	<path class="st5" d="M884.5,183c-0.4-0.2-0.7-0.4-1-0.5c2.3-7.8,6.4-12,9.5-14.2c0.4,0.2,0.7,0.4,1,0.5
		C891,170.7,887,174.8,884.5,183z"/>
	<path class="st24" d="M886.2,219.3c0.8,0.7,0.2,3.2-1.3,5.5l-12.5,19.7c-1.5,2.3-3.3,3.6-4,2.8l-1.8-1.7c-0.8-0.7-0.2-3.2,1.3-5.5
		l12.5-19.7c1.5-2.3,3.3-3.6,4-2.8L886.2,219.3z"/>
	<path class="st25" d="M873.6,231.1l-5.7,9c-1.5,2.3-2.1,4.7-1.3,5.5l1.8,1.7c0.8,0.7,2.5-0.5,4-2.8l5.7-9L873.6,231.1z"/>
	<path class="st26" d="M873.6,230.6l4.9,4.8l-5.9,9.3c-1.6,2.6-3.5,3.7-4.4,2.8l-1.8-1.7c-0.9-0.9-0.4-3.5,1.2-6L873.6,230.6z
		 M877.8,235.5l-4-4l-5.6,8.8c-1.5,2.3-1.9,4.5-1.3,5l1.8,1.7c0.6,0.5,2.2-0.5,3.7-2.7L877.8,235.5z"/>
	<path class="st6" d="M889.9,192.7h8.4c-1.9,0-3.8,0.3-5.6,0.7c3.8,1.1,6.9,3.3,8.4,6.2l6.8,13.8h-8.4l-6.8-13.8
		c-1.4-2.8-4.5-5-8.4-6.2C886.1,193,888,192.7,889.9,192.7z"/>
	<path class="st6" d="M899.3,192.7h8.4c6.3,0,11.9,2.8,13.9,6.9l6.8,13.8H920l-6.8-13.8C911.3,195.6,905.6,192.7,899.3,192.7z"/>
	<path class="st6" d="M916.6,192.7h8.4c6.3,0,11.9,2.8,13.9,6.9l6.8,13.8h-8.4l-6.8-13.8C928.4,195.6,922.9,192.7,916.6,192.7z"/>
	<rect x="868.2" y="320.3" class="st5" width="50.7" height="42.3"/>
	<path class="st1" d="M888,261.1c0,1.6-1.4,3-3.1,3s-3.1-1.4-3.1-3c0-1.6,1.4-3,3.1-3l0,0l0,0c1.6-0.1,3,1.2,3.1,2.7l0,0
		C888,260.9,888,261,888,261.1z"/>
	
		<radialGradient id="SVGID_10_" cx="2970.76" cy="1660.1123" r="3.3348" gradientTransform="matrix(-0.9385 0 0 0.9126 3672.8232 -1253.9482)" gradientUnits="userSpaceOnUse">
		<stop  offset="0" style="stop-color:#231F20"/>
		<stop  offset="0.47" style="stop-color:#252122"/>
		<stop  offset="0.64" style="stop-color:#2B2729"/>
		<stop  offset="0.77" style="stop-color:#353334"/>
		<stop  offset="0.85" style="stop-color:#414042"/>
		<stop  offset="0.99" style="stop-color:#414042"/>
	</radialGradient>
	<path class="st27" d="M888,261.1c0,1.6-1.4,3-3.1,3s-3.1-1.4-3.1-3c0-1.6,1.4-3,3.1-3l0,0l0,0c1.6-0.1,3,1.2,3.1,2.7l0,0
		C888,260.9,888,261,888,261.1z"/>
	<path class="st28" d="M887.1,261.1c0,1.2-1,2.2-2.3,2.2s-2.3-1-2.3-2.2s1-2.2,2.3-2.2C886.1,258.9,887.1,259.9,887.1,261.1z"/>
	<path class="st8" d="M882.6,261.1c0-1.2,1-2.2,2.3-2.2s2.3,1,2.3,2.2s-1,2.2-2.3,2.2S882.6,262.3,882.6,261.1z M882.7,261.1
		c0,1.2,0.9,2.1,2.2,2.1s2.2-0.9,2.2-2.1s-0.9-2.1-2.2-2.1l0,0l0,0c-1.1-0.1-2.1,0.8-2.2,1.9l0,0V261.1z"/>
	<path class="st18" d="M886.6,261.1c0,0.9-0.8,1.6-1.7,1.6s-1.7-0.7-1.7-1.6s0.8-1.6,1.7-1.6l0,0l0,0
		C885.8,259.4,886.6,260.2,886.6,261.1L886.6,261.1L886.6,261.1z"/>
	<path class="st1" d="M883.1,261.1c0-0.9,0.8-1.7,1.8-1.7c0.9,0,1.8,0.8,1.8,1.7s-0.8,1.7-1.8,1.7
		C883.9,262.8,883.1,262.1,883.1,261.1L883.1,261.1L883.1,261.1z M883.3,261.1c0,0.8,0.8,1.6,1.6,1.6c0.8,0,1.6-0.7,1.6-1.6
		c0-0.8-0.8-1.6-1.6-1.6S883.3,260.3,883.3,261.1z"/>
	<path class="st1" d="M888,291.7c0,1.6-1.4,3-3.1,3s-3.1-1.4-3.1-3s1.4-3,3.1-3l0,0l0,0C886.6,288.7,888,289.9,888,291.7
		C888,291.6,888,291.6,888,291.7L888,291.7z"/>
	
		<radialGradient id="SVGID_11_" cx="3121.55" cy="-479.6223" r="3.34" gradientTransform="matrix(0.9385 0 0 -0.9126 -14.2507 -157.0084)" gradientUnits="userSpaceOnUse">
		<stop  offset="0" style="stop-color:#231F20"/>
		<stop  offset="0.47" style="stop-color:#252122"/>
		<stop  offset="0.64" style="stop-color:#2B2729"/>
		<stop  offset="0.77" style="stop-color:#353334"/>
		<stop  offset="0.85" style="stop-color:#414042"/>
		<stop  offset="0.99" style="stop-color:#414042"/>
	</radialGradient>
	<path class="st29" d="M888,291.7c0,1.6-1.4,3-3.1,3s-3.1-1.4-3.1-3s1.4-3,3.1-3l0,0l0,0C886.6,288.7,888,289.9,888,291.7
		C888,291.6,888,291.6,888,291.7L888,291.7z"/>
	<path class="st28" d="M887.1,291.7c0,1.2-1,2.2-2.3,2.2s-2.3-1-2.3-2.2s1-2.2,2.3-2.2C886.1,289.6,887,290.5,887.1,291.7z"/>
	<path class="st8" d="M882.6,291.7c0-1.2,1-2.2,2.3-2.2s2.3,1,2.3,2.2s-1,2.2-2.3,2.2S882.6,292.8,882.6,291.7z M882.7,291.7
		c0,1.2,0.9,2.1,2.2,2.1s2.2-0.9,2.2-2.1s-0.9-2.1-2.2-2.1l0,0l0,0C883.8,289.6,882.7,290.5,882.7,291.7
		C882.7,291.6,882.7,291.6,882.7,291.7L882.7,291.7z"/>
	<path class="st18" d="M886.6,291.7c0,0.9-0.8,1.6-1.7,1.6s-1.7-0.7-1.7-1.6s0.8-1.6,1.7-1.6l0,0l0,0
		C885.8,290,886.6,290.7,886.6,291.7L886.6,291.7L886.6,291.7z"/>
	<path class="st1" d="M883.1,291.7c0-0.9,0.8-1.7,1.8-1.7c0.9,0,1.8,0.8,1.8,1.7s-0.8,1.7-1.8,1.7c-0.9,0.1-1.7-0.6-1.8-1.6
		C883.1,291.8,883.1,291.8,883.1,291.7z M883.3,291.7c0,0.8,0.8,1.6,1.6,1.6c0.8,0,1.6-0.7,1.6-1.6c0-0.8-0.8-1.6-1.6-1.6
		C884,290.2,883.4,290.8,883.3,291.7z"/>
	<path d="M666.2,290.8c1.5,0,2.6,1.2,2.6,2.6c0,1.5-1.2,2.6-2.7,2.6c-1.5,0-2.6-1.2-2.6-2.6C663.5,291.9,664.7,290.8,666.2,290.8
		C666.1,290.8,666.1,290.8,666.2,290.8L666.2,290.8z"/>
	<path d="M666.2,290.8c1.5,0,2.6,1.2,2.6,2.6c0,1.5-1.2,2.6-2.7,2.6c-1.5,0-2.6-1.2-2.6-2.6C663.5,291.9,664.7,290.8,666.2,290.8
		C666.1,290.8,666.1,290.8,666.2,290.8L666.2,290.8z"/>
	<path d="M666.1,291.6c1,0,1.9,0.8,1.9,1.8c0,1-0.8,1.8-1.9,1.8s-1.9-0.8-1.9-1.8C664.3,292.4,665.1,291.6,666.1,291.6z"/>
	<path d="M666.1,295.3c-1,0-1.9-0.9-1.9-1.9c0-1,0.9-1.8,2-1.8s1.9,0.9,1.9,1.9C668,294.5,667.2,295.3,666.1,295.3z M666.1,295.2
		c1,0,1.9-0.8,1.9-1.8c0-1-0.8-1.8-1.9-1.8s-1.9,0.8-1.9,1.8C664.3,294.4,665.1,295.2,666.1,295.2z"/>
	<path d="M666.2,292c0.8,0,1.4,0.6,1.4,1.5c0,0.8-0.7,1.4-1.5,1.4c-0.8,0-1.4-0.6-1.4-1.5C664.7,292.6,665.4,292,666.2,292z"/>
	<path d="M666.1,294.9c-0.8,0-1.5-0.7-1.5-1.6c0-0.8,0.8-1.5,1.6-1.5c0.8,0,1.5,0.7,1.5,1.6S667,294.9,666.1,294.9L666.1,294.9z
		 M666.1,294.8c0.8,0,1.4-0.5,1.4-1.3s-0.6-1.4-1.3-1.4c-0.8,0-1.4,0.5-1.4,1.3S665.4,294.8,666.1,294.8L666.1,294.8z"/>
	<path d="M693.1,291.1c1.5,0,2.6,1.2,2.6,2.6c0,1.5-1.2,2.6-2.7,2.6s-2.6-1.2-2.6-2.6S691.6,291.1,693.1,291.1z"/>
	<path d="M693.1,291.1c1.5,0,2.6,1.2,2.6,2.6c0,1.5-1.2,2.6-2.7,2.6s-2.6-1.2-2.6-2.6S691.6,291.1,693.1,291.1z"/>
	<path d="M693.1,291.9c1,0,1.9,0.8,1.9,1.8c0,1-0.8,1.8-1.9,1.8s-1.9-0.8-1.9-1.8c-0.1-0.9,0.6-1.7,1.6-1.8H693.1z"/>
	<path d="M693,295.6c-1,0-1.9-0.9-1.9-1.9c0-1,0.9-1.8,2-1.8s1.9,0.9,1.9,1.9C694.9,294.8,694,295.6,693,295.6z M693,295.5
		c1,0,1.9-0.8,1.9-1.8c0-1-0.8-1.8-1.9-1.8s-1.9,0.8-1.9,1.8C691.1,294.7,691.9,295.5,693,295.5z"/>
	<path d="M693.1,292.3c0.8,0,1.4,0.6,1.4,1.5c0,0.8-0.7,1.4-1.5,1.4c-0.8,0-1.4-0.6-1.4-1.5C691.6,292.8,692.2,292.3,693.1,292.3z"
		/>
	<path d="M693.1,295.2c-0.8,0-1.5-0.7-1.5-1.6c0-0.8,0.8-1.5,1.6-1.5c0.8,0,1.5,0.7,1.5,1.6C694.6,294.6,693.9,295.2,693.1,295.2z
		 M693.1,295c0.8,0,1.4-0.5,1.4-1.3c0-0.7-0.6-1.4-1.3-1.4c-0.8,0-1.4,0.5-1.4,1.3C691.7,294.4,692.2,294.9,693.1,295L693.1,295z"/>
	<path d="M666.2,312.4c1.5,0,2.6,1.2,2.6,2.6c0,1.5-1.2,2.6-2.7,2.6c-1.5,0-2.6-1.2-2.6-2.6C663.5,313.5,664.7,312.4,666.2,312.4
		C666.1,312.4,666.1,312.4,666.2,312.4L666.2,312.4z"/>
	<path d="M666.2,312.4c1.5,0,2.6,1.2,2.6,2.6c0,1.5-1.2,2.6-2.7,2.6c-1.5,0-2.6-1.2-2.6-2.6C663.5,313.5,664.7,312.4,666.2,312.4
		C666.1,312.4,666.1,312.4,666.2,312.4L666.2,312.4z"/>
	<path d="M666.1,313.1c1,0,1.9,0.8,1.9,1.8c0,1-0.8,1.8-1.9,1.8s-1.9-0.8-1.9-1.8C664.3,313.9,665.1,313.1,666.1,313.1z"/>
	<path d="M666.1,316.8c-1,0-1.9-0.9-1.9-1.9c0-1,0.9-1.8,2-1.8s1.9,0.9,1.9,1.9S667.3,316.8,666.1,316.8L666.1,316.8z M666.1,316.8
		c1,0,1.9-0.8,1.9-1.8c0-1-0.8-1.8-1.9-1.8s-1.9,0.8-1.9,1.8C664.3,315.9,665.1,316.8,666.1,316.8z"/>
	<path d="M666.2,313.6c0.8,0,1.4,0.6,1.4,1.5c0,0.8-0.7,1.4-1.5,1.4c-0.8,0-1.4-0.6-1.4-1.5C664.7,314.2,665.4,313.6,666.2,313.6
		L666.2,313.6z"/>
	<path d="M666.1,316.5c-0.8,0-1.5-0.7-1.5-1.6c0-0.8,0.8-1.5,1.6-1.5c0.8,0,1.5,0.7,1.5,1.6C667.6,315.8,667,316.5,666.1,316.5z
		 M666.1,316.3c0.8,0,1.4-0.5,1.4-1.3s-0.6-1.4-1.3-1.4c-0.8,0-1.4,0.5-1.4,1.3S665.4,316.3,666.1,316.3L666.1,316.3z"/>
	<path d="M693.1,312.7c1.5,0,2.6,1.2,2.6,2.6c0,1.5-1.2,2.6-2.7,2.6s-2.6-1.2-2.6-2.6C690.3,313.7,691.6,312.7,693.1,312.7
		C693,312.7,693,312.7,693.1,312.7L693.1,312.7z"/>
	<path d="M693.1,312.7c1.5,0,2.6,1.2,2.6,2.6c0,1.5-1.2,2.6-2.7,2.6s-2.6-1.2-2.6-2.6C690.3,313.7,691.6,312.7,693.1,312.7
		C693,312.7,693,312.7,693.1,312.7L693.1,312.7z"/>
	<path d="M693.1,313.4c1,0,1.9,0.8,1.9,1.8c0,1-0.8,1.8-1.9,1.8s-1.9-0.8-1.9-1.8C691.2,314.2,691.9,313.4,693.1,313.4L693.1,313.4
		L693.1,313.4z"/>
	<path d="M693,317.1c-1,0-1.9-0.9-1.9-1.9c0-1,0.9-1.8,2-1.8s1.9,0.9,1.9,1.9C694.9,316.3,694,317.1,693,317.1z M693,317
		c1,0,1.9-0.8,1.9-1.8c0-1-0.8-1.8-1.9-1.8s-1.9,0.8-1.9,1.8C691.1,316.2,691.9,317,693,317z"/>
	<path d="M693.1,313.8c0.8,0,1.4,0.6,1.4,1.5c0,0.8-0.7,1.4-1.5,1.4c-0.8,0-1.4-0.6-1.4-1.5C691.6,314.5,692.2,313.8,693.1,313.8
		L693.1,313.8z"/>
	<path d="M693.1,316.8c-0.8,0-1.5-0.7-1.5-1.6c0-0.8,0.8-1.5,1.6-1.5c0.8,0,1.5,0.7,1.5,1.6C694.6,316.1,693.9,316.8,693.1,316.8z
		 M693.1,316.6c0.8,0,1.4-0.5,1.4-1.3c0-0.7-0.6-1.4-1.3-1.4c-0.8,0-1.4,0.5-1.4,1.3C691.7,315.9,692.2,316.5,693.1,316.6
		L693.1,316.6z"/>
	<path d="M553,290.8c1.5,0,2.6,1.2,2.6,2.6c0,1.5-1.2,2.6-2.7,2.6c-1.5,0-2.6-1.2-2.6-2.6C550.3,291.9,551.5,290.8,553,290.8z"/>
	<path d="M553,290.8c1.5,0,2.6,1.2,2.6,2.6c0,1.5-1.2,2.6-2.7,2.6c-1.5,0-2.6-1.2-2.6-2.6C550.3,291.9,551.5,290.8,553,290.8z"/>
	<path d="M553,291.6c1,0,1.9,0.8,1.9,1.8c0,1-0.8,1.8-1.9,1.8c-1,0-1.9-0.8-1.9-1.8C551.2,292.4,552,291.6,553,291.6z"/>
	<path d="M553,295.3c-1,0-1.9-0.9-1.9-1.9c0-1,0.9-1.8,2-1.8s1.9,0.9,1.9,1.9C554.9,294.5,554.1,295.3,553,295.3z M553,295.2
		c1,0,1.9-0.8,1.9-1.8c0-1-0.8-1.8-1.9-1.8c-1,0-1.9,0.8-1.9,1.8C551.2,294.4,552,295.2,553,295.2z"/>
	<path d="M553,292c0.8,0,1.4,0.6,1.4,1.5c0,0.8-0.7,1.4-1.5,1.4s-1.4-0.6-1.4-1.5C551.6,292.7,552.3,292,553,292z"/>
	<path d="M553,294.9c-0.8,0-1.5-0.7-1.5-1.6c0-0.8,0.8-1.5,1.6-1.5c0.8,0,1.5,0.7,1.5,1.6S553.9,294.9,553,294.9L553,294.9z
		 M553,294.8c0.8,0,1.4-0.5,1.4-1.3s-0.6-1.4-1.3-1.4s-1.4,0.5-1.4,1.3S552.3,294.8,553,294.8L553,294.8z"/>
	<path d="M579.9,291.1c1.5,0,2.6,1.2,2.6,2.6c0,1.5-1.2,2.6-2.7,2.6c-1.5,0-2.6-1.2-2.6-2.6C577.3,292.3,578.5,291.1,579.9,291.1z"
		/>
	<path d="M579.9,291.1c1.5,0,2.6,1.2,2.6,2.6c0,1.5-1.2,2.6-2.7,2.6c-1.5,0-2.6-1.2-2.6-2.6C577.3,292.3,578.5,291.1,579.9,291.1z"
		/>
	<path d="M579.9,291.9c1,0,1.9,0.8,1.9,1.8c0,1-0.8,1.8-1.9,1.8c-1,0-1.9-0.8-1.9-1.8c-0.1-0.9,0.7-1.7,1.7-1.8H579.9z"/>
	<path d="M579.9,295.6c-1,0-1.9-0.9-1.9-1.9c0-1,0.9-1.8,2-1.8l0,0c1,0,1.9,0.8,1.9,1.8v0.1C581.8,294.8,580.9,295.6,579.9,295.6z
		 M579.9,295.5c1,0,1.9-0.8,1.9-1.8c0-1-0.8-1.8-1.9-1.8c-1,0-1.9,0.8-1.9,1.8C578,294.7,578.9,295.5,579.9,295.5z"/>
	<path d="M580,292.3c0.8,0,1.4,0.6,1.4,1.5c0,0.8-0.7,1.4-1.5,1.4s-1.4-0.6-1.4-1.5C578.5,292.8,579.1,292.3,580,292.3z"/>
	<path d="M579.9,295.2c-0.8,0-1.5-0.7-1.5-1.6c0-0.8,0.8-1.5,1.6-1.5c0.8,0,1.5,0.7,1.5,1.6C581.5,294.6,580.7,295.2,579.9,295.2
		L579.9,295.2z M579.9,295c0.8,0,1.4-0.5,1.4-1.3c0-0.7-0.6-1.4-1.3-1.4s-1.4,0.5-1.4,1.3C578.6,294.4,579.1,295,579.9,295
		L579.9,295z"/>
	<path d="M553,312.4c1.5,0,2.6,1.2,2.6,2.6c0,1.5-1.2,2.6-2.7,2.6c-1.5,0-2.6-1.2-2.6-2.6C550.3,313.5,551.5,312.4,553,312.4z"/>
	<path d="M553,312.4c1.5,0,2.6,1.2,2.6,2.6c0,1.5-1.2,2.6-2.7,2.6c-1.5,0-2.6-1.2-2.6-2.6C550.3,313.5,551.5,312.4,553,312.4z"/>
	<path d="M553,313.1c1,0,1.9,0.8,1.9,1.8c0,1-0.8,1.8-1.9,1.8c-1,0-1.9-0.8-1.9-1.8C551.2,313.9,552,313.1,553,313.1z"/>
	<path d="M553,316.8c-1,0-1.9-0.9-1.9-1.9c0-1,0.9-1.8,2-1.8s1.9,0.9,1.9,1.9S554.2,316.8,553,316.8L553,316.8z M553,316.8
		c1,0,1.9-0.8,1.9-1.8c0-1-0.8-1.8-1.9-1.8c-1,0-1.9,0.8-1.9,1.8C551.2,315.9,552,316.8,553,316.8z"/>
	<path d="M553,313.6c0.8,0,1.4,0.6,1.4,1.5c0,0.8-0.7,1.4-1.5,1.4s-1.4-0.6-1.4-1.5C551.6,314.2,552.3,313.6,553,313.6z"/>
	<path d="M553,316.5c-0.8,0-1.5-0.7-1.5-1.6c0-0.8,0.8-1.5,1.6-1.5c0.8,0,1.5,0.7,1.5,1.6C554.5,315.8,553.9,316.5,553,316.5z
		 M553,316.3c0.8,0,1.4-0.5,1.4-1.3s-0.6-1.4-1.3-1.4s-1.4,0.5-1.4,1.3S552.3,316.3,553,316.3L553,316.3z"/>
	<path d="M579.9,312.7c1.5,0,2.6,1.2,2.6,2.6c0,1.5-1.2,2.6-2.7,2.6c-1.5,0-2.6-1.2-2.6-2.6C577.3,313.8,578.5,312.7,579.9,312.7z"
		/>
	<path d="M579.9,312.7c1.5,0,2.6,1.2,2.6,2.6c0,1.5-1.2,2.6-2.7,2.6c-1.5,0-2.6-1.2-2.6-2.6C577.3,313.8,578.5,312.7,579.9,312.7z"
		/>
	<path d="M579.9,313.4c1,0,1.9,0.8,1.9,1.8c0,1-0.8,1.8-1.9,1.8c-1,0-1.9-0.8-1.9-1.8C578,314.2,578.9,313.4,579.9,313.4z"/>
	<path d="M579.9,317.1c-1,0-1.9-0.9-1.9-1.9c0-1,0.9-1.8,2-1.8s1.9,0.9,1.9,1.9C581.8,316.3,580.9,317.1,579.9,317.1z M579.9,317
		c1,0,1.9-0.8,1.9-1.8c0-1-0.8-1.8-1.9-1.8c-1,0-1.9,0.8-1.9,1.8C578,316.2,578.9,317,579.9,317z"/>
	<path d="M580,313.8c0.8,0,1.4,0.6,1.4,1.5c0,0.8-0.7,1.4-1.5,1.4s-1.4-0.6-1.4-1.5C578.5,314.5,579.1,313.8,580,313.8L580,313.8z"
		/>
	<path d="M579.9,316.8c-0.8,0-1.5-0.7-1.5-1.6c0-0.8,0.8-1.5,1.6-1.5c0.8,0,1.5,0.7,1.5,1.6C581.5,316.1,580.7,316.8,579.9,316.8
		L579.9,316.8z M579.9,316.6c0.8,0,1.4-0.5,1.4-1.3c0-0.7-0.6-1.4-1.3-1.4s-1.4,0.5-1.4,1.3C578.6,315.9,579.1,316.6,579.9,316.6
		L579.9,316.6z"/>
	<path d="M440,290.8c1.5,0,2.6,1.2,2.6,2.6c0,1.5-1.2,2.6-2.7,2.6s-2.6-1.2-2.6-2.6C437.2,291.9,438.5,290.8,440,290.8
		C439.9,290.8,439.9,290.8,440,290.8L440,290.8z"/>
	<path d="M440,290.8c1.5,0,2.6,1.2,2.6,2.6c0,1.5-1.2,2.6-2.7,2.6s-2.6-1.2-2.6-2.6C437.2,291.9,438.5,290.8,440,290.8
		C439.9,290.8,439.9,290.8,440,290.8L440,290.8z"/>
	<path d="M440,291.6c1,0,1.9,0.8,1.9,1.8c0,1-0.8,1.8-1.9,1.8c-1,0-1.9-0.8-1.9-1.8C438.1,292.4,438.9,291.6,440,291.6z"/>
	<path d="M439.9,295.3c-1,0-1.9-0.9-1.9-1.9c0-1,0.9-1.8,2-1.8c1,0,1.9,0.9,1.9,1.9C441.8,294.5,440.9,295.3,439.9,295.3z
		 M439.9,295.2c1,0,1.9-0.8,1.9-1.8c0-1-0.8-1.8-1.9-1.8s-1.9,0.8-1.9,1.8C438,294.4,438.8,295.2,439.9,295.2z"/>
	<path d="M440,292c0.8,0,1.4,0.6,1.4,1.5c0,0.8-0.7,1.4-1.5,1.4s-1.4-0.6-1.4-1.5C438.5,292.6,439.1,292,440,292z"/>
	<path d="M440,294.9c-0.8,0-1.5-0.7-1.5-1.6c0-0.8,0.8-1.5,1.6-1.5c0.8,0,1.5,0.7,1.5,1.6C441.5,294.3,440.8,294.9,440,294.9z
		 M440,294.8c0.8,0,1.4-0.5,1.4-1.3s-0.6-1.4-1.3-1.4c-0.8,0-1.4,0.5-1.4,1.3C438.6,294.1,439.1,294.7,440,294.8L440,294.8z"/>
	<path d="M466.8,291.1c1.5,0,2.6,1.2,2.6,2.6c0,1.5-1.2,2.6-2.7,2.6s-2.6-1.2-2.6-2.6S465.3,291.1,466.8,291.1z"/>
	<path d="M466.8,291.1c1.5,0,2.6,1.2,2.6,2.6c0,1.5-1.2,2.6-2.7,2.6s-2.6-1.2-2.6-2.6S465.3,291.1,466.8,291.1z"/>
	<path d="M466.8,291.9c1,0,1.9,0.8,1.9,1.8c0,1-0.8,1.8-1.9,1.8c-1,0-1.9-0.8-1.9-1.8c-0.1-0.9,0.7-1.7,1.7-1.8H466.8z"/>
	<path d="M466.8,295.6c-1,0-1.9-0.9-1.9-1.9c0-1,0.9-1.8,2-1.8c1,0,1.9,0.8,1.9,1.8v0.1C468.7,294.8,467.8,295.6,466.8,295.6z
		 M466.8,295.5c1,0,1.9-0.8,1.9-1.8c0-1-0.8-1.8-1.9-1.8c-1,0-1.9,0.8-1.9,1.8C464.9,294.7,465.8,295.5,466.8,295.5z"/>
	<path d="M466.8,292.3c0.8,0,1.4,0.6,1.4,1.5c0,0.8-0.7,1.4-1.5,1.4s-1.4-0.6-1.4-1.5C465.4,292.9,466.1,292.3,466.8,292.3z"/>
	<path d="M466.8,295.2c-0.8,0-1.5-0.7-1.5-1.6c0-0.8,0.8-1.5,1.6-1.5c0.8,0,1.5,0.7,1.5,1.6C468.4,294.6,467.6,295.2,466.8,295.2
		L466.8,295.2z M466.8,295c0.8,0,1.4-0.5,1.4-1.3c0-0.7-0.6-1.4-1.3-1.4c-0.8,0-1.4,0.5-1.4,1.3C465.4,294.4,466,294.9,466.8,295
		L466.8,295z"/>
	<path d="M440,312.4c1.5,0,2.6,1.2,2.6,2.6c0,1.5-1.2,2.6-2.7,2.6s-2.6-1.2-2.6-2.6C437.2,313.5,438.5,312.4,440,312.4
		C439.9,312.4,439.9,312.4,440,312.4L440,312.4z"/>
	<path d="M440,312.4c1.5,0,2.6,1.2,2.6,2.6c0,1.5-1.2,2.6-2.7,2.6s-2.6-1.2-2.6-2.6C437.2,313.5,438.5,312.4,440,312.4
		C439.9,312.4,439.9,312.4,440,312.4L440,312.4z"/>
	<path d="M440,313.1c1,0,1.9,0.8,1.9,1.8c0,1-0.8,1.8-1.9,1.8c-1,0-1.9-0.8-1.9-1.8C438.1,313.9,438.9,313.1,440,313.1z"/>
	<path d="M439.9,316.8c-1,0-1.9-0.9-1.9-1.9c0-1,0.9-1.8,2-1.8c1,0,1.9,0.9,1.9,1.9C441.8,315.9,441,316.8,439.9,316.8L439.9,316.8z
		 M439.9,316.8c1,0,1.9-0.8,1.9-1.8c0-1-0.8-1.8-1.9-1.8s-1.9,0.8-1.9,1.8S438.8,316.8,439.9,316.8z"/>
	<path d="M440,313.6c0.8,0,1.4,0.6,1.4,1.5c0,0.8-0.7,1.4-1.5,1.4s-1.4-0.6-1.4-1.5C438.5,314.2,439.1,313.6,440,313.6L440,313.6z"
		/>
	<path d="M440,316.5c-0.8,0-1.5-0.7-1.5-1.6c0-0.8,0.8-1.5,1.6-1.5c0.8,0,1.5,0.7,1.5,1.6C441.5,315.8,440.8,316.4,440,316.5z
		 M440,316.3c0.8,0,1.4-0.5,1.4-1.3s-0.6-1.4-1.3-1.4c-0.8,0-1.4,0.5-1.4,1.3C438.6,315.7,439.1,316.2,440,316.3L440,316.3z"/>
	<path d="M466.8,312.7c1.5,0,2.6,1.2,2.6,2.6c0,1.5-1.2,2.6-2.7,2.6s-2.6-1.2-2.6-2.6C464.1,313.7,465.3,312.7,466.8,312.7
		C466.7,312.7,466.7,312.7,466.8,312.7L466.8,312.7z"/>
	<path d="M466.8,312.7c1.5,0,2.6,1.2,2.6,2.6c0,1.5-1.2,2.6-2.7,2.6s-2.6-1.2-2.6-2.6C464.1,313.7,465.3,312.7,466.8,312.7
		C466.7,312.7,466.7,312.7,466.8,312.7L466.8,312.7z"/>
	<path d="M466.8,313.4c1,0,1.9,0.8,1.9,1.8c0,1-0.8,1.8-1.9,1.8c-1,0-1.9-0.8-1.9-1.8C464.9,314.2,465.8,313.4,466.8,313.4z"/>
	<path d="M466.8,317.1c-1,0-1.9-0.9-1.9-1.9c0-1,0.9-1.8,2-1.8c1,0,1.9,0.9,1.9,1.9C468.7,316.3,467.8,317.1,466.8,317.1z
		 M466.8,317c1,0,1.9-0.8,1.9-1.8c0-1-0.8-1.8-1.9-1.8c-1,0-1.9,0.8-1.9,1.8C464.9,316.2,465.8,317,466.8,317z"/>
	<path d="M466.8,313.8c0.8,0,1.4,0.6,1.4,1.5c0,0.8-0.7,1.4-1.5,1.4s-1.4-0.6-1.4-1.5C465.4,314.5,466.1,313.8,466.8,313.8z"/>
	<path d="M466.8,316.8c-0.8,0-1.5-0.7-1.5-1.6c0-0.8,0.8-1.5,1.6-1.5c0.8,0,1.5,0.7,1.5,1.6C468.4,316.1,467.6,316.8,466.8,316.8
		L466.8,316.8z M466.8,316.6c0.8,0,1.4-0.5,1.4-1.3c0-0.7-0.6-1.4-1.3-1.4c-0.8,0-1.4,0.5-1.4,1.3
		C465.4,315.9,466,316.5,466.8,316.6L466.8,316.6z"/>
	<path d="M261.8,290.8c1.5,0,2.6,1.2,2.6,2.6c0,1.5-1.2,2.6-2.7,2.6c-1.5,0-2.6-1.2-2.6-2.6C259,291.9,260.2,290.8,261.8,290.8
		C261.7,290.8,261.7,290.8,261.8,290.8L261.8,290.8z"/>
	<path d="M261.8,290.8c1.5,0,2.6,1.2,2.6,2.6c0,1.5-1.2,2.6-2.7,2.6c-1.5,0-2.6-1.2-2.6-2.6C259,291.9,260.2,290.8,261.8,290.8
		C261.7,290.8,261.7,290.8,261.8,290.8L261.8,290.8z"/>
	<path d="M261.8,291.6c1,0,1.9,0.8,1.9,1.8c0,1-0.8,1.8-1.9,1.8c-1,0-1.9-0.8-1.9-1.8C259.9,292.4,260.7,291.6,261.8,291.6z"/>
	<path d="M261.7,295.3c-1,0-1.9-0.9-1.9-1.9c0-1,0.9-1.8,2-1.8c1,0,1.9,0.9,1.9,1.9C263.6,294.5,262.8,295.3,261.7,295.3
		L261.7,295.3z M261.7,295.2c1,0,1.9-0.8,1.9-1.8c0-1-0.8-1.8-1.9-1.8c-1,0-1.9,0.8-1.9,1.8C259.8,294.4,260.6,295.2,261.7,295.2z"
		/>
	<path d="M261.8,292c0.8,0,1.4,0.6,1.4,1.5c0,0.8-0.7,1.4-1.5,1.4c-0.8,0-1.4-0.6-1.4-1.5C260.2,292.6,260.9,292,261.8,292z"/>
	<path d="M261.8,294.9c-0.8,0-1.5-0.7-1.5-1.6c0-0.8,0.8-1.5,1.6-1.5c0.8,0,1.5,0.7,1.5,1.6C263.3,294.3,262.6,294.9,261.8,294.9z
		 M261.8,294.8c0.8,0,1.4-0.5,1.4-1.3s-0.6-1.4-1.3-1.4s-1.4,0.5-1.4,1.3C260.3,294.1,260.9,294.7,261.8,294.8L261.8,294.8z"/>
	<path d="M288.6,291.1c1.5,0,2.6,1.2,2.6,2.6c0,1.5-1.2,2.6-2.7,2.6c-1.5,0-2.6-1.2-2.6-2.6C286,292.3,287.2,291.1,288.6,291.1z"/>
	<path d="M288.6,291.1c1.5,0,2.6,1.2,2.6,2.6c0,1.5-1.2,2.6-2.7,2.6c-1.5,0-2.6-1.2-2.6-2.6C286,292.3,287.2,291.1,288.6,291.1z"/>
	<path d="M288.6,291.9c1,0,1.9,0.8,1.9,1.8c0,1-0.8,1.8-1.9,1.8s-1.9-0.8-1.9-1.8c-0.1-0.9,0.7-1.7,1.7-1.8H288.6z"/>
	<path d="M288.6,295.6c-1,0-1.9-0.9-1.9-1.9c0-1,0.9-1.8,2-1.8c1,0,1.9,0.9,1.9,1.9C290.5,294.8,289.6,295.6,288.6,295.6z
		 M288.6,295.5c1,0,1.9-0.8,1.9-1.8c0-1-0.8-1.8-1.9-1.8s-1.9,0.8-1.9,1.8C286.7,294.7,287.6,295.5,288.6,295.5z"/>
	<path d="M288.6,292.3c0.8,0,1.4,0.6,1.4,1.5c0,0.8-0.7,1.4-1.5,1.4s-1.4-0.6-1.4-1.5C287.2,292.9,287.8,292.3,288.6,292.3z"/>
	<path d="M288.6,295.2c-0.8,0-1.5-0.7-1.5-1.6c0-0.8,0.8-1.5,1.6-1.5s1.5,0.7,1.5,1.6C290.2,294.6,289.4,295.2,288.6,295.2
		L288.6,295.2z M288.6,295c0.8,0,1.4-0.5,1.4-1.3c0-0.7-0.6-1.4-1.3-1.4c-0.8,0-1.4,0.5-1.4,1.3C287.3,294.4,287.8,295,288.6,295
		L288.6,295z"/>
	<path d="M261.8,312.4c1.5,0,2.6,1.2,2.6,2.6c0,1.5-1.2,2.6-2.7,2.6c-1.5,0-2.6-1.2-2.6-2.6C259,313.5,260.2,312.4,261.8,312.4
		C261.7,312.4,261.7,312.4,261.8,312.4L261.8,312.4z"/>
	<path d="M261.8,312.4c1.5,0,2.6,1.2,2.6,2.6c0,1.5-1.2,2.6-2.7,2.6c-1.5,0-2.6-1.2-2.6-2.6C259,313.5,260.2,312.4,261.8,312.4
		C261.7,312.4,261.7,312.4,261.8,312.4L261.8,312.4z"/>
	<path d="M261.8,313.1c1,0,1.9,0.8,1.9,1.8c0,1-0.8,1.8-1.9,1.8c-1,0-1.9-0.8-1.9-1.8C259.9,313.9,260.7,313.1,261.8,313.1z"/>
	<path d="M261.7,316.8c-1,0-1.9-0.9-1.9-1.9c0-1,0.9-1.8,2-1.8c1,0,1.9,0.9,1.9,1.9c0,1-0.8,1.8-1.7,1.8H261.7z M261.7,316.8
		c1,0,1.9-0.8,1.9-1.8c0-1-0.8-1.8-1.9-1.8c-1,0-1.9,0.8-1.9,1.8S260.6,316.8,261.7,316.8z"/>
	<path d="M261.8,313.6c0.8,0,1.4,0.6,1.4,1.5c0,0.8-0.7,1.4-1.5,1.4c-0.8,0-1.4-0.6-1.4-1.5C260.2,314.2,260.9,313.6,261.8,313.6
		L261.8,313.6z"/>
	<path d="M261.8,316.5c-0.8,0-1.5-0.7-1.5-1.6c0-0.8,0.8-1.5,1.6-1.5c0.8,0,1.5,0.7,1.5,1.6C263.3,315.8,262.6,316.4,261.8,316.5z
		 M261.8,316.3c0.8,0,1.4-0.5,1.4-1.3s-0.6-1.4-1.3-1.4s-1.4,0.5-1.4,1.3C260.3,315.7,260.9,316.2,261.8,316.3L261.8,316.3z"/>
	<path d="M288.6,312.7c1.5,0,2.6,1.2,2.6,2.6c0,1.5-1.2,2.6-2.7,2.6c-1.5,0-2.6-1.2-2.6-2.6C286,313.8,287.2,312.7,288.6,312.7z"/>
	<path d="M288.6,312.7c1.5,0,2.6,1.2,2.6,2.6c0,1.5-1.2,2.6-2.7,2.6c-1.5,0-2.6-1.2-2.6-2.6C286,313.8,287.2,312.7,288.6,312.7z"/>
	<path d="M288.6,313.4c1,0,1.9,0.8,1.9,1.8c0,1-0.8,1.8-1.9,1.8s-1.9-0.8-1.9-1.8C286.7,314.2,287.6,313.4,288.6,313.4z"/>
	<path d="M288.6,317.1c-1,0-1.9-0.9-1.9-1.9c0-1,0.9-1.8,2-1.8c1,0,1.9,0.9,1.9,1.9C290.5,316.3,289.6,317.1,288.6,317.1z
		 M288.6,317c1,0,1.9-0.8,1.9-1.8c0-1-0.8-1.8-1.9-1.8s-1.9,0.8-1.9,1.8C286.7,316.2,287.6,317,288.6,317z"/>
	<path d="M288.6,313.8c0.8,0,1.4,0.6,1.4,1.5c0,0.8-0.7,1.4-1.5,1.4s-1.4-0.6-1.4-1.5C287.2,314.5,287.8,313.8,288.6,313.8z"/>
	<path d="M288.6,316.8c-0.8,0-1.5-0.7-1.5-1.6c0-0.8,0.8-1.5,1.6-1.5s1.5,0.7,1.5,1.6C290.2,316.1,289.4,316.8,288.6,316.8
		L288.6,316.8z M288.6,316.6c0.8,0,1.4-0.5,1.4-1.3c0-0.7-0.6-1.4-1.3-1.4c-0.8,0-1.4,0.5-1.4,1.3S287.8,316.6,288.6,316.6
		L288.6,316.6z"/>
	<path class="st6" d="M442.7,344.6c1.3,0,2.6-0.5,3.6-1.5c2.2-2.1,2.3-5.5,0.4-7.8L402,283.9H136.7l-25.5,44.4
		c-1.5,2.6-0.7,5.9,1.9,7.6c2.3,1.5,5.4,0.8,6.9-1.5c0.1-0.2,0.2-0.3,0.3-0.5l22.4-39h254.4l41.6,47.8
		C439.8,343.9,441.2,344.6,442.7,344.6z"/>
</g>
</svg>
