<?xml version="1.0" encoding="utf-8"?>
<!-- Generator: Adobe Illustrator 23.0.1, SVG Export Plug-In . SVG Version: 6.00 Build 0)  -->
<svg version="1.1" id="Layer_1" xmlns="http://www.w3.org/2000/svg" xmlns:xlink="http://www.w3.org/1999/xlink" x="0px" y="0px"
	 viewBox="0 0 1152 450.5" style="enable-background:new 0 0 1152 450.5;" xml:space="preserve">
<style type="text/css">
	.st0{fill:#EC1C24;}
	.st1{fill:#020200;}
	.st2{fill:#A7CB64;}
	.st3{fill:#3B3A3A;stroke:#231F20;stroke-width:0.591;stroke-miterlimit:10;}
	.st4{fill:#3B3A3A;stroke:#231F20;stroke-width:0.7742;stroke-miterlimit:10;}
	.st5{fill:#86A250;}
	.st6{fill:url(#SVGID_1_);}
	.st7{fill:url(#SVGID_2_);}
	.st8{fill:#3D3B3D;}
	.st9{fill:url(#SVGID_3_);}
	.st10{fill:#231F20;}
	.st11{fill:#3B3A3A;}
	.st12{fill:#FFFFFF;stroke:#3D3B3D;stroke-width:0.4286;stroke-miterlimit:10;}
	.st13{fill:#F6F6F6;}
	.st14{fill:url(#SVGID_4_);}
	.st15{fill:url(#SVGID_5_);}
	.st16{fill:url(#SVGID_6_);}
	.st17{fill:url(#SVGID_7_);}
	.st18{fill:url(#SVGID_8_);}
	.st19{fill:url(#SVGID_9_);}
	.st20{fill:url(#SVGID_10_);}
	.st21{fill:url(#SVGID_11_);}
	.st22{fill:url(#SVGID_12_);}
	.st23{fill:url(#SVGID_13_);}
	.st24{fill:url(#SVGID_14_);}
	.st25{fill:url(#SVGID_15_);}
	.st26{fill:url(#SVGID_16_);}
	.st27{fill:url(#SVGID_17_);}
	.st28{fill:url(#SVGID_18_);}
	.st29{fill:#808285;}
	.st30{fill:#6D6E71;}
	.st31{fill:#231F20;stroke:#58595B;stroke-width:0.5758;stroke-miterlimit:10;}
	.st32{fill:none;stroke:#231F20;stroke-width:0.7742;stroke-miterlimit:10;}
	.st33{fill:#403430;}
	.st34{fill:#FFFFFF;}
	.st35{fill:#ED1C24;}
	.st36{fill:#ABA9A7;}
	.st37{fill:url(#SVGID_19_);}
	.st38{fill:url(#SVGID_20_);}
	.st39{fill:url(#SVGID_21_);}
	.st40{fill:url(#SVGID_22_);}
	.st41{fill:url(#SVGID_23_);}
	.st42{fill:url(#SVGID_24_);}
	.st43{fill:url(#SVGID_25_);}
	.st44{fill:url(#SVGID_26_);}
	.st45{opacity:0.1;fill:#1B1B19;enable-background:new    ;}
</style>
<title>Flat bes Truck</title>
<g>
	<path class="st0" d="M1087.4,250.3c5.8,0.1,10.5,4.7,10.8,10.5l0.6,11.9c0.4,5.8-3.8,10.9-9.5,11.7L1087.4,250.3z"/>
	<path class="st0" d="M1085.7,222c6.9-0.2,12.4,2.5,12.7,6l0.4,7.2c0.2,3.6-5.1,6.8-11.9,7.4L1085.7,222z"/>
	
		<rect x="1083.3" y="206.6" transform="matrix(0.9984 -5.651854e-02 5.651854e-02 0.9984 -12.1448 61.7461)" class="st1" width="4.5" height="78"/>
	<path class="st2" d="M814.2,51.1h202.5V31.5c0-9.3-7.5-16.8-16.8-16.8H822.5c-4.6,0-8.3,3.7-8.4,8.3c0,0,0,0,0,0V51.1z"/>
	<polygon class="st3" points="58.4,284.5 58.4,203.4 63.6,203.4 63.6,193.1 78.2,193.1 78.2,298.2 63.6,298.2 63.6,284.5 	"/>
	<path class="st4" d="M79.5,299.5v-23.2h33.7v19.5c0,2.4-0.9,4.7-2.5,6.4l-14.4,15.6H53.5v-18.3L79.5,299.5z"/>
	<rect x="72.7" y="238.1" class="st4" width="10.7" height="49.6"/>
	<rect x="81.9" y="233.4" class="st4" width="10.7" height="54.2"/>
	<polygon points="821.2,351.7 821.2,193.4 1083.6,193.4 1067.2,351.7 	"/>
	<rect x="102.4" y="249.9" class="st5" width="986.5" height="77.6"/>
	<rect x="79.6" y="214.3" class="st5" width="684.4" height="52.8"/>
	<rect x="437.3" y="243.7" class="st2" width="313.1" height="10.2"/>
	<rect x="437.3" y="221.8" class="st2" width="313.1" height="10.2"/>
	<rect x="94.2" y="243.7" class="st2" width="313.1" height="10.2"/>
	<rect x="94.2" y="221.8" class="st2" width="313.1" height="10.2"/>
	<path class="st2" d="M440.3,336.8l0.8-1.2h13.1l0.7,1.2h64.2v-3.4h14.6v3.4h50.1l0.6-1.2h10.3l0.6,1.2h220.7c1-5.6,1-11.4-0.1-17
		l-2.2-10.9H348.3l1.1,28L440.3,336.8L440.3,336.8z"/>
	
		<linearGradient id="SVGID_1_" gradientUnits="userSpaceOnUse" x1="995.1927" y1="-547.7578" x2="1003.4162" y2="-547.7578" gradientTransform="matrix(-1 0 0 -1 1097.62 -233.59)">
		<stop  offset="0" style="stop-color:#231F20"/>
		<stop  offset="0.41" style="stop-color:#252122"/>
		<stop  offset="0.56" style="stop-color:#2B2729"/>
		<stop  offset="0.67" style="stop-color:#353334"/>
		<stop  offset="0.74" style="stop-color:#414042"/>
		<stop  offset="0.77" style="stop-color:#4D4D4F"/>
		<stop  offset="0.8" style="stop-color:#555658"/>
		<stop  offset="0.85" style="stop-color:#58595B"/>
		<stop  offset="0.92" style="stop-color:#414042"/>
	</linearGradient>
	<rect x="94.2" y="274.9" class="st6" width="8.3" height="78.6"/>
	<rect x="239.9" y="313.5" class="st2" width="46.2" height="9"/>
	<rect x="272.8" y="309.5" class="st5" width="8.9" height="7.9"/>
	<rect x="259.6" y="312" class="st5" width="8.9" height="7.9"/>
	<rect x="246.5" y="309.5" class="st5" width="8.9" height="7.9"/>
	<rect x="251.5" y="326.7" class="st2" width="25.7" height="3"/>
	<rect x="269.8" y="325.3" class="st5" width="5" height="2.6"/>
	<rect x="262.4" y="326.2" class="st5" width="5" height="2.6"/>
	<rect x="255.2" y="325.3" class="st5" width="5" height="2.6"/>
	<rect x="251.6" y="332.3" class="st2" width="25.7" height="6.7"/>
	<rect x="269.8" y="329.3" class="st5" width="5" height="5.9"/>
	<rect x="262.4" y="331.2" class="st5" width="5" height="5.9"/>
	<rect x="255.1" y="329.3" class="st5" width="5" height="5.9"/>
	
		<linearGradient id="SVGID_2_" gradientUnits="userSpaceOnUse" x1="1003.4162" y1="-531.9191" x2="1018.093" y2="-531.9191" gradientTransform="matrix(-1 0 0 -1 1097.62 -233.59)">
		<stop  offset="0" style="stop-color:#231F20"/>
		<stop  offset="0.41" style="stop-color:#252122"/>
		<stop  offset="0.56" style="stop-color:#2B2729"/>
		<stop  offset="0.67" style="stop-color:#353334"/>
		<stop  offset="0.74" style="stop-color:#414042"/>
		<stop  offset="0.77" style="stop-color:#4D4D4F"/>
		<stop  offset="0.8" style="stop-color:#555658"/>
		<stop  offset="0.85" style="stop-color:#58595B"/>
		<stop  offset="0.92" style="stop-color:#414042"/>
	</linearGradient>
	<polygon class="st7" points="79.5,318.6 94.2,318.6 94.2,278 79.5,278 	"/>
	<path class="st8" d="M416.2,348.2c0,39.5-32,71.5-71.4,71.5c-39.5,0-71.5-32-71.5-71.4c0-39.5,32-71.5,71.4-71.5l0,0
		C384.1,276.7,416.1,308.7,416.2,348.2L416.2,348.2L416.2,348.2z"/>
	<path d="M416.2,348.2c0,39.5-32,71.5-71.4,71.5c-39.5,0-71.5-32-71.5-71.4c0-39.5,32-71.5,71.4-71.5l0,0
		C384.1,276.7,416.1,308.7,416.2,348.2L416.2,348.2L416.2,348.2z"/>
	
		<radialGradient id="SVGID_3_" cx="3579.8616" cy="-581.7862" r="61.3581" gradientTransform="matrix(-1 0 0 -1 3924.49 -233.59)" gradientUnits="userSpaceOnUse">
		<stop  offset="0" style="stop-color:#231F20"/>
		<stop  offset="0.41" style="stop-color:#252122"/>
		<stop  offset="0.56" style="stop-color:#2B2729"/>
		<stop  offset="0.67" style="stop-color:#353334"/>
		<stop  offset="0.74" style="stop-color:#414042"/>
		<stop  offset="0.77" style="stop-color:#4D4D4F"/>
		<stop  offset="0.8" style="stop-color:#555658"/>
		<stop  offset="0.85" style="stop-color:#58595B"/>
		<stop  offset="0.92" style="stop-color:#414042"/>
	</radialGradient>
	<path class="st9" d="M406,348.2c0,33.9-27.5,61.4-61.4,61.4s-61.4-27.5-61.4-61.4c0-33.9,27.5-61.4,61.4-61.4l0,0l0,0
		C378.5,286.9,406,314.3,406,348.2z"/>
	<path class="st10" d="M397.3,348.2c0,29.1-23.6,52.6-52.6,52.6S292,377.3,292,348.2s23.6-52.6,52.6-52.6l0,0l0,0
		C373.7,295.6,397.3,319.1,397.3,348.2z"/>
	<path class="st11" d="M397.3,348.2c0,29.1-23.6,52.6-52.6,52.6S292,377.3,292,348.2s23.6-52.6,52.6-52.6l0,0l0,0
		C373.7,295.6,397.3,319.1,397.3,348.2z"/>
	<path class="st12" d="M381.8,348.2c0,20.6-16.7,37.2-37.2,37.2s-37.2-16.7-37.2-37.2s16.7-37.2,37.2-37.2S381.8,327.6,381.8,348.2
		L381.8,348.2z"/>
	<path class="st13" d="M370.5,348.7c0,14.2-11.5,25.8-25.8,25.8c-14.2,0-25.8-11.5-25.8-25.8c0-14.2,11.5-25.8,25.8-25.8
		S370.5,334.4,370.5,348.7L370.5,348.7z"/>
	
		<linearGradient id="SVGID_4_" gradientUnits="userSpaceOnUse" x1="3548.166" y1="-564.831" x2="3569.605" y2="-564.831" gradientTransform="matrix(-1 0 0 -1 3924.49 -233.59)">
		<stop  offset="3.000000e-02" style="stop-color:#6D6E71"/>
		<stop  offset="0.25" style="stop-color:#BCBEC0"/>
		<stop  offset="0.52" style="stop-color:#D1D3D4"/>
		<stop  offset="0.69" style="stop-color:#BCBEC0"/>
		<stop  offset="0.98" style="stop-color:#58595B"/>
	</linearGradient>
	<path class="st14" d="M354.9,335.8l11.6-14.7c4.1,3.3,7.5,7.5,9.8,12.2l-16.9,8.2C358.3,339.2,356.8,337.3,354.9,335.8z"/>
	
		<linearGradient id="SVGID_5_" gradientUnits="userSpaceOnUse" x1="3557.8962" y1="-605.7485" x2="3576.1404" y2="-605.7485" gradientTransform="matrix(-1 0 0 -1 3924.49 -233.59)">
		<stop  offset="3.000000e-02" style="stop-color:#6D6E71"/>
		<stop  offset="0.25" style="stop-color:#BCBEC0"/>
		<stop  offset="0.52" style="stop-color:#D1D3D4"/>
		<stop  offset="0.69" style="stop-color:#BCBEC0"/>
		<stop  offset="0.98" style="stop-color:#58595B"/>
	</linearGradient>
	<path class="st15" d="M366.6,376.1c-4.1,3.3-8.9,5.6-14.1,6.8l-4.2-18.2c2.4-0.5,4.6-1.6,6.5-3.2L366.6,376.1z"/>
	
		<linearGradient id="SVGID_6_" gradientUnits="userSpaceOnUse" x1="3590.1182" y1="-564.9943" x2="3611.5391" y2="-564.9943" gradientTransform="matrix(-1 0 0 -1 3924.49 -233.59)">
		<stop  offset="3.000000e-02" style="stop-color:#6D6E71"/>
		<stop  offset="0.25" style="stop-color:#BCBEC0"/>
		<stop  offset="0.52" style="stop-color:#D1D3D4"/>
		<stop  offset="0.69" style="stop-color:#BCBEC0"/>
		<stop  offset="0.98" style="stop-color:#58595B"/>
	</linearGradient>
	<path class="st16" d="M329.8,341.6l-16.9-8.1c2.3-4.8,5.6-8.9,9.7-12.3l11.7,14.6C332.4,337.4,330.9,339.3,329.8,341.6z"/>
	
		<linearGradient id="SVGID_7_" gradientUnits="userSpaceOnUse" x1="3544.6443" y1="-589.8553" x2="3564.9761" y2="-589.8553" gradientTransform="matrix(-1 0 0 -1 3924.49 -233.59)">
		<stop  offset="3.000000e-02" style="stop-color:#6D6E71"/>
		<stop  offset="0.25" style="stop-color:#BCBEC0"/>
		<stop  offset="0.52" style="stop-color:#D1D3D4"/>
		<stop  offset="0.69" style="stop-color:#BCBEC0"/>
		<stop  offset="0.98" style="stop-color:#58595B"/>
	</linearGradient>
	<path class="st17" d="M361.1,348.7L361.1,348.7l18.7-0.1v0.1c0,5.3-1.2,10.5-3.4,15.2l-16.9-8.2
		C360.6,353.5,361.1,351.1,361.1,348.7z"/>
	
		<linearGradient id="SVGID_8_" gradientUnits="userSpaceOnUse" x1="3594.6384" y1="-589.9006" x2="3614.9976" y2="-589.9006" gradientTransform="matrix(-1 0 0 -1 3924.49 -233.59)">
		<stop  offset="3.000000e-02" style="stop-color:#6D6E71"/>
		<stop  offset="0.25" style="stop-color:#BCBEC0"/>
		<stop  offset="0.52" style="stop-color:#D1D3D4"/>
		<stop  offset="0.69" style="stop-color:#BCBEC0"/>
		<stop  offset="0.98" style="stop-color:#58595B"/>
	</linearGradient>
	<path class="st18" d="M328.2,348.7c0,2.5,0.5,4.9,1.6,7.1l-16.9,8.2c-2.3-4.7-3.6-10-3.5-15.2H328.2z"/>
	
		<linearGradient id="SVGID_9_" gradientUnits="userSpaceOnUse" x1="3572.1194" y1="-556.6055" x2="3587.7312" y2="-556.6055" gradientTransform="matrix(-1 0 0 -1 3924.49 -233.59)">
		<stop  offset="3.000000e-02" style="stop-color:#6D6E71"/>
		<stop  offset="0.25" style="stop-color:#BCBEC0"/>
		<stop  offset="0.52" style="stop-color:#D1D3D4"/>
		<stop  offset="0.69" style="stop-color:#BCBEC0"/>
		<stop  offset="0.98" style="stop-color:#58595B"/>
	</linearGradient>
	<path class="st19" d="M336.7,314.3c5.1-1.2,10.5-1.2,15.6-0.1l-4.1,18.3c-2.4-0.5-4.9-0.5-7.4,0L336.7,314.3z"/>
	
		<linearGradient id="SVGID_10_" gradientUnits="userSpaceOnUse" x1="3583.4653" y1="-605.7484" x2="3601.7183" y2="-605.7484" gradientTransform="matrix(-1 0 0 -1 3924.49 -233.59)">
		<stop  offset="3.000000e-02" style="stop-color:#6D6E71"/>
		<stop  offset="0.25" style="stop-color:#BCBEC0"/>
		<stop  offset="0.52" style="stop-color:#D1D3D4"/>
		<stop  offset="0.69" style="stop-color:#BCBEC0"/>
		<stop  offset="0.98" style="stop-color:#58595B"/>
	</linearGradient>
	<path class="st20" d="M341,364.6l-4.2,18.2c-5.2-1.2-10-3.5-14.2-6.7l11.7-14.7C336.3,363,338.6,364.1,341,364.6z"/>
	<path class="st8" d="M255.7,348.2c0,39.5-32,71.5-71.4,71.5c-39.5,0-71.5-32-71.5-71.4c0-39.5,32-71.5,71.4-71.5
		C223.6,276.7,255.6,308.7,255.7,348.2C255.7,348.2,255.7,348.2,255.7,348.2z"/>
	<path d="M255.7,348.2c0,39.5-32,71.5-71.4,71.5c-39.5,0-71.5-32-71.5-71.4c0-39.5,32-71.5,71.4-71.5
		C223.6,276.7,255.6,308.7,255.7,348.2C255.7,348.2,255.7,348.2,255.7,348.2z"/>
	
		<radialGradient id="SVGID_11_" cx="3740.2278" cy="-581.7862" r="61.3581" gradientTransform="matrix(-1 0 0 -1 3924.49 -233.59)" gradientUnits="userSpaceOnUse">
		<stop  offset="0" style="stop-color:#231F20"/>
		<stop  offset="0.41" style="stop-color:#252122"/>
		<stop  offset="0.56" style="stop-color:#2B2729"/>
		<stop  offset="0.67" style="stop-color:#353334"/>
		<stop  offset="0.74" style="stop-color:#414042"/>
		<stop  offset="0.77" style="stop-color:#4D4D4F"/>
		<stop  offset="0.8" style="stop-color:#555658"/>
		<stop  offset="0.85" style="stop-color:#58595B"/>
		<stop  offset="0.92" style="stop-color:#414042"/>
	</radialGradient>
	<path class="st21" d="M245.6,348.2c0,33.9-27.5,61.4-61.4,61.4s-61.4-27.5-61.4-61.4c0-33.9,27.5-61.4,61.4-61.4h0l0,0
		C218.1,286.9,245.6,314.3,245.6,348.2z"/>
	<path class="st10" d="M236.9,348.2c0,29.1-23.6,52.6-52.6,52.6s-52.6-23.6-52.6-52.6s23.6-52.6,52.6-52.6l0,0l0,0
		C213.3,295.6,236.9,319.1,236.9,348.2z"/>
	<path class="st11" d="M236.9,348.2c0,29.1-23.6,52.6-52.6,52.6s-52.6-23.6-52.6-52.6s23.6-52.6,52.6-52.6l0,0l0,0
		C213.3,295.6,236.9,319.1,236.9,348.2z"/>
	<path class="st12" d="M221.4,348.2c0,20.6-16.7,37.2-37.2,37.2s-37.2-16.7-37.2-37.2s16.7-37.2,37.2-37.2S221.4,327.6,221.4,348.2
		L221.4,348.2z"/>
	<path class="st13" d="M210,348.7c0,14.2-11.5,25.8-25.8,25.8c-14.2,0-25.8-11.5-25.8-25.8c0-14.2,11.5-25.8,25.8-25.8
		S210,334.4,210,348.7L210,348.7z"/>
	
		<linearGradient id="SVGID_12_" gradientUnits="userSpaceOnUse" x1="3708.6592" y1="-564.8128" x2="3730.0801" y2="-564.8128" gradientTransform="matrix(-1 0 0 -1 3924.49 -233.59)">
		<stop  offset="3.000000e-02" style="stop-color:#6D6E71"/>
		<stop  offset="0.25" style="stop-color:#BCBEC0"/>
		<stop  offset="0.52" style="stop-color:#D1D3D4"/>
		<stop  offset="0.69" style="stop-color:#BCBEC0"/>
		<stop  offset="0.98" style="stop-color:#58595B"/>
	</linearGradient>
	<path class="st22" d="M194.4,335.8l11.6-14.7c4.1,3.3,7.5,7.4,9.8,12.2l-16.9,8.2C197.9,339.2,196.3,337.3,194.4,335.8z"/>
	
		<linearGradient id="SVGID_13_" gradientUnits="userSpaceOnUse" x1="3718.335" y1="-605.7485" x2="3736.5789" y2="-605.7485" gradientTransform="matrix(-1 0 0 -1 3924.49 -233.59)">
		<stop  offset="3.000000e-02" style="stop-color:#6D6E71"/>
		<stop  offset="0.25" style="stop-color:#BCBEC0"/>
		<stop  offset="0.52" style="stop-color:#D1D3D4"/>
		<stop  offset="0.69" style="stop-color:#BCBEC0"/>
		<stop  offset="0.98" style="stop-color:#58595B"/>
	</linearGradient>
	<path class="st23" d="M206.1,376.1c-4.1,3.3-8.9,5.6-14.1,6.8l-4.2-18.2c2.4-0.5,4.6-1.6,6.5-3.2L206.1,376.1z"/>
	
		<linearGradient id="SVGID_14_" gradientUnits="userSpaceOnUse" x1="3750.5388" y1="-564.9943" x2="3771.9871" y2="-564.9943" gradientTransform="matrix(-1 0 0 -1 3924.49 -233.59)">
		<stop  offset="3.000000e-02" style="stop-color:#6D6E71"/>
		<stop  offset="0.25" style="stop-color:#BCBEC0"/>
		<stop  offset="0.52" style="stop-color:#D1D3D4"/>
		<stop  offset="0.69" style="stop-color:#BCBEC0"/>
		<stop  offset="0.98" style="stop-color:#58595B"/>
	</linearGradient>
	<path class="st24" d="M169.4,341.6l-16.9-8.1c2.3-4.8,5.6-8.9,9.7-12.3l11.8,14.6C172,337.4,170.4,339.3,169.4,341.6z"/>
	
		<linearGradient id="SVGID_15_" gradientUnits="userSpaceOnUse" x1="3705.1194" y1="-589.8553" x2="3725.4509" y2="-589.8553" gradientTransform="matrix(-1 0 0 -1 3924.49 -233.59)">
		<stop  offset="3.000000e-02" style="stop-color:#6D6E71"/>
		<stop  offset="0.25" style="stop-color:#BCBEC0"/>
		<stop  offset="0.52" style="stop-color:#D1D3D4"/>
		<stop  offset="0.69" style="stop-color:#BCBEC0"/>
		<stop  offset="0.98" style="stop-color:#58595B"/>
	</linearGradient>
	<path class="st25" d="M200.7,348.7L200.7,348.7l18.7-0.1v0.1c0,5.3-1.2,10.5-3.4,15.2l-16.9-8.2
		C200.1,353.6,200.7,351.1,200.7,348.7z"/>
	
		<linearGradient id="SVGID_16_" gradientUnits="userSpaceOnUse" x1="3755.0681" y1="-589.9006" x2="3775.427" y2="-589.9006" gradientTransform="matrix(-1 0 0 -1 3924.49 -233.59)">
		<stop  offset="3.000000e-02" style="stop-color:#6D6E71"/>
		<stop  offset="0.25" style="stop-color:#BCBEC0"/>
		<stop  offset="0.52" style="stop-color:#D1D3D4"/>
		<stop  offset="0.69" style="stop-color:#BCBEC0"/>
		<stop  offset="0.98" style="stop-color:#58595B"/>
	</linearGradient>
	<path class="st26" d="M167.8,348.7c0,2.5,0.5,4.9,1.6,7.1l-16.9,8.2c-2.3-4.7-3.6-10-3.5-15.2H167.8z"/>
	
		<linearGradient id="SVGID_17_" gradientUnits="userSpaceOnUse" x1="3732.5579" y1="-556.6055" x2="3748.1697" y2="-556.6055" gradientTransform="matrix(-1 0 0 -1 3924.49 -233.59)">
		<stop  offset="3.000000e-02" style="stop-color:#6D6E71"/>
		<stop  offset="0.25" style="stop-color:#BCBEC0"/>
		<stop  offset="0.52" style="stop-color:#D1D3D4"/>
		<stop  offset="0.69" style="stop-color:#BCBEC0"/>
		<stop  offset="0.98" style="stop-color:#58595B"/>
	</linearGradient>
	<path class="st27" d="M176.3,314.3c5.1-1.2,10.5-1.2,15.6-0.1l-4.1,18.3c-2.4-0.5-4.9-0.5-7.4,0L176.3,314.3z"/>
	
		<linearGradient id="SVGID_18_" gradientUnits="userSpaceOnUse" x1="3743.9038" y1="-605.7484" x2="3762.157" y2="-605.7484" gradientTransform="matrix(-1 0 0 -1 3924.49 -233.59)">
		<stop  offset="3.000000e-02" style="stop-color:#6D6E71"/>
		<stop  offset="0.25" style="stop-color:#BCBEC0"/>
		<stop  offset="0.52" style="stop-color:#D1D3D4"/>
		<stop  offset="0.69" style="stop-color:#BCBEC0"/>
		<stop  offset="0.98" style="stop-color:#58595B"/>
	</linearGradient>
	<path class="st28" d="M180.6,364.6l-4.2,18.2c-5.2-1.2-10-3.5-14.2-6.7l11.7-14.7C175.9,363,178.2,364.1,180.6,364.6z"/>
	<rect x="610.2" y="332.6" class="st2" width="207.6" height="8.9"/>
	<rect x="610.2" y="340.2" class="st2" width="227.1" height="8.9"/>
	<path d="M654.5,271.7c1.5,0,2.6,1.2,2.6,2.6s-1.2,2.6-2.6,2.6s-2.6-1.2-2.6-2.6S653.1,271.7,654.5,271.7L654.5,271.7z"/>
	<path d="M654.5,271.7c1.5,0,2.6,1.2,2.6,2.6s-1.2,2.6-2.6,2.6s-2.6-1.2-2.6-2.6S653.1,271.7,654.5,271.7L654.5,271.7z"/>
	<path d="M654.5,272.5c1,0,1.8,0.9,1.8,1.9c0,1-0.9,1.8-1.9,1.8c-1,0-1.8-0.9-1.8-1.9C652.6,273.3,653.4,272.5,654.5,272.5
		L654.5,272.5z"/>
	<path d="M654.4,276.2c-1.1,0-1.9-0.9-1.9-1.9s0.9-1.9,1.9-1.9c1.1,0,1.9,0.9,1.9,1.9v0l0,0c0.1,1-0.7,1.9-1.7,1.9
		C654.6,276.2,654.5,276.2,654.4,276.2L654.4,276.2z M654.4,276.1c1,0,1.9-0.8,1.9-1.8c0-1-0.8-1.9-1.8-1.9c-1,0-1.9,0.8-1.9,1.8
		C652.5,275.2,653.3,276.1,654.4,276.1C654.3,276.1,654.3,276.1,654.4,276.1L654.4,276.1z"/>
	<path d="M654.5,272.9c0.8,0,1.5,0.7,1.5,1.5c0,0.8-0.7,1.5-1.5,1.5s-1.5-0.7-1.5-1.5v0l0,0C653,273.5,653.7,272.9,654.5,272.9
		C654.5,272.9,654.5,272.9,654.5,272.9L654.5,272.9z"/>
	<path d="M654.5,275.9c-0.9,0-1.5-0.7-1.5-1.5c0-0.9,0.7-1.5,1.5-1.5c0.9,0,1.5,0.7,1.5,1.5C656.1,275.2,655.4,275.8,654.5,275.9
		C654.5,275.9,654.5,275.9,654.5,275.9L654.5,275.9z M654.5,275.7c0.8,0,1.4-0.6,1.4-1.4c0-0.8-0.6-1.4-1.4-1.4s-1.4,0.6-1.4,1.4
		C653.1,275,653.7,275.7,654.5,275.7C654.4,275.7,654.4,275.7,654.5,275.7L654.5,275.7z"/>
	<path d="M681.1,272c1.5,0,2.6,1.2,2.6,2.6c0,1.5-1.2,2.6-2.6,2.6s-2.6-1.2-2.6-2.6c0-1.4,1.1-2.6,2.5-2.6H681.1z"/>
	<path d="M681.1,272c1.5,0,2.6,1.2,2.6,2.6c0,1.5-1.2,2.6-2.6,2.6s-2.6-1.2-2.6-2.6c0-1.4,1.1-2.6,2.5-2.6H681.1z"/>
	<path d="M681.1,272.8c1,0,1.8,0.9,1.8,1.9c0,1-0.9,1.8-1.9,1.8c-1,0-1.8-0.9-1.8-1.9C679.2,273.6,680,272.8,681.1,272.8
		L681.1,272.8z"/>
	<path d="M681,276.5c-1.1,0-1.9-0.9-1.9-1.9c0-1.1,0.9-1.9,1.9-1.9c1.1,0,1.9,0.9,1.9,1.9v0l0,0c0.1,1-0.7,1.9-1.7,1.9
		C681.2,276.5,681.1,276.5,681,276.5L681,276.5z M681,276.5c1,0,1.9-0.8,1.9-1.8c0-1-0.8-1.9-1.8-1.9c-1,0-1.9,0.8-1.9,1.8
		C679.2,275.6,680,276.5,681,276.5z"/>
	<path d="M681.1,273.1c0.8,0,1.5,0.7,1.5,1.5c0,0.8-0.7,1.5-1.5,1.5s-1.5-0.7-1.5-1.5v0l0,0C679.6,273.8,680.3,273.1,681.1,273.1
		C681.1,273.1,681.1,273.1,681.1,273.1L681.1,273.1z"/>
	<path d="M681.1,276.1c-0.9,0-1.5-0.7-1.5-1.5c0-0.9,0.7-1.5,1.5-1.5c0.9,0,1.5,0.7,1.5,1.5C682.7,275.4,682,276.1,681.1,276.1
		C681.1,276.1,681.1,276.1,681.1,276.1L681.1,276.1z M681.1,275.9c0.8,0,1.4-0.6,1.4-1.4c0-0.8-0.6-1.4-1.4-1.4s-1.4,0.6-1.4,1.4
		C679.7,275.3,680.3,275.9,681.1,275.9C681,275.9,681,275.9,681.1,275.9L681.1,275.9z"/>
	<path d="M654.5,293.6c1.5,0,2.6,1.2,2.6,2.6s-1.2,2.6-2.6,2.6s-2.6-1.2-2.6-2.6S653.1,293.6,654.5,293.6L654.5,293.6z"/>
	<path d="M654.5,293.6c1.5,0,2.6,1.2,2.6,2.6s-1.2,2.6-2.6,2.6s-2.6-1.2-2.6-2.6S653.1,293.6,654.5,293.6L654.5,293.6z"/>
	<path d="M654.5,294.4c1,0,1.8,0.9,1.8,1.9c0,1-0.9,1.8-1.9,1.8c-1,0-1.8-0.9-1.8-1.9C652.6,295.2,653.4,294.4,654.5,294.4
		L654.5,294.4z"/>
	<path d="M654.4,298.1c-1.1,0-1.9-0.9-1.9-1.9s0.9-1.9,1.9-1.9c1.1,0,1.9,0.9,1.9,1.9v0l0,0c0.1,1-0.7,1.9-1.7,1.9
		C654.6,298.1,654.5,298.1,654.4,298.1L654.4,298.1z M654.4,298.1c1,0,1.9-0.8,1.9-1.8c0-1-0.8-1.9-1.8-1.9c-1,0-1.9,0.8-1.9,1.8
		C652.6,297.2,653.4,298,654.4,298.1z"/>
	<path d="M654.5,294.7c0.8,0,1.5,0.7,1.5,1.5s-0.7,1.5-1.5,1.5s-1.5-0.7-1.5-1.5v0l0,0C653,295.4,653.7,294.7,654.5,294.7
		C654.5,294.7,654.5,294.7,654.5,294.7L654.5,294.7z"/>
	<path d="M654.5,297.7c-0.9,0-1.5-0.7-1.5-1.5c0-0.9,0.7-1.5,1.5-1.5c0.9,0,1.5,0.7,1.5,1.5C656.1,297,655.4,297.7,654.5,297.7
		C654.5,297.7,654.5,297.7,654.5,297.7L654.5,297.7z M654.5,297.5c0.8,0,1.4-0.6,1.4-1.4c0-0.8-0.6-1.4-1.4-1.4s-1.4,0.6-1.4,1.4
		C653.1,296.9,653.7,297.5,654.5,297.5C654.4,297.5,654.4,297.5,654.5,297.5L654.5,297.5z"/>
	<path d="M681.1,293.8c1.5,0,2.6,1.2,2.6,2.6s-1.2,2.6-2.6,2.6s-2.6-1.2-2.6-2.6c0-1.4,1.1-2.6,2.5-2.6H681.1z"/>
	<path d="M681.1,293.8c1.5,0,2.6,1.2,2.6,2.6s-1.2,2.6-2.6,2.6s-2.6-1.2-2.6-2.6c0-1.4,1.1-2.6,2.5-2.6H681.1z"/>
	<path d="M681.1,294.6c1,0,1.8,0.9,1.8,1.9c0,1-0.9,1.8-1.9,1.8c-1,0-1.8-0.9-1.8-1.9C679.2,295.5,680,294.6,681.1,294.6
		L681.1,294.6z"/>
	<path d="M681,298.4c-1.1,0-1.9-0.9-1.9-1.9s0.9-1.9,1.9-1.9c1.1,0,1.9,0.9,1.9,1.9v0l0,0c0.1,1-0.7,1.9-1.7,1.9
		C681.2,298.4,681.1,298.4,681,298.4L681,298.4z M681,298.4c1,0,1.9-0.8,1.9-1.8c0-1-0.8-1.9-1.8-1.9c-1,0-1.9,0.8-1.9,1.8
		C679.2,297.5,680,298.3,681,298.4z"/>
	<path d="M681.1,295.1c0.8,0,1.5,0.7,1.5,1.5c0,0.8-0.7,1.5-1.5,1.5s-1.5-0.7-1.5-1.5v0l0,0c-0.1-0.7,0.5-1.4,1.2-1.5H681.1z"/>
	<path d="M681.1,298c-0.9,0-1.5-0.7-1.5-1.5c0-0.9,0.7-1.5,1.5-1.5c0.9,0,1.5,0.7,1.5,1.5c0,0.8-0.6,1.5-1.4,1.5c0,0,0,0,0,0H681.1z
		 M681.1,297.8c0.8,0,1.4-0.6,1.4-1.4c0-0.8-0.6-1.4-1.4-1.4s-1.4,0.6-1.4,1.4C679.7,297.2,680.3,297.8,681.1,297.8
		C681,297.8,681,297.8,681.1,297.8L681.1,297.8z"/>
	<path d="M542.5,271.7c1.5,0,2.6,1.2,2.6,2.6s-1.2,2.6-2.6,2.6s-2.6-1.2-2.6-2.6S541,271.7,542.5,271.7L542.5,271.7z"/>
	<path d="M542.5,271.7c1.5,0,2.6,1.2,2.6,2.6s-1.2,2.6-2.6,2.6s-2.6-1.2-2.6-2.6S541,271.7,542.5,271.7L542.5,271.7z"/>
	<path d="M542.5,272.5c1,0,1.8,0.9,1.8,1.9c0,1-0.9,1.8-1.9,1.8c-1,0-1.8-0.9-1.8-1.9C540.6,273.3,541.5,272.5,542.5,272.5z"/>
	<path d="M542.5,276.2c-1.1,0-1.9-0.9-1.9-1.9s0.9-1.9,1.9-1.9c1.1,0,1.9,0.9,1.9,1.9v0l0,0C544.4,275.4,543.5,276.2,542.5,276.2z
		 M542.5,276.1c1,0,1.9-0.8,1.9-1.8c0-1-0.8-1.9-1.8-1.9c-1,0-1.9,0.8-1.9,1.8C540.6,275.2,541.4,276.1,542.5,276.1
		C542.4,276.1,542.4,276.1,542.5,276.1L542.5,276.1z"/>
	<path d="M542.5,272.9c0.8,0,1.5,0.7,1.5,1.5c0,0.8-0.7,1.5-1.5,1.5c-0.8,0-1.5-0.7-1.5-1.5v0l0,0
		C541.1,273.5,541.7,272.9,542.5,272.9z"/>
	<path d="M542.5,275.9c-0.9,0-1.5-0.7-1.5-1.5c0-0.9,0.7-1.5,1.5-1.5c0.9,0,1.5,0.7,1.5,1.5C544.1,275.2,543.4,275.8,542.5,275.9
		C542.5,275.9,542.5,275.9,542.5,275.9L542.5,275.9z M542.5,275.7c0.8,0,1.4-0.6,1.4-1.4c0-0.8-0.6-1.4-1.4-1.4
		c-0.8,0-1.4,0.6-1.4,1.4C541.2,275.1,541.8,275.7,542.5,275.7z"/>
	<path d="M569.1,272c1.5,0,2.6,1.2,2.6,2.6c0,1.5-1.2,2.6-2.6,2.6s-2.6-1.2-2.6-2.6C566.5,273.1,567.6,272,569.1,272L569.1,272z"/>
	<path d="M569.1,272c1.5,0,2.6,1.2,2.6,2.6c0,1.5-1.2,2.6-2.6,2.6s-2.6-1.2-2.6-2.6C566.5,273.1,567.6,272,569.1,272L569.1,272z"/>
	<path d="M569.1,272.8c1,0,1.8,0.9,1.8,1.9c0,1-0.9,1.8-1.9,1.8c-1,0-1.8-0.9-1.8-1.9C567.2,273.6,568.1,272.8,569.1,272.8z"/>
	<path d="M569.1,276.5c-1.1,0-1.9-0.9-1.9-1.9c0-1.1,0.9-1.9,1.9-1.9c1.1,0,1.9,0.9,1.9,1.9v0l0,0
		C571,275.6,570.1,276.5,569.1,276.5z M569.1,276.5c1,0,1.9-0.8,1.9-1.8c0-1-0.8-1.9-1.8-1.9c-1,0-1.9,0.8-1.9,1.8
		C567.2,275.6,568,276.4,569.1,276.5C569,276.5,569,276.5,569.1,276.5L569.1,276.5z"/>
	<path d="M569.1,273.1c0.8,0,1.5,0.7,1.5,1.5c0,0.8-0.7,1.5-1.5,1.5c-0.8,0-1.5-0.7-1.5-1.5v0l0,0
		C567.7,273.8,568.3,273.2,569.1,273.1z"/>
	<path d="M569.1,276.1c-0.9,0-1.5-0.7-1.5-1.5c0-0.9,0.7-1.5,1.5-1.5c0.9,0,1.5,0.7,1.5,1.5C570.6,275.4,570,276.1,569.1,276.1
		C569.1,276.1,569.1,276.1,569.1,276.1L569.1,276.1z M569.1,275.9c0.8,0,1.4-0.6,1.4-1.4c0-0.8-0.6-1.4-1.4-1.4
		c-0.8,0-1.4,0.6-1.4,1.4C567.8,275.3,568.3,275.9,569.1,275.9z"/>
	<path d="M542.5,293.6c1.5,0,2.6,1.2,2.6,2.6s-1.2,2.6-2.6,2.6s-2.6-1.2-2.6-2.6S541,293.6,542.5,293.6L542.5,293.6z"/>
	<path d="M542.5,293.6c1.5,0,2.6,1.2,2.6,2.6s-1.2,2.6-2.6,2.6s-2.6-1.2-2.6-2.6S541,293.6,542.5,293.6L542.5,293.6z"/>
	<path d="M542.5,294.4c1,0,1.8,0.9,1.8,1.9c0,1-0.9,1.8-1.9,1.8c-1,0-1.8-0.9-1.8-1.9C540.7,295.2,541.5,294.4,542.5,294.4z"/>
	<path d="M542.5,298.1c-1.1,0-1.9-0.9-1.9-1.9s0.9-1.9,1.9-1.9c1.1,0,1.9,0.9,1.9,1.9v0l0,0C544.4,297.2,543.5,298.1,542.5,298.1z
		 M542.5,298.1c1,0,1.9-0.8,1.9-1.8c0-1-0.8-1.9-1.8-1.9c-1,0-1.9,0.8-1.9,1.8C540.7,297.2,541.5,298.1,542.5,298.1z"/>
	<path d="M542.5,294.7c0.8,0,1.5,0.7,1.5,1.5s-0.7,1.5-1.5,1.5c-0.8,0-1.5-0.7-1.5-1.5v0l0,0C541.1,295.4,541.7,294.8,542.5,294.7z"
		/>
	<path d="M542.5,297.7c-0.9,0-1.5-0.7-1.5-1.5c0-0.9,0.7-1.5,1.5-1.5c0.9,0,1.5,0.7,1.5,1.5C544.1,297,543.4,297.7,542.5,297.7
		C542.5,297.7,542.5,297.7,542.5,297.7L542.5,297.7z M542.5,297.5c0.8,0,1.4-0.6,1.4-1.4c0-0.8-0.6-1.4-1.4-1.4
		c-0.8,0-1.4,0.6-1.4,1.4C541.2,296.9,541.8,297.5,542.5,297.5z"/>
	<path d="M569.1,293.8c1.5,0,2.6,1.2,2.6,2.6s-1.2,2.6-2.6,2.6s-2.6-1.2-2.6-2.6S567.6,293.8,569.1,293.8L569.1,293.8z"/>
	<path d="M569.1,293.8c1.5,0,2.6,1.2,2.6,2.6s-1.2,2.6-2.6,2.6s-2.6-1.2-2.6-2.6S567.6,293.8,569.1,293.8L569.1,293.8z"/>
	<path d="M569.1,294.6c1,0,1.8,0.9,1.8,1.9c0,1-0.9,1.8-1.9,1.8c-1,0-1.8-0.9-1.8-1.9C567.2,295.4,568.1,294.6,569.1,294.6z"/>
	<path d="M569.1,298.4c-1.1,0-1.9-0.9-1.9-1.9s0.9-1.9,1.9-1.9c1.1,0,1.9,0.9,1.9,1.9v0l0,0C571,297.5,570.1,298.4,569.1,298.4z
		 M569.1,298.4c1,0,1.9-0.8,1.9-1.8c0-1-0.8-1.9-1.8-1.9c-1,0-1.9,0.8-1.9,1.8C567.2,297.5,568,298.3,569.1,298.4
		C569,298.4,569,298.4,569.1,298.4L569.1,298.4z"/>
	<path d="M569.1,295.1c0.8,0,1.5,0.7,1.5,1.5c0,0.8-0.7,1.5-1.5,1.5c-0.8,0-1.5-0.7-1.5-1.5v0l0,0c0-0.8,0.5-1.4,1.3-1.5H569.1z"/>
	<path d="M569.1,298c-0.9,0-1.5-0.7-1.5-1.5c0-0.9,0.7-1.5,1.5-1.5c0.9,0,1.5,0.7,1.5,1.5c0,0.8-0.6,1.5-1.4,1.5c0,0,0,0,0,0H569.1z
		 M569.1,297.8c0.8,0,1.4-0.6,1.4-1.4c0-0.8-0.6-1.4-1.4-1.4c-0.8,0-1.4,0.6-1.4,1.4C567.7,297.2,568.3,297.8,569.1,297.8
		L569.1,297.8z"/>
	<path d="M430.6,271.7c1.5,0,2.6,1.2,2.6,2.6c0,1.5-1.2,2.6-2.6,2.6c-1.5,0-2.6-1.2-2.6-2.6c0-1.4,1.1-2.6,2.5-2.6H430.6z"/>
	<path d="M430.6,271.7c1.5,0,2.6,1.2,2.6,2.6c0,1.5-1.2,2.6-2.6,2.6c-1.5,0-2.6-1.2-2.6-2.6c0-1.4,1.1-2.6,2.5-2.6H430.6z"/>
	<path d="M430.6,272.5c1,0,1.8,0.9,1.8,1.9c0,1-0.9,1.8-1.9,1.8c-1,0-1.8-0.9-1.8-1.9C428.7,273.3,429.5,272.5,430.6,272.5
		L430.6,272.5z"/>
	<path d="M430.5,276.2c-1.1,0-1.9-0.9-1.9-1.9c0-1.1,0.9-1.9,1.9-1.9s1.9,0.9,1.9,1.9l0,0l0,0c0.1,1-0.7,1.9-1.7,1.9
		C430.6,276.2,430.6,276.2,430.5,276.2L430.5,276.2z M430.5,276.1c1,0,1.9-0.8,1.9-1.8c0-1-0.8-1.9-1.8-1.9c-1,0-1.9,0.8-1.9,1.8
		C428.6,275.2,429.4,276.1,430.5,276.1C430.4,276.1,430.4,276.1,430.5,276.1L430.5,276.1z"/>
	<path d="M430.6,272.9c0.8,0,1.5,0.7,1.5,1.5c0,0.8-0.7,1.5-1.5,1.5c-0.8,0-1.5-0.7-1.5-1.5l0,0l0,0
		C429.1,273.5,429.8,272.9,430.6,272.9C430.5,272.9,430.5,272.9,430.6,272.9L430.6,272.9z"/>
	<path d="M430.5,275.9c-0.9,0-1.5-0.7-1.5-1.5c0-0.9,0.7-1.5,1.5-1.5c0.9,0,1.5,0.7,1.5,1.5c0.1,0.8-0.5,1.5-1.3,1.5H430.5z
		 M430.6,275.7c0.8,0,1.4-0.6,1.4-1.4c0-0.8-0.6-1.4-1.4-1.4c-0.8,0-1.4,0.6-1.4,1.4C429.2,275,429.8,275.7,430.6,275.7
		C430.5,275.7,430.5,275.7,430.6,275.7L430.6,275.7z"/>
	<path d="M457.2,272c1.5,0,2.6,1.2,2.6,2.6c0,1.5-1.2,2.6-2.6,2.6c-1.5,0-2.6-1.2-2.6-2.6c0-1.4,1.1-2.6,2.5-2.6H457.2z"/>
	<path d="M457.2,272c1.5,0,2.6,1.2,2.6,2.6c0,1.5-1.2,2.6-2.6,2.6c-1.5,0-2.6-1.2-2.6-2.6c0-1.4,1.1-2.6,2.5-2.6H457.2z"/>
	<path d="M457.2,272.8c1,0,1.8,0.9,1.8,1.9c0,1-0.9,1.8-1.9,1.8c-1,0-1.8-0.9-1.8-1.9C455.3,273.6,456.1,272.8,457.2,272.8
		L457.2,272.8z"/>
	<path d="M457.1,276.5c-1.1,0-1.9-0.9-1.9-1.9c0-1.1,0.9-1.9,1.9-1.9c1.1,0,1.9,0.9,1.9,1.9l0,0l0,0c0.1,1-0.7,1.9-1.7,1.9
		C457.3,276.5,457.2,276.5,457.1,276.5L457.1,276.5z M457.1,276.5c1,0,1.9-0.8,1.9-1.8c0-1-0.8-1.9-1.8-1.9c-1,0-1.9,0.8-1.9,1.8
		C455.3,275.6,456.1,276.5,457.1,276.5z"/>
	<path d="M457.2,273.1c0.8,0,1.5,0.7,1.5,1.5c0,0.8-0.7,1.5-1.5,1.5c-0.8,0-1.5-0.7-1.5-1.5l0,0l0,0
		C455.7,273.8,456.4,273.1,457.2,273.1C457.1,273.1,457.1,273.1,457.2,273.1L457.2,273.1z"/>
	<path d="M457.1,276.1c-0.9,0-1.5-0.7-1.5-1.5s0.7-1.5,1.5-1.5c0.9,0,1.5,0.7,1.5,1.5c0.1,0.8-0.5,1.5-1.3,1.5
		C457.3,276.1,457.2,276.1,457.1,276.1z M457.1,275.9c0.8,0,1.4-0.6,1.4-1.4c0-0.8-0.6-1.4-1.4-1.4c-0.8,0-1.4,0.6-1.4,1.4
		C455.8,275.3,456.4,275.9,457.1,275.9z"/>
	<path d="M430.6,293.6c1.5,0,2.6,1.2,2.6,2.6c0,1.5-1.2,2.6-2.6,2.6c-1.5,0-2.6-1.2-2.6-2.6c0-1.4,1.1-2.6,2.5-2.6H430.6z"/>
	<path d="M430.6,293.6c1.5,0,2.6,1.2,2.6,2.6c0,1.5-1.2,2.6-2.6,2.6c-1.5,0-2.6-1.2-2.6-2.6c0-1.4,1.1-2.6,2.5-2.6H430.6z"/>
	<path d="M430.6,294.4c1,0,1.8,0.9,1.8,1.9c0,1-0.9,1.8-1.9,1.8c-1,0-1.8-0.9-1.8-1.9C428.7,295.2,429.5,294.4,430.6,294.4
		L430.6,294.4z"/>
	<path d="M430.5,298.1c-1.1,0-1.9-0.9-1.9-1.9c0-1.1,0.9-1.9,1.9-1.9s1.9,0.9,1.9,1.9l0,0l0,0c0.1,1-0.7,1.9-1.7,1.9
		C430.6,298.1,430.6,298.1,430.5,298.1L430.5,298.1z M430.5,298.1c1,0,1.9-0.8,1.9-1.8c0-1-0.8-1.9-1.8-1.9c-1,0-1.9,0.8-1.9,1.8
		C428.7,297.2,429.5,298,430.5,298.1z"/>
	<path d="M430.6,294.7c0.8,0,1.5,0.7,1.5,1.5c0,0.8-0.7,1.5-1.5,1.5c-0.8,0-1.5-0.7-1.5-1.5l0,0l0,0
		C429.1,295.4,429.8,294.7,430.6,294.7C430.5,294.7,430.5,294.7,430.6,294.7L430.6,294.7z"/>
	<path d="M430.5,297.7c-0.9,0-1.5-0.7-1.5-1.5s0.7-1.5,1.5-1.5c0.9,0,1.5,0.7,1.5,1.5c0.1,0.8-0.5,1.5-1.3,1.5H430.5z M430.6,297.5
		c0.8,0,1.4-0.6,1.4-1.4c0-0.8-0.6-1.4-1.4-1.4c-0.8,0-1.4,0.6-1.4,1.4C429.2,296.9,429.8,297.5,430.6,297.5
		C430.5,297.5,430.5,297.5,430.6,297.5L430.6,297.5z"/>
	<path d="M457.2,293.8c1.5,0,2.6,1.2,2.6,2.6c0,1.5-1.2,2.6-2.6,2.6c-1.5,0-2.6-1.2-2.6-2.6c0-1.4,1.1-2.6,2.5-2.6H457.2z"/>
	<path d="M457.2,293.8c1.5,0,2.6,1.2,2.6,2.6c0,1.5-1.2,2.6-2.6,2.6c-1.5,0-2.6-1.2-2.6-2.6c0-1.4,1.1-2.6,2.5-2.6H457.2z"/>
	<path d="M457.2,294.6c1,0,1.8,0.9,1.8,1.9c0,1-0.9,1.8-1.9,1.8c-1,0-1.8-0.9-1.8-1.9C455.3,295.5,456.1,294.6,457.2,294.6
		L457.2,294.6z"/>
	<path d="M457.1,298.4c-1.1,0-1.9-0.9-1.9-1.9c0-1.1,0.9-1.9,1.9-1.9c1.1,0,1.9,0.9,1.9,1.9l0,0l0,0c0.1,1-0.7,1.9-1.7,1.9
		C457.3,298.4,457.2,298.4,457.1,298.4L457.1,298.4z M457.1,298.4c1,0,1.9-0.8,1.9-1.8c0-1-0.8-1.9-1.8-1.9c-1,0-1.9,0.8-1.9,1.8
		C455.3,297.5,456.1,298.3,457.1,298.4z"/>
	<path d="M457.2,295.1c0.8,0,1.5,0.7,1.5,1.5c0,0.8-0.7,1.5-1.5,1.5c-0.8,0-1.5-0.7-1.5-1.5l0,0l0,0c-0.1-0.7,0.5-1.4,1.2-1.5H457.2
		z"/>
	<path d="M457.1,298c-0.9,0-1.5-0.7-1.5-1.5s0.7-1.5,1.5-1.5c0.9,0,1.5,0.7,1.5,1.5c0.1,0.8-0.5,1.5-1.2,1.5c0,0,0,0,0,0
		C457.3,298,457.2,298,457.1,298z M457.1,297.8c0.8,0,1.4-0.6,1.4-1.4c0-0.8-0.6-1.4-1.4-1.4c-0.8,0-1.4,0.6-1.4,1.4
		C455.8,297.2,456.4,297.8,457.1,297.8L457.1,297.8z"/>
	<path d="M254.1,293.6c1.5,0,2.6,1.2,2.6,2.6c0,1.5-1.2,2.6-2.6,2.6s-2.6-1.2-2.6-2.6S252.7,293.6,254.1,293.6L254.1,293.6z"/>
	<path d="M254.1,293.6c1.5,0,2.6,1.2,2.6,2.6c0,1.5-1.2,2.6-2.6,2.6s-2.6-1.2-2.6-2.6S252.7,293.6,254.1,293.6L254.1,293.6z"/>
	<path d="M254.1,294.4c1,0,1.8,0.9,1.8,1.9c0,1-0.9,1.8-1.9,1.8c-1,0-1.8-0.9-1.8-1.9C252.3,295.2,253.1,294.4,254.1,294.4z"/>
	<path d="M254.1,298.1c-1.1,0-1.9-0.9-1.9-1.9c0-1.1,0.9-1.9,1.9-1.9c1.1,0,1.9,0.9,1.9,1.9l0,0l0,0
		C256,297.2,255.2,298.1,254.1,298.1z M254.1,298.1c1,0,1.9-0.8,1.9-1.8c0-1-0.8-1.9-1.8-1.9c-1,0-1.9,0.8-1.9,1.8
		C252.3,297.2,253.1,298,254.1,298.1z"/>
	<path d="M254.2,294.7c0.8,0,1.5,0.7,1.5,1.5c0,0.8-0.7,1.5-1.5,1.5s-1.5-0.7-1.5-1.5l0,0l0,0C252.8,295.4,253.4,294.7,254.2,294.7
		C254.2,294.7,254.2,294.7,254.2,294.7L254.2,294.7z"/>
	<path d="M254.1,297.7c-0.9,0-1.5-0.7-1.5-1.5c0-0.9,0.7-1.5,1.5-1.5c0.9,0,1.5,0.7,1.5,1.5c0,0.8-0.6,1.5-1.4,1.5c0,0,0,0,0,0
		H254.1z M254.1,297.5c0.8,0,1.4-0.6,1.4-1.4c0-0.8-0.6-1.4-1.4-1.4s-1.4,0.6-1.4,1.4C252.8,296.9,253.4,297.5,254.1,297.5z"/>
	<path d="M280.7,293.8c1.5,0,2.6,1.2,2.6,2.6c0,1.5-1.2,2.6-2.6,2.6c-1.5,0-2.6-1.2-2.6-2.6S279.3,293.8,280.7,293.8
		C280.7,293.8,280.7,293.8,280.7,293.8z"/>
	<path d="M280.7,293.8c1.5,0,2.6,1.2,2.6,2.6c0,1.5-1.2,2.6-2.6,2.6c-1.5,0-2.6-1.2-2.6-2.6S279.3,293.8,280.7,293.8
		C280.7,293.8,280.7,293.8,280.7,293.8z"/>
	<path d="M280.7,294.6c1,0,1.8,0.9,1.8,1.9c0,1-0.9,1.8-1.9,1.8c-1,0-1.8-0.9-1.8-1.9C278.9,295.5,279.7,294.7,280.7,294.6z"/>
	<path d="M280.7,298.4c-1.1,0-1.9-0.9-1.9-1.9c0-1.1,0.9-1.9,1.9-1.9c1.1,0,1.9,0.9,1.9,1.9l0,0l0,0
		C282.6,297.5,281.8,298.4,280.7,298.4z M280.7,298.4c1,0,1.9-0.8,1.9-1.8c0-1-0.8-1.9-1.8-1.9c-1,0-1.9,0.8-1.9,1.8
		C278.9,297.5,279.7,298.3,280.7,298.4z"/>
	<path d="M280.8,295.1c0.8,0,1.5,0.7,1.5,1.5c0,0.8-0.7,1.5-1.5,1.5s-1.5-0.7-1.5-1.5l0,0l0,0c-0.1-0.7,0.5-1.4,1.2-1.5H280.8z"/>
	<path d="M280.7,298c-0.9,0-1.5-0.7-1.5-1.5s0.7-1.5,1.5-1.5c0.9,0,1.5,0.7,1.5,1.5c0.1,0.8-0.5,1.5-1.3,1.5H280.7z M280.7,297.8
		c0.8,0,1.4-0.6,1.4-1.4c0-0.8-0.6-1.4-1.4-1.4c-0.8,0-1.4,0.6-1.4,1.4C279.4,297.2,280,297.8,280.7,297.8L280.7,297.8z"/>
	<path class="st2" d="M433.3,326.3c1.3,0,2.6-0.5,3.5-1.5c2.2-2.1,2.4-5.6,0.4-7.9l-44.3-52.4H130.5l-25.2,45.2
		c-1.4,2.7-0.7,6,1.8,7.7c2.4,1.5,5.5,0.8,7-1.6l0.2-0.3l22.1-39.7h251.9l41.1,48.7C430.4,325.7,431.8,326.4,433.3,326.3z"/>
	<path class="st10" d="M824.1,301.6c3,0,5.4-2.4,5.3-5.4c0-3-2.4-5.3-5.3-5.3c-24.2,0-31.2-8.8-31.6-13.4v-235
		c0-26.2-34.8-31.4-36.2-31.7c-2.9-0.3-5.5,1.9-5.8,4.8c-0.3,2.8,1.6,5.2,4.3,5.7c0.4,0.1,27.3,4.2,27.3,21.1v235.1
		C782.3,278.6,782.8,301.6,824.1,301.6z"/>
	<rect x="771" y="47.1" class="st29" width="31.8" height="218.1"/>
	<rect x="794.8" y="47.1" class="st30" width="8" height="218.1"/>
	<rect x="771" y="206.7" class="st31" width="31.8" height="10.9"/>
	<rect x="771" y="79.2" class="st31" width="31.8" height="10.9"/>
	<path class="st5" d="M1012.1,38.3l0.3,0.1c3.7,0.8,6.8,3.2,8.6,6.4l66.2,107.9c1.3,2.4,1.9,5.1,1.8,7.8l-6.6,133.7
		c0,0.8-0.7,1.4-1.5,1.5h-70.3l-0.7-0.5c-11.6-25.5-37.1-41.9-65.1-41.8c-3.2,0-6.5,0.2-9.7,0.6H824.9c-4.8,0-9-2.9-10.7-7.4V41
		c0-1.5,1.2-2.6,2.6-2.6l0,0L1012.1,38.3L1012.1,38.3z"/>
	<path class="st32" d="M1069.1,276.4l6.9-116c0.1-2.2-0.4-4.4-1.5-6.4l-58.1-97.4c-2-3.4-5.6-5.4-9.5-5.4h-83.6
		c-6.1,0-11.1,4.9-11.1,11c0,0,0,0,0,0v167.5c0,6.1,5,11.1,11.1,11.1c0,0,0,0,0,0h0.4c22.4-0.6,71.7,2.5,89,39.7
		c1.8,3.9,5.7,6.3,10,6.3h35.5C1063.9,286.8,1068.8,282.3,1069.1,276.4z"/>
	<path class="st33" d="M924.9,151.6V64h74.5c4,0,7.7,2.1,9.7,5.5l54,90.7l0,0c-0.3,3.9-3.6,6.9-7.6,6.7c0,0,0,0,0,0
		c-0.1,0-0.2,0-0.3,0L924.9,151.6z"/>
	<line class="st32" x1="1009.2" y1="69.5" x2="1009.2" y2="160.6"/>
	<path class="st34" d="M929.3,166.8h23.4c1.7,0,3.1-1.3,3.1-3c0,0,0,0,0,0v-0.1l0,0c0-1.7-1.3-3.1-3-3.1c0,0,0,0,0,0h-23.5
		c-1.7,0-3.1,1.3-3.1,3v0.1l0,0c0,1.7,1.3,3,2.9,3.1c0,0,0,0,0,0H929.3z"/>
	<path class="st2" d="M1058.6,372.8h-72.3v-21.1c0-41.4-33.6-75-75-75l0,0c-41.4,0-75,33.6-75,75v21.1h-9.5
		c-7.1,0-12.8-5.7-12.8-12.8l0,0v-88.7c0-3,2.5-5.5,5.5-5.5c0,0,0,0,0,0h110.7c3.2-0.4,6.5-0.7,9.7-0.6c28,0,53.5,16.3,65.1,41.8
		l0.7,0.5h75.6l-13,57.5l0,0C1067.3,369.6,1063.3,372.8,1058.6,372.8z"/>
	<path class="st5" d="M1058.5,323.5v4c-0.1-1.1-0.7-2-1.6-2.6c-2.4,1.8-7.1,3.3-13.3,3.9l-29.5,3.2v-4l29.5-3.2
		c6.1-0.6,10.9-2.1,13.3-3.9C1057.8,321.4,1058.4,322.4,1058.5,323.5z"/>
	<path class="st5" d="M1058.5,328v4c0,3-6,5.5-14.9,6.5l-29.5,3.2v-4l29.5-3.2C1052.5,333.6,1058.5,331,1058.5,328z"/>
	<path class="st5" d="M1058.5,336v4c0,3-6,5.5-14.9,6.5l-29.5,3.2v-4l29.5-3.2C1052.5,341.7,1058.5,339,1058.5,336z"/>
	<path class="st35" d="M868.8,241.1c0,0.4,0.3,0.8,0.7,0.9h6.5c0.4-0.1,0.8-0.5,0.7-0.9v-7.9c0-0.4-0.3-0.8-0.7-0.9h-6.5
		c-0.4,0.1-0.8,0.5-0.7,0.9V241.1z"/>
	<path class="st10" d="M868.5,241.1v-7.9c0-0.6,0.4-1.1,1-1.2h6.5c0.6,0.1,1,0.6,1,1.2v7.9c0,0.6-0.4,1.1-1,1.2h-6.5
		C868.9,242.2,868.5,241.8,868.5,241.1C868.5,241.2,868.5,241.2,868.5,241.1C868.5,241.2,868.5,241.1,868.5,241.1z M869.4,232.7
		c-0.3,0-0.5,0.3-0.5,0.5v7.9c0,0.3,0.2,0.5,0.5,0.5h6.5c0.3,0,0.5-0.3,0.5-0.5v-7.9c0-0.3-0.2-0.5-0.5-0.5H869.4z"/>
	<path class="st36" d="M858.9,241.1c0,0.4,0.3,0.8,0.7,0.9h6.5c0.4-0.1,0.8-0.5,0.7-0.9v-7.9c0-0.4-0.3-0.8-0.7-0.9h-6.5
		c-0.4,0.1-0.8,0.5-0.7,0.9V241.1z"/>
	<path class="st10" d="M858.6,241.1v-7.9c0-0.6,0.4-1.1,1-1.2h6.5c0.6,0.1,1,0.6,1,1.2v7.9c0,0.6-0.4,1.1-1,1.2h-6.5
		C859,242.2,858.6,241.7,858.6,241.1z M859.6,232.7c-0.3,0-0.5,0.3-0.5,0.5v7.9c0,0.3,0.2,0.5,0.5,0.5h6.5c0.3,0,0.5-0.3,0.5-0.5
		v-7.9c0-0.3-0.2-0.5-0.5-0.5H859.6z"/>
	<path class="st8" d="M982.4,348.2c0,39.5-32,71.5-71.4,71.5c-39.5,0-71.5-32-71.5-71.4c0-39.5,32-71.5,71.4-71.5
		C950.4,276.7,982.4,308.7,982.4,348.2C982.4,348.2,982.4,348.2,982.4,348.2z"/>
	<path d="M982.4,348.2c0,39.5-32,71.5-71.4,71.5c-39.5,0-71.5-32-71.5-71.4c0-39.5,32-71.5,71.4-71.5
		C950.4,276.7,982.4,308.7,982.4,348.2C982.4,348.2,982.4,348.2,982.4,348.2z"/>
	
		<radialGradient id="SVGID_19_" cx="3013.5701" cy="-581.7862" r="61.3581" gradientTransform="matrix(-1 0 0 -1 3924.49 -233.59)" gradientUnits="userSpaceOnUse">
		<stop  offset="0" style="stop-color:#231F20"/>
		<stop  offset="0.41" style="stop-color:#252122"/>
		<stop  offset="0.56" style="stop-color:#2B2729"/>
		<stop  offset="0.67" style="stop-color:#353334"/>
		<stop  offset="0.74" style="stop-color:#414042"/>
		<stop  offset="0.77" style="stop-color:#4D4D4F"/>
		<stop  offset="0.8" style="stop-color:#555658"/>
		<stop  offset="0.85" style="stop-color:#58595B"/>
		<stop  offset="0.92" style="stop-color:#414042"/>
	</radialGradient>
	<path class="st37" d="M972.3,348.2c0,33.9-27.5,61.4-61.4,61.4c-33.9,0-61.4-27.5-61.4-61.4c0-33.9,27.5-61.4,61.4-61.4
		c0,0,0,0,0,0l0,0C944.8,286.9,972.3,314.3,972.3,348.2z"/>
	<path class="st10" d="M963.6,348.2c0,29.1-23.6,52.6-52.6,52.6s-52.6-23.6-52.6-52.6s23.6-52.6,52.6-52.6l0,0l0,0
		C940,295.6,963.6,319.1,963.6,348.2z"/>
	<path class="st11" d="M963.6,348.2c0,29.1-23.6,52.6-52.6,52.6s-52.6-23.6-52.6-52.6s23.6-52.6,52.6-52.6l0,0l0,0
		C940,295.6,963.6,319.1,963.6,348.2z"/>
	<path class="st12" d="M948.2,348.2c0,20.6-16.7,37.2-37.2,37.2s-37.2-16.7-37.2-37.2s16.7-37.2,37.2-37.2S948.2,327.6,948.2,348.2
		L948.2,348.2z"/>
	<path class="st13" d="M936.7,348.7c0,14.2-11.5,25.8-25.8,25.8c-14.2,0-25.8-11.5-25.8-25.8c0-14.2,11.5-25.8,25.8-25.8
		C925.2,322.9,936.7,334.4,936.7,348.7L936.7,348.7z"/>
	
		<linearGradient id="SVGID_20_" gradientUnits="userSpaceOnUse" x1="2981.929" y1="-564.8128" x2="3003.3499" y2="-564.8128" gradientTransform="matrix(-1 0 0 -1 3924.49 -233.59)">
		<stop  offset="3.000000e-02" style="stop-color:#6D6E71"/>
		<stop  offset="0.25" style="stop-color:#BCBEC0"/>
		<stop  offset="0.52" style="stop-color:#D1D3D4"/>
		<stop  offset="0.69" style="stop-color:#BCBEC0"/>
		<stop  offset="0.98" style="stop-color:#58595B"/>
	</linearGradient>
	<path class="st38" d="M921.1,335.8l11.6-14.7c4.1,3.3,7.5,7.4,9.8,12.2l-16.9,8.2C924.6,339.2,923,337.2,921.1,335.8z"/>
	
		<linearGradient id="SVGID_21_" gradientUnits="userSpaceOnUse" x1="2991.6047" y1="-605.7485" x2="3009.8486" y2="-605.7485" gradientTransform="matrix(-1 0 0 -1 3924.49 -233.59)">
		<stop  offset="3.000000e-02" style="stop-color:#6D6E71"/>
		<stop  offset="0.25" style="stop-color:#BCBEC0"/>
		<stop  offset="0.52" style="stop-color:#D1D3D4"/>
		<stop  offset="0.69" style="stop-color:#BCBEC0"/>
		<stop  offset="0.98" style="stop-color:#58595B"/>
	</linearGradient>
	<path class="st39" d="M932.9,376.1c-4.1,3.3-8.9,5.6-14.1,6.8l-4.2-18.2c2.4-0.5,4.6-1.6,6.5-3.2L932.9,376.1z"/>
	
		<linearGradient id="SVGID_22_" gradientUnits="userSpaceOnUse" x1="3023.8267" y1="-564.9943" x2="3045.2747" y2="-564.9943" gradientTransform="matrix(-1 0 0 -1 3924.49 -233.59)">
		<stop  offset="3.000000e-02" style="stop-color:#6D6E71"/>
		<stop  offset="0.25" style="stop-color:#BCBEC0"/>
		<stop  offset="0.52" style="stop-color:#D1D3D4"/>
		<stop  offset="0.69" style="stop-color:#BCBEC0"/>
		<stop  offset="0.98" style="stop-color:#58595B"/>
	</linearGradient>
	<path class="st40" d="M896.1,341.6l-16.9-8.1c2.3-4.8,5.6-8.9,9.7-12.3l11.7,14.6C898.7,337.4,897.2,339.3,896.1,341.6z"/>
	
		<linearGradient id="SVGID_23_" gradientUnits="userSpaceOnUse" x1="2978.3892" y1="-589.8553" x2="2998.748" y2="-589.8553" gradientTransform="matrix(-1 0 0 -1 3924.49 -233.59)">
		<stop  offset="3.000000e-02" style="stop-color:#6D6E71"/>
		<stop  offset="0.25" style="stop-color:#BCBEC0"/>
		<stop  offset="0.52" style="stop-color:#D1D3D4"/>
		<stop  offset="0.69" style="stop-color:#BCBEC0"/>
		<stop  offset="0.98" style="stop-color:#58595B"/>
	</linearGradient>
	<path class="st41" d="M927.3,348.7L927.3,348.7l18.7-0.1v0.1c0,5.3-1.2,10.5-3.4,15.2l-16.9-8.2
		C926.8,353.6,927.4,351.1,927.3,348.7z"/>
	
		<linearGradient id="SVGID_24_" gradientUnits="userSpaceOnUse" x1="3028.365" y1="-589.9006" x2="3048.7239" y2="-589.9006" gradientTransform="matrix(-1 0 0 -1 3924.49 -233.59)">
		<stop  offset="3.000000e-02" style="stop-color:#6D6E71"/>
		<stop  offset="0.25" style="stop-color:#BCBEC0"/>
		<stop  offset="0.52" style="stop-color:#D1D3D4"/>
		<stop  offset="0.69" style="stop-color:#BCBEC0"/>
		<stop  offset="0.98" style="stop-color:#58595B"/>
	</linearGradient>
	<path class="st42" d="M894.5,348.7c0,2.5,0.5,4.9,1.6,7.1l-16.9,8.2c-2.3-4.7-3.6-10-3.5-15.2H894.5z"/>
	
		<linearGradient id="SVGID_25_" gradientUnits="userSpaceOnUse" x1="3005.855" y1="-556.6055" x2="3021.4668" y2="-556.6055" gradientTransform="matrix(-1 0 0 -1 3924.49 -233.59)">
		<stop  offset="3.000000e-02" style="stop-color:#6D6E71"/>
		<stop  offset="0.25" style="stop-color:#BCBEC0"/>
		<stop  offset="0.52" style="stop-color:#D1D3D4"/>
		<stop  offset="0.69" style="stop-color:#BCBEC0"/>
		<stop  offset="0.98" style="stop-color:#58595B"/>
	</linearGradient>
	<path class="st43" d="M903,314.3c5.1-1.2,10.5-1.2,15.6-0.1l-4.1,18.3c-2.4-0.5-4.9-0.5-7.4,0L903,314.3z"/>
	
		<linearGradient id="SVGID_26_" gradientUnits="userSpaceOnUse" x1="3017.1826" y1="-605.7484" x2="3035.4358" y2="-605.7484" gradientTransform="matrix(-1 0 0 -1 3924.49 -233.59)">
		<stop  offset="3.000000e-02" style="stop-color:#6D6E71"/>
		<stop  offset="0.25" style="stop-color:#BCBEC0"/>
		<stop  offset="0.52" style="stop-color:#D1D3D4"/>
		<stop  offset="0.69" style="stop-color:#BCBEC0"/>
		<stop  offset="0.98" style="stop-color:#58595B"/>
	</linearGradient>
	<path class="st44" d="M907.3,364.6l-4.2,18.2c-5.2-1.2-10-3.5-14.2-6.7l11.7-14.7C902.6,363,904.9,364.1,907.3,364.6z"/>
	<rect x="611.8" y="309.3" class="st5" width="144" height="49.3"/>
	<polygon class="st2" points="630.6,288.9 741.6,288.9 741.6,294.3 755.9,294.3 755.9,309.4 611.8,309.4 611.8,294.3 630.6,294.3 	
		"/>
	<rect x="758.3" y="316.3" class="st5" width="50.1" height="42.4"/>
	<rect x="777.9" y="350.1" class="st5" width="10.8" height="1.1"/>
	<path class="st35" d="M783.8,341.3c0,0.3,0.1,0.5,0.3,0.5h2.6c0.2,0,0.3-0.2,0.3-0.5v-4.4c0-0.3-0.1-0.5-0.3-0.5H784
		c-0.2,0-0.3,0.2-0.3,0.5V341.3z"/>
	<path class="st10" d="M783.7,341.3v-4.4c0-0.4,0.2-0.7,0.4-0.7h2.6c0.2,0,0.4,0.3,0.4,0.7v4.4c0,0.4-0.2,0.7-0.4,0.7H784
		C783.9,342,783.7,341.8,783.7,341.3z M784,336.5c-0.1,0-0.2,0.2-0.2,0.3v4.4c0,0.2,0.1,0.3,0.2,0.3h2.6c0.1,0,0.2-0.2,0.2-0.3v-4.4
		c0-0.2-0.1-0.3-0.2-0.3H784z"/>
	<path class="st36" d="M779.8,341.3c0,0.3,0.1,0.5,0.3,0.5h2.6c0.2,0,0.3-0.2,0.3-0.5v-4.4c0-0.3-0.1-0.5-0.3-0.5H780
		c-0.2,0-0.3,0.2-0.3,0.5V341.3z"/>
	<path class="st10" d="M779.7,341.3v-4.4c0-0.4,0.2-0.7,0.4-0.7h2.6c0.2,0,0.4,0.3,0.4,0.7v4.4c0,0.4-0.2,0.7-0.4,0.7H780
		C779.9,342,779.7,341.8,779.7,341.3z M780,336.5c-0.1,0-0.2,0.2-0.2,0.3v4.4c0,0.2,0.1,0.3,0.2,0.3h2.6c0.1,0,0.2-0.2,0.2-0.3v-4.4
		c0-0.2-0.1-0.3-0.2-0.3H780z"/>
	<path class="st2" d="M835.9,54.2h8.4c-1.9,0-3.7,0.3-5.5,0.8c3.8,1.1,6.8,3.4,8.3,6.3l6.7,14h-8.4l-6.7-14
		c-1.4-2.9-4.4-5.2-8.3-6.3C832.2,54.5,834.1,54.2,835.9,54.2z"/>
	<path class="st2" d="M845.4,54.2h8.4c6.3,0,11.8,2.8,13.8,7.1l6.7,14h-8.4l-6.7-14C857.1,57.1,851.6,54.2,845.4,54.2z"/>
	<path class="st2" d="M862.4,54.2h8.4c6.3,0,11.8,2.8,13.8,7.1l6.7,14h-8.4l-6.7-14C874.2,57.1,868.6,54.2,862.4,54.2z"/>
</g>
<path class="st45" d="M43.5,404.4c0,13.5,234.2,24.5,523.1,24.5s523.1-11,523.1-24.5s-234.2-24.5-523.1-24.5S43.5,390.8,43.5,404.4z
	"/>
</svg>
