<?xml version="1.0" encoding="utf-8"?>
<!-- Generator: Adobe Illustrator 23.0.1, SVG Export Plug-In . SVG Version: 6.00 Build 0)  -->
<svg version="1.1" id="Layer_1" xmlns="http://www.w3.org/2000/svg" xmlns:xlink="http://www.w3.org/1999/xlink" x="0px" y="0px"
	 viewBox="0 0 1129.6 638.7" style="enable-background:new 0 0 1129.6 638.7;" xml:space="preserve">
<style type="text/css">
	.st0{opacity:0.1;fill:#1B1B19;enable-background:new    ;}
	.st1{fill:url(#SVGID_1_);}
	.st2{fill:#1A1B20;}
	.st3{fill:url(#SVGID_2_);}
	.st4{fill:#88A84C;}
	.st5{fill:#A7CB64;}
	.st6{fill:url(#SVGID_3_);}
	.st7{fill:url(#SVGID_4_);}
	.st8{fill:url(#SVGID_5_);}
	.st9{fill:url(#SVGID_6_);}
	.st10{fill:url(#SVGID_7_);}
	.st11{fill:url(#SVGID_8_);}
	.st12{fill:url(#SVGID_9_);}
	.st13{fill:#070608;}
	.st14{fill:#231F20;}
	.st15{fill:#414042;}
	.st16{fill:#3D3B3D;}
	.st17{fill:url(#SVGID_10_);}
	.st18{fill:#3B3A3A;}
	.st19{fill:#414042;stroke:#3D3B3D;stroke-width:0.3422;stroke-miterlimit:10;}
	.st20{fill:#AEA7A7;}
	.st21{opacity:0.93;fill:#403430;enable-background:new    ;}
	.st22{fill:#403430;}
	.st23{fill:#ED1C24;}
	.st24{fill:#ABA9A7;}
	.st25{fill:#FFFFFF;}
	.st26{fill:#805D19;stroke:#FFB932;stroke-width:0.1908;stroke-miterlimit:10;}
</style>
<path class="st0" d="M47.1,603.4c0,14.6,161,26.5,359.6,26.5s359.6-11.9,359.6-26.5s-161-26.5-359.6-26.5S47.1,588.7,47.1,603.4z"/>
<title>Excavator</title>
<g>
	
		<linearGradient id="SVGID_1_" gradientUnits="userSpaceOnUse" x1="-1964.3419" y1="463.1586" x2="-1964.3419" y2="474.7435" gradientTransform="matrix(8.000000e-02 -1.25 1.17 8.000000e-02 634.8601 -2161.3301)">
		<stop  offset="0" style="stop-color:#FFFFFF"/>
		<stop  offset="1" style="stop-color:#000000"/>
	</linearGradient>
	<path class="st1" d="M1029.9,252.2l6.4,0.4c1.2,0,2.1,1,2,2.1l0,0v0.1l-10.1,154.3c0,1.2-1,2-2.1,2h-0.2l-6.4-0.4c-1.2,0-2-1-2-2.1
		v-0.1l10.1-154.3C1027.7,253.1,1028.6,252.2,1029.9,252.2C1029.8,252.2,1029.8,252.2,1029.9,252.2L1029.9,252.2z"/>
	<path class="st2" d="M1043.1,68.6l3.9,0.3c2.9,0.2,5,2.7,4.8,5.6l-13.4,204.7c-0.2,2.9-2.7,5-5.6,4.8l-3.9-0.3
		c-2.9-0.2-5-2.7-4.8-5.6l13.4-204.7C1037.8,70.6,1040.3,68.4,1043.1,68.6z"/>
	<path class="st2" d="M1026.3,256.1l13,0.9c1.8,0.1,3.1,1.6,3,3.4l0,0l-1,14.4c-0.1,1.8-1.6,3.1-3.4,3l0,0l-13-0.9
		c-1.8-0.1-3.1-1.6-3-3.4l0,0l1-14.4C1023,257.4,1024.5,256,1026.3,256.1z"/>
	
		<linearGradient id="SVGID_2_" gradientUnits="userSpaceOnUse" x1="327.0756" y1="339.1494" x2="327.0756" y2="355.2644" gradientTransform="matrix(-0.96 0.28 -0.28 -0.96 1371.5232 292.2789)">
		<stop  offset="0" style="stop-color:#FFFFFF"/>
		<stop  offset="1" style="stop-color:#000000"/>
	</linearGradient>
	<path class="st3" d="M875.8,75.4l-2.1-7.4c-0.4-1.3,0.4-2.7,1.7-3l164.5-47.6c1.3-0.4,2.7,0.4,3,1.7l2.1,7.4c0.4,1.3-0.4,2.7-1.7,3
		L878.8,77.1C877.5,77.5,876.2,76.7,875.8,75.4C875.8,75.5,875.8,75.5,875.8,75.4C875.8,75.5,875.8,75.5,875.8,75.4z"/>
	<path class="st2" d="M680.2,133.5l-2.9-10c-0.5-1.7,0.4-3.6,2.1-4.1l0,0h0.1l223-64.5c1.7-0.5,3.6,0.4,4.1,2.1V57l2.9,10
		c0.5,1.7-0.4,3.6-2.1,4.1h-0.1l-223,64.5C682.5,136.2,680.7,135.2,680.2,133.5z"/>
	<path class="st2" d="M881.3,78.1L876.9,63c-0.5-2,0.5-3.9,2.5-4.6l0,0l15.1-4.4c2-0.5,3.9,0.5,4.6,2.5l0,0l4.4,15.1
		c0.5,2-0.5,3.9-2.5,4.6l0,0l-15.1,4.4C883.9,81.1,881.9,80.1,881.3,78.1z"/>
	<path class="st4" d="M968.8,90.5l17.3-38.9c0.8-1.8,1.9-3.5,3.2-5l10.2-11.5c1.2-1.4,2.6-2.6,4.2-3.6l24.5-15.3
		c2.6-1.6,5.6-2.6,8.6-2.8c8.1-0.4,15.6,4.4,18.4,12l13.9,36.6c1.6,4.1,1.7,8.7,0.4,12.9L961.3,413.5c-2.3,7.7-9.3,13.1-17.3,13.4
		c-1.6,0.1-3.2-0.1-4.8-0.4c-4.6-1.1-8.5-3.8-11.1-7.7c-2.6-3.9-3.7-8.8-3-13.4l42.3-309.6C967.7,94,968.1,92.2,968.8,90.5z"/>
	<path class="st5" d="M978.9,87.5l17.5-39.6c0.9-1.9,2-3.6,3.3-5.1l10.3-11.6c1.3-1.4,2.7-2.7,4.3-3.7l22.6-14.1
		c8.1-0.4,15.6,4.4,18.4,12l13.9,36.6c1.6,4.1,1.7,8.7,0.4,12.9L961.2,413.5c-2.3,7.7-9.3,13.1-17.3,13.4c-2.7-1.4-4.9-3.6-6.6-6.1
		c-2.6-4-3.8-8.9-3-13.6l43.1-314.3C977.6,91.1,978.1,89.3,978.9,87.5z"/>
	<path class="st4" d="M1025.7,97.7l-3.8,9.2l-52.6,23.2c0,0-186.8,38-258.6,55.8s-110.7,55.6-110.7,55.6l-69.8,77.2l-61.5,89.1
		l-39.8-22.8c0,0,43.4-83.8,115.6-183.1s182-91.2,182-91.2L933,91.7l30.7-14l56,9.2c4.3,0.6,7.2,4.7,6.5,8.9
		C1026.1,96.5,1026,97.1,1025.7,97.7L1025.7,97.7z"/>
	<path class="st5" d="M1025.4,90.1l-3.8,9.2l-52.6,23.2c0,0-186.8,38-258.6,55.8s-110.7,55.6-110.7,55.6L530,311l-61.5,89.1
		l-39.8-22.8c0,0,43.4-83.8,115.6-183.1s182-91.2,182-91.2l206.5-18.9l30.7-14l56,9.2c4.3,0.6,7.2,4.7,6.5,8.9
		C1025.9,88.9,1025.7,89.5,1025.4,90.1L1025.4,90.1z"/>
	
		<radialGradient id="SVGID_3_" cx="-352.5976" cy="-413.2914" r="6.1685" gradientTransform="matrix(-0.973 -0.2307 0.2307 -0.973 775.4421 -80.6652)" gradientUnits="userSpaceOnUse">
		<stop  offset="0" style="stop-color:#FFFFFF"/>
		<stop  offset="1" style="stop-color:#000000"/>
	</radialGradient>
	<path class="st6" d="M1026,399.7c3.3,0.8,5.4,4.1,4.6,7.4s-4.1,5.4-7.4,4.6c-3.3-0.8-5.4-4.1-4.6-7.4l0,0l0,0
		C1019.4,400.9,1022.7,398.9,1026,399.7L1026,399.7z"/>
	
		<radialGradient id="SVGID_4_" cx="-43.8699" cy="120.1088" r="7.5203" gradientTransform="matrix(-1 0 0 -1 995.63 146.12)" gradientUnits="userSpaceOnUse">
		<stop  offset="0" style="stop-color:#FFFFFF"/>
		<stop  offset="1" style="stop-color:#000000"/>
	</radialGradient>
	<path class="st7" d="M1039.6,18.5c4.1,0,7.5,3.4,7.5,7.5s-3.4,7.5-7.5,7.5s-7.5-3.4-7.5-7.5S1035.4,18.5,1039.6,18.5L1039.6,18.5z"
		/>
	
		<radialGradient id="SVGID_5_" cx="-9.6971" cy="54.8251" r="7.5294" gradientTransform="matrix(-1 0 0 -1 995.63 146.12)" gradientUnits="userSpaceOnUse">
		<stop  offset="0" style="stop-color:#FFFFFF"/>
		<stop  offset="1" style="stop-color:#000000"/>
	</radialGradient>
	<circle class="st8" cx="1005.4" cy="91.2" r="7.5"/>
	
		<radialGradient id="SVGID_6_" cx="298.5111" cy="22.9712" r="7.5293" gradientTransform="matrix(-1 0 0 -1 995.63 146.12)" gradientUnits="userSpaceOnUse">
		<stop  offset="0" style="stop-color:#FFFFFF"/>
		<stop  offset="1" style="stop-color:#000000"/>
	</radialGradient>
	<path class="st9" d="M697.1,115.6c4.1,0,7.5,3.4,7.5,7.5c0,4.1-3.4,7.5-7.5,7.5s-7.5-3.4-7.5-7.5C689.6,119,693,115.6,697.1,115.6
		L697.1,115.6z"/>
	<path class="st5" d="M948.3,397.7l-6.4-6.4c-0.3-0.4-0.5-0.7-0.6-1.2l-1.1-3.8c-0.2-0.4-0.2-1-0.2-1.5l0.3-9c0-1.1,0.3-2.2,0.7-3.2
		c1.1-2.9,3.3-5.6,5.6-6.8l10.7-5.2c0.9-0.5,2.1-0.6,3-0.1l79.5,39.9c1.4,1,1.5,3.6,0.4,6.4c-0.3,0.6-0.5,1.3-0.9,1.8
		c-0.9,1.6-2.1,3-3.5,4.1c-1,0.9-2.2,1.3-3.6,1.2l-83.2-15.5C948.7,398.5,948.3,398.1,948.3,397.7z"/>
	<path class="st5" d="M949.2,394.3l-6.4-6.4c-0.4-0.4-0.6-0.8-0.7-1.3l-1.1-3.8c-0.2-0.5-0.2-1.1-0.2-1.6l0.3-8.4
		c1.1-2.9,3.3-5.6,5.6-6.8l10.7-5.2c0.9-0.5,2.1-0.6,3-0.1l79.5,39.9c1.4,1,1.5,3.6,0.4,6.4c-0.6,1-1.4,1.8-2.4,2.5
		c-1.3,1-2.6,1.4-3.7,1.2L950,394.9C949.6,394.7,949.3,394.6,949.2,394.3z"/>
	
		<radialGradient id="SVGID_7_" cx="-1822.6819" cy="90.5984" r="10.0361" gradientTransform="matrix(-3.001518e-02 -0.9995 0.9995 -3.001518e-02 811.2545 -1439.6377)" gradientUnits="userSpaceOnUse">
		<stop  offset="0" style="stop-color:#FFFFFF"/>
		<stop  offset="1" style="stop-color:#000000"/>
	</radialGradient>
	<circle class="st10" cx="955" cy="377.3" r="10"/>
	<path class="st5" d="M1003,396.4l6.2-5.3c0.4-0.3,0.7-0.4,1.2-0.5l3.5-1c0.4-0.1,1-0.2,1.4-0.2h8.1c1,0,2,0.2,2.9,0.4
		c2.5,0.8,4.9,2.5,5.7,4.4l3.8,8.5c0.4,0.8,0.4,1.8-0.1,2.5l-42.1,69c-1,1.2-3.3,1.3-5.8,0.5c-0.4-0.2-1-0.4-1.5-0.6
		c-1.3-0.6-2.6-1.5-3.5-2.7c-0.7-0.7-1.1-1.8-0.8-2.9l20.4-71.2C1002.7,397.2,1002.9,396.8,1003,396.4z"/>
	<path class="st5" d="M1006.4,397.1l6.3-5.4c0.4-0.3,0.7-0.4,1.2-0.6l3.5-1c0.4-0.1,1-0.2,1.4-0.2h7.5c2.5,0.8,4.9,2.5,5.7,4.4
		l3.8,8.5c0.4,0.8,0.4,1.8-0.1,2.5l-42,69c-1,1.2-3.3,1.3-5.8,0.5c-0.8-0.5-1.5-1.2-2.1-1.9c-0.7-0.8-1.1-1.9-0.8-3l20.7-72
		C1006,397.7,1006.2,397.4,1006.4,397.1z"/>
	
		<radialGradient id="SVGID_8_" cx="2409.6567" cy="3228.4314" r="8.5499" gradientTransform="matrix(0.77 0.63 -0.63 0.77 1197.45 -3612.1301)" gradientUnits="userSpaceOnUse">
		<stop  offset="0" style="stop-color:#FFFFFF"/>
		<stop  offset="1" style="stop-color:#000000"/>
	</radialGradient>
	<path class="st11" d="M1013.2,409.8c-3.7-3-4.1-8.3-1.2-12c3-3.7,8.3-4.1,12-1.2c3.7,3,4.1,8.3,1.2,12l0,0l0,0
		C1022.2,412.3,1016.8,412.8,1013.2,409.8L1013.2,409.8z"/>
	<path class="st4" d="M972.2,582.3l-102.7-17.9l-8.6-1.5l-17.1-3l0.7-3.9l22-1.7l109.8-103.2l-17.8-13.7l2.4-3.1l21.6,10.7l3.5,1.6
		l15,8l7.2,3.2c9,2.3,14.6,11.1,13,20.2l-1.7,9.6C1019.5,487.5,1062,564.7,972.2,582.3z"/>
	<path class="st5" d="M978.7,585.3L876,567.3l-8.6-1.5l-17.1-3l0.7-3.9l22-1.7L982.8,454L965,440.3l2.4-3.1l21.6,10.7l3.5,1.6l15,8
		l7.2,3.2c9,2.3,14.6,11.1,13,20.2l-1.7,9.6C1026,490.4,1068.5,567.6,978.7,585.3z"/>
	<path class="st4" d="M978.7,585.3l-128.6-22.2l0.7-3.9l22-1.7l24.4-22.9c1.3,2.7,3,5.3,4.7,7.7c9.8,13.8,27.6,26.1,44.6,28.2
		c17.7,2.2,36.9-0.4,51.5-11.5c15-11.5,23.9-26.1,28.2-44.6c1.3-5.7,2.3-11.5,2.9-17.3C1036.9,516.1,1052.5,570.8,978.7,585.3z"/>
	
		<linearGradient id="SVGID_9_" gradientUnits="userSpaceOnUse" x1="974.1952" y1="2201.9871" x2="974.1952" y2="2215.2732" gradientTransform="matrix(6.123234e-17 1 -1 6.123234e-17 2487.01 -757.66)">
		<stop  offset="0" style="stop-color:#FFFFFF"/>
		<stop  offset="1" style="stop-color:#000000"/>
	</linearGradient>
	<path class="st12" d="M280.1,235.8h-8.3c-0.6,0-1.1-0.4-1.1-1.1v-36.4c0-0.6,0.4-1.1,1.1-1.1h8.3c0.6,0,1.1,0.4,1.1,1.1v36.4
		C281.1,235.3,280.6,235.7,280.1,235.8z"/>
	<path class="st2" d="M281.6,280.3h-11.3c-0.8,0-1.4-0.6-1.4-1.4l0,0v-49.4c0-0.8,0.6-1.4,1.4-1.4l0,0h11.2c0.8,0,1.4,0.6,1.4,1.4
		l0,0v49.4C283,279.7,282.3,280.3,281.6,280.3z"/>
	<path class="st2" d="M283,234.7h-14c-1.3,0-2.5-1.2-2.5-2.5l0,0c0-1.3,1.2-2.5,2.5-2.5h14c1.3,0,2.5,1.2,2.5,2.5l0,0l0,0
		C285.4,233.6,284.3,234.7,283,234.7z"/>
	<path class="st13" d="M262.7,247h-8.1c-9,0-16.4,7.3-16.5,16.3l-0.1,3.8h124.6l0.6-7.9c0.3-4.1,0.3-8.1,0-12.3h-59.1l-0.2,0.8h-2.8
		l-0.2-0.8h-13.4v2.4h-3.9v-2.4h-17.2l-0.2,0.8h-3.5L262.7,247L262.7,247z"/>
	<rect x="331.8" y="421.5" class="st14" width="177.1" height="13.7"/>
	<rect x="331.8" y="433.2" class="st15" width="193.7" height="13.7"/>
	<path class="st15" d="M131.8,569.9h43.8v14.5h-43.8V569.9z M190.1,569.9h43.5v14.5h-43.5V569.9L190.1,569.9z M248.1,569.9h43.5
		v14.5h-43.5V569.9z M306.1,569.9h43.5v14.5h-43.5V569.9z M364.1,569.9h43.5v14.5h-43.5V569.9z M422.1,569.9h43.5v14.5h-43.5V569.9z
		 M480.1,569.9h43.5v14.5h-43.5V569.9z M538.1,569.9h43.5v14.5h-43.5V569.9z M596.1,569.9h43.5v14.5h-43.5V569.9z M654.1,569.9h25.5
		c5.3,0,10.7-0.7,15.8-2.1l3.9,14c-6.4,1.8-13.1,2.7-19.7,2.7h-25.5V569.9z M75.5,557.5l11.3-9.2c8.2,10,19.6,17.1,32.2,20.1
		l-3.2,14.1C100,578.8,85.8,570,75.5,557.5L75.5,557.5z M707.3,562.8c11.5-6.2,20.6-16,25.9-27.9l13.3,5.9
		c-6.6,14.9-18,27-32.2,34.8L707.3,562.8z M59.1,511.3c0-4.8,0.5-9.6,1.4-14.3l14.2,2.9c-0.8,3.8-1.2,7.6-1.2,11.5
		c0,9,2.1,18,6.2,26.1l-13,6.5C61.7,533.9,59.1,522.7,59.1,511.3z M737,522.6c0.7-3.8,1.1-7.5,1.1-11.4c0-9.1-2.1-18.1-6.3-26.2
		l13-6.5c5.2,10.1,8,21.4,7.9,32.9c0,4.7-0.5,9.5-1.4,14.1L737,522.6z M65.4,481.7c6.6-14.8,17.9-27,32.2-34.7l6.9,12.8
		c-11.5,6.2-20.5,15.9-25.9,27.8L65.4,481.7z M692.6,454.3l3.2-14.1c15.8,3.7,30,12.4,40.3,25l-11.2,9.2
		C716.5,464.3,705.3,457.2,692.6,454.3z M112.6,441c6.4-1.8,12.9-2.7,19.5-2.7h25.7v14.5h-25.7c-5.3,0-10.6,0.7-15.7,2.1L112.6,441z
		 M172.2,452.8v-14.5h43.5v14.5H172.2z M230.2,438.3h43.5v14.5h-43.5V438.3z M288.2,438.3h43.5v14.5h-43.5V438.3z M346.3,438.3h43.5
		v14.5h-43.5V438.3z M404.3,438.3h43.5v14.5h-43.5V438.3z M462.3,438.3h43.5v14.5h-43.5V438.3L462.3,438.3z M520.3,438.3h43.5v14.5
		h-43.5V438.3z M578.3,438.3h43.5v14.5h-43.5V438.3z M636.2,452.8v-14.5h43.5l-0.1,14.5H636.2z"/>
	<path class="st14" d="M66.3,540.5v-58.3c0.1-20.2,16.4-36.5,36.6-36.6h605.8c20.2,0.1,36.5,16.4,36.6,36.6v58.3
		c-0.1,20.2-16.4,36.5-36.6,36.6H103C82.8,577.1,66.4,560.7,66.3,540.5z"/>
	<path class="st15" d="M132.1,555.3c-24.3,0-44-19.7-44-44s19.7-44,44-44h547.6c24.3,0,44,19.7,44,44c0,24.3-19.7,44-44,44H132.1z"
		/>
	<path class="st16" d="M138,456.7c-30.8,0-55.8,25-55.8,55.8s25,55.8,55.8,55.8s55.8-25,55.8-55.8l0,0l0,0
		C193.8,481.7,168.8,456.7,138,456.7z"/>
	<path d="M138,456.7c-30.8,0-55.8,25-55.8,55.8s25,55.8,55.8,55.8s55.8-25,55.8-55.8l0,0l0,0C193.8,481.7,168.8,456.7,138,456.7z"/>
	
		<radialGradient id="SVGID_10_" cx="3684.3921" cy="-366.3491" r="47.8078" gradientTransform="matrix(-1 0 0 -1 3822.5 146.12)" gradientUnits="userSpaceOnUse">
		<stop  offset="0" style="stop-color:#231F20"/>
		<stop  offset="0.41" style="stop-color:#252122"/>
		<stop  offset="0.56" style="stop-color:#2B2729"/>
		<stop  offset="0.67" style="stop-color:#353334"/>
		<stop  offset="0.74" style="stop-color:#414042"/>
		<stop  offset="0.77" style="stop-color:#4D4D4F"/>
		<stop  offset="0.8" style="stop-color:#555658"/>
		<stop  offset="0.85" style="stop-color:#58595B"/>
		<stop  offset="0.92" style="stop-color:#414042"/>
	</radialGradient>
	<path class="st17" d="M138.1,464.7c-26.4,0-47.8,21.4-47.8,47.8c0,26.4,21.4,47.8,47.8,47.8s47.8-21.4,47.8-47.8
		C185.9,486.1,164.5,464.7,138.1,464.7L138.1,464.7z"/>
	<path class="st14" d="M138,471.5c-22.7,0-41,18.4-41,41.1c0,22.7,18.4,41,41.1,41s41-18.4,41-41.1
		C179.1,489.8,160.8,471.6,138,471.5L138,471.5L138,471.5z"/>
	<path class="st18" d="M138,471.5c-22.7,0-41,18.4-41,41.1c0,22.7,18.4,41,41.1,41s41-18.4,41-41.1
		C179.1,489.8,160.8,471.6,138,471.5L138,471.5L138,471.5z"/>
	<path class="st19" d="M138,483.5c-16,0-29,13-29,29c0,16,13,29,29,29s29-13,29-29C167,496.5,154,483.5,138,483.5L138,483.5z"/>
	<path class="st14" d="M138,492.8c-11.1,0-20.1,9-20.1,20.1s9,20.1,20.1,20.1s20.1-9,20.1-20.1l0,0l0,0
		C158.2,501.8,149.1,492.8,138,492.8z"/>
	<path class="st14" d="M149.5,507.3l13.2-6.4c-1.8-3.7-4.4-6.9-7.6-9.5l-9,11.5C147.5,504,148.8,505.6,149.5,507.3z"/>
	<path class="st14" d="M146.1,522.9c-1.5,1.3-3.2,2.1-5.1,2.5l3.2,14.2c4-0.9,7.8-2.7,11-5.3L146.1,522.9z"/>
	<path class="st14" d="M130.1,502.7l-9.1-11.4c-3.2,2.6-5.8,5.9-7.6,9.6l13.2,6.4C127.4,505.6,128.6,504.1,130.1,502.7z"/>
	<path class="st14" d="M149.7,518.4l13.2,6.4c1.8-3.8,2.7-7.8,2.7-11.9v-0.1l-14.6,0.1l0,0C150.9,514.8,150.5,516.7,149.7,518.4z"/>
	<path class="st14" d="M110.5,512.9c0.1,4.1,1,8.1,2.8,11.9l13.2-6.4c-0.8-1.7-1.3-3.7-1.3-5.6H110.5z"/>
	<path class="st14" d="M135.2,500.4c1.9-0.4,3.8-0.4,5.7,0l3.2-14.2c-4-0.9-8.1-0.9-12.2,0L135.2,500.4z"/>
	<path class="st14" d="M130.1,522.9l-9.1,11.5c3.2,2.6,7,4.4,11,5.3l3.2-14.2C133.4,525,131.6,524.1,130.1,522.9z"/>
	<path class="st20" d="M207.1,512.8L207.1,512.8c0.1,17.2,14,31.1,31.2,31.2h405.5c17.4,16.9,45.1,16.5,62-0.9
		c16.9-17.4,16.5-45.1-0.9-62c-17.3-16.8-44.9-16.5-61.9,0.7H238.3C221.1,481.9,207.2,495.7,207.1,512.8z"/>
	<path class="st4" d="M185.4,407.3V335c0-65.4,31.8-70.5,70.5-70.5h116v142.8c0,4-3.2,7.3-7.3,7.3H192.6
		C188.7,414.6,185.4,411.4,185.4,407.3L185.4,407.3z"/>
	<path class="st5" d="M206.4,407.3V335c0-65.4,31.8-70.5,70.5-70.5h116v142.8c0,4-3.2,7.3-7.3,7.3H213.7
		C209.6,414.5,206.4,411.3,206.4,407.3z"/>
	<path class="st4" d="M443.8,172.3v246.2h139.7c17.8,0,26.8-61.4,23.5-79c-7.8-41-11.9-36.6-19.7-77.7c-3.9-20.5-7.7-41.1-10.8-61.8
		c-2-12.9-4.4-27.8-20.9-27.8L443.8,172.3L443.8,172.3z M456.9,203.5c0-9,7.3-16.4,16.4-16.4h70c16.5,0,19,14.8,20.9,27.8
		c3.1,20.7,7,41.3,10.8,61.8c0.4,1.7,0.6,3.5,1,5.2c1.7,8.9-4.2,17.5-13.1,19.2c-1,0.2-2,0.3-3,0.3h-86.7c-9,0-16.4-7.3-16.4-16.4
		V203.5z"/>
	<path class="st21" d="M456.9,203.4v81.5c0,9,7.3,16.4,16.4,16.4H560c9,0,16.4-7.3,16.4-16.5c0-1.1-0.1-2.1-0.3-3
		c-0.4-1.7-0.6-3.5-1-5.2c-3.9-20.5-7.7-41.1-10.8-61.8c-2-12.9-4.4-27.8-20.9-27.8h-70C464.3,187,456.9,194.4,456.9,203.4
		L456.9,203.4z"/>
	<path class="st4" d="M364.7,418.6h83.4V172.3h-55.3c-13.6,0-20.3,11-20.3,24.6l-35.7,187.9c-3,15.5,7.3,30.3,22.7,33.3
		C361.2,418.5,362.9,418.6,364.7,418.6z"/>
	<path class="st22" d="M440.4,282.7v-78.2c0-9.6-7.8-17.5-17.4-17.5l0,0h-18.2c-13.1,0-19.8,10.3-20.2,23.2c0,1-0.1,1.9-0.3,2.9
		l-12.6,66.3c-1.8,9.5,4.4,18.6,14,20.5l0,0c1.1,0.2,2.1,0.3,3.2,0.3h34c9.6,0,17.4-7.7,17.5-17.3L440.4,282.7L440.4,282.7z"/>
	<path class="st5" d="M184.7,408.2c1.4,9.6,8,16.8,15.8,16.8h381.4c7.8,0,14.2-7.3,15.8-16.8H184.7z"/>
	<path class="st23" d="M466.5,320.9c0-0.4,0.3-0.7,0.6-0.8h5.8c0.4,0.1,0.6,0.4,0.6,0.8v7.1c0,0.4-0.3,0.7-0.6,0.8h-5.8
		c-0.4-0.1-0.6-0.4-0.6-0.8V320.9z"/>
	<path class="st14" d="M466.2,328V321c0-0.5,0.4-1,0.9-1.1h5.8c0.5,0,0.9,0.4,0.9,1.1v7.1c0,0.5-0.4,1-0.9,1.1h-5.8
		C466.6,329,466.2,328.6,466.2,328z M467.1,320.5c-0.3,0-0.4,0.2-0.4,0.4l0,0v7.2c0,0.3,0.2,0.4,0.4,0.4h5.8c0.3,0,0.4-0.2,0.4-0.4
		l0,0V321c0-0.3-0.2-0.4-0.4-0.4H467.1z"/>
	<path class="st24" d="M457.6,320.9c0-0.4,0.3-0.7,0.6-0.8h5.8c0.4,0.1,0.6,0.4,0.6,0.8v7.1c0,0.4-0.3,0.7-0.6,0.8h-5.8
		c-0.4-0.1-0.6-0.4-0.6-0.8V320.9z"/>
	<path class="st14" d="M457.4,328V321c0-0.5,0.4-1,0.9-1.1h5.8c0.5,0,0.9,0.4,0.9,1.1v7.1c0,0.5-0.4,1-0.9,1.1h-5.8
		C457.7,329,457.4,328.6,457.4,328z M458.3,320.5c-0.3,0-0.4,0.2-0.4,0.4l0,0v7.2c0,0.3,0.2,0.4,0.4,0.4h5.8c0.3,0,0.4-0.2,0.4-0.4
		l0,0V321c0-0.3-0.2-0.4-0.4-0.4H458.3z"/>
	<path class="st4" d="M278.8,284.5c3.4,1,6.2,3,7.4,5.6l6,12.6h7.5l-6-12.6c-1.3-2.6-4-4.7-7.4-5.6c1.6-0.4,3.3-0.7,5-0.7h-7.5
		C282.1,283.8,280.4,284.1,278.8,284.5z"/>
	<path class="st4" d="M304.5,290.2l6,12.6h7.5l-6-12.6c-1.8-3.8-6.8-6.4-12.4-6.4h-7.5C297.7,283.8,302.7,286.3,304.5,290.2z"/>
	<path class="st4" d="M319.8,290.2l6,12.6h7.5l-6-12.6c-1.8-3.8-6.8-6.4-12.4-6.4h-7.5C313.1,283.8,318.1,286.3,319.8,290.2z"/>
	<path class="st4" d="M224.7,284.5c3.4,1,6.2,3,7.4,5.6l6,12.6h7.5l-6-12.6c-1.3-2.6-4-4.7-7.4-5.6c1.6-0.4,3.3-0.7,5-0.7h-7.5
		C228,283.8,226.3,284.1,224.7,284.5z"/>
	<path class="st4" d="M250.5,290.2l6,12.6h7.5l-6-12.6c-1.8-3.8-6.8-6.4-12.4-6.4h-7.5C243.7,283.8,248.7,286.3,250.5,290.2z"/>
	<path class="st4" d="M265.8,290.2l6,12.6h7.5l-6-12.6c-1.8-3.8-6.8-6.4-12.4-6.4h-7.5C259.1,283.8,264,286.3,265.8,290.2z"/>
	<path class="st25" d="M441.3,365.9v-22c0-1.3,1.2-2.5,2.5-2.5h16.7c1.3,0,2.5,1.2,2.5,2.5v22c0,1.3-1.2,2.5-2.5,2.5h-16.7
		C442.5,368.4,441.3,367.3,441.3,365.9z"/>
	<path class="st26" d="M441,366v-22.3c0-2,1.6-3.6,3.6-3.6h8.1c2,0,3.6,1.6,3.6,3.6V366c0,2-1.6,3.6-3.6,3.6h-8.1
		C442.6,369.6,441,368,441,366z"/>
	<path class="st25" d="M439.4,367.2v-24.8c0-1.3,1-2.2,2.2-2.2l0,0h10.7c1.3,0,2.3,1,2.3,2.3l0,0v24.8c0,1.3-1,2.3-2.3,2.3h-10.7
		c-1.3,0-2.2-1-2.2-2.1C439.4,367.3,439.4,367.3,439.4,367.2z"/>
</g>
</svg>
