<?xml version="1.0" encoding="utf-8"?>
<!-- Generator: Adobe Illustrator 23.0.1, SVG Export Plug-In . SVG Version: 6.00 Build 0)  -->
<svg version="1.1" id="Layer_1" xmlns="http://www.w3.org/2000/svg" xmlns:xlink="http://www.w3.org/1999/xlink" x="0px" y="0px"
	 viewBox="0 0 1130.5 591.7" style="enable-background:new 0 0 1130.5 591.7;" xml:space="preserve">
<style type="text/css">
	.st0{opacity:0.1;fill:#1B1B19;enable-background:new    ;}
	.st1{fill:#1A1B20;}
	.st2{fill:#D5CCCC;}
	.st3{fill:#312527;}
	.st4{fill:#F6F6F6;}
	.st5{opacity:0.6;fill:#F6F6F6;enable-background:new    ;}
	.st6{opacity:0.6;fill:#DAD1D1;enable-background:new    ;}
	.st7{fill:#A7CB64;}
	.st8{fill:#231F20;}
	.st9{fill:#88A84C;}
	.st10{fill:url(#SVGID_1_);}
	.st11{fill:#FAAA28;}
	.st12{fill:#ED1C24;}
	.st13{fill:#ABA9A7;}
	.st14{fill:url(#SVGID_2_);}
	.st15{fill:url(#SVGID_3_);}
	.st16{fill:url(#SVGID_4_);}
	.st17{fill:url(#SVGID_5_);}
	.st18{fill:url(#SVGID_6_);}
	.st19{fill:url(#SVGID_7_);}
	.st20{fill:url(#SVGID_8_);}
	.st21{fill:url(#SVGID_9_);}
	.st22{fill:url(#SVGID_10_);}
	.st23{fill:url(#SVGID_11_);}
	.st24{fill:url(#SVGID_12_);}
	.st25{fill:url(#SVGID_13_);}
	.st26{fill:url(#SVGID_14_);}
	.st27{fill:url(#SVGID_15_);}
	.st28{fill:#382F2D;}
</style>
<path class="st0" d="M73.6,533.1c0,11.8,206,21.5,460.1,21.5s460.1-9.7,460.1-21.5s-206-21.5-460.1-21.5S73.6,521.1,73.6,533.1z"/>
<title>Road rollar</title>
<g>
	<path class="st1" d="M539.1,249.1h-92.3c-2.7,0-4.8-2.2-4.8-4.8v-16.1c0-2.7,2.2-4.8,4.8-4.8h92.3c2.7,0,4.8,2.2,4.8,4.8v16.1
		C543.9,246.9,541.7,249,539.1,249.1z"/>
	<circle class="st2" cx="844" cy="384" r="166.6"/>
	<path class="st2" d="M844.1,556.3C749,556.3,671.7,479,671.7,384s77.3-172.3,172.3-172.3S1016.4,289,1016.4,384
		S939.1,556.3,844.1,556.3z M844.1,223.3c-88.6,0-160.7,72.1-160.7,160.7s72.1,160.7,160.7,160.7s160.7-72.1,160.7-160.7
		S932.6,223.3,844.1,223.3L844.1,223.3z"/>
	<circle class="st3" cx="844" cy="384" r="147.1"/>
	<circle class="st4" cx="844" cy="384" r="139"/>
	<circle class="st5" cx="844" cy="384" r="131"/>
	<path class="st6" d="M902.4,257.8c11.6,6.3,22.3,14,32,22.9c25.9,23.8,37,59.1,38.6,93.2c0.8,17.6-3.1,35.1-11.3,50.7
		c-12,32.2-37.4,57.7-69.7,69.7c-15.6,8.2-33.1,12.1-50.7,11.3c-35.7,0-67.4-14.9-93.2-38.6c-25.8-23.7-37-59.1-38.6-93.2
		c-0.8-17.6,3.1-35.1,11.3-50.7c1.5-4.4,3.2-8.6,5.1-12.8c-40.5,65.1-20.6,150.8,44.5,191.3c65.1,40.5,150.8,20.6,191.3-44.5
		c40.5-65.1,20.6-150.8-44.5-191.3C912.5,262.9,907.5,260.2,902.4,257.8L902.4,257.8z"/>
	<path class="st7" d="M601.6,305.6c0.6-1.4,1.3-2.7,1.9-4h-26.1l-3.3-51.1c-0.5-6.2-1-12-1.4-17.4c-3.2-41-4.8-61.6-17.6-61.6h-2.7
		v-2H569c15.6,0,20.8,17,31.2,50.7c2.6,8.4,5.5,18,9.1,28.4l10,30.7c0.9-1,1.8-2,2.8-2.9l-9.4-29.2c-3.5-10.4-6.4-19.9-9-28.3
		c-10.6-34.5-16.5-53.5-34.6-53.5h-20.3l-2.5,140.2h2.4v0.3h28.9v-0.3L601.6,305.6L601.6,305.6z M552.3,301.6V175.6h2.7
		c9.5,0,11.2,20.6,14.1,57.9c0.5,5.4,0.9,11.2,1.4,17.4l3.3,50.8H552.3z"/>
	<path class="st8" d="M639.3,132.3l-58.9,32.3c-0.6,0.3-1.3,0.1-1.6-0.5L576,159c-0.3-0.6-0.1-1.3,0.5-1.6l58.9-32.3
		c0.6-0.3,1.3-0.1,1.6,0.5l2.8,5.1C640.1,131.3,639.9,132,639.3,132.3z"/>
	<path class="st8" d="M635.9,174.6l-17.9,9.8c-0.6,0.3-1.3,0.1-1.6-0.5l-17.8-32.6c-0.3-0.6-0.1-1.3,0.5-1.6l17.9-9.8
		c0.6-0.3,1.3-0.1,1.6,0.5l17.8,32.6C636.6,173.5,636.4,174.2,635.9,174.6z"/>
	<path class="st9" d="M487.6,27.2l-45.4,5.4c-0.2,0-0.3,0.1-0.4,0.3l-56.3,128.9l19.7,139.9h20.1l-19.7-139.9L462,32.9
		c0.1-0.2,0.2-0.3,0.4-0.3l25.3-3L487.6,27.2L487.6,27.2z"/>
	<polygon class="st7" points="717.7,346.4 491.7,335.8 491.7,437.4 717.7,445.6 	"/>
	<path class="st7" d="M648.7,172.8c-2.7-2.3-8-2.1-12.2,0.5l-23,13.8l5.3,52.7l-25.6,17.2v49.6l1.9,4.4l115.6-69.9L648.7,172.8z"/>
	<path class="st9" d="M659.2,383.1l-2.6-0.3L643,378l-29.7,1.8L576,405.6h-19V442h102.2L659.2,383.1z"/>
	<path class="st7" d="M590.2,391.8l-51.2-3v8.9h33.6v8.1H539v3.4h33.5v8.1H539v3.4h33.5v8.1H539v3.4h33.5v8.2H539v5.7h12.7
		c9.8,0,19-0.4,26.9-1c6.6-0.6,11.7-6.1,11.6-12.7L590.2,391.8L590.2,391.8z"/>
	
		<linearGradient id="SVGID_1_" gradientUnits="userSpaceOnUse" x1="715.822" y1="1361.4904" x2="715.822" y2="1385.121" gradientTransform="matrix(6.123234e-17 1 1 -6.123234e-17 -1221.83 -573.63)">
		<stop  offset="0" style="stop-color:#FFFFFF"/>
		<stop  offset="1" style="stop-color:#000000"/>
	</linearGradient>
	<path class="st10" d="M146.6,174.8v-65.3c0-0.9,0.7-1.6,1.6-1.6c0,0,0,0,0,0h15.2c0.9,0,1.6,0.7,1.6,1.6c0,0,0,0,0,0v65.3
		c0,0.9-0.7,1.6-1.6,1.6c0,0,0,0,0,0h-15.2C147.4,176.5,146.6,175.7,146.6,174.8C146.6,174.8,146.6,174.8,146.6,174.8L146.6,174.8z"
		/>
	<path class="st1" d="M143.3,253.6v-88.4c0-1.2,1-2.2,2.2-2.2h20.6c1.2,0,2.2,1,2.2,2.2v88.5c0,1.2-1,2.2-2.2,2.2h-20.6
		C144.3,255.9,143.3,254.8,143.3,253.6z"/>
	<path class="st1" d="M138.9,170.2L138.9,170.2c0-2.5,2-4.5,4.5-4.5h24.9c2.5,0,4.5,2,4.5,4.5l0,0c0,2.5-2,4.5-4.5,4.5h-24.9
		c-2.4,0-4.4-1.9-4.5-4.4c0,0,0,0,0,0V170.2z"/>
	<path class="st7" d="M400.4,143.5L48.5,268.7v100.6c0,5.4,3.2,10.2,8.1,12.3l154.1,66.1h323c5.8,0,10.5-4.7,10.5-10.5l0,0l0,0V306
		h-98.5L400.4,143.5z"/>
	<polygon class="st9" points="611.3,452.6 611.3,364.6 671.2,320.6 1064.2,345 1082,414.4 940.4,468.5 	"/>
	<polygon class="st7" points="1064.2,345 1016.2,342 1016.2,365.1 728.9,365.1 728.9,324.2 671.2,320.6 611.3,364.6 611.3,387 
		1074.9,387 	"/>
	<path class="st9" d="M356.2,160.9l14.7,39L303,339.3H98.4c-10.8,0-20.6-6.2-25.1-16l-24.8-52.9"/>
	<rect x="557.3" y="27.9" class="st11" width="8" height="1.6"/>
	<rect x="557.3" y="29.6" class="st11" width="8" height="3.7"/>
	<rect x="473.5" y="29.6" class="st11" width="83.8" height="3.7"/>
	<path class="st9" d="M535.9,235h-68.4l-17.3-63.3c-2.4-6.7-9.6-10.3-16.5-8.3l-30,8.7l45.8,133.7h76.9l23.2-48.4
		c3.9-7.6,0.8-16.9-6.8-20.7C540.7,235.5,538.3,235,535.9,235L535.9,235z"/>
	<path class="st12" d="M284.2,227.6c0,0.4,0.3,0.8,0.7,0.8h6.4c0.4,0,0.7-0.4,0.7-0.8v-7c0-0.4-0.3-0.8-0.7-0.8h-6.4
		c-0.4,0-0.7,0.4-0.7,0.8V227.6z"/>
	<path class="st8" d="M284,227.6v-7c0-0.6,0.4-1,1-1.1h6.3c0.6,0,1,0.5,1,1.1c0,0,0,0,0,0v7.1c0,0.6-0.4,1-1,1.1H285
		C284.4,228.7,284,228.2,284,227.6C284,227.6,284,227.6,284,227.6L284,227.6z M284.9,220c-0.2,0-0.4,0.2-0.5,0.4c0,0,0,0,0,0v7.1
		c0,0.2,0.2,0.4,0.4,0.5c0,0,0,0,0,0h6.4c0.2,0,0.4-0.2,0.5-0.4c0,0,0,0,0,0v-7.1c0-0.2-0.2-0.4-0.4-0.5c0,0,0,0,0,0H284.9z"/>
	<path class="st13" d="M274.6,227.6c0,0.4,0.3,0.8,0.7,0.8h6.4c0.4,0,0.7-0.4,0.7-0.8v-7c0-0.4-0.3-0.8-0.7-0.8h-6.4
		c-0.4,0-0.7,0.4-0.7,0.8V227.6z"/>
	<path class="st8" d="M274.3,227.6v-7c0-0.6,0.4-1,1-1.1h6.3c0.6,0,1,0.5,1,1.1c0,0,0,0,0,0v7.1c0,0.6-0.4,1-1,1.1h-6.3
		C274.8,228.6,274.3,228.1,274.3,227.6z M275.3,220c-0.2,0-0.4,0.2-0.5,0.4c0,0,0,0,0,0v7.1c0,0.2,0.2,0.4,0.4,0.5c0,0,0,0,0,0h6.4
		c0.2,0,0.4-0.2,0.5-0.4c0,0,0,0,0,0v-7.1c0-0.2-0.2-0.4-0.4-0.5c0,0,0,0,0,0H275.3z"/>
	<path class="st12" d="M988.1,355.6c0,0.5,0.3,0.9,0.8,1h8.1c0.5,0,0.9-0.5,0.9-1v-9.1c0.1-0.5-0.3-1-0.8-1c0,0,0,0,0,0H989
		c-0.5,0-0.9,0.5-0.9,1V355.6z"/>
	<path class="st8" d="M987.8,355.6v-9.1c0-0.7,0.5-1.3,1.2-1.4h8c0.7,0.1,1.2,0.7,1.2,1.4v9.1c0,0.7-0.5,1.3-1.2,1.4h-8
		C988.3,356.9,987.8,356.3,987.8,355.6z M989,345.9c-0.3,0-0.6,0.3-0.5,0.6v9.1c0,0.3,0.2,0.6,0.5,0.6h8c0.3,0,0.6-0.3,0.5-0.6v-9.1
		c0-0.3-0.2-0.6-0.5-0.6H989z"/>
	<path class="st13" d="M975.8,355.6c0,0.5,0.3,0.9,0.8,1h8.1c0.5,0,0.9-0.5,0.9-1v-9.1c0.1-0.5-0.3-1-0.8-1c0,0,0,0,0,0h-8.1
		c-0.5,0-0.9,0.5-0.9,1V355.6z"/>
	<path class="st8" d="M975.6,355.6v-9.1c0-0.7,0.5-1.3,1.2-1.4h8c0.7,0.1,1.2,0.7,1.2,1.4v9.1c0,0.7-0.5,1.3-1.2,1.4h-8
		C976.1,356.9,975.5,356.3,975.6,355.6z M976.8,345.9c-0.3,0-0.6,0.3-0.5,0.6v9.1c0,0.3,0.2,0.6,0.5,0.6h8c0.3,0,0.6-0.3,0.5-0.6
		v-9.1c0-0.3-0.2-0.6-0.5-0.6H976.8z"/>
	<path class="st9" d="M606.5,318.3H449.9L385.8,146c-1.5-4.6,0.9-9.6,5.5-11.1c4.4-1.5,9.2,0.7,10.9,5.1l59.8,160.9h138.9l95.8-65.9
		c4-2.7,9.4-1.7,12.1,2.3c2.6,3.9,1.7,9.2-2.1,12l-0.2,0.1L606.5,318.3z"/>
	<path class="st7" d="M474.9,25.5l-45.4,5.4c-0.2,0-0.3,0.1-0.4,0.3l-54.6,125c-1.1,2.6-1.5,5.5-1.1,8.3L392.5,300h20.1L393,160.1
		l56.3-128.9c0.1-0.2,0.2-0.3,0.4-0.3l25.3-3L474.9,25.5L474.9,25.5z"/>
	<path class="st7" d="M385.6,51.1v-5.3c0-11.1,9.2-20,20.7-20l232.4-10.4c11.4,0,20.7,10.8,20.7,24v11.7H385.6z"/>
	<path class="st7" d="M160.8,275v-14.8c0-0.5,0.4-0.8,0.8-0.8h0h3.2c0.5,0,0.8,0.4,0.8,0.8l0,0v14.8c0,0.5-0.4,0.8-0.8,0.8h0h-3.2
		C161.2,275.9,160.8,275.5,160.8,275z"/>
	<path class="st7" d="M151,275v-14.8c0-0.5,0.4-0.8,0.8-0.8h0h3.2c0.5,0,0.8,0.4,0.8,0.8l0,0v14.8c0,0.5-0.4,0.8-0.8,0.8h0h-3.2
		C151.4,275.9,151,275.5,151,275z"/>
	<path class="st7" d="M141.1,275v-14.8c0-0.5,0.4-0.8,0.8-0.8h0h3.2c0.5,0,0.8,0.4,0.8,0.8l0,0v14.8c0,0.5-0.4,0.8-0.8,0.8h0H142
		c-0.4,0.1-0.8-0.2-0.9-0.6c0,0,0,0,0,0C141.1,275.2,141.1,275.1,141.1,275z"/>
	<path class="st7" d="M131.4,275v-14.8c0-0.5,0.4-0.8,0.8-0.8c0,0,0,0,0,0h3.2c0.5,0,0.8,0.4,0.8,0.8l0,0v14.8
		c0,0.5-0.4,0.8-0.8,0.8h0h-3.2C131.7,275.9,131.4,275.5,131.4,275z"/>
	<path class="st7" d="M121.5,275v-14.8c0-0.5,0.4-0.8,0.8-0.8c0,0,0,0,0,0h3.2c0.5,0,0.8,0.4,0.8,0.8l0,0v14.8
		c0,0.5-0.4,0.8-0.8,0.8c0,0,0,0,0,0h-3.2C121.9,275.9,121.5,275.5,121.5,275z"/>
	<path class="st7" d="M111.7,275v-14.8c0-0.5,0.4-0.8,0.8-0.8c0,0,0,0,0,0h3.2c0.5,0,0.8,0.4,0.8,0.8l0,0v14.8
		c0,0.5-0.4,0.8-0.8,0.8c0,0,0,0,0,0h-3.2C112.1,275.9,111.7,275.5,111.7,275z"/>
	<path class="st7" d="M101.8,275v-14.8c0-0.5,0.4-0.8,0.8-0.8c0,0,0,0,0,0h3.2c0.5,0,0.8,0.4,0.8,0.8l0,0v14.8
		c0,0.5-0.4,0.8-0.8,0.8c0,0,0,0,0,0h-3.1c-0.5,0-0.9-0.3-0.9-0.8V275z"/>
	<path class="st7" d="M160.8,297.1v-14.8c0-0.5,0.4-0.8,0.8-0.8h0h3.2c0.5,0,0.8,0.4,0.8,0.8l0,0l0,0v14.8c0,0.5-0.4,0.8-0.8,0.8h0
		h-3.2C161.2,298,160.8,297.6,160.8,297.1L160.8,297.1L160.8,297.1z"/>
	<path class="st7" d="M151,297.1v-14.8c0-0.5,0.4-0.8,0.8-0.8h0h3.2c0.5,0,0.8,0.4,0.8,0.8l0,0l0,0v14.8c0,0.5-0.4,0.8-0.8,0.8h0
		h-3.2C151.4,298,151,297.6,151,297.1L151,297.1z"/>
	<path class="st7" d="M141.1,297.1v-14.8c0-0.5,0.4-0.8,0.8-0.8h0h3.2c0.5,0,0.8,0.4,0.8,0.8l0,0l0,0v14.8c0,0.5-0.4,0.8-0.8,0.8h0
		H142C141.6,298,141.2,297.7,141.1,297.1L141.1,297.1z"/>
	<path class="st7" d="M131.4,297.1v-14.8c0-0.5,0.4-0.8,0.8-0.8c0,0,0,0,0,0h3.2c0.5,0,0.8,0.4,0.8,0.8l0,0l0,0v14.8
		c0,0.5-0.4,0.8-0.8,0.8h0h-3.2C131.7,298,131.4,297.6,131.4,297.1L131.4,297.1z"/>
	<path class="st7" d="M121.5,297.1v-14.8c0-0.5,0.4-0.8,0.8-0.8c0,0,0,0,0,0h3.2c0.5,0,0.8,0.4,0.8,0.8l0,0l0,0v14.8
		c0,0.5-0.4,0.8-0.8,0.8c0,0,0,0,0,0h-3.2C121.9,297.9,121.5,297.6,121.5,297.1z"/>
	<path class="st7" d="M111.7,297.1v-14.8c0-0.5,0.4-0.8,0.8-0.8c0,0,0,0,0,0h3.2c0.5,0,0.8,0.4,0.8,0.8l0,0l0,0v14.8
		c0,0.5-0.4,0.8-0.8,0.8c0,0,0,0,0,0h-3.2C112.1,298,111.7,297.6,111.7,297.1L111.7,297.1z"/>
	<path class="st7" d="M101.8,297.1v-14.8c0-0.5,0.4-0.8,0.8-0.8c0,0,0,0,0,0h3.2c0.5,0,0.8,0.4,0.8,0.8l0,0l0,0v14.8
		c0,0.5-0.4,0.8-0.8,0.8c0,0,0,0,0,0h-3.1C102.3,298,101.9,297.6,101.8,297.1z"/>
	<path class="st7" d="M160.8,319.3v-14.8c0-0.5,0.4-0.8,0.8-0.8h0h3.2c0.5,0,0.8,0.4,0.8,0.8l0,0l0,0v14.8c0,0.5-0.4,0.8-0.8,0.8h0
		h-3.2C161.2,320.1,160.8,319.7,160.8,319.3L160.8,319.3L160.8,319.3z"/>
	<path class="st7" d="M151,319.3v-14.8c0-0.5,0.4-0.8,0.8-0.8h0h3.2c0.5,0,0.8,0.4,0.8,0.8l0,0l0,0v14.8c0,0.5-0.4,0.8-0.8,0.8h0
		h-3.2C151.4,320.1,151,319.7,151,319.3L151,319.3z"/>
	<path class="st7" d="M141.1,319.3v-14.8c0-0.5,0.4-0.8,0.8-0.8h0h3.2c0.5,0,0.8,0.4,0.8,0.8l0,0l0,0v14.8c0,0.5-0.4,0.8-0.8,0.8h0
		H142C141.6,320.1,141.2,319.8,141.1,319.3L141.1,319.3z"/>
	<path class="st7" d="M131.4,319.3v-14.8c0-0.5,0.4-0.8,0.8-0.8c0,0,0,0,0,0h3.2c0.5,0,0.8,0.4,0.8,0.8l0,0l0,0v14.8
		c0,0.5-0.4,0.8-0.8,0.8h0h-3.2C131.7,320.1,131.4,319.7,131.4,319.3L131.4,319.3z"/>
	<path class="st7" d="M121.5,319.3v-14.8c0-0.5,0.4-0.8,0.8-0.8c0,0,0,0,0,0h3.2c0.5,0,0.8,0.4,0.8,0.8l0,0l0,0v14.8
		c0,0.5-0.4,0.8-0.8,0.8c0,0,0,0,0,0h-3.2C121.9,320.1,121.5,319.7,121.5,319.3z"/>
	<path class="st7" d="M111.7,319.3v-14.8c0-0.5,0.4-0.8,0.8-0.8c0,0,0,0,0,0h3.2c0.5,0,0.8,0.4,0.8,0.8l0,0l0,0v14.8
		c0,0.5-0.4,0.8-0.8,0.8c0,0,0,0,0,0h-3.2C112.1,320.1,111.7,319.7,111.7,319.3L111.7,319.3z"/>
	<path class="st7" d="M101.8,319.3v-14.8c0-0.5,0.4-0.8,0.8-0.8c0,0,0,0,0,0h3.2c0.5,0,0.8,0.4,0.8,0.8l0,0l0,0v14.8
		c0,0.5-0.4,0.8-0.8,0.8c0,0,0,0,0,0h-3.1C102.3,320.1,101.9,319.7,101.8,319.3z"/>
	
		<radialGradient id="SVGID_2_" cx="-2328.7141" cy="461.1783" r="5.6586" gradientTransform="matrix(-0.79 -0.61 -0.61 0.79 -942.81 -1385.5601)" gradientUnits="userSpaceOnUse">
		<stop  offset="0" style="stop-color:#FFFFFF"/>
		<stop  offset="1" style="stop-color:#000000"/>
	</radialGradient>
	<path class="st14" d="M620.3,391.9c1.9-2.5,5.5-3,8-1.1c2.5,1.9,3,5.5,1.1,8c-1.9,2.5-5.5,3-8,1.1
		C618.9,398,618.4,394.4,620.3,391.9C620.3,391.9,620.3,391.9,620.3,391.9z"/>
	
		<radialGradient id="SVGID_3_" cx="-2407.0381" cy="401.3749" r="5.6586" gradientTransform="matrix(-0.79 -0.61 -0.61 0.79 -942.81 -1385.5601)" gradientUnits="userSpaceOnUse">
		<stop  offset="0" style="stop-color:#FFFFFF"/>
		<stop  offset="1" style="stop-color:#000000"/>
	</radialGradient>
	<path class="st15" d="M718.9,391.9c1.9-2.5,5.5-3,8-1.1c2.5,1.9,3,5.5,1.1,8c-1.9,2.5-5.5,3-8,1.1c-2.5-1.8-3-5.3-1.2-7.8
		c0,0,0,0,0,0L718.9,391.9z"/>
	
		<radialGradient id="SVGID_4_" cx="-2485.3621" cy="341.5806" r="5.6677" gradientTransform="matrix(-0.79 -0.61 -0.61 0.79 -942.81 -1385.5601)" gradientUnits="userSpaceOnUse">
		<stop  offset="0" style="stop-color:#FFFFFF"/>
		<stop  offset="1" style="stop-color:#000000"/>
	</radialGradient>
	<path class="st16" d="M817.4,391.9c1.9-2.5,5.5-3,8-1.1c2.5,1.9,3,5.5,1.1,8c-1.9,2.5-5.5,3-8,1.1c-2.5-1.8-3-5.3-1.2-7.8
		c0,0,0,0,0,0L817.4,391.9z"/>
	
		<radialGradient id="SVGID_5_" cx="-2563.6768" cy="281.7864" r="5.6677" gradientTransform="matrix(-0.79 -0.61 -0.61 0.79 -942.81 -1385.5601)" gradientUnits="userSpaceOnUse">
		<stop  offset="0" style="stop-color:#FFFFFF"/>
		<stop  offset="1" style="stop-color:#000000"/>
	</radialGradient>
	<path class="st17" d="M916,391.9c1.9-2.5,5.5-3,8-1.1c2.5,1.9,3,5.5,1.1,8c-1.9,2.5-5.5,3-8,1.1c-2.5-1.8-3-5.3-1.2-7.8
		c0,0,0,0,0,0L916,391.9z"/>
	
		<radialGradient id="SVGID_6_" cx="-2642.001" cy="221.9921" r="5.6677" gradientTransform="matrix(-0.79 -0.61 -0.61 0.79 -942.81 -1385.5601)" gradientUnits="userSpaceOnUse">
		<stop  offset="0" style="stop-color:#FFFFFF"/>
		<stop  offset="1" style="stop-color:#000000"/>
	</radialGradient>
	<path class="st18" d="M1014.5,391.9c1.9-2.5,5.5-3,8-1.1c2.5,1.9,3,5.5,1.1,8c-1.9,2.5-5.5,3-8,1.1c-2.5-1.8-3-5.3-1.2-7.8
		c0,0,0,0,0,0L1014.5,391.9z"/>
	
		<radialGradient id="SVGID_7_" cx="-2215.0767" cy="294.0633" r="5.6677" gradientTransform="matrix(-0.79 -0.61 -0.61 0.79 -942.81 -1385.5601)" gradientUnits="userSpaceOnUse">
		<stop  offset="0" style="stop-color:#FFFFFF"/>
		<stop  offset="1" style="stop-color:#000000"/>
	</radialGradient>
	<path class="st19" d="M631.4,190c1.9-2.5,5.5-3,8-1.1c2.5,1.9,3,5.5,1.1,8c-1.9,2.5-5.5,3-8,1.1C630,196,629.6,192.5,631.4,190z"/>
	
		<radialGradient id="SVGID_8_" cx="-2656.4155" cy="-914.4837" r="3.0075" gradientTransform="matrix(0.4975 -0.8559 -0.8559 -0.4975 907.7022 -2588.4155)" gradientUnits="userSpaceOnUse">
		<stop  offset="0" style="stop-color:#FFFFFF"/>
		<stop  offset="1" style="stop-color:#000000"/>
	</radialGradient>
	<path class="st20" d="M367.8,159.9c1.4,0.8,1.9,2.7,1.1,4.1c-0.8,1.4-2.7,1.9-4.1,1.1c-1.4-0.8-1.9-2.7-1.1-4.1
		C364.6,159.6,366.4,159.1,367.8,159.9C367.8,159.9,367.8,159.9,367.8,159.9z"/>
	
		<radialGradient id="SVGID_9_" cx="-2698" cy="-946.232" r="3.0075" gradientTransform="matrix(0.4975 -0.8559 -0.8559 -0.4975 907.7022 -2588.4155)" gradientUnits="userSpaceOnUse">
		<stop  offset="0" style="stop-color:#FFFFFF"/>
		<stop  offset="1" style="stop-color:#000000"/>
	</radialGradient>
	<path class="st21" d="M374.4,211.8c1.4,0.8,1.9,2.7,1.1,4.1c-0.8,1.4-2.7,1.9-4.1,1.1c-1.4-0.8-1.9-2.7-1.1-4.1
		C371.1,211.5,373,211,374.4,211.8C374.4,211.8,374.4,211.8,374.4,211.8z"/>
	
		<radialGradient id="SVGID_10_" cx="-2739.5938" cy="-977.9802" r="3.0075" gradientTransform="matrix(0.4975 -0.8559 -0.8559 -0.4975 907.7022 -2588.4155)" gradientUnits="userSpaceOnUse">
		<stop  offset="0" style="stop-color:#FFFFFF"/>
		<stop  offset="1" style="stop-color:#000000"/>
	</radialGradient>
	<path class="st22" d="M381,263.8c1.4,0.8,1.9,2.7,1.1,4.1c-0.8,1.4-2.7,1.9-4.1,1.1c-1.4-0.8-1.9-2.7-1.1-4.1
		C377.7,263.4,379.6,262.9,381,263.8C381,263.8,381,263.8,381,263.8z"/>
	
		<radialGradient id="SVGID_11_" cx="-2359.53" cy="501.5378" r="5.6586" gradientTransform="matrix(-0.79 -0.61 -0.61 0.79 -942.81 -1385.5601)" gradientUnits="userSpaceOnUse">
		<stop  offset="0" style="stop-color:#FFFFFF"/>
		<stop  offset="1" style="stop-color:#000000"/>
	</radialGradient>
	<path class="st23" d="M620.3,442.6c1.9-2.5,5.5-3,8-1.1c2.5,1.9,3,5.5,1.1,8c-1.9,2.5-5.5,3-8,1.1
		C618.9,448.6,618.4,445.1,620.3,442.6C620.3,442.6,620.3,442.6,620.3,442.6z"/>
	
		<radialGradient id="SVGID_12_" cx="-2437.854" cy="441.7436" r="5.6677" gradientTransform="matrix(-0.79 -0.61 -0.61 0.79 -942.81 -1385.5601)" gradientUnits="userSpaceOnUse">
		<stop  offset="0" style="stop-color:#FFFFFF"/>
		<stop  offset="1" style="stop-color:#000000"/>
	</radialGradient>
	<path class="st24" d="M718.9,442.6c1.9-2.5,5.5-3,8-1.1c2.5,1.9,3,5.5,1.1,8c-1.9,2.5-5.5,3-8,1.1c-2.5-1.8-3-5.3-1.2-7.8
		c0,0,0,0,0,0L718.9,442.6z"/>
	
		<radialGradient id="SVGID_13_" cx="-2516.187" cy="381.9493" r="5.6677" gradientTransform="matrix(-0.79 -0.61 -0.61 0.79 -942.81 -1385.5601)" gradientUnits="userSpaceOnUse">
		<stop  offset="0" style="stop-color:#FFFFFF"/>
		<stop  offset="1" style="stop-color:#000000"/>
	</radialGradient>
	<path class="st25" d="M817.4,442.6c1.9-2.5,5.5-3,8-1.1c2.5,1.9,3,5.5,1.1,8c-1.9,2.5-5.5,3-8,1.1c-2.5-1.8-3-5.3-1.2-7.8
		c0,0,0,0,0,0L817.4,442.6z"/>
	
		<radialGradient id="SVGID_14_" cx="-2594.502" cy="322.155" r="5.6677" gradientTransform="matrix(-0.79 -0.61 -0.61 0.79 -942.81 -1385.5601)" gradientUnits="userSpaceOnUse">
		<stop  offset="0" style="stop-color:#FFFFFF"/>
		<stop  offset="1" style="stop-color:#000000"/>
	</radialGradient>
	<path class="st26" d="M916,442.6c1.9-2.5,5.5-3,8-1.1c2.5,1.9,3,5.5,1.1,8c-1.9,2.5-5.5,3-8,1.1c-2.5-1.8-3-5.3-1.2-7.8
		c0,0,0,0,0,0L916,442.6z"/>
	
		<radialGradient id="SVGID_15_" cx="-2660.3296" cy="246.0067" r="5.6677" gradientTransform="matrix(-0.79 -0.61 -0.61 0.79 -942.81 -1385.5601)" gradientUnits="userSpaceOnUse">
		<stop  offset="0" style="stop-color:#FFFFFF"/>
		<stop  offset="1" style="stop-color:#000000"/>
	</radialGradient>
	<path class="st27" d="M1014.5,422.1c1.9-2.5,5.5-3,8-1.1c2.5,1.9,3,5.5,1.1,8c-1.9,2.5-5.5,3-8,1.1c-2.5-1.8-3-5.3-1.2-7.8
		c0,0,0,0,0,0L1014.5,422.1z"/>
	<circle class="st28" cx="322.1" cy="408.4" r="142.3"/>
	<circle class="st3" cx="322.1" cy="408.4" r="124.7"/>
	<circle class="st4" cx="322.1" cy="408.4" r="71.1"/>
	<circle class="st2" cx="322.1" cy="408.4" r="50.6"/>
	<circle class="st4" cx="322.1" cy="408.4" r="37.9"/>
	<rect x="301.6" y="260.5" class="st28" width="34" height="11.9"/>
	
		<rect x="253.3" y="270.3" transform="matrix(0.9397 -0.342 0.342 0.9397 -78.1629 109.1032)" class="st28" width="34" height="11.9"/>
	
		<rect x="211.2" y="296" transform="matrix(0.766 -0.6428 0.6428 0.766 -140.7285 217.3209)" class="st28" width="34" height="11.9"/>
	<rect x="180.5" y="334.6" transform="matrix(0.5 -0.866 0.866 0.5 -196.1787 341.2845)" class="st28" width="34" height="11.9"/>
	
		<rect x="164.7" y="381.4" transform="matrix(0.1736 -0.9848 0.9848 0.1736 -231.2522 499.0115)" class="st28" width="34" height="11.9"/>
	
		<rect x="173.9" y="417.2" transform="matrix(0.9853 -0.1709 0.1709 0.9853 -71.5487 37.1239)" class="st28" width="11.8" height="33.8"/>
	<rect x="195.1" y="465.5" transform="matrix(0.866 -0.5 0.5 0.866 -214.3115 165.1393)" class="st28" width="11.9" height="34"/>
	<rect x="429.9" y="470.4" transform="matrix(0.5 -0.866 0.866 0.5 -189.0335 625.2169)" class="st28" width="34" height="11.9"/>
	
		<rect x="445.6" y="423.7" transform="matrix(0.1736 -0.9848 0.9848 0.1736 -40.8557 810.6278)" class="st28" width="34" height="11.9"/>
	
		<rect x="455.5" y="363.2" transform="matrix(0.9848 -0.1736 0.1736 0.9848 -59.0102 85.8978)" class="st28" width="11.9" height="34"/>
	<rect x="437.4" y="317.4" transform="matrix(0.866 -0.5 0.5 0.866 -107.7817 266.4745)" class="st28" width="11.9" height="34"/>
	
		<rect x="404.7" y="280.4" transform="matrix(0.6428 -0.766 0.766 0.6428 -81.1019 420.8188)" class="st28" width="11.9" height="34"/>
	
		<rect x="361.4" y="256.8" transform="matrix(0.342 -0.9397 0.9397 0.342 -15.5921 525.4064)" class="st28" width="11.9" height="34"/>
	<path class="st28" d="M328.5,350.8c0,4-3.3,7.3-7.3,7.3s-7.3-3.3-7.3-7.3c0-4,3.3-7.3,7.3-7.3S328.5,346.7,328.5,350.8z"/>
	<path class="st28" d="M288.9,360.7c2.6,3.1,2.2,7.7-0.9,10.3c-3.1,2.6-7.7,2.2-10.3-0.9c-2.6-3.1-2.2-7.7,0.9-10.3c0,0,0,0,0,0
		l0.1-0.1C281.7,357.2,286.3,357.6,288.9,360.7z"/>
	<path class="st28" d="M265,393.8c4,0.7,6.7,4.4,6,8.4c-0.7,4-4.4,6.7-8.4,6c-4-0.7-6.7-4.4-6-8.4c0,0,0,0,0,0v-0.1
		C257.2,395.8,261,393.1,265,393.8L265,393.8z"/>
	<path class="st28" d="M268,434.4c3.5-2,8-0.9,10,2.6c2,3.5,0.9,8-2.6,10c-3.5,2-8,0.9-10-2.6c0,0,0,0,0,0l0,0
		C263.4,441,264.5,436.5,268,434.4z"/>
	<path class="st28" d="M296.5,463.7c1.4-3.8,5.5-5.8,9.3-4.4s5.8,5.5,4.4,9.3c-1.4,3.8-5.5,5.8-9.3,4.4c0,0,0,0,0,0h0
		C297.1,471.7,295.1,467.5,296.5,463.7L296.5,463.7z"/>
	<path class="st28" d="M337,467.8c-1.4-3.8,0.6-8,4.4-9.4c3.8-1.4,8,0.6,9.4,4.4c1.4,3.8-0.6,8-4.4,9.4c0,0,0,0,0,0h0
		C342.6,473.5,338.5,471.5,337,467.8z"/>
	<path class="st28" d="M370.8,444.9c-3.5-2-4.7-6.5-2.7-10c2-3.5,6.5-4.7,10-2.7c3.5,2,4.7,6.5,2.7,10l0,0
		C378.8,445.7,374.3,446.9,370.8,444.9C370.8,444.9,370.8,444.9,370.8,444.9z"/>
	<path class="st28" d="M381.8,405.6c-4,0.7-7.8-2-8.5-5.9c-0.7-4,2-7.8,5.9-8.5c4-0.7,7.8,2,8.5,5.9v0.1
		C388.4,401.2,385.8,404.9,381.8,405.6z"/>
	<path class="st28" d="M365.1,368.4c-2.6,3.1-7.2,3.5-10.3,1c-3.1-2.6-3.5-7.2-1-10.3c2.6-3.1,7.2-3.5,10.3-1c0,0,0,0,0,0l0.1,0.1
		c3,2.5,3.5,7,1,10.1C365.2,368.4,365.1,368.4,365.1,368.4z"/>
	<path class="st9" d="M531,434.9h-52.6c-2.4,0-4.4-2-4.4-4.4v-86.9c0-2.4,2-4.4,4.4-4.4h52.7c2.4,0,4.4,2,4.4,4.4v86.9
		C535.4,433,533.5,434.9,531,434.9z"/>
</g>
</svg>
