<?xml version="1.0" encoding="utf-8"?>
<!-- Generator: Adobe Illustrator 23.0.1, SVG Export Plug-In . SVG Version: 6.00 Build 0)  -->
<svg version="1.1" id="Layer_1" xmlns="http://www.w3.org/2000/svg" xmlns:xlink="http://www.w3.org/1999/xlink" x="0px" y="0px"
	 viewBox="0 0 1179.2 479.9" style="enable-background:new 0 0 1179.2 479.9;" xml:space="preserve">
<style type="text/css">
	.st0{opacity:0.1;fill:#1B1B19;enable-background:new    ;}
	.st1{fill:#88A84C;}
	.st2{fill:#ABA9A7;}
	.st3{fill:#231F20;}
	.st4{fill:url(#SVGID_1_);}
	.st5{fill:#1A1B20;}
	.st6{fill:#A7CB64;}
	.st7{fill:url(#SVGID_2_);}
	.st8{fill:#86A250;}
	.st9{fill:url(#SVGID_3_);}
	.st10{fill:#070608;}
	.st11{fill:#FFB932;stroke:#A97C50;stroke-width:0.6367;stroke-miterlimit:10;}
	.st12{opacity:0.93;fill:#403430;enable-background:new    ;}
	.st13{fill:none;stroke:#382F2D;stroke-width:1.0238;stroke-miterlimit:10;}
	.st14{fill:none;stroke:#382F2D;stroke-width:0.8812;stroke-miterlimit:10;}
	.st15{fill:#AEA7A7;}
	.st16{fill:#C2C0C0;}
	.st17{fill:url(#SVGID_4_);}
	.st18{fill:url(#SVGID_5_);}
	.st19{fill:url(#SVGID_6_);}
	.st20{opacity:0.6;fill:#88A84C;enable-background:new    ;}
	.st21{fill:#ED1C24;}
	.st22{fill:#382F2D;}
	.st23{fill:#312527;}
	.st24{fill:#F6F6F6;}
	.st25{fill:#DAD1D1;}
	.st26{fill:url(#SVGID_7_);}
	.st27{fill:none;}
	.st28{fill:#414042;}
	.st29{fill:url(#SVGID_8_);}
	.st30{fill:#382F2D;stroke:#414042;stroke-width:1.028;stroke-miterlimit:10;}
</style>
<path class="st0" d="M61.7,443.9c0,6.3,192.9,11.5,431,11.5s431-5.1,431-11.5c0-6.3-192.9-11.5-431-11.5S61.7,437.6,61.7,443.9z"/>
<title>Front loader</title>
<polygon class="st1" points="130,139.8 114.8,139.8 86.1,267.5 130,267.5 "/>
<path class="st2" d="M131.4,245.3c0,0.4,0.2,0.8,0.6,0.8h6.2c0.4-0.1,0.7-0.4,0.6-0.8v-7.6c0-0.4-0.2-0.8-0.6-0.8H132
	c-0.4,0.1-0.7,0.4-0.6,0.8V245.3z"/>
<path class="st3" d="M131.1,245.3v-7.6c0-0.6,0.4-1,0.9-1.1h6.2c0.6,0.1,1,0.6,0.9,1.1v7.6c0,0.6-0.4,1-0.9,1.1H132
	C131.4,246.4,131,245.9,131.1,245.3z M132,237.3c-0.3,0-0.5,0.3-0.5,0.6v7.6c0,0.3,0.2,0.5,0.5,0.6h6.2c0.3,0,0.5-0.3,0.5-0.6v-7.6
	c0-0.3-0.2-0.5-0.5-0.6H132z"/>
<path class="st1" d="M940.4,327.1v-11.8c0-11.3,8.6-20.6,19.8-21.6l9.3-2.4l19.7-6.5l4.5-1.2l28.1-8.3l2.2,4.4l-24.2,12.7
	l110.2,146.8l26.1,6.6v4.9H977.4C873.3,410.8,940.4,327.1,940.4,327.1z"/>
<linearGradient id="SVGID_1_" gradientUnits="userSpaceOnUse" x1="819.4366" y1="-291.8643" x2="819.4366" y2="-275.7147" gradientTransform="matrix(-1 0 0 -1 1618.6 -102.95)">
	<stop  offset="0" style="stop-color:#FFFFFF"/>
	<stop  offset="1" style="stop-color:#000000"/>
</linearGradient>
<path class="st4" d="M760.6,184.1h77c1,0,1.7-0.8,1.8-1.8v-9.1c0-1-0.8-1.7-1.8-1.8h-77c-1,0-1.7,0.8-1.8,1.8v9.1
	c0,0.9,0.7,1.7,1.6,1.8C760.6,184.1,760.6,184.1,760.6,184.1z"/>
<path class="st5" d="M667.9,186.4h104.5c1.3,0,2.4-1.1,2.4-2.4v-12.3c0-1.3-1.1-2.4-2.4-2.4H667.9c-1.3,0-2.4,1.1-2.4,2.4V184
	C665.5,185.3,666.6,186.4,667.9,186.4C667.9,186.4,667.9,186.4,667.9,186.4z"/>
<path class="st5" d="M763.3,189.4h5.8c1.3,0,2.4-1.1,2.4-2.4v-18.4c0-1.3-1.1-2.4-2.4-2.4h-5.8c-1.3,0-2.4,1.1-2.4,2.4V187
	C760.9,188.3,762,189.4,763.3,189.4z"/>
<path class="st6" d="M929.5,336.8l-7.5-10.2c-1.7-2.4-5.1-2.8-7.4-1.1l-73.1,53.9c-2.4,1.7-2.8,5.1-1.1,7.4l7.5,10.2
	c1.7,2.4,5.1,2.8,7.4,1.1l73.3-53.9C930.7,342.4,931.2,339.1,929.5,336.8z"/>
<path class="st6" d="M854.1,377.1L854.1,377.1c5.8-0.8,9.9-6.1,9.2-11.9L839,176.4c-0.8-5.8-6.1-9.9-11.9-9.2l0,0
	c-5.8,0.8-9.9,6.1-9.2,11.9l24.3,188.8c0.7,5.8,5.9,9.9,11.7,9.2C854,377.1,854,377.1,854.1,377.1z"/>
<radialGradient id="SVGID_2_" cx="73.5525" cy="-491.8108" r="8.8164" gradientTransform="matrix(-0.97 -0.23 0.23 -0.97 1035.2999 -80.38)" gradientUnits="userSpaceOnUse">
	<stop  offset="0" style="stop-color:#FFFFFF"/>
	<stop  offset="1" style="stop-color:#000000"/>
</radialGradient>
<path class="st7" d="M843.9,381.5c-1.1,4.7,1.8,9.5,6.6,10.6c4.7,1.1,9.5-1.8,10.6-6.6c1.1-4.7-1.8-9.5-6.6-10.6c0,0,0,0,0,0
	C849.7,373.8,845,376.8,843.9,381.5z"/>
<path class="st8" d="M605.5,152.4c32.1,1.3,64.1,4.2,96,8.7c74.4,10.7,101.7,77.9,101.7,77.9l69.6,115.4l16.4,13.6l11.1,35.9
	c1,3.2-1,6.6-4.1,7l-6,0.7l-27.7-23.5c0,0-74.3-97.7-104.6-134.2c-30.3-36.5-61.9-47.4-61.9-47.4l-61.8-16.4l-30.5-3.5L605.5,152.4z
	"/>
<path class="st6" d="M605.6,149.7c33.4,1.2,66.7,4.2,99.8,8.9c74.4,10.7,101.7,77.9,101.7,77.9l69.6,115.3l16.4,13.7l11.1,35.9
	c1,3.2-1,6.6-4.1,7l-6,0.7l-27.7-23.5c0,0-74.3-97.7-104.6-134.2C731.6,214.9,700,204,700,204l-61.8-16.4l-34.4-4L605.6,149.7z"/>
<linearGradient id="SVGID_3_" gradientUnits="userSpaceOnUse" x1="554.9003" y1="1951.4343" x2="554.9003" y2="1976.048" gradientTransform="matrix(0 1 -1 0 2245.4199 -479.83)">
	<stop  offset="0" style="stop-color:#FFFFFF"/>
	<stop  offset="1" style="stop-color:#000000"/>
</linearGradient>
<path class="st9" d="M286.7,94.1V56c0-0.9-0.7-1.6-1.6-1.6H269c-0.9,0-1.6,0.7-1.6,1.6v38.1c0,0.9,0.7,1.6,1.6,1.6h16.1
	C286,95.7,286.7,95,286.7,94.1C286.7,94.1,286.7,94.1,286.7,94.1z"/>
<path class="st5" d="M290.2,141.3V89.7c0-1.2-1-2.1-2.1-2.1h-21.9c-1.2,0-2.1,1-2.1,2.1v51.6c0,1.2,1,2.1,2.1,2.1H288
	C289.2,143.4,290.1,142.5,290.2,141.3z"/>
<path class="st5" d="M294.8,92L294.8,92c0-1.5-1.2-2.7-2.7-2.7h-29.9c-1.5,0-2.7,1.2-2.7,2.7l0,0c0,1.5,1.2,2.7,2.7,2.7h29.9
	C293.6,94.7,294.7,93.5,294.8,92z"/>
<path class="st1" d="M369.1,139.8H121.1l0.1-6c0.3-14.4,15.1-26,33.4-26h16.3l0.5,1.3h7.1l0.4-1.3h34.8v3.9h7.9v-3.9h27.2l0.4,1.3
	h5.6l0.4-1.3h114.3L369.1,139.8L369.1,139.8z"/>
<path class="st10" d="M575.5,367.5l-0.4-1.1h-6.7l-0.4,1.1h-32.7v-3.3h-7.4v3.3h-25.7l-0.3-1.1h-5.2l-0.3,1.1H383.9
	c-0.5-5.6-0.5-11.3,0.1-16.9l1.1-10.8h237.3l-0.1,5.2c-0.3,12.4-14.3,22.4-31.4,22.4L575.5,367.5L575.5,367.5z"/>
<polygon class="st6" points="367.5,127.6 368.3,215 566.7,215 589,123.8 565,222 589,222 585.7,341.3 121.1,341.3 121.1,329.2 
	121.1,127.6 "/>
<path class="st11" d="M367.5,127.6L367.5,127.6z"/>
<path class="st1" d="M566.7,215l22.3-91.2L561,19.4H367.5v108.2l0,0l0.8,87.4H566.7z M572.4,124l-7.3,30H449.6V35.5h82.7
	c9.7,0,18.1,6.5,20.6,15.9L572.4,124z"/>
<path class="st12" d="M449.6,154V35.5h82.7c9.7,0,18.1,6.5,20.6,15.9l19.5,72.6l-7.3,30L449.6,154z"/>
<path class="st12" d="M449.6,165h112.7l-7,28.6c-0.7,3.1-3.6,5.3-6.8,5.3h-92.1c-3.8,0-6.9-3.1-7-7V165z"/>
<path class="st12" d="M378.7,117.4V52.8c0-9.5,7.7-17.2,17.2-17.2c0,0,0,0,0.1,0h36.6v81.9L378.7,117.4z"/>
<path class="st6" d="M364.2,19.4h200.1c0-4.9-4-8.9-8.9-8.9H373.1C368.2,10.5,364.2,14.5,364.2,19.4L364.2,19.4z"/>
<polygon class="st13" points="313.3,154.5 179.7,154.5 179.7,231.7 246.5,231.7 313.3,206.5 "/>
<path class="st14" d="M231,165.8h14.6c0.5,0,0.8-0.4,0.8-0.8l0,0v-1.5c0-0.5-0.4-0.8-0.8-0.8h0H231c-0.5,0-0.8,0.4-0.8,0.8l0,0v1.6
	C230.2,165.4,230.6,165.8,231,165.8z"/>
<path class="st14" d="M231,172.4h14.6c0.5,0,0.8-0.4,0.8-0.8l0,0V170c0-0.5-0.4-0.8-0.8-0.8h0H231c-0.5,0-0.8,0.4-0.8,0.8l0,0v1.6
	C230.2,172,230.5,172.4,231,172.4L231,172.4z"/>
<path class="st14" d="M231,178.9h14.6c0.5,0,0.8-0.4,0.8-0.8l0,0v-1.6c0-0.5-0.4-0.8-0.8-0.8h0H231c-0.5,0-0.8,0.4-0.8,0.8l0,0v1.6
	C230.2,178.5,230.5,178.9,231,178.9L231,178.9z"/>
<path class="st14" d="M231,185.3h14.6c0.5,0,0.8-0.4,0.8-0.8l0,0v-1.6c0-0.5-0.4-0.8-0.8-0.8h0H231c-0.5,0-0.8,0.4-0.8,0.8l0,0v1.6
	C230.2,185,230.5,185.3,231,185.3L231,185.3z"/>
<path class="st14" d="M231,191.8h14.6c0.5,0,0.8-0.4,0.8-0.8l0,0v-1.6c0-0.5-0.4-0.8-0.8-0.8h0H231c-0.5,0-0.8,0.4-0.8,0.8l0,0v1.6
	C230.2,191.5,230.5,191.8,231,191.8L231,191.8z"/>
<path class="st14" d="M231,198.3h14.6c0.5,0,0.8-0.4,0.8-0.8l0,0v-1.6c0-0.5-0.4-0.8-0.8-0.8h0H231c-0.5,0-0.8,0.4-0.8,0.8l0,0v1.6
	C230.2,198,230.5,198.3,231,198.3L231,198.3z"/>
<path class="st14" d="M231,204.9h14.6c0.5,0,0.8-0.4,0.8-0.8l0,0v-1.6c0-0.5-0.4-0.8-0.8-0.8h0H231c-0.5,0-0.8,0.4-0.8,0.8l0,0v1.6
	C230.2,204.5,230.5,204.9,231,204.9L231,204.9z"/>
<path class="st14" d="M209.3,165.8H224c0.5,0,0.8-0.4,0.8-0.8l0,0v-1.5c0-0.5-0.4-0.8-0.8-0.8h0h-14.6c-0.5,0-0.8,0.4-0.8,0.8l0,0
	v1.6C208.5,165.4,208.9,165.8,209.3,165.8z"/>
<path class="st14" d="M209.3,172.4H224c0.5,0,0.8-0.4,0.8-0.8l0,0V170c0-0.5-0.4-0.8-0.8-0.8h0h-14.6c-0.5,0-0.8,0.4-0.8,0.8l0,0
	v1.6C208.5,172,208.9,172.4,209.3,172.4L209.3,172.4z"/>
<path class="st14" d="M209.3,178.9H224c0.5,0,0.8-0.4,0.8-0.8l0,0v-1.6c0-0.5-0.4-0.8-0.8-0.8h0h-14.6c-0.5,0-0.8,0.4-0.8,0.8l0,0
	v1.6C208.5,178.5,208.9,178.9,209.3,178.9L209.3,178.9z"/>
<path class="st14" d="M209.3,185.3H224c0.5,0,0.8-0.4,0.8-0.8l0,0v-1.6c0-0.5-0.4-0.8-0.8-0.8h0h-14.6c-0.5,0-0.8,0.4-0.8,0.8l0,0
	v1.6C208.5,185,208.9,185.3,209.3,185.3L209.3,185.3z"/>
<path class="st14" d="M209.3,191.8H224c0.5,0,0.8-0.4,0.8-0.8l0,0v-1.6c0-0.5-0.4-0.8-0.8-0.8h0h-14.6c-0.5,0-0.8,0.4-0.8,0.8l0,0
	v1.6C208.5,191.5,208.9,191.8,209.3,191.8L209.3,191.8z"/>
<path class="st14" d="M209.3,198.3H224c0.5,0,0.8-0.4,0.8-0.8l0,0v-1.6c0-0.5-0.4-0.8-0.8-0.8h0h-14.6c-0.5,0-0.8,0.4-0.8,0.8l0,0
	v1.6C208.5,198,208.9,198.3,209.3,198.3L209.3,198.3z"/>
<path class="st14" d="M209.3,204.9H224c0.5,0,0.8-0.4,0.8-0.8l0,0v-1.6c0-0.5-0.4-0.8-0.8-0.8h0h-14.6c-0.5,0-0.8,0.4-0.8,0.8l0,0
	v1.6C208.5,204.5,208.9,204.9,209.3,204.9L209.3,204.9z"/>
<path class="st14" d="M187.6,165.8h14.6c0.5,0,0.8-0.4,0.8-0.8l0,0v-1.5c0-0.5-0.4-0.8-0.8-0.8h0h-14.6c-0.5,0-0.8,0.4-0.8,0.8l0,0
	v1.6C186.8,165.4,187.2,165.8,187.6,165.8z"/>
<path class="st14" d="M187.6,172.4h14.6c0.5,0,0.8-0.4,0.8-0.8l0,0V170c0-0.5-0.4-0.8-0.8-0.8h0h-14.6c-0.5,0-0.8,0.4-0.8,0.8l0,0
	v1.6C186.8,172,187.2,172.4,187.6,172.4L187.6,172.4z"/>
<path class="st14" d="M187.6,178.9h14.6c0.5,0,0.8-0.4,0.8-0.8l0,0v-1.6c0-0.5-0.4-0.8-0.8-0.8h0h-14.6c-0.5,0-0.8,0.4-0.8,0.8l0,0
	v1.6C186.8,178.5,187.2,178.9,187.6,178.9L187.6,178.9z"/>
<path class="st14" d="M187.6,185.3h14.6c0.5,0,0.8-0.4,0.8-0.8l0,0v-1.6c0-0.5-0.4-0.8-0.8-0.8h0h-14.6c-0.5,0-0.8,0.4-0.8,0.8l0,0
	v1.6C186.8,185,187.2,185.3,187.6,185.3L187.6,185.3z"/>
<path class="st14" d="M187.6,191.8h14.6c0.5,0,0.8-0.4,0.8-0.8l0,0v-1.6c0-0.5-0.4-0.8-0.8-0.8h0h-14.6c-0.5,0-0.8,0.4-0.8,0.8l0,0
	v1.6C186.8,191.5,187.2,191.8,187.6,191.8L187.6,191.8z"/>
<path class="st14" d="M187.6,198.3h14.6c0.5,0,0.8-0.4,0.8-0.8l0,0v-1.6c0-0.5-0.4-0.8-0.8-0.8h0h-14.6c-0.5,0-0.8,0.4-0.8,0.8l0,0
	v1.6C186.8,198,187.2,198.3,187.6,198.3L187.6,198.3z"/>
<path class="st14" d="M187.6,204.9h14.6c0.5,0,0.8-0.4,0.8-0.8l0,0v-1.6c0-0.5-0.4-0.8-0.8-0.8h0h-14.6c-0.5,0-0.8,0.4-0.8,0.8l0,0
	v1.6C186.8,204.5,187.2,204.9,187.6,204.9L187.6,204.9z"/>
<path class="st15" d="M186.8,289.2v78.3h-10.4l-40.7-20.3H89.4l-33.8-17.2c-7.7-3.9-12.5-11.8-12.5-20.5v-27.6
	c0-10.9,8.3-20.1,19.2-21.2l27.3-2.9h66C172.7,257.9,186.8,271.9,186.8,289.2C186.8,289.2,186.8,289.2,186.8,289.2z"/>
<polygon class="st16" points="89.4,257.7 159.3,257.7 159.3,359 135.7,347.2 89.4,347.2 88.5,346.7 88.5,257.8 "/>
<radialGradient id="SVGID_4_" cx="141.6086" cy="-301.8358" r="8.8257" gradientTransform="matrix(-0.97 -0.23 0.23 -0.97 1035.2999 -80.38)" gradientUnits="userSpaceOnUse">
	<stop  offset="0" style="stop-color:#FFFFFF"/>
	<stop  offset="1" style="stop-color:#000000"/>
</radialGradient>
<path class="st17" d="M820.9,181c-1.1,4.7,1.8,9.5,6.6,10.6s9.5-1.8,10.6-6.6c1.1-4.7-1.8-9.5-6.6-10.6c0,0,0,0,0,0
	C826.7,173.4,822,176.3,820.9,181z"/>
<path class="st6" d="M900.3,416.3l47.6-21.4c0.8-0.5,1.4-1.5,1.5-2.5c0.3-1.5,0.2-3.1-0.2-4.5c-0.1-0.6-0.3-1.1-0.5-1.7
	c-0.9-2.5-2.4-4.3-3.8-4.2l-59,3.1c-0.7,0-1.4,0.6-1.8,1.6l-3.5,8.7c-0.7,2.4-0.6,5.1,0.4,7.4c0.3,0.9,0.8,1.7,1.4,2.5l4.9,6.3
	c0.3,0.4,0.6,0.7,0.9,1l2.8,2c0.3,0.3,0.6,0.4,1,0.5l7.3,1.2C899.6,416.4,900,416.4,900.3,416.3z"/>
<path class="st1" d="M898.7,413.3l48.3-21.7c0.9-0.6,1.5-1.5,1.6-2.6c0.2-0.9,0.2-1.9,0.1-2.9c-0.9-2.5-2.4-4.3-3.8-4.2l-59,3.1
	c-0.7,0-1.4,0.6-1.8,1.6l-3.5,8.7c-0.7,2.4-0.6,5.1,0.4,7.4l4.5,5.8c0.3,0.4,0.6,0.7,1,1l2.8,2c0.3,0.3,0.7,0.4,1.1,0.5l7.4,1.2
	C898.1,413.5,898.4,413.5,898.7,413.3z"/>
<path class="st6" d="M906.1,357.2l50.3,13.6c1,0.1,2.1-0.3,2.8-1c1.1-1,2-2.2,2.7-3.6c0.3-0.5,0.5-1,0.6-1.6
	c0.9-2.5,0.8-4.8-0.3-5.7l-47.6-35c-0.7-0.4-1.6-0.4-2.3,0.1l-8.3,4.5c-2.1,1.5-3.6,3.6-4.4,6c-0.3,0.9-0.5,1.8-0.6,2.8l-0.3,8
	c0,0.5,0,0.9,0.1,1.4l0.8,3.3c0.1,0.4,0.2,0.7,0.5,1l4.9,5.6C905.5,356.9,905.8,357.1,906.1,357.2z"/>
<path class="st1" d="M906.8,354l51.1,13.9c1,0.1,2.1-0.3,2.8-1c0.7-0.6,1.4-1.4,1.9-2.1c0.9-2.5,0.8-4.8-0.3-5.7l-47.6-35
	c-0.7-0.4-1.6-0.4-2.3,0.1l-8.3,4.5c-2.1,1.5-3.6,3.6-4.4,6l-0.2,7.4c0,0.5,0,0.9,0.1,1.4l0.8,3.3c0.1,0.4,0.3,0.8,0.6,1.1l5,5.7
	C906.3,353.8,906.5,353.9,906.8,354z"/>
<radialGradient id="SVGID_5_" cx="-1444.5188" cy="-438.208" r="8.8072" gradientTransform="matrix(-3.000000e-02 -1 1 -3.000000e-02 1293.39 -1054.66)" gradientUnits="userSpaceOnUse">
	<stop  offset="0" style="stop-color:#FFFFFF"/>
	<stop  offset="1" style="stop-color:#000000"/>
</radialGradient>
<path class="st18" d="M896.4,391.2c-4.9,0.2-8.7,4.2-8.5,9.1s4.2,8.7,9.1,8.5c4.9-0.2,8.7-4.2,8.5-9.1c-0.1-4.8-4.1-8.7-9-8.5
	C896.4,391.2,896.4,391.2,896.4,391.2z"/>
<radialGradient id="SVGID_6_" cx="-1383.6196" cy="-418.3594" r="8.8164" gradientTransform="matrix(-3.000000e-02 -1 1 -3.000000e-02 1293.39 -1054.66)" gradientUnits="userSpaceOnUse">
	<stop  offset="0" style="stop-color:#FFFFFF"/>
	<stop  offset="1" style="stop-color:#000000"/>
</radialGradient>
<path class="st19" d="M914.5,329.7c-4.9,0.2-8.7,4.2-8.5,9.1s4.2,8.7,9.1,8.5c4.9-0.2,8.7-4.2,8.5-9.1
	C923.4,333.4,919.4,329.6,914.5,329.7z"/>
<path class="st6" d="M932,329.4v-11.8c0-11.3,8.6-20.6,19.8-21.6l9.3-2.4l19.7-6.5l4.5-1.2l28.1-8.3l2.2,4.4l-24.2,12.7l110.4,146.8
	l26.1,6.6v4.9H969C864.9,413,932,329.4,932,329.4z"/>
<path class="st20" d="M927.1,336.5c-0.5,7.1-0.5,14.2-0.2,21.2c1.3,23.1,9.1,42.5,24.6,59.3c15.1,16.5,37.6,23.6,59.3,24.6
	c21,0.9,44.8-10,59.3-24.6c2.6-2.6,5-5.4,7.1-8.3l24.5,32.5l26.1,6.6v4.9H969C883.4,420.1,913.6,357.6,927.1,336.5z"/>
<path class="st21" d="M140.8,245.3c0,0.4,0.2,0.8,0.6,0.8h6.2c0.4-0.1,0.7-0.4,0.6-0.8v-7.6c0-0.4-0.2-0.8-0.6-0.8h-6.2
	c-0.4,0.1-0.7,0.4-0.6,0.8V245.3z"/>
<path class="st3" d="M140.5,245.3v-7.6c0-0.6,0.4-1,0.9-1.1h6.2c0.6,0.1,1,0.6,0.9,1.1v7.6c0,0.6-0.4,1-0.9,1.1h-6.2
	C140.9,246.4,140.5,245.9,140.5,245.3z M141.5,237.3c-0.3,0-0.5,0.3-0.5,0.6v7.6c0,0.3,0.2,0.5,0.5,0.6h6.2c0.3,0,0.5-0.3,0.5-0.6
	v-7.6c0-0.3-0.2-0.5-0.5-0.6H141.5z"/>
<path class="st21" d="M553.1,259.5c0,0.4,0.2,0.8,0.6,0.8h6.2c0.4-0.1,0.7-0.4,0.6-0.8v-7.6c0-0.4-0.2-0.8-0.6-0.8h-6.2
	c-0.4,0.1-0.7,0.4-0.6,0.8V259.5z"/>
<path class="st3" d="M552.8,259.5v-7.6c0-0.6,0.4-1,0.9-1.1h6.2c0.6,0.1,1,0.6,0.9,1.1v7.6c0,0.6-0.4,1-0.9,1.1h-6.2
	C553.3,260.8,552.8,260.2,552.8,259.5z M553.8,251.4c-0.3,0-0.5,0.3-0.5,0.6v7.6c0,0.3,0.2,0.5,0.5,0.6h6.2c0.3,0,0.5-0.3,0.5-0.6
	V252c0-0.3-0.2-0.5-0.5-0.6H553.8z"/>
<path class="st2" d="M543.6,259.5c0,0.4,0.2,0.8,0.6,0.8h6.2c0.4-0.1,0.7-0.4,0.6-0.8v-7.6c0-0.4-0.2-0.8-0.6-0.8h-6.2
	c-0.4,0.1-0.7,0.4-0.6,0.8V259.5z"/>
<path class="st3" d="M543.3,259.5v-7.6c0-0.6,0.4-1,0.9-1.1h6.2c0.6,0.1,1,0.6,0.9,1.1v7.6c0,0.6-0.4,1-0.9,1.1h-6.2
	C543.8,260.8,543.3,260.2,543.3,259.5z M544.3,251.4c-0.3,0-0.5,0.3-0.5,0.6v7.6c0,0.3,0.2,0.5,0.5,0.6h6.2c0.3,0,0.5-0.3,0.5-0.6
	V252c0-0.3-0.2-0.5-0.5-0.6H544.3z"/>
<path class="st1" d="M126.8,133.2h7c-1.6,0-3.1,0.3-4.6,0.7c3,1,5.5,3.2,6.9,6l5.6,13.4h-7L129,140c-1.3-2.9-3.8-5.1-6.9-6
	C123.7,133.5,125.2,133.2,126.8,133.2z"/>
<path class="st1" d="M134.6,133.2h7c5.2,0,9.7,2.7,11.4,6.8l5.6,13.4h-7L146,140C144.3,136,139.7,133.2,134.6,133.2z"/>
<path class="st1" d="M148.7,133.2h7c5.2,0,9.7,2.7,11.4,6.8l5.6,13.4h-7l-5.6-13.4C158.4,136,153.9,133.2,148.7,133.2z"/>
<path class="st6" d="M669.6,316.4l-24-46.8l-20.5-129.7h-7c-11,0-20.6,7.6-23,18.4l-33,147.3h-33.7v37.8h141.1L669.6,316.4
	L669.6,316.4z"/>
<circle class="st22" cx="694.8" cy="341.3" r="109.8"/>
<circle class="st23" cx="694.8" cy="341.3" r="76.9"/>
<circle class="st24" cx="694.8" cy="341.3" r="54.8"/>
<circle class="st25" cx="694.8" cy="341.3" r="39"/>
<circle class="st24" cx="694.8" cy="341.3" r="29.3"/>
<rect x="684.4" y="227.2" class="st22" width="26.2" height="9.2"/>
<rect x="730.3" y="226.3" transform="matrix(0.342 -0.9397 0.9397 0.342 258.5588 848.0634)" class="st22" width="9.2" height="26.2"/>
<rect x="762.7" y="246.1" transform="matrix(0.6428 -0.766 0.766 0.6428 75.562 680.3804)" class="st22" width="9.2" height="26.2"/>
<rect x="786.4" y="275.8" transform="matrix(0.866 -0.5 0.5 0.866 -38.5097 434.2101)" class="st22" width="9.2" height="26.2"/>
<rect x="798.5" y="311.8" transform="matrix(0.9848 -0.1736 0.1736 0.9848 -44.226 144.3972)" class="st22" width="9.2" height="26.2"/>
<rect x="789.1" y="358.4" transform="matrix(0.1736 -0.9848 0.9848 0.1736 305.3895 1089.9501)" class="st22" width="26.2" height="9.2"/>
<rect x="775.2" y="393.8" transform="matrix(0.5 -0.866 0.866 0.5 49.1408 881.8986)" class="st22" width="26.2" height="9.2"/>
<rect x="750" y="422.3" transform="matrix(0.766 -0.6428 0.6428 0.766 -95.8727 590.3749)" class="st22" width="26.2" height="9.2"/>
<rect x="716.6" y="440.6" transform="matrix(0.9397 -0.342 0.342 0.9397 -108.2384 276.4297)" class="st22" width="26.2" height="9.2"/>
<rect x="679" y="446.2" class="st22" width="26.2" height="9.2"/>
<rect x="650.3" y="430.1" transform="matrix(0.342 -0.9397 0.9397 0.342 14.3492 907.0052)" class="st22" width="9.2" height="26.2"/>
<rect x="617.7" y="410.2" transform="matrix(0.6428 -0.766 0.766 0.6428 -101.9696 627.9469)" class="st22" width="9.2" height="26.2"/>
<rect x="594" y="380.6" transform="matrix(0.866 -0.5 0.5 0.866 -116.6423 352.0609)" class="st22" width="9.2" height="26.2"/>
<rect x="581.9" y="344.6" transform="matrix(0.9848 -0.1736 0.1736 0.9848 -53.199 107.2743)" class="st22" width="9.2" height="26.2"/>
<rect x="574.3" y="314.9" transform="matrix(0.1736 -0.9848 0.9848 0.1736 170.7838 842.5085)" class="st22" width="26.2" height="9.2"/>
<rect x="588.2" y="279.5" transform="matrix(0.5 -0.866 0.866 0.5 54.5782 662.7858)" class="st22" width="26.2" height="9.2"/>
<rect x="613.4" y="251.1" transform="matrix(0.766 -0.6428 0.6428 0.766 -17.7819 462.5472)" class="st22" width="26.2" height="9.2"/>
<rect x="646.9" y="232.8" transform="matrix(0.9397 -0.342 0.342 0.9397 -41.3816 240.054)" class="st22" width="26.2" height="9.2"/>
<circle class="st22" cx="297.5" cy="341.3" r="109.8"/>
<circle class="st23" cx="297.5" cy="341.3" r="76.9"/>
<ellipse transform="matrix(0.9732 -0.2299 0.2299 0.9732 -70.475 77.5309)" class="st24" cx="297.5" cy="341.2" rx="54.8" ry="54.8"/>
<ellipse transform="matrix(0.9732 -0.2299 0.2299 0.9732 -70.475 77.5309)" class="st25" cx="297.5" cy="341.2" rx="39" ry="39"/>
<circle class="st24" cx="297.5" cy="341.3" r="29.3"/>
<rect x="287.2" y="227.2" class="st22" width="26.2" height="9.2"/>
<rect x="333" y="226.2" transform="matrix(0.342 -0.9397 0.9397 0.342 -2.784 474.6813)" class="st22" width="9.2" height="26.2"/>
<rect x="365.4" y="246.1" transform="matrix(0.6428 -0.766 0.766 0.6428 -66.3847 375.9766)" class="st22" width="9.2" height="26.2"/>
<rect x="389.1" y="275.8" transform="matrix(0.866 -0.5 0.5 0.866 -91.7398 235.5434)" class="st22" width="9.2" height="26.2"/>
<rect x="401.2" y="311.9" transform="matrix(0.9848 -0.1736 0.1736 0.9848 -50.2671 75.4098)" class="st22" width="9.2" height="26.2"/>
<rect x="391.8" y="358.4" transform="matrix(0.1736 -0.9848 0.9848 0.1736 -22.8654 698.6685)" class="st22" width="26.2" height="9.2"/>
<rect x="377.9" y="393.8" transform="matrix(0.5 -0.866 0.866 0.5 -149.5275 537.7946)" class="st22" width="26.2" height="9.2"/>
<rect x="352.6" y="422.3" transform="matrix(0.766 -0.6428 0.6428 0.766 -188.8331 334.9618)" class="st22" width="26.2" height="9.2"/>
<rect x="319.3" y="440.6" transform="matrix(0.9397 -0.342 0.342 0.9397 -132.2005 140.5334)" class="st22" width="26.2" height="9.2"/>
<rect x="281.6" y="446.2" class="st22" width="26.2" height="9.2"/>
<rect x="252.9" y="430.1" transform="matrix(0.342 -0.9397 0.9397 0.342 -247.0943 533.6097)" class="st22" width="9.2" height="26.2"/>
<rect x="220.4" y="410.2" transform="matrix(0.6428 -0.766 0.766 0.6428 -243.8961 323.6032)" class="st22" width="9.2" height="26.2"/>
<rect x="196.7" y="380.6" transform="matrix(0.866 -0.5 0.5 0.866 -169.8758 153.3908)" class="st22" width="9.2" height="26.2"/>
<rect x="184.5" y="344.4" transform="matrix(0.9848 -0.1736 0.1736 0.9848 -59.2166 38.2708)" class="st22" width="9.2" height="26.2"/>
<rect x="177.1" y="315.1" transform="matrix(0.1736 -0.9848 0.9848 0.1736 -157.645 451.4558)" class="st22" width="26.2" height="9.2"/>
<rect x="190.8" y="279.6" transform="matrix(0.5 -0.866 0.866 0.5 -144.0982 318.6958)" class="st22" width="26.2" height="9.2"/>
<rect x="216.1" y="251.1" transform="matrix(0.766 -0.6428 0.6428 0.766 -110.7321 207.1404)" class="st22" width="26.2" height="9.2"/>
<rect x="249.5" y="232.8" transform="matrix(0.9397 -0.342 0.342 0.9397 -65.3553 104.1237)" class="st22" width="26.2" height="9.2"/>
<radialGradient id="SVGID_7_" cx="-1965.4462" cy="225.354" r="12.3486" gradientTransform="matrix(0.79 -0.61 0.61 0.79 2032.96 -1201.5)" gradientUnits="userSpaceOnUse">
	<stop  offset="0" style="stop-color:#FFFFFF"/>
	<stop  offset="1" style="stop-color:#000000"/>
</radialGradient>
<path class="st26" d="M622.4,158.8c-4.1-5.4-11.9-6.5-17.3-2.3c-5.4,4.1-6.5,11.9-2.3,17.3c4.1,5.4,11.9,6.5,17.3,2.3
	C625.5,172,626.6,164.2,622.4,158.8z"/>
<line class="st27" x1="440.3" y1="19.4" x2="440.3" y2="215"/>
<path class="st28" d="M338.5,228.5v0.2h24.2v-0.2h45.1L392,185.1c-2.9-7.8-5.4-14.8-7.5-21.1c-8.9-25.7-13.8-39.8-28.9-39.8h-16.9
	l-2,104.4L338.5,228.5L338.5,228.5L338.5,228.5z M341.6,225.4v-93.8h2.2c8,0,9.4,15.3,11.8,43.1c0.4,4.1,0.7,8.3,1.2,12.9l2.8,37.8
	H341.6z M362.6,225.4l-2.8-38.1c-0.5-4.6-0.8-8.9-1.2-13c-2.7-30.5-4.1-45.8-14.7-45.8h-2.3V127h14c13.1,0,17.4,12.6,26.1,37.8
	c2.1,6.3,4.6,13.3,7.5,21.1l14.3,39.4H362.6z"/>
<polygon class="st28" points="342.6,225.4 408.6,225.4 434.5,289.6 430,289.6 400.1,238 342.6,227.2 "/>
<polygon class="st3" points="418.5,234.2 541.2,234.2 541.2,218 412.1,218 "/>
<polygon class="st3" points="472.7,370.9 540,370.9 540,218 412.1,218 "/>
<linearGradient id="SVGID_8_" gradientUnits="userSpaceOnUse" x1="694.205" y1="-234.4299" x2="694.205" y2="-116.071" gradientTransform="matrix(-1 0 0 -1 1174.04 121.95)">
	<stop  offset="0" style="stop-color:#414042"/>
	<stop  offset="0.8" style="stop-color:#231F20"/>
	<stop  offset="1" style="stop-color:#000000"/>
</linearGradient>
<polygon class="st29" points="435.9,234.1 446.8,261.7 450.7,271.5 461.6,298.9 465.5,308.7 476.4,336.2 480.3,345.9 483.7,354.8 
	523.8,354.8 523.8,234.1 "/>
<polygon class="st30" points="446.8,261.7 450.7,271.5 523.8,271.5 523.8,261.7 "/>
<polygon class="st30" points="461.6,298.9 465.5,308.7 523.8,308.7 523.8,298.9 "/>
<polygon class="st30" points="476.4,336.2 480.3,345.9 523.8,345.9 523.8,336.2 "/>
<rect x="426.1" y="224.6" class="st30" width="98.5" height="9.7"/>
</svg>
