<?xml version="1.0" encoding="utf-8"?>
<!-- Generator: Adobe Illustrator 23.0.1, SVG Export Plug-In . SVG Version: 6.00 Build 0)  -->
<svg version="1.1" id="Layer_1" xmlns="http://www.w3.org/2000/svg" xmlns:xlink="http://www.w3.org/1999/xlink" x="0px" y="0px"
	 viewBox="0 0 1158 619.9" style="enable-background:new 0 0 1158 619.9;" xml:space="preserve">
<style type="text/css">
	.st0{opacity:0.1;fill:#1B1B19;enable-background:new    ;}
	.st1{fill:#212121;}
	.st2{fill:#333333;}
	.st3{fill:#B5B5B5;}
	.st4{fill:#141414;}
	.st5{fill:#403430;}
	.st6{fill:#A7CB64;}
	.st7{fill:#88A84C;}
	.st8{fill:#111111;}
	.st9{opacity:0.5;enable-background:new    ;}
	.st10{fill:#161616;}
	.st11{fill:#232323;}
	.st12{fill:#3A3A3A;}
	.st13{fill:#8E8E8E;}
	.st14{fill:#AFAFAF;}
	.st15{fill:#FFFFFF;}
	.st16{opacity:0.5;fill:#111111;enable-background:new    ;}
	.st17{fill:#BCBCBC;}
	.st18{fill:#DD2424;}
	.st19{fill:#F95353;}
	.st20{fill:#AF1C1C;}
	.st21{fill:#636363;}
	.st22{fill:#0A0A0A;}
	.st23{fill:#2B2B2B;}
	.st24{fill:#E5E5E5;}
</style>
<title>7</title>
<path class="st0" d="M1115.1,601H134.9c-3.4,0-6-2.7-6-6s2.7-6,6-6h980.2c3.4,0,6,2.7,6,6S1118.5,601,1115.1,601L1115.1,601z"/>
<polygon class="st1" points="149.3,324 120.5,324 120.5,206.2 131.4,206.2 "/>
<rect x="120.5" y="206.2" class="st2" width="4" height="114.7"/>
<path class="st3" d="M648.5,154.9L648.5,154.9c-1.4-0.4-2.2-1.9-1.8-3.3l12.3-40c0.4-1.4,1.9-2.2,3.3-1.8l0,0
	c1.4,0.4,2.2,1.9,1.8,3.3l-12.3,40C651.4,154.5,650,155.3,648.5,154.9C648.6,154.9,648.5,154.9,648.5,154.9z"/>
<path class="st3" d="M659.5,113c-0.4-1.1,0.2-2.3,1.2-2.7c1.1-0.4,2.3,0.2,2.7,1.2c0.4,1.1-0.2,2.3-1.2,2.7l0,0
	C661.1,114.7,659.8,114.1,659.5,113C659.5,113.1,659.5,113,659.5,113z"/>
<path class="st4" d="M708.3,226.6l-42.7-5.9c-3.1-0.5-6,1.5-6.9,4.4l-13.4,43.6c0,0,47.2,7.3,48,7.7s22.3-28.9,22.3-28.9
	L708.3,226.6z"/>
<path class="st4" d="M613.7,279L613.7,279c-3-0.8-4.7-3.9-3.9-6.9l18.8-67.1c0.8-3,3.9-4.7,6.9-3.9l0,0c3,0.8,4.7,3.9,3.9,6.9
	l-18.8,67.1C619.7,278.1,616.7,279.9,613.7,279z"/>
<path class="st4" d="M625.3,245.6l50.6,14.1c2.6,0.8,5.3-0.8,6-3.4l0,0c0.8-2.6-0.8-5.3-3.4-6l-50.6-14.1c-2.6-0.8-5.3,0.8-6,3.4
	l0,0C621.3,242.1,622.8,244.8,625.3,245.6z"/>
<path class="st5" d="M203.9,273.2L187.5,189c-0.9-4.9,2.3-9.6,7.1-10.5c0.6-0.1,1-0.2,1.6-0.2h17.6c9.4,0,17.9,5.3,22.3,13.5
	l42.7,83.5L203.9,273.2z"/>
<path class="st5" d="M225.7,192l42.4,83.2l10.6,0.3L236,192c-4.2-8.4-12.9-13.6-22.3-13.5h-10.3C212.8,178.4,221.4,183.6,225.7,192z
	"/>
<path class="st5" d="M452.6,273.2L436.2,189c-0.9-4.9,2.3-9.6,7.1-10.5c0.6-0.1,1.1-0.2,1.6-0.2h17.7c9.4,0,17.9,5.3,22.3,13.5
	l42.7,83.5L452.6,273.2z"/>
<path class="st5" d="M474.3,192l42.5,83.2l10.6,0.3L484.7,192c-4.2-8.4-12.9-13.6-22.3-13.5h-10.4
	C461.4,178.4,470.1,183.6,474.3,192z"/>
<path class="st6" d="M669.7,108.6h-0.3L440.2,97.3H217.9c-3.8,0.2-7.1-2.9-7.2-6.8c-0.2-3.8,2.9-7.1,6.8-7.2c0.2,0,0.4,0,0.5,0
	h222.7L670,94.6c3.8,0.2,6.8,3.5,6.6,7.3C676.5,105.7,673.5,108.6,669.7,108.6z"/>
<path class="st6" d="M173.9,276.3c-0.9,0-1.9-0.1-2.7-0.3c-6-1.5-9.7-7.5-8.2-13.5c0-0.1,0-0.1,0-0.2l43.9-174.7
	c1.3-6.1,7.2-10,13.3-8.7c6.1,1.3,10,7.2,8.7,13.3c-0.1,0.3-0.1,0.6-0.2,0.9l-44.1,174.5C183.5,272.7,179,276.3,173.9,276.3z"/>
<path class="st6" d="M440.3,277.6c-6.3,0-11.4-5.1-11.4-11.4V90.4c-0.2-6.3,4.8-11.5,11-11.6c6.3-0.2,11.5,4.8,11.6,11
	c0,0.2,0,0.5,0,0.7v176C451.6,272.5,446.5,277.6,440.3,277.6L440.3,277.6z"/>
<path class="st6" d="M451.7,266.3v-176c0-6.3-5.1-11.4-11.4-11.4v198.6C446.5,277.6,451.6,272.6,451.7,266.3L451.7,266.3z"/>
<path class="st6" d="M203.2,60.1c0,0-10-41.9-55.7-41.1c-3.4,0.1-4.4,4.7-1.5,6.1c17.7,9,28.4,27.9,28,40.3
	C184.7,72,203.2,60.1,203.2,60.1z"/>
<path class="st7" d="M762.8,97.5c5.6,0.7,7.3-7.3,2.1-9.1c-35.8-11.8-114.7-29.2-282.2-38.2c-185.3-10-291.5,9.4-340.1,22.5
	c-2.4,0.7-3.9,3.2-3.3,5.6c0.6,2.1,2.5,3.6,4.7,3.5c66-2.8,217.1-8.3,340.5-4.1C602.9,81.7,712.1,92.2,762.8,97.5z"/>
<path class="st6" d="M485,72.6c-124.9-4.2-277.5,1.1-345.9,4.1c-0.2,2.5,1.7,4.8,4.1,5c0.2,0,0.5,0,0.7,0
	c66-2.8,217.1-8.3,340.5-4.1c118.7,4,227.9,14.6,278.5,19.8c2.5,0.3,4.9-1.5,5.2-4c0-0.3,0-0.5,0-0.8
	C715.7,87.3,605.1,76.7,485,72.6z"/>
<path class="st6" d="M184.8,267.8l44-174.6c1.5-6-2.2-12.1-8.2-13.6L171,276c0.9,0.2,1.9,0.3,2.7,0.3
	C179,276.3,183.5,272.8,184.8,267.8z"/>
<path class="st6" d="M220.7,79.4c-6-1.5-12.1,2.2-13.7,8.2l-4.7,18.6l20.8,9.5l5.7-22.5C230.4,87.1,226.7,81,220.7,79.4z"/>
<path class="st6" d="M440.3,79.1c-6.3,0-11.4,5.1-11.4,11.4V118l22.5,4.8V90.5c0.1-6.1-4.8-11.2-10.9-11.4
	C440.5,79.1,440.4,79.1,440.3,79.1z"/>
<path class="st8" d="M35.4,331.9V184.2c0-23.6,19.1-42.6,42.6-42.6l0,0c23.6,0,42.6,19.1,42.6,42.6v147.7
	c0,23.6-19.1,42.6-42.6,42.6l0,0C54.4,374.5,35.4,355.4,35.4,331.9z"/>
<path d="M102.4,143.4c1.3,2,1.3,4.4,0,6.4l-4.8,7.6c-1.9,3.1-1.9,6.9,0,10l4.8,7.6c1.3,2,1.3,4.4,0,6.4l-4.8,7.6
	c-1.9,3.1-1.9,6.9,0,10l4.8,7.6c1.3,2,1.3,4.4,0,6.4l-4.8,7.6c-1.9,3.1-1.9,6.9,0,10l4.8,7.6c1.3,2,1.3,4.4,0,6.4l-4.8,7.7
	c-1.9,3.1-1.9,6.9,0,10l4.8,7.6c1.3,2,1.3,4.4,0,6.4l-4.8,7.6c-1.9,3.1-1.9,6.9,0,10l4.8,7.6c1.3,2,1.3,4.4,0,6.4l-4.8,7.6
	c-1.9,3.1-1.9,6.9,0,10l4.8,7.6c1.3,2,1.3,4.4,0,6.4l-4.8,7.7c-1.9,3.1-1.9,6.9,0,10l4.8,7.7c1.2,2,1.2,4.5,0,6.5l-0.8,1.4
	c1.6-0.3,3.2-0.8,4.7-1.4c1-2.7,0.8-5.9-0.8-8.4l-4.8-7.7c-1.3-2-1.3-4.4,0-6.4l4.8-7.7c1.9-3.1,1.9-6.9,0-10l-4.8-7.6
	c-1.3-2-1.3-4.4,0-6.4l4.8-7.6c1.9-3.1,1.9-6.9,0-10l-4.8-7.6c-1.3-2-1.3-4.4,0-6.4l4.8-7.6c1.9-3.1,1.9-6.9,0-10l-4.8-7.6
	c-1.3-2-1.3-4.4,0-6.4l4.8-7.7c1.9-3.1,1.9-6.9,0-10l-4.8-7.6c-1.3-2-1.3-4.4,0-6.4l4.8-7.6c1.9-3.1,1.9-6.9,0-10l-4.8-7.6
	c-1.3-2-1.3-4.4,0-6.4l4.8-7.6c1.9-3.1,1.9-6.9,0-10l-4.8-7.6c-1.3-2-1.3-4.4,0-6.4l4.8-7.6c1.5-2.5,1.9-5.6,0.8-8.4
	c-1.5-0.7-3.1-1.1-4.7-1.4L102.4,143.4z"/>
<path d="M58.4,364.5l-4.8-7.7c-1.3-2-1.3-4.4,0-6.4l4.8-7.7c1.9-3.1,1.9-6.9,0-10l-4.8-7.6c-1.3-2-1.3-4.4,0-6.4l4.8-7.6
	c1.9-3.1,1.9-6.9,0-10l-4.8-7.6c-1.3-2-1.3-4.4,0-6.4l4.8-7.6c1.9-3.1,1.9-6.9,0-10l-4.8-7.6c-1.3-2-1.3-4.4,0-6.4l4.8-7.7
	c1.9-3.1,1.9-6.9,0-10l-4.8-7.6c-1.3-2-1.3-4.4,0-6.4l4.8-7.6c1.9-3.1,1.9-6.9,0-10l-4.8-7.6c-1.3-2-1.3-4.4,0-6.4l4.8-7.7
	c1.9-3.1,1.9-6.9,0-10l-4.8-7.6c-1.3-2-1.3-4.4,0-6.4l4.8-7.6c1.9-3.1,1.9-6.9,0-10c-1.3,0-2.5,0.1-3.8,0.3l0.8,1.5
	c1.3,2,1.3,4.4,0,6.4l-4.8,7.6c-1.9,3.1-1.9,6.9,0,10l4.8,7.1c1.3,2,1.3,4.4,0,6.4l-4.8,7.6c-1.9,3.1-1.9,6.9,0,10l4.8,7.7
	c1.3,2,1.3,4.4,0,6.4l-4.8,7.6c-1.9,3.1-1.9,6.9,0,10l4.8,7.7c1.3,2,1.3,4.4,0,6.4l-4.8,7.7c-1.9,3.1-1.9,6.9,0,10l4.8,7.6
	c1.3,2,1.3,4.4,0,6.4l-4.8,7.6c-1.9,3.1-1.9,6.9,0,10l4.8,7.6c1.3,2,1.3,4.4,0,6.4l-4.8,7.6c-1.9,3.1-1.9,6.9,0,10l4.8,7.6
	c1.3,2,1.3,4.4,0,6.4l-4.8,7.7c-1.9,3.1-1.9,6.9,0,10l4.8,7.7c1.3,2,1.3,4.4,0,6.4l-0.9,1.5c1.2,0.2,2.5,0.3,3.8,0.3l0,0
	C60.3,371.2,60.3,367.4,58.4,364.5z"/>
<path d="M69.9,374.5h4.1c1.9-3.1,1.9-6.9,0-10l-4.8-7.7c-1.3-2-1.3-4.4,0-6.4l4.8-7.7c1.9-3.1,1.9-6.9,0-10l-4.8-7.6
	c-1.3-2-1.3-4.4,0-6.4l4.8-7.6c1.9-3.1,1.9-6.9,0-10l-4.8-7.6c-1.3-2-1.3-4.4,0-6.4l4.8-7.6c1.9-3.1,1.9-6.9,0-10l-4.8-7.6
	c-1.3-2-1.3-4.4,0-6.4l4.8-7.7c1.9-3.1,1.9-6.9,0-10l-4.8-7.6c-1.3-2-1.3-4.4,0-6.4l4.8-7.6c1.9-3.1,1.9-6.9,0-10l-4.8-7.6
	c-1.3-2-1.3-4.4,0-6.4l4.8-7.7c1.9-3.1,1.9-6.9,0-10l-4.8-7.6c-1.3-2-1.3-4.4,0-6.4l4.8-7.6c1.9-3.1,1.9-6.9,0-10h-4.1l1.1,1.8
	c1.3,2,1.3,4.4,0,6.4l-4.7,7.6c-1.9,3.1-1.9,6.9,0,10l4.7,7.6c1.3,2,1.3,4.4,0,6.4l-4.7,7.6c-1.9,3.1-1.9,6.9,0,10l4.7,7.6
	c1.3,2,1.3,4.4,0,6.4l-4.7,7.6c-1.9,3.1-1.9,6.9,0,10l4.7,7.6c1.3,2,1.3,4.4,0,6.4l-4.7,7.7c-1.9,3.1-1.9,6.9,0,10l4.7,7.6
	c1.3,2,1.3,4.4,0,6.4l-4.7,7.6c-1.9,3.1-1.9,6.9,0,10l4.7,7.6c1.3,2,1.3,4.4,0,6.4l-4.7,7.6c-1.9,3.1-1.9,6.9,0,10l4.7,7.6
	c1.3,2,1.3,4.4,0,6.4l-4.7,7.7c-1.9,3.1-1.9,6.9,0,10l4.7,7.8c1.3,2,1.3,4.4,0,6.4L69.9,374.5z"/>
<path d="M85.6,374.5h4.1c1.9-3.1,1.9-6.9,0-10l-4.8-7.7c-1.3-2-1.3-4.4,0-6.4l4.8-7.7c1.9-3.1,1.9-6.9,0-10l-4.8-7.6
	c-1.3-2-1.3-4.4,0-6.4l4.8-7.6c1.9-3.1,1.9-6.9,0-10l-4.8-7.6c-1.3-2-1.3-4.4,0-6.4l4.8-7.6c1.9-3.1,1.9-6.9,0-10l-4.8-7.6
	c-1.3-2-1.3-4.4,0-6.4l4.8-7.7c1.9-3.1,1.9-6.9,0-10l-4.8-7.6c-1.3-2-1.3-4.4,0-6.4l4.8-7.6c1.9-3.1,1.9-6.9,0-10l-4.8-7.6
	c-1.3-2-1.3-4.4,0-6.4l4.8-7.7c1.9-3.1,1.9-6.9,0-10l-4.8-7.6c-1.3-2-1.3-4.4,0-6.4l4.8-7.6c1.9-3.1,1.9-6.9,0-10h-4.1l1.1,1.8
	c1.3,2,1.3,4.4,0,6.4l-4.8,7.6c-1.9,3.1-1.9,6.9,0,10l4.8,7.6c1.3,2,1.3,4.4,0,6.4l-4.8,7.6c-1.9,3.1-1.9,6.9,0,10l4.8,7.6
	c1.3,2,1.3,4.4,0,6.4l-4.8,7.6c-1.9,3.1-1.9,6.9,0,10l4.8,7.6c1.3,2,1.3,4.4,0,6.4l-4.8,7.7c-1.9,3.1-1.9,6.9,0,10l4.8,7.6
	c1.3,2,1.3,4.4,0,6.4l-4.8,7.6c-1.9,3.1-1.9,6.9,0,10l4.8,7.6c1.3,2,1.3,4.4,0,6.4l-4.8,7.6c-1.9,3.1-1.9,6.9,0,10l4.8,7.6
	c1.3,2,1.3,4.4,0,6.4l-4.8,7.7c-1.9,3.1-1.9,6.9,0,10l4.8,7.8c1.3,2,1.3,4.4,0,6.4L85.6,374.5z"/>
<path class="st9" d="M51,142.9c-9.2,3.2-15.5,11.9-15.5,21.7v186.7c0,9.8,6.2,18.5,15.5,21.7V142.9z"/>
<path class="st9" d="M105.1,373.3c9.2-3.2,15.5-11.9,15.5-21.7V164.7c0-9.8-6.2-18.5-15.5-21.7V373.3z"/>
<polygon class="st10" points="147.9,434.5 233.1,455.3 953.5,455.3 1115.1,428.7 1115.1,388.7 1095.5,353.9 1055.5,314.5 902,319.2 
	220.8,319.2 157.6,358 "/>
<path class="st8" d="M1097.3,479.9L1097.3,479.9c-0.1-0.6-0.1-1.1-0.1-1.7h0.1c2.9-0.1,5.1-2.5,5-5.4c-0.2-4.8-0.8-9.6-1.6-14.3
	c-0.5-2.8-3.1-4.7-6-4.2c0,0,0,0-0.1,0h-0.1c-0.1-0.6-0.2-1-0.3-1.6h0.1c2.7-0.8,4.3-3.7,3.6-6.5c-1.3-4.6-3-9.1-4.9-13.6
	c-1.1-2.6-4.2-3.8-6.9-2.7c-0.1,0-0.1,0-0.1,0.1c-0.2-0.6-0.6-0.9-0.8-1.5c0.1,0,0.1,0,0.1-0.1c2.5-1.4,3.4-4.6,2.1-7l0,0
	c-2.3-4.2-5-8.3-7.8-12.1c-1.7-2.3-5-2.8-7.3-1l0,0l-0.1,0.1c-0.3-0.5-0.8-0.8-1-1.2l0.1-0.1c2.1-2,2.3-5.3,0.3-7.4
	c-3.3-3.6-6.8-6.9-10.5-10c-2.2-1.9-5.4-1.6-7.2,0.5l-0.1,0.1c0,0,0,0.1-0.1,0.1c-0.4-0.3-0.9-0.7-1.4-0.9l0.1-0.1
	c1.6-2.3,0.9-5.5-1.4-7.2c-4-2.7-8.2-5.2-12.5-7.3c-2.5-1.3-5.6-0.3-6.9,2.3v0.1v0.1c-0.6-0.2-1-0.5-1.5-0.7c0-0.1,0.1-0.1,0.1-0.1
	c1-2.6-0.3-5.5-2.9-6.6c-0.1,0-0.1-0.1-0.2-0.1c-4.5-1.7-9.1-3.1-13.8-4.2c-2.8-0.7-5.5,1-6.3,3.8v0.1l-1.6-0.3v-0.1
	c0.4-2.9-1.7-5.4-4.5-5.8c-2.4-0.3-5-0.6-7.4-0.8c-2.4-0.2-4.7-0.2-6.9-0.2c-2.9,0-5.2,2.3-5.2,5.2v0.1c-0.6,0-1,0.1-1.7,0.1v-0.1
	c-0.3-2.8-2.8-5-5.7-4.7c-4.8,0.5-9.5,1.3-14.2,2.4c-2.8,0.7-4.5,3.5-3.9,6.3v0.1c-0.6,0.1-1,0.3-1.6,0.5V372
	c-0.9-2.7-3.8-4.1-6.6-3.2h-0.1c-4.5,1.6-8.9,3.5-13.2,5.6c-2.5,1.3-3.6,4.4-2.3,7l0.1,0.1c-0.6,0.3-0.9,0.6-1.5,0.8
	c0-0.1,0-0.1-0.1-0.1c-1.6-2.4-4.8-3.1-7.2-1.6c-4,2.6-8,5.4-11.6,8.5c-2.2,1.8-2.5,5-0.8,7.1l0.1,0.1l0.1,0.1
	c-0.5,0.5-0.8,0.8-1.2,1.1l-0.1-0.1c-2.1-2-5.4-2-7.4,0.1c-3.3,3.5-6.4,7.1-9.3,11c-1.7,2.3-1.2,5.5,1,7.3c0,0,0.1,0,0.1,0.1
	c-0.3,0.5-0.7,0.9-0.9,1.4l-0.1-0.1c-2.4-1.5-5.6-0.7-7,1.8l0,0c-2.4,4.1-4.6,8.5-6.6,12.9c-1.1,2.6,0.1,5.7,2.7,6.9l0,0h0.1
	c-0.2,0.6-0.3,1-0.6,1.6c-0.1,0-0.1,0-0.1-0.1l0,0c-2.7-0.8-5.7,0.7-6.6,3.4c-1.4,4.6-2.5,9.3-3.4,14c-0.5,2.8,1.3,5.5,4.1,6
	c0,0,0,0,0.1,0h0.1c-0.1,0.6-0.2,1.1-0.2,1.7h0c-2.9-0.2-5.4,2-5.5,4.9l0,0v0.8c-0.3,4.5-0.3,9.1-0.1,13.7c0.1,2.6,2.3,4.8,4.9,4.9
	h0.8c0.1,0.6,0.1,1,0.2,1.7h-0.1c-2.8,0.5-4.8,3.2-4.3,6c0.8,4.8,1.9,9.5,3.2,14.1c0.6,2.2,2.5,3.7,4.7,3.8c0.6,0,1.2,0,1.8-0.2h0.1
	c0.2,0.5,0.4,1,0.6,1.6h-0.1c-2.6,1-3.8,4-2.8,6.7v0.1c1.9,4.4,4,8.7,6.4,13c0.8,1.5,2.4,2.5,4.2,2.6c1,0.1,2.1-0.1,3-0.7l0.1-0.1
	c0.3,0.5,0.6,0.9,0.8,1.4c0,0-0.1,0-0.1,0.1c-2.3,1.7-2.8,5-1.1,7.3c2.8,3.8,5.9,7.6,9.2,11.1c0.8,1,2.2,1.6,3.5,1.6
	c1.4,0.1,2.8-0.5,3.9-1.4l0.1-0.1l1.1,1.1l-0.1,0.1c-1.9,2.2-1.6,5.4,0.6,7.3c3.7,3.2,7.5,6.1,11.5,8.7c0.8,0.6,1.6,0.8,2.5,0.8
	c1.9,0.1,3.7-0.8,4.7-2.3c0-0.1,0-0.1,0.1-0.1c0.6,0.3,0.9,0.6,1.5,0.8l-0.1,0.1c-1.3,2.5-0.3,5.6,2.3,7c4.3,2.3,8.7,4.1,13.2,5.8
	c0.5,0.2,0.9,0.3,1.5,0.3c2.3,0.2,4.4-1.2,5.2-3.4v-0.1c0.6,0.2,1,0.3,1.6,0.6v0.1c-0.7,2.8,1,5.6,3.8,6.4c4.7,1.1,9.4,2.1,14.2,2.6
	h0.3c2.7,0.2,5.2-1.8,5.5-4.5v-0.1c0.5,0,0.8,0.1,1.2,0.1h0.6v0.1c0,2.7,2.2,5.1,4.9,5.3h0.3c4.8,0.1,9.7-0.2,14.4-0.8
	c2.8-0.3,4.9-2.8,4.6-5.6l0,0v-0.1c0.6-0.1,1-0.2,1.7-0.3v0.1c0.5,2.3,2.4,3.9,4.8,4c0.5,0,1,0,1.5-0.1c4.7-1.1,9.3-2.4,13.9-4
	c2.7-0.9,4.1-3.9,3.2-6.7c0,0,0,0,0-0.1s0-0.1-0.1-0.1c0.6-0.2,1-0.5,1.5-0.7c0,0.1,0,0.1,0.1,0.1c0.8,1.7,2.5,2.8,4.3,3
	c0.9,0.1,1.9-0.1,2.6-0.6c4.3-2.1,8.5-4.5,12.5-7.1c2.4-1.6,3.1-4.8,1.5-7.1c0,0,0,0,0-0.1l-0.1-0.1c0.5-0.4,0.9-0.7,1.4-0.9
	c0,0.1,0,0.1,0.1,0.1c0.9,1.1,2.3,1.8,3.8,1.9c1.3,0.1,2.6-0.4,3.6-1.1c3.8-3.1,7.2-6.4,10.6-9.9c2-2.1,1.9-5.4-0.2-7.4l0,0
	l-0.1-0.1c0.3-0.5,0.8-0.8,1-1.2l0.1,0.1c0.8,0.6,1.8,0.9,2.8,1c1.7,0.1,3.4-0.7,4.4-2c2.9-3.8,5.6-7.8,8.1-12
	c1.5-2.4,0.7-5.5-1.7-7c-0.1,0-0.1-0.1-0.2-0.1s-0.1,0-0.1-0.1c0.2-0.6,0.6-0.9,0.8-1.5c0.1,0,0.1,0,0.1,0.1
	c0.6,0.3,1.2,0.4,1.8,0.5c2.2,0.1,4.2-1.1,5.1-3.1c2-4.4,3.7-8.9,5.1-13.5c0.8-2.7-0.8-5.6-3.5-6.5l0,0h-0.1c0.1-0.6,0.3-1,0.4-1.6
	h0.1c0.2,0,0.4,0.1,0.7,0.1c2.6,0.2,5-1.7,5.4-4.2c0.8-4.7,1.5-9.5,1.8-14.3v-0.3C1102.3,482.6,1100.3,480,1097.3,479.9z"/>
<ellipse transform="matrix(0.7071 -0.7071 0.7071 0.7071 -49.5328 837.3558)" class="st11" cx="986" cy="478.5" rx="99.1" ry="99.1"/>
<path class="st12" d="M898.8,480.8h-0.6c-4.3-0.3-7.6-3.9-7.3-8.3c0.4-6.5,1.5-12.9,3.2-19.1c1.1-4.2,5.4-6.7,9.6-5.6
	s6.7,5.4,5.6,9.6v0.1c-1.4,5.2-2.3,10.5-2.6,15.9C906.3,477.6,902.8,480.8,898.8,480.8z"/>
<path class="st12" d="M960.5,570c-0.8,0-1.5-0.1-2.3-0.3c-32.7-10-57.6-36.6-65.2-69.9c-0.9-4.2,1.7-8.4,5.8-9.3
	c4.1-0.9,8.4,1.7,9.3,5.8l0,0c6.4,27.8,27.1,50,54.5,58.4c4.1,1.2,6.5,5.6,5.2,9.7l0,0C967.1,567.7,964,570,960.5,570z"/>
<circle class="st8" cx="985.9" cy="478.5" r="69.5"/>
<path class="st7" d="M1027.4,475c-2-22.8-22.1-39.7-44.9-37.8l-2.3-25.9c37.2-3.3,69.9,24.2,73.2,61.3c0,0.1,0,0.2,0,0.2L1027.4,475
	z"/>
<path class="st13" d="M1013.1,480.3l-0.4-0.1l2-4.2l-2.6-3.8l0.4-0.2l39.1-17c-2.1-5.8-4.9-11.4-8.5-16.4
	c-3.5-5.1-7.7-9.7-12.5-13.5l-29.4,31l-0.3,0.3l-2.6-3.8l-4.7,0.5v-0.5l4.9-42.3c-6.1-1.1-12.3-1.4-18.4-0.8c-6.2,0.5-12.2,1.9-18,4
	l12.1,40.9l0.1,0.5l-4.7,0.5l-2,4.2l-0.3-0.2L933,433.7c-4,4.7-7.4,10-10,15.6c-2.6,5.6-4.4,11.5-5.5,17.6l41.4,10l0.5,0.1l-2,4.2
	l2.6,3.8l-0.5,0.2l-39.1,17c2.1,5.8,4.9,11.4,8.5,16.4c3.5,5.1,7.7,9.7,12.5,13.5l29.4-31l0.3-0.3l2.6,3.8l4.7-0.5v0.5l-4.9,42.3
	c6.1,1.1,12.3,1.4,18.4,0.8c6.2-0.6,12.2-1.9,18-4l-12.1-40.9l-0.1-0.5l4.7-0.5l2-4.2l0.3,0.2l34.3,25.4c4-4.7,7.4-10,10-15.6
	c2.6-5.6,4.4-11.5,5.5-17.6L1013.1,480.3z"/>
<polygon class="st8" points="976,499.9 962.5,480.5 972.5,459.1 996.1,457 1009.6,476.5 999.5,497.9 "/>
<ellipse transform="matrix(0.1602 -0.9871 0.9871 0.1602 355.7223 1375.0453)" class="st14" cx="986" cy="478.5" rx="17.5" ry="17.5"/>
<path class="st15" d="M979.5,492.7c-0.5,0-0.8-0.1-1.3-0.3c-7.7-4.3-10.5-14-6.2-21.7c0.5-0.9,1.1-1.8,1.8-2.5
	c2.7-3.3,6.6-5.4,10.8-5.6c5.3-0.5,10.4,1.7,13.8,5.8c0.9,1.1,0.8,2.8-0.4,3.8c-1.1,0.9-2.8,0.8-3.8-0.5c-3.8-4.6-10.5-5.2-15.1-1.4
	c-4.6,3.8-5.2,10.5-1.4,15.1c0.8,1,1.9,1.9,3.1,2.5c1.2,0.7,1.7,2.3,1,3.5C981.3,492.1,980.5,492.7,979.5,492.7z"/>
<path class="st16" d="M924.3,490.7c-3.3-38.2,25-71.9,63.2-75.2c16.7-1.4,33.3,3.2,46.9,13.1c-27.5-26.8-71.5-26-98.2,1.5
	c-26.8,27.5-26,71.5,1.5,98.2c2.3,2.3,4.9,4.4,7.5,6.3C933.1,523,925.6,507.4,924.3,490.7z"/>
<path class="st17" d="M985.8,551.5c-37.8-0.1-69.3-29.1-72.6-66.8c-3.5-40.2,26.3-75.6,66.4-79.1c40.2-3.5,75.6,26.3,79.1,66.4
	c3.5,40.2-26.3,75.6-66.4,79.1l0,0C990.1,551.3,988,551.5,985.8,551.5z M986,412.4c-1.9,0-3.8,0.1-5.7,0.2
	c-36.3,3.2-63.2,35.2-60.1,71.5c1.4,17.5,9.9,33.6,23.3,44.8c13.4,11.3,30.8,16.8,48.3,15.3c17.5-1.4,33.6-9.9,44.8-23.3
	c11.3-13.4,16.8-30.7,15.3-48.2l0,0C1048.8,438.6,1020.3,412.5,986,412.4L986,412.4z"/>
<path class="st15" d="M985.9,550.6h-2.3c-1.4,0.1-2.6-1-2.7-2.5c-0.1-1.4,1-2.6,2.5-2.7c0.1,0,0.2,0,0.3,0h0.1c2.6,0.1,5.4,0,8-0.2
	c36.8-3.2,64.1-35.7,60.9-72.5c-0.2-2-0.4-4-0.8-5.9c-0.3-1.4,0.8-2.8,2.2-3c1.4-0.3,2.7,0.7,3,2.1c0.4,2.2,0.7,4.3,0.8,6.5
	c3.5,39.6-25.9,74.6-65.5,78.1l0,0C990.1,550.5,988,550.6,985.9,550.6z"/>
<path class="st8" d="M401.6,479.9L401.6,479.9l-0.1-1.7h0.1c2.9-0.1,5.1-2.5,5-5.4c-0.2-4.8-0.8-9.6-1.6-14.3
	c-0.5-2.8-3.1-4.7-6-4.2c0,0,0,0-0.1,0h-0.1c-0.1-0.6-0.2-1-0.3-1.6h0.1c2.7-0.8,4.3-3.7,3.6-6.5c-1.3-4.6-3-9.1-4.9-13.6
	c-1.1-2.6-4.2-3.8-6.9-2.7c-0.1,0-0.1,0-0.1,0.1c-0.2-0.6-0.6-0.9-0.8-1.5c0.1,0,0.1,0,0.1-0.1c2.5-1.4,3.4-4.6,2.1-7l0,0
	c-2.3-4.2-5-8.3-7.9-12.1c-1.7-2.3-5-2.8-7.3-1l0,0l-0.1,0.1c-0.3-0.5-0.8-0.8-1-1.2l0.1-0.1c2.1-2,2.3-5.3,0.3-7.4
	c-3.3-3.6-6.8-6.9-10.5-10c-2.2-1.9-5.4-1.6-7.2,0.5l-0.1,0.1c0,0,0,0.1-0.1,0.1c-0.5-0.3-0.9-0.7-1.4-0.9l0.1-0.1
	c1.6-2.3,0.9-5.5-1.4-7.2c-4-2.7-8.2-5.2-12.5-7.3c-2.5-1.3-5.6-0.3-6.9,2.3v0.1v0.1c-0.6-0.2-1-0.5-1.5-0.7c0-0.1,0.1-0.1,0.1-0.1
	c1-2.6-0.3-5.5-2.9-6.6c-0.1,0-0.2-0.1-0.2-0.1c-4.5-1.7-9.1-3.1-13.8-4.2c-2.8-0.7-5.5,1-6.3,3.8v0.1l-1.6-0.3v-0.1
	c0.4-2.9-1.7-5.4-4.6-5.8c-2.4-0.3-5-0.6-7.4-0.8c-2.4-0.2-4.7-0.2-6.9-0.2c-2.9,0-5.2,2.3-5.2,5.2v0.1c-0.6,0-1,0.1-1.7,0.1v-0.1
	c-0.3-2.8-2.8-5-5.7-4.7c-4.8,0.5-9.5,1.3-14.2,2.4c-2.8,0.7-4.5,3.5-3.9,6.3v0.1c-0.6,0.1-1,0.3-1.6,0.5V372
	c-0.9-2.7-3.8-4.1-6.6-3.2h-0.1c-4.5,1.6-8.9,3.5-13.2,5.6c-2.5,1.3-3.6,4.4-2.3,7l0.1,0.1c-0.6,0.3-0.9,0.6-1.5,0.8
	c0-0.1,0-0.1-0.1-0.1c-1.6-2.4-4.8-3.1-7.2-1.6c-4,2.6-8,5.4-11.6,8.5c-2.2,1.8-2.5,5-0.8,7.1l0.1,0.1l0.1,0.1
	c-0.4,0.5-0.8,0.8-1.3,1.1l-0.1-0.1c-2.1-2-5.4-2-7.4,0.1c-3.3,3.5-6.4,7.1-9.3,11c-1.7,2.3-1.2,5.5,1,7.3c0,0,0.1,0,0.1,0.1
	c-0.3,0.5-0.7,0.9-0.9,1.4l-0.1-0.1c-2.4-1.5-5.6-0.7-7,1.8l0,0c-2.4,4.1-4.6,8.5-6.6,12.9c-1.1,2.6,0.1,5.7,2.7,6.9l0,0h0.1
	c-0.2,0.6-0.3,1-0.6,1.6c-0.1,0-0.1,0-0.1-0.1l0,0c-2.7-0.8-5.7,0.7-6.6,3.4c-1.4,4.6-2.5,9.3-3.4,14c-0.5,2.8,1.3,5.5,4.1,6
	c0,0,0,0,0.1,0h0.1c-0.1,0.6-0.2,1.1-0.2,1.7h0.2c-2.9-0.2-5.4,2-5.5,4.9l0,0v0.8c-0.3,4.5-0.3,9.1-0.1,13.7
	c0.1,2.6,2.3,4.8,4.9,4.9h0.8c0.1,0.6,0.1,1,0.2,1.7h-0.1c-2.8,0.5-4.8,3.2-4.3,6c0.8,4.8,1.9,9.5,3.2,14.1c0.6,2.2,2.5,3.7,4.7,3.8
	c0.6,0,1.2,0,1.8-0.2h0.1c0.2,0.5,0.4,1,0.6,1.6H186c-2.6,1-3.8,4-2.8,6.7v0.1c1.9,4.4,4,8.7,6.4,13c0.9,1.5,2.4,2.4,4.2,2.6
	c1,0.1,2.1-0.1,3-0.7l0.1-0.1c0.3,0.5,0.6,0.9,0.8,1.4c0,0-0.1,0-0.1,0.1c-2.3,1.7-2.8,5-1.1,7.3c2.8,3.8,5.9,7.6,9.2,11.1
	c0.8,1,2.2,1.6,3.5,1.6c1.4,0.1,2.8-0.5,3.9-1.4l0.1-0.1l1.1,1.1l-0.1,0.1c-1.9,2.2-1.6,5.4,0.6,7.3c3.7,3.2,7.5,6.1,11.5,8.7
	c0.8,0.6,1.6,0.8,2.5,0.8c1.9,0.1,3.7-0.8,4.7-2.3c0-0.1,0-0.1,0.1-0.1c0.6,0.3,0.9,0.6,1.5,0.8l-0.1,0.1c-1.3,2.5-0.3,5.6,2.3,7
	c4.3,2.3,8.7,4.1,13.2,5.8c0.5,0.2,0.9,0.3,1.5,0.3c2.3,0.2,4.4-1.2,5.2-3.4v-0.1c0.6,0.2,1,0.3,1.6,0.6v0.1c-0.7,2.8,1,5.6,3.8,6.4
	c4.7,1.1,9.4,2.1,14.2,2.6h0.3c2.7,0.2,5.2-1.8,5.5-4.5v-0.1c0.5,0,0.8,0.1,1.2,0.1h0.6v0.1c0,2.7,2.2,5.1,4.9,5.3h0.3
	c4.8,0.1,9.7-0.2,14.5-0.8c2.8-0.3,4.9-2.8,4.6-5.6l0,0v-0.1c0.6-0.1,1-0.2,1.7-0.3v0.1c0.5,2.3,2.4,3.9,4.8,4c0.5,0,1,0,1.5-0.1
	c4.7-1,9.3-2.4,13.8-4c2.7-0.9,4.1-3.9,3.2-6.7c0,0,0,0,0-0.1s0-0.1-0.1-0.1c0.6-0.2,1-0.5,1.5-0.7c0,0.1,0,0.1,0.1,0.1
	c0.8,1.7,2.5,2.8,4.3,3c0.9,0.1,1.9-0.1,2.6-0.6c4.3-2.1,8.5-4.5,12.5-7.1c2.4-1.6,3.1-4.8,1.5-7.1c0,0,0,0,0-0.1l-0.1-0.1
	c0.5-0.4,0.9-0.7,1.4-0.9c0,0.1,0,0.1,0.1,0.1c0.9,1.1,2.3,1.8,3.8,1.9c1.3,0.1,2.6-0.4,3.6-1.1c3.8-3.1,7.2-6.4,10.6-9.9
	c2-2.1,1.9-5.4-0.2-7.4l0,0l-0.1-0.1c0.3-0.5,0.8-0.8,1-1.2l0.1,0.1c0.8,0.6,1.8,0.9,2.8,1c1.7,0.1,3.4-0.7,4.4-2
	c2.9-3.8,5.6-7.8,8.1-12c1.5-2.4,0.7-5.5-1.7-7c-0.1,0-0.1-0.1-0.2-0.1c-0.1,0-0.1,0-0.1-0.1c0.2-0.6,0.6-0.9,0.8-1.5
	c0.1,0,0.1,0,0.1,0.1c0.6,0.3,1.2,0.4,1.8,0.5c2.2,0.1,4.2-1.1,5.1-3.1c2-4.4,3.7-8.9,5.1-13.5c0.8-2.7-0.8-5.6-3.5-6.5l0,0h-0.1
	c0.1-0.6,0.3-1,0.5-1.6h0.1c0.2,0,0.5,0.1,0.7,0.1c2.6,0.2,5-1.7,5.4-4.2c0.8-4.7,1.5-9.5,1.8-14.3v-0.3
	C406.7,482.6,404.5,480,401.6,479.9z"/>
<circle class="st11" cx="290.3" cy="478.4" r="99.1"/>
<path class="st12" d="M203,480.8h-0.5c-4.3-0.3-7.6-3.9-7.3-8.3c0.4-6.5,1.5-12.9,3.2-19.1c1.1-4.2,5.4-6.7,9.7-5.5
	c4.2,1.1,6.7,5.4,5.5,9.7c-1.4,5.2-2.3,10.5-2.6,15.9C210.6,477.6,207.1,480.9,203,480.8z"/>
<path class="st12" d="M264.7,570c-0.8,0-1.5-0.1-2.3-0.3c-32.7-10-57.6-36.6-65.2-69.9c-1.1-4.1,1.4-8.4,5.5-9.5s8.4,1.4,9.5,5.5
	c0,0.2,0.1,0.3,0.1,0.5c6.4,27.8,27.1,50,54.5,58.4c4.1,1.2,6.5,5.6,5.2,9.7l0,0C271.2,567.7,268.2,570,264.7,570z"/>
<ellipse transform="matrix(0.7071 -0.7071 0.7071 0.7071 -253.2808 345.393)" class="st8" cx="290.3" cy="478.4" rx="69.5" ry="69.5"/>
<path class="st7" d="M331.7,475c-2-22.8-22.1-39.7-44.9-37.8l-2.3-25.9c37.2-3.3,69.9,24.2,73.2,61.3c0,0.1,0,0.2,0,0.2L331.7,475z"
	/>
<path class="st13" d="M317.3,480.3l-0.5-0.1l2-4.2l-2.6-3.8l0.5-0.2l39.1-17c-2.1-5.8-4.9-11.4-8.5-16.4c-3.5-5.1-7.7-9.7-12.5-13.5
	l-29.4,31l-0.3,0.3l-2.6-3.8l-4.7,0.5v-0.5l4.9-42.3c-6.1-1.1-12.3-1.4-18.4-0.8c-6.2,0.5-12.2,1.9-18,4l12.1,40.9l0.1,0.5l-4.7,0.5
	l-2,4.2l-0.3-0.2l-34.3-25.5c-4,4.7-7.4,10-10,15.6c-2.6,5.6-4.4,11.5-5.5,17.6l41.4,10l0.5,0.1l-2,4.2l2.6,3.8l-0.5,0.2l-39.1,17
	c2.1,5.8,4.9,11.4,8.5,16.4c3.5,5.1,7.7,9.7,12.5,13.5l29.4-31l0.3-0.3l2.6,3.8l4.7-0.5v0.5l-4.9,42.3c6.1,1.1,12.3,1.4,18.4,0.8
	c6.1-0.5,12.2-1.9,17.9-3.9L302,502.9l0-0.5l4.7-0.5l2-4.2l0.3,0.2l34.3,25.4c4-4.7,7.4-10,10-15.6c2.6-5.6,4.4-11.5,5.5-17.6
	L317.3,480.3z"/>
<polygon class="st8" points="280.2,499.9 266.6,480.5 276.8,459.1 300.3,457 313.9,476.5 303.8,497.9 "/>
<circle class="st14" cx="290.3" cy="478.4" r="17.5"/>
<path class="st15" d="M283.8,492.7c-0.5,0-0.8-0.1-1.3-0.3c-4.6-2.6-7.7-7.3-8.2-12.6c-0.8-8.8,5.7-16.5,14.6-17.3
	c5.3-0.5,10.4,1.7,13.8,5.8c0.9,1.1,0.8,2.8-0.4,3.8s-2.8,0.8-3.8-0.5l0,0c-3.7-4.6-10.4-5.4-15-1.8c-4.6,3.7-5.4,10.4-1.8,15
	c0.9,1.1,2.1,2.2,3.4,2.8c1.3,0.8,1.7,2.3,1,3.7C285.7,492.2,284.8,492.7,283.8,492.7L283.8,492.7z"/>
<path class="st16" d="M228.5,490.7c-3.3-38.2,25-71.9,63.2-75.2c16.7-1.5,33.4,3.2,46.9,13.1c-27.5-26.8-71.5-26-98.2,1.5
	c-26.8,27.5-26,71.5,1.5,98.2c2.3,2.3,4.9,4.4,7.5,6.3C237.3,523,229.9,507.4,228.5,490.7z"/>
<path class="st17" d="M290.2,551.5c-37.8-0.1-69.3-29.1-72.6-66.8c-3.5-40.2,26.3-75.6,66.4-79.1c40.2-3.5,75.6,26.3,79.1,66.4
	c3.5,40.2-26.3,75.6-66.4,79.1l0,0C294.4,551.3,292.3,551.5,290.2,551.5z M290.3,412.4c-1.9,0-3.8,0.1-5.7,0.2
	c-36.3,3.2-63.2,35.2-60.1,71.5c1.4,17.5,9.9,33.6,23.3,44.8c13.4,11.3,30.8,16.8,48.3,15.3c17.5-1.4,33.6-9.9,44.8-23.3
	c11.3-13.4,16.8-30.7,15.3-48.2l0,0C353.1,438.6,324.6,412.4,290.3,412.4z"/>
<path class="st15" d="M290.2,550.6h-2.3c-1.4,0.1-2.6-1-2.7-2.5c-0.1-1.4,1-2.6,2.5-2.7c0.1,0,0.2,0,0.3,0c2.6,0.1,5.3,0,8-0.2
	c36.8-3.2,64.1-35.7,60.9-72.5c-0.2-2-0.5-4-0.8-5.9c-0.3-1.4,0.8-2.8,2.2-3c1.4-0.3,2.7,0.7,3,2.1c0.4,2.2,0.7,4.3,0.8,6.5
	c3.5,39.6-25.9,74.6-65.5,78.1l0,0C294.4,550.5,292.3,550.6,290.2,550.6z"/>
<polygon class="st9" points="155.3,432.1 446,455.3 367.3,314.5 179.7,314.5 "/>
<polygon class="st9" points="818,457 1122.6,427.5 1081.5,331.4 896.7,329.1 "/>
<path class="st18" d="M120.5,335.4L120.5,335.4v-62.1l0,0c-10.8,0-19.6,8.7-19.6,19.6v23C101.1,326.7,109.8,335.3,120.5,335.4z"/>
<path class="st19" d="M106.4,310.4L106.4,310.4c2.3,0,4-1.8,4-4v-23.9c0-2.3-1.8-4-4-4l0,0c-2.3,0-4,1.8-4,4v23.9
	C102.4,308.6,104.2,310.4,106.4,310.4z"/>
<rect x="111.3" y="273.2" class="st20" width="9.2" height="62.1"/>
<path class="st1" d="M120.5,340.6c-2.9,0-5.2-2.3-5.2-5.2v-62.1c0-2.9,2.3-5.2,5.2-5.2c2.9,0,5.2,2.3,5.2,5.2v62
	C125.8,338.3,123.4,340.6,120.5,340.6L120.5,340.6z"/>
<path class="st7" d="M1076.2,292.9c-7.7-19.6-25.3-33.6-46.1-36.8l-219.9-33.8c-6.8-1-13.5-1.6-20.4-1.6h-46.5L674.9,94.5
	c-1.4-2.5-4-4-6.9-4l0,0c-4.3,0-7.8,3.5-7.8,7.8c0,1.2,0.3,2.3,0.8,3.5L718,216.7h-6.7c-9.1,0-17.8,3.8-24.1,10.2l-22.5,23.4
	c-6.3,6.6-15,10.3-24.1,10.3h-520v122.7l33,37.6l6.3,0.9l20.8-58.8c7.1-20.2,26.3-33.7,47.8-33.7h97.9c17.4,0,33.6,8.9,42.9,23.7
	L437,460.5h386.1l80.7-109.3c10.1-13.7,26.2-21.9,43.3-21.9h88.4c17.5,0,33.8,8.5,43.8,22.7l8.7,12.2v-40.9L1076.2,292.9z"/>
<rect x="723.7" y="363.5" class="st6" width="8.3" height="30.5"/>
<path class="st6" d="M689.6,370.2L689.6,370.2c0,1.6,1.3,3,3,3h20.9c2.6,0,4.8,2.1,4.8,4.7c0,0,0,0,0,0.1v1.7c0,2.6-2.1,4.8-4.7,4.8
	l0,0h-21c-1.6,0-3,1.3-3,2.9l0,0l0,0c0,1.5,1.1,2.8,2.6,3l31.5,3.6v-30.5l-31.5,3.6C690.7,367.3,689.6,368.6,689.6,370.2z"/>
<path class="st6" d="M689.6,366.4L689.6,366.4c0,1.6,1.3,3,3,3h20.9c2.6,0,4.8,2.1,4.8,4.7c0,0,0,0,0,0.1v1.7c0,2.6-2.1,4.8-4.7,4.8
	l0,0h-21c-1.6,0-3,1.3-3,2.9l0,0l0,0c0,1.5,1.1,2.8,2.6,3l31.5,3.6v-30.5l-31.5,3.6C690.7,363.6,689.6,364.9,689.6,366.4z"/>
<rect x="723.7" y="359.8" class="st6" width="8.3" height="30.5"/>
<rect x="728.9" y="359.8" class="st6" width="3.1" height="30.5"/>
<rect x="723.7" y="285.6" class="st6" width="8.3" height="30.5"/>
<path class="st6" d="M689.6,292.2L689.6,292.2c0,1.6,1.3,3,2.9,3l0,0h20.9c2.6,0,4.8,2.1,4.8,4.7l0,0v1.7c0,2.6-2.1,4.8-4.7,4.8
	c0,0,0,0-0.1,0h-20.8c-1.6,0-3,1.3-3,2.9l0,0l0,0c0,1.5,1.1,2.8,2.6,3l31.5,3.6v-30.5l-31.5,3.6
	C690.8,289.3,689.7,290.7,689.6,292.2z"/>
<path class="st6" d="M689.6,288.5L689.6,288.5c0,1.6,1.3,3,2.9,3l0,0h20.9c2.6,0,4.8,2.1,4.8,4.7l0,0v1.7c0,2.6-2.1,4.8-4.7,4.8l0,0
	h-20.9c-1.6,0-3,1.3-3,2.9l0,0l0,0c0,1.5,1.1,2.8,2.6,3l31.5,3.6v-30.5l-31.5,3.6C690.8,285.7,689.7,286.9,689.6,288.5z"/>
<rect x="723.7" y="281.9" class="st6" width="8.3" height="30.5"/>
<rect x="728.9" y="281.9" class="st6" width="3.1" height="30.5"/>
<polygon class="st6" points="388.1,317.2 512.7,451.3 443.8,451.3 "/>
<path class="st6" d="M1066.4,276.7c-9.2-11.1-22.2-18.4-36.4-20.6l-219.9-33.8c-6.8-1-13.5-1.6-20.4-1.6h-46.5l13.3,31.1
	L1066.4,276.7z"/>
<polygon class="st6" points="120.5,260.7 149.3,384.9 120.5,384.9 "/>
<circle class="st6" cx="700.5" cy="258.2" r="17.4"/>
<path class="st6" d="M711.7,244.7c2.6,3.1,4,7,4,11.1c0,9.6-7.7,17.4-17.3,17.4h-0.1c-4,0-8-1.4-11.1-4c6.1,7.4,17.1,8.4,24.5,2.3
	c7.4-6.1,8.4-17.1,2.3-24.5C713.2,246.2,712.4,245.4,711.7,244.7L711.7,244.7z"/>
<path class="st6" d="M673.2,255.9l20.1-20.8c7.1-7.4,15.5-13.7,24.7-18.4h-6.8c-9.1,0-17.8,3.8-24.1,10.2l-22.5,23.4
	c-6.3,6.6-15,10.3-24.1,10.3H120.5v7h524.8C655.8,267.7,665.9,263.5,673.2,255.9z"/>
<ellipse transform="matrix(0.1602 -0.9871 0.9871 0.1602 130.2754 756.9644)" class="st15" cx="510" cy="301.9" rx="18.9" ry="18.9"/>
<path class="st6" d="M491.2,301.9c0,3.4,0.9,6.8,2.6,9.7h32.6c1.8-2.9,2.6-6.2,2.6-9.7c0-1-0.1-2.2-0.3-3.2h-37.2
	C491.3,299.8,491.1,300.9,491.2,301.9z"/>
<path class="st15" d="M535,308.3h-55c-3.5,0-6.4-2.8-6.4-6.4l0,0c0-3.5,2.8-6.4,6.4-6.4h55c3.5,0,6.4,2.8,6.4,6.4l0,0
	C541.3,305.5,538.4,308.3,535,308.3z"/>
<path class="st7" d="M473.9,303.7c0.8,2.7,3.3,4.6,6.1,4.6h55c2.8,0,5.3-1.9,6.1-4.6H473.9z"/>
<rect x="903.1" y="115.7" transform="matrix(4.483966e-02 -0.999 0.999 4.483966e-02 578.3862 1178.8627)" class="st6" width="5.2" height="342.6"/>
<path class="st6" d="M797.1,221.3L797.1,221.3c-0.9,0.4-1.4,1.5-1,2.4c0.1,0.3,0.3,0.5,0.4,0.7c9.2,8.4,14.6,20.3,14.6,32.8v25.3
	h5.2v-25.3c0-13.1-5.2-25.6-14.4-34.8C800.6,221.1,798.8,220.7,797.1,221.3z"/>
<path class="st6" d="M727.7,230l-5.5-10.8c-0.8-1.6-2.4-2.6-4.2-2.6l0,0c-1.1,1.1-1.5,2.8-0.8,4.2l5.9,11.5
	c5.8,11.3,8.8,23.8,8.8,36.4v117.9c0,21.7-17.6,39.3-39.2,39.3l0,0H532.2c-16.5,0-31.8-8.7-40.3-23l-24.5-41.2
	c-5.1-8.6-7.8-18.6-7.9-28.6v-72.6h-5.2v72.6c0,11,3,21.8,8.5,31.3l24.4,41.2c9.4,15.9,26.4,25.5,44.8,25.5h160.5
	c24.6,0,44.5-19.9,44.5-44.5l0,0V268.9C737,255.4,733.8,242,727.7,230z"/>
<path class="st1" d="M1117.6,367.3c2.3-3.4,2.5-7.7,0.8-11.5l-6.2-13.5c-4.2-9.3-10-17.7-17.2-25c-15.4-15.6-35.4-24.5-56.2-25.3
	c-1,0-2.2-0.1-3.2-0.1h-88.4c-29,0.1-56.2,13.8-73.4,37.1l-87.9,119.1H473.2L400.8,333c-16.1-25.6-44.2-41.2-74.5-41.1h-97.9
	c-37.3,0-70.5,23.5-83,58.6l-10.7,30.3H97.5c-10.1,0-18.4,8.3-18.4,18.4v25.4c0,17.3,14,31.3,31.3,31.3l0,0h38
	c10.1,0,18.4-8.3,18.4-18.5v-27.9l16.2-45.7c0.5-1.2,0.8-2.3,1.4-3.5c5.1-11.4,14.3-20.3,25.7-24.9l3.5-1.2c2.3-0.8,4.8-1.3,7.2-1.7
	c2.4-0.5,5-0.7,7.5-0.7h97.9c2.1,0,4.1,0.1,6.1,0.5c9,1.2,17.6,4.9,24.6,10.7c3.9,3.3,7.3,7.1,10,11.5l60.5,96.1
	c-2.7,2.2-4.2,5.4-4.2,8.8c0,6.3,5.1,11.4,11.4,11.4h390.6c6.2,0.1,11.4-4.9,11.4-11.2c0-3.1-1.2-6-3.4-8.2l72.9-98.6
	c9.7-13.1,25-20.7,41.2-20.7h88.4c16.5,0,32.1,8,41.8,21.5l8.3,11.5c0.5,4.4,4.1,7.7,8.5,7.7h13.3
	C1111.6,372.7,1115.3,370.7,1117.6,367.3z"/>
<path class="st21" d="M165.1,334.7c-0.8,0-1.5-0.3-2.2-0.8c-1.5-1.2-1.8-3.4-0.7-4.9c1.4-1.8,2.7-3.5,4.2-5.2
	c1.2-1.4,3.5-1.6,4.9-0.3c1.4,1.3,1.6,3.5,0.3,4.9c-1.4,1.5-2.7,3.1-3.9,4.8C167.3,334.1,166.3,334.7,165.1,334.7z"/>
<path class="st21" d="M182.2,318.1c-1.1,0-2.1-0.6-2.7-1.4c-1.1-1.5-0.8-3.7,0.7-4.8l0.1-0.1c15-11.1,33.1-17,51.8-16.9h49.3
	c2,0,3.5,1.6,3.5,3.5c0,2-1.6,3.5-3.5,3.5l0,0H232c-17.2,0-33.9,5.4-47.7,15.6C183.7,317.9,183,318.1,182.2,318.1z"/>
<path class="st21" d="M318.1,301.7h-11.4c-2-0.1-3.4-1.8-3.3-3.7c0.1-1.8,1.5-3.2,3.3-3.3h11.4c2,0,3.5,1.6,3.5,3.5
	C321.6,300.1,320,301.7,318.1,301.7L318.1,301.7z"/>
<path class="st21" d="M857.2,371.3c-0.8,0-1.4-0.2-2.1-0.7c-1.5-1.1-1.9-3.2-0.8-4.8c0,0,0-0.1,0.1-0.1l2.3-3.2
	c1.1-1.6,3.3-1.9,4.9-0.8c1.6,1.1,1.9,3.3,0.8,4.9l-2.3,3.2C859.5,370.8,858.3,371.4,857.2,371.3z"/>
<path class="st21" d="M868.6,355.9c-0.8,0-1.4-0.2-2-0.7c-1.5-1.1-1.9-3.2-0.8-4.8c0,0,0-0.1,0.1-0.1l14-18.9
	c16.8-22.6,43.3-36,71.5-36.1h13.6c2,0.1,3.4,1.8,3.3,3.7c-0.1,1.8-1.5,3.2-3.3,3.3h-13.7c-26,0-50.4,12.4-65.9,33.2l-14,18.9
	C870.6,355.5,869.6,356,868.6,355.9z"/>
<path class="st21" d="M1003.5,302.5h-14.6c-2,0.1-3.6-1.4-3.7-3.3c-0.1-1.9,1.4-3.6,3.3-3.7c0.1,0,0.3,0,0.4,0h14.6
	c2,0.1,3.4,1.8,3.3,3.7C1006.7,301,1005.3,302.4,1003.5,302.5z"/>
<path d="M148.5,444.5h-38c-17.3,0-31.3-14-31.3-31.3l0,0v11.4c0,17.3,14,31.3,31.3,31.3l0,0h38c10.1,0,18.4-8.3,18.4-18.4v-11.4
	C166.9,436.3,158.7,444.5,148.5,444.5C148.6,444.5,148.6,444.5,148.5,444.5z"/>
<path class="st4" d="M1118.4,355.8l-6.2-13.5c-4.2-9.3-10-17.7-17.2-25c-15.4-15.6-35.4-24.5-56.2-25.3c-1,0-2.2-0.1-3.2-0.1h-12.3
	c1,0,2.2,0,3.2,0.1c20.9,0.8,40.9,9.8,56.2,25.3c7.2,7.2,13,15.7,17.2,25l6.2,13.5c2.7,6,0.1,13.1-6,15.9c-1.5,0.7-3.2,1-4.9,1h12.3
	c4,0,7.9-2.1,10-5.5C1119.8,363.9,1120.1,359.6,1118.4,355.8z"/>
<path class="st9" d="M343.4,293.6c22.9,7.2,43.8,33,43.8,33l72.8,113l-13.1,8.4h26.2l-72.4-114.9C388,312.5,367.3,298.3,343.4,293.6
	z"/>
<path class="st9" d="M134.7,380.9h9.3c12.7,0,23,10.3,23,23c0,0.1,0,0.1,0,0.2l-0.1,5.5l12.1-33.9L134.7,380.9z"/>
<polygon class="st9" points="833.1,451.3 806.4,449 834.9,449 "/>
<path class="st1" d="M694.6,214.3L694.6,214.3c3.8,0,7,3.1,7,6.9l0,0v40.8c0,3.8-3.1,6.9-6.9,6.9l0,0l0,0c-3.8,0-6.9-3.1-7-6.9l0,0
	v-40.8C687.6,217.5,690.7,214.4,694.6,214.3z"/>
<path class="st6" d="M674.8,94.5c-2.1-3.8-6.9-5.1-10.6-3c-3.6,2-5,6.5-3.2,10.2l11.6,23.4l20.8,3.9L674.8,94.5z"/>
<path class="st22" d="M694.6,214.3c-3.8,0-7,3.1-7,6.9l0,0v26.3h3.2c3.8,0,7.6-1.3,10.7-3.6v-22.7
	C701.5,217.5,698.4,214.3,694.6,214.3C694.7,214.3,694.6,214.3,694.6,214.3z"/>
<path class="st1" d="M682.4,191.4h-16c-3.7,0-6.7,2.9-6.7,6.6v0.1v38.9c0,3.7,2.9,6.7,6.6,6.7c0,0,0,0,0.1,0h16
	c14.4,0,26-11.6,26.1-26c0,0,0,0,0-0.1l0,0C708.5,203.2,696.8,191.5,682.4,191.4C682.5,191.4,682.5,191.4,682.4,191.4z"/>
<path class="st23" d="M690.9,191.4h-11.1c9.8,0,17.7,7.9,17.7,17.7V226c0,9.8-7.9,17.7-17.7,17.7h11.1c9.8,0,17.7-7.9,17.7-17.7
	v-16.8C708.5,199.4,700.6,191.5,690.9,191.4z"/>
<path class="st24" d="M681,152.4L681,152.4c-1.3,0.7-2.8,0.1-3.5-1.1v-0.1l-18.2-37.7c-0.7-1.3-0.1-2.8,1.2-3.5h0.1l0,0
	c1.3-0.7,2.8-0.1,3.5,1.2v0.1l18.2,37.7C682.7,150.3,682.2,151.8,681,152.4z"/>
<path class="st3" d="M660.6,114.2c-1-0.6-1.5-1.8-0.9-2.9c0.6-1.1,1.8-1.5,2.9-0.9c1,0.6,1.5,1.8,0.9,2.9l0,0
	C662.9,114.3,661.6,114.7,660.6,114.2z"/>
<path class="st9" d="M423.3,461.1c0.8,5.5,5.5,9.6,11.2,9.7H825c5.6,0,10.3-4.1,11.2-9.7H423.3z"/>
<path class="st7" d="M379.1,271.3h-26.5c-2,0-3.5-1.6-3.5-3.5c0-2,1.6-3.5,3.5-3.5h26.5c2,0,3.5,1.6,3.5,3.5
	C382.6,269.7,381,271.3,379.1,271.3z"/>
<path class="st7" d="M321.4,271.3h-69.9c-2,0-3.5-1.6-3.5-3.5c0-2,1.6-3.5,3.5-3.5h69.9c2,0,3.5,1.6,3.5,3.5
	C324.7,269.7,323.2,271.2,321.4,271.3z"/>
<path class="st15" d="M517.8,301.9h-35.5c-1.5-0.1-2.5-1.3-2.5-2.8c0.1-1.3,1.1-2.4,2.5-2.5h35.5c1.5,0.1,2.5,1.3,2.5,2.8
	C520.2,300.8,519.1,301.8,517.8,301.9L517.8,301.9z"/>
<path class="st7" d="M179.1,220.1c-0.2,0-0.5,0-0.7-0.1c-1.4-0.4-2.3-1.8-1.9-3.2l15-61.1c0.4-1.4,1.8-2.3,3.2-1.9
	c1.4,0.4,2.3,1.8,1.9,3.2l-15,61.1C181.5,219.3,180.3,220.1,179.1,220.1z"/>
<path class="st7" d="M174.4,239.4c-0.2,0-0.5,0-0.7-0.1c-1.4-0.4-2.2-1.8-1.9-3.2l1.4-5.5c0.4-1.4,1.8-2.3,3.2-1.9
	c1.4,0.4,2.3,1.8,1.9,3.2l-1.4,5.5C176.7,238.5,175.6,239.4,174.4,239.4z"/>
<path class="st6" d="M434.3,252.9c-1.4,0-2.6-1.1-2.6-2.6c0,0,0,0,0-0.1v-33.6c0.1-1.5,1.3-2.5,2.8-2.5c1.3,0.1,2.4,1.1,2.5,2.5
	v33.6C436.8,251.7,435.7,252.8,434.3,252.9z"/>
<path class="st21" d="M742.7,457.6h-46.8c-2-0.1-3.4-1.8-3.3-3.7c0.1-1.8,1.5-3.2,3.3-3.3h46.8c2-0.1,3.6,1.4,3.7,3.3
	s-1.4,3.6-3.3,3.7C742.9,457.6,742.8,457.6,742.7,457.6z"/>
<path class="st21" d="M768,457.6h-8.7c-2,0.1-3.6-1.4-3.7-3.3c-0.1-1.9,1.4-3.6,3.3-3.7c0.1,0,0.3,0,0.4,0h8.8
	c2-0.1,3.6,1.4,3.7,3.3s-1.4,3.6-3.3,3.7C768.3,457.6,768.2,457.6,768,457.6L768,457.6z"/>
</svg>
