<?xml version="1.0" encoding="utf-8"?>
<!-- Generator: Adobe Illustrator 23.0.1, SVG Export Plug-In . SVG Version: 6.00 Build 0)  -->
<svg version="1.1" id="Layer_1" xmlns="http://www.w3.org/2000/svg" xmlns:xlink="http://www.w3.org/1999/xlink" x="0px" y="0px"
	 viewBox="0 0 1154 597.3" style="enable-background:new 0 0 1154 597.3;" xml:space="preserve">
<style type="text/css">
	.st0{opacity:0.1;fill:#1B1B19;enable-background:new    ;}
	.st1{fill:url(#SVGID_1_);}
	.st2{fill:url(#SVGID_2_);}
	.st3{fill:#A7CB64;}
	.st4{fill:#88A84C;}
	.st5{fill:#292B2A;}
	.st6{opacity:0.16;fill:#A7CB64;enable-background:new    ;}
	.st7{fill:#020200;}
	.st8{opacity:0.28;fill:#F5F5F5;enable-background:new    ;}
	.st9{fill:#EC1C24;}
	.st10{fill:#3B3A3A;stroke:#231F20;stroke-width:0.591;stroke-miterlimit:10;}
	.st11{fill:#3B3A3A;stroke:#231F20;stroke-width:0.7742;stroke-miterlimit:10;}
	.st12{fill:#414042;}
	.st13{fill:#070608;}
	.st14{fill:#231F20;}
	.st15{fill:#3D3B3D;}
	.st16{fill:url(#SVGID_3_);}
	.st17{fill:#3B3A3A;}
	.st18{fill:#FFFFFF;stroke:#3D3B3D;stroke-width:0.4286;stroke-miterlimit:10;}
	.st19{fill:url(#SVGID_4_);}
	.st20{fill:url(#SVGID_5_);}
	.st21{fill:url(#SVGID_6_);}
	.st22{fill:url(#SVGID_7_);}
	.st23{fill:url(#SVGID_8_);}
	.st24{fill:url(#SVGID_9_);}
	.st25{fill:url(#SVGID_10_);}
	.st26{fill:url(#SVGID_11_);}
	.st27{fill:url(#SVGID_12_);}
	.st28{fill:url(#SVGID_13_);}
	.st29{fill:url(#SVGID_14_);}
	.st30{fill:url(#SVGID_15_);}
	.st31{fill:url(#SVGID_16_);}
	.st32{fill:url(#SVGID_17_);}
	.st33{fill:url(#SVGID_18_);}
	.st34{fill:url(#SVGID_19_);}
	.st35{fill:url(#SVGID_20_);}
	.st36{fill:#FFB932;stroke:#A97C50;stroke-width:0.36;stroke-miterlimit:10;}
	.st37{fill:#808285;}
	.st38{fill:#6D6E71;}
	.st39{fill:#231F20;stroke:#58595B;stroke-width:0.5758;stroke-miterlimit:10;}
	.st40{fill:url(#SVGID_21_);}
	.st41{fill:url(#SVGID_22_);}
	.st42{fill:url(#SVGID_23_);}
	.st43{fill:url(#SVGID_24_);}
	.st44{fill:url(#SVGID_25_);}
	.st45{fill:url(#SVGID_26_);}
	.st46{fill:url(#SVGID_27_);}
	.st47{fill:url(#SVGID_28_);}
	.st48{fill:url(#SVGID_29_);}
	.st49{fill:none;stroke:#231F20;stroke-width:0.7742;stroke-miterlimit:10;}
	.st50{fill:#403430;}
	.st51{fill:#ED1C24;}
	.st52{fill:#ABA9A7;}
</style>
<path class="st0" d="M41.8,557.9c0,14,243.1,25.4,543,25.4s543-11.4,543-25.4s-243.1-25.4-543-25.4S41.8,543.8,41.8,557.9z"/>
<title>concrete mixer</title>
<g>
	
		<linearGradient id="SVGID_1_" gradientUnits="userSpaceOnUse" x1="1000.297" y1="1066.729" x2="1007.9442" y2="1066.729" gradientTransform="matrix(1 0 0 1 0 -600)">
		<stop  offset="0" style="stop-color:#231F20"/>
		<stop  offset="0.41" style="stop-color:#252122"/>
		<stop  offset="0.56" style="stop-color:#2B2729"/>
		<stop  offset="0.67" style="stop-color:#353334"/>
		<stop  offset="0.74" style="stop-color:#414042"/>
		<stop  offset="0.77" style="stop-color:#4D4D4F"/>
		<stop  offset="0.8" style="stop-color:#555658"/>
		<stop  offset="0.85" style="stop-color:#58595B"/>
		<stop  offset="0.92" style="stop-color:#414042"/>
	</linearGradient>
	<rect x="1000.3" y="429" class="st1" width="7.7" height="75.6"/>
	
		<linearGradient id="SVGID_2_" gradientUnits="userSpaceOnUse" x1="1007.9442" y1="1051.3944" x2="1021.6073" y2="1051.3944" gradientTransform="matrix(1 0 0 1 0 -600)">
		<stop  offset="0" style="stop-color:#231F20"/>
		<stop  offset="0.41" style="stop-color:#252122"/>
		<stop  offset="0.56" style="stop-color:#2B2729"/>
		<stop  offset="0.67" style="stop-color:#353334"/>
		<stop  offset="0.74" style="stop-color:#414042"/>
		<stop  offset="0.77" style="stop-color:#4D4D4F"/>
		<stop  offset="0.8" style="stop-color:#555658"/>
		<stop  offset="0.85" style="stop-color:#58595B"/>
		<stop  offset="0.92" style="stop-color:#414042"/>
	</linearGradient>
	<rect x="1007.9" y="431.9" class="st2" width="13.7" height="38.9"/>
	<polygon class="st3" points="392.1,395.6 513.5,440.5 664.3,153.9 561.7,73.4 	"/>
	<polygon class="st4" points="290.1,315.3 392.7,395.9 562.3,73.6 441,28.8 	"/>
	<path class="st3" d="M304.4,22.2c0.1,0,0.1,0.1,0.2,0.1l136.8,6.6l-60.7,115.4l-29.3,55.8l-60.7,115.4l-80.1-114.9h-0.1
		c-13.2-7.4-2.8-53.3,23.1-102.6S291.1,14.7,304.4,22.2z"/>
	<path class="st4" d="M744.6,269c13,7.7,2.5,53.4-23.3,102.5c-25.7,48.9-57.2,82.7-70.5,76l-137-6.6l60.7-115.4l29.4-55.8
		l60.7-115.4L744.6,269z"/>
	<path class="st4" d="M191.8,197L191.8,197c8.2,4.4,18.4,1,22.7-7.6l77.1-154.7c4.3-8.5,1-19-7.3-23.4l0,0c-8.2-4.4-18.4-1-22.7,7.6
		l-77.1,154.7C180.3,182.1,183.6,192.5,191.8,197z"/>
	<path class="st5" d="M435.5,409.9V390c0-6.5,7.6-11.9,16.9-11.9s16.9,5.3,16.9,11.9v19.9H435.5z"/>
	<path class="st5" d="M626.1,409.9V390c0-6.5,7.6-11.9,16.9-11.9c9.3,0,16.9,5.3,16.9,11.9v19.9H626.1z"/>
	<polygon class="st4" points="709.8,244.5 726.5,200.7 749.1,209.8 732.4,253.7 	"/>
	<polygon class="st3" points="685.1,315.4 730.4,333.9 758.2,255 712.8,236.7 	"/>
	<path class="st3" d="M705.4,143.1c-10.7,28.1,2.7,59.7,29.9,70.7c27.2,11,57.9-2.8,68.5-30.9c10.7-28.1-2.7-59.7-29.9-70.7l0,0
		c-27.1-11-57.7,2.7-68.5,30.7C705.4,142.9,705.4,143,705.4,143.1z"/>
	<path class="st6" d="M784.6,171.3c5.3-14,5.3-29.6,0-43.7c18.5,16.5,20.6,45.3,4.6,64.4c-10.5,12.6-26.9,18.3-42.7,14.9
		C763.9,201.7,777.9,188.6,784.6,171.3z"/>
	<polygon class="st3" points="705,205.7 710,192.5 767.4,215.8 762.4,229 	"/>
	<polygon class="st4" points="686.3,406.6 772.1,406.6 736.2,306.7 686.3,306.7 	"/>
	<path class="st7" d="M798.9,192.4c3.2,1.6,6.7,0.7,8-2l4.1-8.5c1.3-2.6-0.3-6.1-3.4-7.8l0,0c-3.2-1.6-6.7-0.7-8,2l-4.1,8.5
		C794.3,187.3,795.8,190.8,798.9,192.4z"/>
	<path class="st5" d="M732,407v-21c0.3-7,6-12.4,12.7-12.2c6.4,0.3,11.5,5.5,11.8,12.2v21H732z"/>
	<path class="st4" d="M690.7,319.5c-2.6,6,2,14,10.2,18l0,0c8.3,3.9,17.2,2.2,19.8-3.8l17.4-39.6c2.6-6-2-14-10.2-18l0,0
		c-8.3-3.9-17.2-2.2-19.8,3.8L690.7,319.5z"/>
	<path class="st7" d="M60.4,447.8c-0.1,0.7-0.1,1.4,0,2.2l-0.5,1.1l0.9,0.2c2.5,6.7,15,13.7,30.8,16.4s29.8,0.4,34.2-5.2l0.9,0.2
		l114.5-149.3l-99.1-16.9l-87.9,91.8L60.4,447.8z M63.8,443l1.9-2.7l-1.3,2.3C64.2,442.6,64,442.8,63.8,443z"/>
	<polygon class="st8" points="163.2,301.3 60.4,447.8 54.2,388.1 140.9,297.5 	"/>
	<polygon class="st4" points="187.9,414.8 426.1,414.8 190.3,225.3 187.9,205.6 	"/>
	<rect x="153.4" y="141.1" class="st5" width="51.2" height="100.7"/>
	<polygon class="st5" points="154.7,152.9 215.9,152.9 215.9,80 106.7,80 	"/>
	<path class="st5" d="M336.7,412.2V394c0-6.1,4.8-10.9,10.6-10.9c5.9,0,10.6,4.9,10.6,10.9v18.2H336.7z"/>
	<path class="st5" d="M280.4,412.2V394c0-6.1,4.8-10.9,10.6-10.9c5.9,0,10.6,4.9,10.6,10.9v18.2H280.4z"/>
	<path class="st5" d="M224.1,412.2V394c0-6.1,4.8-10.9,10.6-10.9c5.9,0,10.6,4.9,10.6,10.9v18.2H224.1z"/>
	<path class="st3" d="M232.8,293.7c-2.7,6.4,2.1,14.8,10.8,18.9l0,0c8.7,4.1,18.1,2.2,20.9-4.1l18.3-41.8
		c2.7-6.4-2.1-14.8-10.8-18.8l0,0c-8.7-4.1-18.1-2.2-20.8,4.1L232.8,293.7z"/>
	<rect x="130.5" y="205.6" class="st4" width="58.8" height="156.9"/>
	<path class="st3" d="M100.2,203v245.3c0,3.4,1.7,6.2,4,6.6c0.3,0.1,0.5,0.1,0.7,0.1h72.2c0.3,0,0.5,0,0.7-0.1c2.3-0.5,4-3.3,4-6.6
		V272.9c0.4,0.1,0.7,0.1,1,0.1c5.8,0,10.4-6.7,10.4-15V210c0-8.3-4.6-15-10.4-15c-1.3,0-2.5,0.3-3.6,0.8c-0.6-0.6-1.4-0.8-2.2-0.8
		c-2.5,0-4.7,3.6-4.7,7.9v70.1h-62.7V273c0.4,0.1,0.7,0.1,1.1,0.1c5.8,0,10.4-6.7,10.4-15v-48.1c0-8.3-4.6-15-10.4-15
		c-1.3,0-2.5,0.3-3.6,0.8c-0.6-0.6-1.4-0.8-2.2-0.8C102.4,195,100.2,198.6,100.2,203z M172.5,385.3h-62.8v-42.5h62.8V385.3z
		 M172.5,441.5h-62.8v-42.5h62.8V441.5z M172.5,286.5v42.6h-62.8v-42.5L172.5,286.5z"/>
	<path class="st9" d="M109.8,405.4c-5.3,0.1-9.8,4.5-10.1,10.1l-0.6,11.4c-0.4,5.5,3.5,10.5,8.9,11.1L109.8,405.4z"/>
	<path class="st9" d="M111.4,378.1c-6.3-0.2-11.6,2.3-11.8,5.8l-0.4,6.8c-0.2,3.5,4.7,6.5,11.1,7.2L111.4,378.1z"/>
	<polygon class="st7" points="107.4,438 111.5,363.3 115.6,363.5 111.5,438.2 	"/>
	<polygon class="st10" points="112.7,438.1 112.7,360.4 117.6,360.4 117.6,350.3 131.1,350.3 131.1,451.3 117.6,451.3 117.6,438.1 	
		"/>
	<path class="st11" d="M132.3,452.4v-22.3h31.3V449c0,2.3-0.8,4.5-2.4,6.2l-13.4,15h-39.8v-17.6L132.3,452.4L132.3,452.4z"/>
	<rect x="126.1" y="393.6" class="st11" width="10" height="47.6"/>
	<rect x="134.6" y="389.1" class="st11" width="10" height="52"/>
	<rect x="153.8" y="404.9" class="st12" width="917.8" height="74.5"/>
	<path class="st13" d="M468.1,488.4l0.7-1.1H481l0.6,1.1h59.7v-3.3h13.6v3.3h46.6l0.5-1.1h9.5l0.5,1.1h205.4
		c0.9-5.4,0.9-10.9-0.1-16.4l-2.1-10.5H382.5l0.9,26.8H468.1z"/>
	<rect x="281.6" y="466" class="st14" width="43" height="8.6"/>
	<rect x="312.3" y="462.1" class="st14" width="8.2" height="7.7"/>
	<rect x="300" y="464.5" class="st14" width="8.2" height="7.7"/>
	<rect x="287.8" y="462.1" class="st14" width="8.2" height="7.7"/>
	<rect x="292.4" y="478.6" class="st14" width="23.9" height="2.8"/>
	<rect x="309.4" y="477.4" class="st14" width="4.6" height="2.5"/>
	<rect x="302.6" y="478.2" class="st14" width="4.6" height="2.5"/>
	<rect x="295.8" y="477.3" class="st14" width="4.6" height="2.5"/>
	<rect x="292.4" y="484" class="st14" width="23.9" height="6.5"/>
	<rect x="309.4" y="481.2" class="st14" width="4.6" height="5.7"/>
	<rect x="302.6" y="483" class="st14" width="4.6" height="5.7"/>
	<rect x="295.8" y="481.1" class="st14" width="4.6" height="5.7"/>
	<path class="st15" d="M445.6,499.3c0,38-29.8,68.6-66.5,68.6s-66.5-30.8-66.5-68.6c0-38,29.8-68.6,66.5-68.6l0,0
		C415.8,430.6,445.6,461.4,445.6,499.3z"/>
	<path d="M445.6,499.3c0,38-29.8,68.6-66.5,68.6s-66.5-30.8-66.5-68.6c0-38,29.8-68.6,66.5-68.6l0,0
		C415.8,430.6,445.6,461.4,445.6,499.3z"/>
	
		<radialGradient id="SVGID_3_" cx="3559.6799" cy="1414.5353" r="62.93" gradientTransform="matrix(-0.906 0 0 0.935 3604.27 -823.3742)" gradientUnits="userSpaceOnUse">
		<stop  offset="0" style="stop-color:#231F20"/>
		<stop  offset="0.41" style="stop-color:#252122"/>
		<stop  offset="0.56" style="stop-color:#2B2729"/>
		<stop  offset="0.67" style="stop-color:#353334"/>
		<stop  offset="0.74" style="stop-color:#414042"/>
		<stop  offset="0.77" style="stop-color:#4D4D4F"/>
		<stop  offset="0.8" style="stop-color:#555658"/>
		<stop  offset="0.85" style="stop-color:#58595B"/>
		<stop  offset="0.92" style="stop-color:#414042"/>
	</radialGradient>
	<path class="st16" d="M436.1,499.3c0,32.5-25.6,58.9-57.1,58.9s-57.1-26.4-57.1-58.9s25.6-58.9,57.1-58.9l0,0
		C410.6,440.4,436.1,466.7,436.1,499.3L436.1,499.3z"/>
	<path class="st14" d="M428,499.3c0,28-21.8,50.6-48.9,50.6s-49-22.5-49-50.5s21.8-50.6,48.9-50.6l0,0
		C406.1,448.8,428,471.4,428,499.3z"/>
	<path class="st17" d="M428,499.3c0,28-21.8,50.6-48.9,50.6s-49-22.5-49-50.5s21.8-50.6,48.9-50.6l0,0
		C406.1,448.8,428,471.4,428,499.3z"/>
	<path class="st18" d="M413.7,499.3c0,19.7-15.5,35.6-34.5,35.6s-34.5-16-34.5-35.6c0-19.7,15.5-35.6,34.5-35.6
		C398.2,463.6,413.7,479.6,413.7,499.3z"/>
	
		<linearGradient id="SVGID_4_" gradientUnits="userSpaceOnUse" x1="3515.0728" y1="1401.0658" x2="3563.0933" y2="1401.0658" gradientTransform="matrix(-1 0 0 1 3918.1799 -901.33)">
		<stop  offset="3.000000e-02" style="stop-color:#6D6E71"/>
		<stop  offset="0.25" style="stop-color:#BCBEC0"/>
		<stop  offset="0.52" style="stop-color:#D1D3D4"/>
		<stop  offset="0.69" style="stop-color:#BCBEC0"/>
		<stop  offset="0.98" style="stop-color:#58595B"/>
	</linearGradient>
	<path class="st19" d="M403,499.7c0,13.7-10.8,24.8-24,24.8s-24-11-24-24.8c0-13.7,10.8-24.8,24-24.8l0,0
		C392.3,475,403,486,403,499.7C403.1,499.7,403.1,499.7,403,499.7z"/>
	
		<linearGradient id="SVGID_5_" gradientUnits="userSpaceOnUse" x1="3509.7043" y1="1384.4221" x2="3529.6375" y2="1384.4221" gradientTransform="matrix(-1 0 0 1 3918.1799 -901.33)">
		<stop  offset="3.000000e-02" style="stop-color:#6D6E71"/>
		<stop  offset="0.25" style="stop-color:#BCBEC0"/>
		<stop  offset="0.52" style="stop-color:#D1D3D4"/>
		<stop  offset="0.69" style="stop-color:#BCBEC0"/>
		<stop  offset="0.98" style="stop-color:#58595B"/>
	</linearGradient>
	<path class="st20" d="M388.5,487.4l10.9-14.1c3.8,3.2,6.9,7.2,9.1,11.7l-15.7,7.9C391.8,490.8,390.4,488.9,388.5,487.4z"/>
	
		<linearGradient id="SVGID_6_" gradientUnits="userSpaceOnUse" x1="3518.7014" y1="1423.6936" x2="3535.6897" y2="1423.6936" gradientTransform="matrix(-1 0 0 1 3918.1799 -901.33)">
		<stop  offset="3.000000e-02" style="stop-color:#6D6E71"/>
		<stop  offset="0.25" style="stop-color:#BCBEC0"/>
		<stop  offset="0.52" style="stop-color:#D1D3D4"/>
		<stop  offset="0.69" style="stop-color:#BCBEC0"/>
		<stop  offset="0.98" style="stop-color:#58595B"/>
	</linearGradient>
	<path class="st21" d="M399.5,526.1c-3.9,3.2-8.3,5.3-13.1,6.5l-3.9-17.6c2.2-0.5,4.3-1.5,6.1-3L399.5,526.1z"/>
	
		<linearGradient id="SVGID_7_" gradientUnits="userSpaceOnUse" x1="3548.6643" y1="1384.4689" x2="3568.5974" y2="1384.4689" gradientTransform="matrix(-1 0 0 1 3918.1799 -901.33)">
		<stop  offset="3.000000e-02" style="stop-color:#6D6E71"/>
		<stop  offset="0.25" style="stop-color:#BCBEC0"/>
		<stop  offset="0.52" style="stop-color:#D1D3D4"/>
		<stop  offset="0.69" style="stop-color:#BCBEC0"/>
		<stop  offset="0.98" style="stop-color:#58595B"/>
	</linearGradient>
	<path class="st22" d="M365.3,492.9l-15.8-7.8c2.1-4.6,5.2-8.6,9.1-11.8l10.9,14C367.7,488.9,366.3,490.8,365.3,492.9z"/>
	
		<linearGradient id="SVGID_8_" gradientUnits="userSpaceOnUse" x1="3506.3521" y1="1408.3591" x2="3525.2883" y2="1408.3591" gradientTransform="matrix(-1 0 0 1 3918.1799 -901.33)">
		<stop  offset="3.000000e-02" style="stop-color:#6D6E71"/>
		<stop  offset="0.25" style="stop-color:#BCBEC0"/>
		<stop  offset="0.52" style="stop-color:#D1D3D4"/>
		<stop  offset="0.69" style="stop-color:#BCBEC0"/>
		<stop  offset="0.98" style="stop-color:#58595B"/>
	</linearGradient>
	<path class="st23" d="M394.3,499.7L394.3,499.7l17.5-0.1v0.1c0,5-1.1,10.1-3.3,14.7l-15.7-7.9C393.9,504.5,394.3,502.2,394.3,499.7
		z"/>
	
		<linearGradient id="SVGID_9_" gradientUnits="userSpaceOnUse" x1="3552.8684" y1="1408.4059" x2="3571.8047" y2="1408.4059" gradientTransform="matrix(-1 0 0 1 3918.1799 -901.33)">
		<stop  offset="3.000000e-02" style="stop-color:#6D6E71"/>
		<stop  offset="0.25" style="stop-color:#BCBEC0"/>
		<stop  offset="0.52" style="stop-color:#D1D3D4"/>
		<stop  offset="0.69" style="stop-color:#BCBEC0"/>
		<stop  offset="0.98" style="stop-color:#58595B"/>
	</linearGradient>
	<path class="st24" d="M363.8,499.7c0,2.3,0.5,4.7,1.5,6.8l-15.7,7.9c-2.2-4.6-3.3-9.5-3.3-14.6L363.8,499.7z"/>
	
		<linearGradient id="SVGID_10_" gradientUnits="userSpaceOnUse" x1="3531.9297" y1="1376.4502" x2="3546.4536" y2="1376.4502" gradientTransform="matrix(-1 0 0 1 3918.1799 -901.33)">
		<stop  offset="3.000000e-02" style="stop-color:#6D6E71"/>
		<stop  offset="0.25" style="stop-color:#BCBEC0"/>
		<stop  offset="0.52" style="stop-color:#D1D3D4"/>
		<stop  offset="0.69" style="stop-color:#BCBEC0"/>
		<stop  offset="0.98" style="stop-color:#58595B"/>
	</linearGradient>
	<path class="st25" d="M371.7,466.8c4.8-1.1,9.7-1.2,14.5-0.1l-3.8,17.6c-2.3-0.5-4.6-0.5-6.8,0L371.7,466.8z"/>
	
		<linearGradient id="SVGID_11_" gradientUnits="userSpaceOnUse" x1="3542.4854" y1="1423.7872" x2="3559.4736" y2="1423.7872" gradientTransform="matrix(-1 0 0 1 3918.1799 -901.33)">
		<stop  offset="3.000000e-02" style="stop-color:#6D6E71"/>
		<stop  offset="0.25" style="stop-color:#BCBEC0"/>
		<stop  offset="0.52" style="stop-color:#D1D3D4"/>
		<stop  offset="0.69" style="stop-color:#BCBEC0"/>
		<stop  offset="0.98" style="stop-color:#58595B"/>
	</linearGradient>
	<path class="st26" d="M375.7,515.2l-3.9,17.6c-4.8-1.1-9.3-3.4-13.1-6.5l10.9-14C371.3,513.6,373.4,514.6,375.7,515.2z"/>
	<path class="st15" d="M296.3,499.3c0,38-29.8,68.6-66.5,68.6s-66.5-30.8-66.5-68.6c0-38,29.8-68.6,66.5-68.6l0,0
		C266.5,430.6,296.3,461.4,296.3,499.3z"/>
	<path d="M296.3,499.3c0,38-29.8,68.6-66.5,68.6s-66.5-30.8-66.5-68.6c0-38,29.8-68.6,66.5-68.6l0,0
		C266.5,430.6,296.3,461.4,296.3,499.3z"/>
	
		<radialGradient id="SVGID_12_" cx="3724.3799" cy="1414.5353" r="62.9101" gradientTransform="matrix(-0.906 0 0 0.935 3604.27 -823.3742)" gradientUnits="userSpaceOnUse">
		<stop  offset="0" style="stop-color:#231F20"/>
		<stop  offset="0.41" style="stop-color:#252122"/>
		<stop  offset="0.56" style="stop-color:#2B2729"/>
		<stop  offset="0.67" style="stop-color:#353334"/>
		<stop  offset="0.74" style="stop-color:#414042"/>
		<stop  offset="0.77" style="stop-color:#4D4D4F"/>
		<stop  offset="0.8" style="stop-color:#555658"/>
		<stop  offset="0.85" style="stop-color:#58595B"/>
		<stop  offset="0.92" style="stop-color:#414042"/>
	</radialGradient>
	<path class="st27" d="M286.9,499.3c0,32.5-25.6,58.9-57.1,58.9s-57.1-26.4-57.1-58.9s25.6-58.9,57.1-58.9l0,0
		C261.4,440.4,286.9,466.7,286.9,499.3L286.9,499.3z"/>
	<path class="st14" d="M278.7,499.3c0,28-21.8,50.6-48.9,50.6s-49-22.5-49-50.5s21.8-50.6,48.9-50.6h0.1
		C256.8,448.8,278.7,471.4,278.7,499.3z"/>
	<path class="st17" d="M278.7,499.3c0,28-21.8,50.6-48.9,50.6s-49-22.5-49-50.5s21.8-50.6,48.9-50.6h0.1
		C256.8,448.8,278.7,471.4,278.7,499.3z"/>
	<path class="st18" d="M264.4,499.3c0,19.7-15.5,35.6-34.5,35.6s-34.5-16-34.5-35.6c0-19.7,15.5-35.6,34.5-35.6l0,0
		C248.9,463.6,264.4,479.6,264.4,499.3z"/>
	
		<linearGradient id="SVGID_13_" gradientUnits="userSpaceOnUse" x1="3664.3667" y1="1401.0658" x2="3712.3872" y2="1401.0658" gradientTransform="matrix(-1 0 0 1 3918.1799 -901.33)">
		<stop  offset="3.000000e-02" style="stop-color:#6D6E71"/>
		<stop  offset="0.25" style="stop-color:#BCBEC0"/>
		<stop  offset="0.52" style="stop-color:#D1D3D4"/>
		<stop  offset="0.69" style="stop-color:#BCBEC0"/>
		<stop  offset="0.98" style="stop-color:#58595B"/>
	</linearGradient>
	<path class="st28" d="M253.8,499.7c0,13.7-10.8,24.8-24,24.8c-13.2,0-24-11.1-24-24.8s10.8-24.8,24-24.8l0,0
		C243,475,253.8,486,253.8,499.7L253.8,499.7z"/>
	
		<linearGradient id="SVGID_14_" gradientUnits="userSpaceOnUse" x1="3658.9304" y1="1384.3754" x2="3678.8635" y2="1384.3754" gradientTransform="matrix(-1 0 0 1 3918.1799 -901.33)">
		<stop  offset="3.000000e-02" style="stop-color:#6D6E71"/>
		<stop  offset="0.25" style="stop-color:#BCBEC0"/>
		<stop  offset="0.52" style="stop-color:#D1D3D4"/>
		<stop  offset="0.69" style="stop-color:#BCBEC0"/>
		<stop  offset="0.98" style="stop-color:#58595B"/>
	</linearGradient>
	<path class="st29" d="M239.3,487.4l10.8-14.1c3.8,3.2,7,7.1,9.2,11.7l-15.7,7.9C242.6,490.8,241.1,488.9,239.3,487.4z"/>
	
		<linearGradient id="SVGID_15_" gradientUnits="userSpaceOnUse" x1="3667.9639" y1="1423.6469" x2="3684.9524" y2="1423.6469" gradientTransform="matrix(-1 0 0 1 3918.1799 -901.33)">
		<stop  offset="3.000000e-02" style="stop-color:#6D6E71"/>
		<stop  offset="0.25" style="stop-color:#BCBEC0"/>
		<stop  offset="0.52" style="stop-color:#D1D3D4"/>
		<stop  offset="0.69" style="stop-color:#BCBEC0"/>
		<stop  offset="0.98" style="stop-color:#58595B"/>
	</linearGradient>
	<path class="st30" d="M250.2,526.1c-3.9,3.2-8.3,5.3-13,6.5l-3.9-17.6c2.3-0.5,4.3-1.6,6.1-3.1L250.2,526.1z"/>
	
		<linearGradient id="SVGID_16_" gradientUnits="userSpaceOnUse" x1="3697.9268" y1="1384.4689" x2="3717.887" y2="1384.4689" gradientTransform="matrix(-1 0 0 1 3918.1799 -901.33)">
		<stop  offset="3.000000e-02" style="stop-color:#6D6E71"/>
		<stop  offset="0.25" style="stop-color:#BCBEC0"/>
		<stop  offset="0.52" style="stop-color:#D1D3D4"/>
		<stop  offset="0.69" style="stop-color:#BCBEC0"/>
		<stop  offset="0.98" style="stop-color:#58595B"/>
	</linearGradient>
	<path class="st31" d="M216,492.9l-15.8-7.8c2.2-4.6,5.3-8.6,9.1-11.8l10.9,14C218.5,488.9,217,490.8,216,492.9z"/>
	
		<linearGradient id="SVGID_17_" gradientUnits="userSpaceOnUse" x1="3655.6687" y1="1408.3591" x2="3674.605" y2="1408.3591" gradientTransform="matrix(-1 0 0 1 3918.1799 -901.33)">
		<stop  offset="3.000000e-02" style="stop-color:#6D6E71"/>
		<stop  offset="0.25" style="stop-color:#BCBEC0"/>
		<stop  offset="0.52" style="stop-color:#D1D3D4"/>
		<stop  offset="0.69" style="stop-color:#BCBEC0"/>
		<stop  offset="0.98" style="stop-color:#58595B"/>
	</linearGradient>
	<path class="st32" d="M245,499.7L245,499.7l17.5-0.1v0.1c0,5-1.1,10.1-3.3,14.7l-15.7-7.9C244.6,504.5,245,502.2,245,499.7z"/>
	
		<linearGradient id="SVGID_18_" gradientUnits="userSpaceOnUse" x1="3702.1489" y1="1408.4059" x2="3721.0854" y2="1408.4059" gradientTransform="matrix(-1 0 0 1 3918.1799 -901.33)">
		<stop  offset="3.000000e-02" style="stop-color:#6D6E71"/>
		<stop  offset="0.25" style="stop-color:#BCBEC0"/>
		<stop  offset="0.52" style="stop-color:#D1D3D4"/>
		<stop  offset="0.69" style="stop-color:#BCBEC0"/>
		<stop  offset="0.98" style="stop-color:#58595B"/>
	</linearGradient>
	<path class="st33" d="M214.5,499.7c0,2.3,0.5,4.7,1.5,6.8l-15.7,7.9c-2.2-4.6-3.3-9.5-3.3-14.6L214.5,499.7z"/>
	
		<linearGradient id="SVGID_19_" gradientUnits="userSpaceOnUse" x1="3681.2012" y1="1376.4502" x2="3695.7251" y2="1376.4502" gradientTransform="matrix(-1 0 0 1 3918.1799 -901.33)">
		<stop  offset="3.000000e-02" style="stop-color:#6D6E71"/>
		<stop  offset="0.25" style="stop-color:#BCBEC0"/>
		<stop  offset="0.52" style="stop-color:#D1D3D4"/>
		<stop  offset="0.69" style="stop-color:#BCBEC0"/>
		<stop  offset="0.98" style="stop-color:#58595B"/>
	</linearGradient>
	<path class="st34" d="M222.5,466.8c4.8-1.1,9.7-1.2,14.5-0.1l-3.8,17.6c-2.3-0.5-4.6-0.5-6.8,0L222.5,466.8z"/>
	
		<linearGradient id="SVGID_20_" gradientUnits="userSpaceOnUse" x1="3691.7568" y1="1423.7872" x2="3708.7451" y2="1423.7872" gradientTransform="matrix(-1 0 0 1 3918.1799 -901.33)">
		<stop  offset="3.000000e-02" style="stop-color:#6D6E71"/>
		<stop  offset="0.25" style="stop-color:#BCBEC0"/>
		<stop  offset="0.52" style="stop-color:#D1D3D4"/>
		<stop  offset="0.69" style="stop-color:#BCBEC0"/>
		<stop  offset="0.98" style="stop-color:#58595B"/>
	</linearGradient>
	<path class="st35" d="M226.5,515.2l-3.9,17.6c-4.8-1.1-9.2-3.4-13.1-6.5l10.8-14C222.1,513.6,224.2,514.6,226.5,515.2z"/>
	<rect x="626.1" y="484.3" class="st14" width="193.2" height="8.5"/>
	<rect x="626" y="491.7" class="st12" width="211.4" height="8.5"/>
	<path d="M667.3,425.9c1.4,0,2.4,1.1,2.4,2.5s-1.1,2.5-2.4,2.5s-2.4-1.1-2.4-2.5l0,0C664.9,427,666,425.9,667.3,425.9z"/>
	<path d="M667.3,425.9c1.4,0,2.4,1.1,2.4,2.5s-1.1,2.5-2.4,2.5s-2.4-1.1-2.4-2.5l0,0C664.9,427,666,425.9,667.3,425.9z"/>
	<path d="M667.3,426.6c1,0,1.7,0.8,1.7,1.9c0,1-0.8,1.8-1.8,1.8s-1.7-0.8-1.7-1.9C665.5,427.4,666.3,426.6,667.3,426.6z"/>
	<path d="M667.3,430.3c-1,0-1.7-0.8-1.7-1.9c0-1,0.8-1.8,1.8-1.8s1.7,0.8,1.7,1.9C669.1,429.4,668.2,430.3,667.3,430.3z
		 M667.3,430.2c0.9,0,1.7-0.7,1.7-1.8c0-0.9-0.7-1.8-1.7-1.8c-0.9,0-1.7,0.7-1.7,1.8C665.6,429.3,666.3,430.2,667.3,430.2
		C667.2,430.2,667.3,430.2,667.3,430.2L667.3,430.2z"/>
	<path d="M667.3,427c0.7,0,1.4,0.7,1.4,1.4s-0.6,1.4-1.4,1.4c-0.7,0-1.4-0.7-1.4-1.4l0,0C666,427.6,666.6,427,667.3,427z"/>
	<path d="M667.3,429.9c-0.8,0-1.4-0.7-1.4-1.5s0.6-1.5,1.4-1.5s1.4,0.7,1.4,1.5C668.8,429.1,668.1,429.8,667.3,429.9L667.3,429.9z
		 M667.3,429.7c0.7,0,1.3-0.6,1.3-1.3s-0.5-1.3-1.3-1.3c-0.7,0-1.3,0.6-1.3,1.3l0,0C666.1,429,666.6,429.6,667.3,429.7L667.3,429.7z
		"/>
	<path d="M692.1,426.1c1.4,0,2.4,1.1,2.4,2.5c0,1.4-1.1,2.5-2.4,2.5s-2.4-1.1-2.4-2.5l0,0C689.6,427.3,690.7,426.1,692.1,426.1
		L692.1,426.1z"/>
	<path d="M692.1,426.1c1.4,0,2.4,1.1,2.4,2.5c0,1.4-1.1,2.5-2.4,2.5s-2.4-1.1-2.4-2.5l0,0C689.6,427.3,690.7,426.1,692.1,426.1
		L692.1,426.1z"/>
	<path d="M692.1,426.9c1,0,1.7,0.8,1.7,1.9c0,1-0.8,1.8-1.8,1.8s-1.7-0.8-1.7-1.9C690.3,427.6,691.1,426.9,692.1,426.9z"/>
	<path d="M692.1,430.5c-1,0-1.7-0.8-1.7-1.9c0-1,0.8-1.8,1.8-1.8s1.7,0.8,1.7,1.9C693.8,429.7,693,430.4,692.1,430.5z M692.1,430.4
		c0.9,0,1.7-0.7,1.7-1.8c0-0.9-0.7-1.8-1.7-1.8c-0.9,0-1.7,0.7-1.7,1.8l0,0C690.3,429.6,691.1,430.4,692.1,430.4L692.1,430.4
		L692.1,430.4z"/>
	<path d="M692.1,427.3c0.7,0,1.4,0.7,1.4,1.4s-0.6,1.4-1.4,1.4s-1.4-0.7-1.4-1.4l0,0C690.7,427.9,691.3,427.3,692.1,427.3
		L692.1,427.3z"/>
	<path d="M692.1,430.2c-0.8,0-1.4-0.7-1.4-1.5c0-0.8,0.6-1.5,1.4-1.5s1.4,0.7,1.4,1.5C693.5,429.4,692.9,430.1,692.1,430.2
		L692.1,430.2z M692.1,429.9c0.7,0,1.3-0.6,1.3-1.3s-0.5-1.3-1.3-1.3s-1.3,0.6-1.3,1.3l0,0C690.9,429.3,691.4,429.9,692.1,429.9
		L692.1,429.9z"/>
	<path d="M667.3,446.9c1.4,0,2.4,1.1,2.4,2.5s-1.1,2.5-2.4,2.5s-2.4-1.1-2.4-2.5l0,0C664.8,448,665.9,446.9,667.3,446.9
		C667.2,446.9,667.2,446.9,667.3,446.9z"/>
	<path d="M667.3,446.9c1.4,0,2.4,1.1,2.4,2.5s-1.1,2.5-2.4,2.5s-2.4-1.1-2.4-2.5l0,0C664.8,448,665.9,446.9,667.3,446.9
		C667.2,446.9,667.2,446.9,667.3,446.9z"/>
	<path d="M667.3,447.6c1,0,1.7,0.8,1.7,1.9c0,1-0.8,1.8-1.8,1.8s-1.7-0.8-1.7-1.9S666.3,447.6,667.3,447.6z"/>
	<path d="M667.3,451.2c-1,0-1.7-0.8-1.7-1.9s0.8-1.8,1.8-1.8s1.7,0.8,1.7,1.9C669.1,450.5,668.2,451.2,667.3,451.2z M667.3,451.2
		c0.9,0,1.7-0.7,1.7-1.8c0-0.9-0.7-1.8-1.7-1.8c-0.9,0-1.7,0.7-1.7,1.8C665.6,450.4,666.3,451.2,667.3,451.2
		C667.2,451.2,667.3,451.2,667.3,451.2z"/>
	<path d="M667.3,448c0.7,0,1.4,0.7,1.4,1.4s-0.6,1.4-1.4,1.4c-0.7,0-1.4-0.7-1.4-1.4l0,0C666,448.7,666.6,448,667.3,448z"/>
	<path d="M667.3,450.9c-0.8,0-1.4-0.7-1.4-1.5s0.6-1.5,1.4-1.5s1.4,0.7,1.4,1.5C668.7,450.2,668.1,450.8,667.3,450.9z M667.3,450.6
		c0.7,0,1.3-0.6,1.3-1.3s-0.5-1.3-1.3-1.3c-0.7,0-1.3,0.6-1.3,1.3l0,0C666.1,450.1,666.6,450.6,667.3,450.6L667.3,450.6z"/>
	<path d="M692.1,447.2c1.4,0,2.4,1.1,2.4,2.5c0,1.4-1.1,2.5-2.4,2.5s-2.4-1.1-2.4-2.5l0,0C689.6,448.3,690.7,447.2,692.1,447.2
		L692.1,447.2z"/>
	<path d="M692.1,447.2c1.4,0,2.4,1.1,2.4,2.5c0,1.4-1.1,2.5-2.4,2.5s-2.4-1.1-2.4-2.5l0,0C689.6,448.3,690.7,447.2,692.1,447.2
		L692.1,447.2z"/>
	<path d="M692.1,447.8c1,0,1.7,0.8,1.7,1.9c0,1-0.8,1.8-1.8,1.8s-1.7-0.8-1.7-1.9C690.3,448.6,691.1,447.8,692.1,447.8z"/>
	<path d="M692.1,451.5c-1,0-1.7-0.8-1.7-1.9c0-1,0.8-1.8,1.8-1.8s1.7,0.8,1.7,1.9C693.8,450.7,693.1,451.5,692.1,451.5z
		 M692.1,451.5c0.9,0,1.7-0.7,1.7-1.8c0-0.9-0.7-1.8-1.7-1.8c-0.9,0-1.7,0.7-1.7,1.8l0,0C690.4,450.6,691.2,451.4,692.1,451.5z"/>
	<path d="M692.1,448.2c0.7,0,1.4,0.7,1.4,1.4s-0.6,1.4-1.4,1.4s-1.4-0.7-1.4-1.4l0,0C690.8,448.9,691.3,448.3,692.1,448.2z"/>
	<path d="M692.1,451.2c-0.8,0-1.4-0.7-1.4-1.5c0-0.8,0.6-1.5,1.4-1.5s1.4,0.7,1.4,1.5C693.4,450.6,692.9,451.2,692.1,451.2z
		 M692.1,451c0.7,0,1.3-0.6,1.3-1.3c0-0.7-0.5-1.3-1.3-1.3s-1.3,0.6-1.3,1.3l0,0C690.9,450.5,691.4,451,692.1,451z"/>
	<path d="M563.2,425.9c1.4,0,2.4,1.1,2.4,2.5s-1.1,2.5-2.4,2.5s-2.4-1.1-2.4-2.5C560.7,427,561.8,425.9,563.2,425.9
		C563.1,425.8,563.1,425.8,563.2,425.9z"/>
	<path d="M563.2,425.9c1.4,0,2.4,1.1,2.4,2.5s-1.1,2.5-2.4,2.5s-2.4-1.1-2.4-2.5C560.7,427,561.8,425.9,563.2,425.9
		C563.1,425.8,563.1,425.8,563.2,425.9z"/>
	<path d="M563.2,426.6c1,0,1.7,0.8,1.7,1.9c0,1-0.8,1.8-1.8,1.8s-1.7-0.8-1.7-1.9C561.4,427.4,562.2,426.6,563.2,426.6z"/>
	<path d="M563.1,430.3c-1,0-1.7-0.8-1.7-1.9c0-1,0.8-1.8,1.8-1.8s1.7,0.8,1.7,1.9C564.9,429.4,564,430.3,563.1,430.3z M563.1,430.2
		c0.9,0,1.7-0.7,1.7-1.8c0-0.9-0.7-1.8-1.7-1.8c-0.9,0-1.7,0.7-1.7,1.8C561.3,429.3,562.1,430.1,563.1,430.2
		C563,430.2,563,430.2,563.1,430.2L563.1,430.2z"/>
	<path d="M563.2,427c0.7,0,1.4,0.6,1.4,1.4s-0.5,1.4-1.4,1.4c-0.8,0-1.4-0.6-1.4-1.4l0,0C561.9,427.6,562.4,427,563.2,427
		C563.1,427,563.1,427,563.2,427z"/>
	<path d="M563.1,429.9c-0.8,0-1.4-0.7-1.4-1.5s0.6-1.5,1.4-1.5c0.8,0,1.4,0.7,1.4,1.5c0.1,0.7-0.5,1.4-1.2,1.5
		C563.2,429.9,563.1,429.9,563.1,429.9z M563.2,429.7c0.7,0,1.3-0.6,1.3-1.3s-0.5-1.3-1.3-1.3s-1.3,0.6-1.3,1.3l0,0
		c0,0.7,0.5,1.2,1.1,1.2C563,429.6,563.1,429.6,563.2,429.7L563.2,429.7z"/>
	<path d="M587.9,426.1c1.4,0,2.4,1.1,2.4,2.5c0,1.4-1.1,2.5-2.4,2.5s-2.4-1.1-2.4-2.5l0,0C585.4,427.3,586.5,426.1,587.9,426.1
		L587.9,426.1z"/>
	<path d="M587.9,426.1c1.4,0,2.4,1.1,2.4,2.5c0,1.4-1.1,2.5-2.4,2.5s-2.4-1.1-2.4-2.5l0,0C585.4,427.3,586.5,426.1,587.9,426.1
		L587.9,426.1z"/>
	<path d="M587.9,426.9c1,0,1.7,0.8,1.7,1.9c0,1-0.8,1.8-1.8,1.8c-1,0-1.7-0.8-1.7-1.9C586.2,427.6,586.9,426.9,587.9,426.9z"/>
	<path d="M587.9,430.5c-1,0-1.7-0.8-1.7-1.9c0-1,0.8-1.8,1.8-1.8c1,0,1.7,0.8,1.7,1.9C589.6,429.8,588.9,430.5,587.9,430.5z
		 M587.9,430.4c0.9,0,1.7-0.7,1.7-1.8c0-0.9-0.7-1.8-1.7-1.8c-0.9,0-1.7,0.7-1.7,1.8l0,0C586.2,429.6,586.9,430.4,587.9,430.4
		L587.9,430.4L587.9,430.4z"/>
	<path d="M587.9,427.3c0.7,0,1.4,0.7,1.4,1.4s-0.6,1.4-1.4,1.4c-0.7,0-1.4-0.7-1.4-1.4l0,0C586.5,427.9,587.1,427.3,587.9,427.3z"/>
	<path d="M587.9,430.2c-0.8,0-1.4-0.7-1.4-1.5c0-0.8,0.6-1.5,1.4-1.5c0.8,0,1.4,0.7,1.4,1.5c0,0.7-0.5,1.4-1.3,1.5
		C588,430.2,588,430.2,587.9,430.2z M587.9,429.9c0.7,0,1.3-0.6,1.3-1.3s-0.5-1.3-1.3-1.3s-1.3,0.6-1.3,1.3l0,0
		C586.7,429.3,587.2,429.9,587.9,429.9L587.9,429.9z"/>
	<path d="M563.2,446.9c1.4,0,2.4,1.1,2.4,2.5s-1.1,2.5-2.4,2.5s-2.4-1.1-2.4-2.5l0,0C560.8,448,561.8,446.9,563.2,446.9
		C563,446.9,563.1,446.9,563.2,446.9z"/>
	<path d="M563.2,446.9c1.4,0,2.4,1.1,2.4,2.5s-1.1,2.5-2.4,2.5s-2.4-1.1-2.4-2.5l0,0C560.8,448,561.8,446.9,563.2,446.9
		C563,446.9,563.1,446.9,563.2,446.9z"/>
	<path d="M563.2,447.6c1,0,1.7,0.8,1.7,1.9c0,1-0.8,1.8-1.8,1.8s-1.7-0.8-1.7-1.9S562.2,447.6,563.2,447.6z"/>
	<path d="M563.1,451.2c-1,0-1.7-0.8-1.7-1.9s0.8-1.8,1.8-1.8s1.7,0.8,1.7,1.9C564.9,450.5,564,451.2,563.1,451.2z M563.1,451.2
		c0.9,0,1.7-0.7,1.7-1.8c0-0.9-0.7-1.8-1.7-1.8c-0.9,0-1.7,0.7-1.7,1.8C561.3,450.4,562.1,451.2,563.1,451.2
		C563,451.2,563,451.2,563.1,451.2z"/>
	<path d="M563.2,448c0.7,0,1.4,0.6,1.4,1.4s-0.5,1.4-1.4,1.4c-0.8,0-1.4-0.6-1.4-1.4l0,0C561.9,448.7,562.4,448,563.2,448
		C563.1,448,563.1,448,563.2,448z"/>
	<path d="M563.1,450.9c-0.8,0-1.4-0.7-1.4-1.5s0.6-1.5,1.4-1.5c0.8,0,1.4,0.7,1.4,1.5c0.1,0.7-0.5,1.4-1.3,1.5
		C563.2,450.9,563.1,450.9,563.1,450.9z M563.2,450.6c0.7,0,1.3-0.6,1.3-1.3s-0.5-1.3-1.3-1.3s-1.3,0.6-1.3,1.3l0,0
		c-0.1,0.7,0.5,1.2,1.1,1.3C563,450.7,563.1,450.7,563.2,450.6L563.2,450.6z"/>
	<path d="M587.9,447.2c1.4,0,2.4,1.1,2.4,2.5c0,1.4-1.1,2.5-2.4,2.5s-2.4-1.1-2.4-2.5l0,0C585.4,448.3,586.5,447.2,587.9,447.2
		L587.9,447.2z"/>
	<path d="M587.9,447.2c1.4,0,2.4,1.1,2.4,2.5c0,1.4-1.1,2.5-2.4,2.5s-2.4-1.1-2.4-2.5l0,0C585.4,448.3,586.5,447.2,587.9,447.2
		L587.9,447.2z"/>
	<path d="M587.9,447.8c1,0,1.7,0.8,1.7,1.9c0,1-0.8,1.8-1.8,1.8c-1,0-1.7-0.8-1.7-1.9C586.2,448.6,586.9,447.8,587.9,447.8z"/>
	<path d="M587.9,451.5c-1,0-1.7-0.8-1.7-1.9c0-1,0.8-1.8,1.8-1.8c1,0,1.7,0.8,1.7,1.9C589.6,450.7,588.9,451.5,587.9,451.5z
		 M587.9,451.5c0.9,0,1.7-0.7,1.7-1.8c0-0.9-0.7-1.8-1.7-1.8c-0.9,0-1.7,0.7-1.7,1.8l0,0C586.2,450.6,587,451.4,587.9,451.5z"/>
	<path d="M587.9,448.2c0.7,0.1,1.3,0.7,1.2,1.5c-0.1,0.7-0.5,1.2-1.2,1.2c-0.7,0-1.4-0.6-1.4-1.3c0,0,0,0,0-0.1
		C586.6,448.9,587.1,448.3,587.9,448.2z"/>
	<path d="M587.9,451.2c-0.8,0-1.4-0.7-1.4-1.5c0-0.8,0.6-1.5,1.4-1.5c0.8,0,1.4,0.7,1.4,1.5C589.3,450.6,588.7,451.2,587.9,451.2
		L587.9,451.2z M587.9,451c0.7,0,1.3-0.6,1.3-1.3c0-0.7-0.5-1.3-1.3-1.3s-1.3,0.6-1.3,1.3l0,0C586.7,450.5,587.2,451,587.9,451z"/>
	<path d="M458.9,425.9c1.4,0,2.4,1.1,2.4,2.5s-1.1,2.5-2.4,2.5s-2.4-1.1-2.4-2.5S457.6,425.9,458.9,425.9z"/>
	<path d="M458.9,425.9c1.4,0,2.4,1.1,2.4,2.5s-1.1,2.5-2.4,2.5s-2.4-1.1-2.4-2.5S457.6,425.9,458.9,425.9z"/>
	<path d="M458.9,426.6c1,0,1.7,0.8,1.7,1.9c0,1-0.8,1.8-1.8,1.8c-1,0-1.7-0.8-1.7-1.9C457.2,427.4,458,426.6,458.9,426.6z"/>
	<path d="M458.9,430.3c-1,0-1.7-0.8-1.7-1.9c0-1,0.8-1.8,1.8-1.8c1,0,1.7,0.8,1.7,1.9C460.8,429.4,459.9,430.3,458.9,430.3z
		 M458.9,430.2c0.9,0,1.7-0.7,1.7-1.8c0-0.9-0.7-1.8-1.7-1.8c-0.9,0-1.7,0.7-1.7,1.8l0,0C457.3,429.3,458,430.2,458.9,430.2
		L458.9,430.2L458.9,430.2z"/>
	<path d="M458.9,427c0.7,0,1.4,0.6,1.4,1.4c0,0.7-0.5,1.4-1.4,1.4c-0.7,0-1.4-0.6-1.4-1.4l0,0C457.7,427.6,458.2,427,458.9,427
		L458.9,427z"/>
	<path d="M458.9,429.9c-0.8,0-1.4-0.7-1.4-1.5s0.6-1.5,1.4-1.5c0.8,0,1.4,0.7,1.4,1.5C460.4,429.1,459.8,429.8,458.9,429.9
		C459,429.9,459,429.9,458.9,429.9z M458.9,429.7c0.7,0,1.3-0.6,1.3-1.3s-0.5-1.3-1.3-1.3c-0.7,0-1.3,0.6-1.3,1.3l0,0
		C457.8,429,458.3,429.6,458.9,429.7L458.9,429.7z"/>
	<path d="M483.8,426.1c1.4,0,2.4,1.1,2.4,2.5c0,1.4-1.1,2.5-2.4,2.5c-1.4,0-2.4-1.1-2.4-2.5l0,0
		C481.3,427.3,482.3,426.1,483.8,426.1C483.7,426.1,483.7,426.1,483.8,426.1z"/>
	<path d="M483.8,426.1c1.4,0,2.4,1.1,2.4,2.5c0,1.4-1.1,2.5-2.4,2.5c-1.4,0-2.4-1.1-2.4-2.5l0,0
		C481.3,427.3,482.3,426.1,483.8,426.1C483.7,426.1,483.7,426.1,483.8,426.1z"/>
	<path d="M483.8,426.9c1,0,1.7,0.8,1.7,1.9c0,1-0.8,1.8-1.8,1.8c-1,0-1.7-0.8-1.7-1.9C482,427.6,482.8,426.9,483.8,426.9z"/>
	<path d="M483.7,430.5c-1,0-1.7-0.8-1.7-1.9c0-1,0.8-1.8,1.8-1.8c1,0,1.7,0.8,1.7,1.9C485.4,429.8,484.7,430.5,483.7,430.5z
		 M483.7,430.4c0.9,0,1.7-0.7,1.7-1.8c0-0.9-0.7-1.8-1.7-1.8c-0.9,0-1.7,0.7-1.7,1.8l0,0C482,429.6,482.8,430.4,483.7,430.4
		L483.7,430.4L483.7,430.4z"/>
	<path d="M483.8,427.3c0.7,0,1.4,0.7,1.4,1.4s-0.6,1.4-1.4,1.4c-0.7,0-1.4-0.7-1.4-1.4l0,0C482.4,427.9,483,427.3,483.8,427.3
		C483.7,427.3,483.8,427.3,483.8,427.3z"/>
	<path d="M483.8,430.2c-0.8,0-1.4-0.7-1.4-1.5c0-0.8,0.6-1.5,1.4-1.5c0.8,0,1.4,0.7,1.4,1.5C485.2,429.4,484.6,430.1,483.8,430.2
		L483.8,430.2z M483.8,429.9c0.7,0,1.3-0.6,1.3-1.3s-0.5-1.3-1.3-1.3c-0.7,0-1.3,0.6-1.3,1.3l0,0c-0.1,0.7,0.5,1.2,1.1,1.3
		C483.6,430,483.7,430,483.8,429.9L483.8,429.9z"/>
	<path d="M458.9,446.9c1.4,0,2.4,1.1,2.4,2.5s-1.1,2.5-2.4,2.5s-2.4-1.1-2.4-2.5l0,0C456.5,448,457.6,446.9,458.9,446.9L458.9,446.9
		z"/>
	<path d="M458.9,446.9c1.4,0,2.4,1.1,2.4,2.5s-1.1,2.5-2.4,2.5s-2.4-1.1-2.4-2.5l0,0C456.5,448,457.6,446.9,458.9,446.9L458.9,446.9
		z"/>
	<path d="M458.9,447.6c1,0,1.7,0.8,1.7,1.9c0,1-0.8,1.8-1.8,1.8c-1,0-1.7-0.8-1.7-1.9C457.2,448.3,458,447.6,458.9,447.6z"/>
	<path d="M458.9,451.2c-1,0-1.7-0.8-1.7-1.9s0.8-1.8,1.8-1.8c1,0,1.7,0.8,1.7,1.9C460.8,450.5,459.9,451.2,458.9,451.2z
		 M458.9,451.2c0.9,0,1.7-0.7,1.7-1.8c0-0.9-0.7-1.8-1.7-1.8c-0.9,0-1.7,0.7-1.7,1.8l0,0C457.3,450.4,458,451.2,458.9,451.2
		L458.9,451.2z"/>
	<path d="M458.9,448c0.7,0,1.4,0.6,1.4,1.4c0,0.7-0.5,1.4-1.4,1.4c-0.7,0-1.4-0.6-1.4-1.4l0,0C457.7,448.7,458.2,448,458.9,448
		L458.9,448z"/>
	<path d="M458.9,450.9c-0.8,0-1.4-0.7-1.4-1.5s0.6-1.5,1.4-1.5c0.8,0,1.4,0.7,1.4,1.5C460.4,450.2,459.8,450.8,458.9,450.9z
		 M458.9,450.6c0.7,0,1.3-0.6,1.3-1.3s-0.5-1.3-1.3-1.3c-0.7,0-1.3,0.6-1.3,1.3l0,0C457.8,450.1,458.3,450.6,458.9,450.6
		L458.9,450.6z"/>
	<path d="M483.8,447.2c1.4,0,2.4,1.1,2.4,2.5c0,1.4-1.1,2.5-2.4,2.5c-1.4,0-2.4-1.1-2.4-2.5l0,0
		C481.3,448.3,482.3,447.2,483.8,447.2C483.7,447.2,483.7,447.2,483.8,447.2z"/>
	<path d="M483.8,447.2c1.4,0,2.4,1.1,2.4,2.5c0,1.4-1.1,2.5-2.4,2.5c-1.4,0-2.4-1.1-2.4-2.5l0,0
		C481.3,448.3,482.3,447.2,483.8,447.2C483.7,447.2,483.7,447.2,483.8,447.2z"/>
	<path d="M483.8,447.8c1,0,1.7,0.8,1.7,1.9c0,1-0.8,1.8-1.8,1.8c-1,0-1.7-0.8-1.7-1.9C482,448.6,482.8,447.8,483.8,447.8z"/>
	<path d="M483.7,451.5c-1,0-1.7-0.8-1.7-1.9c0-1,0.8-1.8,1.8-1.8c1,0,1.7,0.8,1.7,1.9C485.5,450.7,484.7,451.5,483.7,451.5
		C483.8,451.5,483.7,451.5,483.7,451.5z M483.7,451.5c0.9,0,1.7-0.7,1.7-1.8c0-0.9-0.7-1.8-1.7-1.8c-0.9,0-1.7,0.7-1.7,1.8l0,0
		C482,450.6,482.8,451.4,483.7,451.5z"/>
	<path d="M483.8,448.2c0.7,0,1.4,0.7,1.4,1.4s-0.6,1.4-1.4,1.4c-0.7,0-1.4-0.7-1.4-1.4l0,0C482.4,448.9,483,448.3,483.8,448.2z"/>
	<path d="M483.8,451.2c-0.8,0-1.4-0.7-1.4-1.5c0-0.8,0.6-1.5,1.4-1.5c0.8,0,1.4,0.7,1.4,1.5C485.1,450.6,484.5,451.2,483.8,451.2z
		 M483.8,451c0.7,0,1.3-0.6,1.3-1.3c0-0.7-0.5-1.3-1.3-1.3c-0.7,0-1.3,0.6-1.3,1.3l0,0c-0.1,0.7,0.5,1.2,1.1,1.3
		C483.6,451,483.7,451,483.8,451z"/>
	<path d="M294.9,425.9c1.4,0,2.4,1.1,2.4,2.5s-1.1,2.5-2.4,2.5c-1.4,0-2.4-1.1-2.4-2.5l0,0C292.4,427,293.5,425.9,294.9,425.9z"/>
	<path d="M294.9,425.9c1.4,0,2.4,1.1,2.4,2.5s-1.1,2.5-2.4,2.5c-1.4,0-2.4-1.1-2.4-2.5l0,0C292.4,427,293.5,425.9,294.9,425.9z"/>
	<path d="M294.9,426.6c1,0,1.7,0.8,1.7,1.9c0,1-0.8,1.8-1.8,1.8c-1,0-1.7-0.8-1.7-1.9C293.1,427.4,294,426.6,294.9,426.6z"/>
	<path d="M294.9,430.3c-1,0-1.7-0.8-1.7-1.9c0-1,0.8-1.8,1.8-1.8c1,0,1.7,0.8,1.7,1.9C296.7,429.4,295.9,430.2,294.9,430.3z
		 M294.9,430.2c0.9,0,1.7-0.7,1.7-1.8c0-1-0.7-1.8-1.7-1.8c-0.9,0-1.7,0.7-1.7,1.8C293.1,429.3,294,430.2,294.9,430.2L294.9,430.2
		L294.9,430.2z"/>
	<path d="M294.9,427c0.7,0,1.4,0.7,1.4,1.4s-0.6,1.4-1.4,1.4c-0.7,0-1.4-0.7-1.4-1.4l0,0C293.5,427.6,294.1,427,294.9,427L294.9,427
		z"/>
	<path d="M294.9,429.9c-0.8,0-1.4-0.7-1.4-1.5s0.6-1.5,1.4-1.5c0.8,0,1.4,0.7,1.4,1.5S295.8,429.9,294.9,429.9
		C294.9,429.9,294.9,429.9,294.9,429.9z M294.9,429.7c0.7,0,1.3-0.6,1.2-1.3c0-0.7-0.5-1.3-1.3-1.2c-0.6,0-1.3,0.6-1.3,1.3
		C293.7,429,294.2,429.6,294.9,429.7L294.9,429.7z"/>
	<path d="M319.7,426.1c1.4,0,2.4,1.1,2.4,2.5c0,1.4-1.1,2.5-2.4,2.5s-2.4-1.1-2.4-2.5l0,0C317.2,427.3,318.2,426.1,319.7,426.1
		C319.6,426.1,319.6,426.1,319.7,426.1z"/>
	<path d="M319.7,426.1c1.4,0,2.4,1.1,2.4,2.5c0,1.4-1.1,2.5-2.4,2.5s-2.4-1.1-2.4-2.5l0,0C317.2,427.3,318.2,426.1,319.7,426.1
		C319.6,426.1,319.6,426.1,319.7,426.1z"/>
	<path d="M319.7,426.9c1,0,1.7,0.8,1.7,1.9c0,1-0.8,1.8-1.8,1.8c-1,0-1.7-0.8-1.7-1.9C318,427.6,318.7,426.9,319.7,426.9z"/>
	<path d="M319.6,430.5c-1,0-1.7-0.8-1.7-1.9c0-1,0.8-1.8,1.8-1.8c1,0,1.7,0.8,1.7,1.9C321.3,429.8,320.5,430.5,319.6,430.5z
		 M319.6,430.4c0.9,0,1.7-0.7,1.7-1.8c0-0.9-0.7-1.8-1.7-1.8c-0.9,0-1.7,0.7-1.7,1.8l0,0C317.9,429.6,318.6,430.4,319.6,430.4
		L319.6,430.4L319.6,430.4z"/>
	<path d="M319.7,427.3c0.7,0,1.4,0.7,1.4,1.4s-0.6,1.4-1.4,1.4c-0.7,0-1.4-0.7-1.4-1.4l0,0C318.3,427.9,318.9,427.3,319.7,427.3
		C319.6,427.3,319.7,427.3,319.7,427.3z"/>
	<path d="M319.6,430.2c-0.8,0-1.4-0.7-1.4-1.5c0-0.8,0.6-1.5,1.4-1.5c0.8,0,1.4,0.7,1.4,1.5c0.1,0.7-0.5,1.4-1.2,1.5
		C319.8,430.2,319.7,430.2,319.6,430.2z M319.7,429.9c0.7,0,1.3-0.6,1.2-1.3c0-0.7-0.5-1.3-1.3-1.2c-0.6,0-1.3,0.6-1.3,1.3
		c-0.1,0.7,0.5,1.2,1.1,1.3C319.6,430,319.6,430,319.7,429.9L319.7,429.9z"/>
	<path d="M294.9,446.9c1.4,0,2.4,1.1,2.4,2.5s-1.1,2.5-2.4,2.5c-1.4,0-2.4-1.1-2.4-2.5l0,0C292.4,448,293.5,446.9,294.9,446.9
		L294.9,446.9z"/>
	<path d="M294.9,446.9c1.4,0,2.4,1.1,2.4,2.5s-1.1,2.5-2.4,2.5c-1.4,0-2.4-1.1-2.4-2.5l0,0C292.4,448,293.5,446.9,294.9,446.9
		L294.9,446.9z"/>
	<path d="M294.9,447.6c1,0,1.7,0.8,1.7,1.9c0,1-0.8,1.8-1.8,1.8c-1,0-1.7-0.8-1.7-1.9C293.1,448.3,294,447.6,294.9,447.6z"/>
	<path d="M294.9,451.2c-1,0-1.7-0.8-1.7-1.9s0.8-1.8,1.8-1.8c1,0,1.7,0.8,1.7,1.9C296.7,450.4,295.9,451.2,294.9,451.2z
		 M294.9,451.2c0.9,0,1.7-0.7,1.7-1.8c0-1-0.7-1.8-1.7-1.8c-0.9,0-1.7,0.7-1.7,1.8C293.1,450.4,294,451.2,294.9,451.2L294.9,451.2z"
		/>
	<path d="M294.9,448c0.7,0,1.4,0.7,1.4,1.4s-0.6,1.4-1.4,1.4c-0.7,0-1.4-0.7-1.4-1.4l0,0C293.6,448.7,294.1,448,294.9,448L294.9,448
		z"/>
	<path d="M294.9,450.9c-0.8,0-1.4-0.7-1.4-1.5s0.6-1.5,1.4-1.5c0.8,0,1.4,0.7,1.4,1.5C296.3,450.2,295.7,450.8,294.9,450.9z
		 M294.9,450.6c0.7,0,1.3-0.6,1.2-1.3c0-0.7-0.5-1.3-1.3-1.2c-0.6,0-1.3,0.6-1.3,1.3C293.7,450.1,294.2,450.6,294.9,450.6
		L294.9,450.6z"/>
	<path d="M319.7,447.2c1.4,0,2.4,1.1,2.4,2.5c0,1.4-1.1,2.5-2.4,2.5s-2.4-1.1-2.4-2.5l0,0C317.2,448.3,318.2,447.2,319.7,447.2
		C319.6,447.2,319.6,447.2,319.7,447.2z"/>
	<path d="M319.7,447.2c1.4,0,2.4,1.1,2.4,2.5c0,1.4-1.1,2.5-2.4,2.5s-2.4-1.1-2.4-2.5l0,0C317.2,448.3,318.2,447.2,319.7,447.2
		C319.6,447.2,319.6,447.2,319.7,447.2z"/>
	<path d="M319.7,447.8c1,0,1.7,0.8,1.7,1.9c0,1-0.8,1.8-1.8,1.8c-1,0-1.7-0.8-1.7-1.9C318,448.6,318.7,447.8,319.7,447.8z"/>
	<path d="M319.6,451.5c-1,0-1.7-0.8-1.7-1.9c0-1,0.8-1.8,1.8-1.8c1,0,1.7,0.8,1.7,1.9C321.3,450.7,320.5,451.5,319.6,451.5z
		 M319.6,451.5c0.9,0,1.7-0.7,1.7-1.8c0-0.9-0.7-1.8-1.7-1.8c-0.9,0-1.7,0.7-1.7,1.8l0,0C317.9,450.6,318.7,451.4,319.6,451.5z"/>
	<path d="M319.7,448.2c0.7,0,1.4,0.7,1.4,1.4s-0.6,1.4-1.4,1.4c-0.7,0-1.4-0.7-1.4-1.4l0,0C318.4,448.9,319,448.3,319.7,448.2z"/>
	<path d="M319.6,451.2c-0.8,0-1.4-0.7-1.4-1.5c0-0.8,0.6-1.5,1.4-1.5c0.8,0,1.4,0.7,1.4,1.5c0.1,0.7-0.5,1.4-1.3,1.5
		C319.7,451.2,319.6,451.2,319.6,451.2z M319.7,451c0.7,0,1.3-0.6,1.2-1.3c0-0.7-0.5-1.3-1.3-1.2c-0.6,0-1.3,0.6-1.3,1.3
		c-0.1,0.7,0.5,1.2,1.1,1.3C319.6,451,319.6,451,319.7,451L319.7,451z"/>
	<path class="st4" d="M461.6,478.3c1.2,0,2.4-0.5,3.3-1.4c2-2.1,2.2-5.3,0.4-7.6L424,419.1H179.8l-23.5,43.4
		c-1.4,2.5-0.7,5.8,1.7,7.3c2.2,1.4,5,0.8,6.3-1.4c0.1-0.2,0.2-0.3,0.3-0.5l20.6-38.1h234.3l38.2,46.8
		C458.9,477.8,460.1,478.3,461.6,478.3z"/>
	<rect x="627.6" y="462" class="st4" width="134" height="47.3"/>
	<polygon class="st4" points="645.1,442.3 748.3,442.3 748.3,447.6 761.7,447.6 761.7,462 627.6,462 627.6,447.6 645.1,447.6 	"/>
	<rect x="763.9" y="468.6" class="st4" width="46.6" height="40.7"/>
	<rect x="782.2" y="501.1" class="st4" width="10.1" height="1.1"/>
	<path class="st4" d="M787.7,492.7c0,0.3,0.1,0.5,0.3,0.5h2.4c0.2,0,0.3-0.2,0.3-0.5v-4.3c0-0.3-0.1-0.5-0.3-0.5h-2.4
		c-0.2,0-0.3,0.2-0.3,0.5V492.7z"/>
	<path class="st4" d="M787.6,492.7v-4.3c0-0.4,0.2-0.7,0.4-0.7h2.4c0.2,0,0.4,0.3,0.4,0.7v4.3c0,0.4-0.2,0.7-0.4,0.7h-2.4
		C787.7,493.5,787.6,493.1,787.6,492.7z M787.9,488.1c-0.1,0-0.2,0.1-0.2,0.3v4.3c0,0.2,0.1,0.3,0.2,0.3h2.4c0.1,0,0.2-0.1,0.2-0.3
		v-4.3c0-0.2-0.1-0.3-0.2-0.3H787.9z"/>
	<path class="st4" d="M783.9,492.7c0,0.3,0.1,0.5,0.3,0.5h2.4c0.2,0,0.3-0.2,0.3-0.5v-4.3c0-0.3-0.1-0.5-0.3-0.5h-2.4
		c-0.2,0-0.3,0.2-0.3,0.5V492.7z"/>
	<path class="st4" d="M783.8,492.7v-4.3c0-0.4,0.2-0.7,0.4-0.7h2.4c0.2,0,0.4,0.3,0.4,0.7v4.3c0,0.4-0.2,0.7-0.4,0.7h-2.4
		C783.9,493.5,783.8,493.1,783.8,492.7z M784.1,488.1c-0.1,0-0.2,0.1-0.2,0.3v4.3c0,0.2,0.1,0.3,0.2,0.3h2.4c0.1,0,0.2-0.1,0.2-0.3
		v-4.3c0-0.2-0.1-0.3-0.2-0.3H784.1z"/>
	<path class="st3" d="M823.9,182.9l13.7-25c0.5-1,1.4-1.9,2.3-2.4l20.7-13.5c2.3-1.5,5-2,7.6-1.3c21.7,5.5,125.6,32.7,170,62.5
		c4.5,3.1-78.6-19.4-86.7-20.6L823.9,182.9z"/>
	<path class="st36" d="M823.9,201.6l0.2-15.2c0-2.2,3.4-4,7.7-4c1.7,0,3.4,0.3,5.2,0.9l13.8,6.5c1.6,0.7,2.5,1.9,2.5,3v8.8
		L823.9,201.6L823.9,201.6z"/>
	<polygon points="830.4,512.1 1078.1,515.4 1094.7,350.7 830.4,350.7 	"/>
	<path class="st14" d="M833.7,454.6c2.6,0,4.8-2.2,4.7-5v-0.1c0-2.7-2.1-5-4.7-5.1c-22.6,0-29-8.4-29.4-12.9V205.9
		c0-25.2-32.3-30.2-33.7-30.4c-2.6-0.4-5.1,1.5-5.4,4.2c0,0.1,0,0.1,0,0.2c-0.5,2.7,1.4,5.3,4,5.8c0,0,0,0,0.1,0
		c0.4,0.1,25.5,4,25.5,20.2v225.7C794.7,432.5,795.3,454.6,833.7,454.6z"/>
	<rect x="784.3" y="210.2" class="st37" width="29.6" height="209.4"/>
	<rect x="806.5" y="210.2" class="st38" width="7.4" height="209.4"/>
	<rect x="784.3" y="363.3" class="st39" width="29.6" height="10.5"/>
	<rect x="784.3" y="241" class="st39" width="29.6" height="10.5"/>
	<path class="st15" d="M1000.6,499.3c0,38-29.8,68.6-66.5,68.6c-36.7,0-66.5-30.8-66.5-68.6c0-38,29.8-68.6,66.5-68.6l0,0
		C970.8,430.6,1000.6,461.4,1000.6,499.3z"/>
	<path d="M1000.6,499.3c0,38-29.8,68.6-66.5,68.6c-36.7,0-66.5-30.8-66.5-68.6c0-38,29.8-68.6,66.5-68.6l0,0
		C970.8,430.6,1000.6,461.4,1000.6,499.3z"/>
	
		<radialGradient id="SVGID_21_" cx="2946.98" cy="1414.5353" r="63" gradientTransform="matrix(-0.906 0 0 0.935 3604.27 -823.3742)" gradientUnits="userSpaceOnUse">
		<stop  offset="0" style="stop-color:#231F20"/>
		<stop  offset="0.41" style="stop-color:#252122"/>
		<stop  offset="0.56" style="stop-color:#2B2729"/>
		<stop  offset="0.67" style="stop-color:#353334"/>
		<stop  offset="0.74" style="stop-color:#414042"/>
		<stop  offset="0.77" style="stop-color:#4D4D4F"/>
		<stop  offset="0.8" style="stop-color:#555658"/>
		<stop  offset="0.85" style="stop-color:#58595B"/>
		<stop  offset="0.92" style="stop-color:#414042"/>
	</radialGradient>
	<path class="st40" d="M991.2,499.3c0,32.5-25.6,58.9-57.1,58.9s-57.1-26.4-57.1-58.9s25.6-58.9,57.1-58.9S991.2,466.6,991.2,499.3
		C991.2,499.2,991.2,499.3,991.2,499.3z"/>
	<path class="st14" d="M983.2,499.3c0,27.9-21.9,50.5-48.9,50.5c-27,0-48.9-22.6-48.9-50.5c0-27.9,21.9-50.5,48.9-50.5
		C961.3,448.8,983.1,471.4,983.2,499.3z"/>
	<path class="st17" d="M983.2,499.3c0,27.9-21.9,50.5-48.9,50.5c-27,0-48.9-22.6-48.9-50.5c0-27.9,21.9-50.5,48.9-50.5
		C961.3,448.8,983.1,471.4,983.2,499.3z"/>
	<path class="st18" d="M968.7,499.3c0,19.7-15.5,35.6-34.5,35.6c-19,0-34.5-16-34.5-35.6c0-19.7,15.5-35.6,34.5-35.6l0,0
		C953.3,463.6,968.7,479.6,968.7,499.3z"/>
	
		<linearGradient id="SVGID_22_" gradientUnits="userSpaceOnUse" x1="2960.0051" y1="1401.0658" x2="3008.0256" y2="1401.0658" gradientTransform="matrix(-1 0 0 1 3918.1799 -901.33)">
		<stop  offset="3.000000e-02" style="stop-color:#6D6E71"/>
		<stop  offset="0.25" style="stop-color:#BCBEC0"/>
		<stop  offset="0.52" style="stop-color:#D1D3D4"/>
		<stop  offset="0.69" style="stop-color:#BCBEC0"/>
		<stop  offset="0.98" style="stop-color:#58595B"/>
	</linearGradient>
	<path class="st41" d="M958.2,499.7c0,13.7-10.8,24.8-24,24.8c-13.2,0-24-11.1-24-24.8s10.8-24.8,24-24.8l0,0
		C947.4,475,958.2,486,958.2,499.7L958.2,499.7z"/>
	
		<linearGradient id="SVGID_23_" gradientUnits="userSpaceOnUse" x1="2954.614" y1="1384.4221" x2="2974.5471" y2="1384.4221" gradientTransform="matrix(-1 0 0 1 3918.1799 -901.33)">
		<stop  offset="3.000000e-02" style="stop-color:#6D6E71"/>
		<stop  offset="0.25" style="stop-color:#BCBEC0"/>
		<stop  offset="0.52" style="stop-color:#D1D3D4"/>
		<stop  offset="0.69" style="stop-color:#BCBEC0"/>
		<stop  offset="0.98" style="stop-color:#58595B"/>
	</linearGradient>
	<path class="st42" d="M943.7,487.4l10.8-14.1c3.8,3.2,7,7.1,9.2,11.7l-15.7,7.9C946.9,490.9,945.5,488.9,943.7,487.4z"/>
	
		<linearGradient id="SVGID_24_" gradientUnits="userSpaceOnUse" x1="2963.6292" y1="1423.6936" x2="2980.6177" y2="1423.6936" gradientTransform="matrix(-1 0 0 1 3918.1799 -901.33)">
		<stop  offset="3.000000e-02" style="stop-color:#6D6E71"/>
		<stop  offset="0.25" style="stop-color:#BCBEC0"/>
		<stop  offset="0.52" style="stop-color:#D1D3D4"/>
		<stop  offset="0.69" style="stop-color:#BCBEC0"/>
		<stop  offset="0.98" style="stop-color:#58595B"/>
	</linearGradient>
	<path class="st43" d="M954.6,526.1c-3.9,3.2-8.3,5.3-13.1,6.5l-3.9-17.5c2.3-0.5,4.3-1.6,6.1-3.1L954.6,526.1z"/>
	
		<linearGradient id="SVGID_25_" gradientUnits="userSpaceOnUse" x1="2993.6013" y1="1384.4689" x2="3013.5344" y2="1384.4689" gradientTransform="matrix(-1 0 0 1 3918.1799 -901.33)">
		<stop  offset="3.000000e-02" style="stop-color:#6D6E71"/>
		<stop  offset="0.25" style="stop-color:#BCBEC0"/>
		<stop  offset="0.52" style="stop-color:#D1D3D4"/>
		<stop  offset="0.69" style="stop-color:#BCBEC0"/>
		<stop  offset="0.98" style="stop-color:#58595B"/>
	</linearGradient>
	<path class="st44" d="M920.3,492.9l-15.8-7.8c2.2-4.6,5.3-8.6,9.1-11.8l10.9,14C922.7,489,921.3,490.9,920.3,492.9z"/>
	
		<linearGradient id="SVGID_26_" gradientUnits="userSpaceOnUse" x1="2951.325" y1="1408.3591" x2="2970.2615" y2="1408.3591" gradientTransform="matrix(-1 0 0 1 3918.1799 -901.33)">
		<stop  offset="3.000000e-02" style="stop-color:#6D6E71"/>
		<stop  offset="0.25" style="stop-color:#BCBEC0"/>
		<stop  offset="0.52" style="stop-color:#D1D3D4"/>
		<stop  offset="0.69" style="stop-color:#BCBEC0"/>
		<stop  offset="0.98" style="stop-color:#58595B"/>
	</linearGradient>
	<path class="st45" d="M949.5,499.7L949.5,499.7l17.5-0.1v0.1c0,5-1.1,10.1-3.3,14.7l-15.7-7.9C948.9,504.4,949.4,502.2,949.5,499.7
		z"/>
	
		<linearGradient id="SVGID_27_" gradientUnits="userSpaceOnUse" x1="2997.8145" y1="1408.4059" x2="3016.7507" y2="1408.4059" gradientTransform="matrix(-1 0 0 1 3918.1799 -901.33)">
		<stop  offset="3.000000e-02" style="stop-color:#6D6E71"/>
		<stop  offset="0.25" style="stop-color:#BCBEC0"/>
		<stop  offset="0.52" style="stop-color:#D1D3D4"/>
		<stop  offset="0.69" style="stop-color:#BCBEC0"/>
		<stop  offset="0.98" style="stop-color:#58595B"/>
	</linearGradient>
	<path class="st46" d="M918.9,499.7c0,2.3,0.5,4.7,1.5,6.8l-15.7,7.9c-2.2-4.6-3.3-9.5-3.3-14.6L918.9,499.7z"/>
	
		<linearGradient id="SVGID_28_" gradientUnits="userSpaceOnUse" x1="2976.8757" y1="1376.4502" x2="2991.3906" y2="1376.4502" gradientTransform="matrix(-1 0 0 1 3918.1799 -901.33)">
		<stop  offset="3.000000e-02" style="stop-color:#6D6E71"/>
		<stop  offset="0.25" style="stop-color:#BCBEC0"/>
		<stop  offset="0.52" style="stop-color:#D1D3D4"/>
		<stop  offset="0.69" style="stop-color:#BCBEC0"/>
		<stop  offset="0.98" style="stop-color:#58595B"/>
	</linearGradient>
	<path class="st47" d="M926.7,466.8c4.8-1.1,9.7-1.2,14.5-0.1l-3.8,17.6c-2.3-0.5-4.6-0.5-6.8,0L926.7,466.8z"/>
	
		<linearGradient id="SVGID_29_" gradientUnits="userSpaceOnUse" x1="2987.4221" y1="1423.7872" x2="3004.4104" y2="1423.7872" gradientTransform="matrix(-1 0 0 1 3918.1799 -901.33)">
		<stop  offset="3.000000e-02" style="stop-color:#6D6E71"/>
		<stop  offset="0.25" style="stop-color:#BCBEC0"/>
		<stop  offset="0.52" style="stop-color:#D1D3D4"/>
		<stop  offset="0.69" style="stop-color:#BCBEC0"/>
		<stop  offset="0.98" style="stop-color:#58595B"/>
	</linearGradient>
	<path class="st48" d="M930.7,515.2l-3.9,17.6c-4.8-1.1-9.2-3.4-13.1-6.5l10.8-14C926.5,513.6,928.5,514.6,930.7,515.2z"/>
	<path class="st4" d="M823.9,182.9c0.2-0.1,0.5-0.2,0.6-0.2h127l82.8,19.1c3.4,0.7,6.3,3,8,6.2l55.7,103.6c1.3,2.2,1.8,4.9,1.7,7.5
		l-6.2,128.4c0,0.7-0.6,1.4-1.4,1.4l0,0h-65.5l-0.6-0.5c-10.8-24.5-34.4-40.2-60.5-40.2c-3,0-6.1,0.2-9.1,0.7H833.9
		c-4.4,0-8.3-2.8-10-7V182.9L823.9,182.9z"/>
	<path class="st49" d="M1081.2,430.4l6.4-111.4c0.1-2.2-0.4-4.2-1.4-6.1l-54-93.5c-1.8-3.2-5.2-5.1-8.8-5.1h-77.7
		c-5.7,0-10.3,4.8-10.3,10.7v160.8c0,5.9,4.7,10.7,10.4,10.7c0.1,0,0.2,0,0.2,0c20.8-0.6,66.7,2.4,82.7,38.1
		c1.7,3.7,5.3,6.1,9.3,6.1h32.9C1076.4,440.5,1080.9,436.1,1081.2,430.4z"/>
	<path class="st50" d="M947.1,310.6v-84.2h69.3c3.7,0,7.2,2.1,9.2,5.3l50.3,87.1l0,0c-0.2,3.7-3.4,6.6-7,6.5c-0.2,0-0.3,0-0.5,0
		L947.1,310.6z"/>
	<line class="st49" x1="1025.5" y1="231.7" x2="1025.5" y2="319.2"/>
	<path class="st14" d="M951.2,325.3H973c1.6,0,2.9-1.4,3-3l0,0c0-1.7-1.4-3-3-3.1h-21.8c-1.6,0-2.9,1.4-3,3.1l0,0
		C948.3,323.9,949.6,325.3,951.2,325.3z"/>
	<path class="st50" d="M856.4,303.8h56.1c1.8,0,3.3-1.5,3.3-3.3l0,0v-82.8c0-1.9-1.4-3.3-3.2-3.4c0,0,0,0-0.1,0h-56.1
		c-1.7,0-3.2,1.5-3.3,3.3c0,0,0,0,0,0.1v82.8C853.2,302.3,854.6,303.8,856.4,303.8z"/>
	<path class="st3" d="M823.9,425.5c0.1-3,2.4-5.4,5.4-5.4l0,0h122.8c3-0.5,6.1-0.7,9.1-0.7c26.1,0,49.7,15.7,60.5,40.2l0.6,0.5h70.3
		l-12.1,55.3c-2.8,12.7-13.8,21.8-26.4,21.8h-49.9v-34.6c0-39.7-31.3-72-69.8-72l0,0c-38.5,0-69.8,32.3-69.8,72v34.6h-41
		L823.9,425.5L823.9,425.5z"/>
	<path class="st3" d="M858.2,317.2h7.8c-1.7,0-3.4,0.3-5.2,0.7c3.5,1.1,6.3,3.3,7.7,6l6.3,13.4H867l-6.3-13.4c-1.6-3-4.4-5.1-7.7-6
		C854.8,317.5,856.5,317.2,858.2,317.2z"/>
	<path class="st3" d="M866.9,317.2h7.8c5.8,0,10.9,2.7,12.8,6.7l6.3,13.4H886l-6.3-13.4C877.9,319.9,872.7,317.2,866.9,317.2z"/>
	<path class="st3" d="M882.8,317.2h7.8c5.8,0,10.9,2.7,12.8,6.7l6.3,13.4h-7.8l-6.3-13.4C893.8,319.9,888.6,317.2,882.8,317.2z"/>
	<path class="st4" d="M1071.3,489.1v3.8c-0.1-1-0.6-2-1.5-2.5c-2.2,1.8-6.6,3.1-12.3,3.7l-27.5,3v-3.8l27.5-3.1
		c5.7-0.6,10.1-2.1,12.3-3.7C1070.7,487.1,1071.2,488,1071.3,489.1z"/>
	<path class="st4" d="M1071.3,493.3v3.8c0,2.8-5.6,5.4-13.9,6.3l-27.5,3.1v-3.8l27.5-3.1C1065.8,498.7,1071.3,496.2,1071.3,493.3z"
		/>
	<path class="st4" d="M1071.3,501.1v3.8c0,2.8-5.6,5.4-13.9,6.3l-27.5,3.1v-3.8l27.5-3.1C1065.8,506.5,1071.3,503.9,1071.3,501.1z"
		/>
	<path class="st51" d="M854,396.4c0,0.5,0.3,0.8,0.6,0.8h6.1c0.5-0.1,0.7-0.5,0.6-0.8v-7.6c0.1-0.5-0.3-0.8-0.6-0.8h-6.1
		c-0.4,0-0.6,0.4-0.6,0.8V396.4z"/>
	<path class="st14" d="M853.7,396.4v-7.6c0-0.6,0.4-1.1,0.9-1.2h6.1c0.5,0.1,0.9,0.6,0.9,1.2v7.6c0,0.6-0.4,1.1-0.9,1.2h-6.1
		C854.1,397.5,853.6,397,853.7,396.4z M854.6,388.4c-0.3,0-0.4,0.3-0.4,0.5v7.6c0,0.3,0.2,0.5,0.4,0.5h6.1c0.3,0,0.4-0.3,0.4-0.5
		v-7.6c0-0.3-0.2-0.5-0.4-0.5H854.6z"/>
	<path class="st52" d="M844.7,396.4c0,0.5,0.3,0.8,0.6,0.8h6.1c0.5-0.1,0.7-0.5,0.6-0.8v-7.6c0.1-0.5-0.3-0.8-0.6-0.8h-6.1
		c-0.4,0-0.6,0.4-0.6,0.8V396.4z"/>
	<path class="st14" d="M844.6,396.4v-7.6c0-0.6,0.4-1.1,0.9-1.2h6.1c0.5,0.1,0.9,0.6,0.9,1.2v7.6c0.1,0.6-0.4,1.1-0.9,1.2h-6.2
		C845,397.6,844.6,397.2,844.6,396.4z M845.5,388.4c-0.3,0-0.4,0.3-0.4,0.5v7.6c0,0.3,0.2,0.5,0.4,0.5h6.1c0.3,0,0.4-0.3,0.4-0.5
		v-7.6c0-0.3-0.2-0.5-0.4-0.5H845.5z"/>
</g>
</svg>
