<?xml version="1.0" encoding="utf-8"?>
<!-- Generator: Adobe Illustrator 23.0.1, SVG Export Plug-In . SVG Version: 6.00 Build 0)  -->
<svg version="1.1" id="Layer_1" xmlns="http://www.w3.org/2000/svg" xmlns:xlink="http://www.w3.org/1999/xlink" x="0px" y="0px"
	 viewBox="0 0 1130.9 565.5" style="enable-background:new 0 0 1130.9 565.5;" xml:space="preserve">
<style type="text/css">
	.st0{opacity:0.31;fill:#1B1B19;enable-background:new    ;}
	.st1{fill:#101111;}
	.st2{fill:#FAAA28;}
	.st3{fill:#88A84C;}
	.st4{fill:url(#SVGID_1_);}
	.st5{fill:#1A1B20;}
	.st6{fill:#A7CB64;}
	.st7{fill:url(#SVGID_2_);}
	.st8{fill:url(#SVGID_3_);}
	.st9{fill:url(#SVGID_4_);}
	.st10{fill:url(#SVGID_5_);}
	.st11{fill:#ED1C24;}
	.st12{fill:#231F20;}
	.st13{fill:#ABA9A7;}
	.st14{fill:#FFB932;stroke:#A97C50;stroke-width:0.1937;stroke-miterlimit:10;}
	.st15{fill:#373735;}
	.st16{fill:#373736;}
	.st17{fill:url(#SVGID_6_);}
	.st18{fill:url(#SVGID_7_);}
	.st19{fill:url(#SVGID_8_);}
	.st20{fill:url(#SVGID_9_);}
	.st21{fill:url(#SVGID_10_);}
	.st22{fill:url(#SVGID_11_);}
	.st23{fill:url(#SVGID_12_);}
	.st24{fill:url(#SVGID_13_);}
	.st25{fill:url(#SVGID_14_);}
	.st26{fill:#414042;stroke:#231F20;stroke-width:0.2429;stroke-miterlimit:10;}
	.st27{fill:#313032;}
	.st28{fill:#403430;}
	.st29{fill:url(#SVGID_15_);}
	.st30{fill:url(#SVGID_16_);}
	.st31{fill:url(#SVGID_17_);}
	.st32{fill:#FFB932;stroke:#A97C50;stroke-width:0.233;stroke-miterlimit:10;}
	.st33{fill:url(#SVGID_18_);}
	.st34{fill:#414042;}
	.st35{opacity:0.3;fill:#F6F6F6;enable-background:new    ;}
	.st36{fill:#3D3B3D;}
	.st37{fill:url(#SVGID_19_);}
	.st38{fill:#3B3A3A;}
	.st39{fill:#414042;stroke:#3D3B3D;stroke-width:0.4216;stroke-miterlimit:10;}
	.st40{fill:#F6F6F6;}
	.st41{fill:url(#SVGID_20_);}
	.st42{fill:#414042;stroke:#3D3B3D;stroke-width:0.2193;stroke-miterlimit:10;}
	.st43{fill:url(#SVGID_21_);}
	.st44{fill:#E4EBD6;}
	.st45{fill:url(#SVGID_22_);}
	.st46{fill:url(#SVGID_23_);}
</style>
<path class="st0" d="M107.9,534.7c0,7.4,210,13.5,469,13.5s469-6,469-13.5c0-7.4-210-13.5-469-13.5S107.9,527.2,107.9,534.7z"/>
<title>Bulldozer</title>
<g>
	<polygon class="st1" points="596.5,74.3 569.2,81.6 555.6,81.6 548.1,79.6 548.1,74.3 	"/>
	<rect x="368.6" y="53.4" class="st2" width="7.7" height="1.5"/>
	<rect x="368.6" y="55" class="st2" width="7.7" height="3.6"/>
	<rect x="376.3" y="55" class="st2" width="82.3" height="3.6"/>
	<path class="st3" d="M144.3,377.4c-0.9-1.4-1.3-3-0.9-4.5l5-20.1h-33l-14.7,10.8c-1.7,1.3-2.6,3.2-2.5,5.2l5,47.4
		c0.2,2,1.6,3.8,3.7,4.8l60,26.6c3.3,1.5,7.3,0.3,8.9-2.7l0,0c0.1-0.3,0.2-0.4,0.3-0.7l4.4-11.9c0.7-1.7,0.4-3.6-0.7-5.1
		L144.3,377.4z"/>
	
		<linearGradient id="SVGID_1_" gradientUnits="userSpaceOnUse" x1="2294.4443" y1="484.0388" x2="2294.4443" y2="466.0811" gradientTransform="matrix(1.1 0.29 -0.25 0.95 -2255.7 -741.7)">
		<stop  offset="0" style="stop-color:#FFFFFF"/>
		<stop  offset="1" style="stop-color:#000000"/>
	</linearGradient>
	<path class="st4" d="M192.1,392.4L102.9,371c-0.9-0.3-1.4-1-1.2-1.9l2.5-8.3c0.3-0.8,1.1-1.3,2.1-1.1l89.3,21.3
		c0.9,0.3,1.4,1,1.2,1.9l-2.5,8.3c-0.2,0.8-1,1.3-1.9,1.1H192.1z"/>
	<path class="st5" d="M298.2,419.9L177.1,391c-1.2-0.3-2-1.5-1.7-2.6l3.3-11.2c0.4-1.1,1.6-1.8,2.8-1.5l121.1,28.9
		c1.2,0.3,2,1.5,1.7,2.6l-3.3,11.2C300.7,419.5,299.4,420.2,298.2,419.9z"/>
	<path class="st5" d="M187.8,396.4l-7.7-1.8c-1.2-0.3-2-1.4-1.6-2.5l0,0V392l4.9-16.7c0.3-1.1,1.5-1.7,2.7-1.5l0,0h0.1l7.7,1.8
		c1.2,0.3,2,1.4,1.6,2.5l0,0v0.1l-4.9,16.7C190.3,396,189.1,396.6,187.8,396.4L187.8,396.4L187.8,396.4z"/>
	<path class="st6" d="M342.4,394.8L342.4,394.8c-1.4,6.3-8.3,10.4-15.3,9.1L99.9,362.1c-7-1.3-11.5-7.5-10.1-13.8l0,0
		c1.4-6.3,8.3-10.4,15.3-9.1L332.3,381C339.3,382.3,343.8,388.5,342.4,394.8z"/>
	<path class="st6" d="M113.7,334l-40.3,29.6c-1.7,1.3-2.6,3.2-2.5,5.2l5,47.4c0.2,2,1.6,3.8,3.7,4.8l60,26.6
		c3.3,1.5,7.3,0.3,8.9-2.7l0,0c0.1-0.3,0.2-0.4,0.3-0.7l4.4-11.9c0.7-1.7,0.4-3.6-0.7-5.1L117,377.5c-0.9-1.4-1.3-3-0.9-4.5
		l8.2-32.9c0.9-3.2-1.4-6.4-4.9-7.1l0,0c-0.5-0.1-1-0.2-1.5-0.2l0,0C116.4,332.7,114.9,333.1,113.7,334z"/>
	<path class="st3" d="M107.2,342.6c5.9-0.9,11.3,2.8,12.3,8.1s-3.1,10.2-9,11.1c-5.9,0.9-11.3-2.8-12.3-8.1l0,0l0,0
		C97.3,348.4,101.4,343.4,107.2,342.6z"/>
	<path class="st3" d="M75.5,418.6H68c-5.2,31.8,0.1,67.5,26.6,103.8l1.9-2.3C73,484.3,69.4,449.5,75.5,418.6z"/>
	<polygon class="st3" points="60.8,495.4 40,467.2 40,471.8 54.2,491 93.1,524.2 93.7,523.5 	"/>
	<path class="st3" d="M68.1,418.6H40v48.8l20.9,28.2l32.9,28.1l1-1.3C68.2,486,63,450.3,68.1,418.6z"/>
	<path class="st3" d="M68.1,418.6H40v48.8l20.9,28.2l32.9,28.1l1-1.3C68.2,486,63,450.3,68.1,418.6z"/>
	<path class="st3" d="M126.5,418.6h-6.6c-4.6,27.5,0.1,58.4,23.8,89.8l1.7-2C124.3,475.4,121.1,445.3,126.5,418.6z"/>
	<polygon class="st3" points="113.4,485.1 94.7,460.7 94.7,464.6 107.5,481.2 142.3,510 142.7,509.4 	"/>
	<path class="st3" d="M119.9,418.6H94.7v42.2l18.6,24.4l29.4,24.3l0.9-1.1C120,476.9,115.2,446.1,119.9,418.6z"/>
	<path class="st3" d="M119.9,418.6H94.7v42.2l18.6,24.4l29.4,24.3l0.9-1.1C120,476.9,115.2,446.1,119.9,418.6z"/>
	<path class="st3" d="M177.4,416h-6.6c-4.6,27.5,0.1,58.4,23.8,89.8l1.7-2C175.2,473,172,442.8,177.4,416z"/>
	<polygon class="st3" points="164.3,482.6 145.7,458.3 145.7,462.1 158.4,478.8 193.2,507.5 193.6,507 	"/>
	<path class="st3" d="M170.8,416h-25.1v42.2l18.6,24.4l29.4,24.3l0.9-1.1C170.9,474.4,166.2,443.6,170.8,416z"/>
	<path class="st3" d="M170.8,416h-25.1v42.2l18.6,24.4l29.4,24.3l0.9-1.1C170.9,474.4,166.2,443.6,170.8,416z"/>
	<path class="st6" d="M325.4,426.4L325.4,426.4c0.1,7.3-6.5,13.4-14.6,13.4c0,0,0,0-0.1,0l0,0l-264.5,0.8c-8.1,0-14.8-5.9-14.8-13.3
		l0,0l0,0l0,0c0-7.3,6.5-13.4,14.7-13.4l0,0l0,0l264.5-0.8C318.7,413.2,325.3,419.1,325.4,426.4z"/>
	<path class="st6" d="M49.3,417.3c6.3-2.1,13.4,0.7,15.9,6.4c2.4,5.7-0.8,12.1-7.1,14.3c-6.3,2.1-13.4-0.7-15.9-6.4l0,0l0,0
		C39.8,425.8,43,419.4,49.3,417.3z"/>
	
		<linearGradient id="SVGID_2_" gradientUnits="userSpaceOnUse" x1="1002.5886" y1="-3233.9036" x2="1002.5886" y2="-3257.1008" gradientTransform="matrix(6.123234e-17 1 -1 6.123234e-17 -2541.25 -900.83)">
		<stop  offset="0" style="stop-color:#FFFFFF"/>
		<stop  offset="1" style="stop-color:#000000"/>
	</linearGradient>
	<path class="st7" d="M699.6,130.6V72.9c0-0.9,0.8-1.5,1.7-1.5l0,0h14.7c0.9,0,1.7,0.7,1.7,1.5l0,0v57.7c0,0.9-0.8,1.5-1.7,1.5l0,0
		h-14.8C700.3,132.2,699.5,131.5,699.6,130.6L699.6,130.6L699.6,130.6z"/>
	<path class="st5" d="M696.3,200.5v-78.2c0-1.1,1-2,2.3-2h19.9c1.2,0,2.3,0.9,2.3,2v78.3c0,1.1-1,2-2.3,2h-19.8
		C697.4,202.6,696.3,201.7,696.3,200.5L696.3,200.5z"/>
	<path class="st5" d="M692.1,126.6L692.1,126.6c0-2.2,2-4,4.4-4l0,0h24.4c2.5,0,4.4,1.8,4.4,4l0,0l0,0l0,0c0,2.2-2,4-4.4,4l0,0
		h-24.6C694.1,130.5,692.1,128.7,692.1,126.6z"/>
	<path class="st1" d="M256.2,74.7l27.3,8.8l22.5,1.1l-1.4-3.5v-2.6c0-2,5.3-3.8-5.9-3.8H256.2z"/>
	<path class="st3" d="M712.7,200.8l-115-16.2l1.7-9.6c0.9-5.5,6.7-9.2,12.8-8.4l93.1,13.2c6,0.9,10.2,6.1,9.3,11.5L712.7,200.8z
		 M600.4,182.6l110,15.6l1.3-7.4c0.8-4.2-2.5-8.2-7.1-8.9h-0.1l-93.1-13.2c-4.6-0.7-9.1,2.2-9.8,6.4v0.1L600.4,182.6z"/>
	<polygon class="st6" points="749.8,201.9 810.1,220.6 810.1,366.5 749.8,366.5 	"/>
	
		<radialGradient id="SVGID_3_" cx="17.2336" cy="-3958.8862" r="3.27" gradientTransform="matrix(-0.7273 0.538 -0.5951 -0.6575 -1575.9611 -2378.2039)" gradientUnits="userSpaceOnUse">
		<stop  offset="0" style="stop-color:#FFFFFF"/>
		<stop  offset="1" style="stop-color:#000000"/>
	</radialGradient>
	<path class="st8" d="M784.3,245.4c-1-1.2-0.9-3,0.5-3.9s3.3-0.8,4.3,0.4c1,1.2,0.9,3-0.5,3.9C787.3,246.8,785.3,246.6,784.3,245.4z
		"/>
	
		<radialGradient id="SVGID_4_" cx="0.3536" cy="-3964.2866" r="3.27" gradientTransform="matrix(-0.7273 0.538 -0.5951 -0.6575 -1575.9611 -2378.2039)" gradientUnits="userSpaceOnUse">
		<stop  offset="0" style="stop-color:#FFFFFF"/>
		<stop  offset="1" style="stop-color:#000000"/>
	</radialGradient>
	<path class="st9" d="M799.8,239.8c-1-1.2-0.9-3,0.5-3.9s3.3-0.8,4.3,0.4c1,1.2,0.9,3-0.5,3.9C802.9,241.2,800.9,241,799.8,239.8z"
		/>
	
		<radialGradient id="SVGID_5_" cx="14.6136" cy="-3976.5166" r="3.27" gradientTransform="matrix(-0.7273 0.538 -0.5951 -0.6575 -1575.9611 -2378.2039)" gradientUnits="userSpaceOnUse">
		<stop  offset="0" style="stop-color:#FFFFFF"/>
		<stop  offset="1" style="stop-color:#000000"/>
	</radialGradient>
	<path class="st10" d="M796.7,255.6c-1-1.2-0.9-3,0.5-3.9c1.3-0.9,3.3-0.8,4.3,0.4c1,1.2,0.9,3-0.5,3.9
		C799.7,257,797.8,256.8,796.7,255.6z"/>
	<path class="st11" d="M778.5,268.7c-0.4,0.2-1.3-0.7-2.2-1.9l-14.1-20.2c-0.9-1.2-1.2-2.4-0.9-2.6l5.7-3.2c0.4-0.2,1.3,0.7,2.2,1.9
		l14.1,20.2c0.9,1.2,1.2,2.4,0.9,2.6L778.5,268.7z"/>
	<path class="st12" d="M776.1,267l-14.1-20.2c-1.1-1.7-1.8-3.3-1.2-3.6l5.7-3.2c0.5-0.3,1.8,0.9,3,2.6l14.1,20.2
		c1.1,1.7,1.8,3.3,1.2,3.6l-5.7,3.2C778.6,269.8,777.3,268.7,776.1,267z M769,242.7c-0.6-0.8-1.1-1.3-1.3-1.2l-5.7,3.2
		c-0.2,0.1,0,0.9,0.6,1.6l14.1,20.2c0.6,0.8,1.1,1.3,1.3,1.2l5.7-3.2c0.2-0.1,0-0.9-0.6-1.6L769,242.7z"/>
	<path class="st13" d="M799.8,299.4c-0.4,0.2-1.3-0.7-2.2-1.9l-14.1-20.2c-0.9-1.2-1.2-2.4-0.9-2.6l5.7-3.2c0.4-0.2,1.3,0.7,2.2,1.9
		l14.1,20.2c0.9,1.2,1.2,2.4,0.9,2.6L799.8,299.4z"/>
	<path class="st12" d="M797.5,297.7l-14.1-20.2c-1.1-1.7-1.8-3.3-1.2-3.6l5.7-3.2c0.5-0.3,1.8,0.9,3,2.6l14.1,20.2
		c1.1,1.7,1.8,3.3,1.2,3.6l-5.7,3.2C799.9,300.6,798.6,299.4,797.5,297.7z M790.3,273.5c-0.6-0.8-1.1-1.3-1.3-1.2l-5.7,3.2
		c-0.2,0.1,0,0.9,0.6,1.6l14.1,20.2c0.6,0.8,1.1,1.3,1.3,1.2l5.7-3.2c0.2-0.1,0-0.9-0.6-1.6L790.3,273.5z"/>
	<path class="st14" d="M220.6,318.1"/>
	<path class="st3" d="M587.8,368.4H262.3c-6.3,0-11.5-4.7-11.5-10.4v-48.2h337V368.4z"/>
	<polygon class="st15" points="809.9,221.8 816.7,226.9 827.4,257.9 809.9,257.9 	"/>
	<polygon class="st16" points="809.9,256.7 827.4,256.7 843.4,314.6 843.4,373.1 861,373.1 861,393.8 810.9,393.8 	"/>
	<path class="st6" d="M583.3,179.2l42,1.5c0.5,0,1,0.1,1.5,0.2l123,21v166.4H580.4L583.3,179.2z"/>
	<path class="st6" d="M749.8,212.9v-10.9L626.9,181c-0.5-0.1-1-0.2-1.5-0.2l-42-1.5l-0.5,33.6H749.8z"/>
	
		<radialGradient id="SVGID_6_" cx="167.1336" cy="-3814.8862" r="3.26" gradientTransform="matrix(-0.7273 0.538 -0.5951 -0.6575 -1575.9611 -2378.2039)" gradientUnits="userSpaceOnUse">
		<stop  offset="0" style="stop-color:#FFFFFF"/>
		<stop  offset="1" style="stop-color:#000000"/>
	</radialGradient>
	<path class="st17" d="M588.5,231.6c-1-1.2-0.9-3,0.5-3.9c1.3-0.9,3.3-0.8,4.3,0.4c1,1.2,0.9,3-0.5,3.9
		C591.6,232.9,589.6,232.8,588.5,231.6z"/>
	
		<radialGradient id="SVGID_7_" cx="189.1536" cy="-3841.7266" r="3.27" gradientTransform="matrix(-0.7273 0.538 -0.5951 -0.6575 -1575.9611 -2378.2039)" gradientUnits="userSpaceOnUse">
		<stop  offset="0" style="stop-color:#FFFFFF"/>
		<stop  offset="1" style="stop-color:#000000"/>
	</radialGradient>
	<path class="st18" d="M588.5,261.2c-1-1.2-0.9-3,0.5-3.9c1.3-0.9,3.3-0.8,4.3,0.4c1,1.2,0.9,3-0.5,3.9S589.6,262.4,588.5,261.2z"/>
	
		<radialGradient id="SVGID_8_" cx="211.1836" cy="-3868.5566" r="3.27" gradientTransform="matrix(-0.7273 0.538 -0.5951 -0.6575 -1575.9611 -2378.2039)" gradientUnits="userSpaceOnUse">
		<stop  offset="0" style="stop-color:#FFFFFF"/>
		<stop  offset="1" style="stop-color:#000000"/>
	</radialGradient>
	<path class="st19" d="M588.5,290.9c-1-1.2-0.9-3,0.5-3.9c1.3-0.9,3.3-0.8,4.3,0.4c1,1.2,0.9,3-0.5,3.9S589.6,292.1,588.5,290.9z"/>
	
		<radialGradient id="SVGID_9_" cx="40.1036" cy="-3919.1465" r="3.27" gradientTransform="matrix(-0.7273 0.538 -0.5951 -0.6575 -1575.9611 -2378.2039)" gradientUnits="userSpaceOnUse">
		<stop  offset="0" style="stop-color:#FFFFFF"/>
		<stop  offset="1" style="stop-color:#000000"/>
	</radialGradient>
	<path class="st20" d="M743.7,231.6c-1-1.2-0.9-3,0.5-3.9s3.3-0.8,4.3,0.4c1,1.2,0.9,3-0.5,3.9C746.8,232.9,744.8,232.8,743.7,231.6
		z"/>
	
		<radialGradient id="SVGID_10_" cx="62.1236" cy="-3945.9863" r="3.26" gradientTransform="matrix(-0.7273 0.538 -0.5951 -0.6575 -1575.9611 -2378.2039)" gradientUnits="userSpaceOnUse">
		<stop  offset="0" style="stop-color:#FFFFFF"/>
		<stop  offset="1" style="stop-color:#000000"/>
	</radialGradient>
	<path class="st21" d="M743.7,261.2c-1-1.2-0.9-3,0.5-3.9s3.3-0.8,4.3,0.4s0.9,3-0.5,3.9C746.8,262.6,744.8,262.4,743.7,261.2z"/>
	
		<radialGradient id="SVGID_11_" cx="84.1536" cy="-3972.8164" r="3.27" gradientTransform="matrix(-0.7273 0.538 -0.5951 -0.6575 -1575.9611 -2378.2039)" gradientUnits="userSpaceOnUse">
		<stop  offset="0" style="stop-color:#FFFFFF"/>
		<stop  offset="1" style="stop-color:#000000"/>
	</radialGradient>
	<path class="st22" d="M743.7,290.9c-1-1.2-0.9-3,0.5-3.9s3.3-0.8,4.3,0.4s0.9,3-0.5,3.9C746.8,292.3,744.8,292.1,743.7,290.9z"/>
	
		<radialGradient id="SVGID_12_" cx="-893.8764" cy="10.9666" r="3.27" gradientTransform="matrix(-0.5951 -0.6575 0.7273 -0.538 174.7739 -365.4033)" gradientUnits="userSpaceOnUse">
		<stop  offset="0" style="stop-color:#FFFFFF"/>
		<stop  offset="1" style="stop-color:#000000"/>
	</radialGradient>
	<path class="st23" d="M711,216.9c1.3-0.9,3.3-0.8,4.3,0.4c1,1.2,0.9,3-0.5,3.9c-1.3,0.9-3.3,0.8-4.3-0.4
		C709.4,219.6,709.6,217.8,711,216.9z"/>
	
		<radialGradient id="SVGID_13_" cx="-871.8464" cy="-15.8636" r="3.26" gradientTransform="matrix(-0.5951 -0.6575 0.7273 -0.538 174.7739 -365.4033)" gradientUnits="userSpaceOnUse">
		<stop  offset="0" style="stop-color:#FFFFFF"/>
		<stop  offset="1" style="stop-color:#000000"/>
	</radialGradient>
	<path class="st24" d="M678.1,216.9c1.3-0.9,3.3-0.8,4.3,0.4c1,1.2,0.9,3-0.5,3.9s-3.3,0.8-4.3-0.4S676.8,217.8,678.1,216.9z"/>
	
		<radialGradient id="SVGID_14_" cx="-849.8264" cy="-42.7035" r="3.27" gradientTransform="matrix(-0.5951 -0.6575 0.7273 -0.538 174.7739 -365.4033)" gradientUnits="userSpaceOnUse">
		<stop  offset="0" style="stop-color:#FFFFFF"/>
		<stop  offset="1" style="stop-color:#000000"/>
	</radialGradient>
	<path class="st25" d="M645.3,216.9c1.3-0.9,3.3-0.8,4.3,0.4c1,1.2,0.9,3-0.5,3.9s-3.3,0.8-4.3-0.4
		C643.8,219.6,644,217.8,645.3,216.9z"/>
	<path class="st6" d="M640.5,366.5v-35c0-3.4-3.1-6.2-6.9-6.2h-17.9c-4.5,0-8.2-3.3-8.2-7.4l0,0c0-0.3,0-0.7,0.1-1l14.1-84.5
		c0.9-6,6.6-10.4,13.3-10.3h104.2v97.7c0,3.6-3.2,6.5-7.2,6.5h-4.7c-4.3,0-7.9,3.2-7.9,7.2v33.3"/>
	<rect x="275.7" y="313.6" class="st26" width="182.9" height="3.6"/>
	<polygon class="st26" points="275.7,228.8 275.7,231.1 458.6,231.1 458.6,224.7 276.8,224.7 	"/>
	<polygon class="st26" points="376.3,58.6 368.6,58.6 368.6,176.1 289,176.1 287.4,182.5 458.6,182.5 458.6,176.1 376.3,176.1 	"/>
	<rect x="275.7" y="231.1" class="st27" width="182.9" height="82.5"/>
	<polygon class="st28" points="276.8,224.7 458.6,224.7 458.6,182.5 287.4,182.5 	"/>
	<polygon class="st28" points="289,176.1 368.6,176.1 368.6,58.6 318.6,58.6 	"/>
	<rect x="376.3" y="58.6" class="st28" width="82.3" height="117.5"/>
	<rect x="458.6" y="224.7" class="st6" width="5.7" height="6.4"/>
	<rect x="458.6" y="176.1" class="st6" width="5.7" height="6.4"/>
	<polygon class="st2" points="275.7,228.8 275.7,225.2 275.9,224.7 270.9,224.7 273.4,214.7 270,228.2 270,231.1 275.7,231.1 	"/>
	<polygon class="st6" points="288.1,176.1 283.2,176.1 314.1,53.4 281.6,182.5 286.5,182.5 	"/>
	<polygon class="st28" points="458.6,313.6 458.6,317.2 275.7,317.2 275.7,313.6 275.7,231.1 270,231.1 270,322.3 464.3,322.3 
		464.3,231.1 458.6,231.1 	"/>
	<path class="st2" d="M281.6,182.5l-8.1,32.2L281.6,182.5z"/>
	<polygon class="st6" points="275.9,224.7 286.5,182.5 281.6,182.5 273.4,214.7 270.9,224.7 	"/>
	<rect x="458.6" y="182.5" class="st6" width="5.7" height="42.2"/>
	<polygon class="st6" points="288.1,176.1 318.6,55 368.6,55 368.6,53.4 314.1,53.4 283.2,176.1 	"/>
	<polygon class="st6" points="376.3,55 458.6,55 458.6,58.6 458.6,176.1 464.3,176.1 464.3,53.4 376.3,53.4 	"/>
	<polygon class="st6" points="289,176.1 288.1,176.1 286.5,182.5 287.4,182.5 	"/>
	<polygon class="st2" points="275.9,224.7 275.7,225.2 275.7,228.8 276.8,224.7 	"/>
	<polygon class="st6" points="287.4,182.5 286.5,182.5 275.9,224.7 276.8,224.7 	"/>
	<polygon class="st6" points="318.6,58.6 368.6,58.6 368.6,55 318.6,55 288.1,176.1 289,176.1 	"/>
	<path class="st3" d="M587.8,178.7L551.9,58.1c-0.1-0.2-0.2-0.3-0.4-0.3l-81.4-9.5v-0.1H309.6l-1,4l-44,174.8l-0.2,0.6v99.8h205.5
		v-10h117.8L587.8,178.7L587.8,178.7z M464.3,176.1v146.2H270v-94.1l3.4-13.5l8.1-32.2l32.5-129.1h150.2L464.3,176.1L464.3,176.1z"
		/>
	<path class="st28" d="M476.5,312.9l-0.2-257.3l50.3,5.3c12.5,1.3,22.8,9.4,26.1,20.3l28.5,96.1c0.6,1.8,0.9,3.7,0.9,5.6v119.5
		c0,5.9-5.3,10.7-11.8,10.7l0,0L476.5,312.9L476.5,312.9z"/>
	<path class="st3" d="M223.8,305.5l17.4-69.6l24.7-27.2l163,23.5c5.8,0.9,9.9,5.3,9.8,10.6l-1.3,81l-202.5-5.3
		c-6.5-0.3-11.6-5.1-11.3-11v-0.1C223.6,306.8,223.6,306.1,223.8,305.5z"/>
	<path class="st6" d="M237.6,297.3l13.6-54.6c0.4-1.4,1-2.6,2.1-3.8l13.6-15c2.3-2.6,5.9-3.8,9.4-3.2l142.3,20.4
		c5,0.7,8.7,4.6,8.6,9.2l-0.9,53.5c-0.1,5.1-4.7,9.1-10.4,9.1h-0.1l-168.7-4.4c-5.6-0.2-10-4.4-9.9-9.4
		C237.4,298.4,237.4,297.8,237.6,297.3L237.6,297.3z"/>
	<path class="st3" d="M308.8,247.8h14.7c0.4,0,0.8-0.3,0.8-0.7l0,0v-1.5c0-0.3-0.3-0.7-0.8-0.7l0,0h-14.7c-0.4,0-0.8,0.3-0.8,0.7
		l0,0v1.6C308.1,247.5,308.4,247.8,308.8,247.8z"/>
	<path class="st3" d="M308.8,253.8h14.7c0.4,0,0.8-0.3,0.8-0.7l0,0v-1.7c0-0.3-0.3-0.7-0.8-0.7l0,0h-14.7c-0.4,0-0.8,0.3-0.8,0.7
		l0,0v1.6C308.1,253.3,308.4,253.8,308.8,253.8z"/>
	<path class="st3" d="M308.8,259.6h14.7c0.4,0,0.8-0.3,0.8-0.7l0,0v-1.6c0-0.3-0.3-0.7-0.8-0.7l0,0h-14.7c-0.4,0-0.8,0.3-0.8,0.7
		l0,0v1.6C308.1,259.2,308.4,259.6,308.8,259.6z"/>
	<path class="st3" d="M308.8,265.4h14.7c0.4,0,0.8-0.3,0.8-0.7l0,0v-1.6c0-0.3-0.3-0.7-0.8-0.7l0,0h-14.7c-0.4,0-0.8,0.3-0.8,0.7
		l0,0v1.6C308.1,265.1,308.4,265.4,308.8,265.4z"/>
	<path class="st3" d="M308.8,271.3h14.7c0.4,0,0.8-0.3,0.8-0.7l0,0V269c0-0.3-0.3-0.7-0.8-0.7l0,0h-14.7c-0.4,0-0.8,0.3-0.8,0.7l0,0
		v1.6C308.1,271,308.4,271.3,308.8,271.3z"/>
	<path class="st3" d="M308.8,277.2h14.7c0.4,0,0.8-0.3,0.8-0.7l0,0v-1.6c0-0.3-0.3-0.7-0.8-0.7l0,0h-14.7c-0.4,0-0.8,0.3-0.8,0.7
		l0,0v1.6C308.1,276.8,308.4,277.2,308.8,277.2z"/>
	<path class="st3" d="M308.8,283h14.7c0.4,0,0.8-0.3,0.8-0.7l0,0v-1.6c0-0.3-0.3-0.7-0.8-0.7l0,0h-14.7c-0.4,0-0.8,0.3-0.8,0.7l0,0
		v1.6C308.1,282.8,308.4,283,308.8,283z"/>
	<path class="st3" d="M287.1,247.8h14.7c0.4,0,0.8-0.3,0.8-0.7l0,0v-1.5c0-0.3-0.3-0.7-0.8-0.7l0,0h-14.8c-0.4,0-0.8,0.3-0.8,0.7
		l0,0v1.6C286.4,247.5,286.7,247.8,287.1,247.8L287.1,247.8L287.1,247.8z"/>
	<path class="st3" d="M287.1,253.8h14.7c0.4,0,0.8-0.3,0.8-0.7l0,0v-1.7c0-0.3-0.3-0.7-0.8-0.7l0,0h-14.8c-0.4,0-0.8,0.3-0.8,0.7
		l0,0v1.6C286.4,253.4,286.7,253.7,287.1,253.8L287.1,253.8L287.1,253.8z"/>
	<path class="st3" d="M287.1,259.6h14.7c0.4,0,0.8-0.3,0.8-0.7l0,0v-1.6c0-0.3-0.3-0.7-0.8-0.7l0,0h-14.8c-0.4,0-0.8,0.3-0.8,0.7
		l0,0v1.6C286.4,259.2,286.7,259.6,287.1,259.6L287.1,259.6L287.1,259.6z"/>
	<path class="st3" d="M287.1,265.4h14.7c0.4,0,0.8-0.3,0.8-0.7l0,0v-1.6c0-0.3-0.3-0.7-0.8-0.7l0,0h-14.8c-0.4,0-0.8,0.3-0.8,0.7
		l0,0v1.6c0,0.3,0.3,0.7,0.7,0.7H287.1z"/>
	<path class="st3" d="M287.1,271.3h14.7c0.4,0,0.8-0.3,0.8-0.7l0,0V269c0-0.3-0.3-0.7-0.8-0.7l0,0h-14.8c-0.4,0-0.8,0.3-0.8,0.7l0,0
		v1.6c0,0.3,0.3,0.7,0.7,0.7H287.1z"/>
	<path class="st3" d="M287.1,277.2h14.7c0.4,0,0.8-0.3,0.8-0.7l0,0v-1.6c0-0.3-0.3-0.7-0.8-0.7l0,0h-14.8c-0.4,0-0.8,0.3-0.8,0.7
		l0,0v1.6C286.4,276.8,286.7,277.2,287.1,277.2L287.1,277.2L287.1,277.2z"/>
	<path class="st3" d="M287.1,283h14.7c0.4,0,0.8-0.3,0.8-0.7l0,0v-1.6c0-0.3-0.3-0.7-0.8-0.7l0,0h-14.8c-0.4,0-0.8,0.3-0.8,0.7l0,0
		v1.6C286.4,282.7,286.7,283,287.1,283L287.1,283L287.1,283z"/>
	<path class="st3" d="M265.4,247.8h14.8c0.4,0,0.8-0.3,0.8-0.7l0,0v-1.5c0-0.3-0.3-0.7-0.8-0.7l0,0h-14.8c-0.4,0-0.8,0.3-0.8,0.7
		l0,0v1.6C264.7,247.5,265,247.8,265.4,247.8z"/>
	<path class="st3" d="M265.4,253.8h14.8c0.4,0,0.8-0.3,0.8-0.7l0,0v-1.7c0-0.3-0.3-0.7-0.8-0.7l0,0h-14.8c-0.4,0-0.8,0.3-0.8,0.7
		l0,0v1.6C264.7,253.4,265,253.7,265.4,253.8z"/>
	<path class="st3" d="M265.4,259.6h14.8c0.4,0,0.8-0.3,0.8-0.7l0,0v-1.6c0-0.3-0.3-0.7-0.8-0.7l0,0h-14.8c-0.4,0-0.8,0.3-0.8,0.7
		l0,0v1.6C264.7,259.2,265,259.6,265.4,259.6z"/>
	<path class="st3" d="M265.4,265.4h14.8c0.4,0,0.8-0.3,0.8-0.7l0,0v-1.6c0-0.3-0.3-0.7-0.8-0.7l0,0h-14.8c-0.4,0-0.8,0.3-0.8,0.7
		l0,0v1.6C264.7,265.1,264.9,265.4,265.4,265.4C265.4,265.5,265.4,265.5,265.4,265.4L265.4,265.4z"/>
	<path class="st3" d="M265.4,271.3h14.8c0.4,0,0.8-0.3,0.8-0.7l0,0V269c0-0.3-0.3-0.7-0.8-0.7l0,0h-14.8c-0.4,0-0.8,0.3-0.8,0.7l0,0
		v1.6C264.7,270.9,264.9,271.3,265.4,271.3L265.4,271.3L265.4,271.3z"/>
	<path class="st3" d="M265.4,277.2h14.8c0.4,0,0.8-0.3,0.8-0.7l0,0v-1.6c0-0.3-0.3-0.7-0.8-0.7l0,0h-14.8c-0.4,0-0.8,0.3-0.8,0.7
		l0,0v1.6C264.7,276.8,265,277.2,265.4,277.2z"/>
	<path class="st3" d="M265.4,283h14.8c0.4,0,0.8-0.3,0.8-0.7l0,0v-1.6c0-0.3-0.3-0.7-0.8-0.7l0,0h-14.8c-0.4,0-0.8,0.3-0.8,0.7l0,0
		v1.6C264.7,282.7,265,283,265.4,283z"/>
	<path class="st3" d="M730.3,234.5V317H683c-4.7,0-8.6-3.5-8.7-7.8v-0.7l0.8-4.2l0.9-5l0.9-5l0.9-5l0.9-5l0.9-5l0.8-4.4l3.6-19.8
		c0.8-3.2,1.5-6.1,2.4-8.7c0.1-0.3,0.2-0.7,0.4-1c2.6-6.9,6.6-11.1,15.7-11.1L730.3,234.5L730.3,234.5z"/>
	<path class="st3" d="M709.1,249.8h14.4c0.6,0,0.9-0.3,0.9-0.9v-3.2c0-0.5-0.4-0.9-0.9-0.9h-14.4c-0.6,0-0.9,0.3-0.9,0.9v3.2
		C708.1,249.4,708.6,249.8,709.1,249.8z"/>
	<path class="st3" d="M709.1,259.7h14.4c0.6,0,0.9-0.3,0.9-0.9v-3.2c0-0.5-0.4-0.9-0.9-0.9h-14.4c-0.6,0-0.9,0.3-0.9,0.9v3.2
		C708.1,259.3,708.6,259.7,709.1,259.7z"/>
	<path class="st3" d="M709.1,269.6h14.4c0.6,0,0.9-0.3,0.9-0.9v-3.2c0-0.5-0.4-0.9-0.9-0.9h-14.4c-0.6,0-0.9,0.3-0.9,0.9v3.2
		C708.1,269.2,708.5,269.6,709.1,269.6z"/>
	<path class="st3" d="M709.1,279.5h14.4c0.6,0,0.9-0.3,0.9-0.9v-3.2c0-0.5-0.4-0.9-0.9-0.9h-14.4c-0.6,0-0.9,0.3-0.9,0.9v3.2
		C708.1,279.1,708.5,279.5,709.1,279.5z"/>
	<path class="st3" d="M709.1,289.4h14.4c0.6,0,0.9-0.3,0.9-0.9v-3.2c0-0.5-0.4-0.9-0.9-0.9h-14.4c-0.6,0-0.9,0.3-0.9,0.9v3.2
		C708.1,289,708.6,289.4,709.1,289.4z"/>
	<path class="st3" d="M709.1,299.3h14.4c0.6,0,0.9-0.3,0.9-0.9v-3.2c0-0.5-0.4-0.9-0.9-0.9h-14.4c-0.6,0-0.9,0.3-0.9,0.9v3.2
		C708.1,298.8,708.6,299.3,709.1,299.3z"/>
	<path class="st3" d="M709.1,309.3h14.4c0.6,0,0.9-0.3,0.9-0.9v-3.2c0-0.5-0.4-0.9-0.9-0.9h-14.4c-0.6,0-0.9,0.3-0.9,0.9v3.2
		C708.1,308.8,708.6,309.2,709.1,309.3z"/>
	<path class="st3" d="M687.4,249.8h14.4c0.6,0,0.9-0.3,0.9-0.9v-3.2c0-0.5-0.4-0.9-0.9-0.9h-14.4c-0.6,0-0.9,0.3-0.9,0.9v3.2
		C686.5,249.5,686.9,249.8,687.4,249.8z"/>
	<path class="st3" d="M687.4,259.7h14.4c0.6,0,0.9-0.3,0.9-0.9v-3.2c0-0.5-0.4-0.9-0.9-0.9h-14.4c-0.6,0-0.9,0.3-0.9,0.9v3.2
		C686.5,259.4,686.9,259.7,687.4,259.7z"/>
	<path class="st3" d="M687.4,269.6h14.4c0.6,0,0.9-0.3,0.9-0.9v-3.2c0-0.5-0.4-0.9-0.9-0.9h-14.4c-0.6,0-0.9,0.3-0.9,0.9v3.2
		C686.5,269.1,686.9,269.6,687.4,269.6L687.4,269.6L687.4,269.6z"/>
	<path class="st3" d="M687.4,279.5h14.4c0.6,0,0.9-0.3,0.9-0.9v-3.2c0-0.5-0.4-0.9-0.9-0.9h-14.4c-0.6,0-0.9,0.3-0.9,0.9v3.2
		C686.5,279,686.9,279.5,687.4,279.5L687.4,279.5L687.4,279.5z"/>
	<path class="st3" d="M687.4,289.4h14.4c0.6,0,0.9-0.3,0.9-0.9v-3.2c0-0.5-0.4-0.9-0.9-0.9h-14.4c-0.6,0-0.9,0.3-0.9,0.9v3.2
		C686.5,288.9,686.9,289.4,687.4,289.4L687.4,289.4L687.4,289.4z"/>
	<path class="st3" d="M687.4,299.3h14.4c0.6,0,0.9-0.3,0.9-0.9v-3.2c0-0.5-0.4-0.9-0.9-0.9h-14.4c-0.6,0-0.9,0.3-0.9,0.9v3.2
		C686.5,298.9,686.9,299.3,687.4,299.3z"/>
	<path class="st3" d="M687.4,309.3h14.4c0.6,0,0.9-0.3,0.9-0.9v-3.2c0-0.5-0.4-0.9-0.9-0.9h-14.4c-0.6,0-0.9,0.3-0.9,0.9v3.2
		C686.5,308.8,686.9,309.3,687.4,309.3z"/>
	<path class="st3" d="M681,276.2v1.6c0,0.8-0.6,1.4-1.3,1.6l0.8-4.4C680.8,275.4,681,275.8,681,276.2z"/>
	<path class="st3" d="M681,286v1.7c0,0.9-0.9,1.6-1.8,1.6l0,0h-1.3l0.9-5h0.4C680.2,284.4,680.9,285.1,681,286z"/>
	<path class="st3" d="M681,295.9v1.7c0,0.9-0.9,1.6-1.8,1.6l0,0h-3.1l0.9-5h2.2C680.2,294.3,680.9,295,681,295.9z"/>
	<path class="st3" d="M681,305.8v1.7c0,0.9-0.9,1.6-1.8,1.6l0,0h-4.8v-0.7l0.8-4.2h4C680.1,304.2,680.9,304.9,681,305.8L681,305.8
		L681,305.8z"/>
	
		<radialGradient id="SVGID_15_" cx="143.9936" cy="-3585.8462" r="3.27" gradientTransform="matrix(-0.7273 0.538 -0.5951 -0.6575 -1575.9611 -2378.2039)" gradientUnits="userSpaceOnUse">
		<stop  offset="0" style="stop-color:#FFFFFF"/>
		<stop  offset="1" style="stop-color:#000000"/>
	</radialGradient>
	<path class="st29" d="M468.2,67.9c-1-1.2-0.9-3,0.5-3.9c1.3-0.9,3.3-0.8,4.3,0.4c1,1.2,0.9,3-0.5,3.9
		C471.1,69.2,469.3,69.1,468.2,67.9z"/>
	
		<radialGradient id="SVGID_16_" cx="156.9736" cy="-3601.6665" r="3.27" gradientTransform="matrix(-0.7273 0.538 -0.5951 -0.6575 -1575.9611 -2378.2039)" gradientUnits="userSpaceOnUse">
		<stop  offset="0" style="stop-color:#FFFFFF"/>
		<stop  offset="1" style="stop-color:#000000"/>
	</radialGradient>
	<path class="st30" d="M468.2,85.4c-1-1.2-0.9-3,0.5-3.9c1.3-0.9,3.3-0.8,4.3,0.4c1,1.2,0.9,3-0.5,3.9
		C471.1,86.7,469.3,86.6,468.2,85.4z"/>
	
		<radialGradient id="SVGID_17_" cx="169.9636" cy="-3617.4863" r="3.27" gradientTransform="matrix(-0.7273 0.538 -0.5951 -0.6575 -1575.9611 -2378.2039)" gradientUnits="userSpaceOnUse">
		<stop  offset="0" style="stop-color:#FFFFFF"/>
		<stop  offset="1" style="stop-color:#000000"/>
	</radialGradient>
	<path class="st31" d="M468.2,102.8c-1-1.2-0.9-3,0.5-3.9c1.3-0.9,3.3-0.8,4.3,0.4c1,1.2,0.9,3-0.5,3.9
		C471.1,104.1,469.3,104,468.2,102.8z"/>
	<rect x="852.3" y="427" class="st32" width="9.1" height="36.4"/>
	<path class="st3" d="M985.8,282.1V278h-8.3c0,0-34.9,171.7,122.1,223v-3.2C966.6,448.2,981.8,307.9,985.8,282.1z"/>
	<rect x="922.7" y="278" class="st6" width="9.1" height="14.2"/>
	<polygon class="st6" points="915.5,292.2 906.4,292.2 922.7,305.3 931.8,305.3 	"/>
	<polygon class="st6" points="892.8,388.3 861.3,369.9 861.3,313.1 852.3,313.1 852.3,369.9 883.7,388.3 882.1,427 891.2,427 	"/>
	<polygon class="st6" points="944.2,463.4 935.1,463.4 1041.2,497.5 1099.4,503.7 1099.4,502.8 1050.2,497.5 	"/>
	<rect x="877.1" y="305.3" class="st6" width="9.1" height="7.9"/>
	<path class="st6" d="M977.4,278h-45.6v14.2h-16.3l16.3,13.1h-45.6v7.9h-24.8v56.7l31.5,18.4l-1.7,38.7h-29.8v36.4h82.9l106.1,34.1
		l49.2,5.3V501C942.5,449.7,977.4,278,977.4,278z"/>
	<path class="st3" d="M977.4,278h-42.1v49.2h16.8v8.2h-16.8v25.8h22v7h-22v30.5h27.2v10.5h-27.2v26.9h37.6v9.4h-37.6v17.9h8.9
		l106.1,34.1l49.2,5.3V501C942.5,449.7,977.4,278,977.4,278z"/>
	<polygon class="st3" points="985.7,272.2 985.2,269.6 961,249.3 941.7,254.4 922.7,277.8 985.7,277.8 	"/>
	<path class="st6" d="M924.8,322.7c-1-1.2-0.9-3,0.5-3.9c1.3-0.9,3.3-0.8,4.3,0.4c1,1.2,0.9,3-0.5,3.9
		C927.8,324,925.8,323.9,924.8,322.7z"/>
	<path class="st6" d="M924.8,359.9c-1-1.2-0.9-3,0.5-3.9c1.3-0.9,3.3-0.8,4.3,0.4c1,1.2,0.9,3-0.5,3.9S925.8,361.1,924.8,359.9z"/>
	<path class="st6" d="M924.8,397.2c-1-1.2-0.9-3,0.5-3.9c1.3-0.9,3.3-0.8,4.3,0.4c1,1.2,0.9,3-0.5,3.9
		C927.8,398.5,925.9,398.2,924.8,397.2z"/>
	<path class="st6" d="M924.8,434.3c-1-1.2-0.9-3,0.5-3.9c1.3-0.9,3.3-0.8,4.3,0.4c1,1.2,0.9,3-0.5,3.9S925.8,435.5,924.8,434.3z"/>
	
		<linearGradient id="SVGID_18_" gradientUnits="userSpaceOnUse" x1="-1521.145" y1="-2190.6802" x2="-1521.145" y2="-2209.9136" gradientTransform="matrix(-0.9982 -5.982891e-02 5.982891e-02 -0.9982 -734.4579 -1937.276)">
		<stop  offset="0" style="stop-color:#FFFFFF"/>
		<stop  offset="1" style="stop-color:#000000"/>
	</linearGradient>
	<path class="st33" d="M606.2,341.2l93.1,5c1,0,1.9,0.9,1.8,1.8l0,0v0.1l-0.8,11c0,0.9-0.9,1.7-2,1.6l0,0h-0.1l-93.1-5
		c-1,0-1.9-0.9-1.8-1.8l0,0v-0.1l0.8-11C604.2,341.9,605.2,341.1,606.2,341.2z"/>
	<path class="st5" d="M494.8,332.7l126.3,6.7c1.4,0.1,2.6,1.2,2.5,2.5l-0.9,14.9c-0.1,1.3-1.3,2.3-2.7,2.2l-126.4-6.7
		c-1.4-0.1-2.6-1.2-2.5-2.5l0.9-14.9C492.1,333.6,493.3,332.6,494.8,332.7L494.8,332.7z"/>
	<path class="st5" d="M609.9,335.3l7.6,0.4c1.4,0.1,2.6,1.2,2.5,2.5l-1.4,21.9c-0.1,1.3-1.3,2.3-2.7,2.2l-7.6-0.4
		c-1.4-0.1-2.6-1.2-2.5-2.5l1.4-21.9C607.2,336.2,608.4,335.2,609.9,335.3z"/>
	<path class="st6" d="M306.8,328.4l-26.7,4c-5.1,0.8-9,5-9.8,10.3c-0.8,4.3,0.5,8.6,3.5,12c2,2.2,4.9,3.6,8,3.8l194.3,9.1
		c1.1,0.1,2.3-0.1,3.4-0.4l25.5-7.1c1.2-0.3,2.4-0.9,3.4-1.6l8-5.6c0.9-0.7,1.8-1.5,2.6-2.5l11.6-15c1.3-1.7,2.2-3.6,2.6-5.6
		c0.1-0.4,0.2-0.9,0.2-1.4H306.8z"/>
	<path class="st6" d="M306.8,328.4l-26.7,4c-5.1,0.8-9,5-9.8,10.3c0.6,2,1.7,3.8,3.1,5.4c2,2.2,4.9,3.6,8.1,3.8l197.3,9.2
		c1.2,0.1,2.4-0.1,3.5-0.4l26-7.2c1.2-0.4,2.5-0.9,3.5-1.6l8.1-5.7c1-0.7,1.9-1.5,2.6-2.5l10.8-13.9c0.1-0.4,0.2-0.9,0.2-1.4
		L306.8,328.4L306.8,328.4z"/>
	<path class="st34" d="M768.9,523v-6h5.7v6H768.9z M746.9,523h-5.5v-6h5.5V523z M719.3,523h-5.5v-6h5.5V523z M691.8,523h-5.5v-6h5.5
		V523z M664.2,523h-5.5v-6h5.5V523z M636.6,523h-5.5v-6h5.5V523z M609,523h-5.5v-6h5.5V523z M581.6,523H576v-6h5.6V523L581.6,523z
		 M554,523h-5.5v-6h5.5V523z M526.4,523h-5.5v-6h5.5V523z M498.8,523h-5.5v-6h5.5V523z M471.3,523h-5.5v-6h5.5V523z M443.7,523h-5.5
		v-6h5.5V523z M416.2,523h-5.5v-6h5.6L416.2,523z M388.7,523h-5.5v-6h5.5V523z M361.1,523h-5.5v-6h5.5V523z M333.5,523H328v-6h5.5
		V523z M305.8,522.7c-1.9-0.2-3.8-0.4-5.7-0.7l1-5.9c1.8,0.3,3.5,0.5,5.3,0.6L305.8,522.7z M797.3,520.4l-1.7-5.7
		c1.7-0.4,3.4-0.9,5.1-1.4l2.1,5.6C801,519.4,799.2,519.9,797.3,520.4L797.3,520.4z M278.3,516.1c-1.7-0.7-3.5-1.5-5.1-2.3l3.1-5.3
		c1.5,0.8,3.1,1.5,4.7,2.1L278.3,516.1z M823.4,510l-3.6-5c1.5-0.9,2.9-1.8,4.3-2.7l4,4.8C826.5,508,825,509.1,823.4,510z
		 M254.5,501.9c-1.4-1.2-2.7-2.4-4.1-3.6l4.7-4.1c1.2,1.1,2.5,2.3,3.8,3.3L254.5,501.9z M844.4,492.7l-5.1-3.7
		c1.1-1.3,2.2-2.6,3.2-3.8l5.4,3.4C846.8,490,845.6,491.3,844.4,492.7z M236.7,481.8c-0.9-1.5-1.8-3.1-2.6-4.6l6-2.6
		c0.8,1.5,1.6,2.8,2.5,4.3L236.7,481.8z M858.3,470.2l-6.1-2c0.6-1.5,1.1-3,1.7-4.5l6.3,1.7C859.5,466.9,859,468.5,858.3,470.2
		L858.3,470.2z M226.9,457.6c-0.4-1.7-0.7-3.4-0.9-5.1l6.5-0.8c0.2,1.5,0.5,3.2,0.9,4.7L226.9,457.6z M863.8,445l-6.6-0.2V440
		l6.6-0.2v2.6C863.8,443.2,863.8,444,863.8,445L863.8,445z M232.6,432.7l-6.5-0.8c0.3-1.7,0.6-3.4,0.9-5.1l6.4,1.1
		C233.1,429.3,232.8,431,232.6,432.7L232.6,432.7z M853.9,421.1c-0.5-1.5-1-3.1-1.7-4.5l6.1-2c0.7,1.6,1.2,3.2,1.8,5L853.9,421.1z
		 M240.1,409.8l-6-2.6c0.9-1.5,1.7-3.1,2.6-4.6l5.8,2.9C241.7,406.8,240.9,408.3,240.1,409.8L240.1,409.8z M842.4,399.5l-3.1-3.8
		l5.2-3.7c1.1,1.4,2.4,2.7,3.4,4.2L842.4,399.5z M255.2,390.1l-4.7-4.2c1.3-1.2,2.7-2.5,4.2-3.6l4.4,4.4
		C257.8,387.9,256.4,389,255.2,390.1z M824.1,382.4c-1.4-0.9-2.8-1.9-4.3-2.7l3.6-5c1.6,0.9,3.1,2,4.7,3L824.1,382.4z M276.5,375.9
		l-3-5.3c1.7-0.8,3.4-1.5,5.1-2.2l2.6,5.5C279.6,374.4,278,375.1,276.5,375.9L276.5,375.9z M800.9,371.3c-1.7-0.5-3.4-0.9-5.1-1.4
		l1.7-5.7c1.8,0.4,3.7,0.9,5.5,1.5L800.9,371.3z M301.5,368.4l-1-5.9c1.9-0.3,3.8-0.5,5.7-0.7l0.7,5.9
		C304.9,367.9,303.1,368.2,301.5,368.4L301.5,368.4z M774.7,367.4h-5.5v-6h5.6L774.7,367.4z M747.3,367.4h-5.5v-6h5.5V367.4z
		 M719.7,367.4h-5.5v-6h5.5V367.4z M692.1,367.4h-5.5v-6h5.5V367.4z M664.5,367.4H659v-6h5.5V367.4z M637.1,367.4h-5.5v-6h5.5V367.4
		z M609.4,367.4h-5.5v-6h5.5V367.4z M581.8,367.4h-5.5v-6h5.5V367.4z M554.4,367.4H549v-6h5.5V367.4z M526.8,367.4h-5.6v-6h5.5
		L526.8,367.4L526.8,367.4z M499.2,367.4h-5.5v-6h5.5V367.4z M471.6,367.4h-5.5v-6h5.5V367.4z M444.1,367.4h-5.5v-6h5.5V367.4z
		 M416.5,367.4h-5.5v-6h5.5V367.4z M389,367.4h-5.5v-6h5.5V367.4z M361.4,367.4h-5.5v-6h5.5V367.4z M333.9,367.4h-5.5v-6h5.5V367.4z
		"/>
	<path class="st12" d="M815.9,520.2h-542c-24.8,0-45-18.2-45-40.6l0,0v-74.5c0-22.5,20.1-40.6,45-40.6h542c24.8,0,45,18.2,45,40.6
		v74.4C860.9,501.9,840.8,520.1,815.9,520.2C816,520.2,815.9,520.2,815.9,520.2L815.9,520.2z"/>
	<path class="st35" d="M315,505.2c-38.4,0-69.6-28.2-69.6-62.9s31.2-62.9,69.6-62.9h0.1h459.6c38.4,0,69.6,28.2,69.6,62.9
		s-31.2,62.9-69.6,62.9H315z"/>
	<path class="st3" d="M374.8,416.7h371.5c15.6-14.3,41.1-14.5,56.9-0.3c15.8,14.2,16.1,37.1,0.4,51.4c-15.5,14.3-40.8,14.5-56.7,0.6
		H374.7c-15.8-0.1-28.5-11.6-28.6-25.9l0,0C346.3,428.2,359,416.7,374.8,416.7z"/>
	<path class="st36" d="M401.8,442.2c0,38.6-34.7,69.9-77.4,69.9s-77.3-31.3-77.3-69.9s34.7-69.9,77.4-69.9
		C367.2,372.3,401.8,403.5,401.8,442.2L401.8,442.2z"/>
	<path d="M401.8,442.2c0,38.6-34.7,69.9-77.4,69.9s-77.3-31.3-77.3-69.9s34.7-69.9,77.4-69.9C367.2,372.3,401.8,403.5,401.8,442.2
		L401.8,442.2z"/>
	
		<radialGradient id="SVGID_19_" cx="331.43" cy="1668.6" r="70.25" gradientTransform="matrix(-0.9445 0 0 0.8539 637.5492 -982.6102)" gradientUnits="userSpaceOnUse">
		<stop  offset="0" style="stop-color:#231F20"/>
		<stop  offset="0.41" style="stop-color:#252122"/>
		<stop  offset="0.56" style="stop-color:#2B2729"/>
		<stop  offset="0.67" style="stop-color:#353334"/>
		<stop  offset="0.74" style="stop-color:#414042"/>
		<stop  offset="0.77" style="stop-color:#4D4D4F"/>
		<stop  offset="0.8" style="stop-color:#555658"/>
		<stop  offset="0.85" style="stop-color:#58595B"/>
		<stop  offset="0.92" style="stop-color:#414042"/>
	</radialGradient>
	<path class="st37" d="M390.9,442.2c0,33.1-29.7,60-66.3,60s-66.4-26.8-66.4-59.9s29.7-60,66.3-60S390.9,409.1,390.9,442.2
		L390.9,442.2z"/>
	<path class="st12" d="M381.4,442.2c0,28.4-25.5,51.5-57,51.5s-57-23.1-57-51.5s25.5-51.5,57-51.5l0,0l0,0
		C355.9,390.7,381.4,413.8,381.4,442.2z"/>
	<path class="st38" d="M381.4,442.2c0,28.4-25.5,51.5-57,51.5s-57-23.1-57-51.5s25.5-51.5,57-51.5l0,0l0,0
		C355.9,390.7,381.4,413.8,381.4,442.2z"/>
	<path class="st39" d="M364.7,442.2c0,20.1-18,36.4-40.2,36.4s-40.2-16.3-40.2-36.4c0-20.1,18-36.4,40.2-36.4l0,0l0,0
		C346.7,405.8,364.7,422.2,364.7,442.2z"/>
	<path class="st40" d="M352.4,442.6c0,13.9-12.5,25.2-27.9,25.2c-15.4,0-27.9-11.3-27.9-25.2s12.5-25.2,27.9-25.2
		C339.9,417.5,352.4,428.7,352.4,442.6L352.4,442.6z"/>
	<path class="st40" d="M335.5,430.1l12.6-14.3c4.4,3.2,8,7.3,10.6,12l-18.2,8C339.4,433.5,337.7,431.5,335.5,430.1z"/>
	<path class="st40" d="M348.3,469.5c-4.4,3.2-9.6,5.6-15.2,6.7l-4.5-17.8c2.6-0.5,5-1.6,7.1-3.1L348.3,469.5z"/>
	<path class="st40" d="M308.6,435.7l-18.2-7.9c2.5-4.6,6-8.7,10.5-12l12.7,14.3C311.4,431.6,309.7,433.5,308.6,435.7z"/>
	<path class="st40" d="M342.3,442.6L342.3,442.6l20.2-0.1v0.1c0,5.2-1.2,10.3-3.8,14.9l-18.2-7.9C341.7,447.5,342.3,445,342.3,442.6
		z"/>
	<path class="st40" d="M306.8,442.7c0,2.4,0.6,4.9,1.8,7l-18.2,7.9c-2.6-4.6-3.9-9.7-3.8-14.9H306.8z"/>
	<path class="st40" d="M316,409.2c5.6-1.1,11.3-1.2,16.9-0.1l-4.4,17.8c-2.6-0.5-5.3-0.5-7.9,0L316,409.2z"/>
	<path class="st40" d="M320.6,458.4l-4.4,17.8c-5.6-1.1-10.8-3.4-15.3-6.6l12.7-14.3C315.6,456.7,318,457.8,320.6,458.4z"/>
	<path class="st36" d="M816.5,442.2c0,20.1-18,36.4-40.2,36.4S736,462.3,736,442.2c0-20.1,18-36.4,40.2-36.4l0,0l0,0
		C798.4,405.8,816.5,422.2,816.5,442.2z"/>
	<path d="M816.5,442.2c0,20.1-18,36.4-40.2,36.4S736,462.3,736,442.2c0-20.1,18-36.4,40.2-36.4l0,0l0,0
		C798.4,405.8,816.5,422.2,816.5,442.2z"/>
	
		<radialGradient id="SVGID_20_" cx="56.18" cy="-227.95" r="36.55" gradientTransform="matrix(0.9445 0 0 -0.8539 -33.7607 43.8191)" gradientUnits="userSpaceOnUse">
		<stop  offset="0" style="stop-color:#231F20"/>
		<stop  offset="0.41" style="stop-color:#252122"/>
		<stop  offset="0.56" style="stop-color:#2B2729"/>
		<stop  offset="0.67" style="stop-color:#353334"/>
		<stop  offset="0.74" style="stop-color:#414042"/>
		<stop  offset="0.77" style="stop-color:#4D4D4F"/>
		<stop  offset="0.8" style="stop-color:#555658"/>
		<stop  offset="0.85" style="stop-color:#58595B"/>
		<stop  offset="0.92" style="stop-color:#414042"/>
	</radialGradient>
	<path class="st41" d="M810.8,442.2c0,17.2-15.4,31.2-34.5,31.2c-19.1,0-34.5-13.9-34.5-31.2c0-17.2,15.4-31.2,34.5-31.2l0,0
		C795.4,411.1,810.8,425,810.8,442.2z"/>
	<path class="st12" d="M805.9,442.2c0,14.8-13.2,26.6-29.6,26.6c-16.3,0-29.5-12-29.5-26.7c0-14.8,13.2-26.6,29.6-26.6
		C792.7,415.5,805.9,427.4,805.9,442.2L805.9,442.2z"/>
	<path class="st38" d="M805.9,442.2c0,14.8-13.2,26.6-29.6,26.6c-16.3,0-29.5-12-29.5-26.7c0-14.8,13.2-26.6,29.6-26.6
		C792.7,415.5,805.9,427.4,805.9,442.2L805.9,442.2z"/>
	<path class="st42" d="M797.2,442.2c0,10.4-9.4,18.9-20.9,18.9c-11.5,0-20.9-8.5-20.9-18.9c0-10.4,9.4-18.9,20.9-18.9l0,0l0,0
		C787.8,423.4,797.2,431.8,797.2,442.2z"/>
	<path class="st40" d="M790.8,442.5c0,7.3-6.5,13.2-14.5,13.2c-8,0-14.5-5.9-14.5-13.2c0-7.3,6.5-13.2,14.5-13.2l0,0
		C784.3,429.3,790.8,435.2,790.8,442.5z"/>
	<path class="st40" d="M782,435.9l6.5-7.5c2.3,1.7,4.2,3.8,5.5,6.2l-9.4,4.2C784,437.7,783.1,436.7,782,435.9z"/>
	<path class="st40" d="M788.6,456.4c-2.3,1.7-5,2.9-7.9,3.5l-2.4-9.3c1.3-0.3,2.6-0.9,3.7-1.6L788.6,456.4z"/>
	<path class="st40" d="M767.9,438.9l-9.5-4.1c1.3-2.4,3.2-4.5,5.5-6.2l6.6,7.4C769.3,436.8,768.5,437.8,767.9,438.9z"/>
	<path class="st40" d="M785.6,442.5L785.6,442.5l10.6-0.1v0.1c0,2.7-0.7,5.4-2,7.8l-9.5-4.1C785.2,445,785.6,443.8,785.6,442.5z"/>
	<path class="st40" d="M767,442.5c0,1.3,0.3,2.5,0.9,3.6l-9.4,4.2c-1.3-2.4-2-5-2-7.8H767z"/>
	<path class="st40" d="M771.8,425.1c2.9-0.6,5.9-0.6,8.8,0l-2.3,9.3c-1.4-0.3-2.7-0.3-4.2,0L771.8,425.1z"/>
	<path class="st40" d="M774.2,450.6l-2.4,9.3c-2.9-0.6-5.6-1.8-7.9-3.4l6.6-7.4C771.6,449.8,772.9,450.3,774.2,450.6z"/>
	
		<radialGradient id="SVGID_21_" cx="2960.5" cy="1564.58" r="11.04" gradientTransform="matrix(0.9445 0 0 0.8539 -2095.6069 -982.6102)" gradientUnits="userSpaceOnUse">
		<stop  offset="0" style="stop-color:#FFFFFF"/>
		<stop  offset="1" style="stop-color:#000000"/>
	</radialGradient>
	<ellipse class="st43" cx="700.7" cy="353.4" rx="10.4" ry="9.4"/>
	<path class="st44" d="M653.3,251.4h-24.5c-0.9,0-1.7-0.7-1.7-1.5l0,0v-13.7c0-0.9,0.8-1.5,1.7-1.5l0,0h24.5c0.9,0,1.7,0.7,1.7,1.5
		l0,0v13.7c0.1,0.8-0.6,1.5-1.4,1.5H653.3z"/>
	
		<radialGradient id="SVGID_22_" cx="197.2136" cy="-3942.6963" r="3.27" gradientTransform="matrix(-0.7273 0.538 -0.5951 -0.6575 -1575.9611 -2378.2039)" gradientUnits="userSpaceOnUse">
		<stop  offset="0" style="stop-color:#FFFFFF"/>
		<stop  offset="1" style="stop-color:#000000"/>
	</radialGradient>
	<path class="st45" d="M643.1,332.3c-1-1.2-0.9-3,0.5-3.9c1.3-0.9,3.3-0.8,4.3,0.4c1,1.2,0.9,3-0.5,3.9S644.2,333.4,643.1,332.3z"/>
	
		<radialGradient id="SVGID_23_" cx="142.0936" cy="-3987.9365" r="3.27" gradientTransform="matrix(-0.7273 0.538 -0.5951 -0.6575 -1575.9611 -2378.2039)" gradientUnits="userSpaceOnUse">
		<stop  offset="0" style="stop-color:#FFFFFF"/>
		<stop  offset="1" style="stop-color:#000000"/>
	</radialGradient>
	<path class="st46" d="M710.5,332.3c-1-1.2-0.9-3,0.5-3.9c1.3-0.9,3.3-0.8,4.3,0.4c1,1.2,0.9,3-0.5,3.9S711.5,333.4,710.5,332.3z"/>
	<path class="st11" d="M398.9,256.1c0,0.3-0.3,0.7-0.7,0.8H392c-0.4-0.1-0.7-0.4-0.7-0.8v-6.8c0-0.3,0.3-0.7,0.7-0.8h6.3
		c0.4,0.1,0.7,0.4,0.7,0.8L398.9,256.1z"/>
	<path class="st12" d="M398.3,257.2h-6.2c-0.6,0-0.9-0.4-0.9-1v-6.8c0-0.6,0.4-1,0.9-1h6.2c0.6,0,0.9,0.4,0.9,1v6.8
		C399.3,256.7,398.9,257.1,398.3,257.2z M392.1,248.8c-0.3,0-0.5,0.2-0.5,0.5v6.8c0,0.3,0.2,0.5,0.5,0.5h6.2c0.3,0,0.5-0.2,0.5-0.5
		v-6.8c0-0.3-0.2-0.5-0.5-0.5H392.1z"/>
	<path class="st13" d="M408.3,256.1c0,0.3-0.3,0.7-0.7,0.8h-6.2c-0.4-0.1-0.7-0.4-0.7-0.8v-6.8c0-0.3,0.3-0.7,0.7-0.8h6.3
		c0.4,0.1,0.7,0.4,0.7,0.8L408.3,256.1z"/>
	<path class="st12" d="M407.8,257.2h-6.2c-0.6,0-0.9-0.4-0.9-1v-6.8c0-0.6,0.4-1,0.9-1h6.2c0.6,0,0.9,0.4,0.9,1v6.8
		C408.7,256.7,408.3,257.1,407.8,257.2z M401.5,248.8c-0.3,0-0.5,0.2-0.5,0.5v6.8c0,0.3,0.2,0.5,0.5,0.5h6.2c0.3,0,0.5-0.2,0.5-0.5
		v-6.8c0-0.3-0.2-0.5-0.5-0.5H401.5z"/>
	<path class="st6" d="M596.5,75.8v-5.1c0-10.7-11.5-19.3-25.6-19.3l-289-10.1c-14.2,0-25.6,10.3-25.6,23.1v11.3L596.5,75.8
		L596.5,75.8z"/>
</g>
</svg>
