<?xml version="1.0" encoding="utf-8"?>
<!-- Generator: Adobe Illustrator 23.0.1, SVG Export Plug-In . SVG Version: 6.00 Build 0)  -->
<svg version="1.1" id="Layer_1" xmlns="http://www.w3.org/2000/svg" xmlns:xlink="http://www.w3.org/1999/xlink" x="0px" y="0px"
	 viewBox="0 0 1156.2 538.5" style="enable-background:new 0 0 1156.2 538.5;" xml:space="preserve">
<style type="text/css">
	.st0{opacity:0.1;fill:#1B1B19;enable-background:new    ;}
	.st1{fill:#A7CB64;}
	.st2{fill:#AEA7A7;}
	.st3{fill:#6D863D;}
	.st4{fill:url(#SVGID_1_);}
	.st5{fill:url(#SVGID_2_);}
	.st6{fill:url(#SVGID_3_);}
	.st7{fill:url(#SVGID_4_);}
	.st8{fill:url(#SVGID_5_);}
	.st9{fill:url(#SVGID_6_);}
	.st10{fill:url(#SVGID_7_);}
	.st11{fill:url(#SVGID_8_);}
	.st12{fill:#614F49;}
	.st13{fill:#FAAA28;}
	.st14{fill:url(#SVGID_9_);}
	.st15{fill:url(#SVGID_10_);}
	.st16{fill:url(#SVGID_11_);}
	.st17{fill:url(#SVGID_12_);}
	.st18{fill:url(#SVGID_13_);}
	.st19{fill:url(#SVGID_14_);}
	.st20{fill:#382F2D;}
	.st21{fill:#312527;}
	.st22{fill:#F6F6F6;}
	.st23{fill:#DAD1D1;}
	.st24{fill:#ED1C24;}
	.st25{fill:#231F20;}
	.st26{fill:#ABA9A7;}
	.st27{fill:#1D1715;}
	.st28{fill:#88A84C;}
	.st29{fill:url(#SVGID_15_);}
	.st30{fill:url(#SVGID_16_);}
	.st31{fill:none;stroke:#382F2D;stroke-width:0.6745;stroke-miterlimit:10;}
	.st32{fill:url(#SVGID_17_);}
	.st33{fill:url(#SVGID_18_);}
	.st34{fill:url(#SVGID_19_);}
	.st35{fill:url(#SVGID_20_);}
	.st36{fill:url(#SVGID_21_);}
	.st37{fill:url(#SVGID_22_);}
	.st38{fill:url(#SVGID_23_);}
	.st39{fill:url(#SVGID_24_);}
	.st40{fill:url(#SVGID_25_);}
	.st41{fill:url(#SVGID_26_);}
	.st42{fill:url(#SVGID_27_);}
	.st43{fill:url(#SVGID_28_);}
	.st44{fill:url(#SVGID_29_);}
	.st45{fill:url(#SVGID_30_);}
	.st46{fill:url(#SVGID_31_);}
	.st47{fill:url(#SVGID_32_);}
	.st48{fill:url(#SVGID_33_);}
	.st49{fill:url(#SVGID_34_);}
</style>
<path class="st0" d="M76.4,482.4c0,13.1,227.6,23.8,508.3,23.8s508.3-10.7,508.3-23.8s-227.6-23.8-508.3-23.8S76.4,469.2,76.4,482.4
	z"/>
<title>Asphalt Paver</title>
<path class="st1" d="M161.9,279.4V228c0-6.2,4.6-11.2,10.2-11.2h15.3c5.6,0,10.2,5,10.2,11.2v51.4c0,6.2-4.6,11.2-10.2,11.2h-15.3
	C166.5,290.5,161.9,285.6,161.9,279.4z M172,220.7c-3.6,0-6.6,3.2-6.6,7.3v51.4c0,4,3,7.3,6.6,7.3h15.3c3.6,0,6.6-3.2,6.6-7.3V228
	c0-4-3-7.3-6.6-7.3H172z"/>
<path class="st1" d="M187.4,290.2v-51.4c0-6.2,4.6-11.2,10.2-11.2H213c5.6,0,10,4.8,10.2,10.8l16.5,51.3v0.3c0,2.1-1.2,5.2-12.1,8.5
	c-5.8,1.7-12.2,2.8-14.6,2.8h-15.3C192,301.5,187.4,296.4,187.4,290.2z M219.6,239.3V239c0-4-3-7.3-6.6-7.3h-15.3
	c-3.6,0-6.6,3.2-6.6,7.3v51.4c0,4,3,7.3,6.6,7.3H213c4.5-0.3,8.9-1.2,13.2-2.5c7.1-2,9.4-4,9.9-4.7L219.6,239.3z"/>
<path class="st1" d="M245.9,297c-13-3.9-14.5-7.7-14.5-10.2v-0.4l20-62.2c0.2-7.3,5.6-13.1,12.3-13.1h18.6c6.8,0,12.3,6.1,12.3,13.5
	v62.2c0,7.4-5.6,13.5-12.3,13.5h-18.6C260.7,300.4,253,299.1,245.9,297z M263.7,215.8c-4.4,0-8,4-8,8.8v0.4l-19.9,61.9
	c0.5,0.9,3.3,3.1,11.9,5.7c6.9,1.9,13.7,3,15.9,3h18.7c4.4,0,8-4,8-8.8v-62.2c0-4.8-3.6-8.8-8-8.8H263.7z"/>
<polygon class="st2" points="188.7,435.3 188.7,442.9 74.9,442.9 74.9,450 68.8,450 68.8,442.9 68.8,442.5 68.8,435.3 "/>
<path class="st1" d="M107.3,456.5h27.6c3.8,0,6.8-2.9,6.8-6.5l0,0l0,0v-65.1c0-3.6-3-6.5-6.8-6.5l0,0h-27.6c-3.8,0-6.8,2.9-6.8,6.5
	l0,0l0,0V450C100.5,453.5,103.5,456.5,107.3,456.5L107.3,456.5L107.3,456.5z"/>
<path class="st1" d="M198.3,302.4h-48.9c-2.4,0-4.6,1-6.1,2.8L126,325.5c-1.1,1.4-1.8,3-1.8,4.8v51.2c0,4.2,3.5,7.6,7.9,7.6h66.3
	c4.4,0,7.9-3.4,7.9-7.6v-71.4C206.2,305.8,202.7,302.4,198.3,302.4z"/>
<path class="st3" d="M161.7,339.1h22.2c2.6,0,4.8-2,4.8-4.6l0,0v-21.3c0-2.5-2.1-4.6-4.8-4.6l0,0h-22.2c-2.6,0-4.8,2-4.8,4.6l0,0
	v21.3C157,337.1,159.1,339.1,161.7,339.1L161.7,339.1L161.7,339.1z"/>
<radialGradient id="SVGID_1_" cx="-2799.0942" cy="551.1882" r="4.88" gradientTransform="matrix(0.5903 -0.6258 -0.652 -0.5666 2199.8284 -1114.4301)" gradientUnits="userSpaceOnUse">
	<stop  offset="0" style="stop-color:#FFFFFF"/>
	<stop  offset="1" style="stop-color:#000000"/>
</radialGradient>
<path class="st4" d="M183,314c-1.8-1.5-4.5-1.4-6.1,0.3c-1.6,1.7-1.5,4.3,0.3,5.8c1.8,1.5,4.5,1.4,6.1-0.3S184.8,315.5,183,314
	L183,314z"/>
<radialGradient id="SVGID_2_" cx="-2082.5801" cy="298.163" r="4.88" gradientTransform="matrix(0.881 0 0 -0.8457 26.922 0.3977)" gradientUnits="userSpaceOnUse">
	<stop  offset="0" style="stop-color:#FFFFFF"/>
	<stop  offset="1" style="stop-color:#000000"/>
</radialGradient>
<path class="st5" d="M168.4,314c-1.8-1.5-4.5-1.4-6.1,0.3c-1.6,1.7-1.5,4.3,0.3,5.8c1.8,1.5,4.5,1.4,6.1-0.3
	C170.3,318.2,170.3,315.7,168.4,314L168.4,314L168.4,314z"/>
<radialGradient id="SVGID_3_" cx="-2083.4399" cy="274.953" r="4.88" gradientTransform="matrix(0.881 0 0 -0.8457 26.922 0.3977)" gradientUnits="userSpaceOnUse">
	<stop  offset="0" style="stop-color:#FFFFFF"/>
	<stop  offset="1" style="stop-color:#000000"/>
</radialGradient>
<path class="st6" d="M183,327.8c-1.8-1.5-4.5-1.4-6.1,0.3c-1.6,1.7-1.5,4.3,0.3,5.8c1.8,1.5,4.5,1.4,6.1-0.3
	C184.9,331.9,184.8,329.3,183,327.8L183,327.8z"/>
<radialGradient id="SVGID_4_" cx="-2094.6101" cy="287.163" r="4.88" gradientTransform="matrix(0.881 0 0 -0.8457 26.922 0.3977)" gradientUnits="userSpaceOnUse">
	<stop  offset="0" style="stop-color:#FFFFFF"/>
	<stop  offset="1" style="stop-color:#000000"/>
</radialGradient>
<path class="st7" d="M168.4,327.8c-1.8-1.5-4.5-1.4-6.1,0.3c-1.6,1.7-1.5,4.3,0.3,5.8c1.8,1.5,4.5,1.4,6.1-0.3
	C170.3,332,170.3,329.4,168.4,327.8L168.4,327.8L168.4,327.8z"/>
<path class="st3" d="M161.7,378.5h22.2c2.6,0,4.8-2,4.8-4.6l0,0v-21.3c0-2.5-2.1-4.6-4.8-4.6l0,0h-22.2c-2.6,0-4.8,2-4.8,4.6v21.3
	C157,376.5,159.1,378.5,161.7,378.5L161.7,378.5L161.7,378.5z"/>
<radialGradient id="SVGID_5_" cx="-2105.78" cy="254.523" r="4.88" gradientTransform="matrix(0.881 0 0 -0.8457 26.922 0.3977)" gradientUnits="userSpaceOnUse">
	<stop  offset="0" style="stop-color:#FFFFFF"/>
	<stop  offset="1" style="stop-color:#000000"/>
</radialGradient>
<path class="st8" d="M183,353.3c-1.8-1.5-4.5-1.4-6.1,0.3c-1.6,1.7-1.5,4.3,0.3,5.8c1.8,1.5,4.5,1.4,6.1-0.3
	C184.9,357.4,184.8,354.8,183,353.3L183,353.3z"/>
<radialGradient id="SVGID_6_" cx="-2116.95" cy="266.733" r="4.88" gradientTransform="matrix(0.881 0 0 -0.8457 26.922 0.3977)" gradientUnits="userSpaceOnUse">
	<stop  offset="0" style="stop-color:#FFFFFF"/>
	<stop  offset="1" style="stop-color:#000000"/>
</radialGradient>
<path class="st9" d="M168.4,353.3c-1.8-1.5-4.5-1.4-6.1,0.3c-1.6,1.7-1.5,4.3,0.3,5.8c1.8,1.5,4.5,1.4,6.1-0.3
	C170.3,357.5,170.2,354.9,168.4,353.3L168.4,353.3L168.4,353.3z"/>
<radialGradient id="SVGID_7_" cx="-2117.8101" cy="243.523" r="4.88" gradientTransform="matrix(0.881 0 0 -0.8457 26.922 0.3977)" gradientUnits="userSpaceOnUse">
	<stop  offset="0" style="stop-color:#FFFFFF"/>
	<stop  offset="1" style="stop-color:#000000"/>
</radialGradient>
<path class="st10" d="M183,367.1c-1.8-1.5-4.5-1.4-6.1,0.3c-1.6,1.7-1.5,4.3,0.3,5.8c1.8,1.5,4.5,1.4,6.1-0.3
	C184.9,371.2,184.8,368.6,183,367.1L183,367.1z"/>
<radialGradient id="SVGID_8_" cx="-2128.98" cy="255.743" r="4.89" gradientTransform="matrix(0.881 0 0 -0.8457 26.922 0.3977)" gradientUnits="userSpaceOnUse">
	<stop  offset="0" style="stop-color:#FFFFFF"/>
	<stop  offset="1" style="stop-color:#000000"/>
</radialGradient>
<path class="st11" d="M168.4,367.1c-1.8-1.5-4.5-1.4-6.1,0.3c-1.6,1.7-1.5,4.3,0.3,5.8c1.8,1.5,4.5,1.4,6.1-0.3
	C170.3,371.3,170.2,368.7,168.4,367.1L168.4,367.1L168.4,367.1z"/>
<path class="st1" d="M292.1,394.1h-81v-85.2c0-4,3.4-7.3,7.6-7.3h66.4c3.8,0,7,2.9,7,6.6l0,0V394.1z"/>
<rect x="225.4" y="315.5" class="st3" width="52.4" height="2.3"/>
<rect x="225.4" y="320.6" class="st3" width="52.4" height="2.3"/>
<rect x="225.4" y="325.8" class="st3" width="52.4" height="2.3"/>
<rect x="225.4" y="331.1" class="st3" width="52.4" height="2.3"/>
<rect x="225.4" y="336.2" class="st3" width="52.4" height="2.3"/>
<rect x="225.4" y="341.5" class="st3" width="52.4" height="2.3"/>
<rect x="225.4" y="346.6" class="st3" width="52.4" height="2.3"/>
<rect x="225.4" y="351.8" class="st3" width="52.4" height="2.3"/>
<rect x="225.4" y="357" class="st3" width="52.4" height="2.3"/>
<rect x="225.4" y="362.2" class="st3" width="52.4" height="2.3"/>
<rect x="225.4" y="367.4" class="st3" width="52.4" height="2.3"/>
<rect x="225.4" y="372.6" class="st3" width="52.4" height="2.3"/>
<rect x="225.4" y="377.7" class="st3" width="52.4" height="2.3"/>
<ellipse class="st3" cx="168.1" cy="418.1" rx="9.4" ry="9"/>
<path class="st3" d="M282.4,310.2c0,1.4,1.1,2.5,2.6,2.5s2.6-1.1,2.6-2.5c0-1.4-1.1-2.5-2.6-2.5
	C283.6,307.8,282.5,308.8,282.4,310.2z"/>
<path class="st3" d="M282.4,336.2c0,1.4,1.1,2.5,2.6,2.5s2.6-1.1,2.6-2.5s-1.1-2.5-2.6-2.5C283.6,333.8,282.5,334.9,282.4,336.2z"/>
<path class="st3" d="M282.4,362.3c0,1.4,1.1,2.5,2.6,2.5s2.6-1.1,2.6-2.5c0-1.4-1.1-2.5-2.6-2.5S282.4,360.9,282.4,362.3
	L282.4,362.3z"/>
<path class="st3" d="M282.4,388.2c0,1.4,1.1,2.5,2.6,2.5s2.6-1.1,2.6-2.5s-1.1-2.5-2.6-2.5C283.6,385.9,282.5,386.9,282.4,388.2z"/>
<ellipse class="st3" cx="218.2" cy="310.2" rx="2.6" ry="2.5"/>
<ellipse class="st3" cx="218.2" cy="336.2" rx="2.6" ry="2.5"/>
<ellipse class="st3" cx="218.2" cy="362.3" rx="2.6" ry="2.5"/>
<ellipse class="st3" cx="218.2" cy="388.2" rx="2.6" ry="2.5"/>
<path class="st12" d="M438.6,95.5l-43,22.6c-0.5,0.3-1.2,0.1-1.5-0.4l-1.9-3.2c-0.3-0.5-0.1-1.2,0.4-1.4l43-22.6
	c0.5-0.3,1.2-0.1,1.5,0.4l1.9,3.2C439.3,94.6,439.2,95.2,438.6,95.5z"/>
<path class="st12" d="M436.1,125.4l-12.8,6.7c-0.5,0.3-1.2,0.1-1.5-0.4L408.9,109c-0.3-0.5-0.1-1.2,0.4-1.4l12.8-6.7
	c0.5-0.3,1.2-0.1,1.5,0.4l12.9,22.7C436.8,124.4,436.6,125.1,436.1,125.4z"/>
<path class="st1" d="M431.5,112.8l17.7,5.3l3.3,15.1v1.9h-18.6l-3.6,11.2h-10.7c-2.9,0-5.3-2.2-5.4-5l-0.4-9.9
	c-0.1-1.9,0.7-3.6,2.1-4.8L431.5,112.8z"/>
<rect x="360.5" y="20.8" class="st13" width="57.4" height="2.5"/>
<path class="st1" d="M300.2,35.1v-3.6c0.1-7.4,6.4-13.2,14.1-13.1l0,0l0,0l159.3-6.9c7.8,0,14.1,7.1,14.1,15.8v7.7
	C487.7,35.1,300.2,35.1,300.2,35.1z"/>
<radialGradient id="SVGID_9_" cx="1631.7687" cy="-1869.1802" r="4.12" gradientTransform="matrix(-0.5551 0.6512 0.6784 0.5328 2470.3601 231.3029)" gradientUnits="userSpaceOnUse">
	<stop  offset="0" style="stop-color:#FFFFFF"/>
	<stop  offset="1" style="stop-color:#000000"/>
</radialGradient>
<path class="st14" d="M280.7,289.3c1.6,1.2,3.9,1,5.1-0.5c1.2-1.5,1.1-3.7-0.5-4.9s-3.9-1-5.1,0.5S279.2,288,280.7,289.3z"/>
<radialGradient id="SVGID_10_" cx="1666.6687" cy="-1911.71" r="4.12" gradientTransform="matrix(-0.5551 0.6512 0.6784 0.5328 2470.3601 231.3029)" gradientUnits="userSpaceOnUse">
	<stop  offset="0" style="stop-color:#FFFFFF"/>
	<stop  offset="1" style="stop-color:#000000"/>
</radialGradient>
<path class="st15" d="M232.2,289.3c1.6,1.2,3.9,1,5.1-0.5c1.2-1.5,1.1-3.7-0.5-4.9s-3.9-1-5.1,0.5
	C230.4,285.9,230.6,288.1,232.2,289.3z"/>
<radialGradient id="SVGID_11_" cx="1784.0287" cy="-1744.22" r="4.12" gradientTransform="matrix(-0.5551 0.6512 0.6784 0.5328 2470.3601 231.3029)" gradientUnits="userSpaceOnUse">
	<stop  offset="0" style="stop-color:#FFFFFF"/>
	<stop  offset="1" style="stop-color:#000000"/>
</radialGradient>
<path class="st16" d="M280.7,455.9c1.6,1.2,3.9,1,5.1-0.5c1.2-1.5,1.1-3.7-0.5-4.9c-1.6-1.2-3.9-1-5.1,0.5S279.2,454.6,280.7,455.9z
	"/>
<radialGradient id="SVGID_12_" cx="1818.9286" cy="-1786.75" r="4.13" gradientTransform="matrix(-0.5551 0.6512 0.6784 0.5328 2470.3601 231.3029)" gradientUnits="userSpaceOnUse">
	<stop  offset="0" style="stop-color:#FFFFFF"/>
	<stop  offset="1" style="stop-color:#000000"/>
</radialGradient>
<path class="st17" d="M232.2,455.9c1.6,1.2,3.9,1,5.1-0.5c1.2-1.5,1.1-3.7-0.5-4.9c-1.6-1.2-3.9-1-5.1,0.5
	C230.4,452.5,230.6,454.7,232.2,455.9z"/>
<radialGradient id="SVGID_13_" cx="1855.3987" cy="-1831.2" r="4.13" gradientTransform="matrix(-0.5551 0.6512 0.6784 0.5328 2470.3601 231.3029)" gradientUnits="userSpaceOnUse">
	<stop  offset="0" style="stop-color:#FFFFFF"/>
	<stop  offset="1" style="stop-color:#000000"/>
</radialGradient>
<path class="st18" d="M181.5,455.9c1.6,1.2,3.9,1,5.1-0.5c1.2-1.5,1.1-3.7-0.5-4.9c-1.6-1.2-3.9-1-5.1,0.5
	C179.8,452.5,180,454.7,181.5,455.9z"/>
<radialGradient id="SVGID_14_" cx="1890.3086" cy="-1873.73" r="4.12" gradientTransform="matrix(-0.5551 0.6512 0.6784 0.5328 2470.3601 231.3029)" gradientUnits="userSpaceOnUse">
	<stop  offset="0" style="stop-color:#FFFFFF"/>
	<stop  offset="1" style="stop-color:#000000"/>
</radialGradient>
<path class="st19" d="M133.1,455.9c1.6,1.2,3.9,1,5.1-0.5c1.2-1.5,1.1-3.7-0.5-4.9c-1.6-1.2-3.9-1-5.1,0.5
	C131.3,452.5,131.5,454.7,133.1,455.9z"/>
<path class="st1" d="M677,198.4v-58.4c0-0.8-0.8-1.6-1.7-1.6l0,0h-8.6c-0.9,0-1.7,0.8-1.7,1.6l0,0l0,0v58.4c0,0.8,0.8,1.6,1.7,1.6
	l0,0h8.6C676.2,200,677,199.2,677,198.4L677,198.4z"/>
<path class="st1" d="M679.2,269.1v-79.2c0-1.2-1-2.1-2.2-2.1l0,0h-11.7c-1.2,0-2.2,0.9-2.2,2.1l0,0v79.2c0,1.2,1,2.1,2.2,2.1l0,0
	H677C678.3,271.3,679.2,270.3,679.2,269.1z"/>
<path class="st3" d="M682.1,196.8v-4.8c0-0.8-0.8-1.6-1.7-1.6l0,0h-18.6c-0.9,0-1.7,0.8-1.7,1.6l0,0l0,0v4.8c0,0.8,0.8,1.6,1.7,1.6
	l0,0h18.6C681.3,198.3,682,197.6,682.1,196.8z"/>
<polygon class="st1" points="377,20.9 473.1,20.9 473.8,23.9 504.5,153.5 504.6,154 504.6,194.4 500.7,194.4 500.7,154.4 
	498.3,144.4 492.6,120.5 469.9,24.7 377,24.7 "/>
<path class="st3" d="M500.1,154.5L469.5,25.3h-93v-4.8h97l31.5,133l0.1,0.5V195h-5L500.1,154.5z M504.1,154L472.6,21.4h-95.2v2.8
	h92.8l22.8,96.2l8,34v39.5h2.9L504.1,154z"/>
<path class="st3" d="M370.2,22.8L339,26.3c-0.2,0-0.3,0.1-0.3,0.2l-38.6,84.8l13.5,92.1h13.8L314,111.3l38.6-84.9
	c0-0.1,0.2-0.2,0.3-0.2l17.4-1.9L370.2,22.8L370.2,22.8z"/>
<path class="st1" d="M361.5,21.6l-31.2,3.6c-0.2,0-0.3,0.1-0.3,0.2l-37.4,82.2c-0.8,1.7-1.1,3.6-0.8,5.4l13.1,89.2h13.8l-13.5-92
	l38.6-84.8c0-0.1,0.2-0.2,0.3-0.2l17.4-1.9V21.6z"/>
<path class="st1" d="M311.1,202.6h79.1c1.5,0,2.6-1.1,2.6-2.5v-7.4c0-1.4-1.1-2.5-2.6-2.5h-79.1c-1.5,0-2.6,1.1-2.6,2.5v7.4
	C308.4,201.4,309.6,202.6,311.1,202.6z"/>
<polygon class="st3" points="321.8,280.6 352.3,280.6 352.3,205.2 308.4,205.2 "/>
<rect x="308.4" y="201.5" class="st3" width="84.4" height="9.8"/>
<path class="st1" d="M305.4,286.2v0.3h29.1v-0.3h54l-18.9-66c-3.5-11.8-6.4-22.6-9-32.1c-10.7-39.1-16.6-60.5-34.7-60.5h-20.4
	L303,286.3L305.4,286.2z M309,281.7V139h2.6c9.5,0,11.2,23.3,14.1,65.5c0.4,6.2,0.9,12.7,1.4,19.6l3.3,57.5L309,281.7L309,281.7z
	 M334.1,281.7l-3.3-57.9c-0.5-7-1-13.5-1.4-19.7c-3.3-46.4-4.8-69.7-17.7-69.7h-2.7v-2.3h16.8c15.7,0,20.9,19.2,31.4,57.5
	c2.6,9.6,5.6,20.3,9.1,32.2l17.2,60L334.1,281.7L334.1,281.7z"/>
<rect x="383.7" y="342.8" class="st2" width="7" height="123.9"/>
<rect x="121" y="445.3" class="st1" width="268.1" height="17.6"/>
<path class="st3" d="M153.7,276.6h233.5v119.9H143.3V286.6C143.3,281.1,148,276.6,153.7,276.6L153.7,276.6z"/>
<path class="st3" d="M116.8,447.7c-0.4-1.3-0.6-2.5-0.6-3.9v-59.2h304.4v63.1H116.8z"/>
<path class="st1" d="M138.6,429.8h197V406h-197c-1.1,0-2,0.8-2,1.9l0,0v20C136.6,428.9,137.5,429.8,138.6,429.8
	C138.5,429.8,138.5,429.8,138.6,429.8L138.6,429.8z"/>
<path class="st1" d="M335.5,446.5L335.5,446.5c1.2,0,2.3-1,2.3-2.2v-76.7c0-1.2-1.1-2.2-2.3-2.2l0,0c-1.2,0-2.3,1-2.3,2.2v76.7
	C333.3,445.5,334.3,446.5,335.5,446.5z"/>
<path class="st1" d="M326.5,328.8h33.1v4.4h-33.1c-1.2,0-2.3-1-2.3-2.2C324.2,329.8,325.2,328.8,326.5,328.8L326.5,328.8
	L326.5,328.8z"/>
<path class="st1" d="M326.5,339.2h33.1v4.4h-33.1c-1.2,0-2.3-1-2.3-2.2C324.2,340.2,325.2,339.2,326.5,339.2L326.5,339.2
	L326.5,339.2z"/>
<path class="st1" d="M326.5,349.6h33.1v4.4h-33.1c-1.2,0-2.3-1-2.3-2.2C324.2,350.6,325.2,349.6,326.5,349.6L326.5,349.6
	L326.5,349.6z"/>
<ellipse class="st3" cx="319.6" cy="418.1" rx="9.4" ry="9"/>
<path class="st1" d="M360.7,394.6L360.7,394.6c1.2,0,2.3-1,2.3-2.2v-76.7c0-1.2-1.1-2.2-2.3-2.2l0,0c-1.2,0-2.3,1-2.3,2.2v76.7
	C358.5,393.6,359.5,394.6,360.7,394.6z"/>
<path class="st3" d="M638.6,258.4h199.3l-14.8-19.1h-112v2.3h-6.8v-2.3h-29.9l-0.4,0.8h-6.1l-0.4-0.8h-14
	c-5.1-0.1-10.2,0.8-15.1,2.4L638.6,258.4L638.6,258.4z M734.7,240.1l-0.1-0.3l4.8,0.3H734.7z"/>
<path class="st1" d="M638.6,246.6h233.2c11.7,0,21.3,3.8,21.3,8.6v2.3H638.6V246.6z"/>
<rect x="387.8" y="263.7" class="st1" width="277.8" height="181.5"/>
<path class="st3" d="M1052.3,357v48.9c0,5-4.2,9-9.4,9H665.1v-96.2L1052.3,357z"/>
<path class="st1" d="M715,414.9v-90.9l337.3,33.1v48.9c0,5-4.2,9-9.4,9h-69.3v-36.4H859.9v36.4L715,414.9z"/>
<path class="st1" d="M436.9,122c5.7,11.8,10.8,23.8,15.3,36.1c10.5,28.8-9.4,51-9.4,51l-29.7,46.5l-1.9,8.5l-11.3,10.7
	c-0.9,0.8-2.4,0.8-3.3,0l0,0c-0.1-0.1-0.1-0.1-0.2-0.2l-1.5-2l3.4-14.3c0,0,22.1-44.9,30-62.6s5.7-31,5.7-31l-5.9-25.3l-4.6-11.6
	L436.9,122z"/>
<path class="st3" d="M437.9,121.6c6,12.3,11.4,24.8,16,37.5c10.5,28.8-9.4,51-9.4,51l-29.7,46.5l-1.9,8.5l-11.3,10.7
	c-0.9,0.8-2.4,0.8-3.3,0l0,0c-0.1-0.1-0.1-0.1-0.2-0.2l-1.5-2l3.4-14.3c0,0,22.1-44.9,30-62.6c7.8-17.7,5.7-31,5.7-31l-5.9-25.3
	l-5.2-13.1L437.9,121.6z"/>
<ellipse class="st20" cx="902.7" cy="396.1" rx="15.5" ry="14.9"/>
<ellipse class="st21" cx="902.7" cy="396.1" rx="10.8" ry="10.4"/>
<path class="st22" d="M894.9,396.1c0,4.1,3.4,7.4,7.8,7.4c4.3,0,7.8-3.3,7.8-7.4s-3.4-7.4-7.8-7.4l0,0l0,0
	C898.4,388.6,894.9,391.9,894.9,396.1z"/>
<path class="st23" d="M897.1,396.1c0,3,2.5,5.3,5.6,5.3s5.6-2.4,5.6-5.3s-2.5-5.3-5.6-5.3l0,0l0,0
	C899.6,390.8,897.1,393.1,897.1,396.1C897.1,396,897.1,396,897.1,396.1L897.1,396.1z"/>
<path class="st22" d="M898.5,396.1c0,2.2,1.9,4,4.1,4s4.1-1.8,4.1-4s-1.9-4-4.1-4C900.4,392.1,898.5,393.9,898.5,396.1L898.5,396.1z
	"/>
<rect x="901.2" y="380.6" class="st20" width="3.7" height="1.3"/>
<polygon class="st20" points="906.3,382.2 906.8,381 910.2,382.3 909.8,383.5 "/>
<polygon class="st20" points="911,384.3 911.9,383.4 914.7,385.6 913.9,386.6 "/>
<polygon class="st20" points="914.8,387.7 915.9,387.1 917.8,390.2 916.6,390.8 "/>
<polygon class="st20" points="916.9,392.3 918.2,392.1 918.8,395.6 917.5,395.8 "/>
<polygon class="st20" points="916.8,400.6 917.4,397.1 918.7,397.4 918.1,400.9 "/>
<polygon class="st20" points="914.3,405.1 916.1,402 917.3,402.6 915.4,405.7 "/>
<polygon class="st20" points="911.8,413.4 914.7,411.1 915.5,412.1 912.7,414.3 "/>
<polygon class="st20" points="905.5,410.2 909,409 909.5,410.2 906,411.4 "/>
<rect x="900.4" y="410.3" class="st20" width="3.7" height="1.3"/>
<polygon class="st20" points="895.1,409.9 895.6,408.7 899,409.9 898.6,411.1 "/>
<polygon class="st20" points="890.6,406.7 891.4,405.7 894.3,408 893.4,409 "/>
<polygon class="st20" points="887.6,402 888.8,401.3 890.6,404.4 889.5,405 "/>
<polygon class="st20" points="886.3,396.6 887.6,396.4 888.2,399.9 886.9,400.1 "/>
<polygon class="st20" points="886.5,394.8 887.1,391.3 888.4,391.5 887.8,395 "/>
<polygon class="st20" points="888,389.6 889.8,386.5 891,387.1 889.1,390.2 "/>
<polygon class="st20" points="892.5,389.9 895.4,387.7 896.2,388.6 893.4,390.9 "/>
<polygon class="st20" points="895.8,382 899.2,380.7 899.7,381.9 896.2,383.1 "/>
<path class="st3" d="M614.3,196.6H507.9l0.1-4.1c0.1-9.7,6.5-17.6,14.4-17.6h7l0.2,0.9h3.1l0.2-0.9h14.9v2.7h3.3v-2.6h11.6l0.2,0.9
	h2.4l-7.2-0.9H607L614.3,196.6z"/>
<path class="st1" d="M434.3,186.3h-3v-19.5c0-2.3,2.9-4.2,7-4.8l6.1-4.6l13.4,1.7l16.7,24.2h135c5.9,0,10.7,4.4,10.7,9.8v2.6H431.2
	v-2.6C431.2,190.5,432.4,188,434.3,186.3z"/>
<path class="st24" d="M448.7,188.6c0,0.3,0.3,0.7,0.5,0.7h5c0.3,0,0.5-0.3,0.5-0.7v-5.8c0-0.3-0.3-0.7-0.5-0.7h-5
	c-0.3,0-0.5,0.3-0.5,0.7V188.6z"/>
<path class="st25" d="M448.4,188.6v-5.8c0-0.4,0.3-0.8,0.7-0.8h5.1c0.4,0.1,0.8,0.4,0.8,0.8v5.8c0,0.4-0.3,0.8-0.7,0.8h-5.1
	C448.8,189.6,448.4,189.1,448.4,188.6z M449.2,182.5c-0.2,0-0.4,0.3-0.4,0.4v5.8c0,0.2,0.2,0.4,0.4,0.4h5c0.2,0,0.4-0.3,0.4-0.4
	v-5.8c0-0.2-0.2-0.4-0.4-0.4H449.2z"/>
<path class="st26" d="M441,188.6c0,0.3,0.3,0.7,0.5,0.7h5c0.3,0,0.5-0.3,0.5-0.7v-5.8c0-0.3-0.3-0.7-0.5-0.7h-5
	c-0.3,0-0.5,0.3-0.5,0.7V188.6z"/>
<path class="st25" d="M440.8,188.6v-5.8c0-0.4,0.3-0.8,0.7-0.8h5.1c0.4,0.1,0.8,0.4,0.8,0.8v5.8c0,0.4-0.3,0.8-0.7,0.8h-5.1
	C441.2,189.6,440.8,189.1,440.8,188.6z M441.6,182.5c-0.2,0-0.4,0.3-0.4,0.4v5.8c0,0.2,0.2,0.4,0.4,0.4h5c0.2,0,0.4-0.3,0.4-0.4
	v-5.8c0-0.2-0.2-0.4-0.4-0.4H441.6z"/>
<ellipse class="st20" cx="970.2" cy="418.5" rx="48.4" ry="46.4"/>
<ellipse class="st21" cx="970.2" cy="418.5" rx="33.8" ry="32.5"/>
<ellipse class="st22" cx="970.2" cy="418.5" rx="24.1" ry="23.2"/>
<ellipse class="st23" cx="970.2" cy="418.5" rx="17.2" ry="16.5"/>
<ellipse class="st22" cx="970.2" cy="418.5" rx="12.9" ry="12.3"/>
<rect x="965.7" y="370.2" class="st20" width="11.5" height="3.9"/>
<polygon class="st20" points="981.6,375.3 983,371.7 993.9,375.5 992.5,379.1 "/>
<polygon class="st20" points="996.1,462.2 1005,455.1 1007.6,458.1 998.7,465.2 "/>
<polygon class="st20" points="979.4,462.5 990.3,458.7 991.6,462.3 980.8,466.1 "/>
<rect x="963.2" y="462.8" class="st20" width="11.5" height="3.9"/>
<polygon class="st20" points="946.5,461.5 947.9,457.8 958.8,461.6 957.4,465.3 "/>
<polygon class="st20" points="932.4,451 935,448.1 943.9,455.2 941.3,458.2 "/>
<polygon class="st20" points="923.1,436.8 926.6,434.8 932.4,444.4 928.9,446.4 "/>
<polygon class="st20" points="919.5,420.3 923.5,419.6 925.5,430.6 921.5,431.2 "/>
<polygon class="st20" points="919.8,414.3 921.8,403.4 925.8,404.1 923.8,415 "/>
<polygon class="st20" points="924.4,398.2 930.2,388.6 933.7,390.5 927.9,400.1 "/>
<polygon class="st20" points="936.1,389.3 944.9,382.2 947.5,385.2 938.7,392.3 "/>
<polygon class="st20" points="948.8,374.6 959.6,370.8 961,374.5 950.1,378.3 "/>
<path class="st20" d="M967.9,397.9c0,1.4,1.2,2.6,2.7,2.6c1.5,0,2.7-1.2,2.7-2.6s-1.2-2.6-2.7-2.6l0,0l0,0
	C969.1,395.2,967.9,396.4,967.9,397.9z"/>
<ellipse class="st20" cx="984.6" cy="403.1" rx="2.7" ry="2.6"/>
<path class="st20" d="M991.4,413.3c-1.5,0.3-2.5,1.6-2.2,3c0.3,1.4,1.7,2.4,3.2,2.1c1.5-0.3,2.5-1.6,2.2-3l0,0l0,0
	C994.3,413.9,992.9,413,991.4,413.3L991.4,413.3L991.4,413.3z"/>
<path class="st20" d="M990.3,427.7c-1.3-0.8-2.9-0.3-3.7,0.9c-0.8,1.3-0.4,2.8,1,3.6c1.3,0.8,2.9,0.3,3.7-0.9
	C992,430.1,991.6,428.5,990.3,427.7C990.3,427.8,990.3,427.8,990.3,427.7L990.3,427.7z"/>
<path class="st20" d="M979.8,438.2c-0.5-1.3-2-1.9-3.4-1.4c-1.3,0.5-2,1.9-1.5,3.3c0.5,1.3,2,1.9,3.3,1.5
	C979.5,441,980.2,439.6,979.8,438.2z"/>
<path class="st20" d="M964.7,439.7c0-1.5-1.3-2.7-2.8-2.6c-1.6,0-2.8,1.3-2.7,2.7s1.3,2.7,2.8,2.6
	C963.5,442.3,964.7,441.2,964.7,439.7L964.7,439.7z"/>
<path class="st20" d="M952.2,431.4c1.3-0.8,1.8-2.3,1-3.6c-0.8-1.3-2.4-1.7-3.7-0.9c-1.3,0.8-1.8,2.3-1,3.6l0,0
	C949.2,431.7,950.8,432.2,952.2,431.4L952.2,431.4L952.2,431.4z"/>
<path class="st20" d="M948,417.5c1.5,0.3,2.9-0.7,3.2-2.1c0.3-1.4-0.7-2.8-2.2-3c-1.5-0.3-2.9,0.7-3.2,2.1l0,0l0,0
	C945.6,415.9,946.6,417.2,948,417.5L948,417.5z"/>
<ellipse class="st20" cx="956.3" cy="402.6" rx="2.7" ry="2.6"/>
<ellipse class="st20" cx="836.5" cy="418.5" rx="48.4" ry="46.4"/>
<ellipse class="st21" cx="836.5" cy="418.5" rx="33.8" ry="32.5"/>
<ellipse class="st22" cx="836.5" cy="418.5" rx="24.1" ry="23.2"/>
<ellipse class="st23" cx="836.5" cy="418.5" rx="17.2" ry="16.5"/>
<ellipse class="st22" cx="836.5" cy="418.5" rx="12.9" ry="12.3"/>
<rect x="831.9" y="370.2" class="st20" width="11.5" height="3.9"/>
<polygon class="st20" points="848,375.3 849.3,371.7 860.2,375.5 858.8,379.1 "/>
<polygon class="st20" points="862.7,381.8 865.3,378.8 874.2,385.9 871.6,388.9 "/>
<polygon class="st20" points="874.1,392.6 877.7,390.6 883.4,400.2 879.9,402.1 "/>
<polygon class="st20" points="881.1,406.6 885.1,405.9 887.1,416.8 883.1,417.5 "/>
<polygon class="st20" points="880.7,432.8 882.7,421.9 886.7,422.5 884.7,433.4 "/>
<polygon class="st20" points="873,446.5 878.7,436.9 882.3,438.8 876.5,448.4 "/>
<polygon class="st20" points="861.9,461.8 870.8,454.7 873.4,457.7 864.5,464.8 "/>
<polygon class="st20" points="845.7,462.5 856.5,458.7 857.9,462.3 847.1,466.1 "/>
<rect x="829.5" y="462.8" class="st20" width="11.5" height="3.9"/>
<polygon class="st20" points="812.8,461.5 814.2,457.8 825,461.6 823.6,465.3 "/>
<polygon class="st20" points="798.8,451.1 801.4,448.1 810.2,455.2 807.6,458.2 "/>
<polygon class="st20" points="789.4,436.8 792.9,434.8 798.7,444.4 795.2,446.4 "/>
<polygon class="st20" points="785.8,420.4 789.8,419.7 791.8,430.6 787.8,431.3 "/>
<polygon class="st20" points="786.1,414.4 788.1,403.5 792.1,404.1 790.1,415 "/>
<polygon class="st20" points="790.7,398.1 796.5,388.5 800,390.5 794.3,400.1 "/>
<polygon class="st20" points="801.7,389 810.6,381.9 813.2,384.9 804.3,392 "/>
<polygon class="st20" points="815,374.6 825.9,370.8 827.2,374.5 816.4,378.3 "/>
<path class="st20" d="M834.1,397.9c0,1.4,1.2,2.6,2.7,2.6c1.5,0,2.7-1.2,2.7-2.6s-1.2-2.6-2.7-2.6l0,0l0,0
	C835.4,395.2,834.1,396.4,834.1,397.9z"/>
<ellipse class="st20" cx="851" cy="403.1" rx="2.7" ry="2.6"/>
<path class="st20" d="M857.7,413.3c-1.5,0.3-2.5,1.6-2.2,3c0.3,1.4,1.7,2.4,3.2,2.1c1.5-0.3,2.5-1.6,2.2-3l0,0l0,0
	C860.6,413.9,859.2,413,857.7,413.3z"/>
<path class="st20" d="M856.6,427.7c-1.3-0.8-2.9-0.3-3.7,0.9c-0.8,1.3-0.4,2.8,1,3.6c1.3,0.8,2.9,0.3,3.7-0.9
	C858.4,430.1,857.9,428.5,856.6,427.7C856.7,427.8,856.7,427.8,856.6,427.7L856.6,427.7z"/>
<path class="st20" d="M846,438.2c0-1.4-1.1-2.4-2.6-2.4c-1.4,0-2.5,1.1-2.5,2.5s1.1,2.4,2.6,2.4C844.9,440.7,846,439.6,846,438.2
	L846,438.2z"/>
<path class="st20" d="M831,439.7c0.5-1.4-0.3-2.8-1.6-3.2c-1.4-0.5-2.9,0.3-3.3,1.5c-0.4,1.3,0.2,2.7,1.6,3.2
	C828.9,441.7,830.4,441,831,439.7z"/>
<path class="st20" d="M818.4,431.4c1.3-0.8,1.8-2.3,1-3.6c-0.8-1.3-2.4-1.7-3.7-0.9s-1.8,2.3-1,3.6
	C815.5,431.7,817,432.2,818.4,431.4L818.4,431.4L818.4,431.4z"/>
<path class="st20" d="M814.3,417.5c1.5,0.3,2.9-0.7,3.2-2.1c0.3-1.4-0.7-2.8-2.2-3c-1.5-0.3-2.9,0.7-3.2,2.1l0,0l0,0
	C811.8,415.9,812.8,417.2,814.3,417.5L814.3,417.5z"/>
<ellipse class="st20" cx="822.6" cy="402.6" rx="2.7" ry="2.6"/>
<ellipse class="st27" cx="529.5" cy="351.8" rx="115.5" ry="110.9"/>
<ellipse class="st27" cx="529.6" cy="351.8" rx="80.9" ry="77.6"/>
<ellipse class="st22" cx="529.6" cy="351.8" rx="57.7" ry="55.4"/>
<ellipse class="st23" cx="529.6" cy="351.8" rx="41.1" ry="39.4"/>
<ellipse class="st22" cx="529.6" cy="351.8" rx="30.8" ry="29.6"/>
<rect x="518.7" y="236.7" class="st20" width="27.6" height="9.2"/>
<polygon class="st20" points="557,248.7 560.3,240 586.2,249.1 583,257.7 "/>
<polygon class="st20" points="592.1,263.9 598.3,256.9 619.4,273.9 613.3,280.9 "/>
<polygon class="st20" points="619.7,289.8 628,285.2 641.8,308.1 633.5,312.7 "/>
<polygon class="st20" points="636.4,323.1 645.8,321.5 650.6,347.6 641.2,349.2 "/>
<polygon class="st20" points="635.3,385.9 640.1,359.9 649.6,361.5 644.8,387.5 "/>
<polygon class="st20" points="616.7,418.7 630.5,395.8 638.8,400.4 625,423.3 "/>
<polygon class="st20" points="587.8,447.4 609,430.5 615.1,437.6 593.9,454.5 "/>
<polygon class="st20" points="551.6,456.8 577.6,447.8 580.8,456.4 554.9,465.5 "/>
<rect x="512.9" y="457.7" class="st20" width="27.6" height="9.2"/>
<polygon class="st20" points="472.9,454.6 476.2,445.9 502.1,454.9 498.8,463.6 "/>
<polygon class="st20" points="439.6,429.6 445.8,422.6 466.9,439.6 460.7,446.7 "/>
<polygon class="st20" points="417.3,395.5 425.6,390.9 439.4,413.8 431.1,418.4 "/>
<polygon class="st20" points="408.5,356 418,354.4 422.8,380.5 413.3,382.1 "/>
<polygon class="st20" points="409.6,342.1 414.4,316 423.8,317.6 419,343.7 "/>
<polygon class="st20" points="420.3,303.3 434.1,280.4 442.4,285 428.6,307.9 "/>
<polygon class="st20" points="444.2,273.4 465.4,256.5 471.5,263.6 450.3,280.5 "/>
<polygon class="st20" points="478.3,247.1 504.2,238 507.5,246.7 481.6,255.7 "/>
<path class="st20" d="M524,302.7c0,3.4,2.9,6.2,6.4,6.2s6.4-2.8,6.4-6.2c0-3.4-2.9-6.2-6.4-6.2l0,0l0,0c-3.5,0-6.3,2.6-6.4,6l0,0
	V302.7z"/>
<path class="st20" d="M559.1,311.2c-2.3,2.6-1.9,6.5,0.8,8.7c2.7,2.2,6.8,1.9,9.1-0.8c2.3-2.6,1.9-6.5-0.8-8.7
	C565.5,308.2,561.4,308.5,559.1,311.2L559.1,311.2z"/>
<path class="st20" d="M580.3,339.3c-3.5,0.6-5.8,3.8-5.2,7.2c0.6,3.4,4,5.6,7.5,5s5.8-3.8,5.2-7.2l0,0
	C587.2,340.9,583.8,338.7,580.3,339.3C580.4,339.3,580.4,339.3,580.3,339.3L580.3,339.3z"/>
<path class="st20" d="M577.6,373.9c-3.1-1.7-7-0.7-8.8,2.3s-0.7,6.8,2.4,8.5c3.1,1.7,7,0.7,8.8-2.3
	C581.7,379.4,580.7,375.6,577.6,373.9L577.6,373.9z"/>
<path class="st20" d="M552.4,398.8c-1.2-3.2-4.9-4.9-8.3-3.7s-5.1,4.7-3.9,7.9c1.2,3.2,4.9,4.9,8.3,3.7l0,0l0,0
	C551.8,405.6,553.6,402,552.4,398.8z"/>
<path class="st20" d="M516.4,402.3c1.2-3.2-0.5-6.8-3.9-7.9c-3.3-1.2-7,0.5-8.3,3.7c-1.2,3.2,0.5,6.8,3.9,7.9l0,0l0,0
	C511.5,407.2,515.2,405.6,516.4,402.3z"/>
<path class="st20" d="M486.5,382.8c3.1-1.7,4.1-5.5,2.4-8.5c-1.8-3-5.7-4-8.8-2.3c-3.1,1.7-4.1,5.5-2.4,8.5S483.4,384.5,486.5,382.8
	L486.5,382.8z"/>
<path class="st20" d="M476.6,349.4c3.5,0.6,6.9-1.6,7.5-5s-1.7-6.6-5.2-7.2c-3.5-0.6-6.9,1.6-7.5,5l0,0
	C470.8,345.6,473.1,348.8,476.6,349.4z"/>
<path class="st20" d="M491.5,317.7c2.3,2.6,6.3,3,9.1,0.8c2.7-2.2,3.1-6.1,0.8-8.7s-6.3-3-9.1-0.8
	C489.6,311.2,489.2,315.1,491.5,317.7z"/>
<polygon class="st1" points="1066,370.3 1087.4,281.7 659.6,281.7 659.6,339.2 "/>
<path class="st28" d="M714.6,326.1c26.6,6.3,53.7,10.8,80.9,14.7c36.2,5.2,72.5,10.5,108.9,14.7c38.9,4.5,78.4,3.6,116.6-5.8
	c19.3-4.7,34.6-17.6,45.1-33.3c7-10.4,10-22.5,10-34.8h11.3l-21.4,88.6l-406.4-31.1v-29.9C677.5,316,695.9,321.6,714.6,326.1z"/>
<polygon class="st3" points="749.2,281.7 749.2,346 659.6,339.2 659.6,281.7 "/>
<polygon class="st3" points="1063.6,256.9 659.6,256.9 659.6,281.7 1087.4,281.7 "/>
<path class="st1" d="M689.7,359v79.7c0,0.8,0.8,1.6,1.7,1.6l0,0h5.8c0.9,0,1.7-0.8,1.7-1.6l0,0l0,0V359c0-0.8-0.8-1.6-1.7-1.6l0,0
	h-5.8C690.5,357.5,689.8,358.2,689.7,359z"/>
<path class="st1" d="M688.1,263.6v108.1c0,1.2,1.1,2.2,2.3,2.2h7.9c1.2,0,2.3-1,2.3-2.2V263.6c0-1.2-1.1-2.2-2.3-2.2h-7.9
	C689.2,261.4,688.1,262.5,688.1,263.6z"/>
<path class="st1" d="M685.9,361.8v6.6c0,1.2,1,2.2,2.3,2.2h12.2c1.2,0,2.3-0.9,2.3-2.2v-6.6c0-1.2-1-2.2-2.3-2.2h-12.2
	C687,359.6,686,360.6,685.9,361.8z"/>
<path class="st1" d="M665.4,369.7v65.5c0,0.8,0.6,1.4,1.4,1.4l0,0h4.8c0.8,0,1.4-0.6,1.4-1.4l0,0v-65.5c0-0.8-0.6-1.4-1.4-1.4l0,0
	h-4.8C666,368.3,665.4,368.9,665.4,369.7L665.4,369.7L665.4,369.7z"/>
<path class="st1" d="M664.1,291.3v88.8c0,0.9,0.8,1.8,1.8,1.8l0,0h6.6c1,0,1.9-0.8,1.9-1.7l0,0v-88.9c0-0.9-0.8-1.8-1.8-1.8l0,0
	h-6.6C665,289.5,664.1,290.3,664.1,291.3C664.1,291.2,664.1,291.2,664.1,291.3L664.1,291.3z"/>
<path class="st1" d="M662.2,371.9v5.4c0,0.9,0.8,1.8,1.8,1.8l0,0h10.2c1,0,1.9-0.8,1.9-1.7l0,0v-5.5c0-0.9-0.8-1.8-1.8-1.8l0,0
	h-10.2C663,370.1,662.2,370.9,662.2,371.9z"/>
<linearGradient id="SVGID_15_" gradientUnits="userSpaceOnUse" x1="530.0005" y1="1334.5389" x2="530.0005" y2="1325.0238" gradientTransform="matrix(6.123234e-17 1 -1 6.123234e-17 1763.25 -240.05)">
	<stop  offset="0" style="stop-color:#FFFFFF"/>
	<stop  offset="1" style="stop-color:#000000"/>
</linearGradient>
<path class="st29" d="M431.5,272.1v33.7c0,1.1,1,2,2.1,2h3.2c1.1,0,2.1-0.9,2.1-2v-33.7H431.5z"/>
<path class="st1" d="M440.3,343.7v-46.4c0-1.5-1.3-2.8-2.9-2.8h-4.3c-1.6,0-2.9,1.3-2.9,2.8v46.4H440.3z"/>
<path class="st3" d="M428.4,304.4v-5.3c0-1,0.8-1.8,1.9-1.8h10c1.1,0,1.9,0.8,1.9,1.8v5.3c0,1-0.8,1.8-1.9,1.8h-10
	C429.3,306.2,428.4,305.4,428.4,304.4C428.4,304.5,428.4,304.5,428.4,304.4L428.4,304.4z"/>
<polygon class="st3" points="390.9,349.4 678.2,428.5 660,449.4 390.9,375.4 "/>
<linearGradient id="SVGID_16_" gradientUnits="userSpaceOnUse" x1="449.5059" y1="1146.8777" x2="449.5059" y2="1135.1422" gradientTransform="matrix(6.123234e-17 1 -1 6.123234e-17 1763.25 -149.28)">
	<stop  offset="0" style="stop-color:#FFFFFF"/>
	<stop  offset="1" style="stop-color:#000000"/>
</linearGradient>
<path class="st30" d="M619.9,263.8v69.9c-0.1,1.5,1.1,2.9,2.6,3h3.9c1.6-0.2,2.7-1.4,2.6-3v-69.9H619.9z"/>
<path class="st1" d="M630.6,421.7V321.3c0-2.2-1.6-4.1-3.6-4.1h-5.3c-1.9,0-3.6,1.8-3.6,4.1v100.4H630.6z"/>
<path class="st3" d="M616,331.7v-8.1c0-1.3,1.1-2.4,2.5-2.4h12c1.3,0,2.5,1.1,2.5,2.4v8.1c0,1.3-1.1,2.4-2.5,2.4h-12
	C617.1,334.1,616,333,616,331.7z"/>
<polygon class="st1" points="730.1,396.3 654.5,396.3 654.5,456.4 692.3,456.4 730.1,436.8 "/>
<path class="st31" d="M683.6,405.1h8c0.4,0,0.6-0.3,0.6-0.5l0,0v-1.4c0-0.3-0.3-0.6-0.5-0.6l0,0h-8c-0.4,0-0.6,0.3-0.6,0.5l0,0v1.4
	C683,404.9,683.3,405.1,683.6,405.1C683.6,405.1,683.6,405.1,683.6,405.1L683.6,405.1z"/>
<path class="st31" d="M683.6,410.2h8c0.4,0,0.6-0.3,0.6-0.5l0,0v-1.4c0-0.3-0.3-0.6-0.5-0.6l0,0h-8c-0.4,0-0.6,0.3-0.6,0.5l0,0v1.4
	C683,410,683.3,410.2,683.6,410.2C683.6,410.2,683.6,410.2,683.6,410.2L683.6,410.2z"/>
<path class="st31" d="M683.6,415.3h8c0.4,0,0.6-0.3,0.6-0.5l0,0v-1.4c0-0.3-0.3-0.6-0.5-0.6l0,0h-8c-0.4,0-0.6,0.3-0.6,0.5l0,0v1.4
	C683,415,683.3,415.3,683.6,415.3C683.6,415.3,683.6,415.3,683.6,415.3L683.6,415.3z"/>
<path class="st31" d="M683.6,420.4h8c0.4,0,0.6-0.3,0.6-0.5l0,0v-1.4c0-0.3-0.3-0.6-0.5-0.6l0,0h-8c-0.4,0-0.6,0.3-0.6,0.5l0,0v1.4
	C683,420.1,683.3,420.4,683.6,420.4C683.6,420.4,683.6,420.4,683.6,420.4L683.6,420.4z"/>
<path class="st31" d="M683.6,425.4h8c0.4,0,0.6-0.3,0.6-0.5l0,0v-1.4c0-0.3-0.3-0.6-0.5-0.6l0,0h-8c-0.4,0-0.6,0.3-0.6,0.5l0,0v1.4
	C683,425.2,683.3,425.4,683.6,425.4C683.6,425.4,683.6,425.4,683.6,425.4L683.6,425.4z"/>
<path class="st31" d="M683.6,430.4h8c0.4,0,0.6-0.3,0.6-0.5l0,0v-1.4c0-0.3-0.3-0.6-0.5-0.6l0,0h-8c-0.4,0-0.6,0.3-0.6,0.5l0,0v1.4
	C683,430.2,683.3,430.4,683.6,430.4C683.6,430.4,683.6,430.4,683.6,430.4L683.6,430.4z"/>
<path class="st31" d="M683.6,435.5h8c0.4,0,0.6-0.3,0.6-0.5l0,0v-1.4c0-0.3-0.3-0.6-0.5-0.6l0,0h-8c-0.4,0-0.6,0.3-0.6,0.5l0,0v1.4
	C683,435.2,683.3,435.5,683.6,435.5C683.6,435.5,683.6,435.5,683.6,435.5L683.6,435.5z"/>
<path class="st31" d="M671.4,405.1h8c0.4,0,0.6-0.3,0.6-0.5l0,0v-1.4c0-0.3-0.3-0.6-0.5-0.6l0,0h-8.1c-0.4,0-0.6,0.3-0.6,0.5l0,0
	v1.4C670.8,404.9,671,405.1,671.4,405.1C671.3,405.1,671.4,405.1,671.4,405.1L671.4,405.1z"/>
<path class="st31" d="M671.4,410.2h8c0.4,0,0.6-0.3,0.6-0.5l0,0v-1.4c0-0.3-0.3-0.6-0.5-0.6l0,0h-8.1c-0.4,0-0.6,0.3-0.6,0.5l0,0
	v1.4C670.8,410,671,410.2,671.4,410.2C671.3,410.2,671.4,410.2,671.4,410.2L671.4,410.2z"/>
<path class="st31" d="M671.4,415.3h8c0.4,0,0.6-0.3,0.6-0.5l0,0v-1.4c0-0.3-0.3-0.6-0.5-0.6l0,0h-8.1c-0.4,0-0.6,0.3-0.6,0.5l0,0
	v1.4C670.8,415,671,415.3,671.4,415.3C671.3,415.3,671.4,415.3,671.4,415.3L671.4,415.3z"/>
<path class="st31" d="M671.4,420.4h8c0.4,0,0.6-0.3,0.6-0.5l0,0v-1.4c0-0.3-0.3-0.6-0.5-0.6l0,0h-8.1c-0.4,0-0.6,0.3-0.6,0.5l0,0
	v1.4C670.8,420.1,671,420.4,671.4,420.4C671.3,420.4,671.4,420.4,671.4,420.4L671.4,420.4z"/>
<path class="st31" d="M671.4,425.4h8c0.4,0,0.6-0.3,0.6-0.5l0,0v-1.4c0-0.3-0.3-0.6-0.5-0.6l0,0h-8.1c-0.4,0-0.6,0.3-0.6,0.5l0,0
	v1.4C670.8,425.2,671,425.4,671.4,425.4C671.3,425.4,671.4,425.4,671.4,425.4L671.4,425.4z"/>
<path class="st31" d="M671.4,430.4h8c0.4,0,0.6-0.3,0.6-0.5l0,0v-1.4c0-0.3-0.3-0.6-0.5-0.6l0,0h-8.1c-0.4,0-0.6,0.3-0.6,0.5l0,0
	v1.4C670.8,430.2,671,430.4,671.4,430.4C671.3,430.4,671.4,430.4,671.4,430.4L671.4,430.4z"/>
<path class="st31" d="M671.4,435.5h8c0.4,0,0.6-0.3,0.6-0.5l0,0v-1.4c0-0.3-0.3-0.6-0.5-0.6l0,0h-8.1c-0.4,0-0.6,0.3-0.6,0.5l0,0
	v1.4C670.8,435.2,671,435.5,671.4,435.5C671.3,435.5,671.4,435.5,671.4,435.5L671.4,435.5z"/>
<path class="st31" d="M659.1,405.1h8c0.4,0,0.6-0.3,0.6-0.5l0,0v-1.4c0-0.3-0.3-0.6-0.5-0.6l0,0h-8.1c-0.4,0-0.6,0.3-0.6,0.5l0,0
	v1.4C658.5,404.9,658.7,405.1,659.1,405.1z"/>
<path class="st31" d="M659.1,410.2h8c0.4,0,0.6-0.3,0.6-0.5l0,0v-1.4c0-0.3-0.3-0.6-0.5-0.6l0,0h-8.1c-0.4,0-0.6,0.3-0.6,0.5l0,0
	v1.4C658.5,410,658.7,410.1,659.1,410.2z"/>
<path class="st31" d="M659.1,415.3h8c0.4,0,0.6-0.3,0.6-0.5l0,0v-1.4c0-0.3-0.3-0.6-0.5-0.6l0,0h-8.1c-0.4,0-0.6,0.3-0.6,0.5l0,0
	v1.4C658.5,415,658.7,415.2,659.1,415.3z"/>
<path class="st31" d="M659.1,420.4h8c0.4,0,0.6-0.3,0.6-0.5l0,0v-1.4c0-0.3-0.3-0.6-0.5-0.6l0,0h-8.1c-0.4,0-0.6,0.3-0.6,0.5l0,0
	v1.4C658.5,420.1,658.7,420.3,659.1,420.4z"/>
<path class="st31" d="M659.1,425.4h8c0.4,0,0.6-0.3,0.6-0.5l0,0v-1.4c0-0.3-0.3-0.6-0.5-0.6l0,0h-8.1c-0.4,0-0.6,0.3-0.6,0.5l0,0
	v1.4C658.5,425.2,658.7,425.3,659.1,425.4z"/>
<path class="st31" d="M659.1,430.4h8c0.4,0,0.6-0.3,0.6-0.5l0,0v-1.4c0-0.3-0.3-0.6-0.5-0.6l0,0h-8.1c-0.4,0-0.6,0.3-0.6,0.5l0,0
	v1.4C658.5,430.2,658.7,430.3,659.1,430.4z"/>
<path class="st31" d="M659.1,435.5h8c0.4,0,0.6-0.3,0.6-0.5l0,0v-1.4c0-0.3-0.3-0.6-0.5-0.6l0,0h-8.1c-0.4,0-0.6,0.3-0.6,0.5l0,0
	v1.4C658.5,435.2,658.7,435.4,659.1,435.5z"/>
<rect x="302.1" y="281.7" class="st1" width="18.7" height="100.1"/>
<polygon class="st1" points="618.6,413.9 633.6,418 635.8,427 635.8,427.3 635.7,428.1 623.6,428.1 621.3,434.7 613.5,434.7 
	613.1,424.2 "/>
<rect x="390.9" y="334.9" class="st3" width="51.2" height="8.8"/>
<polygon class="st1" points="417.8,281 417.8,295.5 403.9,302.2 403.9,309.5 403.9,339.7 403.9,342.3 403.9,372.5 403.9,379.8 
	417.8,386.5 417.8,401 388.1,401 388.1,372.5 388.1,342.3 388.1,339.7 388.1,309.5 388.1,281 "/>
<polygon class="st3" points="434.5,196.5 618.6,196.5 665.6,262.7 665.6,262.7 665.6,281.6 636,281.6 614.3,263.8 438.8,263.8 
	417.1,281.6 387.5,281.6 387.5,262.7 "/>
<path class="st1" d="M625.6,256.2h5.6c-1.2,0-2.6,0.2-3.7,0.6c2.5,0.7,4.5,2.4,5.5,4.7l4.4,10.4h-5.6l-4.4-10.4
	c-1.1-2.2-3.1-3.9-5.5-4.7C623.1,256.5,624.4,256.2,625.6,256.2z"/>
<path class="st1" d="M631.8,256.2h5.6c4.1,0,7.8,2.1,9.2,5.2l4.4,10.4h-5.6l-4.4-10.4C639.6,258.3,636,256.2,631.8,256.2z"/>
<path class="st1" d="M643.1,256.2h5.6c4.1,0,7.8,2.1,9.2,5.2l4.4,10.4h-5.5l-4.4-10.4C651,258.3,647.3,256.2,643.1,256.2z"/>
<radialGradient id="SVGID_17_" cx="1337.0187" cy="-1654.6401" r="4.12" gradientTransform="matrix(-0.5551 0.6512 0.6784 0.5328 2470.3601 231.3029)" gradientUnits="userSpaceOnUse">
	<stop  offset="0" style="stop-color:#FFFFFF"/>
	<stop  offset="1" style="stop-color:#000000"/>
</radialGradient>
<path class="st32" d="M591.5,211.7c1.6,1.2,3.9,1,5.1-0.5c1.2-1.5,1.1-3.7-0.5-4.9c-1.6-1.2-3.9-1-5.1,0.5
	C589.7,208.3,590,210.5,591.5,211.7z"/>
<radialGradient id="SVGID_18_" cx="1371.9287" cy="-1697.1702" r="4.12" gradientTransform="matrix(-0.5551 0.6512 0.6784 0.5328 2470.3601 231.3029)" gradientUnits="userSpaceOnUse">
	<stop  offset="0" style="stop-color:#FFFFFF"/>
	<stop  offset="1" style="stop-color:#000000"/>
</radialGradient>
<path class="st33" d="M543,211.7c1.6,1.2,3.9,1,5.1-0.5c1.2-1.5,1.1-3.7-0.5-4.9c-1.6-1.2-3.9-1-5.1,0.5
	C541.3,208.3,541.5,210.5,543,211.7z"/>
<radialGradient id="SVGID_19_" cx="1406.8286" cy="-1739.7" r="4.12" gradientTransform="matrix(-0.5551 0.6512 0.6784 0.5328 2470.3601 231.3029)" gradientUnits="userSpaceOnUse">
	<stop  offset="0" style="stop-color:#FFFFFF"/>
	<stop  offset="1" style="stop-color:#000000"/>
</radialGradient>
<path class="st34" d="M494.6,211.7c1.6,1.2,3.9,1,5.1-0.5c1.2-1.5,1.1-3.7-0.5-4.9c-1.6-1.2-3.9-1-5.1,0.5
	C492.8,208.3,493,210.5,494.6,211.7z"/>
<radialGradient id="SVGID_20_" cx="1441.7386" cy="-1782.23" r="4.12" gradientTransform="matrix(-0.5551 0.6512 0.6784 0.5328 2470.3601 231.3029)" gradientUnits="userSpaceOnUse">
	<stop  offset="0" style="stop-color:#FFFFFF"/>
	<stop  offset="1" style="stop-color:#000000"/>
</radialGradient>
<path class="st35" d="M446.1,211.7c1.6,1.2,3.9,1,5.1-0.5c1.2-1.5,1.1-3.7-0.5-4.9c-1.6-1.2-3.9-1-5.1,0.5
	C444.4,208.3,444.5,210.5,446.1,211.7z"/>
<radialGradient id="SVGID_21_" cx="1561.9686" cy="-1784.1301" r="4.12" gradientTransform="matrix(-0.5551 0.6512 0.6784 0.5328 2470.3601 231.3029)" gradientUnits="userSpaceOnUse">
	<stop  offset="0" style="stop-color:#FFFFFF"/>
	<stop  offset="1" style="stop-color:#000000"/>
</radialGradient>
<path class="st36" d="M377.6,289.3c1.6,1.2,3.9,1,5.1-0.5c1.2-1.5,1.1-3.7-0.5-4.9s-3.9-1-5.1,0.5S376.1,288,377.6,289.3z"/>
<radialGradient id="SVGID_22_" cx="1596.8586" cy="-1826.6501" r="4.13" gradientTransform="matrix(-0.5551 0.6512 0.6784 0.5328 2470.3601 231.3029)" gradientUnits="userSpaceOnUse">
	<stop  offset="0" style="stop-color:#FFFFFF"/>
	<stop  offset="1" style="stop-color:#000000"/>
</radialGradient>
<path class="st37" d="M329.1,289.3c1.6,1.2,3.9,1,5.1-0.5c1.2-1.5,1.1-3.7-0.5-4.9c-1.6-1.2-3.9-1-5.1,0.5
	C327.4,285.9,327.6,288,329.1,289.3z"/>
<radialGradient id="SVGID_23_" cx="1714.2186" cy="-1659.1702" r="4.12" gradientTransform="matrix(-0.5551 0.6512 0.6784 0.5328 2470.3601 231.3029)" gradientUnits="userSpaceOnUse">
	<stop  offset="0" style="stop-color:#FFFFFF"/>
	<stop  offset="1" style="stop-color:#000000"/>
</radialGradient>
<path class="st38" d="M377.6,455.9c1.6,1.2,3.9,1,5.1-0.5c1.2-1.5,1.1-3.7-0.5-4.9c-1.6-1.2-3.9-1-5.1,0.5S376.1,454.6,377.6,455.9z
	"/>
<radialGradient id="SVGID_24_" cx="1749.1287" cy="-1701.6902" r="4.12" gradientTransform="matrix(-0.5551 0.6512 0.6784 0.5328 2470.3601 231.3029)" gradientUnits="userSpaceOnUse">
	<stop  offset="0" style="stop-color:#FFFFFF"/>
	<stop  offset="1" style="stop-color:#000000"/>
</radialGradient>
<path class="st39" d="M329.1,455.9c1.6,1.2,3.9,1,5.1-0.5c1.2-1.5,1.1-3.7-0.5-4.9c-1.6-1.2-3.9-1-5.1,0.5
	C327.4,452.5,327.6,454.6,329.1,455.9z"/>
<radialGradient id="SVGID_25_" cx="1380.3599" cy="-1973.2787" r="4.12" gradientTransform="matrix(0.6784 0.5328 0.5551 -0.6512 903.4236 -1739.7504)" gradientUnits="userSpaceOnUse">
	<stop  offset="0" style="stop-color:#FFFFFF"/>
	<stop  offset="1" style="stop-color:#000000"/>
</radialGradient>
<path class="st40" d="M739.9,292.1c1.2-1.5,1.1-3.7-0.5-4.9c-1.6-1.2-3.9-1-5.1,0.5c-1.2,1.5-1.1,3.7,0.5,4.9
	C736.3,293.8,738.5,293.5,739.9,292.1z"/>
<radialGradient id="SVGID_26_" cx="1415.2598" cy="-2015.8087" r="4.12" gradientTransform="matrix(0.6784 0.5328 0.5551 -0.6512 903.4236 -1739.7504)" gradientUnits="userSpaceOnUse">
	<stop  offset="0" style="stop-color:#FFFFFF"/>
	<stop  offset="1" style="stop-color:#000000"/>
</radialGradient>
<path class="st41" d="M739.9,338.6c1.2-1.5,1.1-3.7-0.5-4.9c-1.6-1.2-3.9-1-5.1,0.5c-1.2,1.5-1.1,3.7,0.5,4.9
	C736.3,340.3,738.5,340,739.9,338.6z"/>
<radialGradient id="SVGID_27_" cx="1140.5487" cy="-1263.04" r="4.13" gradientTransform="matrix(-0.5551 0.6512 0.6784 0.5328 2470.3601 231.3029)" gradientUnits="userSpaceOnUse">
	<stop  offset="0" style="stop-color:#FFFFFF"/>
	<stop  offset="1" style="stop-color:#000000"/>
</radialGradient>
<path class="st42" d="M968,293.4c1.6,1.2,3.9,1,5.1-0.5c1.2-1.5,1.1-3.7-0.5-4.9c-1.6-1.2-3.9-1-5.1,0.5
	C966.3,290,966.5,292.2,968,293.4z"/>
<radialGradient id="SVGID_28_" cx="1175.4586" cy="-1305.5701" r="4.12" gradientTransform="matrix(-0.5551 0.6512 0.6784 0.5328 2470.3601 231.3029)" gradientUnits="userSpaceOnUse">
	<stop  offset="0" style="stop-color:#FFFFFF"/>
	<stop  offset="1" style="stop-color:#000000"/>
</radialGradient>
<path class="st43" d="M919.6,293.4c1.6,1.2,3.9,1,5.1-0.5c1.2-1.5,1.1-3.7-0.5-4.9s-3.9-1-5.1,0.5C917.8,290,918,292.2,919.6,293.4z
	"/>
<radialGradient id="SVGID_29_" cx="1206.2386" cy="-1343.0701" r="4.12" gradientTransform="matrix(-0.5551 0.6512 0.6784 0.5328 2470.3601 231.3029)" gradientUnits="userSpaceOnUse">
	<stop  offset="0" style="stop-color:#FFFFFF"/>
	<stop  offset="1" style="stop-color:#000000"/>
</radialGradient>
<path class="st44" d="M876.9,293.4c1.6,1.2,3.9,1,5.1-0.5s1.1-3.7-0.5-4.9c-1.6-1.2-3.9-1-5.1,0.5c-1.2,1.4-1.1,3.6,0.4,4.7
	L876.9,293.4z"/>
<radialGradient id="SVGID_30_" cx="1241.1387" cy="-1385.6001" r="4.12" gradientTransform="matrix(-0.5551 0.6512 0.6784 0.5328 2470.3601 231.3029)" gradientUnits="userSpaceOnUse">
	<stop  offset="0" style="stop-color:#FFFFFF"/>
	<stop  offset="1" style="stop-color:#000000"/>
</radialGradient>
<path class="st45" d="M828.3,293.4c1.6,1.2,3.9,1,5.1-0.5s1.1-3.7-0.5-4.9c-1.6-1.2-3.9-1-5.1,0.5
	C826.6,290,826.8,292.1,828.3,293.4z"/>
<radialGradient id="SVGID_31_" cx="1276.0387" cy="-1428.1401" r="4.12" gradientTransform="matrix(-0.5551 0.6512 0.6784 0.5328 2470.3601 231.3029)" gradientUnits="userSpaceOnUse">
	<stop  offset="0" style="stop-color:#FFFFFF"/>
	<stop  offset="1" style="stop-color:#000000"/>
</radialGradient>
<path class="st46" d="M779.9,293.4c1.6,1.2,3.9,1,5.1-0.5c1.2-1.5,1.1-3.7-0.5-4.9c-1.6-1.2-3.9-1-5.1,0.5
	C778.1,290,778.4,292.1,779.9,293.4z"/>
<radialGradient id="SVGID_32_" cx="-2052.4841" cy="1499.5267" r="6.07" gradientTransform="matrix(-2.643117e-02 -0.8457 -0.881 2.537140e-02 1892.7776 -1349.2761)" gradientUnits="userSpaceOnUse">
	<stop  offset="0" style="stop-color:#FFFFFF"/>
	<stop  offset="1" style="stop-color:#000000"/>
</radialGradient>
<ellipse class="st47" cx="623.6" cy="421.2" rx="5.4" ry="5.2"/>
<radialGradient id="SVGID_33_" cx="-1948.5442" cy="1754.1567" r="6.07" gradientTransform="matrix(-2.643117e-02 -0.8457 -0.881 2.537140e-02 1892.7775 -1349.2761)" gradientUnits="userSpaceOnUse">
	<stop  offset="0" style="stop-color:#FFFFFF"/>
	<stop  offset="1" style="stop-color:#000000"/>
</radialGradient>
<path class="st48" d="M396.7,334.2c-2.9,0.1-5.3,2.5-5.2,5.2c0.1,2.8,2.6,5.1,5.5,5s5.3-2.5,5.2-5.2
	C402.1,336.4,399.7,334.1,396.7,334.2L396.7,334.2L396.7,334.2z"/>
<radialGradient id="SVGID_34_" cx="-2036.0243" cy="1387.0067" r="6.08" gradientTransform="matrix(-2.643117e-02 -0.8457 -0.881 2.537140e-02 1892.7776 -1349.2761)" gradientUnits="userSpaceOnUse">
	<stop  offset="0" style="stop-color:#FFFFFF"/>
	<stop  offset="1" style="stop-color:#000000"/>
</radialGradient>
<ellipse class="st49" cx="722.3" cy="404.6" rx="5.4" ry="5.2"/>
</svg>
