<?xml version="1.0" encoding="utf-8"?>
<!-- Generator: Adobe Illustrator 26.0.0, SVG Export Plug-In . SVG Version: 6.00 Build 0)  -->
<svg version="1.1" id="Layer_1" xmlns="http://www.w3.org/2000/svg" xmlns:xlink="http://www.w3.org/1999/xlink" x="0px" y="0px"
	 viewBox="0 0 500 500" style="enable-background:new 0 0 500 500;" xml:space="preserve">
<style type="text/css">
	.st0{clip-path:url(#SVGID_00000072961927666646127070000007181508677659055530_);}
	.st1{fill:#BF0202;}
	.st2{clip-path:url(#SVGID_00000139985035095249509240000004240495527543100338_);}
	.st3{fill:#FFFFFF;}
	.st4{clip-path:url(#SVGID_00000088848610524559550910000017092879121340143530_);}
	.st5{clip-path:url(#SVGID_00000037658677319836560470000018002362682188565408_);}
	.st6{clip-path:url(#SVGID_00000149341962609725515610000000020607991693256070_);}
	.st7{clip-path:url(#SVGID_00000133500430723077592220000009590112391149904819_);}
	.st8{clip-path:url(#SVGID_00000158707727299510250410000000098991735330549435_);}
	.st9{clip-path:url(#SVGID_00000053533940963732094410000004006502841368507272_);}
	.st10{clip-path:url(#SVGID_00000127729888438749344450000004346952357174663831_);}
	.st11{clip-path:url(#SVGID_00000014597670882470487380000004146791186735901856_);}
	.st12{clip-path:url(#SVGID_00000123443525409599667470000001281302853327375013_);}
	.st13{clip-path:url(#SVGID_00000078745296212764646500000012738140567885463731_);}
	.st14{clip-path:url(#SVGID_00000074405483392356589470000017646123797646844058_);}
	.st15{clip-path:url(#SVGID_00000066506978761616749430000000074095078350149521_);}
	.st16{clip-path:url(#SVGID_00000133502229608568442000000011941045595836518037_);}
	.st17{clip-path:url(#SVGID_00000130619588490696230430000010602744713305559980_);}
	.st18{clip-path:url(#SVGID_00000064351544176219531420000008735880086444498357_);}
	.st19{clip-path:url(#SVGID_00000010289575182585319560000000165000280486374846_);}
</style>
<g>
	<defs>
		<rect id="SVGID_1_" x="41.3" y="203.1" width="422" height="60.9"/>
	</defs>
	<clipPath id="SVGID_00000145740514796168056670000000543224952458416545_">
		<use xlink:href="#SVGID_1_"  style="overflow:visible;"/>
	</clipPath>
	<g style="clip-path:url(#SVGID_00000145740514796168056670000000543224952458416545_);">
		<path class="st1" d="M75.6,246.3c5.3-1,10.5-2.3,15.6-3.9c5.1-1.6,10.2-3.5,15.2-5.5c5-2,10-4.2,14.9-6.5l15.1-6.9
			c5.1-2.3,10.3-4.6,15.6-6.8c1.3-0.5,2.7-1.1,4-1.6l2-0.8l2.1-0.8c1.4-0.5,2.8-1,4.2-1.5c0.7-0.2,1.4-0.5,2.1-0.7
			c0.7-0.2,1.4-0.5,2.1-0.7c1.4-0.4,2.8-0.9,4.3-1.3c0.7-0.2,1.4-0.4,2.2-0.6l2.2-0.6c1.5-0.4,2.9-0.8,4.4-1.1l2.2-0.5
			c0.7-0.2,1.5-0.3,2.2-0.4l4.5-0.8l4.5-0.7c0.4-0.1,0.8-0.1,1.1-0.2l1.1-0.1l2.3-0.3c0.8-0.1,1.5-0.2,2.3-0.3l2.3-0.2
			c6.1-0.5,12.2-0.8,18.3-0.7c6.1,0.1,12.1,0.4,18.1,0.9c12,1.1,23.8,3.1,35.2,5.8c11.4,2.7,22.5,6,33.2,9.7
			c5.4,1.9,10.7,3.9,15.9,6c5.2,2.1,10.3,4.3,15.3,6.6c-10.8-3.6-21.6-7-32.7-10c-11-3-22.2-5.5-33.5-7.4c-5.7-1-11.4-1.8-17.1-2.4
			c-2.8-0.3-5.7-0.6-8.6-0.8l-4.3-0.3c-1.4-0.1-2.9-0.1-4.3-0.2c-5.7-0.2-11.4-0.3-17.1-0.1l-4.3,0.2c-1.4,0.1-2.8,0.2-4.2,0.3
			l-1.1,0.1l-1.1,0.1l-2.1,0.2c-0.7,0.1-1.4,0.1-2.1,0.2l-2.1,0.3l-2.1,0.3c-0.7,0.1-1.4,0.2-2.1,0.3l-2.1,0.3l-1,0.2
			c-0.3,0.1-0.7,0.1-1,0.2l-4.1,0.8l-4,0.9c-0.7,0.1-1.3,0.3-2,0.5l-2,0.5c-1.3,0.3-2.6,0.7-3.9,1.1l-2,0.6
			c-0.7,0.2-1.3,0.4-1.9,0.6c-1.3,0.4-2.6,0.8-3.8,1.3c-10.2,3.5-20,8.1-29.7,12.8c-9.8,4.8-19.6,9.8-30.2,14.3
			c-2,0.9-4.1,1.7-6.2,2.5c6.3,0.5,12.5,0.8,18.8,1.1l6,0.2l6,0.1c2,0.1,4,0.1,6,0.1l3,0c1,0,2,0,3,0c8,0,16-0.1,24-0.4
			c8-0.2,16.1-0.6,24.1-1.1c8-0.4,16.1-1,24.1-1.6c16.1-1.2,32.2-2.6,48.4-3.9c16.2-1.4,32.4-2.7,48.7-3.8l6.1-0.4
			c2-0.1,4.1-0.3,6.1-0.4c4.1-0.2,8.2-0.4,12.3-0.6c2-0.1,4.1-0.2,6.2-0.2l6.2-0.2c2.1,0,4.1-0.1,6.2-0.1l3.1,0c1,0,2.1,0,3.1,0
			c2.1,0,4.1,0,6.2,0.1l3.1,0.1c1,0,2.1,0.1,3.1,0.1l3.1,0.1l3.1,0.2c2.1,0.1,4.1,0.3,6.2,0.4c8.2,0.6,16.4,1.6,24.5,3
			c8.1,1.4,15.9,3.3,23.5,5.8c7.6,2.4,14.8,5.3,21.6,8.8c-14.5-5.6-30.2-9.1-46-10.8c-15.9-1.8-32-1.8-48-1.1c-1,0-2,0.1-3,0.2
			l-3,0.2c-2,0.1-4,0.3-6,0.4l-6,0.5c-2,0.2-4,0.3-6,0.5c-4,0.4-8,0.7-12,1.1c-4,0.4-8,0.8-12,1.2c-16.1,1.7-32.1,3.6-48.2,5.4
			c-32.2,3.6-64.7,7-97.7,8.2c-16.5,0.6-33,0.7-49.6,0.1c-8.3-0.4-16.6-0.9-24.8-1.7c-8.3-0.8-16.5-1.8-24.7-3l-34.2-5.1L75.6,246.3
			z"/>
	</g>
</g>
<g>
	<defs>
		<rect id="SVGID_00000098929343909121567010000011571833259062380180_" x="36.3" y="256" width="142.4" height="33.1"/>
	</defs>
	<clipPath id="SVGID_00000072281647631968075700000001300340980672510092_">
		<use xlink:href="#SVGID_00000098929343909121567010000011571833259062380180_"  style="overflow:visible;"/>
	</clipPath>
	<g style="clip-path:url(#SVGID_00000072281647631968075700000001300340980672510092_);">
		<path class="st3" d="M166.2,281.3c-12.7,2.8-25.6,4.8-38.6,6c-16.3,1.5-32.9,1.7-49-0.9c-7.9-1.3-15.7-3.2-23-6.3
			c-6-2.5-17.5-6.6-18.6-14.1c-0.4-2.7-0.5-6.7,2.9-8.8c4.3-2.7,10.1,0,14.2,1.6c4.8,1.8,9.6,3.8,14.8,5.2c6.5,1.8,13.2,3.3,20,4.6
			c7.7,1.5,15.5,2.8,23.4,3.8c-3.9,0.6-10.4,1.5-13.9,2c-4.2,0.5-8.4,1-12.6,1.3c-4.4,0.4-9,0.7-13.6,0.8
			c20.5,4.1,55.3,7.7,105.9,1.9C174,279.5,170,280.5,166.2,281.3z"/>
	</g>
</g>
<g>
	<g transform="translate(304.505901, 216.106349)">
		<g>
			<path class="st3" d="M108.9,72h2V56.9h7.1v-1.7h-16.2v1.7h7.1V72z"/>
		</g>
	</g>
</g>
<path class="st3" d="M437.4,272.1c-4.4,0-7.9,3.5-7.9,7.9s3.5,7.9,7.9,7.9s7.9-3.5,7.9-7.9S441.7,272.1,437.4,272.1z M441.6,273.9
	c0.4,0.3,0.7,0.6,1.1,0.9c0.7,0.7,1.3,1.6,1.7,2.6l-0.8,0.4l-3.8,0.4l1.3-3.6L441.6,273.9z M439.7,279.1l3.4-0.4l-3.2,1.1
	L439.7,279.1z M442,283.7l-2.9-1.8l0.5-0.6L442,283.7z M438.8,277.9l-0.7-0.3l1.8-2.9L438.8,277.9z M439.1,280
	c0,0.9-0.8,1.7-1.7,1.7c-0.9,0-1.7-0.8-1.7-1.7s0.8-1.7,1.7-1.7C438.3,278.3,439.1,279.1,439.1,280z M437.4,272.6
	c0.8,0,1.5,0.1,2.2,0.3l-0.2,0.9l-2.1,3.3l-2.1-3.3l-0.2-0.9C435.9,272.7,436.6,272.6,437.4,272.6z M436.6,277.6l-0.7,0.3l-1.1-3.2
	L436.6,277.6z M435.2,281.3l0.5,0.6l-2.9,1.8L435.2,281.3z M434.8,279.9l-3.2-1.1l3.4,0.4L434.8,279.9z M432.1,274.8
	c0.3-0.3,0.7-0.6,1.1-0.9l0.6,0.7l1.3,3.6l-3.8-0.4l-0.8-0.4C430.8,276.4,431.4,275.5,432.1,274.8z M431.8,283.4l-0.8,0.3
	c-0.7-1.1-1-2.4-1-3.7c0-0.2,0-0.4,0-0.6l0.9,0l3.6,1.3L431.8,283.4z M436.3,287.4c-1.5-0.2-2.9-0.9-4-1.9l0.5-0.7l3.3-2l0.4,3.8
	L436.3,287.4z M437.4,286l-0.4-3.4h0.8L437.4,286z M438.5,287.4l-0.2-0.9l0.4-3.8l3.3,2l0.5,0.7C441.3,286.5,440,287.2,438.5,287.4z
	 M443,283.4l-2.7-2.7l3.6-1.3l0.9,0c0,0.2,0,0.4,0,0.6c0,1.3-0.3,2.6-1,3.7L443,283.4z"/>
<path class="st3" d="M438.4,280c0,0.3-0.1,0.5-0.3,0.7c-0.2,0.2-0.4,0.3-0.7,0.3c-0.3,0-0.5-0.1-0.7-0.3c-0.2-0.2-0.3-0.4-0.3-0.7
	c0-0.3,0.1-0.5,0.3-0.7c0.2-0.2,0.4-0.3,0.7-0.3c0.3,0,0.5,0.1,0.7,0.3C438.3,279.5,438.4,279.8,438.4,280z"/>
<path class="st3" d="M437.4,271.7c-4.6,0-8.3,3.7-8.3,8.3s3.7,8.3,8.3,8.3c4.6,0,8.3-3.7,8.3-8.3S442,271.7,437.4,271.7z
	 M437.4,288.1c-4.5,0-8.1-3.6-8.1-8.1s3.6-8.1,8.1-8.1s8.1,3.6,8.1,8.1S441.8,288.1,437.4,288.1z"/>
<g>
	<defs>
		<rect id="SVGID_00000085236975251462654660000017613595412446953110_" x="425.9" y="268.5" width="23" height="23"/>
	</defs>
	<clipPath id="SVGID_00000034778040149100244880000001581582331981767327_">
		<use xlink:href="#SVGID_00000085236975251462654660000017613595412446953110_"  style="overflow:visible;"/>
	</clipPath>
	<g style="clip-path:url(#SVGID_00000034778040149100244880000001581582331981767327_);">
		<path class="st3" d="M448.9,279.6c0-0.7-0.1-1.5-0.3-2.2l-1-0.1l0.8-0.6c-0.2-0.7-0.5-1.4-0.8-2l-1,0.1l0.6-0.8
			c-0.4-0.6-0.8-1.2-1.3-1.7l-1,0.4l0.4-1c-0.5-0.5-1.1-0.9-1.7-1.3h0l-0.8,0.6l0.1-1c-0.6-0.3-1.3-0.6-2-0.8l-0.6,0.8l-0.1-1
			c-0.7-0.2-1.4-0.3-2.2-0.3l-0.4,1l-0.4-1c-0.8,0-1.5,0.1-2.2,0.3l-0.1,1L434,269c-0.7,0.2-1.4,0.5-2,0.8l0.1,1l-0.8-0.6
			c-0.6,0.4-1.2,0.8-1.7,1.3l0.4,1l-1-0.4c-0.5,0.5-0.9,1.1-1.3,1.7l0.6,0.8l-1-0.1c-0.3,0.6-0.6,1.3-0.8,2l0.8,0.6l-1,0.1
			c-0.2,0.7-0.3,1.4-0.3,2.2l1,0.4l-1,0.4c0,0.7,0.1,1.5,0.3,2.2l1,0.1l-0.8,0.6c0.2,0.7,0.5,1.4,0.8,2l1-0.1l-0.6,0.8
			c0.4,0.6,0.8,1.2,1.3,1.7l1-0.4l-0.4,1c0.5,0.5,1.1,0.9,1.7,1.3l0.8-0.6l-0.1,1c0.6,0.3,1.3,0.6,2,0.8l0.6-0.8l0.1,1
			c0.7,0.2,1.4,0.3,2.2,0.3l0.4-1l0.4,1c0.8,0,1.5-0.1,2.2-0.3l0.1-1l0.6,0.8c0.7-0.2,1.4-0.5,2-0.8l-0.1-1l0.8,0.6
			c0.6-0.4,1.2-0.8,1.7-1.3l-0.4-1l1,0.4c0.5-0.5,1-1.1,1.3-1.7l-0.6-0.8l1,0.1c0.3-0.6,0.6-1.3,0.8-2l-0.8-0.6l1-0.1
			c0.2-0.7,0.3-1.4,0.3-2.2l-1-0.4L448.9,279.6z M437.4,288.7c-4.8,0-8.6-3.9-8.6-8.6s3.9-8.6,8.6-8.6c4.8,0,8.6,3.9,8.6,8.6
			S442.1,288.7,437.4,288.7z"/>
	</g>
</g>
<g>
	<defs>
		<rect id="SVGID_00000160888832616925140970000001054190039502809263_" x="429.3" y="272" width="16" height="16"/>
	</defs>
	<clipPath id="SVGID_00000130635746234470294640000010273131532633148606_">
		<use xlink:href="#SVGID_00000160888832616925140970000001054190039502809263_"  style="overflow:visible;"/>
	</clipPath>
	<g style="clip-path:url(#SVGID_00000130635746234470294640000010273131532633148606_);">
		<g>
			<defs>
				<path id="SVGID_00000056420713848337291960000005183982366229474234_" d="M428.8,280.2L428.8,280.2c0,2.3,0.9,4.5,2.6,6.2
					c1.6,1.6,3.8,2.6,6.2,2.6c2.3,0,4.5-0.9,6.2-2.6c1.6-1.6,2.6-3.9,2.6-6.2v0c0-2.3-0.9-4.5-2.6-6.2c-1.6-1.6-3.9-2.6-6.2-2.6
					c-2.3,0-4.5,0.9-6.2,2.6C429.8,275.6,428.8,277.8,428.8,280.2"/>
			</defs>
			<clipPath id="SVGID_00000180366686445117526090000008075610696774867091_">
				<use xlink:href="#SVGID_00000056420713848337291960000005183982366229474234_"  style="overflow:visible;"/>
			</clipPath>
			<g style="clip-path:url(#SVGID_00000180366686445117526090000008075610696774867091_);">
				<path class="st1" d="M437.3,272c-4.4,0-7.9,3.5-7.9,7.9c0,4.4,3.5,7.9,7.9,7.9c4.4,0,7.9-3.5,7.9-7.9
					C445.2,275.6,441.7,272,437.3,272z M441.5,273.8c0.4,0.3,0.8,0.6,1.1,0.9c0.7,0.7,1.3,1.6,1.7,2.6l-0.8,0.4l-3.8,0.4l1.3-3.6
					L441.5,273.8z M439.7,279l3.4-0.4l-3.2,1.1L439.7,279z M441.9,283.6l-2.9-1.8l0.5-0.6L441.9,283.6z M438.7,277.8l-0.7-0.3
					l1.8-2.9L438.7,277.8z M439,279.9c0,0.9-0.8,1.7-1.7,1.7c-0.9,0-1.7-0.8-1.7-1.7c0-0.9,0.8-1.7,1.7-1.7
					C438.2,278.2,439,279,439,279.9z M437.3,272.5c0.8,0,1.5,0.1,2.2,0.3l-0.2,0.9l-2.1,3.3l-2.1-3.3l-0.2-0.9
					C435.8,272.6,436.5,272.5,437.3,272.5z M436.6,277.5l-0.7,0.3l-1.1-3.3L436.6,277.5z M435.1,281.2l0.5,0.6l-2.9,1.8L435.1,281.2
					z M434.7,279.8l-3.2-1.1l3.4,0.4L434.7,279.8z M432,274.7c0.3-0.3,0.7-0.6,1.1-0.9l0.6,0.7l1.3,3.6l-3.8-0.4l-0.8-0.4
					C430.7,276.3,431.3,275.4,432,274.7z M431.7,283.3l-0.8,0.3c-0.7-1.1-1-2.4-1-3.7c0-0.2,0-0.4,0-0.6l0.9,0l3.6,1.3L431.7,283.3z
					 M436.2,287.3c-1.5-0.2-2.9-0.9-4-1.9l0.5-0.7l3.3-2l0.4,3.8L436.2,287.3z M437.3,285.9l-0.4-3.4h0.8L437.3,285.9z M438.4,287.3
					l-0.2-0.9l0.4-3.8l3.3,2l0.5,0.7C441.2,286.4,439.9,287.1,438.4,287.3z M442.9,283.3l-2.7-2.7l3.6-1.3l0.9,0c0,0.2,0,0.4,0,0.6
					c0,1.3-0.4,2.6-1,3.7L442.9,283.3z"/>
			</g>
		</g>
	</g>
</g>
<g>
	<defs>
		<rect id="SVGID_00000116947463956866904700000012514811608390668720_" x="436" y="278.7" width="2.7" height="2.7"/>
	</defs>
	<clipPath id="SVGID_00000125568044341642474040000003298702319724235951_">
		<use xlink:href="#SVGID_00000116947463956866904700000012514811608390668720_"  style="overflow:visible;"/>
	</clipPath>
	<g style="clip-path:url(#SVGID_00000125568044341642474040000003298702319724235951_);">
		<g>
			<defs>
				<path id="SVGID_00000025443197261784322680000013852875150220338591_" d="M428.8,280.2L428.8,280.2c0,2.3,0.9,4.5,2.6,6.2
					c1.6,1.6,3.8,2.6,6.2,2.6c2.3,0,4.5-0.9,6.2-2.6c1.6-1.6,2.6-3.9,2.6-6.2v0c0-2.3-0.9-4.5-2.6-6.2c-1.6-1.6-3.9-2.6-6.2-2.6
					c-2.3,0-4.5,0.9-6.2,2.6C429.8,275.6,428.8,277.8,428.8,280.2"/>
			</defs>
			<clipPath id="SVGID_00000016064194881976757920000008442490627969731216_">
				<use xlink:href="#SVGID_00000025443197261784322680000013852875150220338591_"  style="overflow:visible;"/>
			</clipPath>
			<g style="clip-path:url(#SVGID_00000016064194881976757920000008442490627969731216_);">
				<path class="st1" d="M438.3,279.9c0,0.3-0.1,0.5-0.3,0.7c-0.2,0.2-0.4,0.3-0.7,0.3c-0.3,0-0.5-0.1-0.7-0.3
					c-0.2-0.2-0.3-0.4-0.3-0.7c0-0.3,0.1-0.5,0.3-0.7c0.2-0.2,0.4-0.3,0.7-0.3c0.3,0,0.5,0.1,0.7,0.3
					C438.2,279.4,438.3,279.7,438.3,279.9z"/>
			</g>
		</g>
	</g>
</g>
<g>
	<defs>
		<rect id="SVGID_00000068673128547596138730000004506532340720663442_" x="428.8" y="271.4" width="17" height="17"/>
	</defs>
	<clipPath id="SVGID_00000018952588158524222810000009595851473124661401_">
		<use xlink:href="#SVGID_00000068673128547596138730000004506532340720663442_"  style="overflow:visible;"/>
	</clipPath>
	<g style="clip-path:url(#SVGID_00000018952588158524222810000009595851473124661401_);">
		<g>
			<defs>
				<path id="SVGID_00000016793548429801174180000002288745484065447608_" d="M428.8,280.2L428.8,280.2c0,2.3,0.9,4.5,2.6,6.2
					c1.6,1.6,3.8,2.6,6.2,2.6c2.3,0,4.5-0.9,6.2-2.6c1.6-1.6,2.6-3.9,2.6-6.2v0c0-2.3-0.9-4.5-2.6-6.2c-1.6-1.6-3.9-2.6-6.2-2.6
					c-2.3,0-4.5,0.9-6.2,2.6C429.8,275.6,428.8,277.8,428.8,280.2"/>
			</defs>
			<clipPath id="SVGID_00000010994580684384671690000010339615466418027940_">
				<use xlink:href="#SVGID_00000016793548429801174180000002288745484065447608_"  style="overflow:visible;"/>
			</clipPath>
			<g style="clip-path:url(#SVGID_00000010994580684384671690000010339615466418027940_);">
				<path class="st1" d="M437.3,271.6c-4.6,0-8.3,3.7-8.3,8.3s3.7,8.3,8.3,8.3s8.3-3.7,8.3-8.3S441.9,271.6,437.3,271.6z M437.3,288
					c-4.5,0-8.1-3.6-8.1-8.1s3.6-8.1,8.1-8.1s8.1,3.6,8.1,8.1S441.7,288,437.3,288z"/>
				<path class="st1" d="M448.8,279.5c0-0.8-0.1-1.5-0.3-2.2l-1-0.1l0.8-0.6c-0.2-0.7-0.5-1.4-0.8-2l-1,0.1l0.6-0.8
					c-0.4-0.6-0.8-1.2-1.3-1.7l-1,0.4l0.4-1c-0.5-0.5-1.1-0.9-1.7-1.3h0l-0.8,0.6l0.1-1c-0.6-0.3-1.3-0.6-2-0.8l-0.6,0.8l-0.1-1
					c-0.7-0.2-1.4-0.3-2.2-0.3l-0.4,1l-0.4-1c-0.7,0-1.5,0.1-2.2,0.3l-0.1,1l-0.6-0.8c-0.7,0.2-1.4,0.5-2,0.8l0.1,1l-0.8-0.6
					c-0.6,0.4-1.2,0.8-1.7,1.3l0.4,1l-1-0.4c-0.5,0.5-0.9,1.1-1.3,1.7l0.6,0.8l-1-0.1c-0.3,0.6-0.6,1.3-0.8,2l0.8,0.6l-1,0.1
					c-0.2,0.7-0.3,1.4-0.3,2.2l1,0.4l-1,0.4c0,0.8,0.1,1.5,0.3,2.2l1,0.1l-0.8,0.6c0.2,0.7,0.5,1.4,0.8,2l1-0.1l-0.6,0.8
					c0.4,0.6,0.8,1.2,1.3,1.7l1-0.4l-0.4,1c0.5,0.5,1.1,0.9,1.7,1.3l0.8-0.6l-0.1,1c0.6,0.3,1.3,0.6,2,0.8l0.6-0.8l0.1,1
					c0.7,0.2,1.4,0.3,2.2,0.3l0.4-1l0.4,1c0.7,0,1.5-0.1,2.2-0.3l0.1-1l0.6,0.8c0.7-0.2,1.4-0.5,2-0.8l-0.1-1l0.8,0.6
					c0.6-0.4,1.2-0.8,1.7-1.3l-0.4-1l1,0.4c0.5-0.5,0.9-1.1,1.3-1.7l-0.6-0.8l1,0.1c0.3-0.6,0.6-1.3,0.8-2l-0.8-0.6l1-0.1
					c0.2-0.7,0.3-1.4,0.3-2.2l-1-0.4L448.8,279.5z M437.3,288.6c-4.8,0-8.6-3.9-8.6-8.6c0-4.8,3.9-8.6,8.6-8.6
					c4.8,0,8.6,3.9,8.6,8.6C445.9,284.7,442.1,288.6,437.3,288.6z"/>
			</g>
		</g>
	</g>
</g>
<g>
	<defs>
		<rect id="SVGID_00000036936548148814757550000005526428801500513726_" x="427.5" y="270.3" width="20" height="20"/>
	</defs>
	<clipPath id="SVGID_00000173137044842129228230000009116521613666567050_">
		<use xlink:href="#SVGID_00000036936548148814757550000005526428801500513726_"  style="overflow:visible;"/>
	</clipPath>
	<g style="clip-path:url(#SVGID_00000173137044842129228230000009116521613666567050_);">
		<path d="M437.5,290.3c-5.5,0-10-4.5-10-10c0-5.5,4.5-10,10-10c5.5,0,10,4.5,10,10C447.5,285.8,443,290.3,437.5,290.3z
			 M437.5,270.9c-5.2,0-9.4,4.2-9.4,9.4c0,5.2,4.2,9.4,9.4,9.4c5.2,0,9.4-4.2,9.4-9.4C446.9,275.1,442.7,270.9,437.5,270.9z"/>
	</g>
</g>
<g>
	<g transform="translate(172.93902, 216.106349)">
		<g>
			<path class="st3" d="M66.1,72.3h1.8l4.1-8.6l1.5-3.4l1.6,3.6l4.1,8.5h1.7l7.8-17.1h-2.2l-4.8,10.9L80,70.3l-1.7-4l-4-8.3h-1.6
				l-4,8.2L67,70.3l-1.7-4.1l-4.8-10.9h-2.2L66.1,72.3z"/>
		</g>
	</g>
</g>
<g>
	<g transform="translate(195.810555, 216.106349)">
		<g>
			<path class="st3" d="M67.5,72h2v-7.6H81V72h2V55.3h-2v7.5H69.4v-7.5h-2V72z"/>
		</g>
	</g>
</g>
<g>
	<g transform="translate(209.849163, 216.106349)">
		<g>
			<path class="st3" d="M72.2,72h13v-1.7h-11v-5.9h10.6v-1.7H74.2v-5.9h11v-1.7h-13V72z"/>
		</g>
	</g>
</g>
<g>
	<g transform="translate(221.410239, 216.106349)">
		<g>
			<path class="st3" d="M76,72h13v-1.7H78v-5.9h10.6v-1.7H78v-5.9h11v-1.7H76V72z"/>
		</g>
	</g>
</g>
<g>
	<g transform="translate(232.971317, 216.106349)">
		<g>
			<path class="st3" d="M79.9,72h13v-1.7h-11V55.3h-2V72z"/>
		</g>
	</g>
</g>
<g>
	<g transform="translate(243.634743, 216.106349)">
		<g>
			<path class="st3" d="M82.8,62h1.9v-6.8h-1.9V62z"/>
		</g>
	</g>
</g>
<g>
	<g transform="translate(246.578341, 216.106349)">
		<g>
			<path class="st3" d="M91.8,72.4c1,0,2-0.1,2.8-0.3c2.4-0.5,5-1.7,5.2-4.2c0-0.2,0-0.4,0-0.5c0-4.6-4.8-4.5-8.2-4.7
				c-3-0.2-6.2-0.1-6.2-2.7c0-1.7,1.6-2.5,3.1-2.9c0.9-0.3,2-0.4,3-0.4c0.8,0,1.7,0.1,2.5,0.3c1.9,0.4,3.3,1.2,3.4,3.1l2,0
				c-0.1-2.5-2.2-4-4.9-4.6c-0.9-0.2-1.9-0.3-2.9-0.3c-1.2,0-2.4,0.1-3.5,0.4c-2.6,0.7-4.6,2.2-4.6,4.5c0,4.3,5,4.1,8,4.4
				c2,0.2,6.3-0.3,6.3,3c0,0.1,0,0.3,0,0.5c-0.1,1.3-1.5,2.2-3.3,2.6c-0.9,0.2-1.9,0.3-2.9,0.3c-1.3,0-2.7-0.2-3.9-0.6
				c-1.6-0.6-2.8-1.8-2.8-3l-1.9,0.1c0.1,2.5,2.1,3.9,4.5,4.6C88.8,72.2,90.3,72.4,91.8,72.4z"/>
		</g>
	</g>
</g>
<g>
	<g transform="translate(259.665431, 216.106349)">
	</g>
</g>
<g>
	<g transform="translate(264.547967, 216.106349)">
		<g>
			<path class="st3" d="M90.4,72h2v-14l7.3,9.1h1.2l7.3-9.1v14h2V55.3H108l-7.7,9.8l-7.7-9.8h-2.1V72z"/>
		</g>
	</g>
</g>
<g>
	<g transform="translate(281.700732, 216.106349)">
	</g>
</g>
<g>
	<g transform="translate(286.583266, 216.106349)">
	</g>
</g>
<g>
	<g transform="translate(291.4658, 216.106349)">
	</g>
</g>
<path class="st3" d="M390.7,272.1c-4.4,0-7.9,3.5-7.9,7.9s3.5,7.9,7.9,7.9c4.4,0,7.9-3.5,7.9-7.9S395.1,272.1,390.7,272.1z
	 M394.9,273.9c0.4,0.3,0.8,0.6,1.1,0.9c0.7,0.7,1.3,1.6,1.7,2.6l-0.8,0.4l-3.8,0.4l1.3-3.6L394.9,273.9z M393.1,279.1l3.4-0.4
	l-3.2,1.1L393.1,279.1z M395.4,283.7l-2.9-1.8l0.5-0.6L395.4,283.7z M392.2,277.9l-0.7-0.3l1.8-2.9L392.2,277.9z M392.4,280
	c0,0.9-0.8,1.7-1.7,1.7c-0.9,0-1.7-0.8-1.7-1.7s0.8-1.7,1.7-1.7C391.7,278.3,392.4,279.1,392.4,280z M390.7,272.6
	c0.8,0,1.5,0.1,2.2,0.3l-0.2,0.9l-2.1,3.3l-2.1-3.3l-0.2-0.9C389.2,272.7,390,272.6,390.7,272.6z M390,277.6l-0.7,0.3l-1.1-3.2
	L390,277.6z M388.5,281.3l0.5,0.6l-2.9,1.8L388.5,281.3z M388.2,279.9l-3.2-1.1l3.4,0.4L388.2,279.9z M385.5,274.8
	c0.3-0.3,0.7-0.6,1.1-0.9l0.6,0.7l1.3,3.6l-3.8-0.4l-0.8-0.4C384.2,276.4,384.7,275.5,385.5,274.8z M385.1,283.4l-0.8,0.3
	c-0.7-1.1-1-2.4-1-3.7c0-0.2,0-0.4,0-0.6l0.9,0l3.6,1.3L385.1,283.4z M389.7,287.4c-1.5-0.2-2.9-0.9-4-1.9l0.5-0.7l3.3-2l0.4,3.8
	L389.7,287.4z M390.7,286l-0.4-3.4h0.8L390.7,286z M391.8,287.4l-0.2-0.9l0.4-3.8l3.3,2l0.5,0.7
	C394.7,286.5,393.3,287.2,391.8,287.4z M396.4,283.4l-2.7-2.7l3.6-1.3l0.9,0c0,0.2,0,0.4,0,0.6c0,1.3-0.4,2.6-1,3.7L396.4,283.4z"/>
<path class="st3" d="M391.7,280c0,0.3-0.1,0.5-0.3,0.7c-0.2,0.2-0.4,0.3-0.7,0.3c-0.3,0-0.5-0.1-0.7-0.3c-0.2-0.2-0.3-0.4-0.3-0.7
	c0-0.3,0.1-0.5,0.3-0.7c0.2-0.2,0.4-0.3,0.7-0.3c0.3,0,0.5,0.1,0.7,0.3C391.6,279.5,391.7,279.8,391.7,280z"/>
<path class="st3" d="M390.7,271.7c-4.6,0-8.3,3.7-8.3,8.3s3.7,8.3,8.3,8.3s8.3-3.7,8.3-8.3S395.3,271.7,390.7,271.7z M390.7,288.1
	c-4.5,0-8.1-3.6-8.1-8.1s3.6-8.1,8.1-8.1s8.1,3.6,8.1,8.1S395.2,288.1,390.7,288.1z"/>
<g>
	<defs>
		<rect id="SVGID_00000063609170428455733890000000226539768710587823_" x="379.2" y="268.5" width="23" height="23"/>
	</defs>
	<clipPath id="SVGID_00000001643653482633522640000014147483886806355631_">
		<use xlink:href="#SVGID_00000063609170428455733890000000226539768710587823_"  style="overflow:visible;"/>
	</clipPath>
	<g style="clip-path:url(#SVGID_00000001643653482633522640000014147483886806355631_);">
		<path class="st3" d="M402.2,279.6c0-0.7-0.1-1.5-0.3-2.2l-1-0.1l0.8-0.6c-0.2-0.7-0.5-1.4-0.8-2l-1,0.1l0.6-0.8
			c-0.4-0.6-0.8-1.2-1.3-1.7l-1,0.4l0.4-1c-0.5-0.5-1.1-0.9-1.7-1.3h0l-0.8,0.6l0.1-1c-0.6-0.3-1.3-0.6-2-0.8l-0.6,0.8l-0.1-1
			c-0.7-0.2-1.4-0.3-2.2-0.3l-0.4,1l-0.4-1c-0.7,0-1.5,0.1-2.2,0.3l-0.1,1l-0.6-0.8c-0.7,0.2-1.4,0.5-2,0.8l0.1,1l-0.8-0.6
			c-0.6,0.4-1.2,0.8-1.7,1.3l0.4,1l-1-0.4c-0.5,0.5-0.9,1.1-1.3,1.7l0.6,0.8l-1-0.1c-0.3,0.6-0.6,1.3-0.8,2l0.8,0.6l-1,0.1
			c-0.2,0.7-0.3,1.4-0.3,2.2l1,0.4l-1,0.4c0,0.7,0.1,1.5,0.3,2.2l1,0.1l-0.8,0.6c0.2,0.7,0.5,1.4,0.8,2l1-0.1l-0.6,0.8
			c0.4,0.6,0.8,1.2,1.3,1.7l1-0.4l-0.4,1c0.5,0.5,1.1,0.9,1.7,1.3l0.8-0.6l-0.1,1c0.6,0.3,1.3,0.6,2,0.8l0.6-0.8l0.1,1
			c0.7,0.2,1.4,0.3,2.2,0.3l0.4-1l0.4,1c0.7,0,1.5-0.1,2.2-0.3l0.1-1l0.6,0.8c0.7-0.2,1.4-0.5,2-0.8l-0.1-1l0.8,0.6
			c0.6-0.4,1.2-0.8,1.7-1.3l-0.4-1l1,0.4c0.5-0.5,0.9-1.1,1.3-1.7l-0.6-0.8l1,0.1c0.3-0.6,0.6-1.3,0.8-2l-0.8-0.6l1-0.1
			c0.2-0.7,0.3-1.4,0.3-2.2l-1-0.4L402.2,279.6z M390.7,288.7c-4.8,0-8.6-3.9-8.6-8.6s3.9-8.6,8.6-8.6c4.8,0,8.6,3.9,8.6,8.6
			S395.5,288.7,390.7,288.7z"/>
	</g>
</g>
<g>
	<defs>
		<rect id="SVGID_00000172421832808929950540000016477537877557228175_" x="382.7" y="272" width="16" height="16"/>
	</defs>
	<clipPath id="SVGID_00000078736521507033139390000008150054104238661022_">
		<use xlink:href="#SVGID_00000172421832808929950540000016477537877557228175_"  style="overflow:visible;"/>
	</clipPath>
	<g style="clip-path:url(#SVGID_00000078736521507033139390000008150054104238661022_);">
		<g>
			<defs>
				<path id="SVGID_00000138562715818203282740000014704011086154492314_" d="M382.2,280.2L382.2,280.2c0,2.3,0.9,4.5,2.6,6.2
					c1.6,1.6,3.9,2.6,6.2,2.6s4.5-0.9,6.2-2.6c1.6-1.6,2.6-3.9,2.6-6.2v0c0-2.3-0.9-4.5-2.6-6.2c-1.6-1.6-3.9-2.6-6.2-2.6
					s-4.5,0.9-6.2,2.6C383.1,275.6,382.2,277.8,382.2,280.2"/>
			</defs>
			<clipPath id="SVGID_00000078743529275656991710000016347995058632837562_">
				<use xlink:href="#SVGID_00000138562715818203282740000014704011086154492314_"  style="overflow:visible;"/>
			</clipPath>
			<g style="clip-path:url(#SVGID_00000078743529275656991710000016347995058632837562_);">
				<path class="st1" d="M390.7,272c-4.4,0-7.9,3.5-7.9,7.9c0,4.4,3.5,7.9,7.9,7.9c4.4,0,7.9-3.5,7.9-7.9
					C398.6,275.6,395,272,390.7,272z M394.8,273.8c0.4,0.3,0.8,0.6,1.1,0.9c0.7,0.7,1.3,1.6,1.7,2.6l-0.8,0.4l-3.8,0.4l1.3-3.6
					L394.8,273.8z M393,279l3.4-0.4l-3.2,1.1L393,279z M395.3,283.6l-2.9-1.8l0.5-0.6L395.3,283.6z M392.1,277.8l-0.7-0.3l1.8-2.9
					L392.1,277.8z M392.3,279.9c0,0.9-0.8,1.7-1.7,1.7c-0.9,0-1.7-0.8-1.7-1.7c0-0.9,0.8-1.7,1.7-1.7
					C391.6,278.2,392.3,279,392.3,279.9z M390.7,272.5c0.8,0,1.5,0.1,2.2,0.3l-0.2,0.9l-2.1,3.3l-2.1-3.3l-0.2-0.9
					C389.1,272.6,389.9,272.5,390.7,272.5z M389.9,277.5l-0.7,0.3l-1.1-3.3L389.9,277.5z M388.4,281.2l0.5,0.6l-2.9,1.8L388.4,281.2
					z M388.1,279.8l-3.2-1.1l3.4,0.4L388.1,279.8z M385.4,274.7c0.3-0.3,0.7-0.6,1.1-0.9l0.6,0.7l1.3,3.6l-3.8-0.4l-0.8-0.4
					C384.1,276.3,384.7,275.4,385.4,274.7z M385,283.3l-0.8,0.3c-0.7-1.1-1-2.4-1-3.7c0-0.2,0-0.4,0-0.6l0.9,0l3.6,1.3L385,283.3z
					 M389.6,287.3c-1.5-0.2-2.9-0.9-4-1.9l0.5-0.7l3.3-2l0.4,3.8L389.6,287.3z M390.7,285.9l-0.4-3.4h0.8L390.7,285.9z M391.7,287.3
					l-0.2-0.9l0.4-3.8l3.3,2l0.5,0.7C394.6,286.4,393.2,287.1,391.7,287.3z M396.3,283.3l-2.7-2.7l3.6-1.3l0.9,0c0,0.2,0,0.4,0,0.6
					c0,1.3-0.3,2.6-1,3.7L396.3,283.3z"/>
			</g>
		</g>
	</g>
</g>
<g>
	<defs>
		<rect id="SVGID_00000132063766235548624010000009598702807230183866_" x="389.3" y="278.7" width="2.7" height="2.7"/>
	</defs>
	<clipPath id="SVGID_00000060019090084019916260000004358306508769139331_">
		<use xlink:href="#SVGID_00000132063766235548624010000009598702807230183866_"  style="overflow:visible;"/>
	</clipPath>
	<g style="clip-path:url(#SVGID_00000060019090084019916260000004358306508769139331_);">
		<g>
			<defs>
				<path id="SVGID_00000171699390007156952100000009300266281315334326_" d="M382.2,280.2L382.2,280.2c0,2.3,0.9,4.5,2.6,6.2
					c1.6,1.6,3.9,2.6,6.2,2.6s4.5-0.9,6.2-2.6c1.6-1.6,2.6-3.9,2.6-6.2v0c0-2.3-0.9-4.5-2.6-6.2c-1.6-1.6-3.9-2.6-6.2-2.6
					s-4.5,0.9-6.2,2.6C383.1,275.6,382.2,277.8,382.2,280.2"/>
			</defs>
			<clipPath id="SVGID_00000153692421798097854830000009081641895944169639_">
				<use xlink:href="#SVGID_00000171699390007156952100000009300266281315334326_"  style="overflow:visible;"/>
			</clipPath>
			<g style="clip-path:url(#SVGID_00000153692421798097854830000009081641895944169639_);">
				<path class="st1" d="M391.6,279.9c0,0.3-0.1,0.5-0.3,0.7c-0.2,0.2-0.4,0.3-0.7,0.3c-0.3,0-0.5-0.1-0.7-0.3
					c-0.2-0.2-0.3-0.4-0.3-0.7c0-0.3,0.1-0.5,0.3-0.7c0.2-0.2,0.4-0.3,0.7-0.3c0.3,0,0.5,0.1,0.7,0.3
					C391.5,279.4,391.6,279.7,391.6,279.9z"/>
			</g>
		</g>
	</g>
</g>
<g>
	<defs>
		<rect id="SVGID_00000100364144086312451990000017887110512459733674_" x="382.2" y="271.4" width="17" height="17"/>
	</defs>
	<clipPath id="SVGID_00000019678869452201916250000000888667412101282711_">
		<use xlink:href="#SVGID_00000100364144086312451990000017887110512459733674_"  style="overflow:visible;"/>
	</clipPath>
	<g style="clip-path:url(#SVGID_00000019678869452201916250000000888667412101282711_);">
		<g>
			<defs>
				<path id="SVGID_00000158027115454233925790000016964789297157946244_" d="M382.2,280.2L382.2,280.2c0,2.3,0.9,4.5,2.6,6.2
					c1.6,1.6,3.9,2.6,6.2,2.6s4.5-0.9,6.2-2.6c1.6-1.6,2.6-3.9,2.6-6.2v0c0-2.3-0.9-4.5-2.6-6.2c-1.6-1.6-3.9-2.6-6.2-2.6
					s-4.5,0.9-6.2,2.6C383.1,275.6,382.2,277.8,382.2,280.2"/>
			</defs>
			<clipPath id="SVGID_00000146474431569063588930000006454941957436052371_">
				<use xlink:href="#SVGID_00000158027115454233925790000016964789297157946244_"  style="overflow:visible;"/>
			</clipPath>
			<g style="clip-path:url(#SVGID_00000146474431569063588930000006454941957436052371_);">
				<path class="st1" d="M390.7,271.6c-4.6,0-8.3,3.7-8.3,8.3s3.8,8.3,8.3,8.3c4.6,0,8.4-3.7,8.4-8.3S395.3,271.6,390.7,271.6z
					 M390.7,288c-4.5,0-8.1-3.6-8.1-8.1s3.6-8.1,8.1-8.1s8.1,3.6,8.1,8.1S395.1,288,390.7,288z"/>
				<path class="st1" d="M402.2,279.5c0-0.8-0.1-1.5-0.3-2.2l-1-0.1l0.8-0.6c-0.2-0.7-0.5-1.4-0.8-2l-1,0.1l0.6-0.8
					c-0.4-0.6-0.8-1.2-1.3-1.7l-1,0.4l0.4-1c-0.5-0.5-1.1-0.9-1.7-1.3l-0.8,0.6l0.1-1c-0.6-0.3-1.3-0.6-2-0.8l-0.6,0.8l-0.1-1
					c-0.7-0.2-1.4-0.3-2.2-0.3l-0.4,1l-0.4-1c-0.7,0-1.5,0.1-2.2,0.3l-0.1,1l-0.6-0.8c-0.7,0.2-1.4,0.5-2,0.8l0.1,1l-0.8-0.6
					c-0.6,0.4-1.2,0.8-1.7,1.3l0.4,1l-1-0.4c-0.5,0.5-0.9,1.1-1.3,1.7l0.6,0.8l-1-0.1c-0.3,0.6-0.6,1.3-0.8,2l0.8,0.6l-1,0.1
					c-0.2,0.7-0.3,1.4-0.3,2.2l1,0.4l-1,0.4c0,0.8,0.1,1.5,0.3,2.2l1,0.1l-0.8,0.6c0.2,0.7,0.5,1.4,0.8,2l1-0.1l-0.6,0.8
					c0.4,0.6,0.8,1.2,1.3,1.7l1-0.4l-0.4,1c0.5,0.5,1.1,0.9,1.7,1.3l0.8-0.6l-0.1,1c0.6,0.3,1.3,0.6,2,0.8l0.6-0.8l0.1,1
					c0.7,0.2,1.4,0.3,2.2,0.3l0.4-1l0.4,1c0.7,0,1.5-0.1,2.2-0.3l0.1-1l0.6,0.8c0.7-0.2,1.4-0.5,2-0.8l-0.1-1l0.8,0.6
					c0.6-0.4,1.2-0.8,1.7-1.3l-0.4-1l1,0.4c0.5-0.5,0.9-1.1,1.3-1.7l-0.6-0.8l1,0.1c0.3-0.6,0.6-1.3,0.8-2l-0.8-0.6l1-0.1
					c0.2-0.7,0.3-1.4,0.3-2.2l-1-0.4L402.2,279.5z M390.7,288.6c-4.8,0-8.6-3.9-8.6-8.6c0-4.8,3.9-8.6,8.6-8.6
					c4.8,0,8.6,3.9,8.6,8.6C399.3,284.7,395.4,288.6,390.7,288.6z"/>
			</g>
		</g>
	</g>
</g>
<g>
	<defs>
		<rect id="SVGID_00000074421002526926577670000013169504447292351138_" x="380.9" y="270.3" width="20" height="20"/>
	</defs>
	<clipPath id="SVGID_00000033333389159785119180000007988976053973443493_">
		<use xlink:href="#SVGID_00000074421002526926577670000013169504447292351138_"  style="overflow:visible;"/>
	</clipPath>
	<g style="clip-path:url(#SVGID_00000033333389159785119180000007988976053973443493_);">
		<path d="M390.9,290.3c-5.5,0-10-4.5-10-10c0-5.5,4.5-10,10-10c5.5,0,10,4.5,10,10C400.9,285.8,396.4,290.3,390.9,290.3z
			 M390.9,270.9c-5.2,0-9.4,4.2-9.4,9.4c0,5.2,4.2,9.4,9.4,9.4c5.2,0,9.4-4.2,9.4-9.4C400.3,275.1,396.1,270.9,390.9,270.9z"/>
	</g>
</g>
</svg>
